<svg width="21" height="21" viewBox="0 0 21 21" fill="none" xmlns="http://www.w3.org/2000/svg">
<path d="M2.64943 0.436127L10.5 8.28642L18.3183 0.468433C18.4553 0.322601 18.6203 0.20594 18.8035 0.125447C18.9867 0.044953 19.1843 0.00228457 19.3844 0C19.8128 0 20.2237 0.170181 20.5266 0.473106C20.8295 0.776031 20.9997 1.18689 20.9997 1.61529C21.0035 1.81332 20.9668 2.01004 20.8918 2.19337C20.8168 2.37669 20.7051 2.54276 20.5636 2.68138L12.6646 10.4994L20.5636 18.3981C20.8298 18.6586 20.9859 19.0113 20.9997 19.3834C20.9997 19.8118 20.8295 20.2227 20.5266 20.5256C20.2237 20.8285 19.8128 20.9987 19.3844 20.9987C19.1785 21.0073 18.9731 20.9729 18.7813 20.8978C18.5894 20.8227 18.4152 20.7086 18.2698 20.5626L10.5 12.7123L2.66558 20.5464C2.52909 20.6874 2.36604 20.8 2.18583 20.8776C2.00561 20.9552 1.81181 20.9964 1.61561 20.9987C1.18719 20.9987 0.776322 20.8285 0.473386 20.5256C0.17045 20.2227 0.000262826 19.8118 0.000262826 19.3834C-0.00350334 19.1854 0.0332409 18.9887 0.108241 18.8054C0.18324 18.622 0.294913 18.456 0.436406 18.3173L8.33544 10.4994L0.436406 2.60061C0.170173 2.34016 0.0140572 1.98747 0.000262826 1.61529C0.000262826 1.18689 0.17045 0.776031 0.473386 0.473106C0.776322 0.170181 1.18719 0 1.61561 0C2.00329 0.00484586 2.37482 0.161529 2.64943 0.436127Z" fill="#000000"/>
</svg>
