<svg width="92" height="65" viewBox="0 0 92 65" fill="none" xmlns="http://www.w3.org/2000/svg">
<path d="M17.784 28.868H0.456V33.352H6.384V56H11.856V33.352H17.784V28.868ZM25.0598 42.434C25.0598 40.61 25.0978 39.0647 25.1738 37.798C25.2751 36.5313 25.4525 35.4927 25.7058 34.682C25.9845 33.8713 26.3645 33.2887 26.8458 32.934C27.3525 32.554 28.0111 32.364 28.8218 32.364C29.6325 32.364 30.2785 32.554 30.7598 32.934C31.2665 33.2887 31.6465 33.8713 31.8998 34.682C32.1785 35.4927 32.3558 36.5313 32.4318 37.798C32.5331 39.0647 32.5838 40.61 32.5838 42.434C32.5838 44.258 32.5331 45.816 32.4318 47.108C32.3558 48.3747 32.1785 49.4133 31.8998 50.224C31.6465 51.0093 31.2665 51.592 30.7598 51.972C30.2785 52.3267 29.6325 52.504 28.8218 52.504C28.0111 52.504 27.3525 52.3267 26.8458 51.972C26.3645 51.592 25.9845 51.0093 25.7058 50.224C25.4525 49.4133 25.2751 48.3747 25.1738 47.108C25.0978 45.816 25.0598 44.258 25.0598 42.434ZM19.5878 42.434C19.5878 44.5113 19.6765 46.4113 19.8538 48.134C20.0565 49.8567 20.4745 51.3387 21.1078 52.58C21.7665 53.8213 22.7038 54.7713 23.9198 55.43C25.1358 56.0887 26.7698 56.418 28.8218 56.418C30.8738 56.418 32.5078 56.0887 33.7238 55.43C34.9398 54.7713 35.8645 53.8213 36.4978 52.58C37.1565 51.3387 37.5745 49.8567 37.7518 48.134C37.9545 46.4113 38.0558 44.5113 38.0558 42.434C38.0558 40.382 37.9545 38.4947 37.7518 36.772C37.5745 35.024 37.1565 33.5293 36.4978 32.288C35.8645 31.0467 34.9398 30.084 33.7238 29.4C32.5078 28.6907 30.8738 28.336 28.8218 28.336C26.7698 28.336 25.1358 28.6907 23.9198 29.4C22.7038 30.084 21.7665 31.0467 21.1078 32.288C20.4745 33.5293 20.0565 35.024 19.8538 36.772C19.6765 38.4947 19.5878 40.382 19.5878 42.434ZM56.14 51.972V32.896H58.458C59.4966 32.896 60.32 33.0987 60.928 33.504C61.5613 33.884 62.03 34.4667 62.334 35.252C62.6633 36.012 62.8786 36.9747 62.98 38.14C63.0813 39.3053 63.132 40.6607 63.132 42.206C63.132 44.0553 63.0686 45.6007 62.942 46.842C62.8406 48.0833 62.6126 49.084 62.258 49.844C61.9286 50.604 61.4726 51.1487 60.89 51.478C60.3073 51.8073 59.5346 51.972 58.572 51.972H56.14ZM50.668 28.868V56H59.294C61.118 56 62.6253 55.7213 63.816 55.164C65.0066 54.6067 65.9566 53.758 66.666 52.618C67.3753 51.478 67.8693 50.034 68.148 48.286C68.452 46.5127 68.604 44.4353 68.604 42.054C68.604 40.0527 68.49 38.2413 68.262 36.62C68.034 34.9987 67.5906 33.618 66.932 32.478C66.2986 31.3127 65.3993 30.426 64.234 29.818C63.0686 29.1847 61.536 28.868 59.636 28.868H50.668ZM77.1243 42.434C77.1243 40.61 77.1623 39.0647 77.2383 37.798C77.3396 36.5313 77.5169 35.4927 77.7703 34.682C78.0489 33.8713 78.4289 33.2887 78.9103 32.934C79.4169 32.554 80.0756 32.364 80.8863 32.364C81.6969 32.364 82.3429 32.554 82.8243 32.934C83.3309 33.2887 83.7109 33.8713 83.9643 34.682C84.2429 35.4927 84.4203 36.5313 84.4963 37.798C84.5976 39.0647 84.6483 40.61 84.6483 42.434C84.6483 44.258 84.5976 45.816 84.4963 47.108C84.4203 48.3747 84.2429 49.4133 83.9643 50.224C83.7109 51.0093 83.3309 51.592 82.8243 51.972C82.3429 52.3267 81.6969 52.504 80.8863 52.504C80.0756 52.504 79.4169 52.3267 78.9103 51.972C78.4289 51.592 78.0489 51.0093 77.7703 50.224C77.5169 49.4133 77.3396 48.3747 77.2383 47.108C77.1623 45.816 77.1243 44.258 77.1243 42.434ZM71.6523 42.434C71.6523 44.5113 71.7409 46.4113 71.9183 48.134C72.1209 49.8567 72.5389 51.3387 73.1723 52.58C73.8309 53.8213 74.7683 54.7713 75.9843 55.43C77.2003 56.0887 78.8343 56.418 80.8863 56.418C82.9383 56.418 84.5723 56.0887 85.7883 55.43C87.0043 54.7713 87.9289 53.8213 88.5623 52.58C89.2209 51.3387 89.6389 49.8567 89.8163 48.134C90.0189 46.4113 90.1203 44.5113 90.1203 42.434C90.1203 40.382 90.0189 38.4947 89.8163 36.772C89.6389 35.024 89.2209 33.5293 88.5623 32.288C87.9289 31.0467 87.0043 30.084 85.7883 29.4C84.5723 28.6907 82.9383 28.336 80.8863 28.336C78.8343 28.336 77.2003 28.6907 75.9843 29.4C74.7683 30.084 73.8309 31.0467 73.1723 32.288C72.5389 33.5293 72.1209 35.024 71.9183 36.772C71.7409 38.4947 71.6523 40.382 71.6523 42.434Z" fill="#000000"/>
<path d="M8.656 16.082L7.138 9.02H7.094L5.576 16.082H8.656ZM9.074 6.292L13.232 22H9.932L9.206 18.678H5.026L4.3 22H1L5.158 6.292H9.074ZM12.9709 6.292L15.8309 22H19.3729L21.1329 10.604H21.1769L22.9369 22H26.4789L29.3389 6.292H26.3029L24.5649 17.908H24.5209L22.6729 6.292H19.6369L17.7889 17.908H17.7449L16.0069 6.292H12.9709ZM39.3878 6.292H30.6098V22H39.6078V19.404H33.7778V15.18H39.0578V12.584H33.7778V8.888H39.3878V6.292ZM43.7536 17.094H40.5856V17.732C40.5856 19.184 40.9669 20.2987 41.7296 21.076C42.5069 21.8533 43.7902 22.242 45.5796 22.242C47.2956 22.242 48.6302 21.868 49.5836 21.12C50.5516 20.3573 51.0356 19.1473 51.0356 17.49C51.0356 17.006 50.9916 16.566 50.9036 16.17C50.8156 15.774 50.6542 15.4147 50.4196 15.092C50.1996 14.7547 49.8989 14.4467 49.5176 14.168C49.1362 13.8747 48.6449 13.596 48.0436 13.332L45.6016 12.276C44.9269 11.9973 44.4869 11.6967 44.2816 11.374C44.0762 11.0367 43.9736 10.626 43.9736 10.142C43.9736 9.90733 43.9956 9.68 44.0396 9.46C44.0982 9.24 44.1936 9.04933 44.3256 8.888C44.4722 8.712 44.6629 8.57267 44.8976 8.47C45.1322 8.36733 45.4256 8.316 45.7776 8.316C46.3936 8.316 46.8336 8.52133 47.0976 8.932C47.3616 9.328 47.4936 9.9 47.4936 10.648H50.5296V10.208C50.5296 9.46 50.4049 8.822 50.1556 8.294C49.9209 7.75133 49.5836 7.31133 49.1436 6.974C48.7182 6.622 48.2049 6.37267 47.6036 6.226C47.0169 6.06467 46.3716 5.984 45.6676 5.984C44.1569 5.984 42.9689 6.36533 42.1036 7.128C41.2382 7.89067 40.8056 9.04933 40.8056 10.604C40.8056 11.2493 40.8862 11.8213 41.0476 12.32C41.2089 12.804 41.4582 13.2367 41.7956 13.618C42.1476 13.9847 42.5802 14.3073 43.0936 14.586C43.6069 14.8647 44.2156 15.1213 44.9196 15.356C45.4476 15.532 45.8876 15.708 46.2396 15.884C46.6062 16.0453 46.8996 16.2287 47.1196 16.434C47.3396 16.6393 47.4936 16.874 47.5816 17.138C47.6842 17.3873 47.7356 17.688 47.7356 18.04C47.7356 18.7 47.5376 19.1913 47.1416 19.514C46.7602 19.822 46.3276 19.976 45.8436 19.976C45.4329 19.976 45.0882 19.9173 44.8096 19.8C44.5456 19.6827 44.3329 19.5213 44.1716 19.316C44.0102 19.1107 43.9002 18.8613 43.8416 18.568C43.7829 18.26 43.7536 17.9227 43.7536 17.556V17.094ZM55.4478 14.146C55.4478 13.09 55.4698 12.1953 55.5138 11.462C55.5724 10.7287 55.6751 10.1273 55.8218 9.658C55.9831 9.18867 56.2031 8.85133 56.4818 8.646C56.7751 8.426 57.1564 8.316 57.6258 8.316C58.0951 8.316 58.4691 8.426 58.7478 8.646C59.0411 8.85133 59.2611 9.18867 59.4078 9.658C59.5691 10.1273 59.6718 10.7287 59.7158 11.462C59.7744 12.1953 59.8038 13.09 59.8038 14.146C59.8038 15.202 59.7744 16.104 59.7158 16.852C59.6718 17.5853 59.5691 18.1867 59.4078 18.656C59.2611 19.1107 59.0411 19.448 58.7478 19.668C58.4691 19.8733 58.0951 19.976 57.6258 19.976C57.1564 19.976 56.7751 19.8733 56.4818 19.668C56.2031 19.448 55.9831 19.1107 55.8218 18.656C55.6751 18.1867 55.5724 17.5853 55.5138 16.852C55.4698 16.104 55.4478 15.202 55.4478 14.146ZM52.2798 14.146C52.2798 15.3487 52.3311 16.4487 52.4338 17.446C52.5511 18.4433 52.7931 19.3013 53.1598 20.02C53.5411 20.7387 54.0838 21.2887 54.7878 21.67C55.4918 22.0513 56.4378 22.242 57.6258 22.242C58.8138 22.242 59.7598 22.0513 60.4638 21.67C61.1678 21.2887 61.7031 20.7387 62.0698 20.02C62.4511 19.3013 62.6931 18.4433 62.7958 17.446C62.9131 16.4487 62.9718 15.3487 62.9718 14.146C62.9718 12.958 62.9131 11.8653 62.7958 10.868C62.6931 9.856 62.4511 8.99067 62.0698 8.272C61.7031 7.55333 61.1678 6.996 60.4638 6.6C59.7598 6.18933 58.8138 5.984 57.6258 5.984C56.4378 5.984 55.4918 6.18933 54.7878 6.6C54.0838 6.996 53.5411 7.55333 53.1598 8.272C52.7931 8.99067 52.5511 9.856 52.4338 10.868C52.3311 11.8653 52.2798 12.958 52.2798 14.146ZM64.9004 6.292V22H67.8044V9.46H67.8484L70.6424 22H73.1064L75.9004 9.46H75.9444V22H78.8484V6.292H74.1624L71.8964 17.38H71.8524L69.6084 6.292H64.9004ZM89.8975 6.292H81.1195V22H90.1175V19.404H84.2875V15.18H89.5675V12.584H84.2875V8.888H89.8975V6.292Z" fill="#000000"/>
</svg>
