<svg width="185" height="233" viewBox="0 0 185 233" fill="none" xmlns="http://www.w3.org/2000/svg">
<path d="M32.058 192.631L158.261 193.173C188.941 169.096 192.105 133.403 170.221 111.769C156.979 98.6903 140.126 101.33 124.141 99.2493C118.484 98.6499 112.981 97.0332 107.898 94.477C91.406 85.7837 82.1022 65.2415 68.2412 47.9926C66.5214 45.8343 64.7071 43.6933 62.8068 41.6984C51.3964 29.5141 28.6959 29.1185 16.8125 46.2471C-13.4032 89.7563 0.423478 154.521 32.058 192.631Z" fill="#BDA876"/>
<path d="M29.2288 93.0668C32.5393 144.848 92.3345 164.178 129.678 148.666C162.156 135.174 151.528 104.391 124.115 99.2493C118.458 98.6499 112.955 97.0332 107.872 94.477C91.38 85.7837 82.0762 65.2415 68.2152 47.9926C47.5268 37.2529 26.8298 55.1553 29.2288 93.0668Z" fill="#FFFBF1"/>
<path d="M83.4943 77.1115V94.3337L118.858 129.706H131.711V125.329L83.4943 77.1115Z" fill="#EBEBEB"/>
<path d="M156.154 129.706L137.016 110.568V119.175L147.547 129.706H156.154Z" fill="#EBEBEB"/>
<path d="M37.4956 146.997C37.9723 145.558 63.498 111.851 65.2315 111.209C65.4309 111.123 76.8286 119.235 76.8286 119.235C77.3053 119.859 98.974 115.283 98.974 115.283L99.1907 141.424L59.7104 140.557C59.7104 140.557 54.3799 143.695 49.5001 146.252C47.4274 147.419 45.2854 148.458 43.0861 149.363C41.084 149.901 37.0102 148.427 37.4956 146.997Z" fill="#D5A29E"/>
<path d="M43.06 149.389C45.2618 148.489 47.4041 147.45 49.4739 146.278C54.3537 143.678 59.6842 140.583 59.6842 140.583L68.473 140.774L82.2456 118.577C79.2207 119.114 76.9758 119.443 76.8198 119.235C76.8198 119.235 65.422 111.114 65.2227 111.209C63.4892 111.851 37.9721 145.55 37.4868 146.997C37.0014 148.445 41.0838 149.901 43.06 149.389Z" fill="white"/>
<path d="M37.2615 147.041C37.7642 145.567 63.3852 111.885 65.1794 111.218C65.8555 110.958 71.4287 114.408 76.8198 119.235L60.2823 140.904C60.2823 140.904 45.0189 148.991 42.9474 149.511C40.8758 150.031 36.7588 148.514 37.2615 147.041Z" fill="#F9E4B0"/>
<path d="M38.9778 147.578C43.4156 142.04 60.7765 119.279 64.7375 113.463C64.7375 113.411 64.7375 113.394 64.7375 113.463C60.2305 118.854 43.0689 141.762 38.9258 147.535C38.8218 147.63 38.8825 147.708 38.9778 147.578Z" fill="#3F3D56"/>
<path d="M45.8336 148.289C46.3279 147.675 46.6889 146.965 46.8933 146.204C47.0978 145.443 47.1413 144.647 47.021 143.868C46.824 142.459 46.0875 141.182 44.9669 140.306C44.9669 140.306 44.8888 140.306 44.9149 140.375C45.8922 141.415 46.5052 142.743 46.6615 144.161C46.8179 145.579 46.509 147.01 45.7816 148.237C45.7741 148.238 45.7671 148.242 45.7615 148.248C45.7559 148.253 45.7519 148.26 45.7497 148.267C45.7476 148.274 45.7475 148.282 45.7494 148.29C45.7514 148.297 45.7553 148.304 45.7608 148.31C45.7662 148.315 45.773 148.319 45.7805 148.321C45.788 148.323 45.7959 148.323 45.8033 148.321C45.8107 148.318 45.8175 148.314 45.8228 148.309C45.8281 148.303 45.8319 148.296 45.8336 148.289Z" fill="#3F3D56"/>
<path d="M58.3669 142.273C60.1004 140.037 61.3138 136.804 60.5338 133.996C60.5338 133.883 60.3431 133.935 60.3344 133.996C59.8661 136.763 59.1019 139.471 58.0549 142.074C58.0285 142.116 58.0195 142.166 58.0301 142.214C58.0407 142.262 58.0698 142.303 58.1112 142.33C58.1526 142.356 58.2028 142.365 58.2507 142.355C58.2987 142.344 58.3405 142.315 58.3669 142.273Z" fill="#3F3D56"/>
<path d="M56.3559 143.496C58.0894 141.259 59.3029 138.035 58.5228 135.227C58.5228 135.114 58.3408 135.157 58.3234 135.227C57.854 137.989 57.0927 140.694 56.0525 143.296C56.0261 143.336 56.0167 143.386 56.0265 143.433C56.0362 143.48 56.0643 143.521 56.1046 143.548C56.1448 143.574 56.1938 143.583 56.241 143.574C56.2881 143.564 56.3295 143.536 56.3559 143.496Z" fill="#3F3D56"/>
<path d="M54.3537 144.726C56.0872 142.49 57.3007 139.257 56.5206 136.449C56.5206 136.345 56.3299 136.388 56.3125 136.449C55.8513 139.213 55.0898 141.919 54.0417 144.518C54.0141 144.56 54.0041 144.61 54.0138 144.659C54.0236 144.708 54.0523 144.751 54.0937 144.778C54.1351 144.806 54.1857 144.816 54.2345 144.806C54.2832 144.796 54.3261 144.768 54.3537 144.726Z" fill="#3F3D56"/>
<path d="M52.3427 145.974C54.0762 143.738 55.2897 140.514 54.5096 137.706C54.5096 137.593 54.3276 137.636 54.3102 137.706C53.8408 140.468 53.0796 143.173 52.0394 145.775C52.0129 145.815 52.0036 145.864 52.0133 145.912C52.0231 145.959 52.0511 146 52.0914 146.026C52.1316 146.053 52.1807 146.062 52.2278 146.053C52.275 146.043 52.3163 146.015 52.3427 145.974Z" fill="#3F3D56"/>
<path d="M69.0017 118.984C70.9259 116.436 66.9822 113.445 65.0493 115.994C63.1165 118.542 67.0775 121.524 69.0017 118.984Z" fill="#3F3D56"/>
<path d="M59.3635 146.599C58.7134 144.18 59.1381 141.571 59.2508 139.118C59.2578 139.064 59.2775 139.012 59.3085 138.967C59.3395 138.921 59.3809 138.884 59.4291 138.858C59.4773 138.832 59.5311 138.817 59.586 138.816C59.6409 138.814 59.6954 138.826 59.7449 138.85C59.7513 138.841 59.7597 138.834 59.7695 138.829C59.7793 138.824 59.7902 138.821 59.8012 138.821C59.8122 138.821 59.8231 138.824 59.8328 138.829C59.8426 138.834 59.8511 138.841 59.8575 138.85C61.8036 140.594 63.2589 142.817 64.0786 145.298C64.5293 146.755 64.3559 148.904 62.5358 149.329C60.7156 149.753 59.7362 148.011 59.3635 146.599ZM61.1576 148.124C63.7579 149.771 63.5846 146.122 63.2119 145.056C62.9654 144.376 62.6759 143.713 62.3451 143.071C61.6183 141.76 60.8257 140.488 59.9702 139.257C59.9702 140.462 59.9009 141.667 59.8749 142.872C59.8142 144.31 59.7015 147.223 61.1576 148.124Z" fill="#3F3D56"/>
<path d="M67.4243 131.898C68.7678 133.199 67.8057 135.123 66.6702 136.137C64.6929 137.843 62.3016 139 59.7363 139.491C59.7253 139.492 59.7142 139.491 59.7037 139.488C59.6932 139.485 59.6836 139.479 59.6754 139.472C59.6672 139.464 59.6607 139.455 59.6562 139.445C59.6518 139.435 59.6495 139.424 59.6496 139.413C59.5955 139.406 59.5438 139.387 59.4982 139.358C59.4527 139.328 59.4147 139.288 59.387 139.241C59.3594 139.194 59.3429 139.141 59.3388 139.087C59.3348 139.033 59.3432 138.978 59.3636 138.928C60.5337 136.77 61.5218 134.308 63.3159 132.575C64.3474 131.56 66.1415 130.668 67.4243 131.898ZM61.7991 136.016C61.2011 137.064 60.655 138.139 60.0136 139.162C61.3848 138.548 62.7241 137.865 64.0266 137.116C64.6479 136.742 65.2443 136.328 65.8122 135.877C66.6789 135.166 68.7331 132.133 65.6388 132.185C63.9053 132.219 62.5012 134.767 61.7818 136.016H61.7991Z" fill="#3F3D56"/>
<path d="M100.161 107.266H117.878C117.878 107.266 136.417 98.3554 151.343 101.944C168.461 106.061 170.654 127.556 157.861 135.158C141.644 144.787 69.5132 142.958 69.5132 142.958L85.106 116.505C85.106 116.505 109.098 111.461 130.853 112.171L100.161 116.358V107.266Z" fill="#2A283D"/>
<path d="M84.0745 118.239C84.0786 118.192 84.0786 118.146 84.0745 118.1V117.987C84.0745 117.909 84.1178 117.823 84.1352 117.736C84.1525 117.649 84.2565 117.389 84.3172 117.216C84.3778 117.042 84.4645 116.878 84.5425 116.713C84.6244 116.549 84.72 116.393 84.8285 116.245C84.8285 116.245 84.8286 116.245 84.8719 116.245C87.5155 115.751 105.44 113.185 108.101 112.882C110.762 112.579 113.483 112.327 116.179 112.102C121.557 111.636 126.955 111.442 132.352 111.521H133.869C133.973 111.521 134.094 111.469 134.198 111.443L134.979 111.261C135.464 111.175 135.958 111.097 136.443 111.027C137.466 110.871 138.489 110.759 139.512 110.568C139.572 110.568 139.59 110.655 139.512 110.663C138.489 110.897 137.492 111.192 136.469 111.409L135.603 111.599C137.579 111.703 139.555 111.859 141.531 112.033C141.592 112.033 141.592 112.137 141.531 112.137C138.844 111.972 136.131 111.955 133.444 111.998C130.757 112.041 128.105 112.102 125.436 112.258C120.036 112.57 114.645 113.047 109.271 113.61C106.255 113.931 87.9748 116.592 84.9499 116.722H84.9066C84.8844 116.792 84.8583 116.862 84.8285 116.93L84.5685 117.424C84.4819 117.58 84.3952 117.727 84.2998 117.875L84.1525 118.1L84.0745 118.204C84.0745 118.204 84.0051 118.282 83.9965 118.317C83.9878 118.351 84.0311 118.239 84.0745 118.239Z" fill="#3F3D56"/>
<path d="M75.1383 141.32C76.0917 139.777 76.9584 138.174 77.8252 136.536C78.6919 134.897 79.5587 133.337 80.4861 131.742C82.2629 128.562 88.6249 117.875 89.2576 117.103C89.2576 117.06 89.3789 117.103 89.3616 117.164C89.0582 118.031 85.0799 125.086 84.1611 126.698C82.3323 129.862 80.4081 132.956 78.5099 136.085C77.9725 136.952 77.4092 137.818 76.8631 138.737C76.3171 139.656 75.7277 140.471 75.2249 141.407C75.2249 141.424 75.1036 141.372 75.1383 141.32Z" fill="#3F3D56"/>
<path d="M89.4313 119.773C91.0175 119.383 92.6469 119.14 94.2591 118.837L99.0955 117.927C102.32 117.349 105.55 116.771 108.786 116.193C115.243 115.101 121.726 114.2 128.244 113.593C131.919 113.246 135.603 113.012 139.295 112.726C139.373 112.726 139.365 112.839 139.295 112.847C132.734 113.142 126.181 114.026 119.681 114.962C113.18 115.898 106.827 116.904 100.413 117.987L94.9871 118.915C93.1496 119.235 91.3121 119.625 89.466 119.859C89.388 119.885 89.3533 119.781 89.4313 119.773Z" fill="#3F3D56"/>
<path d="M71.0995 232.996C72.651 232.84 111.291 215.47 112.348 213.875C112.747 213.277 110.545 207.505 107.694 200.597C107.07 199.106 106.428 197.572 105.761 196.02C101.427 185.914 96.6512 175.288 96.6512 175.288L70.7701 186.833L80.5904 207.245L82.7399 211.726C82.7399 211.726 70.9262 224.987 69.9554 226.859C68.9847 228.732 69.5394 233.152 71.0995 232.996Z" fill="#D5A29E"/>
<path d="M71.0992 232.996C72.6507 232.84 111.29 215.47 112.348 213.876C112.833 213.147 109.487 204.775 105.76 196.021L80.6248 207.245L82.7743 211.726C82.7743 211.726 70.9606 224.987 69.9898 226.859C69.0191 228.732 69.5391 233.152 71.0992 232.996Z" fill="white"/>
<path d="M71.0995 232.996C72.651 232.84 111.291 215.47 112.348 213.875C112.747 213.277 110.545 207.505 107.694 200.597L82.7399 211.726C82.7399 211.726 70.9262 224.987 69.9554 226.859C68.9847 228.732 69.5394 233.152 71.0995 232.996Z" fill="#F9E4B0"/>
<path d="M70.9523 231.202C77.3576 228.133 103.49 216.354 110.051 213.806C110.112 213.806 110.121 213.806 110.051 213.806C103.767 216.987 77.5396 228.541 70.9783 231.271C70.8917 231.366 70.8223 231.262 70.9523 231.202Z" fill="#3F3D56"/>
<path d="M71.8186 224.354C72.5304 224.012 73.3054 223.822 74.0947 223.795C74.884 223.768 75.6702 223.906 76.4036 224.198C77.7298 224.71 78.8051 225.717 79.4026 227.007C79.4026 227.007 79.3506 227.076 79.3246 227.007C78.5297 225.822 77.3711 224.927 76.0234 224.458C74.6757 223.989 73.2121 223.971 71.8532 224.406C71.8475 224.405 71.842 224.403 71.8371 224.4C71.8322 224.397 71.828 224.393 71.8248 224.388C71.8216 224.383 71.8193 224.377 71.8183 224.372C71.8172 224.366 71.8173 224.36 71.8186 224.354Z" fill="#3F3D56"/>
<path d="M80.5208 213.494C83.1211 212.298 86.5187 211.865 89.0756 213.26C89.1796 213.312 89.0756 213.451 89.0063 213.442C86.2034 213.276 83.3907 213.41 80.6162 213.841C80.5731 213.846 80.5297 213.835 80.4938 213.811C80.4579 213.786 80.4319 213.75 80.4204 213.708C80.4089 213.666 80.4127 213.622 80.4311 213.583C80.4495 213.543 80.4813 213.512 80.5208 213.494Z" fill="#3F3D56"/>
<path d="M78.874 215.176C81.4743 213.98 84.8632 213.537 87.4288 214.933C87.5242 214.994 87.4288 215.132 87.3508 215.124C84.5511 214.955 81.7413 215.085 78.9694 215.514C78.9472 215.52 78.924 215.522 78.9011 215.519C78.8781 215.516 78.856 215.509 78.8359 215.498C78.8158 215.487 78.7981 215.471 78.7838 215.453C78.7695 215.435 78.7589 215.415 78.7527 215.392C78.7464 215.37 78.7446 215.347 78.7473 215.324C78.75 215.301 78.7572 215.279 78.7685 215.259C78.7797 215.239 78.7949 215.221 78.813 215.207C78.8311 215.192 78.8518 215.182 78.874 215.176Z" fill="#3F3D56"/>
<path d="M77.2186 216.857C79.8188 215.652 83.2165 215.219 85.7734 216.614C85.8774 216.666 85.7734 216.814 85.704 216.805C82.9043 216.636 80.0945 216.767 77.3226 217.195C77.2819 217.198 77.2415 217.186 77.208 217.163C77.1745 217.14 77.1498 217.106 77.1378 217.067C77.1258 217.028 77.1273 216.986 77.1419 216.948C77.1566 216.91 77.1835 216.878 77.2186 216.857Z" fill="#3F3D56"/>
<path d="M75.5718 218.539C78.172 217.334 81.561 216.9 84.1266 218.296C84.2219 218.348 84.1266 218.487 84.0486 218.487C81.2488 218.317 78.4391 218.448 75.6671 218.877C75.6223 218.889 75.5743 218.884 75.5337 218.861C75.493 218.838 75.4631 218.8 75.4504 218.755C75.4378 218.71 75.4435 218.662 75.4662 218.622C75.489 218.581 75.5269 218.551 75.5718 218.539Z" fill="#3F3D56"/>
<path d="M105.639 208.38C108.552 207.08 110.58 211.605 107.659 212.913C104.738 214.222 102.718 209.689 105.639 208.38Z" fill="#3F3D56"/>
<path d="M74.6096 207.843C75.433 206.161 77.5652 206.482 78.8827 207.245C81.1184 208.602 82.9569 210.524 84.2132 212.818C84.221 212.827 84.2261 212.839 84.2281 212.851C84.2301 212.863 84.2288 212.876 84.2244 212.887C84.22 212.898 84.2126 212.909 84.203 212.916C84.1934 212.924 84.182 212.929 84.1699 212.931C84.181 212.984 84.1794 213.039 84.1653 213.091C84.1512 213.144 84.125 213.192 84.0887 213.233C84.0525 213.273 84.0072 213.305 83.9565 213.325C83.9059 213.344 83.8513 213.352 83.7972 213.347C81.3789 212.905 78.7353 212.723 76.5251 211.544C75.225 210.859 73.8296 209.429 74.6096 207.843ZM80.2695 211.917C81.4483 212.168 82.6444 212.359 83.8145 212.653C82.7744 211.57 81.7776 210.443 80.6335 209.464C80.0847 208.985 79.5057 208.542 78.9 208.138C77.9466 207.54 74.4276 206.517 75.433 209.455C75.9964 211.067 78.8567 211.622 80.2695 211.917Z" fill="#3F3D56"/>
<path d="M91.0865 210.885C88.989 212.246 86.3714 212.619 83.9966 213.303C83.7539 213.373 83.5805 213.13 83.5892 212.913C83.5777 212.912 83.5667 212.908 83.5573 212.901C83.5478 212.895 83.5401 212.886 83.535 212.875C83.5298 212.865 83.5273 212.854 83.5277 212.842C83.5281 212.831 83.5313 212.819 83.5372 212.809C84.5925 210.416 86.2609 208.344 88.3737 206.803C89.6218 205.936 91.7193 205.425 92.7074 207.028C93.6955 208.632 92.3173 210.114 91.0865 210.885ZM91.9966 208.701C92.7507 205.693 89.3271 207.011 88.4343 207.695C87.8665 208.149 87.328 208.638 86.8222 209.16C85.7955 210.265 84.8263 211.423 83.9186 212.627C85.0627 212.237 86.2328 211.943 87.3855 211.596C88.7723 211.162 91.5806 210.365 91.9966 208.701Z" fill="#3F3D56"/>
<path d="M105.171 193.646L76.092 206.803C76.092 206.803 41.4221 140.306 40.5554 119.946C39.784 102.611 51.8231 95.9372 90.8267 107.144L100.361 107.266V113.853C96.1746 114.408 84.9849 116.167 84.9849 116.167C76.8461 119.235 74.2285 120.501 74.3585 120.769C94.6231 161.749 105.171 193.646 105.171 193.646Z" fill="#2A283D"/>
<path d="M69.5653 113.454C70.7354 115.023 71.8275 116.652 72.8676 118.317C79.1862 115.617 85.8685 113.865 92.6987 113.116C94.6114 112.879 96.5355 112.709 98.4713 112.605C98.5493 112.605 98.5493 112.717 98.4713 112.726C91.6168 113.184 84.8408 114.453 78.2847 116.505C76.4732 117.06 74.6964 117.71 72.9109 118.351C74.159 120.353 75.3378 122.399 76.4646 124.462C78.5774 128.328 80.4784 132.307 82.1591 136.38C83.0952 138.624 84.0053 140.887 84.8113 143.184C84.8113 143.253 84.7247 143.296 84.6987 143.227C81.1334 135.299 77.2504 127.539 73.0496 119.946C71.8621 117.805 70.6227 115.69 69.4612 113.532C69.4266 113.471 69.5219 113.402 69.5653 113.454Z" fill="#3F3D56"/>
<path d="M75.4243 199.773C77.1577 199.106 78.7699 198.283 80.4341 197.537L85.4352 195.292C88.7548 193.802 100.265 189.034 101.219 188.809C101.279 188.809 101.314 188.887 101.262 188.922C100.525 189.399 93.0972 192.701 91.4244 193.42C88.0614 194.859 84.6724 196.194 81.2834 197.563C80.3127 197.953 79.3419 198.317 78.3712 198.707C77.4004 199.097 76.4123 199.435 75.4676 199.86C75.4069 199.886 75.3722 199.791 75.4243 199.773Z" fill="#3F3D56"/>
<path d="M69.7036 116.505C72.0004 120.839 73.9593 125.441 75.9528 129.948C77.9463 134.455 79.8705 138.954 81.7513 143.487C85.4899 152.524 88.9569 161.665 92.1523 170.911C93.9811 176.111 95.6886 181.398 97.3528 186.677C97.3528 186.746 97.2575 186.781 97.2315 186.677C94.1458 177.342 90.8089 168.094 87.3159 158.941C83.8229 149.788 80.1392 140.687 76.2302 131.699C75.1323 129.18 74.017 126.663 72.8845 124.15C71.7491 121.636 70.5703 119.14 69.5042 116.6C69.5042 116.444 69.6515 116.358 69.7036 116.505Z" fill="#3F3D56"/>
<path d="M117.696 109.38C117.037 110.031 76.5686 109.64 76.3692 109.38C75.8405 108.67 81.8991 83.17 86.4495 73.4971C92.274 61.1026 95.351 60.0712 97.1971 59.3778C99.6683 58.6794 102.282 58.6585 104.764 59.3171C105.908 59.8285 110.744 65.6271 112.105 70.2295C114.835 79.469 118.276 108.808 117.696 109.38Z" fill="#F9E4B0"/>
<path d="M90.3931 62.5674C72.5294 75.1006 56.85 92.7996 58.1155 98.6068C59.4502 104.743 71.2813 111.955 81.8816 113.688C84.0485 114.044 91.3205 98.2774 89.1103 97.4626C87.3768 96.8386 79.5761 94.3337 78.64 93.2156C78.0073 92.4355 90.8438 75.5686 95.1082 66.6758C99.624 57.3756 95.1602 59.2131 90.3931 62.5674Z" fill="#D5A29E"/>
<path d="M84.6292 96.8386C84.6292 96.8386 91.2598 97.7054 95.5762 98.5028C97.9771 98.9448 102.033 100.054 103.654 101.19C106.073 102.88 115.13 111.487 113.085 113.732C111.238 115.76 108.664 112.371 108.664 112.371C108.664 112.371 111.828 115.838 109.375 117.251C106.922 118.663 103.975 113.974 103.975 113.974C103.975 113.974 107.589 117.389 104.842 118.689C102.45 119.816 98.4798 114.72 98.4798 114.72C98.4798 114.72 102.666 117.892 100.326 119.287C97.7257 120.83 90.7918 113.94 90.7918 113.94C86.3543 114.446 81.8598 114 77.6085 112.631C76.8978 112.397 84.6292 96.8386 84.6292 96.8386Z" fill="#D5A29E"/>
<path d="M104.946 115.118L104.192 114.044C103.723 113.33 103.214 112.644 102.666 111.989C102.12 111.365 101.548 110.767 100.933 110.178C100.317 109.588 99.6154 109.008 99.0087 108.375C99.0051 108.367 98.9998 108.361 98.9931 108.356C98.9865 108.351 98.9787 108.348 98.9705 108.346C98.9623 108.345 98.9539 108.345 98.946 108.348C98.9381 108.35 98.9309 108.355 98.925 108.361C98.9191 108.367 98.9147 108.374 98.9122 108.382C98.9097 108.39 98.9091 108.398 98.9105 108.406C98.9119 108.414 98.9153 108.422 98.9203 108.429C98.9253 108.435 98.9318 108.441 98.9393 108.444C99.5515 109.063 100.13 109.714 100.673 110.395L102.294 112.362C102.822 113.012 103.386 113.61 103.932 114.243C104.2 114.555 104.461 114.884 104.712 115.205C104.939 115.527 105.191 115.832 105.466 116.115L105.527 116.072C105.363 115.737 105.169 115.417 104.946 115.118Z" fill="#3F3D56"/>
<path d="M109.306 113.099C108.483 111.746 107.565 110.455 106.558 109.233C105.537 108.015 104.396 106.903 103.152 105.913C103.142 105.909 103.131 105.907 103.121 105.909C103.11 105.911 103.1 105.916 103.093 105.924C103.085 105.931 103.08 105.941 103.078 105.952C103.076 105.962 103.078 105.973 103.082 105.983C104.105 107.205 105.145 108.41 106.177 109.606C106.688 110.195 108.907 112.943 109.176 113.203C109.245 113.263 109.34 113.168 109.306 113.099Z" fill="#3F3D56"/>
<path d="M100.889 117.129C100.085 115.876 99.1992 114.677 98.2371 113.541C97.1585 112.471 95.9994 111.486 94.7701 110.594C94.7604 110.589 94.7495 110.588 94.7389 110.589C94.7283 110.591 94.7185 110.596 94.7109 110.604C94.7033 110.612 94.6982 110.621 94.6964 110.632C94.6946 110.643 94.6961 110.653 94.7007 110.663C95.7842 111.729 96.885 112.769 97.9077 113.896C98.4104 114.442 100.283 116.73 100.811 117.207C100.837 117.25 100.915 117.19 100.889 117.129Z" fill="#3F3D56"/>
<path d="M70.4752 78.0909L83.4764 87.131C83.4764 87.131 93.8254 72.197 96.6163 65.055C99.4072 57.913 96.4256 57.8003 89.2836 62.8101C82.1416 67.8199 70.4752 78.0909 70.4752 78.0909Z" fill="#F9E4B0"/>
<path d="M73.5522 76.288C76.995 79.107 80.6074 81.7122 84.3692 84.0888C84.4125 84.0888 84.4646 84.0454 84.4126 84.0107C83.4245 83.3694 78.1373 79.209 73.6042 76.21C73.5522 76.1667 73.4916 76.2447 73.5522 76.288Z" fill="#AA9973"/>
<path d="M112.253 62.7668C126.173 70.5675 139.122 79.9631 141.462 86.2556C142.901 90.2167 140.734 97.2373 139.018 101.45C138.151 103.495 118.866 94.7844 120.547 93.1203C124.708 88.9946 125.41 87.3044 125.002 86.429C124.751 85.8743 109.696 71.9196 105.553 65.7224C99.7714 57.0809 106.168 59.3605 112.253 62.7668Z" fill="#D5A29E"/>
<path d="M112.495 112.085C114.315 113.185 116.638 108.479 116.638 108.479C116.678 109.393 117.037 110.264 117.652 110.941C118.788 112.076 121.076 110.793 121.076 110.793C121.317 111.732 121.833 112.577 122.558 113.22C123.763 114.2 126.25 113.22 126.25 113.22C126.951 113.958 127.891 114.422 128.903 114.529C131.616 114.702 134.034 111.331 135.594 109.198C137.154 107.066 139.581 99.5775 140.188 98.1907L126.614 88.0671C126.614 88.0671 116.907 95.6164 115.433 98.3814C114.229 100.73 109.756 110.438 112.495 112.085Z" fill="#D5A29E"/>
<path d="M116.647 108.41C117.474 105.64 118.638 102.982 120.114 100.496C120.114 100.444 120.227 100.496 120.201 100.548C118.805 103.027 118.034 105.931 116.734 108.462C116.725 108.464 116.715 108.465 116.706 108.464C116.696 108.462 116.687 108.459 116.679 108.454C116.671 108.45 116.664 108.443 116.658 108.435C116.653 108.428 116.649 108.419 116.647 108.41Z" fill="#3F3D56"/>
<path d="M120.972 110.62C121.196 110.004 121.502 109.42 121.882 108.886C122.246 108.288 122.628 107.708 123.009 107.153C123.777 105.997 124.578 104.842 125.41 103.686C125.41 103.634 125.531 103.686 125.496 103.686C124.725 104.847 123.98 106.017 123.26 107.214C122.905 107.812 122.55 108.41 122.203 109.008C121.906 109.598 121.549 110.156 121.137 110.672C121.124 110.685 121.109 110.695 121.091 110.7C121.074 110.704 121.055 110.704 121.038 110.698C121.021 110.693 121.005 110.683 120.994 110.669C120.982 110.655 120.974 110.638 120.972 110.62Z" fill="#3F3D56"/>
<path d="M126.32 113.185C126.533 112.628 126.841 112.112 127.23 111.66L128.305 110.082C129.015 109.034 129.726 107.976 130.402 106.902C130.402 106.841 130.524 106.902 130.489 106.945C129.813 108.046 129.145 109.155 128.452 110.247C128.114 110.785 127.776 111.322 127.429 111.851C127.16 112.366 126.802 112.829 126.372 113.22L126.32 113.185Z" fill="#3F3D56"/>
<path d="M132.344 74.4679L121.648 84.2881C121.648 84.2881 108.413 71.781 104.695 65.0724C100.976 58.3637 103.906 57.861 111.628 61.8567C119.351 65.8524 132.344 74.4679 132.344 74.4679Z" fill="#F9E4B0"/>
<path d="M132.344 74.4679L121.648 84.2881C121.648 84.2881 108.413 71.781 104.695 65.0724C100.976 58.3637 103.906 57.861 111.628 61.8567C119.351 65.8524 132.344 74.4679 132.344 74.4679Z" fill="#F9E4B0"/>
<path d="M119.577 81.5665C122.907 78.8315 126.059 75.8873 129.015 72.7517C129.059 72.7517 129.015 72.6563 128.955 72.6996C128.157 73.5144 123.217 77.7614 119.507 81.4971C119.429 81.5405 119.533 81.6011 119.577 81.5665Z" fill="#AA9973"/>
<path d="M110.857 67.7506C111.342 68.8773 111.828 70.0041 112.226 71.1655C112.222 71.0876 112.222 71.0095 112.226 70.9315C112.19 70.2275 112.106 69.5267 111.975 68.834C111.975 68.756 112.079 68.73 112.088 68.834C112.226 69.5274 112.348 70.2294 112.434 70.9402C112.478 71.2782 112.495 71.6163 112.512 71.9543C112.512 71.9543 112.512 72.0323 112.512 72.0756C112.963 73.6184 113.232 75.1872 113.613 76.7387C113.613 76.8167 113.509 76.8427 113.492 76.7387C113.119 75.2132 112.556 73.7311 112.07 72.2403C111.585 70.7495 111.204 69.2327 110.744 67.7419C110.762 67.7332 110.831 67.6985 110.857 67.7506Z" fill="#AA9973"/>
<path d="M103.602 66.3031C101.305 66.8578 97.3444 63.3561 95.8015 60.5219C95.6975 60.3225 95.9836 58.2683 96.2176 55.7461C96.3563 54.2206 96.469 52.5131 96.469 50.953C96.469 50.6323 106.281 53.2932 106.281 53.2932C105.732 55.2507 105.423 57.2677 105.362 59.2997C105.362 59.5154 105.385 59.7304 105.431 59.9411C105.428 59.9758 105.428 60.0105 105.431 60.0452C105.622 61.2673 105.821 65.7657 103.602 66.3031Z" fill="#D5A29E"/>
<path d="M97.0413 50.9877C97.5093 53.6312 99.1821 60.0105 104.417 60.1058C104.751 60.1176 105.084 60.0973 105.414 60.0452C105.414 60.0018 105.414 59.9758 105.414 59.9412C105.37 59.73 105.344 59.5154 105.336 59.2998C105.398 57.2672 105.71 55.25 106.263 53.2932C106.263 53.2932 99.1734 51.369 97.0413 50.9877Z" fill="#C18C88"/>
<path d="M96.963 37.9951C95.2295 41.1934 95.0648 51.4037 97.0497 54.0819C99.9273 57.9736 105.622 59.4298 109.184 55.7461C112.746 52.0624 112.651 38.8705 110.311 36.3309C106.896 32.5866 99.4939 33.2973 96.963 37.9951Z" fill="#D5A29E"/>
<path d="M104.114 46.3852C103.013 46.2812 102.874 48.4914 103.897 48.5954C104.92 48.6994 105.041 46.4806 104.114 46.3852Z" fill="#343230"/>
<path d="M109.21 46.6886C110.32 46.6886 110.268 48.8988 109.21 48.9075C108.153 48.9161 108.283 46.7059 109.21 46.6886Z" fill="#343230"/>
<path d="M103.195 44.5651C103.507 44.5651 103.802 44.5044 104.105 44.4697C104.43 44.4836 104.75 44.3891 105.015 44.201C105.085 44.1246 105.128 44.0279 105.139 43.925C105.15 43.8221 105.128 43.7184 105.076 43.629C104.941 43.4704 104.766 43.3506 104.57 43.2821C104.373 43.2135 104.162 43.1986 103.958 43.239C103.536 43.258 103.135 43.4306 102.831 43.7243C102.766 43.7959 102.723 43.8847 102.707 43.9801C102.691 44.0755 102.703 44.1734 102.742 44.2622C102.78 44.3509 102.843 44.4267 102.924 44.4804C103.004 44.5341 103.098 44.5635 103.195 44.5651Z" fill="#534536"/>
<path d="M110.329 45.1372C110.034 45.0601 109.744 44.9646 109.462 44.8511C109.129 44.8066 108.823 44.6471 108.595 44.4004C108.54 44.3119 108.516 44.2076 108.527 44.104C108.538 44.0003 108.583 43.9034 108.656 43.8284C108.828 43.6902 109.037 43.6045 109.256 43.5814C109.476 43.5584 109.698 43.599 109.895 43.6984C110.307 43.8064 110.665 44.0625 110.901 44.4178C110.946 44.504 110.965 44.6015 110.955 44.6983C110.946 44.7952 110.909 44.8873 110.849 44.9635C110.788 45.0397 110.707 45.0966 110.614 45.1274C110.522 45.1583 110.423 45.1616 110.329 45.1372Z" fill="#534536"/>
<path d="M103.178 53.4233C103.334 53.5966 103.481 53.8306 103.732 53.8653C103.987 53.8736 104.241 53.8294 104.478 53.7353C104.478 53.7353 104.521 53.7353 104.478 53.7353C104.375 53.8606 104.24 53.9562 104.088 54.0126C103.935 54.0689 103.771 54.0839 103.611 54.056C103.473 54.0114 103.351 53.9265 103.262 53.8122C103.172 53.6979 103.119 53.5595 103.108 53.4146C103.108 53.4146 103.152 53.3973 103.178 53.4233Z" fill="#C18C88"/>
<path d="M104.027 51.4124C104.184 51.6944 104.397 51.941 104.653 52.1365C104.91 52.3319 105.204 52.472 105.518 52.5478C105.802 52.6169 106.093 52.6489 106.385 52.6432H106.549H106.697C106.734 52.6379 106.768 52.6207 106.795 52.5941C106.822 52.5675 106.839 52.533 106.844 52.4958V52.3658C106.896 51.8371 106.887 51.031 106.887 51.031C107.078 51.135 108.031 51.6377 108.04 51.3604C108.119 48.9755 107.96 46.5887 107.563 44.2357C107.559 44.2224 107.55 44.211 107.538 44.2029C107.526 44.1948 107.513 44.1905 107.498 44.1905C107.484 44.1905 107.47 44.1948 107.459 44.2029C107.447 44.211 107.438 44.2224 107.433 44.2357C107.347 46.4459 107.641 48.6474 107.589 50.8663C107.248 50.6835 106.883 50.5466 106.506 50.4589C106.428 50.4589 106.506 52.0191 106.506 52.2531C106.073 52.2731 105.639 52.2068 105.232 52.058C104.824 51.9092 104.45 51.6809 104.131 51.3864C104.044 51.317 103.984 51.3604 104.027 51.4124Z" fill="#C18C88"/>
<path d="M106.064 52.3658C105.751 52.7257 105.351 53 104.903 53.1632C104.654 53.2411 104.388 53.2411 104.14 53.1632C103.602 52.9812 103.62 52.4785 103.741 52.0538C103.811 51.8296 103.907 51.6144 104.027 51.4124C104.586 51.9402 105.3 52.2744 106.064 52.3658Z" fill="#3F3D56"/>
<path d="M104.902 53.1459C104.654 53.2238 104.388 53.2238 104.14 53.1459C103.602 52.9639 103.62 52.4611 103.741 52.0364C104.031 52.0646 104.303 52.1892 104.513 52.3904C104.724 52.5915 104.861 52.8576 104.902 53.1459Z" fill="#FF98B9"/>
<path d="M111.03 40.8987C107.416 42.7882 103.23 38.7839 103.23 38.7839C102.859 39.4801 102.273 40.0378 101.559 40.3736C100.845 40.7094 100.042 40.8055 99.2686 40.6474C99.2686 40.6474 97.9425 46.2292 96.4604 46.0385C94.1895 45.7525 94.3975 37.9605 95.2903 36.5043C95.6332 36.0556 96.0649 35.6824 96.5586 35.408C97.0522 35.1336 97.5971 34.9639 98.1592 34.9095C98.4831 34.0191 99.1296 33.2829 99.9707 32.8467C101.704 31.8412 106.827 34.0774 106.827 34.0774C107.213 33.3811 107.76 32.7868 108.421 32.3439C108.58 32.2369 108.758 32.1629 108.945 32.1262C109.133 32.0896 109.326 32.0912 109.513 32.1308C109.7 32.1705 109.877 32.2474 110.033 32.357C110.19 32.4666 110.323 32.6066 110.424 32.7686C110.084 33.1509 109.841 33.6084 109.713 34.1034C109.245 35.7242 110.58 35.8803 110.762 34.3808C110.848 33.8202 110.728 33.2473 110.424 32.7686C111.204 31.9019 112.331 31.6765 112.929 32.2833C114.047 33.4447 114.029 39.3646 111.03 40.8987Z" fill="#726251"/>
<path d="M109.713 50.4156C110.744 50.4849 111.672 49.2801 111.776 47.7286C111.88 46.1772 111.143 44.8424 110.112 44.7731C109.08 44.7037 108.162 45.9085 108.049 47.46C107.936 49.0114 108.682 50.3376 109.713 50.4156ZM110.086 45.1544C110.909 45.2064 111.498 46.3505 111.403 47.7026C111.308 49.0548 110.536 50.0949 109.739 50.0342C108.942 49.9735 108.326 48.8381 108.43 47.486C108.534 46.1338 109.271 45.0937 110.086 45.1544Z" fill="#F9E4B0"/>
<path d="M103.394 49.9649C103.958 50.0435 104.532 49.9508 105.042 49.6989C105.551 49.4469 105.974 49.0474 106.254 48.5523C106.533 48.0571 106.658 47.4892 106.611 46.9224C106.563 46.3556 106.347 45.8162 105.989 45.3742C105.631 44.9322 105.148 44.6081 104.604 44.4441C104.059 44.28 103.478 44.2836 102.935 44.4544C102.393 44.6251 101.914 44.9552 101.562 45.4015C101.209 45.8479 100.999 46.39 100.959 46.9573C100.886 47.6786 101.101 48.3994 101.557 48.9627C102.014 49.5261 102.674 49.8863 103.394 49.9649ZM103.767 44.6951C104.262 44.6911 104.747 44.8365 105.158 45.1123C105.569 45.388 105.888 45.7814 106.072 46.2409C106.256 46.7005 106.297 47.2049 106.191 47.6883C106.084 48.1717 105.833 48.6116 105.473 48.9506C105.112 49.2896 104.657 49.5119 104.168 49.5885C103.679 49.6651 103.178 49.5925 102.731 49.38C102.284 49.1676 101.911 48.8252 101.661 48.3976C101.412 47.9701 101.297 47.4772 101.332 46.9833C101.354 46.358 101.623 45.7668 102.079 45.3384C102.535 44.9099 103.142 44.6787 103.767 44.6951Z" fill="#F9E4B0"/>
<path d="M106.116 47.07C107.563 46.6713 108.17 47.1827 108.17 47.1827L108.43 46.9053C108.43 46.9053 107.685 46.2466 106.021 46.7059L106.116 47.07Z" fill="#F9E4B0"/>
<path d="M101.167 46.7233L101.262 46.3506C101.02 46.2899 95.3423 44.8164 94.7183 44.7384C93.866 44.8336 93.0396 45.0895 92.2827 45.4925L92.4387 45.8305C93.1295 45.4748 93.8727 45.2319 94.6402 45.1111C95.1603 45.1718 99.13 46.1945 101.167 46.7233Z" fill="#F9E4B0"/>
<path d="M97.457 46.4372C97.457 46.4372 95.8015 42.8402 94.2067 43.3776C92.6119 43.915 93.4613 48.8468 95.0735 49.7915C95.2681 49.9295 95.4891 50.0258 95.7226 50.0744C95.9561 50.123 96.1972 50.1229 96.4307 50.0741C96.6642 50.0253 96.8851 49.9288 97.0796 49.7907C97.2741 49.6526 97.438 49.4758 97.561 49.2715L97.457 46.4372Z" fill="#D5A29E"/>
<path d="M94.5708 61.2066C95.5952 62.5698 96.6948 63.8748 97.8644 65.1157C98.9422 66.3293 100.383 67.1623 101.973 67.4905C103.516 67.6986 105.076 67.4905 105.726 65.5664C106.203 63.9527 106.312 62.2528 106.046 60.5912C106.046 60.5046 106.159 60.4872 106.168 60.5912C106.419 63.0961 106.627 66.9532 104.33 67.7159C101.73 68.5827 99.3465 67.1698 97.6477 65.3497C96.459 64.1039 95.4098 62.7321 94.5188 61.2586C94.5188 61.2586 94.5448 61.1806 94.5708 61.2066Z" fill="#AA9973"/>
<path d="M79.0911 117.753H125.592V119.842H79.0911V117.753Z" fill="#3F3D56"/>
<path d="M91.0259 119.833H136.348L140.118 89.0552H94.8049L91.0259 119.833Z" fill="#3F3D56"/>
<path d="M112.816 104.449C112.808 104.809 112.872 105.168 113.005 105.503C113.138 105.838 113.337 106.143 113.59 106.4C113.843 106.657 114.145 106.861 114.478 106.999C114.811 107.137 115.168 107.207 115.529 107.205C116.263 107.201 116.967 106.91 117.491 106.396C118.016 105.881 118.319 105.183 118.337 104.449C118.345 104.088 118.281 103.729 118.148 103.393C118.015 103.057 117.817 102.752 117.564 102.494C117.311 102.236 117.009 102.032 116.676 101.893C116.343 101.754 115.985 101.682 115.624 101.684C114.888 101.688 114.183 101.979 113.658 102.496C113.134 103.012 112.832 103.713 112.816 104.449Z" fill="white"/>
<path d="M38.0241 23.9105C38.4338 27.8714 39.937 31.6404 42.3657 34.796C44.7944 37.9517 48.0529 40.3698 51.7769 41.7799C55.5009 43.19 59.5438 43.5366 63.4535 42.781C67.3632 42.0254 70.9857 40.1973 73.9161 37.5011L84.6638 39.0786L79.29 29.787C80.634 26.5166 81.1405 22.9624 80.7635 19.4467C80.4928 16.6226 79.6654 13.8801 78.3293 11.3774C76.9932 8.87468 75.1746 6.66136 72.9786 4.86515C70.7826 3.06894 68.2526 1.72541 65.5346 0.91208C62.8167 0.0987512 59.9645 -0.16827 57.1428 0.126432C54.3211 0.421133 51.5858 1.27172 49.0945 2.62911C46.6033 3.98649 44.4055 5.8238 42.628 8.03501C40.8505 10.2462 39.5286 12.7875 38.7384 15.5123C37.9482 18.2371 37.7054 21.0914 38.0241 23.9105Z" fill="white"/>
<path d="M38.0241 23.9105C38.44 27.8714 39.9395 31.6411 42.3578 34.8055C42.9634 35.5886 43.6146 36.3353 44.308 37.0417C45.0244 37.7295 45.7829 38.3721 46.5789 38.9659C48.1673 40.1688 49.9183 41.1406 51.7794 41.8521C54.5478 42.9454 57.5173 43.4359 60.4902 43.291C61.4878 43.2651 62.4819 43.1608 63.4631 42.9789C67.4277 42.2513 71.1107 40.4323 74.0981 37.7264L73.8381 37.8044L84.5771 39.4599L85.3572 39.5726L84.9585 38.8879L79.6193 29.579V29.943C81.1838 26.0982 81.6152 21.886 80.8626 17.8039C80.1101 13.7217 78.2049 9.94028 75.3722 6.90615C72.5395 3.87202 68.8976 1.71198 64.8767 0.681195C60.8558 -0.349595 56.6238 -0.20808 52.6808 1.08903C49.5755 2.14499 46.7448 3.88015 44.3947 6.16817C42.065 8.45468 40.282 11.238 39.1789 14.3102C38.0757 17.3825 37.681 20.6643 38.0241 23.9105ZM38.0241 23.9105C37.6829 20.6756 38.0885 17.4055 39.2097 14.352C40.3309 11.2985 42.1378 8.54298 44.4912 6.29751C46.8447 4.05204 49.682 2.37652 52.7848 1.39991C55.8876 0.423301 59.1731 0.17165 62.3884 0.664326C65.5726 1.1277 68.6086 2.31363 71.2639 4.13131C73.8865 5.97686 76.0777 8.36916 77.6865 11.1433C79.2725 13.9266 80.2059 17.0337 80.4161 20.2302C80.6263 23.4268 80.1078 26.6294 78.8999 29.5963L78.8306 29.787L78.9259 29.9604L84.3344 39.2346L84.7244 38.6712L73.9681 37.1631H73.8121L73.7081 37.2671C70.839 39.9563 67.2756 41.7906 63.4198 42.5629C62.4609 42.7638 61.4866 42.8827 60.5075 42.9183C59.5293 42.9875 58.5475 42.9875 57.5693 42.9183C55.6068 42.7675 53.6752 42.3415 51.8314 41.6528C49.9716 40.9799 48.2197 40.0397 46.6309 38.8619C45.8369 38.2748 45.0786 37.641 44.36 36.9637C43.6623 36.2674 43.0108 35.5262 42.4099 34.7448C39.9773 31.6067 38.4594 27.8571 38.0241 23.9105Z" fill="#BDA876"/>
<path d="M57.0232 33.9301L47.853 24.6472L50.93 21.5962L56.2951 27.0221L67.4328 9.5658L71.0818 11.8973L57.0232 33.9301Z" fill="#C8B17A"/>
</svg>
