<svg width="185" height="233" viewBox="0 0 185 233" fill="none" xmlns="http://www.w3.org/2000/svg">
<path d="M32.058 192.631L158.261 193.172C188.941 169.096 192.105 133.403 170.221 111.769C156.979 98.6903 140.126 101.33 124.141 99.2492C118.484 98.6499 112.981 97.0331 107.898 94.4769C91.406 85.7837 82.1022 65.2415 68.2412 47.9925C66.5214 45.8343 64.7071 43.6932 62.8068 41.6983C51.3964 29.514 28.6959 29.1185 16.8125 46.247C-13.4032 89.7563 0.423478 154.521 32.058 192.631Z" fill="#909CC0"/>
<path d="M29.2288 93.0668C32.5393 144.848 92.3345 164.178 129.678 148.666C162.156 135.174 151.528 104.391 124.115 99.2492C118.458 98.6498 112.955 97.0331 107.872 94.4769C91.38 85.7837 82.0762 65.2415 68.2152 47.9925C47.5268 37.2528 26.8298 55.1552 29.2288 93.0668Z" fill="#BECCF9"/>
<path d="M83.4943 77.1115V94.3337L118.858 129.706H131.711V125.329L83.4943 77.1115Z" fill="#EBEBEB"/>
<path d="M156.153 129.706L137.016 110.568V119.175L147.547 129.706H156.153Z" fill="#EBEBEB"/>
<path d="M37.4954 146.997C37.9721 145.558 63.4978 111.851 65.2313 111.209C65.4306 111.123 76.8284 119.235 76.8284 119.235C77.3051 119.859 98.9737 115.283 98.9737 115.283L99.1904 141.424L59.7101 140.557C59.7101 140.557 54.3796 143.695 49.4998 146.252C47.4271 147.419 45.2852 148.458 43.0859 149.364C41.0837 149.901 37.01 148.427 37.4954 146.997Z" fill="#D5A29E"/>
<path d="M43.0595 149.39C45.2613 148.489 47.4036 147.45 49.4734 146.278C54.3532 143.678 59.6837 140.583 59.6837 140.583L68.4725 140.774L82.2451 118.577C79.2202 119.114 76.9753 119.443 76.8193 119.235C76.8193 119.235 65.4215 111.114 65.2222 111.209C63.4887 111.851 37.9717 145.55 37.4863 146.997C37.0009 148.445 41.0833 149.901 43.0595 149.39Z" fill="white"/>
<path d="M37.2615 147.041C37.7642 145.567 63.3852 111.885 65.1794 111.218C65.8555 110.958 71.4287 114.408 76.8198 119.235L60.2823 140.904C60.2823 140.904 45.0189 148.991 42.9474 149.511C40.8758 150.031 36.7588 148.514 37.2615 147.041Z" fill="#6D90FF"/>
<path d="M38.9776 147.578C43.4153 142.04 60.7763 119.279 64.7373 113.463C64.7373 113.411 64.7373 113.394 64.7373 113.463C60.2302 118.854 43.0686 141.762 38.9256 147.535C38.8216 147.63 38.8822 147.708 38.9776 147.578Z" fill="#475B9D"/>
<path d="M45.8331 148.289C46.3275 147.675 46.6884 146.965 46.8928 146.204C47.0973 145.443 47.1408 144.647 47.0206 143.868C46.8235 142.46 46.087 141.182 44.9664 140.306C44.9664 140.306 44.8884 140.306 44.9144 140.375C45.8917 141.415 46.5047 142.743 46.661 144.161C46.8174 145.579 46.5085 147.01 45.7811 148.237C45.7736 148.238 45.7666 148.242 45.761 148.248C45.7554 148.253 45.7514 148.26 45.7492 148.267C45.7471 148.274 45.747 148.282 45.7489 148.29C45.7509 148.297 45.7548 148.304 45.7603 148.31C45.7657 148.315 45.7725 148.319 45.78 148.321C45.7875 148.323 45.7954 148.323 45.8028 148.321C45.8103 148.319 45.817 148.314 45.8223 148.309C45.8276 148.303 45.8314 148.296 45.8331 148.289Z" fill="#475B9D"/>
<path d="M58.3667 142.274C60.1002 140.037 61.3136 136.804 60.5335 133.996C60.5335 133.883 60.3429 133.935 60.3342 133.996C59.8659 136.763 59.1016 139.471 58.0546 142.074C58.0282 142.116 58.0193 142.166 58.0299 142.214C58.0404 142.262 58.0696 142.303 58.111 142.33C58.1524 142.356 58.2025 142.365 58.2505 142.355C58.2984 142.344 58.3402 142.315 58.3667 142.274Z" fill="#3F3D56"/>
<path d="M56.3554 143.496C58.0889 141.259 59.3024 138.035 58.5223 135.227C58.5223 135.114 58.3403 135.158 58.3229 135.227C57.8535 137.989 57.0923 140.694 56.0521 143.296C56.0256 143.337 56.0163 143.386 56.026 143.433C56.0358 143.48 56.0638 143.521 56.1041 143.548C56.1443 143.574 56.1934 143.583 56.2405 143.574C56.2876 143.564 56.329 143.536 56.3554 143.496Z" fill="#3F3D56"/>
<path d="M54.3535 144.726C56.087 142.49 57.3004 139.257 56.5203 136.449C56.5203 136.345 56.3296 136.388 56.3123 136.449C55.851 139.213 55.0896 141.919 54.0414 144.518C54.0138 144.56 54.0038 144.61 54.0136 144.659C54.0233 144.708 54.0521 144.751 54.0934 144.778C54.1348 144.806 54.1855 144.816 54.2342 144.806C54.283 144.797 54.3259 144.768 54.3535 144.726Z" fill="#3F3D56"/>
<path d="M52.3427 145.975C54.0762 143.738 55.2897 140.514 54.5096 137.706C54.5096 137.593 54.3276 137.636 54.3102 137.706C53.8408 140.468 53.0796 143.173 52.0394 145.775C52.0129 145.815 52.0036 145.865 52.0133 145.912C52.0231 145.959 52.0511 146 52.0914 146.027C52.1316 146.053 52.1807 146.062 52.2278 146.053C52.275 146.043 52.3163 146.015 52.3427 145.975Z" fill="#3F3D56"/>
<path d="M69.0017 118.984C70.9259 116.436 66.9822 113.445 65.0493 115.994C63.1165 118.542 67.0775 121.524 69.0017 118.984Z" fill="#3F3D56"/>
<path d="M59.3633 146.599C58.7132 144.18 59.1379 141.571 59.2506 139.119C59.2575 139.064 59.2773 139.012 59.3083 138.967C59.3393 138.921 59.3806 138.884 59.4289 138.858C59.4771 138.832 59.5309 138.817 59.5858 138.816C59.6407 138.814 59.6951 138.826 59.7446 138.85C59.751 138.841 59.7595 138.834 59.7693 138.829C59.7791 138.824 59.7899 138.821 59.8009 138.821C59.812 138.821 59.8228 138.824 59.8326 138.829C59.8424 138.834 59.8509 138.841 59.8573 138.85C61.8034 140.594 63.2587 142.817 64.0784 145.298C64.5291 146.755 64.3557 148.904 62.5355 149.329C60.7154 149.754 59.736 148.011 59.3633 146.599ZM61.1574 148.124C63.7576 149.771 63.5843 146.122 63.2116 145.056C62.9652 144.376 62.6757 143.713 62.3449 143.071C61.6181 141.76 60.8254 140.488 59.97 139.257C59.97 140.462 59.9006 141.667 59.8746 142.872C59.814 144.31 59.7013 147.223 61.1574 148.124Z" fill="#3F3D56"/>
<path d="M67.4238 131.899C68.7673 133.199 67.8052 135.123 66.6697 136.137C64.6924 137.844 62.3012 139 59.7358 139.491C59.7248 139.493 59.7137 139.491 59.7032 139.488C59.6927 139.485 59.6831 139.479 59.6749 139.472C59.6667 139.464 59.6602 139.455 59.6557 139.445C59.6513 139.435 59.649 139.424 59.6491 139.413C59.5951 139.407 59.5433 139.388 59.4978 139.358C59.4522 139.328 59.4142 139.288 59.3866 139.241C59.3589 139.194 59.3424 139.142 59.3383 139.087C59.3343 139.033 59.3427 138.978 59.3631 138.928C60.5332 136.77 61.5213 134.308 63.3154 132.575C64.3469 131.561 66.141 130.668 67.4238 131.899ZM61.7986 136.016C61.2006 137.064 60.6545 138.139 60.0131 139.162C61.3843 138.548 62.7236 137.865 64.0262 137.116C64.6474 136.742 65.2439 136.328 65.8117 135.877C66.6784 135.166 68.7326 132.133 65.6383 132.185C63.9048 132.219 62.5007 134.768 61.7813 136.016H61.7986Z" fill="#3F3D56"/>
<path d="M100.161 107.266H117.877C117.877 107.266 136.417 98.3555 151.343 101.944C168.461 106.061 170.654 127.556 157.861 135.158C141.644 144.787 69.513 142.958 69.513 142.958L85.1058 116.505C85.1058 116.505 109.097 111.461 130.853 112.171L100.161 116.358V107.266Z" fill="#627AC5"/>
<path d="M84.0745 118.239C84.0786 118.192 84.0786 118.146 84.0745 118.1V117.987C84.0745 117.909 84.1178 117.823 84.1352 117.736C84.1525 117.649 84.2565 117.389 84.3172 117.216C84.3778 117.042 84.4645 116.878 84.5425 116.713C84.6244 116.549 84.72 116.393 84.8285 116.245C84.8285 116.245 84.8286 116.245 84.8719 116.245C87.5155 115.751 105.44 113.185 108.101 112.882C110.762 112.579 113.483 112.327 116.179 112.102C121.557 111.636 126.955 111.442 132.352 111.521H133.869C133.973 111.521 134.094 111.469 134.198 111.443L134.979 111.261C135.464 111.175 135.958 111.097 136.443 111.027C137.466 110.871 138.489 110.759 139.512 110.568C139.572 110.568 139.59 110.655 139.512 110.663C138.489 110.897 137.492 111.192 136.469 111.409L135.603 111.599C137.579 111.703 139.555 111.859 141.531 112.033C141.592 112.033 141.592 112.137 141.531 112.137C138.844 111.972 136.131 111.955 133.444 111.998C130.757 112.041 128.105 112.102 125.436 112.258C120.036 112.57 114.645 113.047 109.271 113.61C106.255 113.931 87.9748 116.592 84.9499 116.722H84.9066C84.8844 116.792 84.8583 116.862 84.8285 116.93L84.5685 117.424C84.4819 117.58 84.3952 117.727 84.2998 117.875L84.1525 118.1L84.0745 118.204C84.0745 118.204 84.0051 118.282 83.9965 118.317C83.9878 118.351 84.0311 118.239 84.0745 118.239Z" fill="#46588E"/>
<path d="M75.1383 141.32C76.0917 139.777 76.9584 138.174 77.8252 136.536C78.6919 134.897 79.5587 133.337 80.4861 131.742C82.2629 128.562 88.6249 117.875 89.2576 117.103C89.2576 117.06 89.3789 117.103 89.3616 117.164C89.0582 118.031 85.0799 125.086 84.1611 126.698C82.3323 129.862 80.4081 132.956 78.5099 136.085C77.9725 136.952 77.4092 137.818 76.8631 138.737C76.3171 139.656 75.7277 140.471 75.2249 141.407C75.2249 141.424 75.1036 141.372 75.1383 141.32Z" fill="#46588E"/>
<path d="M89.4308 119.773C91.017 119.383 92.6464 119.14 94.2586 118.837L99.0951 117.927C102.319 117.349 105.549 116.771 108.785 116.193C115.243 115.101 121.726 114.2 128.244 113.593C131.919 113.246 135.602 113.012 139.295 112.726C139.373 112.726 139.364 112.839 139.295 112.848C132.734 113.142 126.181 114.026 119.68 114.962C113.18 115.898 106.826 116.904 100.413 117.987L94.9867 118.915C93.1492 119.235 91.3117 119.626 89.4655 119.86C89.3875 119.886 89.3528 119.782 89.4308 119.773Z" fill="#46588E"/>
<path d="M71.0993 232.996C72.6507 232.84 111.29 215.47 112.348 213.876C112.746 213.277 110.545 207.505 107.693 200.597C107.069 199.106 106.428 197.572 105.761 196.021C101.427 185.914 96.651 175.288 96.651 175.288L70.7699 186.833L80.5902 207.245L82.7397 211.726C82.7397 211.726 70.9259 224.987 69.9552 226.859C68.9844 228.732 69.5391 233.152 71.0993 232.996Z" fill="#D5A29E"/>
<path d="M71.099 232.996C72.6505 232.84 111.29 215.47 112.347 213.876C112.833 213.147 109.487 204.775 105.76 196.021L80.6246 207.245L82.7741 211.726C82.7741 211.726 70.9603 224.987 69.9896 226.859C69.0188 228.732 69.5389 233.152 71.099 232.996Z" fill="white"/>
<path d="M71.0993 232.996C72.6507 232.84 111.29 215.47 112.348 213.875C112.746 213.277 110.545 207.505 107.693 200.597L82.7397 211.726C82.7397 211.726 70.9259 224.987 69.9552 226.859C68.9844 228.732 69.5391 233.152 71.0993 232.996Z" fill="#6D90FF"/>
<path d="M70.9518 231.202C77.3571 228.133 103.49 216.354 110.051 213.806C110.111 213.806 110.12 213.806 110.051 213.806C103.767 216.987 77.5391 228.541 70.9778 231.271C70.8912 231.366 70.8218 231.262 70.9518 231.202Z" fill="#475B9D"/>
<path d="M71.8183 224.354C72.5301 224.012 73.3052 223.822 74.0945 223.795C74.8837 223.768 75.67 223.906 76.4034 224.198C77.7295 224.71 78.8049 225.717 79.4023 227.007C79.4023 227.007 79.3503 227.076 79.3243 227.007C78.5295 225.822 77.3708 224.927 76.0232 224.458C74.6755 223.989 73.2118 223.971 71.853 224.406C71.8472 224.405 71.8418 224.403 71.8369 224.4C71.832 224.397 71.8278 224.393 71.8245 224.388C71.8213 224.383 71.8191 224.377 71.818 224.372C71.8169 224.366 71.817 224.36 71.8183 224.354Z" fill="#475B9D"/>
<path d="M80.5203 213.494C83.1206 212.298 86.5182 211.865 89.0751 213.26C89.1792 213.312 89.0751 213.451 89.0058 213.442C86.2029 213.276 83.3902 213.41 80.6157 213.841C80.5726 213.846 80.5292 213.835 80.4933 213.811C80.4574 213.786 80.4314 213.75 80.4199 213.708C80.4084 213.666 80.4122 213.622 80.4306 213.583C80.449 213.543 80.4808 213.512 80.5203 213.494Z" fill="#475B9D"/>
<path d="M78.874 215.176C81.4743 213.98 84.8632 213.537 87.4288 214.933C87.5242 214.994 87.4288 215.132 87.3508 215.124C84.5511 214.955 81.7413 215.085 78.9694 215.514C78.9472 215.52 78.924 215.522 78.9011 215.519C78.8781 215.516 78.856 215.509 78.8359 215.498C78.8158 215.487 78.7981 215.471 78.7838 215.453C78.7695 215.435 78.7589 215.415 78.7527 215.392C78.7464 215.37 78.7446 215.347 78.7473 215.324C78.75 215.301 78.7572 215.279 78.7685 215.259C78.7797 215.239 78.7949 215.221 78.813 215.207C78.8311 215.192 78.8518 215.182 78.874 215.176Z" fill="#475B9D"/>
<path d="M77.2181 216.857C79.8183 215.652 83.216 215.219 85.7729 216.614C85.8769 216.666 85.7729 216.814 85.7035 216.805C82.9038 216.636 80.094 216.767 77.3221 217.195C77.2814 217.198 77.2411 217.186 77.2076 217.163C77.174 217.14 77.1493 217.106 77.1374 217.067C77.1254 217.028 77.1268 216.986 77.1414 216.948C77.1561 216.91 77.1831 216.878 77.2181 216.857Z" fill="#475B9D"/>
<path d="M75.5718 218.539C78.172 217.334 81.561 216.9 84.1266 218.296C84.2219 218.348 84.1266 218.487 84.0486 218.487C81.2488 218.317 78.4391 218.448 75.6671 218.877C75.6223 218.889 75.5743 218.884 75.5337 218.861C75.493 218.838 75.4631 218.8 75.4504 218.755C75.4378 218.71 75.4435 218.662 75.4662 218.622C75.489 218.581 75.5269 218.551 75.5718 218.539Z" fill="#475B9D"/>
<path d="M105.639 208.38C108.551 207.08 110.58 211.605 107.659 212.913C104.738 214.222 102.718 209.689 105.639 208.38Z" fill="#475B9D"/>
<path d="M74.6091 207.843C75.4326 206.162 77.5648 206.482 78.8822 207.245C81.1179 208.602 82.9564 210.524 84.2127 212.818C84.2205 212.828 84.2256 212.839 84.2276 212.851C84.2296 212.863 84.2283 212.876 84.2239 212.887C84.2195 212.899 84.2121 212.909 84.2025 212.916C84.193 212.924 84.1815 212.929 84.1694 212.931C84.1805 212.984 84.1789 213.039 84.1648 213.092C84.1508 213.144 84.1245 213.193 84.0882 213.233C84.052 213.274 84.0067 213.305 83.956 213.325C83.9054 213.344 83.8508 213.352 83.7967 213.347C81.3784 212.905 78.7349 212.723 76.5247 211.544C75.2245 210.859 73.8291 209.429 74.6091 207.843ZM80.269 211.917C81.4478 212.168 82.6439 212.359 83.814 212.653C82.7739 211.57 81.7771 210.443 80.633 209.464C80.0842 208.985 79.5052 208.542 78.8995 208.138C77.9461 207.54 74.4271 206.517 75.4325 209.455C75.9959 211.067 78.8562 211.622 80.269 211.917Z" fill="#475B9D"/>
<path d="M91.0863 210.885C88.9888 212.246 86.3712 212.619 83.9963 213.303C83.7536 213.373 83.5803 213.13 83.5889 212.913C83.5775 212.912 83.5665 212.908 83.557 212.901C83.5475 212.895 83.5399 212.886 83.5347 212.875C83.5296 212.865 83.5271 212.854 83.5274 212.842C83.5278 212.831 83.5311 212.819 83.5369 212.809C84.5923 210.416 86.2606 208.344 88.3734 206.803C89.6215 205.936 91.7191 205.425 92.7071 207.028C93.6952 208.632 92.3171 210.114 91.0863 210.885ZM91.9964 208.701C92.7505 205.693 89.3268 207.011 88.4341 207.696C87.8662 208.149 87.3278 208.638 86.8219 209.16C85.7952 210.265 84.8261 211.423 83.9183 212.627C85.0624 212.237 86.2325 211.943 87.3853 211.596C88.7721 211.163 91.5804 210.365 91.9964 208.701Z" fill="#475B9D"/>
<path d="M105.171 193.646L76.0915 206.803C76.0915 206.803 41.4216 140.306 40.5549 119.946C39.7835 102.611 51.8226 95.9372 90.8262 107.144L100.36 107.266V113.853C96.1741 114.408 84.9844 116.167 84.9844 116.167C76.8456 119.235 74.228 120.501 74.358 120.77C94.6226 161.749 105.171 193.646 105.171 193.646Z" fill="#627AC5"/>
<path d="M69.5648 113.454C70.7349 115.023 71.827 116.652 72.8671 118.317C79.1857 115.617 85.868 113.865 92.6983 113.116C94.6109 112.879 96.5351 112.709 98.4708 112.605C98.5488 112.605 98.5488 112.717 98.4708 112.726C91.6163 113.184 84.8403 114.453 78.2842 116.505C76.4727 117.06 74.6959 117.71 72.9104 118.351C74.1585 120.353 75.3373 122.399 76.4641 124.462C78.5769 128.328 80.4779 132.307 82.1586 136.38C83.0947 138.624 84.0048 140.887 84.8108 143.184C84.8108 143.253 84.7242 143.296 84.6982 143.227C81.1329 135.299 77.2499 127.539 73.0491 119.946C71.8616 117.805 70.6222 115.69 69.4608 113.532C69.4261 113.471 69.5214 113.402 69.5648 113.454Z" fill="#46588E"/>
<path d="M75.424 199.774C77.1575 199.106 78.7697 198.283 80.4338 197.537L85.4349 195.292C88.7546 193.802 100.265 189.035 101.218 188.809C101.279 188.809 101.314 188.887 101.262 188.922C100.525 189.399 93.097 192.701 91.4242 193.42C88.0612 194.859 84.6722 196.194 81.2832 197.563C80.3124 197.953 79.3417 198.317 78.3709 198.707C77.4002 199.097 76.4121 199.436 75.4673 199.86C75.4067 199.886 75.372 199.791 75.424 199.774Z" fill="#46588E"/>
<path d="M69.7033 116.505C72.0002 120.839 73.959 125.441 75.9525 129.948C77.9461 134.455 79.8702 138.954 81.7511 143.487C85.4897 152.524 88.9566 161.666 92.1521 170.911C93.9809 176.111 95.6884 181.398 97.3525 186.677C97.3525 186.746 97.2572 186.781 97.2312 186.677C94.1456 177.342 90.8086 168.094 87.3156 158.941C83.8226 149.788 80.1389 140.687 76.2299 131.699C75.132 129.18 74.0168 126.663 72.8843 124.15C71.7488 121.636 70.57 119.14 69.5039 116.6C69.5039 116.444 69.6513 116.358 69.7033 116.505Z" fill="#46588E"/>
<path d="M117.695 109.38C117.037 110.031 76.5683 109.64 76.369 109.38C75.8402 108.67 81.8988 83.17 86.4492 73.4971C92.2738 61.1026 95.3507 60.0712 97.1969 59.3778C99.6681 58.6794 102.282 58.6585 104.764 59.3171C105.908 59.8285 110.744 65.6271 112.105 70.2295C114.835 79.469 118.276 108.808 117.695 109.38Z" fill="#6D90FF"/>
<path d="M90.3929 62.5674C72.5292 75.1006 56.8498 92.7996 58.1152 98.6068C59.45 104.743 71.2811 111.955 81.8814 113.688C84.0483 114.044 91.3203 98.2774 89.1101 97.4626C87.3766 96.8386 79.5759 94.3337 78.6398 93.2156C78.007 92.4355 90.8436 75.5686 95.108 66.6758C99.6237 57.3756 95.16 59.2131 90.3929 62.5674Z" fill="#D5A29E"/>
<path d="M84.6292 96.8386C84.6292 96.8386 91.2598 97.7054 95.5762 98.5028C97.9771 98.9448 102.033 100.054 103.654 101.19C106.073 102.88 115.13 111.487 113.085 113.732C111.238 115.76 108.664 112.371 108.664 112.371C108.664 112.371 111.828 115.838 109.375 117.251C106.922 118.663 103.975 113.974 103.975 113.974C103.975 113.974 107.589 117.389 104.842 118.689C102.45 119.816 98.4798 114.72 98.4798 114.72C98.4798 114.72 102.666 117.892 100.326 119.287C97.7257 120.83 90.7918 113.94 90.7918 113.94C86.3543 114.446 81.8598 114 77.6085 112.631C76.8978 112.397 84.6292 96.8386 84.6292 96.8386Z" fill="#D5A29E"/>
<path d="M104.946 115.118L104.192 114.044C103.723 113.33 103.214 112.644 102.666 111.989C102.12 111.365 101.548 110.767 100.933 110.178C100.317 109.588 99.6152 109.008 99.0084 108.375C99.0049 108.368 98.9995 108.361 98.9929 108.356C98.9862 108.351 98.9785 108.348 98.9703 108.346C98.9621 108.345 98.9537 108.345 98.9457 108.348C98.9378 108.35 98.9306 108.355 98.9247 108.361C98.9189 108.367 98.9145 108.374 98.9119 108.382C98.9094 108.39 98.9088 108.398 98.9103 108.406C98.9117 108.414 98.915 108.422 98.92 108.429C98.9251 108.435 98.9316 108.441 98.9391 108.444C99.5512 109.063 100.13 109.714 100.673 110.395L102.293 112.362C102.822 113.012 103.386 113.61 103.932 114.243C104.2 114.555 104.46 114.884 104.712 115.205C104.939 115.527 105.191 115.832 105.466 116.115L105.526 116.072C105.363 115.737 105.168 115.417 104.946 115.118Z" fill="#3F3D56"/>
<path d="M109.305 113.099C108.483 111.746 107.564 110.455 106.558 109.233C105.536 108.015 104.395 106.903 103.151 105.914C103.142 105.909 103.131 105.907 103.12 105.909C103.109 105.911 103.1 105.916 103.092 105.924C103.084 105.931 103.079 105.941 103.078 105.952C103.076 105.962 103.077 105.973 103.082 105.983C104.105 107.205 105.145 108.41 106.176 109.606C106.688 110.195 108.906 112.943 109.175 113.203C109.244 113.264 109.34 113.168 109.305 113.099Z" fill="#3F3D56"/>
<path d="M100.889 117.129C100.085 115.876 99.1992 114.677 98.2371 113.541C97.1585 112.471 95.9994 111.486 94.7701 110.594C94.7604 110.589 94.7495 110.588 94.7389 110.59C94.7283 110.591 94.7185 110.596 94.7109 110.604C94.7033 110.612 94.6982 110.621 94.6964 110.632C94.6946 110.643 94.6961 110.654 94.7007 110.663C95.7842 111.729 96.885 112.769 97.9077 113.896C98.4104 114.442 100.283 116.731 100.811 117.207C100.837 117.251 100.915 117.19 100.889 117.129Z" fill="#3F3D56"/>
<path d="M70.4747 78.0909L83.4759 87.131C83.4759 87.131 93.8249 72.197 96.6158 65.055C99.4067 57.913 96.4251 57.8003 89.2831 62.8101C82.1411 67.8199 70.4747 78.0909 70.4747 78.0909Z" fill="#6D90FF"/>
<path d="M73.552 76.2881C76.9947 79.1071 80.6072 81.7122 84.369 84.0888C84.4123 84.0888 84.4643 84.0455 84.4123 84.0108C83.4242 83.3694 78.1371 79.209 73.604 76.2101C73.552 76.1667 73.4913 76.2448 73.552 76.2881Z" fill="#4968CA"/>
<path d="M112.252 62.7668C126.172 70.5676 139.122 79.9631 141.462 86.2557C142.901 90.2167 140.734 97.2374 139.017 101.45C138.151 103.495 118.866 94.7845 120.547 93.1203C124.708 88.9946 125.41 87.3045 125.002 86.429C124.751 85.8743 109.695 71.9197 105.552 65.7225C99.7712 57.081 106.168 59.3605 112.252 62.7668Z" fill="#D5A29E"/>
<path d="M112.495 112.085C114.315 113.185 116.638 108.479 116.638 108.479C116.678 109.393 117.036 110.264 117.652 110.941C118.788 112.076 121.076 110.793 121.076 110.793C121.316 111.732 121.833 112.577 122.558 113.22C123.763 114.2 126.25 113.22 126.25 113.22C126.95 113.958 127.891 114.422 128.902 114.529C131.615 114.702 134.034 111.331 135.594 109.198C137.154 107.066 139.581 99.5775 140.188 98.1907L126.614 88.0671C126.614 88.0671 116.907 95.6165 115.433 98.3814C114.228 100.73 109.756 110.438 112.495 112.085Z" fill="#D5A29E"/>
<path d="M116.647 108.41C117.474 105.64 118.638 102.982 120.114 100.496C120.114 100.444 120.227 100.496 120.201 100.548C118.805 103.027 118.034 105.931 116.734 108.462C116.725 108.464 116.715 108.465 116.706 108.464C116.696 108.463 116.687 108.459 116.679 108.455C116.671 108.45 116.664 108.443 116.658 108.435C116.653 108.428 116.649 108.419 116.647 108.41Z" fill="#3F3D56"/>
<path d="M120.972 110.62C121.195 110.004 121.502 109.42 121.882 108.886C122.246 108.288 122.627 107.708 123.009 107.153C123.777 105.997 124.577 104.842 125.41 103.686C125.41 103.634 125.531 103.686 125.496 103.686C124.725 104.847 123.979 106.017 123.26 107.214C122.905 107.812 122.549 108.41 122.203 109.008C121.906 109.598 121.549 110.156 121.136 110.672C121.124 110.685 121.108 110.695 121.091 110.7C121.073 110.704 121.055 110.704 121.038 110.698C121.02 110.693 121.005 110.683 120.993 110.669C120.982 110.655 120.974 110.638 120.972 110.62Z" fill="#3F3D56"/>
<path d="M126.32 113.185C126.533 112.629 126.841 112.113 127.23 111.66L128.305 110.083C129.015 109.034 129.726 107.976 130.402 106.902C130.402 106.841 130.524 106.902 130.489 106.945C129.813 108.046 129.145 109.155 128.452 110.247C128.114 110.785 127.776 111.322 127.429 111.851C127.16 112.366 126.802 112.829 126.372 113.22L126.32 113.185Z" fill="#3F3D56"/>
<path d="M132.344 74.468L121.648 84.2882C121.648 84.2882 108.413 71.781 104.695 65.0724C100.976 58.3638 103.906 57.8611 111.628 61.8568C119.351 65.8525 132.344 74.468 132.344 74.468Z" fill="#6D90FF"/>
<path d="M132.344 74.468L121.648 84.2882C121.648 84.2882 108.413 71.781 104.695 65.0724C100.976 58.3638 103.906 57.8611 111.628 61.8568C119.351 65.8525 132.344 74.468 132.344 74.468Z" fill="#6D90FF"/>
<path d="M119.576 81.5666C122.906 78.8316 126.059 75.8874 129.015 72.7518C129.059 72.7518 129.015 72.6564 128.954 72.6998C128.157 73.5145 123.217 77.7616 119.507 81.4973C119.429 81.5406 119.533 81.6013 119.576 81.5666Z" fill="#4968CA"/>
<path d="M110.857 67.7506C111.342 68.8773 111.828 70.0041 112.226 71.1655C112.222 71.0876 112.222 71.0095 112.226 70.9315C112.19 70.2275 112.106 69.5267 111.975 68.834C111.975 68.756 112.079 68.73 112.088 68.834C112.226 69.5274 112.348 70.2294 112.434 70.9402C112.478 71.2782 112.495 71.6163 112.512 71.9543C112.512 71.9543 112.512 72.0323 112.512 72.0756C112.963 73.6184 113.232 75.1872 113.613 76.7387C113.613 76.8167 113.509 76.8427 113.492 76.7387C113.119 75.2132 112.556 73.7311 112.07 72.2403C111.585 70.7495 111.204 69.2327 110.744 67.7419C110.762 67.7332 110.831 67.6985 110.857 67.7506Z" fill="#4968CA"/>
<path d="M103.602 66.3032C101.305 66.8579 97.3441 63.3563 95.8013 60.522C95.6973 60.3226 95.9833 58.2684 96.2174 55.7462C96.356 54.2207 96.4687 52.5132 96.4687 50.9531C96.4687 50.6324 106.28 53.2933 106.28 53.2933C105.732 55.2508 105.423 57.2678 105.362 59.2999C105.362 59.5155 105.385 59.7305 105.431 59.9413C105.428 59.9759 105.428 60.0107 105.431 60.0453C105.622 61.2674 105.821 65.7658 103.602 66.3032Z" fill="#D5A29E"/>
<path d="M97.041 50.9878C97.5091 53.6314 99.1819 60.0106 104.417 60.106C104.75 60.1178 105.084 60.0974 105.414 60.0453C105.414 60.002 105.414 59.976 105.414 59.9413C105.37 59.7301 105.344 59.5155 105.336 59.2999C105.398 57.2673 105.71 55.2501 106.263 53.2933C106.263 53.2933 99.1732 51.3692 97.041 50.9878Z" fill="#C18C88"/>
<path d="M96.963 37.9952C95.2295 41.1935 95.0648 51.4037 97.0497 54.082C99.9273 57.9737 105.622 59.4298 109.184 55.7461C112.746 52.0625 112.651 38.8706 110.311 36.331C106.896 32.5867 99.4939 33.2974 96.963 37.9952Z" fill="#D5A29E"/>
<path d="M104.114 46.3853C103.013 46.2813 102.874 48.4915 103.897 48.5955C104.92 48.6995 105.041 46.4806 104.114 46.3853Z" fill="#131923"/>
<path d="M109.21 46.6887C110.32 46.6887 110.268 48.8989 109.21 48.9076C108.153 48.9163 108.283 46.7061 109.21 46.6887Z" fill="#131923"/>
<path d="M103.195 44.5651C103.507 44.5651 103.801 44.5044 104.105 44.4697C104.429 44.4836 104.75 44.3891 105.015 44.201C105.084 44.1246 105.128 44.0279 105.139 43.925C105.15 43.8221 105.128 43.7184 105.075 43.629C104.941 43.4704 104.766 43.3506 104.569 43.2821C104.373 43.2135 104.161 43.1986 103.957 43.239C103.535 43.258 103.134 43.4306 102.83 43.7243C102.765 43.7959 102.722 43.8847 102.707 43.9801C102.691 44.0755 102.703 44.1734 102.741 44.2622C102.78 44.3509 102.843 44.4267 102.923 44.4804C103.004 44.5341 103.098 44.5635 103.195 44.5651Z" fill="#3A3532"/>
<path d="M110.328 45.1372C110.034 45.0602 109.744 44.9646 109.462 44.8512C109.129 44.8066 108.822 44.6472 108.595 44.4005C108.54 44.312 108.516 44.2076 108.527 44.104C108.538 44.0004 108.583 43.9034 108.655 43.8284C108.828 43.6902 109.036 43.6045 109.256 43.5815C109.476 43.5584 109.698 43.599 109.895 43.6984C110.307 43.8065 110.665 44.0626 110.9 44.4178C110.945 44.5041 110.964 44.6015 110.955 44.6984C110.946 44.7953 110.909 44.8874 110.848 44.9636C110.788 45.0397 110.706 45.0967 110.614 45.1275C110.522 45.1583 110.422 45.1617 110.328 45.1372Z" fill="#3A3532"/>
<path d="M103.178 53.4233C103.334 53.5966 103.481 53.8306 103.732 53.8653C103.987 53.8736 104.241 53.8294 104.478 53.7353C104.478 53.7353 104.521 53.7353 104.478 53.7353C104.375 53.8606 104.24 53.9562 104.088 54.0126C103.935 54.0689 103.771 54.0839 103.611 54.056C103.473 54.0114 103.351 53.9265 103.262 53.8122C103.172 53.6979 103.119 53.5595 103.108 53.4146C103.108 53.4146 103.152 53.3973 103.178 53.4233Z" fill="#C18C88"/>
<path d="M104.027 51.4124C104.183 51.6945 104.397 51.9411 104.653 52.1365C104.91 52.332 105.204 52.472 105.518 52.5479C105.801 52.6169 106.093 52.649 106.384 52.6432H106.549H106.696C106.734 52.6379 106.768 52.6207 106.795 52.5941C106.821 52.5676 106.839 52.5331 106.844 52.4959V52.3658C106.896 51.8371 106.887 51.0311 106.887 51.0311C107.078 51.1351 108.031 51.6378 108.04 51.3604C108.119 48.9756 107.959 46.5888 107.563 44.2358C107.558 44.2225 107.549 44.2111 107.538 44.203C107.526 44.1949 107.512 44.1906 107.498 44.1906C107.484 44.1906 107.47 44.1949 107.459 44.203C107.447 44.2111 107.438 44.2225 107.433 44.2358C107.347 46.446 107.641 48.6475 107.589 50.8664C107.248 50.6836 106.883 50.5466 106.506 50.459C106.428 50.459 106.506 52.0191 106.506 52.2532C106.072 52.2732 105.639 52.2069 105.231 52.0581C104.824 51.9093 104.45 51.681 104.131 51.3864C104.044 51.3171 103.984 51.3604 104.027 51.4124Z" fill="#C18C88"/>
<path d="M106.063 52.3658C105.75 52.7257 105.35 53 104.902 53.1632C104.654 53.2411 104.388 53.2411 104.139 53.1632C103.602 52.9812 103.619 52.4785 103.741 52.0538C103.811 51.8296 103.907 51.6144 104.027 51.4124C104.586 51.9402 105.3 52.2744 106.063 52.3658Z" fill="#3F3D56"/>
<path d="M104.902 53.1459C104.654 53.2238 104.388 53.2238 104.14 53.1459C103.602 52.9639 103.62 52.4612 103.741 52.0365C104.031 52.0646 104.303 52.1893 104.513 52.3904C104.724 52.5916 104.861 52.8576 104.902 53.1459Z" fill="#FF98B9"/>
<path d="M111.03 40.8988C107.416 42.7883 103.229 38.7839 103.229 38.7839C102.858 39.4802 102.272 40.0378 101.558 40.3737C100.845 40.7095 100.041 40.8055 99.2684 40.6474C99.2684 40.6474 97.9423 46.2293 96.4602 46.0386C94.1893 45.7526 94.3973 37.9605 95.29 36.5044C95.6329 36.0556 96.0647 35.6824 96.5583 35.408C97.0519 35.1336 97.5968 34.9639 98.159 34.9096C98.4829 34.0192 99.1294 33.2829 99.9705 32.8467C101.704 31.8413 106.826 34.0775 106.826 34.0775C107.213 33.3811 107.759 32.7869 108.421 32.344C108.58 32.237 108.758 32.1629 108.945 32.1263C109.133 32.0897 109.326 32.0913 109.513 32.1309C109.699 32.1705 109.876 32.2475 110.033 32.357C110.189 32.4666 110.322 32.6066 110.423 32.7687C110.084 33.151 109.84 33.6085 109.713 34.1035C109.245 35.7243 110.579 35.8803 110.761 34.3809C110.848 33.8203 110.728 33.2474 110.423 32.7687C111.204 31.902 112.33 31.6766 112.928 32.2833C114.046 33.4448 114.029 39.3647 111.03 40.8988Z" fill="#4A4644"/>
<path d="M109.713 50.4156C110.744 50.485 111.672 49.2802 111.776 47.7287C111.88 46.1772 111.143 44.8425 110.112 44.7731C109.08 44.7038 108.162 45.9085 108.049 47.46C107.936 49.0115 108.682 50.3376 109.713 50.4156ZM110.086 45.1545C110.909 45.2065 111.498 46.3506 111.403 47.7027C111.308 49.0548 110.536 50.0949 109.739 50.0343C108.942 49.9736 108.326 48.8381 108.43 47.486C108.534 46.1339 109.271 45.0938 110.086 45.1545Z" fill="#6D90FF"/>
<path d="M103.394 49.9649C103.958 50.0435 104.531 49.9508 105.041 49.6989C105.551 49.4469 105.974 49.0474 106.253 48.5523C106.533 48.0571 106.658 47.4892 106.61 46.9224C106.563 46.3556 106.346 45.8162 105.988 45.3742C105.631 44.9322 105.148 44.6081 104.603 44.4441C104.059 44.28 103.477 44.2836 102.935 44.4544C102.392 44.6251 101.914 44.9552 101.561 45.4015C101.209 45.8479 100.999 46.39 100.959 46.9573C100.886 47.6786 101.101 48.3994 101.557 48.9627C102.013 49.5261 102.674 49.8863 103.394 49.9649ZM103.767 44.6951C104.262 44.6911 104.747 44.8365 105.158 45.1123C105.569 45.388 105.888 45.7814 106.072 46.2409C106.256 46.7005 106.297 47.2049 106.19 47.6883C106.083 48.1717 105.833 48.6116 105.472 48.9506C105.111 49.2896 104.657 49.5119 104.168 49.5885C103.679 49.6651 103.178 49.5925 102.731 49.38C102.283 49.1676 101.911 48.8252 101.661 48.3976C101.411 47.9701 101.297 47.4772 101.331 46.9833C101.354 46.358 101.623 45.7668 102.079 45.3384C102.535 44.9099 103.141 44.6787 103.767 44.6951Z" fill="#6D90FF"/>
<path d="M106.116 47.07C107.563 46.6713 108.17 47.1827 108.17 47.1827L108.43 46.9054C108.43 46.9054 107.685 46.2466 106.021 46.706L106.116 47.07Z" fill="#6D90FF"/>
<path d="M101.166 46.7233L101.262 46.3506C101.019 46.2899 95.3418 44.8164 94.7178 44.7384C93.8656 44.8336 93.0391 45.0895 92.2822 45.4925L92.4382 45.8305C93.129 45.4748 93.8722 45.2319 94.6398 45.1111C95.1598 45.1718 99.1295 46.1945 101.166 46.7233Z" fill="#6D90FF"/>
<path d="M97.4565 46.4372C97.4565 46.4372 95.8011 42.8402 94.2062 43.3776C92.6114 43.915 93.4608 48.8468 95.073 49.7915C95.2676 49.9295 95.4886 50.0258 95.7221 50.0744C95.9557 50.123 96.1967 50.1229 96.4302 50.0741C96.6637 50.0253 96.8846 49.9288 97.0791 49.7907C97.2736 49.6526 97.4375 49.4758 97.5605 49.2715L97.4565 46.4372Z" fill="#D5A29E"/>
<path d="M94.5708 61.2067C95.5952 62.5698 96.6948 63.8749 97.8644 65.1157C98.9422 66.3293 100.383 67.1623 101.973 67.4906C103.516 67.6986 105.076 67.4906 105.726 65.5664C106.203 63.9528 106.312 62.2528 106.046 60.5913C106.046 60.5046 106.159 60.4873 106.168 60.5913C106.419 63.0962 106.627 66.9532 104.33 67.716C101.73 68.5827 99.3465 67.1699 97.6477 65.3497C96.459 64.1039 95.4098 62.7321 94.5188 61.2587C94.5188 61.2587 94.5448 61.1807 94.5708 61.2067Z" fill="#4968CA"/>
<path d="M79.0908 117.753H125.592V119.842H79.0908V117.753Z" fill="#405BB4"/>
<path d="M91.0256 119.833H136.348L140.118 89.0553H94.8046L91.0256 119.833Z" fill="#405BB4"/>
<path d="M112.816 104.449C112.807 104.809 112.872 105.168 113.005 105.503C113.138 105.838 113.336 106.143 113.589 106.4C113.842 106.657 114.144 106.861 114.477 106.999C114.81 107.137 115.168 107.207 115.528 107.205C116.263 107.201 116.967 106.91 117.491 106.396C118.015 105.881 118.319 105.183 118.337 104.449C118.345 104.088 118.281 103.729 118.148 103.393C118.015 103.057 117.816 102.752 117.563 102.494C117.311 102.236 117.009 102.032 116.676 101.893C116.342 101.754 115.985 101.682 115.624 101.684C114.888 101.688 114.183 101.979 113.658 102.496C113.134 103.012 112.831 103.713 112.816 104.449Z" fill="white"/>
<path d="M38.0239 23.9105C38.4336 27.8715 39.9368 31.6404 42.3654 34.7961C44.7941 37.9518 48.0526 40.3698 51.7767 41.7799C55.5007 43.19 59.5435 43.5367 63.4532 42.781C67.363 42.0254 70.9855 40.1973 73.9159 37.5011L84.6636 39.0786L79.2897 29.7871C80.6338 26.5167 81.1402 22.9625 80.7632 19.4468C80.4925 16.6227 79.6652 13.8802 78.3291 11.3774C76.9929 8.87474 75.1744 6.66142 72.9784 4.86521C70.7823 3.069 68.2524 1.72547 65.5344 0.912141C62.8164 0.0988122 59.9643 -0.168209 57.1426 0.126493C54.3209 0.421194 51.5855 1.27178 49.0943 2.62917C46.603 3.98656 44.4052 5.82387 42.6278 8.03507C40.8503 10.2463 39.5283 12.7876 38.7381 15.5124C37.948 18.2372 37.7052 21.0915 38.0239 23.9105Z" fill="#F3F3F3"/>
<path d="M38.0239 23.9105C38.4397 27.8714 39.9392 31.6411 42.3576 34.8055C42.9631 35.5886 43.6143 36.3353 44.3078 37.0417C45.0242 37.7295 45.7826 38.3721 46.5787 38.9659C48.1671 40.1688 49.918 41.1406 51.7792 41.8521C54.5475 42.9454 57.5171 43.4359 60.49 43.291C61.4876 43.2651 62.4816 43.1608 63.4629 42.9789C67.4274 42.2513 71.1104 40.4323 74.0979 37.7264L73.8379 37.8044L84.5769 39.4599L85.3569 39.5726L84.9582 38.8879L79.6191 29.579V29.943C81.1836 26.0982 81.615 21.886 80.8624 17.8039C80.1098 13.7217 78.2046 9.94028 75.3719 6.90615C72.5392 3.87202 68.8973 1.71198 64.8764 0.681195C60.8555 -0.349595 56.6236 -0.20808 52.6806 1.08903C49.5753 2.14499 46.7445 3.88015 44.3945 6.16817C42.0648 8.45468 40.2818 11.238 39.1786 14.3102C38.0755 17.3825 37.6807 20.6643 38.0239 23.9105ZM38.0239 23.9105C37.6827 20.6756 38.0883 17.4055 39.2095 14.352C40.3307 11.2985 42.1375 8.54298 44.491 6.29751C46.8445 4.05204 49.6818 2.37652 52.7846 1.39991C55.8873 0.423301 59.1728 0.17165 62.3881 0.664326C65.5724 1.1277 68.6084 2.31363 71.2636 4.13131C73.8862 5.97686 76.0774 8.36916 77.6862 11.1433C79.2723 13.9266 80.2056 17.0337 80.4158 20.2302C80.626 23.4268 80.1076 26.6294 78.8997 29.5963L78.8303 29.787L78.9257 29.9604L84.3342 39.2346L84.7242 38.6712L73.9679 37.1631H73.8119L73.7078 37.2671C70.8388 39.9563 67.2754 41.7906 63.4196 42.5629C62.4607 42.7638 61.4864 42.8827 60.5073 42.9183C59.5291 42.9875 58.5472 42.9875 57.569 42.9183C55.6065 42.7675 53.675 42.3415 51.8312 41.6528C49.9714 40.9799 48.2195 40.0397 46.6307 38.8619C45.8367 38.2748 45.0784 37.641 44.3598 36.9637C43.6621 36.2674 43.0106 35.5262 42.4096 34.7448C39.977 31.6067 38.4592 27.8571 38.0239 23.9105Z" fill="#3F3D56"/>
<path d="M57.0227 33.9301L47.8525 24.6472L50.9295 21.5962L56.2946 27.0221L67.4324 9.5658L71.0814 11.8973L57.0227 33.9301Z" fill="#3D354D"/>
</svg>
