<svg width="286" height="269" viewBox="0 0 286 269" fill="none" xmlns="http://www.w3.org/2000/svg">
<path d="M118.812 35.0504H136.5V42.5253H118.812V35.0504Z" fill="#EBEBEB"/>
<path d="M128.678 25.625H146.367V33.0999H128.678V25.625Z" fill="#EBEBEB"/>
<path d="M201.67 268.022C155.385 268.022 117.863 262.193 117.863 255.003C117.863 247.812 155.385 241.983 201.67 241.983C247.956 241.983 285.478 247.812 285.478 255.003C285.478 262.193 247.956 268.022 201.67 268.022Z" fill="#A1ABD1"/>
<path d="M35.672 263.379C17.5209 263.379 2.80644 259.629 2.80644 255.003C2.80644 250.376 17.5209 246.626 35.672 246.626C53.8232 246.626 68.5376 250.376 68.5376 255.003C68.5376 259.629 53.8232 263.379 35.672 263.379Z" fill="#A1ABD1"/>
<path d="M38.6315 239.986H206.66L191.056 16.7939H23.0203L38.6315 239.986Z" fill="#4F5A9F"/>
<g opacity="0.1">
<path opacity="0.1" d="M38.6315 239.986H206.66L191.056 16.7939H23.0203L38.6315 239.986Z" fill="#28347D"/>
</g>
<path d="M42.7464 239.986H210.782L195.171 16.7939H27.1419L42.7464 239.986Z" fill="#28347D"/>
<path d="M50.3947 226.773L198.851 228.664L187.355 27.5956L38.8918 25.7052L50.3947 226.773Z" fill="#EBEBEB"/>
<path d="M54.0358 229.305L202.111 226.105L183.715 25.0706L35.639 28.2636L54.0358 229.305Z" fill="#DBDBDB"/>
<path d="M51.4432 227.728H199.779L185.718 26.647H37.3818L51.4432 227.728Z" fill="white"/>
<path d="M84.4893 90.0669H69.6797L70.7151 75.2573H85.5247L84.4893 90.0669Z" fill="#EBEBEB"/>
<path d="M141.35 77.4283H93.3677L93.5213 75.2573H141.504L141.35 77.4283Z" fill="#2D50AA"/>
<path d="M177.489 81.6367H93.0737L93.2274 79.4657H177.636L177.489 81.6367Z" fill="#EBEBEB"/>
<path d="M177.188 85.8519H92.7793L92.9329 83.6809H177.341L177.188 85.8519Z" fill="#EBEBEB"/>
<path d="M176.894 90.0669H92.4854L92.639 87.8959H177.047L176.894 90.0669Z" fill="#EBEBEB"/>
<path d="M71.3433 81.9241C71.8576 82.3783 72.3453 82.8593 72.8262 83.3336C73.3072 83.8078 73.7681 84.3088 74.2424 84.7965C75.1709 85.7851 76.0593 86.8005 76.9144 87.8225L75.2043 87.9361C76.7533 85.1305 78.4826 82.4284 80.3813 79.8466C81.3365 78.5507 82.3318 77.2881 83.3873 76.059C84.4502 74.8152 85.5879 73.6374 86.7941 72.532C86.2407 74.0554 85.5845 75.5396 84.8301 76.9742C84.102 78.4037 83.3071 79.7932 82.4654 81.1559C80.7862 83.8908 78.9297 86.5127 76.9077 89.0049L75.8923 90.2474L75.2243 89.1118C74.5563 87.9561 73.8349 86.7938 73.2203 85.5981C72.8997 84.9902 72.5523 84.4023 72.2651 83.7878C71.9779 83.1732 71.6171 82.5253 71.3433 81.9241Z" fill="#2D50AA"/>
<path d="M82.5527 117.755H67.7432L68.7786 102.946H83.5881L82.5527 117.755Z" fill="#EBEBEB"/>
<path d="M139.413 105.117H91.4302L91.5838 102.946H139.566L139.413 105.117Z" fill="#2D50AA"/>
<path d="M175.551 109.332H91.1362L91.2899 107.161H175.698L175.551 109.332Z" fill="#EBEBEB"/>
<path d="M175.257 113.547H90.8423L90.9959 111.376H175.404L175.257 113.547Z" fill="#EBEBEB"/>
<path d="M174.964 117.756H90.5483L90.702 115.591H175.11L174.964 117.756Z" fill="#EBEBEB"/>
<path d="M69.4062 109.586C69.9206 110.04 70.4083 110.514 70.8892 110.995C71.3702 111.476 71.8311 111.971 72.3054 112.458C73.2339 113.447 74.1223 114.462 74.9774 115.484L73.274 115.591C74.8197 112.784 76.5492 110.081 78.451 107.502C79.3995 106.212 80.3949 104.95 81.4503 103.721C82.5115 102.475 83.6493 101.297 84.8571 100.194C84.3006 101.715 83.6468 103.199 82.8999 104.636C82.1651 106.065 81.3701 107.455 80.5285 108.818C78.8539 111.549 77.0041 114.168 74.9907 116.66L73.9754 117.902L73.3074 116.767C72.5993 115.611 71.9113 114.442 71.2633 113.246C70.9426 112.645 70.5953 112.051 70.3081 111.443C70.0208 110.835 69.6801 110.22 69.4062 109.586Z" fill="#2D50AA"/>
<path d="M80.6152 145.451H65.8057L66.8411 130.641H81.6507L80.6152 145.451Z" fill="#EBEBEB"/>
<path d="M137.476 132.812H89.4932L89.6468 130.641H137.629L137.476 132.812Z" fill="#2D50AA"/>
<path d="M173.614 137.027H89.1992L89.3529 134.856H173.768L173.614 137.027Z" fill="#EBEBEB"/>
<path d="M173.32 141.236H88.9048L89.0584 139.071H173.474L173.32 141.236Z" fill="#EBEBEB"/>
<path d="M173.026 145.451H88.6113L88.765 143.28H173.173L173.026 145.451Z" fill="#EBEBEB"/>
<path d="M67.4692 137.281C67.9836 137.735 68.4712 138.21 68.9522 138.691C69.4332 139.172 69.8941 139.666 70.3684 140.154C71.2969 141.135 72.1853 142.158 73.0404 143.18L71.337 143.286C72.8895 140.48 74.6233 137.778 76.5273 135.197C77.4759 133.908 78.4712 132.639 79.5266 131.416C80.5878 130.171 81.7256 128.993 82.9334 127.889C82.3782 129.409 81.7244 130.89 80.9762 132.325C80.2414 133.754 79.4465 135.15 78.6048 136.513C76.9279 139.247 75.0712 141.867 73.047 144.355L72.0317 145.598L71.3637 144.469C70.6556 143.313 69.9676 142.144 69.3196 140.948C69.0056 140.347 68.6516 139.753 68.3644 139.138C68.0771 138.524 67.7431 137.916 67.4692 137.281Z" fill="#2D50AA"/>
<path d="M78.6782 173.146H63.8687L64.9041 158.336H79.7136L78.6782 173.146Z" fill="#EBEBEB"/>
<path d="M135.538 160.507H87.5557L87.7093 158.336H135.692L135.538 160.507Z" fill="#2D50AA"/>
<path d="M171.677 164.716H87.2617L87.4154 162.545H171.831L171.677 164.716Z" fill="#EBEBEB"/>
<path d="M171.383 168.931H86.9683L87.1219 166.76H171.537L171.383 168.931Z" fill="#EBEBEB"/>
<path d="M171.089 173.146H86.6743L86.828 170.975H171.243L171.089 173.146Z" fill="#EBEBEB"/>
<path d="M76.7407 200.835H61.9312L62.9666 186.032H77.7761L76.7407 200.835Z" fill="#EBEBEB"/>
<path d="M133.601 188.196H85.6255L85.7724 186.032H133.755L133.601 188.196Z" fill="#2D50AA"/>
<path d="M169.74 192.411H85.3315L85.4785 190.24H169.894L169.74 192.411Z" fill="#EBEBEB"/>
<path d="M169.445 196.626H85.0303L85.1839 194.455H169.599L169.445 196.626Z" fill="#EBEBEB"/>
<path d="M169.152 200.835H84.7368L84.8905 198.664H169.306L169.152 200.835Z" fill="#EBEBEB"/>
<path d="M76.1529 34.9368H149.012L147.462 12.7258H74.6032L76.1529 34.9368Z" fill="#C7C7C7"/>
<path d="M87.7429 0.574951H132.98L135.819 12.7192H85.9259L87.7429 0.574951ZM110.635 9.31239C110.979 9.31753 111.32 9.25038 111.636 9.11529C111.952 8.9802 112.236 8.78018 112.469 8.52823C112.703 8.27628 112.881 7.97802 112.992 7.65279C113.103 7.32756 113.144 6.98264 113.114 6.64039C113.055 5.92008 112.731 5.24724 112.204 4.75319C111.676 4.25915 110.984 3.97935 110.261 3.96839C109.918 3.96325 109.577 4.0304 109.261 4.16549C108.945 4.30058 108.661 4.50059 108.427 4.75254C108.193 5.0045 108.015 5.30276 107.904 5.62799C107.793 5.95322 107.752 6.29815 107.783 6.64039C107.838 7.36182 108.161 8.03639 108.689 8.53104C109.218 9.02568 109.912 9.30447 110.635 9.31239Z" fill="#C7C7C7"/>
<path d="M85.9259 12.7191H135.819L135.178 10.0004H86.3334L85.9259 12.7191Z" fill="#A6A6A6"/>
<path d="M226.54 78.7977C225.551 86.1457 220.054 103.687 215.952 104.803C212.131 105.838 195.338 100.835 193.173 97.5017C192.018 95.7182 187.442 79.3321 189.493 80.3141C192.084 81.5499 211.096 91.1624 211.877 90.9687C213.527 90.5545 216.747 84.0482 219.533 80.4143C225.598 72.4784 227.008 75.3509 226.54 78.7977Z" fill="#D4A29E"/>
<path d="M215.071 86.119L223.681 94.008C223.681 94.008 226.727 82.7389 227.075 77.5218C227.422 72.3047 223.16 72.8992 215.071 86.119Z" fill="#3952A0"/>
<path d="M250.341 160.895C250.341 160.895 259.446 175.304 268.764 168.296C278.083 161.289 266.76 148.544 266.76 148.544L250.341 160.895Z" fill="#808CD1"/>
<path d="M267.187 149.074L250.749 161.425L178.754 65.6062L195.192 53.2552L267.187 149.074Z" fill="#6D90FF"/>
<path opacity="0.1" d="M267.187 149.074L250.749 161.425L178.754 65.6062L195.192 53.2552L267.187 149.074Z" fill="black"/>
<path d="M268.956 148.555L249.763 162.976L246.902 159.169L266.095 144.747L268.956 148.555Z" fill="#2A3B75"/>
<path d="M265.793 144.346L246.599 158.768L243.738 154.96L262.932 140.538L265.793 144.346Z" fill="#2A3B75"/>
<path d="M195.198 53.2602L180.121 46.0792L175.164 43.6945L176.039 49.152L178.711 65.6249L182.172 66.7605C182.172 66.7605 181.998 63.2134 182.005 63.1533L185.465 64.2889C185.465 64.2889 185.285 60.7418 185.298 60.675L188.718 61.844C188.718 61.844 188.578 58.2702 188.584 58.2034L192.011 59.3724C192.011 59.3724 191.871 55.7986 191.878 55.7318L195.298 56.8941C195.298 56.8941 195.184 53.3203 195.198 53.2602Z" fill="#D5D5D5"/>
<path d="M180.121 46.0792L175.164 43.6945L176.039 49.152L180.121 46.0792Z" fill="#5E5C76"/>
<g opacity="0.1">
<path opacity="0.1" d="M243.647 143.828C239.191 137.662 234.676 131.55 230.147 125.438L216.479 107.154L202.719 88.9648L195.818 79.9201L188.838 70.9021L195.558 80.1205L202.331 89.2721L215.972 107.555L229.739 125.745C234.348 131.788 238.984 137.816 243.647 143.828Z" fill="black"/>
<path opacity="0.1" d="M248.21 140.942C243.754 134.783 239.239 128.664 234.716 122.552L221.069 104.269L207.308 86.079L200.381 77.0209L193.401 67.9962L200.121 77.248L206.894 86.4197L220.541 104.703L234.302 122.892C238.918 128.904 243.534 134.95 248.21 140.942Z" fill="black"/>
<path opacity="0.1" d="M252.779 138.036C248.317 131.87 243.801 125.758 239.279 119.646L225.638 101.363L211.87 83.1732L204.943 74.1085L197.963 65.0905L204.683 74.3089L211.463 83.4805L225.104 101.764L238.871 120C243.48 126.012 248.096 132.064 252.779 138.036Z" fill="black"/>
</g>
<path d="M187.856 79.7195C187.616 82.2713 185.999 85.9185 186.427 87.7756C186.517 88.2367 186.754 88.6565 187.102 88.9728C187.449 89.2892 187.889 89.4854 188.357 89.5324C188.357 89.5324 186.908 91.0621 187.576 92.6787C187.923 93.5137 189.58 93.694 189.58 93.694C189.272 94.0582 189.069 94.5 188.995 94.9712C188.921 95.4423 188.978 95.9248 189.159 96.366C189.7 97.4816 191.256 97.495 191.256 97.495C191.256 97.495 190.762 99.2184 191.684 100.167C193.547 102.111 203.587 98.4703 203.795 94.2084C203.888 92.2044 201.483 93.2465 201.483 93.2465C201.483 93.2465 204.589 90.9419 203.888 88.8511C203.187 86.7602 200.147 88.2833 200.147 88.2833C200.147 88.2833 203.133 86.0187 202.191 83.9279C201.249 81.8371 198.424 83.7943 198.424 83.7943C198.424 83.7943 200.107 81.4697 199.018 80.0335C197.221 77.6621 194.215 82.5518 191.824 82.8324L189.286 79.6393L187.856 79.7195Z" fill="#D4A29E"/>
<path d="M186.994 83.614C186.994 81.1758 183.394 79.4925 183.08 77.1611C182.646 74.0082 186.981 75.6782 189.259 79.6595L190.481 83.0596L186.994 83.614Z" fill="#D4A29E"/>
<path d="M191.477 97.5419C191.477 97.5419 191.477 97.602 191.477 97.5953C195.214 97.2014 198.742 95.6774 201.59 93.2266C201.677 93.1464 201.59 92.9661 201.477 93.0396C198.378 95.0159 195.01 96.5324 191.477 97.5419Z" fill="#C18C88"/>
<path d="M189.513 93.7342C189.473 93.7342 189.513 93.8077 189.513 93.8077C193.63 93.3285 197.44 91.3927 200.254 88.3501C200.348 88.2433 200.321 88.0495 200.201 88.1631C198.217 90.1404 192.846 92.8324 189.513 93.7342Z" fill="#C18C88"/>
<path d="M198.531 83.5139C195.752 86.4597 192.305 88.2233 188.511 89.5259C188.464 89.5259 188.511 89.6127 188.511 89.6127C190.515 89.4791 192.873 88.4036 194.616 87.4083C196.259 86.5158 197.64 85.2103 198.624 83.6207C198.671 83.5472 198.584 83.4537 198.531 83.5139Z" fill="#C18C88"/>
<path d="M188.618 253.987C189.9 254.415 226.54 254.308 227.936 253.42C228.464 253.092 228.758 247.748 228.938 241.289C228.938 239.893 229.005 238.456 229.025 236.994C229.025 235.257 229.072 233.507 229.085 231.803C229.132 224.148 229.025 217.408 229.025 217.408H205.171V231.803V236.994L205.291 241.289C205.291 241.289 191.263 247.608 189.86 248.744C188.458 249.879 187.342 253.6 188.618 253.987Z" fill="#D4A29E"/>
<path d="M188.618 253.988C189.9 254.415 226.54 254.308 227.936 253.42C228.464 253.092 228.758 247.748 228.938 241.289C228.938 239.893 229.005 238.457 229.025 236.994C229.025 235.257 229.072 233.507 229.085 231.803H205.184V236.994L205.304 241.289C205.304 241.289 191.276 247.608 189.873 248.744C188.471 249.879 187.342 253.6 188.618 253.988Z" fill="white"/>
<path d="M188.504 254.041C189.346 254.315 204.95 254.375 216.313 254.141C218.938 254.081 221.343 254.007 223.287 253.927C225.959 253.8 227.756 253.653 228.043 253.473C228.711 253.059 228.998 245.217 229.145 236.953H205.171L205.297 241.275C205.297 241.275 191.209 247.621 189.773 248.77C188.337 249.919 187.221 253.6 188.504 254.041Z" fill="#6D90FF"/>
<path d="M189.032 252.565C195.211 252.398 220.134 252.297 226.253 252.598C226.299 252.598 226.299 252.638 226.253 252.638C220.134 252.939 195.211 252.838 189.032 252.671C188.905 252.665 188.905 252.571 189.032 252.565Z" fill="#475B9D"/>
<path d="M204.422 239.906C206.847 239.445 209.82 239.806 211.684 241.536C211.757 241.603 211.684 241.703 211.583 241.676C209.266 240.943 206.876 240.461 204.456 240.24C204.412 240.244 204.367 240.231 204.333 240.203C204.298 240.175 204.277 240.134 204.272 240.09C204.268 240.045 204.281 240.001 204.309 239.967C204.337 239.932 204.378 239.91 204.422 239.906Z" fill="#475B9D"/>
<path d="M202.672 240.968C205.097 240.507 208.07 240.868 209.934 242.598C210.007 242.665 209.934 242.765 209.833 242.738C207.507 241.998 205.109 241.508 202.679 241.275C202.638 241.276 202.599 241.261 202.569 241.233C202.54 241.205 202.523 241.166 202.522 241.125C202.521 241.084 202.537 241.045 202.565 241.016C202.593 240.986 202.632 240.969 202.672 240.968Z" fill="#475B9D"/>
<path d="M200.915 242.03C203.347 241.569 206.32 241.93 208.183 243.66C208.257 243.727 208.183 243.827 208.076 243.8C205.753 243.059 203.357 242.569 200.929 242.337C200.888 242.339 200.848 242.325 200.818 242.297C200.788 242.27 200.77 242.231 200.768 242.191C200.767 242.15 200.781 242.11 200.809 242.08C200.836 242.05 200.875 242.032 200.915 242.03Z" fill="#475B9D"/>
<path d="M199.165 243.092C201.597 242.631 204.57 242.992 206.433 244.722C206.507 244.789 206.433 244.889 206.326 244.863C204.003 244.122 201.607 243.631 199.179 243.4C199.138 243.401 199.098 243.387 199.068 243.359C199.038 243.332 199.02 243.293 199.018 243.253C199.017 243.212 199.031 243.172 199.059 243.142C199.086 243.112 199.125 243.094 199.165 243.092Z" fill="#475B9D"/>
<path d="M199.914 234.295C200.869 232.959 202.646 233.567 203.661 234.415C205.382 235.905 206.679 237.822 207.422 239.973C207.426 239.982 207.429 239.992 207.428 240.002C207.428 240.012 207.425 240.022 207.419 240.031C207.414 240.04 207.406 240.047 207.398 240.052C207.389 240.057 207.379 240.06 207.369 240.06C207.37 240.107 207.361 240.154 207.341 240.197C207.321 240.24 207.291 240.277 207.254 240.307C207.217 240.336 207.174 240.356 207.128 240.365C207.081 240.375 207.033 240.373 206.988 240.36C204.984 239.625 202.739 239.084 201.016 237.755C200.007 236.98 199.019 235.564 199.914 234.295ZM204.169 238.623C205.151 239.011 206.173 239.345 207.101 239.766C206.402 238.663 205.646 237.597 204.837 236.573C204.439 236.081 204.008 235.617 203.548 235.183C202.819 234.515 199.954 233.132 200.388 235.798C200.628 237.267 203 238.163 204.169 238.623Z" fill="#475B9D"/>
<path d="M213.601 239.318C211.597 240.18 209.292 240.14 207.168 240.354C207.121 240.355 207.074 240.344 207.031 240.324C206.988 240.303 206.951 240.272 206.922 240.235C206.894 240.197 206.874 240.153 206.866 240.106C206.858 240.06 206.86 240.011 206.874 239.966C206.864 239.963 206.856 239.957 206.849 239.95C206.841 239.943 206.836 239.934 206.833 239.924C206.83 239.915 206.829 239.904 206.83 239.894C206.831 239.884 206.835 239.874 206.841 239.866C208.096 237.97 209.828 236.438 211.864 235.424C213.066 234.856 214.937 234.756 215.525 236.245C216.113 237.735 214.763 238.817 213.601 239.318ZM214.69 237.581C215.779 235.11 212.686 235.744 211.791 236.199C211.233 236.498 210.699 236.84 210.194 237.221C209.153 238.009 208.154 238.852 207.201 239.746C208.237 239.579 209.286 239.499 210.328 239.372C211.57 239.218 214.088 238.944 214.69 237.568V237.581Z" fill="#475B9D"/>
<path d="M236.981 115.758C236.981 115.758 230.535 179.519 230.381 180.327C230.381 180.434 230.314 181.663 230.254 183.667C229.907 194.642 229.045 228.864 229.045 228.864H202.746C202.746 228.864 204.463 188.33 205.418 178.871C206.674 166.807 214.643 115.758 214.643 115.758H236.981Z" fill="#627AC5"/>
<path d="M227.248 182.578C228.054 168.773 229.272 154.99 230.902 141.229C231.83 133.48 232.906 125.765 234.042 118.043C234.042 117.976 234.162 117.976 234.148 118.043C232.144 131.79 230.675 145.638 229.432 159.459C228.19 173.28 227.321 187.127 226.76 200.995C226.433 208.851 226.193 215.952 225.939 223.814C225.932 223.847 225.913 223.876 225.887 223.897C225.861 223.918 225.829 223.93 225.795 223.93C225.761 223.93 225.729 223.918 225.703 223.897C225.677 223.876 225.659 223.847 225.651 223.814C226.019 209.813 226.426 196.56 227.248 182.578Z" fill="#46588E"/>
<path d="M204.549 224.502C216.573 224.121 226.914 224.395 227.809 224.462C228.551 224.522 228.136 224.595 227.769 224.622C217.589 225.23 204.95 224.656 204.549 224.622C204.456 224.595 204.456 224.502 204.549 224.502Z" fill="#46588E"/>
<path d="M236.981 115.758C236.981 115.758 230.535 179.519 230.381 180.327C230.381 180.434 230.314 181.663 230.254 183.667L217.856 115.758H236.981Z" fill="#46588E"/>
<path d="M228.637 259.198C229.973 259.525 266.473 256.693 267.802 255.697C268.303 255.33 268.203 249.979 267.889 243.533C267.829 242.137 267.816 240.688 267.662 239.238C267.475 237.408 267.268 235.584 267.041 233.82C266.092 226.179 264.99 219.792 264.99 219.792L241.864 221.536L243.3 235.357L243.868 241.008L244.309 245.283C244.309 245.283 230.808 252.631 229.472 253.867C228.136 255.103 227.328 258.864 228.637 259.198Z" fill="#D4A29E"/>
<path d="M228.637 259.198C229.973 259.525 266.473 256.693 267.802 255.698C268.303 255.33 268.203 249.979 267.889 243.533C267.829 242.137 267.816 240.688 267.662 239.238C267.475 237.408 267.268 235.584 267.041 233.821C259.92 234.322 249.673 234.956 243.307 235.344L243.868 241.008L244.309 245.283C244.309 245.283 230.808 252.631 229.472 253.867C228.136 255.103 227.328 258.864 228.637 259.198Z" fill="white"/>
<path d="M228.504 259.251C229.84 259.585 266.58 256.733 267.883 255.744C268.497 255.283 268.223 247.448 267.749 239.185L243.868 240.968L244.309 245.27C244.309 245.27 230.735 252.651 229.392 253.901C228.05 255.15 227.215 258.944 228.504 259.251Z" fill="#6D90FF"/>
<path d="M228.938 257.742C235.084 257.114 259.934 255.156 266.059 255.003C266.106 255.003 266.113 255.003 266.059 255.043C259.98 255.798 235.117 257.555 228.952 257.842C228.818 257.849 228.811 257.755 228.938 257.742Z" fill="#475B9D"/>
<path d="M243.347 243.967C245.732 243.333 248.691 243.473 250.695 245.056C250.775 245.116 250.695 245.223 250.608 245.203C248.24 244.629 245.817 244.309 243.38 244.248C243.352 244.239 243.326 244.223 243.306 244.2C243.287 244.177 243.275 244.149 243.271 244.119C243.268 244.089 243.273 244.059 243.286 244.032C243.3 244.005 243.321 243.982 243.347 243.967Z" fill="#475B9D"/>
<path d="M241.677 245.156C244.068 244.522 247.021 244.662 249.025 246.245C249.098 246.305 249.025 246.412 248.931 246.392C246.557 245.826 244.13 245.515 241.69 245.464C241.67 245.465 241.65 245.462 241.631 245.455C241.612 245.448 241.594 245.437 241.579 245.423C241.565 245.41 241.553 245.393 241.544 245.375C241.535 245.357 241.531 245.337 241.53 245.317C241.529 245.297 241.532 245.276 241.539 245.257C241.546 245.239 241.556 245.221 241.57 245.206C241.584 245.191 241.6 245.179 241.618 245.171C241.637 245.162 241.657 245.157 241.677 245.156Z" fill="#475B9D"/>
<path d="M240.007 246.352C242.398 245.684 245.391 245.851 247.355 247.434C247.435 247.494 247.355 247.601 247.261 247.588C244.888 247.019 242.46 246.706 240.02 246.653C239.985 246.647 239.953 246.63 239.93 246.603C239.906 246.577 239.893 246.543 239.891 246.508C239.89 246.473 239.9 246.438 239.921 246.409C239.942 246.381 239.973 246.361 240.007 246.352Z" fill="#475B9D"/>
<path d="M238.344 247.541C240.728 246.873 243.688 247.04 245.692 248.623C245.772 248.683 245.692 248.79 245.605 248.777C243.231 248.209 240.804 247.895 238.364 247.842C238.328 247.837 238.296 247.82 238.272 247.795C238.247 247.769 238.233 247.735 238.23 247.7C238.228 247.664 238.238 247.629 238.259 247.6C238.279 247.571 238.309 247.551 238.344 247.541Z" fill="#475B9D"/>
<path d="M238.437 238.71C239.285 237.328 241.109 237.782 242.185 238.55C244.007 239.911 245.442 241.726 246.346 243.814C246.346 243.861 246.346 243.894 246.293 243.907C246.293 244.088 246.152 244.295 245.939 244.235C243.881 243.654 241.603 243.279 239.786 242.077C238.724 241.382 237.629 240.026 238.437 238.71ZM243 242.718C244.002 243.032 245.004 243.293 246.012 243.64C245.197 242.618 244.429 241.563 243.514 240.621C243.078 240.16 242.611 239.73 242.118 239.332C241.35 238.737 238.384 237.561 239.018 240.187C239.372 241.623 241.797 242.338 243 242.712V242.718Z" fill="#475B9D"/>
<path d="M252.452 242.705C250.521 243.707 248.223 243.84 246.112 244.215C245.899 244.255 245.765 244.028 245.792 243.847C245.782 243.844 245.774 243.839 245.767 243.833C245.76 243.827 245.754 243.819 245.75 243.81C245.746 243.801 245.744 243.791 245.745 243.781C245.745 243.772 245.747 243.762 245.752 243.754C246.862 241.769 248.475 240.11 250.428 238.944C251.583 238.276 253.434 238.029 254.142 239.492C254.85 240.955 253.581 242.117 252.452 242.705ZM253.414 240.908C254.315 238.363 251.243 239.225 250.414 239.746C249.885 240.091 249.378 240.47 248.898 240.881C247.923 241.733 246.991 242.634 246.106 243.58C247.128 243.333 248.163 243.179 249.198 242.972C250.428 242.752 252.919 242.297 253.414 240.908Z" fill="#475B9D"/>
<path d="M214.67 115.758C214.67 115.758 215.445 122.251 219.172 126.934C220.067 128.056 222.799 129.098 224.216 130.127C224.216 130.127 229.506 178.744 231.116 184.235C232.906 190.367 239.86 232.224 239.86 232.224L267.335 230.3C267.335 230.3 259.085 189.245 257.128 179.078C256.687 176.807 250.809 134.021 250.936 133.033C252.519 121.249 246.787 115.792 246.787 115.792L214.67 115.758Z" fill="#627AC5"/>
<path d="M235.912 116.473C236.447 118.326 237.579 119.951 239.132 121.095C240.845 122.315 242.876 123.011 244.977 123.099C245.331 123.099 245.358 123.661 244.977 123.667C240.688 123.667 236.353 120.949 235.725 116.5C235.725 116.399 235.852 116.379 235.912 116.473Z" fill="#46588E"/>
<path d="M218.664 126.74C220.221 127.363 221.705 128.152 223.093 129.091C224.563 130 225.926 131.095 227.348 132.051C227.402 132.091 227.348 132.178 227.295 132.144C225.805 131.289 224.256 130.541 222.779 129.659C221.304 128.851 219.905 127.912 218.598 126.854C218.551 126.814 218.598 126.713 218.664 126.74Z" fill="#46588E"/>
<path d="M218.056 117.796C218.29 118.778 218.571 119.753 218.831 120.728C219.092 121.703 219.266 122.578 219.553 123.48C219.79 124.358 220.277 125.147 220.956 125.751C221.33 126.072 221.744 126.346 222.145 126.64L222.813 127.108C222.779 126.974 222.746 126.84 222.719 126.707C222.632 126.339 222.552 125.965 222.472 125.591C222.298 124.763 222.125 123.935 221.958 123.1C221.63 121.47 221.29 119.82 220.909 118.21C220.913 118.2 220.919 118.191 220.928 118.184C220.937 118.178 220.948 118.175 220.959 118.175C220.97 118.175 220.98 118.178 220.989 118.184C220.998 118.191 221.005 118.2 221.009 118.21C221.49 119.806 222.018 121.383 222.445 122.993C222.659 123.781 223.461 127.669 223.501 127.969C223.541 128.27 223.581 128.544 223.608 128.831C223.657 129.122 223.671 129.418 223.648 129.713C223.642 129.725 223.632 129.736 223.62 129.744C223.609 129.752 223.595 129.756 223.581 129.756C223.567 129.756 223.553 129.752 223.541 129.744C223.529 129.736 223.52 129.725 223.514 129.713C223.381 129.446 223.284 129.163 223.227 128.871C223.14 128.59 223.066 128.31 223 128.029L222.94 127.715C222.539 127.495 222.165 127.201 221.791 126.954C221.416 126.707 220.976 126.433 220.595 126.139C219.884 125.594 219.355 124.846 219.078 123.995C218.797 123.077 218.598 122.136 218.484 121.182C218.31 120.073 218.163 118.951 217.956 117.842C217.943 117.762 218.043 117.729 218.056 117.796Z" fill="#46588E"/>
<path d="M241.196 227.441C253.113 226.105 263.474 225.544 264.369 225.537C265.117 225.537 264.709 225.644 264.369 225.698C254.275 227.121 241.657 227.561 241.223 227.548C241.216 227.55 241.208 227.55 241.201 227.549C241.194 227.548 241.187 227.546 241.181 227.542C241.175 227.538 241.169 227.533 241.165 227.527C241.161 227.522 241.158 227.515 241.156 227.508C241.154 227.501 241.154 227.494 241.155 227.486C241.156 227.479 241.158 227.472 241.162 227.466C241.166 227.46 241.171 227.455 241.176 227.45C241.182 227.446 241.189 227.443 241.196 227.441Z" fill="#46588E"/>
<path d="M215.331 102.452L213.093 120.915C213.093 120.915 243.08 120.648 250.501 119.947C250.501 119.947 243.621 85.6982 235.411 77.1945C231.31 72.946 226.62 73.3802 223.695 76.4931C222.953 77.2747 214.196 89.439 213.354 94.0281C212.626 98.0829 215.331 102.452 215.331 102.452Z" fill="#6D90FF"/>
<path d="M228.263 87.3749C228.011 87.2905 227.741 87.2766 227.482 87.3348C227.344 87.3859 227.224 87.4765 227.137 87.5953C227.05 87.7141 227.001 87.8558 226.994 88.0028C226.997 88.1024 226.974 88.2011 226.928 88.2891C226.881 88.377 226.811 88.4511 226.727 88.5038C226.638 88.5693 226.53 88.6045 226.419 88.604C226.293 88.604 226.172 88.6441 226.045 88.6775C226.3 88.7554 226.572 88.7554 226.827 88.6775C226.961 88.6237 227.076 88.5317 227.158 88.4129C227.24 88.2941 227.285 88.1538 227.288 88.0095C227.292 87.9098 227.32 87.8126 227.37 87.7264C227.42 87.6402 227.49 87.5677 227.575 87.5151C227.671 87.4607 227.779 87.4309 227.889 87.4283C228.016 87.4216 228.136 87.4083 228.263 87.3749Z" fill="white"/>
<path d="M221.417 111.857C221.165 111.773 220.894 111.759 220.635 111.817C220.498 111.868 220.379 111.959 220.293 112.078C220.208 112.197 220.159 112.339 220.154 112.485C220.155 112.584 220.132 112.682 220.085 112.77C220.038 112.857 219.97 112.932 219.887 112.986C219.792 113.045 219.684 113.08 219.573 113.086C219.453 113.086 219.326 113.126 219.205 113.16C219.46 113.238 219.732 113.238 219.987 113.16C220.124 113.101 220.241 113.003 220.323 112.878C220.405 112.753 220.448 112.607 220.448 112.458C220.448 112.36 220.474 112.263 220.524 112.177C220.573 112.092 220.643 112.021 220.728 111.971C220.826 111.913 220.936 111.881 221.049 111.877C221.172 111.877 221.294 111.87 221.417 111.857Z" fill="white"/>
<path d="M232.465 77.5687C232.716 77.6609 232.989 77.6726 233.247 77.6021C233.383 77.5424 233.5 77.4444 233.582 77.3199C233.663 77.1953 233.707 77.0497 233.708 76.9007C233.708 76.802 233.734 76.7052 233.783 76.6196C233.833 76.5341 233.903 76.4629 233.988 76.413C234.086 76.3552 234.196 76.323 234.309 76.3195H234.449L234.302 76.1992C234.166 76.1778 234.026 76.1892 233.895 76.2326C233.758 76.2848 233.64 76.3758 233.554 76.4946C233.469 76.6133 233.42 76.7545 233.414 76.9007C233.415 77.0008 233.391 77.0998 233.345 77.1884C233.298 77.2771 233.23 77.3527 233.147 77.4083C233.052 77.4674 232.944 77.5019 232.833 77.5085C232.709 77.5221 232.587 77.5422 232.465 77.5687Z" fill="white"/>
<path d="M237.97 97.6152C237.717 97.5343 237.448 97.5205 237.188 97.5751C237.051 97.627 236.931 97.7178 236.845 97.8364C236.758 97.9551 236.708 98.0964 236.701 98.2432C236.703 98.3436 236.68 98.4429 236.633 98.5318C236.586 98.6207 236.518 98.6961 236.433 98.7508C236.342 98.8108 236.236 98.8453 236.126 98.851L235.752 98.9178C236.003 99.0097 236.276 99.0213 236.534 98.9512C236.672 98.8946 236.79 98.7972 236.873 98.672C236.955 98.5468 236.997 98.3996 236.994 98.2498C236.997 98.151 237.025 98.0544 237.076 97.9692C237.126 97.8839 237.197 97.8127 237.282 97.7622C237.377 97.7054 237.485 97.6733 237.596 97.6687C237.723 97.662 237.856 97.6486 237.97 97.6152Z" fill="white"/>
<path d="M222.151 120.802H222.492C222.537 120.701 222.56 120.591 222.559 120.481C222.56 120.382 222.588 120.285 222.638 120.199C222.688 120.114 222.76 120.043 222.846 119.993C222.94 119.935 223.049 119.902 223.16 119.9C223.283 119.884 223.406 119.862 223.527 119.833C223.278 119.749 223.01 119.735 222.752 119.793C222.615 119.844 222.495 119.935 222.408 120.053C222.321 120.172 222.271 120.314 222.265 120.461C222.269 120.584 222.229 120.705 222.151 120.802Z" fill="white"/>
<path d="M230.548 107.976C230.296 107.892 230.026 107.878 229.766 107.936C229.629 107.986 229.509 108.077 229.423 108.196C229.338 108.315 229.29 108.457 229.285 108.604C229.285 108.704 229.26 108.802 229.212 108.889C229.165 108.977 229.095 109.051 229.011 109.105C228.921 109.168 228.814 109.203 228.704 109.205C228.584 109.205 228.457 109.245 228.337 109.279C228.589 109.355 228.859 109.355 229.112 109.279C229.245 109.224 229.36 109.132 229.442 109.013C229.523 108.895 229.569 108.755 229.573 108.611C229.576 108.511 229.604 108.414 229.654 108.328C229.705 108.241 229.775 108.169 229.86 108.116C229.956 108.062 230.064 108.032 230.174 108.029C230.301 108.043 230.421 108.029 230.548 107.976Z" fill="white"/>
<path d="M246.68 106.319C246.884 106.379 247.096 106.401 247.308 106.386C247.308 106.326 247.275 106.266 247.255 106.199C247.189 106.226 247.119 106.242 247.048 106.246C246.927 106.273 246.8 106.286 246.68 106.319Z" fill="white"/>
<path d="M243.868 110.187C243.616 110.103 243.346 110.089 243.087 110.147C242.949 110.198 242.831 110.289 242.745 110.408C242.659 110.527 242.611 110.669 242.606 110.815C242.607 110.914 242.583 111.012 242.537 111.1C242.49 111.187 242.422 111.262 242.338 111.316C242.245 111.378 242.136 111.413 242.024 111.416C241.904 111.416 241.777 111.456 241.657 111.49C241.912 111.568 242.184 111.568 242.439 111.49C242.576 111.431 242.693 111.333 242.774 111.208C242.856 111.083 242.9 110.937 242.9 110.788C242.9 110.69 242.926 110.593 242.975 110.507C243.024 110.422 243.095 110.35 243.18 110.301C243.277 110.242 243.388 110.212 243.501 110.214C243.614 110.234 243.741 110.22 243.868 110.187Z" fill="white"/>
<path d="M224.416 97.9159C224.164 97.8283 223.893 97.8144 223.634 97.8758C223.497 97.9272 223.378 98.0181 223.292 98.1369C223.207 98.2558 223.158 98.3974 223.153 98.5438C223.154 98.644 223.131 98.7429 223.084 98.8316C223.037 98.9202 222.969 98.9958 222.886 99.0515C222.791 99.1106 222.683 99.145 222.572 99.1517C222.452 99.1517 222.325 99.1918 222.204 99.2252C222.459 99.3031 222.731 99.3031 222.986 99.2252C223.123 99.1663 223.24 99.0684 223.322 98.9437C223.404 98.819 223.447 98.673 223.447 98.5238C223.447 98.4251 223.473 98.3283 223.523 98.2428C223.572 98.1572 223.642 98.086 223.727 98.0361C223.825 97.9783 223.935 97.9461 224.048 97.9426C224.171 97.9401 224.294 97.9312 224.416 97.9159Z" fill="white"/>
<path d="M232.706 83.5272C232.822 83.7655 233.003 83.9667 233.227 84.1084C233.364 84.1688 233.516 84.1872 233.663 84.161C233.811 84.1348 233.947 84.0653 234.055 83.9614C234.126 83.8907 234.213 83.8385 234.308 83.8094C234.404 83.7802 234.505 83.7751 234.603 83.7944C234.71 83.8173 234.809 83.868 234.89 83.9414C234.997 84.0149 235.091 84.0883 235.204 84.1551C235.057 83.9547 234.957 83.7076 234.67 83.5807C234.531 83.525 234.379 83.5118 234.232 83.5427C234.086 83.5736 233.952 83.6473 233.848 83.7543C233.776 83.8214 233.688 83.8693 233.592 83.8938C233.496 83.9183 233.396 83.9185 233.3 83.8946C233.193 83.8679 233.095 83.8151 233.013 83.741C232.915 83.6637 232.812 83.5923 232.706 83.5272Z" fill="white"/>
<path d="M213.521 97.6019C213.668 97.8023 213.768 98.0428 214.042 98.1764C214.178 98.2405 214.33 98.2614 214.478 98.2363C214.626 98.2112 214.763 98.1414 214.87 98.0361C214.982 97.928 215.132 97.8675 215.288 97.8675C215.443 97.8675 215.593 97.928 215.705 98.0361L216.019 98.2499C215.904 98.0102 215.72 97.8101 215.491 97.6754C215.353 97.6198 215.202 97.606 215.055 97.6356C214.909 97.6653 214.775 97.7372 214.67 97.8424C214.599 97.9117 214.511 97.9615 214.415 97.9872C214.319 98.013 214.218 98.0137 214.122 97.9894C214.014 97.9607 213.916 97.9056 213.835 97.829C213.728 97.7422 213.634 97.662 213.521 97.6019Z" fill="white"/>
<path d="M226.5 78.584C226.415 78.836 226.402 79.1062 226.46 79.3655C226.51 79.5032 226.601 79.6226 226.72 79.7083C226.839 79.7941 226.981 79.8422 227.128 79.8465C227.228 79.8464 227.326 79.8715 227.413 79.9194C227.501 79.9672 227.575 80.0364 227.629 80.1204C227.692 80.2108 227.726 80.3176 227.729 80.4277C227.729 80.5479 227.769 80.6748 227.802 80.7951C227.88 80.5404 227.88 80.2682 227.802 80.0135C227.747 79.8813 227.654 79.7681 227.536 79.6874C227.417 79.6068 227.278 79.5623 227.134 79.5593C227.035 79.5562 226.937 79.5283 226.851 79.4782C226.765 79.428 226.692 79.3572 226.64 79.272C226.586 79.1761 226.556 79.0683 226.553 78.9581C226.54 78.8178 226.5 78.6975 226.5 78.584Z" fill="white"/>
<path d="M229.439 100.327C229.355 100.577 229.341 100.845 229.399 101.102C229.45 101.24 229.541 101.36 229.66 101.447C229.779 101.534 229.92 101.583 230.067 101.59C230.167 101.588 230.265 101.611 230.353 101.658C230.44 101.705 230.515 101.773 230.568 101.857C230.633 101.947 230.668 102.054 230.668 102.164C230.668 102.291 230.709 102.412 230.742 102.538C230.831 102.287 230.842 102.015 230.775 101.757C230.716 101.62 230.619 101.503 230.494 101.421C230.369 101.339 230.223 101.296 230.074 101.296C229.975 101.296 229.877 101.269 229.791 101.218C229.706 101.168 229.635 101.096 229.586 101.009C229.528 100.914 229.495 100.806 229.493 100.695C229.486 100.575 229.473 100.448 229.439 100.327Z" fill="white"/>
<path d="M214.108 116.513C214.024 116.765 214.01 117.035 214.068 117.295C214.12 117.432 214.211 117.551 214.329 117.636C214.448 117.722 214.59 117.77 214.736 117.776C214.836 117.774 214.934 117.797 215.022 117.844C215.109 117.891 215.184 117.959 215.237 118.043C215.302 118.135 215.337 118.244 215.338 118.357C215.338 118.477 215.378 118.604 215.411 118.724C215.485 118.469 215.485 118.198 215.411 117.943C215.354 117.811 215.261 117.698 215.143 117.617C215.025 117.535 214.886 117.488 214.743 117.482C214.644 117.481 214.546 117.454 214.46 117.405C214.373 117.356 214.301 117.286 214.249 117.201C214.193 117.103 214.163 116.993 214.162 116.88C214.155 116.76 214.142 116.66 214.108 116.513Z" fill="white"/>
<path d="M241.43 101.102C241.349 101.355 241.335 101.624 241.39 101.884C241.441 102.021 241.532 102.14 241.651 102.226C241.77 102.311 241.911 102.36 242.058 102.365C242.158 102.365 242.257 102.39 242.346 102.438C242.435 102.485 242.51 102.555 242.565 102.639C242.625 102.73 242.66 102.837 242.666 102.946C242.666 103.066 242.666 103.193 242.732 103.32C242.813 103.066 242.813 102.793 242.732 102.538C242.677 102.406 242.585 102.291 242.466 102.21C242.348 102.128 242.208 102.082 242.064 102.078C241.965 102.075 241.869 102.047 241.784 101.996C241.698 101.946 241.627 101.875 241.577 101.79C241.52 101.695 241.488 101.587 241.483 101.476C241.476 101.349 241.463 101.229 241.43 101.102Z" fill="white"/>
<path d="M235.565 88.5105C235.478 88.7619 235.462 89.0322 235.518 89.2921C235.571 89.4291 235.662 89.548 235.78 89.6345C235.899 89.721 236.04 89.7714 236.186 89.7797C236.286 89.7772 236.386 89.8004 236.475 89.8472C236.564 89.8939 236.639 89.9627 236.694 90.0469C236.754 90.1387 236.788 90.2447 236.794 90.3542C236.794 90.4811 236.834 90.6014 236.867 90.7283C236.945 90.4736 236.945 90.2014 236.867 89.9467C236.813 89.8133 236.721 89.6986 236.602 89.6167C236.483 89.5349 236.343 89.4894 236.199 89.4858C236.1 89.4828 236.004 89.4549 235.919 89.4047C235.833 89.3545 235.762 89.2836 235.712 89.1985C235.655 89.1033 235.623 88.9954 235.618 88.8846C235.607 88.759 235.589 88.6342 235.565 88.5105Z" fill="white"/>
<path d="M218.397 91.1492C218.313 91.4012 218.299 91.6714 218.357 91.9307C218.408 92.0684 218.498 92.1878 218.618 92.2735C218.737 92.3592 218.879 92.4074 219.025 92.4117C219.125 92.411 219.224 92.4358 219.311 92.4837C219.399 92.5316 219.473 92.6011 219.526 92.6856C219.589 92.776 219.624 92.8828 219.626 92.9929C219.626 93.1131 219.666 93.24 219.7 93.3602C219.778 93.1055 219.778 92.8334 219.7 92.5787C219.644 92.4465 219.552 92.3332 219.433 92.2526C219.315 92.172 219.175 92.1275 219.032 92.1245C218.932 92.1208 218.835 92.0927 218.749 92.0426C218.663 91.9925 218.59 91.922 218.538 91.8372C218.483 91.7413 218.453 91.6335 218.451 91.5232C218.444 91.3963 218.431 91.2761 218.397 91.1492Z" fill="white"/>
<path d="M234.262 113.18C234.178 113.432 234.164 113.702 234.222 113.961C234.273 114.098 234.364 114.217 234.483 114.303C234.602 114.389 234.744 114.437 234.89 114.442C234.989 114.441 235.087 114.465 235.175 114.511C235.262 114.558 235.337 114.626 235.391 114.709C235.453 114.803 235.488 114.911 235.491 115.023C235.491 115.144 235.531 115.271 235.565 115.391C235.643 115.136 235.643 114.864 235.565 114.609C235.508 114.477 235.415 114.364 235.297 114.282C235.179 114.201 235.04 114.154 234.897 114.148C234.797 114.148 234.699 114.123 234.612 114.073C234.526 114.024 234.453 113.953 234.402 113.868C234.347 113.77 234.317 113.66 234.315 113.547C234.309 113.427 234.295 113.32 234.262 113.18Z" fill="white"/>
<path d="M239.86 116.513C239.782 116.779 239.782 117.062 239.86 117.328C239.912 117.465 240.003 117.583 240.122 117.669C240.241 117.754 240.382 117.803 240.528 117.809C240.628 117.808 240.727 117.831 240.816 117.878C240.904 117.925 240.98 117.993 241.036 118.076C241.095 118.171 241.129 118.279 241.136 118.39C241.152 118.514 241.174 118.636 241.203 118.758C241.284 118.503 241.284 118.23 241.203 117.976C241.145 117.844 241.053 117.732 240.935 117.65C240.816 117.569 240.678 117.522 240.535 117.515C240.436 117.515 240.339 117.489 240.254 117.439C240.168 117.39 240.097 117.32 240.047 117.235C239.989 117.137 239.957 117.027 239.954 116.914C239.927 116.76 239.913 116.66 239.86 116.513Z" fill="white"/>
<path d="M221.557 84.1484C221.445 83.9072 221.263 83.7048 221.036 83.5673C220.9 83.5041 220.748 83.4837 220.6 83.5088C220.452 83.5338 220.315 83.6031 220.207 83.7075C220.095 83.8157 219.946 83.8762 219.79 83.8762C219.634 83.8762 219.484 83.8157 219.372 83.7075C219.265 83.6407 219.172 83.5606 219.058 83.4938C219.175 83.7344 219.361 83.9346 219.593 84.0683C219.73 84.1251 219.881 84.1396 220.026 84.1098C220.171 84.0801 220.304 84.0074 220.408 83.9013C220.48 83.832 220.569 83.7822 220.666 83.7565C220.763 83.7308 220.865 83.73 220.962 83.7543C221.07 83.783 221.168 83.8381 221.249 83.9146C221.35 84.0015 221.45 84.0816 221.557 84.1484Z" fill="white"/>
<path d="M231.35 93.9948C231.238 93.7535 231.056 93.5511 230.829 93.4136C230.693 93.3504 230.541 93.33 230.393 93.3551C230.245 93.3801 230.108 93.4494 230 93.5539C229.888 93.662 229.739 93.7225 229.583 93.7225C229.427 93.7225 229.277 93.662 229.165 93.5539C229.058 93.4871 228.965 93.4069 228.851 93.3401C228.966 93.5822 229.152 93.7829 229.386 93.9146C229.523 93.9714 229.674 93.9859 229.819 93.9561C229.964 93.9264 230.097 93.8537 230.201 93.7476C230.272 93.6783 230.359 93.6285 230.455 93.6027C230.551 93.577 230.652 93.5763 230.748 93.6006C230.858 93.6282 230.96 93.6834 231.042 93.7609C231.143 93.8478 231.243 93.948 231.35 93.9948Z" fill="white"/>
<path d="M238.137 107.355C238.018 107.118 237.838 106.917 237.616 106.774C237.479 106.711 237.328 106.692 237.18 106.717C237.032 106.742 236.896 106.81 236.787 106.914C236.718 106.987 236.631 107.04 236.535 107.07C236.439 107.099 236.338 107.103 236.24 107.081C236.131 107.057 236.03 107.007 235.946 106.934C235.845 106.867 235.745 106.787 235.638 106.727C235.779 106.927 235.879 107.174 236.166 107.295C236.304 107.351 236.456 107.365 236.602 107.336C236.749 107.306 236.883 107.234 236.988 107.128C237.059 107.058 237.147 107.009 237.242 106.983C237.338 106.957 237.439 106.956 237.536 106.981C237.643 107.009 237.742 107.065 237.823 107.141C237.93 107.215 238.023 107.308 238.137 107.355Z" fill="white"/>
<path d="M222.078 105.972C221.957 105.737 221.778 105.536 221.557 105.391C221.42 105.33 221.268 105.311 221.12 105.337C220.972 105.363 220.836 105.433 220.728 105.538C220.657 105.608 220.57 105.66 220.475 105.689C220.38 105.718 220.279 105.724 220.181 105.705C220.072 105.681 219.971 105.631 219.887 105.558C219.788 105.481 219.686 105.409 219.579 105.344C219.694 105.584 219.878 105.784 220.107 105.919C220.246 105.974 220.398 105.988 220.544 105.957C220.691 105.926 220.824 105.852 220.929 105.745C221 105.676 221.088 105.627 221.184 105.603C221.28 105.578 221.381 105.579 221.476 105.605C221.583 105.631 221.682 105.684 221.764 105.758C221.864 105.836 221.969 105.907 222.078 105.972Z" fill="white"/>
<path d="M228.237 115.705C228.12 115.466 227.94 115.265 227.716 115.124C227.579 115.063 227.427 115.045 227.279 115.071C227.132 115.097 226.995 115.167 226.887 115.27C226.818 115.343 226.731 115.396 226.635 115.425C226.539 115.454 226.438 115.459 226.34 115.437C226.233 115.415 226.134 115.364 226.052 115.291C225.946 115.217 225.852 115.144 225.738 115.077C225.855 115.317 226.041 115.518 226.273 115.651C226.412 115.707 226.564 115.72 226.71 115.689C226.856 115.658 226.99 115.585 227.095 115.478C227.167 115.411 227.255 115.363 227.351 115.338C227.446 115.314 227.547 115.313 227.642 115.337C227.751 115.364 227.85 115.42 227.93 115.498C228.03 115.564 228.13 115.645 228.237 115.705Z" fill="white"/>
<path d="M247.642 113.781C247.782 113.988 247.889 114.235 248.177 114.355C248.313 114.412 248.464 114.427 248.61 114.397C248.755 114.367 248.888 114.295 248.991 114.188C249.052 114.127 249.128 114.084 249.212 114.061C249.212 113.975 249.165 113.881 249.145 113.788C249.013 113.818 248.891 113.883 248.791 113.975C248.722 114.048 248.636 114.102 248.539 114.131C248.443 114.161 248.341 114.164 248.243 114.142C248.136 114.12 248.036 114.069 247.956 113.995C247.876 113.928 247.756 113.848 247.642 113.781Z" fill="white"/>
<path d="M243.347 94.3087C243.228 94.0703 243.045 93.8693 242.819 93.7275C242.683 93.6653 242.531 93.6454 242.384 93.6704C242.236 93.6954 242.099 93.7642 241.991 93.8678C241.922 93.9411 241.836 93.9951 241.74 94.0244C241.643 94.0537 241.541 94.0573 241.443 94.0348C241.336 94.012 241.237 93.9613 241.156 93.8878C241.049 93.821 240.956 93.7409 240.842 93.6741C240.989 93.8812 241.089 94.1283 241.377 94.2486C241.515 94.3051 241.666 94.3194 241.813 94.2896C241.959 94.2599 242.093 94.1875 242.198 94.0816C242.269 94.0123 242.357 93.9625 242.453 93.9367C242.549 93.911 242.65 93.9103 242.746 93.9346C242.854 93.9633 242.952 94.0184 243.033 94.0949C243.134 94.1715 243.239 94.2429 243.347 94.3087Z" fill="white"/>
<path d="M214.162 112.285C214.456 110.595 214.67 109.272 214.917 107.609C215.164 105.945 215.418 104.222 215.638 102.525V102.412L215.565 102.305C214.717 101.015 214.108 99.5824 213.768 98.0763C213.59 97.3303 213.505 96.5653 213.514 95.7984C213.506 95.0326 213.609 94.2697 213.822 93.5339C214.285 92.0351 214.88 90.5799 215.598 89.1852C216.306 87.7757 216.888 86.5934 217.676 85.2173C217.809 85.0035 217.723 84.9568 217.602 85.1238C216.807 86.2527 215.939 87.7958 215.258 89.0049C214.446 90.3887 213.775 91.8499 213.254 93.3669C213.001 94.1505 212.87 94.9684 212.866 95.7917C212.85 96.6096 212.936 97.4263 213.12 98.2233C213.478 99.818 214.14 101.329 215.071 102.672L215.017 102.452C214.824 104.155 214.663 105.858 214.503 107.562C214.349 109.092 214.176 110.748 214.069 112.285C214.069 112.425 214.062 112.906 214.162 112.285Z" fill="#3952A0"/>
<path d="M216.239 86.4865C215.914 86.9862 215.647 87.522 215.444 88.083C215.34 88.3616 215.255 88.6473 215.191 88.938C215.114 89.2303 215.073 89.5309 215.07 89.8331C215.324 89.2854 215.558 88.751 215.738 88.1965C215.957 87.6429 216.124 87.0705 216.239 86.4865Z" fill="#3952A0"/>
<path d="M233.975 81.049C236.413 84.7297 247.936 99.2186 248.364 100.608C248.791 101.997 246.179 104.883 246.206 105.451C246.306 107.756 252.111 121.637 254.168 120.147C256.84 118.217 266.533 106.039 265.244 99.6194C263.955 93.1999 239.192 77.1946 235.117 75.6916C231.042 74.1886 231.57 77.4218 233.975 81.049Z" fill="#D4A29E"/>
<path d="M243.334 125.144C241.771 123.667 244.409 122.672 244.409 122.672C244.409 122.672 240.268 123.193 239.245 121.049C238.223 118.904 241.497 117.889 241.724 117.802C241.503 117.802 237.716 118.21 236.887 115.945C236.059 113.681 239.479 113.059 239.7 113.026C239.486 112.979 236.66 112.391 236.44 110.534C236.066 107.348 244.296 108.337 246.366 106.767C246.366 106.767 246.233 102.612 246.193 102.492C246.575 103.48 247.282 104.309 248.197 104.843C249.887 105.638 251.43 106.179 252.011 107.154C252.284 107.58 252.412 108.082 252.377 108.586C252.342 109.09 252.146 109.569 251.817 109.953C251.817 109.953 254.095 110.067 254.783 111.824C255.137 112.732 254.002 114.095 254.002 114.095C254.515 114.147 255.005 114.339 255.416 114.652C255.828 114.964 256.145 115.384 256.333 115.865C256.747 117.141 255.545 118.31 255.545 118.31C255.545 118.31 257.228 119.279 257.228 120.721C257.228 123.634 246.68 128.303 243.334 125.144Z" fill="#D4A29E"/>
<path d="M255.378 118.53C255.378 118.53 255.444 118.53 255.378 118.577C252.182 121.057 248.308 122.509 244.269 122.739C244.142 122.739 244.082 122.538 244.222 122.505C248.114 121.729 251.872 120.39 255.378 118.53Z" fill="#C18C88"/>
<path d="M254.055 114.095C254.095 114.095 254.129 114.135 254.095 114.168C250.533 116.873 246.122 118.217 241.657 117.956C241.497 117.956 241.37 117.769 241.55 117.776C244.59 117.809 250.789 115.885 254.055 114.095Z" fill="#C18C88"/>
<path d="M239.392 112.886C243.761 113.1 247.756 111.897 251.684 110.067C251.737 110.067 251.764 110.114 251.73 110.147C250.054 111.57 247.428 112.472 245.324 113.006C243.382 113.535 241.334 113.546 239.386 113.039C239.312 113.019 239.299 112.879 239.392 112.886Z" fill="#C18C88"/>
<path d="M255.658 118.323C256.068 118.021 256.386 117.611 256.578 117.14C256.77 116.669 256.828 116.154 256.747 115.651C256.621 115.156 256.317 114.726 255.892 114.442C255.384 114.17 254.818 114.024 254.242 114.015C254.627 113.624 254.885 113.126 254.981 112.586C255.078 112.045 255.009 111.489 254.783 110.989C254.521 110.545 254.097 110.22 253.601 110.08C253.027 109.933 252.436 109.861 251.844 109.866C252.132 109.622 252.358 109.313 252.506 108.965C252.653 108.617 252.717 108.239 252.692 107.862C252.652 107.449 252.513 107.052 252.287 106.703C252.062 106.355 251.757 106.065 251.396 105.858C250.552 105.387 249.655 105.017 248.724 104.756C248.256 104.602 247.808 104.393 247.388 104.135C246.942 103.826 246.594 103.395 246.386 102.893C246.346 102.806 246.34 102.893 246.386 102.966C246.518 103.308 246.706 103.626 246.941 103.908C247.19 104.203 247.477 104.464 247.796 104.683C248.599 105.148 249.436 105.55 250.301 105.885C251.052 106.224 251.671 106.798 252.064 107.522C252.234 107.9 252.295 108.317 252.241 108.728C252.187 109.138 252.019 109.526 251.757 109.846C251.751 109.855 251.748 109.865 251.747 109.876C251.746 109.887 251.749 109.897 251.753 109.907C251.758 109.916 251.765 109.924 251.774 109.93C251.783 109.936 251.793 109.939 251.804 109.94C252.331 110.016 252.845 110.162 253.334 110.374C253.74 110.553 254.083 110.851 254.316 111.229C254.514 111.688 254.589 112.192 254.531 112.689C254.474 113.186 254.287 113.66 253.988 114.061C254.544 114.191 255.074 114.417 255.551 114.729C255.866 114.984 256.098 115.326 256.219 115.711C256.352 116.149 256.36 116.614 256.242 117.056C256.124 117.497 255.885 117.897 255.551 118.21C255.55 118.221 255.55 118.232 255.551 118.243C255.551 118.243 255.551 118.243 255.551 118.277C255.551 118.277 256.079 118.604 256.113 118.611C256.146 118.617 256.113 118.611 256.113 118.611C255.969 118.503 255.817 118.407 255.658 118.323Z" fill="#C18C88"/>
<path d="M240.227 89.9868L250.441 84.3288C250.441 84.3288 240.033 77.4217 235.197 75.4378C230.361 73.4538 230.254 78.1365 240.227 89.9868Z" fill="#3952A0"/>
<path d="M230.101 73.1999C231.724 73.8679 232.178 75.0302 231.67 76.3929C231.109 77.9227 226.413 80.8953 224.463 79.8933C222.779 79.0249 224.236 74.9968 225.131 74.0883C225.807 73.5148 226.623 73.1304 227.496 72.9744C228.369 72.8183 229.267 72.8961 230.101 73.1999Z" fill="#3952A0"/>
<path d="M231.176 76.0389C230.929 76.5934 227.435 79.8064 224.816 79.1652C223.961 78.9514 224.903 74.2487 224.903 74.2487V73.8813L224.77 68.7978L231.176 66.2461L232.098 65.9254C232.098 65.9254 232.044 67.3148 231.957 69.0516C231.957 69.1318 231.957 69.212 231.957 69.2988C231.957 69.3857 231.957 69.4859 231.957 69.5794C231.957 69.8399 231.957 70.1071 231.924 70.3676C231.891 70.6281 231.924 70.7617 231.877 70.9755C231.83 71.1893 231.877 71.3897 231.83 71.6034C231.716 73.0954 231.497 74.5775 231.176 76.0389Z" fill="#D4A29E"/>
<path d="M231.984 69.0516C231.227 70.3282 230.201 71.4242 228.977 72.263C227.753 73.1018 226.36 73.6632 224.897 73.908L224.763 68.8245L231.176 66.2461L232.098 65.9254C232.098 65.9254 232.071 67.3148 231.984 69.0516Z" fill="#C18C88"/>
<path d="M218.811 60.942C217.535 69.7797 222.679 71.5365 224.589 71.8104C226.319 72.0576 232.238 72.6855 234.422 64.0282C236.607 55.3709 232.899 52.0042 228.971 51.2093C225.044 50.4144 220.087 52.1044 218.811 60.942Z" fill="#D4A29E"/>
<path d="M221.156 58.5052L221.161 58.498L221.156 58.5052Z" fill="#2F2E41" stroke="#3A3532"/>
<mask id="path-129-inside-1" fill="white">
<path d="M227.088 59.9134C226.893 59.8521 226.701 59.7807 226.513 59.6996C226.298 59.654 226.103 59.539 225.959 59.3723C225.926 59.3099 225.914 59.2384 225.925 59.1686C225.935 59.0987 225.969 59.0343 226.019 58.9849C226.134 58.904 226.268 58.8552 226.408 58.8435C226.547 58.8317 226.688 58.8575 226.814 58.918C227.092 58.9988 227.33 59.1797 227.482 59.4257C227.513 59.4847 227.527 59.5517 227.52 59.6182C227.514 59.6847 227.488 59.7479 227.446 59.7999C227.404 59.8519 227.348 59.8903 227.284 59.9105C227.22 59.9307 227.152 59.9317 227.088 59.9134Z"/>
</mask>
<path d="M227.088 59.9134C226.893 59.8521 226.701 59.7807 226.513 59.6996C226.298 59.654 226.103 59.539 225.959 59.3723C225.926 59.3099 225.914 59.2384 225.925 59.1686C225.935 59.0987 225.969 59.0343 226.019 58.9849C226.134 58.904 226.268 58.8552 226.408 58.8435C226.547 58.8317 226.688 58.8575 226.814 58.918C227.092 58.9988 227.33 59.1797 227.482 59.4257C227.513 59.4847 227.527 59.5517 227.52 59.6182C227.514 59.6847 227.488 59.7479 227.446 59.7999C227.404 59.8519 227.348 59.8903 227.284 59.9105C227.22 59.9307 227.152 59.9317 227.088 59.9134Z" fill="#2F2E41"/>
<path d="M227.088 59.9134L226.814 60.8751L226.801 60.8714L226.788 60.8673L227.088 59.9134ZM226.513 59.6996L226.72 58.7213L226.818 58.742L226.91 58.7816L226.513 59.6996ZM225.959 59.3723L225.202 60.0261L225.129 59.9409L225.076 59.8413L225.959 59.3723ZM226.019 58.9849L225.32 58.2702L225.377 58.214L225.443 58.1677L226.019 58.9849ZM226.814 58.918L226.535 59.8783L226.456 59.8554L226.382 59.8199L226.814 58.918ZM227.482 59.4257L228.333 58.8998L228.35 58.9274L228.365 58.9561L227.482 59.4257ZM226.788 60.8673C226.56 60.7957 226.336 60.7123 226.117 60.6176L226.91 58.7816C227.066 58.8491 227.226 58.9084 227.388 58.9594L226.788 60.8673ZM226.307 60.678C225.877 60.5871 225.489 60.3582 225.202 60.0261L226.716 58.7184C226.717 58.7199 226.719 58.7209 226.72 58.7213L226.307 60.678ZM225.076 59.8413C224.941 59.5882 224.893 59.2984 224.936 59.0152L226.913 59.3219C226.935 59.1784 226.91 59.0315 226.842 58.9033L225.076 59.8413ZM224.936 59.0152C224.98 58.732 225.115 58.4707 225.32 58.2702L226.719 59.6995C226.822 59.5979 226.891 59.4655 226.913 59.3219L224.936 59.0152ZM225.443 58.1677C225.703 57.9843 226.007 57.8736 226.324 57.847L226.491 59.84C226.529 59.8368 226.565 59.8237 226.596 59.802L225.443 58.1677ZM226.324 57.847C226.641 57.8203 226.959 57.8787 227.246 58.0162L226.382 59.8199C226.416 59.8362 226.454 59.8431 226.491 59.84L226.324 57.847ZM227.093 57.9578C227.609 58.1076 228.05 58.4432 228.333 58.8998L226.632 59.9517C226.61 59.9161 226.575 59.89 226.535 59.8783L227.093 57.9578ZM228.365 58.9561C228.488 59.1883 228.541 59.4517 228.516 59.7135L226.525 59.5229C226.513 59.6516 226.538 59.7812 226.599 59.8954L228.365 58.9561ZM228.516 59.7135C228.491 59.9753 228.389 60.2239 228.224 60.4285L226.669 59.1713C226.587 59.2719 226.537 59.3942 226.525 59.5229L228.516 59.7135ZM228.224 60.4285C228.059 60.633 227.837 60.7844 227.586 60.8638L226.982 58.9572C226.859 58.9963 226.75 59.0707 226.669 59.1713L228.224 60.4285ZM227.586 60.8638C227.335 60.9432 227.067 60.9472 226.814 60.8751L227.362 58.9516C227.238 58.9162 227.106 58.9181 226.982 58.9572L227.586 60.8638Z" fill="#3A3532" mask="url(#path-129-inside-1)"/>
<path d="M225.926 61.3496C226.901 61.4431 226.654 63.387 225.745 63.3001C224.837 63.2133 225.111 61.2761 225.926 61.3496Z" fill="#131923"/>
<path d="M226.293 61.5033C226.453 61.6369 226.593 61.8507 226.794 61.8974C226.994 61.9442 227.235 61.7705 227.415 61.5969C227.368 61.9709 227.175 62.3316 226.747 62.3383C226.32 62.345 226.159 61.9776 226.079 61.5902C226.159 61.5434 226.233 61.4499 226.293 61.5033Z" fill="#131923"/>
<path d="M221.523 60.4946C220.562 60.3008 220.248 62.238 221.136 62.4184C222.024 62.5988 222.325 60.6549 221.523 60.4946Z" fill="#131923"/>
<path d="M221.096 60.548C220.929 60.6282 220.742 60.7885 220.561 60.7751C220.381 60.7618 220.221 60.5146 220.12 60.2942C220.047 60.6616 220.12 61.0624 220.454 61.196C220.788 61.3296 221.056 61.029 221.203 60.6749C221.203 60.6349 221.156 60.548 221.096 60.548Z" fill="#131923"/>
<path d="M222.552 64.2488C222.552 64.2488 222.305 65.1305 222.245 65.5848C222.245 65.6248 222.338 65.6583 222.479 65.6917C222.833 65.8079 223.213 65.8252 223.577 65.7416C223.94 65.658 224.274 65.4768 224.543 65.2174C224.549 65.2094 224.553 65.1993 224.554 65.1889C224.554 65.1784 224.551 65.1681 224.545 65.1596C224.539 65.1512 224.53 65.145 224.52 65.1422C224.51 65.1393 224.499 65.1399 224.489 65.1439C223.896 65.4385 223.224 65.5345 222.572 65.4178C222.572 65.2909 223.053 63.9215 222.986 63.9081C222.652 63.8903 222.318 63.9173 221.991 63.9883C222.458 62.1379 223.227 60.3744 223.661 58.524C223.661 58.5114 223.658 58.4989 223.651 58.4884C223.644 58.4779 223.634 58.4698 223.622 58.4654C223.61 58.4609 223.597 58.4603 223.585 58.4637C223.573 58.467 223.562 58.4741 223.554 58.4839C222.679 60.3459 221.992 62.2905 221.503 64.2889C221.456 64.4893 222.372 64.2955 222.552 64.2488Z" fill="#C18C88"/>
<path d="M234.429 63.3068C232.332 63.1599 232.605 59.86 232.605 59.86C232.605 59.86 230.241 59.4592 230.368 55.6115C229.845 56.3457 229.159 56.9487 228.364 57.3729C227.569 57.7972 226.686 58.0311 225.785 58.0564C225.117 58.1031 227.515 56.5133 227.515 56.5133C227.515 56.5133 224.583 58.7845 219.573 57.4485C219.219 57.355 220.047 51.4966 224.182 49.9802C228.317 48.4639 232.198 50.3276 234.449 53.033C234.449 53.033 237.268 54.6028 237.382 57.4017C237.495 60.2006 235.244 63.3603 234.429 63.3068Z" fill="#473F36"/>
<path d="M226.5 65.3242C227.037 65.355 227.571 65.2347 228.042 64.9769C228.514 64.7192 228.904 64.3343 229.167 63.8661C229.431 63.3979 229.558 62.8651 229.534 62.3282C229.51 61.7914 229.336 61.272 229.032 60.8292C228.727 60.3864 228.305 60.0378 227.812 59.8232C227.319 59.6086 226.776 59.5364 226.245 59.615C225.713 59.6935 225.214 59.9196 224.805 60.2676C224.395 60.6156 224.092 61.0714 223.928 61.5834C223.794 62.0008 223.757 62.4434 223.82 62.8774C223.884 63.3113 224.046 63.7248 224.294 64.0862C224.543 64.4476 224.871 64.7471 225.253 64.9617C225.636 65.1763 226.062 65.3003 226.5 65.3242ZM226.814 59.9802C227.332 60.0112 227.827 60.2032 228.231 60.5294C228.635 60.8556 228.926 61.2996 229.065 61.7996C229.204 62.2995 229.184 62.8304 229.007 63.3182C228.83 63.8059 228.505 64.2262 228.077 64.5202C227.649 64.8143 227.141 64.9676 226.622 64.9586C226.103 64.9496 225.6 64.7789 225.183 64.4702C224.766 64.1615 224.455 63.7303 224.295 63.2367C224.135 62.7431 224.133 62.2118 224.289 61.717C224.453 61.1897 224.787 60.7317 225.239 60.4149C225.691 60.0981 226.236 59.9405 226.787 59.9668L226.814 59.9802Z" fill="#6D90FF"/>
<path d="M219.98 64.1418C221.076 64.2086 222.138 63.1398 222.405 61.6635C222.539 60.9593 222.45 60.2308 222.151 59.5794C222.04 59.2915 221.857 59.0371 221.619 58.8409C221.381 58.6446 221.096 58.5133 220.792 58.4595C220.489 58.4058 220.176 58.4314 219.885 58.534C219.594 58.6366 219.335 58.8126 219.132 59.045C218.628 59.5542 218.297 60.2082 218.183 60.9154C217.909 62.4785 218.631 63.9147 219.793 64.1218C219.854 64.1351 219.917 64.1418 219.98 64.1418ZM220.581 58.7978H220.728C220.975 58.8536 221.204 58.9694 221.395 59.1348C221.586 59.3003 221.733 59.5103 221.824 59.7464C222.083 60.3266 222.158 60.9726 222.038 61.5967C221.797 62.9327 220.828 63.9147 219.873 63.741C218.918 63.5673 218.337 62.3382 218.577 60.9822C218.678 60.355 218.969 59.7742 219.412 59.3188C219.563 59.16 219.744 59.0336 219.945 58.9475C220.146 58.8613 220.363 58.8172 220.581 58.8178V58.7978Z" fill="#6D90FF"/>
<path d="M223.935 61.9308L224.229 61.6836C223.868 61.2427 222.959 60.5881 222.138 61.2026L222.365 61.5099C223.1 60.9555 223.901 61.884 223.935 61.9308Z" fill="#6D90FF"/>
<path d="M236.427 64.8833L236.794 64.7698C236.741 64.6028 236.246 63.0931 235.458 62.8059C234.67 62.5186 229.533 62.1379 229.312 62.0978V62.4852C230.795 62.6054 234.77 62.9595 235.364 63.1532C235.959 63.3469 236.293 64.4692 236.427 64.8833Z" fill="#6D90FF"/>
<path d="M232.919 64.5026C232.919 64.5026 235.023 61.8306 236.259 62.5988C237.495 63.367 235.792 67.3149 234.255 67.7825C234.063 67.8606 233.857 67.8984 233.65 67.8935C233.443 67.8886 233.239 67.8412 233.051 67.7541C232.863 67.667 232.695 67.5421 232.558 67.3873C232.42 67.2324 232.316 67.0509 232.251 66.854L232.919 64.5026Z" fill="#D4A29E"/>
<path d="M234.262 54.2287C233 53.2267 230.308 46.166 236.393 43.0598C242.479 39.9536 249.212 47.856 244.696 53.2935C241.657 56.9408 236.934 56.353 234.262 54.2287Z" fill="#473F36"/>
<path d="M31.4976 196.573C26.7013 186.713 18.3113 181.656 8.85905 184.449C-0.593147 187.241 -2.06274 200.434 4.99801 203.761C12.0588 207.087 19.1128 197.368 22.8403 195.37C26.5677 193.373 31.4976 196.573 31.4976 196.573Z" fill="#6D90FF"/>
<path d="M36.1203 222.805C36.1203 221.616 36.0468 220.427 36.0067 219.238C35.9199 216.867 35.8398 214.495 35.7529 212.124C35.5926 207.789 35.125 203.527 33.3281 199.525C31.741 195.899 29.0871 192.842 25.7196 190.761C24.4672 190.009 23.119 189.429 21.7116 189.038C20.4349 187.747 18.8102 186.856 17.0356 186.473C14.8358 186.027 12.5749 185.97 10.3556 186.306C10.2754 186.306 10.2754 186.446 10.3556 186.433C12.4621 186.166 14.6006 186.318 16.6481 186.88C17.5257 187.122 18.3763 187.454 19.1865 187.869C19.6949 188.144 20.1837 188.455 20.6494 188.797C18.7418 188.401 16.7713 188.419 14.8712 188.851C14.1866 189.02 13.5165 189.243 12.8672 189.519C12.3495 189.408 11.8198 189.363 11.2908 189.385C10.6008 189.409 9.91551 189.508 9.24668 189.679C7.87793 190.066 6.5679 190.637 5.35225 191.376C5.28545 191.416 5.35226 191.523 5.41906 191.483C6.61323 190.831 7.89258 190.35 9.21998 190.053C9.86173 189.907 10.5139 189.811 11.1705 189.766C11.531 189.746 11.8922 189.746 12.2527 189.766C9.5576 191.008 7.3914 193.167 6.14049 195.858C6.10709 195.932 6.22065 195.992 6.24737 195.918C6.99245 194.357 8.08055 192.985 9.43042 191.903C10.7803 190.822 12.357 190.059 14.0429 189.672C14.25 189.619 14.4638 189.592 14.6709 189.545C14.5974 189.853 14.6107 190.213 14.5706 190.501C14.5105 190.982 14.4304 191.456 14.3302 191.93C14.1378 192.908 13.8812 193.872 13.562 194.816C13.2413 195.772 12.8598 196.707 12.4197 197.615C11.9897 198.564 11.4517 199.461 10.8165 200.287C10.763 200.354 10.8699 200.434 10.9167 200.36C11.4845 199.472 12.1458 198.65 12.6669 197.688C13.1641 196.807 13.5929 195.89 13.9494 194.943C14.3098 193.981 14.5913 192.991 14.7911 191.984C14.898 191.456 14.9781 190.922 15.0382 190.38C15.105 190.06 15.1252 189.731 15.0984 189.405C16.2041 189.238 17.3269 189.215 18.4384 189.338C18.0175 191.69 17.5633 194.135 16.2473 196.179C16.2072 196.246 16.3208 196.312 16.3609 196.239C16.9772 195.164 17.5195 194.048 17.9841 192.899C18.4411 191.804 18.7446 190.65 18.8859 189.472C20.8372 189.734 22.7209 190.364 24.437 191.329C27.6679 193.21 30.2477 196.032 31.8317 199.419C33.4965 203.065 34.4271 207.003 34.5706 211.008C34.8845 216.045 34.9513 221.108 35.4523 226.132C35.4857 226.459 36.0068 226.573 36.0669 226.199C36.1933 225.072 36.2111 223.935 36.1203 222.805Z" fill="#41507E"/>
<path d="M25.0583 189.973C24.7419 189.59 24.3757 189.25 23.9694 188.964C23.5753 188.644 23.1745 188.33 22.7537 188.042C21.9212 187.474 21.0002 187.047 20.0283 186.78C20.0123 186.775 19.9953 186.778 19.9809 186.786C19.9664 186.794 19.9559 186.807 19.9514 186.823C19.947 186.839 19.9491 186.856 19.9572 186.871C19.9654 186.885 19.9789 186.896 19.9948 186.9C20.9692 187.154 21.8795 187.609 22.6668 188.236C23.0676 188.53 23.4484 188.844 23.8225 189.171C24.158 189.519 24.5272 189.832 24.9247 190.107C24.9334 190.115 24.9439 190.122 24.9553 190.127C24.9668 190.132 24.9791 190.134 24.9915 190.134C25.0039 190.134 25.0162 190.132 25.0276 190.127C25.0391 190.122 25.0495 190.115 25.0583 190.107C25.067 190.098 25.074 190.087 25.0787 190.076C25.0835 190.064 25.0859 190.052 25.0859 190.04C25.0859 190.027 25.0835 190.015 25.0787 190.004C25.074 189.992 25.067 189.982 25.0583 189.973Z" fill="#41507E"/>
<path d="M9.75428 193.547C8.96169 194.469 8.22766 195.439 7.55655 196.453C6.90173 197.476 6.35335 198.564 5.91995 199.699C5.91995 199.732 5.96003 199.753 5.98007 199.699C7.07734 197.555 8.3722 195.517 9.84781 193.614C9.90125 193.567 9.80772 193.48 9.75428 193.547Z" fill="#41507E"/>
<path d="M20.0884 192.571C19.9887 193.188 19.8068 193.787 19.5473 194.355C19.2851 194.903 18.9814 195.43 18.6388 195.932C18.6388 195.965 18.6388 195.998 18.6923 195.972C19.5185 195.02 20.048 193.847 20.2153 192.598C20.202 192.518 20.0884 192.491 20.0884 192.571Z" fill="#41507E"/>
<path d="M35.4522 196.82C35.4522 196.82 42.2391 188.29 55.3386 191.309C67.7968 194.188 73.5416 217.02 60.9565 219.752C48.3713 222.485 50.5891 201.356 46.0066 197.769C42.6599 195.13 37.8236 195.698 35.4522 196.82Z" fill="#6D90FF"/>
<path opacity="0.1" d="M35.4522 196.82C35.4522 196.82 42.2391 188.29 55.3386 191.309C67.7968 194.188 73.5416 217.02 60.9565 219.752C48.3713 222.485 50.5891 201.356 46.0066 197.769C42.6599 195.13 37.8236 195.698 35.4522 196.82Z" fill="black"/>
<path d="M65.4788 203.774C64.6339 203.029 63.7413 202.339 62.8068 201.71C61.9184 201.1 60.9494 200.616 59.9277 200.273C58.489 198.069 56.5476 196.237 54.2631 194.929C54.3922 194.923 54.5215 194.923 54.6505 194.929C55.3448 194.893 56.0405 194.893 56.7347 194.929C58.1322 195.015 59.5021 195.357 60.7761 195.938C60.8496 195.938 60.903 195.851 60.8295 195.825C59.5452 195.264 58.2002 194.854 56.8215 194.602C56.1466 194.484 55.4626 194.426 54.7775 194.428C54.4101 194.428 54.036 194.428 53.6753 194.495H53.4615C52.2597 193.892 50.9936 193.426 49.6873 193.106L50.048 193.012C50.6889 192.866 51.338 192.759 51.9919 192.692C53.296 192.541 54.6142 192.562 55.9131 192.752C55.9264 192.747 55.9381 192.739 55.9463 192.727C55.9546 192.716 55.959 192.702 55.959 192.688C55.959 192.674 55.9546 192.661 55.9463 192.649C55.9381 192.638 55.9264 192.629 55.9131 192.625C54.5989 192.468 53.2744 192.414 51.9518 192.465C50.8429 192.501 49.7401 192.644 48.6586 192.892C47.868 192.75 47.0693 192.659 46.2671 192.618C41.698 192.431 36.7214 194.135 33.9091 197.889C31.0969 201.643 30.5691 206.666 30.0481 211.195C29.2806 217.513 29.1129 223.89 29.5471 230.24C29.5471 230.614 30.1015 230.547 30.1149 230.193C30.2819 224.809 30.4756 219.425 30.99 214.054C31.2305 211.569 31.491 209.078 31.9051 206.613C32.2052 204.494 32.8128 202.43 33.7087 200.487C34.6854 198.503 36.2231 196.849 38.1309 195.731C40.051 194.633 42.1913 193.976 44.3967 193.807C46.3732 193.643 48.363 193.829 50.2751 194.355C50.2076 194.739 50.1963 195.13 50.2417 195.517C50.2832 196.003 50.3796 196.483 50.529 196.947C50.6729 197.386 50.8563 197.81 51.0767 198.216C51.3239 198.67 51.6245 199.071 51.8984 199.499C51.9385 199.572 52.052 199.499 51.9986 199.432C51.4443 198.658 51.0846 197.762 50.9498 196.82C50.8697 196.378 50.8161 195.932 50.7895 195.484C50.7895 195.143 50.7895 194.816 50.7895 194.469C52.8683 195.107 54.8081 196.131 56.5076 197.488C56.8282 197.748 57.1355 198.016 57.4361 198.296C57.0049 198.687 56.6315 199.136 56.3272 199.632C55.8784 200.287 55.4872 200.98 55.1582 201.703C54.5526 203.163 54.1459 204.697 53.9491 206.265C53.9491 206.346 54.0627 206.366 54.0694 206.265C54.3115 204.751 54.8156 203.291 55.559 201.95C55.9064 201.285 56.2946 200.643 56.7213 200.026C56.9418 199.712 57.1756 199.398 57.3893 199.098C57.5163 198.937 57.6632 198.77 57.7835 198.597C59.3297 200.129 60.5897 201.925 61.5042 203.901C60.8875 204.555 60.3719 205.298 59.9745 206.105C59.503 206.95 59.0923 207.827 58.7454 208.73C58.1104 210.476 57.5882 212.261 57.1823 214.074C57.1823 214.148 57.2891 214.175 57.3025 214.074C57.7 212.249 58.3238 210.481 59.1595 208.811C59.5514 207.987 59.9656 207.178 60.402 206.386C60.8549 205.646 61.2652 204.881 61.6311 204.094C62.5078 206.006 63.0155 208.066 63.1275 210.167C63.1275 210.247 63.2611 210.233 63.2544 210.167C63.0142 206.876 62.0077 203.687 60.3152 200.855C61.1101 201.195 61.9184 201.523 62.6866 201.937C63.6715 202.46 64.5871 203.104 65.412 203.854C65.4588 203.927 65.5122 203.827 65.4788 203.774Z" fill="#41507E"/>
<path d="M55.8733 204.261C55.4792 205.551 54.9848 206.807 54.6308 208.116C54.2679 209.369 54.0725 210.665 54.0496 211.97C54.0496 212.004 54.1097 212.004 54.1097 211.97C54.467 209.353 55.0961 206.781 55.9868 204.295C55.9908 204.287 55.9929 204.278 55.9931 204.27C55.9934 204.261 55.9917 204.252 55.9882 204.244C55.9847 204.236 55.9794 204.229 55.9728 204.223C55.9662 204.217 55.9584 204.213 55.95 204.21C55.9416 204.208 55.9327 204.207 55.924 204.209C55.9153 204.21 55.907 204.213 55.8997 204.218C55.8924 204.223 55.8862 204.229 55.8817 204.237C55.8771 204.244 55.8743 204.253 55.8733 204.261Z" fill="#41507E"/>
<path d="M64.1762 201.048C63.6612 200.553 63.076 200.137 62.4394 199.813C61.7933 199.517 61.1228 199.278 60.4354 199.098C60.3553 199.098 60.3285 199.205 60.4354 199.225C61.114 199.401 61.7656 199.669 62.3726 200.02C62.9909 200.341 63.5848 200.707 64.1495 201.115C64.157 201.115 64.1641 201.112 64.1702 201.108C64.1762 201.103 64.1809 201.097 64.1837 201.09C64.1864 201.083 64.1872 201.076 64.1859 201.068C64.1846 201.061 64.1812 201.054 64.1762 201.048Z" fill="#41507E"/>
<path d="M41.9186 185.417C41.9186 185.417 43.1744 170.093 54.5705 165.123C64.0828 160.975 69.5337 171.663 62.8069 178.21C57.3627 183.507 48.6387 181.115 41.9186 185.417Z" fill="#6D90FF"/>
<path opacity="0.1" d="M41.9186 185.417C41.9186 185.417 43.1744 170.093 54.5705 165.123C64.0828 160.975 69.5337 171.663 62.8069 178.21C57.3627 183.507 48.6387 181.115 41.9186 185.417Z" fill="black"/>
<path d="M60.696 168.096C58.9635 168.798 57.2729 169.598 55.6325 170.494C54.268 171.282 52.9539 172.154 51.698 173.106C51.8851 172.719 52.052 172.318 52.2391 171.937C52.5397 171.342 52.8536 170.768 53.2077 170.207C53.9094 169.047 54.7532 167.979 55.7194 167.027C55.7795 166.974 55.7194 166.88 55.6258 166.94C54.665 167.892 53.7826 168.92 52.9872 170.013C52.5929 170.57 52.2315 171.15 51.9051 171.75C51.5679 172.299 51.3093 172.893 51.1369 173.513L51.01 173.607C49.0205 175.201 47.1965 176.991 45.5658 178.951C45.5992 178.804 45.6326 178.65 45.6726 178.51C45.8864 177.762 46.1135 177.027 46.3406 176.286C46.8323 174.714 47.5238 173.212 48.3981 171.817C48.4449 171.75 48.3313 171.683 48.2912 171.757C47.3963 173.151 46.5994 174.607 45.9065 176.112C45.5901 176.849 45.3267 177.608 45.1182 178.383C44.9529 178.884 44.83 179.398 44.7508 179.92C44.2498 180.548 43.7622 181.182 43.3013 181.837C38.4115 188.804 35.9533 197.201 35.3654 205.651C35.1929 208.165 35.1506 210.687 35.2385 213.206C35.2569 215.745 35.4803 218.278 35.9065 220.781C35.9399 220.942 36.1871 220.895 36.1804 220.741C36.1269 218.523 35.8932 216.319 35.8531 214.101C35.813 211.883 35.8865 209.659 36.0668 207.421C36.4282 202.999 37.2613 198.627 38.5518 194.382C39.8825 190.034 41.8427 185.904 44.3701 182.124C44.8443 182.03 45.3253 181.897 45.7929 181.777L47.4763 181.322C48.5694 181.037 49.6321 180.645 50.6492 180.153C50.7227 180.12 50.6492 180.006 50.5824 180.047C49.5781 180.594 48.4901 180.97 47.3627 181.162C46.4742 181.336 45.5457 181.456 44.6506 181.656C45.4789 180.454 46.3696 179.294 47.3226 178.176C49.4942 178.374 51.6837 178.212 53.8022 177.695C54.9365 177.422 56.0521 177.076 57.1422 176.66C58.2845 176.219 59.3666 175.651 60.4822 175.183C60.569 175.15 60.4822 175.023 60.4354 175.07C58.3946 176.183 56.1666 176.912 53.8623 177.221C51.8275 177.547 49.7708 177.717 47.7101 177.729C48.525 176.8 49.36 175.898 50.2484 175.057C53.2411 172.211 56.8015 169.586 60.7427 168.223C60.8362 168.183 60.7694 168.096 60.696 168.096Z" fill="#41507E"/>
<path d="M51.4243 168.136C50.9121 168.784 50.4456 169.467 50.0282 170.18C49.6016 170.931 49.2653 171.729 49.0262 172.558C49.0262 172.558 49.0596 172.598 49.0663 172.558C49.447 171.803 49.7677 171.022 50.1551 170.274C50.5229 169.536 50.971 168.842 51.4911 168.203C51.5646 168.163 51.4844 168.096 51.4243 168.136Z" fill="#41507E"/>
<path d="M62.0187 173.24C61.2791 173.648 60.4974 173.975 59.6874 174.215C58.9063 174.484 58.11 174.707 57.3026 174.883V174.95C58.1416 174.86 58.9682 174.679 59.7675 174.409C60.557 174.113 61.3268 173.767 62.0721 173.373C62.1723 173.313 62.0922 173.199 62.0187 173.24Z" fill="#41507E"/>
<path d="M33.0606 182.658C32.9938 183.326 31.3371 177.094 21.7046 171.563C12.9538 166.546 2.51291 153.487 11.09 145.237C18.0172 138.577 36.2603 153.093 33.0606 182.658Z" fill="#6D90FF"/>
<path d="M39.694 218.363C39.5548 211.882 39.044 205.414 38.1643 198.991C37.411 193.087 36.0546 187.277 34.1162 181.65C33.4014 179.646 32.5798 177.642 31.6914 175.638C31.7417 174.874 31.7283 174.108 31.6513 173.346C31.6045 172.364 31.5177 171.383 31.4242 170.407C31.3306 169.432 31.2371 168.45 31.1169 167.475C30.9967 166.499 30.7962 165.524 30.7562 164.549C30.7562 164.462 30.6092 164.482 30.6359 164.549C30.8263 165.574 30.9402 166.613 30.9766 167.655C31.0501 168.597 31.1035 169.546 31.1369 170.494C31.1703 171.443 31.1369 172.391 31.1369 173.34C31.1369 173.68 31.1369 174.041 31.1035 174.409C30.195 172.491 29.2264 170.608 28.171 168.771C28.839 164.763 27.9773 160.601 27.1623 156.693C27.1623 156.62 27.0287 156.653 27.0421 156.733C27.4439 158.773 27.6564 160.846 27.6767 162.926C27.7168 164.562 27.6366 166.206 27.6299 167.842C27.4028 167.448 27.169 167.054 26.9619 166.666C25.7105 164.631 24.3746 162.638 22.9539 160.688C23.0666 159.74 23.0351 158.781 22.8604 157.842C22.7004 156.789 22.466 155.749 22.159 154.729C21.8517 153.707 21.491 152.725 21.0902 151.723C20.6894 150.721 20.1216 149.753 19.7141 148.737C19.7126 148.728 19.7091 148.72 19.7037 148.712C19.6984 148.705 19.6915 148.699 19.6834 148.694C19.6754 148.69 19.6665 148.688 19.6573 148.687C19.6482 148.687 19.6391 148.689 19.6308 148.692C19.6224 148.696 19.615 148.701 19.6091 148.708C19.6031 148.715 19.5989 148.724 19.5966 148.732C19.5943 148.741 19.5941 148.751 19.596 148.76C19.5978 148.768 19.6017 148.777 19.6073 148.784C20.1153 149.747 20.5184 150.761 20.8096 151.81C21.1294 152.794 21.3926 153.795 21.5979 154.809C21.805 155.818 21.972 156.813 22.1123 157.862C22.2058 158.53 22.2659 159.245 22.3794 159.926C20.3182 157.156 18.0661 154.534 15.6393 152.077C15.5792 152.017 15.4991 152.111 15.5525 152.164C19.2237 156.293 22.5021 160.754 25.3454 165.491C25.4522 165.671 25.5524 165.852 25.6526 166.032C25.1249 165.698 24.5171 165.431 24.0161 165.157C23.0809 164.636 22.1434 164.121 21.2038 163.614L18.4783 162.117C18.0107 161.857 17.5498 161.59 17.0755 161.349C16.5062 161.091 15.9588 160.788 15.4389 160.441C15.3655 160.387 15.292 160.501 15.3655 160.541C16.294 161.049 17.1156 161.81 18.0375 162.378C18.9593 162.946 19.8143 163.554 20.7562 164.088C22.4663 165.043 24.33 165.731 26.0134 166.72C27.1801 168.768 28.2601 170.864 29.2532 173.006C28.2334 172.351 27.1913 171.728 26.1269 171.135C25.4589 170.755 24.7909 170.374 24.0628 170.013C23.3754 169.694 22.7256 169.3 22.1256 168.837C22.1127 168.831 22.0983 168.829 22.0842 168.832C22.0702 168.835 22.0574 168.842 22.0477 168.852C22.038 168.863 22.0319 168.876 22.0303 168.89C22.0287 168.904 22.0317 168.919 22.0388 168.931C23.1596 169.94 24.4029 170.804 25.7395 171.503C26.9753 172.231 28.2311 172.926 29.5137 173.56C30.5491 175.811 31.4776 178.116 32.3059 180.454C36.3607 191.937 37.8503 204.128 38.5651 216.232C38.7722 219.846 38.8857 223.446 38.9258 227.067C38.9659 230.688 38.7855 234.281 38.7922 237.889C38.7922 237.995 38.9659 238.022 38.9792 237.889C39.4134 234.689 39.4936 231.436 39.6472 228.209C39.8009 224.983 39.7675 221.643 39.694 218.363Z" fill="#41507E"/>
<path d="M22.1924 166.373C20.4307 165.589 18.7196 164.697 17.0689 163.701C15.3958 162.756 13.7726 161.726 12.2058 160.614C12.2058 160.614 12.1524 160.614 12.1724 160.661C13.6549 161.853 15.2172 162.942 16.8484 163.921C18.5572 164.877 20.3242 165.725 22.139 166.459C22.2058 166.513 22.2659 166.406 22.1924 166.373Z" fill="#41507E"/>
<path d="M24.9847 153.4C24.8377 152.839 24.6641 152.291 24.4703 151.743C24.4748 151.739 24.4783 151.734 24.4807 151.728C24.4831 151.722 24.4844 151.716 24.4844 151.71C24.4844 151.704 24.4831 151.697 24.4807 151.692C24.4783 151.686 24.4748 151.681 24.4703 151.676C24.3501 151.369 24.2232 151.062 24.0963 150.755L24.0495 150.641L23.976 150.461C24.0094 150.568 24.0361 150.674 24.0695 150.781C24.082 150.84 24.0976 150.898 24.1163 150.955C24.756 153.098 25.2339 155.287 25.5458 157.501C25.5458 157.568 25.6661 157.568 25.6594 157.501C25.5646 156.116 25.3387 154.743 24.9847 153.4Z" fill="#41507E"/>
<path d="M49.8745 220.688L49.1865 228.837L47.0823 253.694H24.5373L22.4331 228.837L21.745 220.688H49.8745Z" fill="#405BB4"/>
<path d="M49.8745 220.688L49.1865 228.837H22.4331L21.745 220.688H49.8745Z" fill="#2A3B75"/>
<path d="M52.0853 225.237H19.5337V217.421H52.0853V225.237Z" fill="#405BB4"/>
<path d="M71.9464 46.1862H69.9273L70.1658 52.9748C70.1701 53.0658 70.1558 53.1567 70.1237 53.242C70.0916 53.3272 70.0424 53.405 69.9791 53.4706C69.9158 53.5361 69.8397 53.588 69.7556 53.623C69.6715 53.6581 69.5812 53.6755 69.4901 53.6743C69.3023 53.6744 69.1218 53.6015 68.9868 53.471C68.8518 53.3404 68.7729 53.1625 68.7667 52.9748L68.5282 46.1862H66.5171C66.3272 46.1842 66.1456 46.1084 66.0106 45.9749C65.8756 45.8414 65.7978 45.6606 65.7937 45.4708C65.7882 45.3795 65.8016 45.288 65.8333 45.2022C65.865 45.1165 65.9142 45.0382 65.9777 44.9724C66.0412 44.9066 66.1178 44.8548 66.2024 44.8201C66.287 44.7855 66.3779 44.7688 66.4694 44.7712H71.8987C72.0859 44.7731 72.2652 44.8467 72.3998 44.9768C72.5344 45.1069 72.6139 45.2837 72.6221 45.4708C72.6252 45.5622 72.6102 45.6534 72.5779 45.7391C72.5456 45.8247 72.4965 45.9031 72.4337 45.9696C72.3708 46.0362 72.2954 46.0896 72.2117 46.1268C72.1281 46.1639 72.0379 46.1841 71.9464 46.1862Z" fill="#3D354D"/>
<path d="M74.9828 52.9748L74.7204 45.4708C74.7149 45.3795 74.7284 45.288 74.7601 45.2022C74.7918 45.1165 74.8409 45.0382 74.9045 44.9724C74.968 44.9066 75.0445 44.8548 75.1292 44.8201C75.2138 44.7855 75.3047 44.7688 75.3961 44.7712C75.5855 44.7709 75.7678 44.8434 75.9053 44.9735C76.0429 45.1037 76.1252 45.2817 76.1354 45.4708L76.2387 48.5232H79.5377L79.4264 45.4708C79.4231 45.3797 79.4385 45.289 79.4716 45.2041C79.5046 45.1193 79.5548 45.0421 79.6188 44.9773C79.6828 44.9125 79.7594 44.8615 79.8439 44.8274C79.9284 44.7934 80.0189 44.7769 80.11 44.7792C80.2994 44.7789 80.4816 44.8513 80.6192 44.9815C80.7567 45.1116 80.8391 45.2896 80.8493 45.4787L81.1116 52.9827C81.1161 53.0751 81.1013 53.1674 81.0682 53.2538C81.0352 53.3401 80.9845 53.4187 80.9195 53.4844C80.8545 53.5502 80.7765 53.6017 80.6905 53.6358C80.6045 53.6699 80.5124 53.6857 80.42 53.6823C80.2322 53.6824 80.0518 53.6094 79.9168 53.4789C79.7818 53.3484 79.7028 53.1704 79.6966 52.9827L79.5933 49.9302H76.2944L76.4057 52.9827C76.409 53.0748 76.3934 53.1666 76.3599 53.2524C76.3264 53.3382 76.2757 53.4163 76.2109 53.4818C76.1461 53.5473 76.0687 53.5989 75.9832 53.6334C75.8978 53.6679 75.8062 53.6845 75.7141 53.6823C75.6195 53.6844 75.5254 53.6677 75.4373 53.6332C75.3491 53.5987 75.2687 53.547 75.2007 53.4812C75.1327 53.4154 75.0784 53.3368 75.041 53.2498C75.0036 53.1629 74.9838 53.0694 74.9828 52.9748Z" fill="#3D354D"/>
<path d="M83.1946 45.4708C83.189 45.3795 83.2025 45.288 83.2342 45.2022C83.2659 45.1165 83.3151 45.0382 83.3786 44.9724C83.4421 44.9066 83.5186 44.8548 83.6033 44.8201C83.6879 44.7855 83.7788 44.7688 83.8702 44.7712C84.0582 44.773 84.2385 44.8463 84.3744 44.9762C84.5102 45.1062 84.5915 45.283 84.6016 45.4708L84.8639 52.9748C84.8671 53.0662 84.8518 53.1573 84.8188 53.2426C84.7858 53.3279 84.7358 53.4056 84.6719 53.471C84.608 53.5364 84.5314 53.5881 84.4469 53.6231C84.3624 53.658 84.2717 53.6755 84.1803 53.6743C83.9911 53.6765 83.8086 53.6045 83.6719 53.4738C83.5352 53.343 83.4552 53.1639 83.4489 52.9748L83.1946 45.4708Z" fill="#3D354D"/>
<path d="M88.6399 52.9749C88.643 53.0642 88.6284 53.1534 88.5969 53.2371C88.5654 53.3208 88.5175 53.3974 88.4561 53.4625C88.3948 53.5276 88.3211 53.5798 88.2394 53.6162C88.1576 53.6525 88.0695 53.6723 87.9801 53.6744C87.7923 53.6745 87.6118 53.6016 87.4768 53.471C87.3418 53.3405 87.2629 53.1625 87.2567 52.9749L86.9944 45.59C86.9878 45.4781 87.0082 45.3663 87.0538 45.2639C87.0995 45.1616 87.169 45.0717 87.2567 45.0018C87.4075 44.8975 87.5928 44.8558 87.7737 44.8854C87.9546 44.9151 88.117 45.0138 88.2265 45.1608L92.535 50.8445L92.3521 45.5741C92.35 45.4847 92.3657 45.3958 92.3982 45.3125C92.4307 45.2292 92.4794 45.1532 92.5415 45.0889C92.6037 45.0245 92.6779 44.9732 92.76 44.9378C92.8421 44.9024 92.9305 44.8836 93.0199 44.8826C93.2052 44.8862 93.3824 44.9592 93.5164 45.0873C93.6504 45.2154 93.7313 45.3892 93.7432 45.5741L93.9976 52.9589C94.0008 53.0497 93.9857 53.1401 93.9532 53.2249C93.9207 53.3096 93.8714 53.3869 93.8084 53.4522C93.7453 53.5175 93.6697 53.5694 93.5861 53.6049C93.5026 53.6403 93.4127 53.6585 93.3219 53.6585C93.2214 53.6558 93.1227 53.6317 93.0322 53.5879C92.9417 53.544 92.8617 53.4814 92.7973 53.4041C92.7673 53.3838 92.7428 53.3565 92.7257 53.3246L88.457 47.6807L88.6399 52.9749Z" fill="#3D354D"/>
<path d="M95.8812 49.1115C95.8617 48.5076 95.9653 47.906 96.1858 47.3434C96.4063 46.7808 96.7389 46.2689 97.1636 45.8391C97.5883 45.4092 98.096 45.0703 98.6559 44.843C99.2158 44.6157 99.8161 44.5047 100.42 44.5169C101.48 44.5203 102.51 44.8692 103.354 45.5105C103.433 45.5668 103.501 45.6381 103.553 45.7206C103.604 45.803 103.639 45.8949 103.656 45.9909C103.672 46.0869 103.669 46.1852 103.647 46.2801C103.625 46.375 103.585 46.4647 103.528 46.5439C103.407 46.6942 103.231 46.7903 103.039 46.8112C102.846 46.832 102.654 46.7759 102.503 46.6552C101.916 46.2137 101.202 45.9739 100.468 45.9716C100.049 45.9628 99.6319 46.0401 99.2436 46.1987C98.8553 46.3573 98.5037 46.5939 98.2104 46.8937C97.9171 47.1813 97.6876 47.5274 97.537 47.9095C97.3863 48.2916 97.3178 48.7012 97.3359 49.1115C97.3853 49.9514 97.7655 50.7374 98.3932 51.2976C98.701 51.5983 99.0653 51.8354 99.465 51.995C99.8647 52.1546 100.292 52.2336 100.722 52.2276C101.33 52.223 101.926 52.0556 102.447 51.7427L102.384 50.0018H100.563C100.373 49.9911 100.192 49.9121 100.055 49.7793C99.9178 49.6465 99.833 49.4687 99.8161 49.2785C99.8117 49.1847 99.8267 49.091 99.8601 49.0033C99.8935 48.9156 99.9446 48.8356 100.01 48.7685C100.076 48.7014 100.155 48.6485 100.242 48.6132C100.328 48.5778 100.422 48.5607 100.516 48.563H103.043C103.143 48.5555 103.243 48.5682 103.338 48.6004C103.433 48.6327 103.52 48.6838 103.594 48.7507C103.668 48.8176 103.728 48.8988 103.77 48.9895C103.812 49.0802 103.835 49.1785 103.838 49.2785L103.942 52.0845C103.947 52.156 103.947 52.2277 103.942 52.2992C103.94 52.3203 103.94 52.3416 103.942 52.3627C103.903 52.4877 103.822 52.5948 103.711 52.6648C102.902 53.3134 101.894 53.6642 100.857 53.6585C99.5986 53.6999 98.3735 53.2476 97.4437 52.398C96.5139 51.5484 95.9532 50.369 95.8812 49.1115Z" fill="#3D354D"/>
<path d="M106.43 51.4644C106.485 51.3975 106.553 51.3421 106.63 51.3015C106.706 51.2609 106.79 51.2359 106.877 51.2277C106.963 51.2196 107.05 51.2286 107.133 51.2542C107.216 51.2798 107.293 51.3215 107.36 51.3769C108.059 51.9519 108.921 52.2938 109.824 52.3547C110.39 52.3704 110.947 52.2062 111.414 51.8857C111.569 51.7864 111.698 51.6502 111.788 51.4894C111.878 51.3285 111.927 51.1479 111.931 50.9636C111.926 50.8194 111.882 50.6793 111.803 50.5582C111.697 50.4062 111.562 50.2765 111.406 50.1766C110.856 49.8781 110.259 49.6765 109.641 49.5804C109.07 49.4831 108.512 49.3176 107.98 49.0876C107.49 48.8759 107.069 48.5318 106.764 48.0939C106.558 47.7847 106.442 47.424 106.43 47.0526C106.429 46.6889 106.515 46.3304 106.681 46.0068C106.847 45.6833 107.088 45.4041 107.384 45.1925C108.02 44.7433 108.783 44.5068 109.562 44.5168C110.58 44.571 111.559 44.925 112.376 45.5343C112.52 45.6302 112.621 45.7776 112.66 45.9462C112.698 46.1148 112.671 46.2917 112.583 46.4405C112.537 46.5134 112.478 46.5764 112.408 46.6258C112.337 46.6751 112.258 46.7097 112.174 46.7275C112.09 46.7454 112.004 46.746 111.919 46.7295C111.835 46.7129 111.755 46.6795 111.684 46.6313C111.088 46.1638 110.365 45.8868 109.61 45.8364C109.106 45.8299 108.614 45.983 108.202 46.2736C108.065 46.3571 107.951 46.4735 107.871 46.6124C107.79 46.7512 107.746 46.908 107.741 47.0685C107.742 47.1925 107.778 47.3139 107.845 47.4182C107.938 47.5543 108.06 47.6683 108.202 47.7521C108.692 48.0373 109.232 48.2261 109.792 48.3086C110.406 48.4134 111.004 48.595 111.573 48.8491C112.095 49.0727 112.546 49.4357 112.877 49.8984C113.089 50.2204 113.21 50.5941 113.226 50.9795C113.228 51.3666 113.136 51.7484 112.957 52.0919C112.779 52.4354 112.519 52.7302 112.201 52.9509C111.523 53.4367 110.706 53.6904 109.872 53.6743C108.664 53.6136 107.506 53.171 106.565 52.4103C106.425 52.3004 106.333 52.1406 106.308 51.9645C106.283 51.7883 106.326 51.6092 106.43 51.4644Z" fill="#3D354D"/>
<path d="M124.276 46.1862H122.241L122.48 52.9748C122.485 53.0661 122.472 53.1575 122.44 53.2433C122.408 53.3291 122.359 53.4074 122.296 53.4732C122.232 53.5389 122.156 53.5908 122.071 53.6254C121.986 53.66 121.895 53.6767 121.804 53.6743C121.616 53.6744 121.436 53.6015 121.301 53.471C121.166 53.3404 121.087 53.1625 121.081 52.9748L120.842 46.1862H118.831C118.642 46.1803 118.463 46.1033 118.329 45.9706C118.195 45.8379 118.116 45.6593 118.108 45.4708C118.102 45.3795 118.116 45.288 118.147 45.2022C118.179 45.1165 118.228 45.0382 118.292 44.9724C118.355 44.9066 118.432 44.8548 118.516 44.8201C118.601 44.7855 118.692 44.7688 118.783 44.7712H124.221C124.408 44.7731 124.587 44.8467 124.722 44.9768C124.856 45.1069 124.936 45.2837 124.944 45.4708C124.947 45.5616 124.932 45.6522 124.901 45.7373C124.869 45.8224 124.82 45.9004 124.758 45.9669C124.696 46.0333 124.622 46.0869 124.539 46.1245C124.456 46.1621 124.367 46.1831 124.276 46.1862Z" fill="#3D354D"/>
<path d="M133.37 45.8762C134.221 46.7369 134.717 47.886 134.761 49.0956C134.801 50.2674 134.382 51.4086 133.592 52.2753C133.217 52.7007 132.756 53.0418 132.24 53.2761C131.723 53.5104 131.163 53.6326 130.596 53.6346C130.002 53.6311 129.415 53.5091 128.869 53.2757C128.323 53.0423 127.829 52.7022 127.416 52.2753C126.578 51.424 126.09 50.2893 126.049 49.0956C125.989 47.9133 126.401 46.7557 127.193 45.8762C127.58 45.4461 128.053 45.1026 128.582 44.8684C129.111 44.6341 129.683 44.5143 130.262 44.5169C130.845 44.5218 131.421 44.6448 131.955 44.8784C132.489 45.112 132.97 45.4514 133.37 45.8762ZM133.314 49.0956C133.279 48.2635 132.943 47.4725 132.368 46.8698C132.106 46.5898 131.79 46.3659 131.439 46.2115C131.088 46.0571 130.709 45.9755 130.325 45.9716C129.943 45.9674 129.564 46.0455 129.214 46.2004C128.864 46.3554 128.552 46.5837 128.298 46.8698C127.751 47.4786 127.466 48.2781 127.503 49.0956C127.527 49.9278 127.865 50.72 128.449 51.3134C128.716 51.6011 129.04 51.8306 129.4 51.9879C129.759 52.1452 130.147 52.2268 130.54 52.2276C130.916 52.2235 131.286 52.1399 131.627 51.9824C131.969 51.8248 132.272 51.5969 132.519 51.3134C133.079 50.7118 133.383 49.917 133.37 49.0956H133.314Z" fill="#3D354D"/>
<path d="M141.231 52.9749L140.969 45.4708C140.965 45.3798 140.979 45.2889 141.011 45.2036C141.043 45.1184 141.092 45.0406 141.156 44.9751C141.219 44.9095 141.295 44.8577 141.379 44.8226C141.463 44.7876 141.554 44.7701 141.645 44.7713H143.147C144.337 44.7805 145.478 45.247 146.333 46.0742C147.188 46.9015 147.693 48.026 147.742 49.2149C147.769 49.793 147.678 50.3704 147.474 50.9122C147.271 51.4539 146.959 51.9484 146.558 52.3657C146.157 52.783 145.675 53.1142 145.142 53.3393C144.609 53.5643 144.036 53.6783 143.457 53.6744H141.955C141.768 53.6726 141.588 53.599 141.454 53.4689C141.319 53.3387 141.239 53.1619 141.231 52.9749ZM142.622 52.2595H143.417C143.812 52.2609 144.203 52.1823 144.566 52.0282C144.93 51.8742 145.258 51.648 145.532 51.3634C145.805 51.0788 146.018 50.7416 146.158 50.3723C146.297 50.003 146.36 49.6093 146.343 49.2149C146.304 48.4049 145.958 47.6402 145.374 47.0772C144.79 46.5142 144.014 46.1955 143.203 46.1863H142.408L142.622 52.2595Z" fill="#3D354D"/>
<path d="M156.963 45.8762C157.813 46.7382 158.312 47.8859 158.362 49.0956C158.399 50.2683 157.977 51.4093 157.185 52.2753C156.813 52.7017 156.353 53.0436 155.838 53.278C155.322 53.5124 154.763 53.634 154.196 53.6346C153.603 53.632 153.015 53.5104 152.469 53.2769C151.923 53.0435 151.429 52.7029 151.017 52.2753C150.176 51.4252 149.685 50.2904 149.642 49.0956C149.587 47.9139 149.998 46.7579 150.786 45.8762C151.174 45.4469 151.647 45.1039 152.176 44.8697C152.704 44.6355 153.276 44.5153 153.855 44.5169C154.438 44.5204 155.014 44.6427 155.549 44.8765C156.083 45.1102 156.564 45.4503 156.963 45.8762ZM156.907 49.0956C156.879 48.2636 156.545 47.4712 155.969 46.8698C155.707 46.5902 155.39 46.3664 155.039 46.2121C154.688 46.0577 154.31 45.9759 153.926 45.9716C153.542 45.9668 153.162 46.0445 152.811 46.1995C152.46 46.3545 152.146 46.5831 151.891 46.8698C151.35 47.4821 151.065 48.2791 151.096 49.0956C151.12 49.9277 151.458 50.72 152.042 51.3134C152.31 51.5999 152.634 51.8287 152.993 51.9859C153.353 52.1431 153.741 52.2253 154.133 52.2276C154.509 52.2235 154.879 52.1399 155.22 51.9824C155.562 51.8248 155.865 51.5968 156.112 51.3134C156.651 50.7032 156.936 49.9094 156.907 49.0956Z" fill="#3D354D"/>
</svg>
