<svg width="508" height="476" viewBox="0 0 508 476" fill="none" xmlns="http://www.w3.org/2000/svg">
<path d="M210.824 61.359H242.364V74.6628H210.824V61.359Z" fill="#EBEBEB"/>
<path d="M228.417 44.5837H259.957V57.8875H228.417V44.5837Z" fill="#EBEBEB"/>
<path d="M358.566 476C276.036 476 209.132 465.626 209.132 452.828C209.132 440.031 276.036 429.657 358.566 429.657C441.096 429.657 508 440.031 508 452.828C508 465.626 441.096 476 358.566 476Z" fill="#A1ABD1"/>
<path d="M62.5801 467.737C30.2153 467.737 3.97855 461.062 3.97855 452.828C3.97855 444.594 30.2153 437.919 62.5801 437.919C94.9448 437.919 121.182 444.594 121.182 452.828C121.182 461.062 94.9448 467.737 62.5801 467.737Z" fill="#A1ABD1"/>
<path d="M67.8573 426.102H367.464L339.64 28.8665H40.0216L67.8573 426.102Z" fill="#4F5A9F"/>
<g opacity="0.1">
<path opacity="0.1" d="M67.8573 426.102H367.464L339.64 28.8665H40.0216L67.8573 426.102Z" fill="#28347D"/>
</g>
<path d="M75.194 426.102H374.812L346.977 28.8665H47.3702L75.194 426.102Z" fill="#28347D"/>
<path d="M88.8323 402.586L353.54 405.95L333.041 48.0912L68.3218 44.7266L88.8323 402.586Z" fill="#EBEBEB"/>
<path d="M95.3238 407.092L359.353 401.397L326.55 43.597L62.5212 49.28L95.3238 407.092Z" fill="#DBDBDB"/>
<path d="M90.7021 404.286H355.195L330.123 46.4027H65.6296L90.7021 404.286Z" fill="white"/>
<path d="M149.625 159.277H123.219L125.065 132.919H151.471L149.625 159.277Z" fill="#EBEBEB"/>
<path d="M251.011 136.783H165.455L165.729 132.919H251.285L251.011 136.783Z" fill="#2D50AA"/>
<path d="M315.449 144.273H164.931L165.205 140.409H315.711L315.449 144.273Z" fill="#EBEBEB"/>
<path d="M314.912 151.775H164.406L164.68 147.911H315.186L314.912 151.775Z" fill="#EBEBEB"/>
<path d="M314.389 159.277H163.883L164.157 155.413H314.663L314.389 159.277Z" fill="#EBEBEB"/>
<path d="M146.171 208.557H119.765L121.611 182.199H148.017L146.171 208.557Z" fill="#EBEBEB"/>
<path d="M247.556 186.063H162L162.274 182.199H247.83L247.556 186.063Z" fill="#2D50AA"/>
<path d="M311.995 193.565H161.477L161.751 189.701H312.257L311.995 193.565Z" fill="#EBEBEB"/>
<path d="M311.47 201.067H160.952L161.226 197.203H311.732L311.47 201.067Z" fill="#EBEBEB"/>
<path d="M310.947 208.557H160.429L160.703 204.705H311.209L310.947 208.557Z" fill="#EBEBEB"/>
<path d="M142.716 257.849H116.31L118.156 231.491H144.562L142.716 257.849Z" fill="#EBEBEB"/>
<path d="M244.103 235.355H158.547L158.821 231.491H244.377L244.103 235.355Z" fill="#2D50AA"/>
<path d="M308.54 242.857H158.022L158.296 238.993H308.814L308.54 242.857Z" fill="#EBEBEB"/>
<path d="M308.016 250.347H157.498L157.772 246.495H308.29L308.016 250.347Z" fill="#EBEBEB"/>
<path d="M307.492 257.849H156.974L157.248 253.985H307.754L307.492 257.849Z" fill="#EBEBEB"/>
<path d="M139.263 307.141H112.856L114.703 280.783H141.109L139.263 307.141Z" fill="#EBEBEB"/>
<path d="M240.648 284.647H155.092L155.366 280.783H240.922L240.648 284.647Z" fill="#2D50AA"/>
<path d="M305.086 292.137H154.568L154.842 288.273H305.36L305.086 292.137Z" fill="#EBEBEB"/>
<path d="M304.563 299.639H154.045L154.319 295.775H304.837L304.563 299.639Z" fill="#EBEBEB"/>
<path d="M304.039 307.141H153.521L153.794 303.277H304.312L304.039 307.141Z" fill="#EBEBEB"/>
<path d="M135.809 356.421H109.402L111.249 330.075H137.655L135.809 356.421Z" fill="#EBEBEB"/>
<path d="M237.194 333.927H151.65L151.912 330.075H237.468L237.194 333.927Z" fill="#2D50AA"/>
<path d="M301.632 341.428H151.126L151.388 337.564H301.906L301.632 341.428Z" fill="#EBEBEB"/>
<path d="M301.108 348.93H150.59L150.864 345.066H301.382L301.108 348.93Z" fill="#EBEBEB"/>
<path d="M300.583 356.421H150.065L150.339 352.557H300.857L300.583 356.421Z" fill="#EBEBEB"/>
<path d="M134.76 61.1569H264.672L261.909 21.626H131.996L134.76 61.1569Z" fill="#C7C7C7"/>
<path d="M155.426 0H236.086L241.148 21.6142H152.186L155.426 0ZM196.244 15.5508C196.857 15.56 197.465 15.4404 198.028 15.2C198.592 14.9596 199.098 14.6036 199.515 14.1552C199.931 13.7068 200.249 13.1759 200.447 12.5971C200.645 12.0182 200.718 11.4043 200.663 10.7952C200.56 9.5132 199.981 8.31569 199.041 7.43639C198.101 6.55709 196.866 6.05911 195.577 6.03961C194.965 6.03046 194.357 6.14998 193.794 6.39041C193.23 6.63084 192.724 6.98682 192.307 7.43524C191.89 7.88366 191.573 8.41451 191.375 8.99335C191.177 9.57219 191.103 10.1861 191.158 10.7952C191.257 12.0792 191.833 13.2798 192.775 14.1602C193.716 15.0405 194.954 15.5367 196.244 15.5508Z" fill="#C7C7C7"/>
<path d="M152.186 21.6141H241.148L240.005 16.7753H152.913L152.186 21.6141Z" fill="#A6A6A6"/>
<path d="M402.911 139.22C401.148 152.298 391.346 183.519 384.033 185.504C377.219 187.347 347.275 178.442 343.416 172.509C341.356 169.335 333.197 140.171 336.853 141.919C341.475 144.118 375.373 161.227 376.767 160.882C379.709 160.145 385.45 148.565 390.417 142.097C401.232 127.973 403.745 133.085 402.911 139.22Z" fill="#D4A29E"/>
<path d="M382.46 152.25L397.814 166.291C397.814 166.291 403.245 146.235 403.864 136.949C404.484 127.664 396.885 128.722 382.46 152.25Z" fill="#3952A0"/>
<path d="M445.35 285.336C445.35 285.336 461.584 310.981 478.2 298.509C494.815 286.038 474.626 263.353 474.626 263.353L445.35 285.336Z" fill="#808CD1"/>
<path d="M475.387 264.298L446.077 286.28L317.705 115.742L347.015 93.7598L475.387 264.298Z" fill="#6D90FF"/>
<path opacity="0.1" d="M475.387 264.298L446.077 286.28L317.705 115.742L347.015 93.7598L475.387 264.298Z" fill="black"/>
<path d="M478.542 263.373L444.318 289.041L439.217 282.264L473.441 256.596L478.542 263.373Z" fill="#2A3B75"/>
<path d="M472.901 255.883L438.678 281.55L433.576 274.773L467.8 249.106L472.901 255.883Z" fill="#2A3B75"/>
<path d="M347.025 93.7687L320.143 80.988L311.305 76.7437L312.865 86.457L317.629 115.775L323.799 117.796C323.799 117.796 323.49 111.483 323.501 111.376L329.671 113.397C329.671 113.397 329.35 107.084 329.374 106.966L335.472 109.046C335.472 109.046 335.222 102.685 335.234 102.567L341.344 104.647C341.344 104.647 341.094 98.2865 341.106 98.1676L347.204 100.236C347.204 100.236 347.002 93.8757 347.025 93.7687Z" fill="#D5D5D5"/>
<path d="M320.143 80.988L311.305 76.7437L312.865 86.457L320.143 80.988Z" fill="#5E5C76"/>
<g opacity="0.1">
<path opacity="0.1" d="M433.415 254.96C425.47 243.986 417.419 233.108 409.343 222.229L384.973 189.689L360.437 157.315L348.133 141.218L335.686 125.167L347.669 141.574L359.746 157.862L384.068 190.402L408.617 222.776C416.835 233.532 425.101 244.26 433.415 254.96Z" fill="black"/>
<path opacity="0.1" d="M441.55 249.824C433.605 238.862 425.553 227.972 417.49 217.093L393.156 184.553L368.619 152.179L356.268 136.058L343.821 119.996L355.803 136.462L367.881 152.785L392.215 185.326L416.751 217.699C424.982 228.4 433.212 239.159 441.55 249.824Z" fill="black"/>
<path opacity="0.1" d="M449.697 244.652C441.741 233.678 433.689 222.8 425.625 211.922L401.303 179.381L376.755 147.008L364.403 130.874L351.956 114.824L363.939 131.231L376.028 147.555L400.35 180.095L424.899 212.552C433.117 223.252 441.348 234.023 449.697 244.652Z" fill="black"/>
</g>
<path d="M333.935 140.861C333.506 145.402 330.624 151.894 331.386 155.199C331.548 156.02 331.97 156.767 332.59 157.33C333.21 157.893 333.994 158.242 334.828 158.326C334.828 158.326 332.244 161.048 333.435 163.925C334.054 165.412 337.008 165.733 337.008 165.733C336.459 166.381 336.098 167.167 335.966 168.006C335.834 168.844 335.935 169.703 336.258 170.488C337.222 172.474 339.998 172.497 339.998 172.497C339.998 172.497 339.116 175.565 340.76 177.253C344.083 180.713 361.985 174.233 362.354 166.648C362.521 163.081 358.233 164.936 358.233 164.936C358.233 164.936 363.772 160.834 362.521 157.113C361.271 153.392 355.851 156.102 355.851 156.102C355.851 156.102 361.175 152.072 359.496 148.351C357.816 144.63 352.778 148.113 352.778 148.113C352.778 148.113 355.78 143.976 353.838 141.42C350.634 137.199 345.274 145.902 341.01 146.401L336.484 140.718L333.935 140.861Z" fill="#D4A29E"/>
<path d="M332.399 147.792C332.399 143.453 325.979 140.457 325.419 136.307C324.645 130.696 332.375 133.668 336.437 140.754L338.616 146.805L332.399 147.792Z" fill="#D4A29E"/>
<path d="M340.391 172.581C340.391 172.581 340.391 172.688 340.391 172.676C347.055 171.975 353.345 169.262 358.424 164.901C358.579 164.758 358.424 164.437 358.222 164.568C352.698 168.085 346.692 170.784 340.391 172.581Z" fill="#C18C88"/>
<path d="M336.89 165.804C336.818 165.804 336.89 165.935 336.89 165.935C344.23 165.082 351.024 161.637 356.042 156.222C356.209 156.031 356.161 155.687 355.947 155.889C352.409 159.408 342.833 164.199 336.89 165.804Z" fill="#C18C88"/>
<path d="M352.969 147.614C348.014 152.857 341.868 155.996 335.102 158.314C335.019 158.314 335.102 158.469 335.102 158.469C338.676 158.231 342.88 156.317 345.989 154.545C348.918 152.957 351.381 150.633 353.135 147.804C353.219 147.673 353.064 147.507 352.969 147.614Z" fill="#C18C88"/>
<path d="M335.292 451.021C337.579 451.782 402.911 451.592 405.4 450.011C406.341 449.428 406.865 439.917 407.187 428.42C407.187 425.936 407.306 423.38 407.341 420.776C407.341 417.685 407.425 414.57 407.449 411.538C407.532 397.913 407.341 385.917 407.341 385.917H364.808V411.538V420.776L365.022 428.42C365.022 428.42 340.009 439.667 337.508 441.689C335.007 443.71 333.017 450.332 335.292 451.021Z" fill="#D4A29E"/>
<path d="M335.293 451.021C337.58 451.782 402.911 451.592 405.401 450.011C406.342 449.428 406.866 439.917 407.187 428.42C407.187 425.935 407.306 423.379 407.342 420.776C407.342 417.684 407.425 414.57 407.449 411.538H364.832V420.776L365.046 428.42C365.046 428.42 340.034 439.667 337.532 441.688C335.031 443.71 333.018 450.332 335.293 451.021Z" fill="white"/>
<path d="M335.091 451.116C336.592 451.604 364.415 451.711 384.676 451.295C389.357 451.188 393.645 451.057 397.111 450.914C401.875 450.688 405.079 450.427 405.591 450.106C406.782 449.369 407.295 435.411 407.557 420.704H364.808L365.035 428.397C365.035 428.397 339.915 439.691 337.354 441.736C334.793 443.781 332.804 450.332 335.091 451.116Z" fill="#6D90FF"/>
<path d="M336.032 448.489C347.049 448.192 391.489 448.013 402.399 448.549C402.483 448.549 402.483 448.62 402.399 448.62C391.489 449.156 347.049 448.977 336.032 448.68C335.806 448.668 335.806 448.501 336.032 448.489Z" fill="#475B9D"/>
<path d="M363.474 425.959C367.798 425.139 373.098 425.781 376.421 428.86C376.552 428.979 376.421 429.157 376.243 429.11C372.111 427.805 367.85 426.948 363.534 426.554C363.455 426.562 363.376 426.538 363.315 426.488C363.253 426.437 363.214 426.365 363.206 426.286C363.198 426.207 363.222 426.129 363.272 426.067C363.323 426.006 363.395 425.967 363.474 425.959Z" fill="#475B9D"/>
<path d="M360.353 427.85C364.677 427.029 369.977 427.671 373.3 430.751C373.431 430.869 373.3 431.048 373.122 431C368.974 429.682 364.698 428.81 360.365 428.397C360.292 428.398 360.222 428.371 360.17 428.321C360.117 428.271 360.087 428.202 360.085 428.129C360.084 428.057 360.111 427.986 360.161 427.934C360.211 427.882 360.281 427.851 360.353 427.85Z" fill="#475B9D"/>
<path d="M357.22 429.74C361.556 428.92 366.856 429.562 370.18 432.641C370.311 432.76 370.18 432.938 369.989 432.891C365.846 431.572 361.573 430.699 357.244 430.287C357.172 430.29 357.101 430.264 357.047 430.215C356.994 430.166 356.962 430.098 356.958 430.025C356.955 429.953 356.981 429.882 357.03 429.828C357.079 429.775 357.148 429.743 357.22 429.74Z" fill="#475B9D"/>
<path d="M354.1 431.63C358.436 430.81 363.736 431.452 367.059 434.531C367.19 434.65 367.059 434.829 366.869 434.781C362.726 433.462 358.453 432.589 354.124 432.177C354.052 432.18 353.981 432.155 353.927 432.106C353.873 432.057 353.841 431.988 353.838 431.916C353.835 431.843 353.861 431.772 353.91 431.719C353.959 431.665 354.028 431.634 354.1 431.63Z" fill="#475B9D"/>
<path d="M355.434 415.973C357.137 413.595 360.306 414.677 362.116 416.187C365.184 418.838 367.497 422.25 368.822 426.078C368.83 426.095 368.834 426.113 368.833 426.131C368.832 426.149 368.827 426.166 368.817 426.182C368.808 426.197 368.794 426.21 368.778 426.219C368.763 426.228 368.745 426.233 368.727 426.233C368.73 426.317 368.713 426.401 368.677 426.477C368.642 426.553 368.589 426.62 368.523 426.672C368.457 426.724 368.379 426.76 368.297 426.777C368.214 426.793 368.129 426.79 368.048 426.768C364.474 425.46 360.472 424.497 357.399 422.131C355.601 420.752 353.838 418.232 355.434 415.973ZM363.021 423.677C364.772 424.366 366.595 424.961 368.25 425.71C367.003 423.747 365.656 421.85 364.212 420.027C363.502 419.152 362.734 418.326 361.914 417.554C360.615 416.365 355.505 413.904 356.28 418.648C356.708 421.263 360.937 422.856 363.021 423.677Z" fill="#475B9D"/>
<path d="M379.839 424.913C376.266 426.447 372.157 426.375 368.369 426.756C368.285 426.758 368.201 426.739 368.125 426.703C368.049 426.666 367.982 426.612 367.931 426.544C367.88 426.477 367.846 426.399 367.831 426.316C367.816 426.233 367.821 426.147 367.845 426.066C367.828 426.06 367.812 426.05 367.8 426.038C367.787 426.025 367.777 426.009 367.772 425.992C367.766 425.974 367.764 425.956 367.766 425.938C367.769 425.92 367.775 425.903 367.786 425.888C370.024 422.513 373.113 419.786 376.743 417.982C378.886 416.971 382.222 416.793 383.27 419.444C384.318 422.095 381.912 424.021 379.839 424.913ZM381.781 421.822C383.722 417.423 378.208 418.552 376.611 419.361C375.618 419.894 374.666 420.502 373.765 421.18C371.909 422.584 370.127 424.084 368.429 425.674C370.275 425.377 372.145 425.234 374.003 425.008C376.218 424.735 380.709 424.247 381.781 421.798V421.822Z" fill="#475B9D"/>
<path d="M421.527 205.002C421.527 205.002 410.033 318.483 409.759 319.921C409.759 320.111 409.64 322.299 409.533 325.866C408.914 345.399 407.377 406.307 407.377 406.307H360.484C360.484 406.307 363.545 334.164 365.248 317.329C367.488 295.858 381.697 205.002 381.697 205.002H421.527Z" fill="#627AC5"/>
<path d="M404.174 323.928C405.611 299.357 407.783 274.826 410.689 250.335C412.345 236.544 414.262 222.812 416.287 209.068C416.287 208.949 416.501 208.949 416.478 209.068C412.904 233.536 410.284 258.182 408.069 282.78C405.853 307.378 404.305 332.024 403.304 356.706C402.721 370.687 402.292 383.325 401.839 397.319C401.826 397.377 401.794 397.429 401.748 397.467C401.701 397.504 401.643 397.525 401.583 397.525C401.523 397.525 401.465 397.504 401.419 397.467C401.372 397.429 401.34 397.377 401.327 397.319C401.982 372.399 402.709 348.812 404.174 323.928Z" fill="#46588E"/>
<path d="M363.701 398.544C385.14 397.865 403.578 398.353 405.174 398.472C406.496 398.579 405.758 398.71 405.103 398.758C386.951 399.841 364.415 398.817 363.701 398.758C363.534 398.71 363.534 398.544 363.701 398.544Z" fill="#46588E"/>
<path d="M421.527 205.002C421.527 205.002 410.033 318.483 409.759 319.921C409.759 320.111 409.64 322.299 409.533 325.866L387.426 205.002H421.527Z" fill="#46588E"/>
<path d="M406.65 460.295C409.033 460.877 474.114 455.836 476.484 454.065C477.377 453.411 477.199 443.888 476.639 432.415C476.532 429.93 476.508 427.35 476.234 424.77C475.9 421.513 475.531 418.267 475.126 415.128C473.435 401.527 471.47 390.161 471.47 390.161L430.234 393.265L432.795 417.863L433.807 427.921L434.593 435.53C434.593 435.53 410.522 448.608 408.139 450.807C405.757 453.007 404.316 459.7 406.65 460.295Z" fill="#D4A29E"/>
<path d="M406.65 460.295C409.033 460.877 474.114 455.836 476.484 454.065C477.377 453.411 477.199 443.888 476.639 432.415C476.532 429.93 476.508 427.35 476.234 424.77C475.9 421.513 475.531 418.267 475.126 415.128C462.429 416.02 444.158 417.15 432.807 417.839L433.807 427.921L434.593 435.53C434.593 435.53 410.522 448.608 408.139 450.807C405.757 453.007 404.316 459.7 406.65 460.295Z" fill="white"/>
<path d="M406.413 460.39C408.795 460.984 474.305 455.908 476.627 454.148C477.723 453.328 477.235 439.382 476.389 424.675L433.808 427.85L434.594 435.506C434.594 435.506 410.391 448.643 407.997 450.867C405.603 453.09 404.114 459.843 406.413 460.39Z" fill="#6D90FF"/>
<path d="M407.187 457.703C418.145 456.585 462.454 453.102 473.376 452.828C473.46 452.828 473.472 452.828 473.376 452.9C462.537 454.243 418.205 457.37 407.211 457.881C406.973 457.893 406.961 457.727 407.187 457.703Z" fill="#475B9D"/>
<path d="M432.878 433.188C437.13 432.058 442.407 432.308 445.98 435.126C446.123 435.233 445.98 435.423 445.825 435.387C441.602 434.366 437.282 433.796 432.938 433.687C432.886 433.672 432.84 433.642 432.806 433.601C432.771 433.56 432.749 433.51 432.743 433.457C432.737 433.404 432.746 433.35 432.77 433.302C432.794 433.254 432.832 433.215 432.878 433.188Z" fill="#475B9D"/>
<path d="M429.901 435.304C434.165 434.175 439.43 434.424 443.003 437.242C443.134 437.349 443.003 437.539 442.836 437.503C438.604 436.496 434.276 435.942 429.925 435.851C429.889 435.853 429.853 435.847 429.819 435.835C429.785 435.822 429.754 435.804 429.728 435.779C429.701 435.755 429.68 435.726 429.665 435.693C429.649 435.661 429.641 435.625 429.639 435.589C429.638 435.553 429.643 435.518 429.655 435.484C429.668 435.45 429.687 435.419 429.711 435.393C429.735 435.366 429.765 435.345 429.797 435.329C429.83 435.314 429.865 435.306 429.901 435.304Z" fill="#475B9D"/>
<path d="M426.923 437.432C431.187 436.243 436.524 436.54 440.025 439.358C440.168 439.465 440.025 439.655 439.859 439.632C435.627 438.619 431.298 438.061 426.947 437.967C426.885 437.957 426.828 437.926 426.786 437.879C426.744 437.832 426.72 437.772 426.717 437.709C426.714 437.646 426.733 437.585 426.771 437.534C426.808 437.484 426.862 437.448 426.923 437.432Z" fill="#475B9D"/>
<path d="M423.957 439.548C428.209 438.36 433.486 438.657 437.059 441.474C437.202 441.581 437.059 441.772 436.904 441.748C432.672 440.737 428.344 440.179 423.993 440.083C423.93 440.075 423.872 440.045 423.829 439.999C423.786 439.953 423.76 439.894 423.756 439.831C423.751 439.768 423.769 439.705 423.806 439.654C423.843 439.602 423.896 439.565 423.957 439.548Z" fill="#475B9D"/>
<path d="M424.124 423.831C425.637 421.37 428.888 422.179 430.806 423.546C434.056 425.969 436.614 429.199 438.227 432.914C438.227 432.998 438.227 433.057 438.131 433.081C438.131 433.402 437.881 433.77 437.5 433.663C433.831 432.629 429.77 431.963 426.53 429.823C424.636 428.587 422.683 426.173 424.124 423.831ZM432.259 430.965C434.046 431.523 435.832 431.987 437.631 432.605C436.178 430.786 434.808 428.908 433.176 427.231C432.399 426.412 431.567 425.645 430.687 424.937C429.317 423.879 424.029 421.786 425.16 426.459C425.792 429.015 430.115 430.287 432.259 430.953V430.965Z" fill="#475B9D"/>
<path d="M449.113 430.941C445.671 432.724 441.573 432.962 437.81 433.628C437.428 433.699 437.19 433.295 437.238 432.974C437.221 432.969 437.206 432.96 437.193 432.948C437.181 432.937 437.17 432.923 437.164 432.907C437.157 432.891 437.154 432.874 437.154 432.857C437.155 432.84 437.159 432.823 437.166 432.807C439.147 429.274 442.022 426.322 445.504 424.247C447.565 423.058 450.864 422.618 452.127 425.222C453.389 427.826 451.126 429.894 449.113 430.941ZM450.828 427.743C452.436 423.213 446.957 424.747 445.48 425.674C444.536 426.289 443.633 426.964 442.776 427.695C441.037 429.212 439.376 430.815 437.798 432.498C439.62 432.058 441.466 431.785 443.312 431.416C445.504 431.024 449.947 430.215 450.828 427.743Z" fill="#475B9D"/>
<path d="M381.746 205.002C381.746 205.002 383.128 216.558 389.774 224.892C391.37 226.89 396.241 228.744 398.767 230.575C398.767 230.575 408.2 317.104 411.071 326.876C414.263 337.79 426.662 412.287 426.662 412.287L475.651 408.863C475.651 408.863 460.941 335.793 457.452 317.698C456.665 313.656 446.184 237.507 446.41 235.747C449.233 214.775 439.013 205.062 439.013 205.062L381.746 205.002Z" fill="#627AC5"/>
<path d="M419.622 206.274C420.576 209.572 422.594 212.464 425.363 214.501C428.418 216.672 432.038 217.911 435.785 218.068C436.416 218.068 436.464 219.067 435.785 219.079C428.138 219.079 420.408 214.24 419.288 206.322C419.288 206.143 419.515 206.108 419.622 206.274Z" fill="#46588E"/>
<path d="M388.868 224.548C391.643 225.657 394.29 227.06 396.765 228.733C399.385 230.349 401.815 232.299 404.352 233.999C404.447 234.071 404.352 234.225 404.257 234.166C401.601 232.644 398.837 231.312 396.205 229.743C393.575 228.305 391.079 226.634 388.749 224.75C388.665 224.678 388.749 224.5 388.868 224.548Z" fill="#46588E"/>
<path d="M387.784 208.628C388.201 210.376 388.701 212.112 389.166 213.848C389.63 215.583 389.94 217.141 390.452 218.746C390.875 220.307 391.744 221.712 392.954 222.788C393.621 223.359 394.359 223.846 395.074 224.369L396.265 225.202C396.205 224.964 396.146 224.726 396.098 224.488C395.943 223.834 395.8 223.168 395.657 222.503C395.348 221.028 395.038 219.554 394.74 218.068C394.157 215.167 393.549 212.231 392.87 209.365C392.877 209.347 392.889 209.331 392.905 209.32C392.921 209.309 392.94 209.303 392.96 209.303C392.979 209.303 392.998 209.309 393.014 209.32C393.03 209.331 393.042 209.347 393.049 209.365C393.906 212.207 394.847 215.013 395.61 217.878C395.991 219.281 397.42 226.2 397.492 226.735C397.563 227.27 397.635 227.758 397.682 228.269C397.771 228.787 397.795 229.314 397.754 229.838C397.743 229.861 397.726 229.88 397.705 229.894C397.684 229.907 397.66 229.915 397.635 229.915C397.609 229.915 397.585 229.907 397.564 229.894C397.543 229.88 397.526 229.861 397.515 229.838C397.278 229.364 397.105 228.86 397.003 228.34C396.848 227.841 396.717 227.342 396.598 226.842L396.491 226.283C395.776 225.891 395.109 225.368 394.442 224.928C393.775 224.488 392.989 224.001 392.31 223.478C391.043 222.508 390.1 221.177 389.607 219.661C389.105 218.027 388.751 216.352 388.547 214.656C388.237 212.682 387.975 210.685 387.606 208.711C387.582 208.569 387.76 208.509 387.784 208.628Z" fill="#46588E"/>
<path d="M429.043 403.774C450.292 401.397 468.766 400.398 470.362 400.386C471.696 400.386 470.97 400.576 470.362 400.671C452.365 403.204 429.865 403.988 429.091 403.965C429.079 403.968 429.066 403.968 429.053 403.966C429.04 403.965 429.028 403.96 429.017 403.954C429.006 403.947 428.996 403.938 428.988 403.928C428.981 403.917 428.975 403.906 428.972 403.893C428.969 403.881 428.968 403.868 428.97 403.855C428.972 403.842 428.976 403.83 428.983 403.819C428.99 403.808 428.998 403.798 429.009 403.791C429.019 403.783 429.031 403.777 429.043 403.774Z" fill="#46588E"/>
<path d="M382.925 181.319L378.935 214.18C378.935 214.18 432.403 213.705 445.636 212.456C445.636 212.456 433.368 151.502 418.729 136.367C411.416 128.805 403.054 129.578 397.837 135.118C396.515 136.509 380.9 158.159 379.399 166.327C378.101 173.544 382.925 181.319 382.925 181.319Z" fill="#6D90FF"/>
<path d="M405.984 154.486C405.535 154.336 405.053 154.311 404.591 154.414C404.345 154.505 404.131 154.667 403.977 154.878C403.822 155.09 403.733 155.342 403.721 155.603C403.727 155.781 403.686 155.956 403.603 156.113C403.519 156.269 403.396 156.401 403.245 156.495C403.086 156.612 402.894 156.674 402.697 156.673C402.471 156.673 402.256 156.745 402.03 156.804C402.484 156.943 402.969 156.943 403.424 156.804C403.662 156.708 403.868 156.545 404.014 156.333C404.16 156.122 404.241 155.872 404.245 155.615C404.252 155.438 404.302 155.265 404.391 155.112C404.481 154.958 404.606 154.829 404.758 154.735C404.929 154.639 405.121 154.586 405.317 154.581C405.544 154.569 405.758 154.545 405.984 154.486Z" fill="white"/>
<path d="M393.775 198.059C393.326 197.909 392.844 197.884 392.382 197.987C392.137 198.079 391.925 198.241 391.773 198.452C391.62 198.664 391.534 198.916 391.524 199.176C391.527 199.353 391.484 199.528 391.401 199.683C391.318 199.839 391.196 199.972 391.048 200.068C390.879 200.173 390.687 200.235 390.488 200.246C390.274 200.246 390.047 200.318 389.833 200.377C390.287 200.516 390.772 200.516 391.226 200.377C391.471 200.272 391.679 200.098 391.825 199.876C391.971 199.654 392.049 199.394 392.048 199.129C392.049 198.953 392.095 198.781 392.183 198.629C392.271 198.477 392.397 198.35 392.549 198.261C392.722 198.158 392.919 198.101 393.12 198.094C393.339 198.094 393.558 198.082 393.775 198.059Z" fill="white"/>
<path d="M413.476 137.033C413.923 137.197 414.41 137.218 414.87 137.092C415.113 136.986 415.321 136.811 415.467 136.59C415.612 136.368 415.691 136.109 415.692 135.844C415.692 135.668 415.739 135.496 415.826 135.344C415.914 135.191 416.04 135.065 416.192 134.976C416.365 134.873 416.562 134.816 416.764 134.809H417.014L416.752 134.595C416.508 134.557 416.259 134.578 416.025 134.655C415.781 134.748 415.57 134.91 415.418 135.121C415.265 135.332 415.178 135.584 415.167 135.844C415.17 136.022 415.127 136.198 415.044 136.356C414.961 136.514 414.84 136.648 414.691 136.747C414.522 136.852 414.33 136.914 414.131 136.926C413.911 136.95 413.692 136.986 413.476 137.033Z" fill="white"/>
<path d="M423.291 172.711C422.841 172.568 422.36 172.543 421.897 172.64C421.652 172.732 421.439 172.894 421.285 173.105C421.131 173.316 421.041 173.568 421.028 173.829C421.032 174.008 420.991 174.185 420.908 174.343C420.824 174.501 420.702 174.635 420.551 174.733C420.388 174.839 420.199 174.901 420.004 174.911L419.337 175.03C419.784 175.193 420.271 175.214 420.73 175.089C420.977 174.988 421.188 174.815 421.335 174.592C421.482 174.37 421.557 174.108 421.552 173.841C421.557 173.665 421.607 173.493 421.697 173.341C421.786 173.19 421.913 173.063 422.064 172.973C422.234 172.872 422.426 172.815 422.624 172.807C422.85 172.795 423.089 172.771 423.291 172.711Z" fill="white"/>
<path d="M395.085 213.978H395.693C395.773 213.799 395.814 213.604 395.812 213.408C395.815 213.231 395.864 213.058 395.954 212.906C396.043 212.754 396.171 212.628 396.324 212.54C396.492 212.435 396.686 212.378 396.884 212.373C397.104 212.345 397.323 212.305 397.539 212.254C397.094 212.104 396.616 212.08 396.157 212.183C395.911 212.274 395.698 212.435 395.543 212.647C395.388 212.858 395.3 213.11 395.288 213.372C395.296 213.592 395.224 213.807 395.085 213.978Z" fill="white"/>
<path d="M410.058 191.151C409.608 191.001 409.126 190.976 408.664 191.08C408.419 191.17 408.206 191.331 408.053 191.543C407.9 191.755 407.814 192.008 407.806 192.269C407.807 192.447 407.762 192.621 407.677 192.777C407.591 192.933 407.468 193.065 407.318 193.161C407.157 193.272 406.966 193.334 406.77 193.339C406.556 193.339 406.33 193.41 406.115 193.47C406.566 193.606 407.046 193.606 407.497 193.47C407.735 193.373 407.939 193.209 408.085 192.997C408.231 192.786 408.312 192.537 408.319 192.281C408.325 192.103 408.375 191.93 408.465 191.777C408.554 191.624 408.68 191.495 408.831 191.401C409.002 191.304 409.194 191.251 409.391 191.246C409.617 191.27 409.831 191.246 410.058 191.151Z" fill="white"/>
<path d="M438.823 188.203C439.186 188.309 439.565 188.349 439.942 188.322C439.942 188.215 439.883 188.108 439.847 187.989C439.73 188.038 439.605 188.066 439.478 188.072C439.263 188.12 439.037 188.144 438.823 188.203Z" fill="white"/>
<path d="M433.808 195.087C433.358 194.936 432.876 194.912 432.414 195.015C432.169 195.107 431.957 195.268 431.805 195.48C431.652 195.692 431.566 195.944 431.556 196.204C431.559 196.381 431.517 196.555 431.433 196.711C431.35 196.867 431.228 196.999 431.08 197.096C430.914 197.206 430.72 197.268 430.52 197.274C430.306 197.274 430.08 197.345 429.865 197.405C430.319 197.544 430.805 197.544 431.259 197.405C431.503 197.3 431.711 197.126 431.857 196.904C432.004 196.682 432.081 196.422 432.081 196.157C432.081 195.981 432.128 195.809 432.215 195.656C432.303 195.504 432.429 195.377 432.581 195.289C432.753 195.185 432.951 195.131 433.153 195.134C433.355 195.17 433.581 195.146 433.808 195.087Z" fill="white"/>
<path d="M399.123 173.247C398.675 173.091 398.191 173.066 397.729 173.175C397.485 173.267 397.273 173.428 397.12 173.64C396.968 173.852 396.881 174.104 396.872 174.364C396.874 174.542 396.832 174.718 396.749 174.876C396.665 175.034 396.544 175.169 396.395 175.268C396.227 175.373 396.034 175.434 395.836 175.446C395.621 175.446 395.395 175.517 395.181 175.577C395.635 175.715 396.12 175.715 396.574 175.577C396.819 175.472 397.027 175.298 397.173 175.076C397.319 174.854 397.397 174.594 397.396 174.328C397.397 174.153 397.443 173.98 397.531 173.828C397.619 173.676 397.744 173.549 397.896 173.461C398.07 173.358 398.266 173.3 398.468 173.294C398.687 173.29 398.906 173.274 399.123 173.247Z" fill="white"/>
<path d="M413.905 147.638C414.112 148.062 414.434 148.42 414.834 148.672C415.078 148.78 415.349 148.812 415.612 148.766C415.875 148.719 416.118 148.595 416.311 148.41C416.436 148.285 416.591 148.192 416.762 148.14C416.932 148.088 417.113 148.079 417.287 148.113C417.478 148.154 417.655 148.244 417.8 148.375C417.99 148.506 418.157 148.636 418.359 148.755C418.097 148.399 417.919 147.959 417.407 147.733C417.159 147.634 416.888 147.61 416.627 147.665C416.366 147.72 416.128 147.851 415.941 148.042C415.812 148.161 415.655 148.246 415.485 148.29C415.314 148.334 415.136 148.334 414.965 148.292C414.774 148.244 414.598 148.15 414.453 148.018C414.278 147.881 414.095 147.754 413.905 147.638Z" fill="white"/>
<path d="M379.697 172.688C379.959 173.044 380.137 173.472 380.626 173.71C380.868 173.824 381.139 173.861 381.404 173.817C381.668 173.772 381.912 173.648 382.103 173.461C382.303 173.268 382.569 173.16 382.847 173.16C383.125 173.16 383.392 173.268 383.592 173.461L384.151 173.841C383.947 173.414 383.619 173.058 383.21 172.819C382.964 172.72 382.694 172.695 382.433 172.748C382.173 172.801 381.934 172.929 381.745 173.116C381.619 173.239 381.462 173.328 381.291 173.374C381.12 173.419 380.94 173.421 380.769 173.377C380.577 173.326 380.401 173.228 380.257 173.092C380.066 172.937 379.899 172.795 379.697 172.688Z" fill="white"/>
<path d="M402.84 138.84C402.689 139.288 402.665 139.769 402.768 140.231C402.859 140.476 403.02 140.688 403.233 140.841C403.445 140.994 403.698 141.079 403.959 141.087C404.137 141.087 404.312 141.131 404.469 141.217C404.625 141.302 404.757 141.425 404.853 141.574C404.965 141.735 405.027 141.925 405.031 142.121C405.031 142.335 405.103 142.561 405.162 142.775C405.301 142.322 405.301 141.837 405.162 141.384C405.063 141.149 404.898 140.947 404.687 140.804C404.475 140.66 404.227 140.581 403.971 140.576C403.793 140.57 403.62 140.521 403.466 140.431C403.312 140.342 403.183 140.216 403.09 140.064C402.993 139.894 402.94 139.702 402.935 139.506C402.911 139.256 402.84 139.042 402.84 138.84Z" fill="white"/>
<path d="M408.08 177.539C407.93 177.983 407.905 178.46 408.009 178.918C408.1 179.163 408.261 179.376 408.473 179.531C408.685 179.685 408.938 179.774 409.2 179.786C409.377 179.782 409.552 179.824 409.709 179.907C409.865 179.99 409.997 180.112 410.093 180.261C410.209 180.42 410.271 180.612 410.272 180.808C410.272 181.034 410.343 181.248 410.403 181.474C410.561 181.026 410.582 180.542 410.462 180.083C410.357 179.839 410.183 179.631 409.961 179.485C409.738 179.339 409.478 179.262 409.212 179.262C409.034 179.262 408.86 179.214 408.708 179.124C408.555 179.034 408.429 178.906 408.342 178.751C408.238 178.583 408.18 178.39 408.175 178.192C408.164 177.978 408.14 177.753 408.08 177.539Z" fill="white"/>
<path d="M380.745 206.346C380.594 206.794 380.57 207.275 380.673 207.737C380.765 207.981 380.927 208.192 381.139 208.345C381.351 208.497 381.603 208.583 381.865 208.593C382.042 208.589 382.217 208.631 382.373 208.714C382.53 208.797 382.662 208.919 382.758 209.068C382.873 209.232 382.936 209.427 382.936 209.627C382.936 209.841 383.008 210.067 383.067 210.281C383.2 209.827 383.2 209.344 383.067 208.89C382.965 208.656 382.8 208.455 382.589 208.31C382.379 208.165 382.132 208.082 381.876 208.069C381.699 208.067 381.525 208.021 381.371 207.933C381.217 207.846 381.088 207.721 380.995 207.57C380.896 207.396 380.843 207.2 380.84 206.999C380.828 206.785 380.804 206.607 380.745 206.346Z" fill="white"/>
<path d="M429.46 178.918C429.316 179.367 429.291 179.847 429.388 180.309C429.48 180.553 429.642 180.764 429.854 180.917C430.066 181.069 430.318 181.155 430.579 181.165C430.759 181.165 430.936 181.209 431.094 181.294C431.252 181.379 431.386 181.502 431.485 181.652C431.592 181.815 431.653 182.004 431.663 182.199C431.663 182.413 431.663 182.639 431.782 182.865C431.927 182.412 431.927 181.926 431.782 181.474C431.684 181.237 431.519 181.034 431.308 180.888C431.097 180.743 430.848 180.661 430.591 180.653C430.415 180.648 430.243 180.598 430.091 180.509C429.939 180.42 429.812 180.294 429.722 180.142C429.621 179.973 429.563 179.781 429.555 179.583C429.543 179.357 429.519 179.143 429.46 178.918Z" fill="white"/>
<path d="M419.003 156.507C418.848 156.954 418.82 157.435 418.92 157.898C419.013 158.142 419.175 158.353 419.387 158.507C419.598 158.661 419.849 158.751 420.111 158.766C420.29 158.761 420.467 158.803 420.625 158.886C420.784 158.969 420.918 159.091 421.016 159.241C421.123 159.405 421.184 159.593 421.194 159.788C421.194 160.014 421.266 160.228 421.326 160.454C421.464 160.001 421.464 159.516 421.326 159.063C421.228 158.825 421.064 158.621 420.852 158.476C420.641 158.33 420.391 158.249 420.134 158.243C419.958 158.237 419.786 158.188 419.634 158.098C419.482 158.009 419.355 157.883 419.265 157.731C419.164 157.562 419.106 157.37 419.098 157.173C419.078 156.949 419.046 156.727 419.003 156.507Z" fill="white"/>
<path d="M388.392 161.203C388.241 161.652 388.216 162.133 388.32 162.594C388.41 162.839 388.572 163.052 388.784 163.204C388.997 163.357 389.25 163.442 389.511 163.45C389.689 163.449 389.865 163.493 390.021 163.578C390.177 163.664 390.309 163.787 390.404 163.938C390.516 164.098 390.579 164.289 390.583 164.484C390.583 164.698 390.655 164.924 390.714 165.138C390.853 164.685 390.853 164.201 390.714 163.747C390.615 163.512 390.45 163.311 390.239 163.167C390.027 163.024 389.779 162.944 389.523 162.939C389.345 162.932 389.172 162.882 389.018 162.793C388.865 162.704 388.735 162.579 388.642 162.428C388.545 162.257 388.491 162.065 388.487 161.869C388.475 161.643 388.451 161.429 388.392 161.203Z" fill="white"/>
<path d="M416.68 200.413C416.529 200.861 416.504 201.343 416.608 201.804C416.7 202.048 416.862 202.26 417.074 202.412C417.286 202.564 417.538 202.651 417.799 202.66C417.976 202.658 418.151 202.7 418.307 202.783C418.463 202.866 418.596 202.987 418.693 203.136C418.803 203.302 418.865 203.495 418.871 203.694C418.871 203.908 418.943 204.134 419.002 204.348C419.141 203.895 419.141 203.411 419.002 202.957C418.901 202.722 418.736 202.521 418.525 202.375C418.315 202.23 418.067 202.148 417.811 202.137C417.633 202.137 417.459 202.091 417.304 202.004C417.15 201.916 417.021 201.79 416.93 201.638C416.831 201.463 416.778 201.267 416.775 201.067C416.763 200.853 416.739 200.663 416.68 200.413Z" fill="white"/>
<path d="M426.661 206.346C426.523 206.819 426.523 207.322 426.661 207.796C426.754 208.039 426.917 208.25 427.128 208.402C427.34 208.554 427.592 208.641 427.852 208.652C428.031 208.65 428.207 208.692 428.365 208.775C428.524 208.858 428.658 208.979 428.758 209.128C428.863 209.296 428.924 209.488 428.936 209.686C428.964 209.906 429.004 210.125 429.055 210.34C429.2 209.888 429.2 209.402 429.055 208.949C428.953 208.715 428.788 208.514 428.577 208.369C428.367 208.224 428.12 208.141 427.864 208.129C427.688 208.128 427.516 208.082 427.363 207.994C427.211 207.907 427.084 207.781 426.995 207.63C426.892 207.457 426.834 207.26 426.828 207.059C426.78 206.785 426.757 206.607 426.661 206.346Z" fill="white"/>
<path d="M394.025 148.743C393.826 148.314 393.502 147.954 393.096 147.709C392.854 147.597 392.583 147.56 392.319 147.605C392.055 147.649 391.811 147.773 391.619 147.959C391.42 148.151 391.153 148.259 390.875 148.259C390.597 148.259 390.33 148.151 390.13 147.959C389.94 147.84 389.773 147.697 389.571 147.578C389.779 148.006 390.111 148.363 390.524 148.601C390.768 148.702 391.037 148.728 391.296 148.675C391.555 148.622 391.792 148.492 391.977 148.303C392.106 148.18 392.264 148.091 392.437 148.046C392.61 148 392.792 147.999 392.965 148.042C393.157 148.093 393.333 148.191 393.477 148.327C393.656 148.482 393.835 148.624 394.025 148.743Z" fill="white"/>
<path d="M411.487 166.268C411.288 165.838 410.964 165.478 410.558 165.233C410.316 165.121 410.045 165.085 409.781 165.129C409.517 165.174 409.273 165.297 409.081 165.483C408.881 165.676 408.615 165.783 408.337 165.783C408.059 165.783 407.792 165.676 407.592 165.483C407.402 165.364 407.235 165.221 407.033 165.103C407.237 165.533 407.57 165.891 407.985 166.125C408.23 166.226 408.499 166.252 408.758 166.199C409.017 166.146 409.254 166.017 409.439 165.828C409.565 165.705 409.722 165.616 409.893 165.57C410.064 165.524 410.244 165.523 410.415 165.566C410.611 165.615 410.792 165.714 410.939 165.852C411.118 166.006 411.297 166.184 411.487 166.268Z" fill="white"/>
<path d="M423.588 190.046C423.376 189.624 423.056 189.267 422.659 189.011C422.416 188.901 422.145 188.865 421.882 188.91C421.619 188.954 421.375 189.077 421.182 189.261C421.059 189.391 420.904 189.486 420.733 189.538C420.562 189.59 420.38 189.597 420.205 189.558C420.011 189.516 419.831 189.426 419.681 189.297C419.502 189.178 419.324 189.035 419.133 188.928C419.383 189.285 419.562 189.725 420.074 189.939C420.32 190.039 420.591 190.065 420.852 190.012C421.113 189.959 421.352 189.83 421.539 189.642C421.666 189.518 421.822 189.43 421.993 189.384C422.164 189.338 422.344 189.337 422.516 189.38C422.708 189.431 422.884 189.529 423.028 189.665C423.219 189.796 423.385 189.963 423.588 190.046Z" fill="white"/>
<path d="M394.954 187.585C394.739 187.166 394.419 186.809 394.025 186.55C393.781 186.441 393.51 186.408 393.246 186.454C392.983 186.501 392.74 186.626 392.548 186.812C392.422 186.937 392.267 187.029 392.097 187.081C391.926 187.133 391.746 187.143 391.571 187.109C391.378 187.067 391.197 186.977 391.047 186.848C390.872 186.71 390.689 186.583 390.499 186.467C390.704 186.894 391.032 187.25 391.44 187.49C391.688 187.589 391.959 187.612 392.22 187.557C392.481 187.502 392.719 187.371 392.905 187.181C393.033 187.058 393.19 186.971 393.361 186.928C393.532 186.884 393.712 186.885 393.882 186.931C394.073 186.979 394.249 187.072 394.394 187.204C394.573 187.342 394.76 187.469 394.954 187.585Z" fill="white"/>
<path d="M405.937 204.907C405.729 204.483 405.407 204.125 405.007 203.873C404.763 203.765 404.492 203.732 404.229 203.779C403.966 203.826 403.723 203.949 403.531 204.134C403.407 204.263 403.252 204.357 403.081 204.41C402.91 204.462 402.729 204.469 402.554 204.431C402.363 204.391 402.186 204.301 402.042 204.17C401.851 204.039 401.684 203.908 401.482 203.789C401.69 204.218 402.022 204.574 402.435 204.812C402.682 204.911 402.953 204.934 403.214 204.879C403.475 204.824 403.714 204.693 403.9 204.503C404.029 204.383 404.186 204.298 404.356 204.255C404.527 204.211 404.706 204.21 404.876 204.253C405.07 204.301 405.246 204.4 405.389 204.538C405.567 204.657 405.746 204.8 405.937 204.907Z" fill="white"/>
<path d="M440.538 201.483C440.788 201.851 440.979 202.291 441.491 202.505C441.735 202.607 442.004 202.632 442.263 202.579C442.522 202.526 442.759 202.397 442.944 202.208C443.053 202.099 443.188 202.022 443.337 201.982C443.337 201.828 443.254 201.661 443.218 201.495C442.982 201.55 442.765 201.664 442.587 201.828C442.464 201.958 442.309 202.054 442.138 202.106C441.967 202.159 441.784 202.165 441.61 202.125C441.418 202.087 441.241 201.996 441.098 201.863C440.955 201.744 440.74 201.602 440.538 201.483Z" fill="white"/>
<path d="M432.879 166.827C432.666 166.402 432.341 166.045 431.938 165.792C431.695 165.681 431.424 165.646 431.161 165.691C430.898 165.735 430.654 165.857 430.461 166.042C430.338 166.172 430.184 166.268 430.012 166.321C429.841 166.373 429.659 166.379 429.484 166.339C429.294 166.298 429.117 166.208 428.972 166.078C428.782 165.959 428.615 165.816 428.412 165.697C428.674 166.066 428.853 166.506 429.365 166.72C429.611 166.82 429.882 166.846 430.143 166.793C430.404 166.74 430.643 166.611 430.83 166.422C430.957 166.299 431.113 166.21 431.284 166.165C431.455 166.119 431.635 166.117 431.807 166.161C431.999 166.212 432.175 166.31 432.319 166.446C432.499 166.582 432.686 166.709 432.879 166.827Z" fill="white"/>
<path d="M380.84 198.82C381.365 195.812 381.746 193.458 382.186 190.498C382.627 187.537 383.08 184.47 383.473 181.45V181.248L383.342 181.058C381.829 178.762 380.744 176.212 380.138 173.532C379.821 172.204 379.669 170.843 379.685 169.478C379.67 168.115 379.854 166.757 380.233 165.447C381.06 162.78 382.12 160.19 383.401 157.708C384.664 155.199 385.7 153.095 387.106 150.646C387.344 150.265 387.189 150.182 386.975 150.479C385.557 152.488 384.009 155.235 382.794 157.387C381.347 159.85 380.15 162.45 379.221 165.15C378.77 166.545 378.537 168 378.53 169.466C378.502 170.922 378.654 172.375 378.982 173.793C379.62 176.632 380.801 179.32 382.46 181.712L382.365 181.319C382.02 184.351 381.734 187.383 381.448 190.414C381.174 193.137 380.864 196.085 380.674 198.82C380.674 199.069 380.662 199.925 380.84 198.82Z" fill="#3952A0"/>
<path d="M384.544 152.905C383.963 153.794 383.488 154.748 383.127 155.746C382.94 156.242 382.789 156.75 382.674 157.268C382.537 157.788 382.465 158.323 382.46 158.861C382.912 157.886 383.329 156.935 383.651 155.948C384.04 154.963 384.339 153.944 384.544 152.905Z" fill="#3952A0"/>
<path d="M416.168 143.227C420.515 149.778 441.061 175.565 441.824 178.038C442.586 180.511 437.929 185.647 437.976 186.657C438.155 190.759 448.506 215.465 452.174 212.813C456.939 209.377 474.221 187.704 471.922 176.278C469.624 164.853 425.47 136.367 418.204 133.692C410.939 131.017 411.88 136.771 416.168 143.227Z" fill="#D4A29E"/>
<path d="M432.855 221.706C430.068 219.079 434.773 217.307 434.773 217.307C434.773 217.307 427.388 218.235 425.566 214.418C423.743 210.602 429.58 208.795 429.985 208.64C429.592 208.64 422.838 209.365 421.361 205.335C419.884 201.305 425.983 200.199 426.376 200.14C425.995 200.056 420.956 199.01 420.563 195.705C419.896 190.034 434.57 191.794 438.263 189C438.263 189 438.025 181.605 437.953 181.391C438.635 183.149 439.895 184.625 441.526 185.576C444.54 186.99 447.291 187.953 448.327 189.689C448.814 190.446 449.043 191.34 448.981 192.237C448.918 193.134 448.568 193.988 447.982 194.671C447.982 194.671 452.044 194.873 453.27 198C453.902 199.616 451.877 202.042 451.877 202.042C452.793 202.134 453.666 202.477 454.4 203.033C455.133 203.589 455.699 204.336 456.034 205.192C456.772 207.463 454.628 209.544 454.628 209.544C454.628 209.544 457.63 211.268 457.63 213.836C457.63 219.019 438.823 227.33 432.855 221.706Z" fill="#D4A29E"/>
<path d="M454.331 209.936C454.331 209.936 454.45 209.936 454.331 210.019C448.632 214.434 441.725 217.016 434.523 217.426C434.297 217.426 434.19 217.069 434.44 217.01C441.379 215.628 448.079 213.245 454.331 209.936Z" fill="#C18C88"/>
<path d="M451.972 202.042C452.043 202.042 452.103 202.113 452.043 202.173C445.692 206.987 437.826 209.378 429.865 208.914C429.579 208.914 429.353 208.581 429.674 208.593C435.094 208.652 446.147 205.228 451.972 202.042Z" fill="#C18C88"/>
<path d="M425.828 199.89C433.618 200.27 440.74 198.13 447.744 194.873C447.839 194.873 447.887 194.956 447.827 195.015C444.838 197.548 440.157 199.153 436.405 200.104C432.941 201.045 429.29 201.065 425.816 200.163C425.685 200.128 425.661 199.878 425.828 199.89Z" fill="#C18C88"/>
<path d="M454.83 209.568C455.56 209.029 456.127 208.301 456.469 207.462C456.812 206.623 456.916 205.706 456.772 204.812C456.547 203.931 456.004 203.164 455.247 202.66C454.341 202.176 453.332 201.915 452.305 201.899C452.991 201.203 453.451 200.317 453.623 199.355C453.795 198.394 453.672 197.403 453.27 196.513C452.801 195.724 452.046 195.145 451.161 194.897C450.138 194.635 449.085 194.507 448.029 194.516C448.542 194.08 448.946 193.531 449.209 192.912C449.471 192.292 449.585 191.62 449.542 190.949C449.469 190.214 449.221 189.507 448.819 188.886C448.418 188.266 447.873 187.75 447.231 187.383C445.726 186.543 444.127 185.885 442.467 185.421C441.632 185.146 440.833 184.775 440.084 184.315C439.288 183.765 438.667 182.997 438.298 182.104C438.226 181.949 438.214 182.104 438.298 182.235C438.533 182.844 438.867 183.41 439.286 183.911C439.73 184.437 440.243 184.901 440.811 185.29C442.242 186.117 443.736 186.833 445.278 187.43C446.616 188.033 447.72 189.056 448.422 190.343C448.724 191.015 448.833 191.759 448.736 192.489C448.64 193.22 448.341 193.909 447.874 194.48C447.864 194.496 447.857 194.514 447.856 194.533C447.855 194.552 447.859 194.571 447.867 194.588C447.876 194.605 447.889 194.619 447.904 194.63C447.92 194.64 447.939 194.646 447.957 194.647C448.897 194.783 449.814 195.043 450.685 195.42C451.41 195.738 452.02 196.269 452.436 196.941C452.79 197.759 452.923 198.655 452.82 199.54C452.718 200.425 452.384 201.267 451.852 201.982C452.844 202.212 453.787 202.615 454.639 203.171C455.2 203.624 455.614 204.232 455.831 204.919C456.067 205.697 456.081 206.526 455.87 207.312C455.66 208.097 455.233 208.809 454.639 209.365C454.637 209.385 454.637 209.405 454.639 209.425C454.639 209.425 454.639 209.425 454.639 209.484C454.639 209.484 455.58 210.067 455.64 210.079C455.7 210.091 455.64 210.079 455.64 210.079C455.383 209.888 455.113 209.717 454.83 209.568Z" fill="#C18C88"/>
<path d="M427.317 159.134L445.528 149.064C445.528 149.064 426.971 136.771 418.348 133.24C409.724 129.709 409.534 138.043 427.317 159.134Z" fill="#3952A0"/>
<path d="M409.259 129.257C412.154 130.446 412.964 132.515 412.058 134.94C411.058 137.663 402.684 142.953 399.207 141.17C396.205 139.624 398.802 132.455 400.398 130.838C401.603 129.818 403.059 129.134 404.615 128.856C406.171 128.578 407.774 128.717 409.259 129.257Z" fill="#3952A0"/>
<path d="M411.178 134.31C410.737 135.297 404.507 141.016 399.838 139.874C398.314 139.494 399.993 131.124 399.993 131.124V130.47L399.755 121.422L411.178 116.881L412.821 116.31C412.821 116.31 412.726 118.783 412.571 121.874C412.571 122.017 412.571 122.16 412.571 122.314C412.571 122.469 412.571 122.647 412.571 122.813C412.571 123.277 412.571 123.753 412.512 124.216C412.452 124.68 412.512 124.918 412.428 125.298C412.345 125.679 412.428 126.035 412.345 126.416C412.141 129.071 411.751 131.709 411.178 134.31Z" fill="#D4A29E"/>
<path d="M412.619 121.874C411.27 124.146 409.44 126.097 407.257 127.59C405.074 129.083 402.591 130.082 399.981 130.518L399.743 121.47L411.178 116.881L412.821 116.31C412.821 116.31 412.774 118.783 412.619 121.874Z" fill="#C18C88"/>
<path d="M389.13 107.441C386.855 123.17 396.027 126.297 399.433 126.784C402.518 127.224 413.071 128.342 416.966 112.934C420.861 97.5254 414.25 91.5333 407.247 90.1185C400.243 88.7037 391.405 91.7117 389.13 107.441Z" fill="#D4A29E"/>
<path d="M393.311 103.66C393.677 103.66 394.043 103.637 394.407 103.589C394.798 103.624 395.189 103.523 395.514 103.303C395.605 103.218 395.664 103.105 395.681 102.981C395.699 102.858 395.673 102.733 395.61 102.626C395.457 102.427 395.254 102.274 395.021 102.181C394.788 102.089 394.535 102.062 394.287 102.103C393.776 102.103 393.283 102.293 392.906 102.638C392.826 102.722 392.772 102.826 392.75 102.94C392.728 103.053 392.739 103.17 392.782 103.278C392.824 103.385 392.897 103.478 392.99 103.546C393.084 103.614 393.195 103.653 393.311 103.66Z" fill="#3A3532"/>
<path d="M403.887 105.61C403.539 105.501 403.198 105.374 402.863 105.229C402.478 105.148 402.131 104.944 401.874 104.647C401.815 104.536 401.794 104.409 401.813 104.284C401.832 104.16 401.891 104.045 401.981 103.957C402.186 103.814 402.425 103.727 402.674 103.706C402.923 103.685 403.173 103.731 403.399 103.838C403.894 103.982 404.319 104.304 404.59 104.742C404.646 104.847 404.67 104.966 404.658 105.085C404.647 105.203 404.601 105.315 404.526 105.408C404.451 105.5 404.351 105.569 404.237 105.605C404.124 105.641 404.002 105.643 403.887 105.61Z" fill="#3A3532"/>
<path d="M401.816 108.166C403.555 108.333 403.114 111.792 401.494 111.638C399.874 111.483 400.363 108.035 401.816 108.166Z" fill="#131923"/>
<path d="M402.471 108.44C402.757 108.678 403.007 109.058 403.364 109.141C403.721 109.224 404.15 108.915 404.472 108.606C404.388 109.272 404.043 109.914 403.281 109.926C402.518 109.938 402.232 109.284 402.09 108.594C402.232 108.511 402.363 108.345 402.471 108.44Z" fill="#131923"/>
<path d="M393.966 106.644C392.251 106.3 391.691 109.747 393.276 110.068C394.86 110.389 395.396 106.93 393.966 106.644Z" fill="#131923"/>
<path d="M393.204 106.739C392.906 106.882 392.573 107.167 392.251 107.144C391.929 107.12 391.644 106.68 391.465 106.288C391.334 106.942 391.465 107.655 392.061 107.893C392.656 108.13 393.132 107.595 393.395 106.965C393.395 106.894 393.311 106.739 393.204 106.739Z" fill="#131923"/>
<path d="M395.8 113.326C395.8 113.326 395.359 114.895 395.252 115.704C395.252 115.775 395.419 115.835 395.669 115.894C396.301 116.101 396.978 116.132 397.627 115.983C398.275 115.834 398.871 115.512 399.349 115.05C399.361 115.036 399.368 115.018 399.369 114.999C399.37 114.981 399.364 114.962 399.353 114.947C399.342 114.932 399.326 114.921 399.308 114.916C399.291 114.911 399.271 114.912 399.254 114.919C398.197 115.444 396.998 115.614 395.836 115.407C395.836 115.181 396.693 112.743 396.574 112.72C395.979 112.688 395.382 112.736 394.799 112.862C395.633 109.569 397.003 106.43 397.777 103.137C397.778 103.115 397.772 103.093 397.759 103.074C397.747 103.055 397.729 103.041 397.708 103.033C397.687 103.025 397.664 103.024 397.642 103.03C397.62 103.036 397.601 103.048 397.587 103.066C396.027 106.38 394.802 109.841 393.93 113.397C393.847 113.754 395.478 113.409 395.8 113.326Z" fill="#C18C88"/>
<path d="M416.978 111.65C413.238 111.388 413.726 105.515 413.726 105.515C413.726 105.515 409.51 104.802 409.736 97.9535C408.804 99.2603 407.581 100.334 406.164 101.089C404.746 101.844 403.172 102.26 401.565 102.305C400.374 102.388 404.65 99.5586 404.65 99.5586C404.65 99.5586 399.421 103.601 390.488 101.223C389.857 101.057 391.334 90.6299 398.707 87.9311C406.08 85.2323 413 88.5493 417.014 93.3644C417.014 93.3644 422.04 96.1583 422.243 101.14C422.445 106.121 418.431 111.745 416.978 111.65Z" fill="#473F36"/>
<path d="M402.84 115.24C403.796 115.295 404.749 115.081 405.59 114.622C406.431 114.163 407.126 113.478 407.596 112.645C408.066 111.812 408.293 110.863 408.25 109.908C408.207 108.952 407.897 108.028 407.354 107.24C406.811 106.452 406.057 105.831 405.179 105.449C404.301 105.067 403.332 104.939 402.384 105.079C401.437 105.219 400.547 105.621 399.817 106.24C399.087 106.86 398.545 107.671 398.254 108.582C398.014 109.325 397.948 110.113 398.061 110.885C398.174 111.658 398.463 112.394 398.906 113.037C399.349 113.68 399.934 114.213 400.616 114.595C401.298 114.977 402.059 115.198 402.84 115.24ZM403.399 105.729C404.323 105.784 405.206 106.126 405.926 106.706C406.646 107.287 407.166 108.077 407.414 108.967C407.662 109.857 407.625 110.802 407.309 111.67C406.993 112.538 406.414 113.286 405.651 113.809C404.889 114.333 403.982 114.605 403.057 114.589C402.132 114.573 401.234 114.27 400.491 113.72C399.747 113.171 399.194 112.403 398.908 111.525C398.622 110.646 398.618 109.701 398.897 108.82C399.189 107.882 399.785 107.066 400.591 106.503C401.397 105.939 402.368 105.658 403.352 105.705L403.399 105.729Z" fill="#6D90FF"/>
<path d="M391.214 113.136C393.168 113.255 395.061 111.352 395.538 108.725C395.777 107.471 395.619 106.175 395.085 105.015C394.888 104.503 394.561 104.05 394.136 103.701C393.712 103.352 393.204 103.118 392.662 103.022C392.121 102.927 391.564 102.972 391.045 103.155C390.526 103.337 390.063 103.651 389.702 104.064C388.804 104.971 388.212 106.135 388.01 107.393C387.522 110.175 388.808 112.731 390.881 113.1C390.99 113.124 391.102 113.136 391.214 113.136ZM392.286 103.624H392.548C392.988 103.724 393.396 103.93 393.737 104.224C394.078 104.519 394.34 104.893 394.502 105.313C394.964 106.345 395.097 107.495 394.883 108.606C394.454 110.984 392.727 112.731 391.024 112.422C389.32 112.113 388.284 109.926 388.713 107.512C388.892 106.396 389.412 105.362 390.202 104.552C390.47 104.269 390.793 104.044 391.152 103.891C391.51 103.737 391.896 103.659 392.286 103.66V103.624Z" fill="#6D90FF"/>
<path d="M398.266 109.2L398.79 108.761C398.147 107.976 396.527 106.811 395.062 107.905L395.467 108.451C396.777 107.465 398.206 109.117 398.266 109.2Z" fill="#6D90FF"/>
<path d="M420.539 114.456L421.194 114.253C421.099 113.956 420.218 111.269 418.812 110.758C417.407 110.247 408.247 109.569 407.854 109.498V110.187C410.498 110.401 417.585 111.031 418.645 111.376C419.705 111.721 420.301 113.718 420.539 114.456Z" fill="#6D90FF"/>
<path d="M414.286 113.778C414.286 113.778 418.038 109.022 420.242 110.39C422.445 111.757 419.408 118.783 416.668 119.615C416.326 119.754 415.959 119.822 415.59 119.813C415.22 119.804 414.857 119.72 414.522 119.565C414.186 119.41 413.887 119.188 413.641 118.912C413.396 118.636 413.21 118.313 413.095 117.963L414.286 113.778Z" fill="#D4A29E"/>
<path d="M416.68 95.4925C414.429 93.7091 409.629 81.1425 420.48 75.6141C431.331 70.0857 443.337 84.1504 435.285 93.828C429.866 100.319 421.445 99.2732 416.68 95.4925Z" fill="#473F36"/>
<path d="M55.1367 348.835C46.5847 331.287 31.6246 322.287 14.7707 327.257C-2.08325 332.226 -4.70364 355.707 7.88618 361.628C20.476 367.549 33.0539 350.25 39.7002 346.695C46.3465 343.14 55.1367 348.835 55.1367 348.835Z" fill="#6D90FF"/>
<path d="M63.379 395.523C63.379 393.407 63.2479 391.291 63.1765 389.175C63.0216 384.954 62.8787 380.733 62.7239 376.513C62.438 368.797 61.6042 361.212 58.4002 354.09C55.5703 347.636 50.8382 342.195 44.8337 338.492C42.6006 337.153 40.1967 336.121 37.6872 335.424C35.4108 333.127 32.5138 331.541 29.3495 330.859C25.4272 330.066 21.3958 329.965 17.4386 330.562C17.2957 330.562 17.2957 330.811 17.4386 330.788C21.1947 330.313 25.0078 330.584 28.6587 331.584C30.2235 332.015 31.7401 332.605 33.1848 333.344C34.0912 333.834 34.9628 334.387 35.7933 334.996C32.3918 334.291 28.8782 334.324 25.4904 335.092C24.2696 335.392 23.0747 335.79 21.9171 336.28C20.9939 336.083 20.0494 336.004 19.1062 336.043C17.8759 336.086 16.654 336.261 15.4614 336.566C13.0208 337.255 10.685 338.271 8.51738 339.586C8.39828 339.657 8.51739 339.847 8.6365 339.776C10.7658 338.617 13.047 337.76 15.4138 337.232C16.5581 336.971 17.7209 336.8 18.8918 336.72C19.5345 336.685 20.1786 336.685 20.8213 336.72C16.0158 338.931 12.1533 342.774 9.92286 347.563C9.86331 347.694 10.0658 347.801 10.1134 347.67C11.442 344.892 13.3821 342.449 15.789 340.524C18.1959 338.599 21.0074 337.242 24.0135 336.554C24.3827 336.459 24.7639 336.411 25.1331 336.328C25.0021 336.875 25.0259 337.517 24.9544 338.028C24.8472 338.884 24.7043 339.728 24.5256 340.572C24.1826 342.313 23.7251 344.028 23.1559 345.708C22.5841 347.411 21.9038 349.074 21.1191 350.69C20.3524 352.379 19.3932 353.975 18.2605 355.446C18.1652 355.564 18.3558 355.707 18.4391 355.576C19.4516 353.995 20.6308 352.533 21.5598 350.821C22.4465 349.253 23.211 347.619 23.8467 345.934C24.4893 344.222 24.9913 342.461 25.3475 340.667C25.5381 339.728 25.681 338.777 25.7882 337.814C25.9071 337.244 25.9432 336.659 25.8954 336.078C27.8669 335.78 29.8689 335.74 31.8508 335.959C31.1004 340.144 30.2905 344.496 27.944 348.134C27.8726 348.253 28.0751 348.372 28.1465 348.241C29.2454 346.327 30.2125 344.341 31.0409 342.296C31.8557 340.347 32.3968 338.294 32.6489 336.197C36.1281 336.663 39.487 337.785 42.5468 339.502C48.3077 342.85 52.9078 347.873 55.7321 353.9C58.7005 360.389 60.3599 367.398 60.6156 374.527C61.1754 383.492 61.2946 392.504 62.1879 401.444C62.2474 402.027 63.1765 402.229 63.2837 401.563C63.509 399.557 63.5409 397.535 63.379 395.523Z" fill="#41507E"/>
<path d="M43.6548 337.089C43.0906 336.407 42.4377 335.803 41.7133 335.294C41.0105 334.723 40.2959 334.164 39.5455 333.653C38.0611 332.641 36.419 331.882 34.6859 331.406C34.6574 331.398 34.627 331.402 34.6013 331.416C34.5757 331.431 34.5568 331.455 34.5489 331.483C34.541 331.512 34.5447 331.542 34.5592 331.568C34.5737 331.593 34.5979 331.612 34.6263 331.62C36.3636 332.071 37.9867 332.881 39.3906 333.998C40.1053 334.521 40.7842 335.08 41.4512 335.662C42.0495 336.281 42.7078 336.838 43.4165 337.327C43.4322 337.342 43.4508 337.355 43.4712 337.363C43.4916 337.372 43.5135 337.376 43.5357 337.376C43.5578 337.376 43.5797 337.372 43.6001 337.363C43.6206 337.355 43.6391 337.342 43.6548 337.327C43.6704 337.311 43.6828 337.292 43.6913 337.272C43.6997 337.252 43.7041 337.23 43.7041 337.208C43.7041 337.186 43.6997 337.164 43.6913 337.143C43.6828 337.123 43.6704 337.104 43.6548 337.089Z" fill="#41507E"/>
<path d="M16.3673 343.45C14.954 345.09 13.6452 346.817 12.4486 348.621C11.281 350.443 10.3032 352.379 9.53043 354.399C9.53043 354.459 9.60189 354.494 9.63762 354.399C11.5941 350.583 13.9029 346.957 16.5341 343.568C16.6293 343.485 16.4626 343.331 16.3673 343.45Z" fill="#41507E"/>
<path d="M34.7932 341.714C34.6155 342.81 34.291 343.878 33.8284 344.888C33.3609 345.863 32.8194 346.801 32.2085 347.694C32.2085 347.753 32.2085 347.813 32.3038 347.765C33.777 346.071 34.7211 343.984 35.0195 341.761C34.9957 341.619 34.7932 341.571 34.7932 341.714Z" fill="#41507E"/>
<path d="M62.1881 349.275C62.1881 349.275 74.2896 334.093 97.6469 339.467C119.861 344.591 130.104 385.227 107.664 390.09C85.2238 394.953 89.1782 357.348 81.0073 350.963C75.04 346.267 66.4165 347.278 62.1881 349.275Z" fill="#6D90FF"/>
<path opacity="0.1" d="M62.1881 349.275C62.1881 349.275 74.2896 334.093 97.6469 339.467C119.861 344.591 130.104 385.227 107.664 390.09C85.2238 394.953 89.1782 357.348 81.0073 350.963C75.04 346.267 66.4165 347.278 62.1881 349.275Z" fill="black"/>
<path d="M115.727 361.652C114.221 360.325 112.629 359.098 110.963 357.978C109.379 356.892 107.651 356.032 105.83 355.422C103.264 351.498 99.8025 348.238 95.7291 345.911C95.9592 345.899 96.1898 345.899 96.4199 345.911C97.6578 345.845 98.8982 345.845 100.136 345.911C102.628 346.063 105.071 346.672 107.342 347.706C107.473 347.706 107.569 347.551 107.437 347.504C105.147 346.505 102.749 345.775 100.291 345.328C99.0875 345.118 97.8679 345.015 96.6462 345.019C95.9911 345.019 95.3241 345.019 94.6809 345.138H94.2998C92.1568 344.063 89.8993 343.234 87.5701 342.665L88.2133 342.498C89.356 342.238 90.5135 342.047 91.6794 341.928C94.0047 341.66 96.3551 341.696 98.6711 342.035C98.6949 342.027 98.7156 342.012 98.7304 341.991C98.7451 341.971 98.753 341.947 98.753 341.922C98.753 341.897 98.7451 341.872 98.7304 341.852C98.7156 341.832 98.6949 341.817 98.6711 341.809C96.3278 341.529 93.9662 341.434 91.6079 341.523C89.6306 341.589 87.6642 341.843 85.7358 342.284C84.3262 342.032 82.902 341.869 81.4717 341.797C73.3247 341.464 64.451 344.496 59.4366 351.177C54.4221 357.859 53.4811 366.8 52.5521 374.86C51.1836 386.105 50.8845 397.455 51.6587 408.756C51.6587 409.422 52.6474 409.303 52.6712 408.673C52.9689 399.09 53.3144 389.508 54.2315 379.949C54.6603 375.526 55.1248 371.091 55.8633 366.704C56.3983 362.934 57.4817 359.261 59.0792 355.802C60.8208 352.271 63.5624 349.328 66.9643 347.337C70.388 345.383 74.2043 344.214 78.1367 343.913C81.6608 343.621 85.2088 343.952 88.6183 344.888C88.4978 345.571 88.4777 346.268 88.5587 346.957C88.6327 347.821 88.8045 348.675 89.0709 349.501C89.3275 350.282 89.6544 351.038 90.0476 351.76C90.4883 352.568 91.0243 353.282 91.5126 354.043C91.5841 354.173 91.7866 354.043 91.6913 353.924C90.7029 352.547 90.0615 350.952 89.8213 349.275C89.6784 348.489 89.5829 347.695 89.5354 346.897C89.5354 346.291 89.5354 345.708 89.5354 345.09C93.242 346.226 96.7009 348.049 99.7311 350.464C100.303 350.928 100.851 351.403 101.387 351.903C100.618 352.597 99.9522 353.398 99.4095 354.28C98.6092 355.446 97.9118 356.68 97.3251 357.966C96.2452 360.564 95.5201 363.295 95.1693 366.086C95.1693 366.229 95.3717 366.265 95.3837 366.086C95.8154 363.392 96.7142 360.793 98.0398 358.406C98.6592 357.223 99.3513 356.079 100.112 354.982C100.505 354.423 100.922 353.864 101.303 353.329C101.53 353.044 101.792 352.747 102.006 352.438C104.763 355.165 107.01 358.362 108.64 361.877C107.541 363.043 106.621 364.365 105.913 365.801C105.072 367.304 104.34 368.866 103.721 370.473C102.589 373.581 101.658 376.758 100.934 379.984C100.934 380.115 101.125 380.163 101.149 379.984C101.857 376.736 102.97 373.589 104.46 370.616C105.159 369.15 105.897 367.711 106.675 366.3C107.483 364.983 108.214 363.622 108.867 362.222C110.43 365.625 111.335 369.291 111.535 373.029C111.535 373.172 111.773 373.148 111.761 373.029C111.333 367.173 109.538 361.497 106.52 356.456C107.938 357.062 109.379 357.645 110.749 358.382C112.505 359.313 114.138 360.459 115.608 361.794C115.692 361.925 115.787 361.747 115.727 361.652Z" fill="#41507E"/>
<path d="M98.5997 362.519C97.897 364.814 97.0155 367.049 96.3842 369.379C95.7372 371.61 95.3888 373.917 95.3479 376.239C95.3479 376.299 95.4551 376.299 95.4551 376.239C96.0921 371.582 97.2139 367.004 98.8022 362.579C98.8092 362.565 98.813 362.549 98.8134 362.534C98.8138 362.518 98.8108 362.503 98.8046 362.488C98.7983 362.474 98.789 362.461 98.7772 362.451C98.7654 362.44 98.7516 362.433 98.7365 362.428C98.7215 362.424 98.7057 362.423 98.6902 362.425C98.6747 362.428 98.6599 362.433 98.6468 362.442C98.6338 362.451 98.6228 362.462 98.6147 362.476C98.6065 362.489 98.6014 362.504 98.5997 362.519Z" fill="#41507E"/>
<path d="M113.404 356.801C112.486 355.92 111.443 355.179 110.308 354.601C109.156 354.075 107.96 353.65 106.734 353.329C106.591 353.329 106.544 353.52 106.734 353.555C107.944 353.87 109.106 354.345 110.189 354.97C111.291 355.542 112.35 356.194 113.357 356.92C113.37 356.919 113.383 356.914 113.394 356.906C113.404 356.898 113.413 356.888 113.418 356.875C113.423 356.863 113.424 356.849 113.422 356.836C113.419 356.823 113.413 356.811 113.404 356.801Z" fill="#41507E"/>
<path d="M73.7177 328.981C73.7177 328.981 75.957 301.707 96.2769 292.862C113.238 285.479 122.957 304.501 110.963 316.152C101.256 325.58 85.7001 321.324 73.7177 328.981Z" fill="#6D90FF"/>
<path opacity="0.1" d="M73.7177 328.981C73.7177 328.981 75.957 301.707 96.2769 292.862C113.238 285.479 122.957 304.501 110.963 316.152C101.256 325.58 85.7001 321.324 73.7177 328.981Z" fill="black"/>
<path d="M107.199 298.152C104.11 299.401 101.096 300.826 98.1707 302.421C95.7376 303.823 93.3946 305.376 91.1552 307.069C91.4887 306.38 91.7865 305.666 92.12 304.989C92.6559 303.93 93.2157 302.908 93.847 301.909C95.0983 299.844 96.6028 297.943 98.3255 296.25C98.4327 296.155 98.3255 295.989 98.1588 296.096C96.4456 297.789 94.8722 299.618 93.454 301.564C92.7508 302.556 92.1065 303.588 91.5244 304.656C90.9231 305.633 90.4621 306.689 90.1547 307.794L89.9284 307.961C86.3809 310.798 83.1288 313.984 80.221 317.472C80.2806 317.21 80.3401 316.937 80.4116 316.687C80.7927 315.356 81.1977 314.048 81.6026 312.728C82.4793 309.931 83.7123 307.258 85.2712 304.775C85.3546 304.656 85.1521 304.537 85.0806 304.668C83.4849 307.15 82.064 309.74 80.8284 312.419C80.2645 313.732 79.7948 315.082 79.423 316.461C79.1282 317.353 78.909 318.268 78.7679 319.196C77.8746 320.313 77.0051 321.443 76.1832 322.608C67.4645 335.008 63.0813 349.953 62.0331 364.992C61.7255 369.468 61.65 373.956 61.8068 378.439C61.8396 382.958 62.2379 387.466 62.9979 391.921C63.0574 392.206 63.4981 392.123 63.4862 391.85C63.3909 387.903 62.9741 383.979 62.9026 380.032C62.8311 376.085 62.9622 372.126 63.2838 368.143C63.9281 360.272 65.4135 352.492 67.7146 344.936C70.0874 337.197 73.5826 329.847 78.089 323.119C78.9346 322.953 79.7922 322.715 80.626 322.501L83.6275 321.693C85.5767 321.184 87.4716 320.488 89.2852 319.612C89.4162 319.553 89.2852 319.35 89.1661 319.422C87.3753 320.395 85.4354 321.066 83.425 321.407C81.8409 321.716 80.1853 321.93 78.5892 322.287C80.0661 320.147 81.6543 318.082 83.3535 316.093C87.2257 316.446 91.1296 316.156 94.9071 315.237C96.9297 314.75 98.9189 314.135 100.863 313.394C102.899 312.609 104.829 311.599 106.818 310.767C106.973 310.707 106.818 310.481 106.735 310.564C103.096 312.546 99.1229 313.844 95.0143 314.393C91.3861 314.973 87.7188 315.275 84.0444 315.296C85.4975 313.644 86.9864 312.039 88.5705 310.541C93.9066 305.476 100.255 300.804 107.282 298.378C107.449 298.307 107.33 298.152 107.199 298.152Z" fill="#41507E"/>
<path d="M90.6673 298.224C89.7539 299.377 88.9222 300.593 88.178 301.862C87.4174 303.197 86.8177 304.618 86.3914 306.094C86.3914 306.094 86.4509 306.166 86.4628 306.094C87.1417 304.751 87.7135 303.36 88.4043 302.028C89.0601 300.716 89.859 299.48 90.7864 298.343C90.9175 298.271 90.7745 298.153 90.6673 298.224Z" fill="#41507E"/>
<path d="M109.557 307.307C108.238 308.034 106.845 308.616 105.4 309.043C104.008 309.523 102.588 309.92 101.148 310.232V310.351C102.644 310.191 104.118 309.868 105.543 309.388C106.951 308.861 108.324 308.246 109.653 307.545C109.831 307.438 109.688 307.236 109.557 307.307Z" fill="#41507E"/>
<path d="M57.9247 324.07C57.8056 325.259 54.8517 314.167 37.6762 304.323C22.073 295.394 3.45623 272.151 18.7498 257.468C31.1014 245.615 63.63 271.45 57.9247 324.07Z" fill="#6D90FF"/>
<path d="M69.751 387.617C69.5028 376.082 68.5921 364.57 67.0234 353.139C65.6803 342.632 63.2616 332.29 59.8054 322.275C58.531 318.708 57.0659 315.142 55.4818 311.575C55.5715 310.216 55.5476 308.852 55.4103 307.497C55.3269 305.749 55.1721 304.002 55.0054 302.266C54.8386 300.53 54.6719 298.782 54.4575 297.047C54.2431 295.311 53.8857 293.575 53.8143 291.839C53.8143 291.685 53.5522 291.72 53.5999 291.839C53.9394 293.665 54.1424 295.512 54.2073 297.368C54.3383 299.044 54.4336 300.732 54.4932 302.421C54.5527 304.109 54.4932 305.797 54.4932 307.485C54.4932 308.092 54.4932 308.734 54.4336 309.387C52.8137 305.975 51.0867 302.623 49.2048 299.353C50.3958 292.22 48.8593 284.813 47.4062 277.858C47.4062 277.727 47.168 277.786 47.1918 277.929C47.9083 281.56 48.2871 285.25 48.3233 288.95C48.3948 291.863 48.2519 294.788 48.24 297.701C47.835 296.999 47.4181 296.298 47.0489 295.608C44.8176 291.986 42.4354 288.439 39.9024 284.967C40.1033 283.281 40.0471 281.573 39.7356 279.903C39.4503 278.029 39.0324 276.177 38.485 274.362C37.9371 272.543 37.2939 270.796 36.5792 269.012C35.8646 267.229 34.8521 265.505 34.1256 263.698C34.1229 263.682 34.1165 263.667 34.107 263.654C34.0976 263.64 34.0852 263.629 34.0708 263.622C34.0565 263.614 34.0406 263.61 34.0243 263.609C34.008 263.608 33.9918 263.611 33.9769 263.618C33.962 263.624 33.9488 263.634 33.9382 263.647C33.9277 263.659 33.9201 263.674 33.916 263.689C33.912 263.705 33.9116 263.722 33.9149 263.737C33.9182 263.753 33.9251 263.768 33.935 263.781C34.8408 265.495 35.5596 267.3 36.0789 269.167C36.6491 270.918 37.1184 272.7 37.4845 274.505C37.8537 276.3 38.1515 278.072 38.4016 279.938C38.5683 281.127 38.6755 282.399 38.878 283.612C35.2027 278.682 31.1869 274.014 26.8599 269.643C26.7527 269.536 26.6098 269.702 26.7051 269.797C33.251 277.145 39.0968 285.085 44.1664 293.516C44.357 293.837 44.5357 294.158 44.7143 294.479C43.7734 293.884 42.6895 293.409 41.7962 292.921C40.1287 291.994 38.4572 291.078 36.7817 290.175L31.9221 287.512C31.0883 287.048 30.2664 286.572 29.4208 286.144C28.4056 285.686 27.4296 285.145 26.5026 284.528C26.3716 284.432 26.2406 284.635 26.3716 284.706C28.0272 285.609 29.4922 286.965 31.1359 287.975C32.7796 288.986 34.3042 290.068 35.9837 291.019C39.0329 292.719 42.356 293.944 45.3575 295.703C47.438 299.349 49.3636 303.078 51.1343 306.891C49.3159 305.726 47.4578 304.616 45.56 303.562C44.3689 302.884 43.1779 302.207 41.8796 301.565C40.6539 300.997 39.4953 300.295 38.4254 299.472C38.4025 299.461 38.3766 299.458 38.3516 299.462C38.3266 299.467 38.3038 299.48 38.2865 299.498C38.2692 299.517 38.2583 299.541 38.2555 299.566C38.2526 299.591 38.2579 299.616 38.2706 299.638C40.269 301.435 42.486 302.972 44.8692 304.216C47.0727 305.512 49.3119 306.748 51.5988 307.878C53.445 311.884 55.1006 315.986 56.5776 320.147C63.8075 340.584 66.4636 362.282 67.7381 383.825C68.1073 390.256 68.3098 396.665 68.3813 403.108C68.4527 409.552 68.1311 415.949 68.143 422.369C68.143 422.559 68.4527 422.606 68.4766 422.369C69.2508 416.674 69.3937 410.884 69.6676 405.142C69.9416 399.399 69.882 393.455 69.751 387.617Z" fill="#41507E"/>
<path d="M38.5454 295.085C35.4042 293.691 32.3531 292.102 29.4098 290.329C26.4266 288.649 23.5323 286.815 20.7386 284.837C20.7386 284.837 20.6433 284.837 20.679 284.92C23.3225 287.041 26.1082 288.98 29.0167 290.722C32.0636 292.423 35.2143 293.932 38.4502 295.24C38.5693 295.335 38.6765 295.144 38.5454 295.085Z" fill="#41507E"/>
<path d="M43.524 271.997C43.262 270.998 42.9523 270.023 42.6069 269.048C42.6148 269.04 42.6211 269.031 42.6254 269.021C42.6297 269.011 42.6319 269 42.6319 268.989C42.6319 268.978 42.6297 268.967 42.6254 268.956C42.6211 268.946 42.6148 268.937 42.6069 268.929C42.3925 268.382 42.1661 267.835 41.9398 267.288L41.8564 267.086L41.7254 266.765C41.785 266.956 41.8326 267.146 41.8922 267.336C41.9144 267.44 41.9422 267.544 41.9756 267.645C43.1162 271.46 43.9683 275.354 44.5246 279.296C44.5246 279.415 44.739 279.415 44.7271 279.296C44.5581 276.831 44.1553 274.386 43.524 271.997Z" fill="#41507E"/>
<path d="M87.9043 391.755L86.6775 406.259L82.9255 450.498H42.7262L38.9743 406.259L37.7475 391.755H87.9043Z" fill="#405BB4"/>
<path d="M87.9043 391.755L86.6775 406.259H38.9743L37.7475 391.755H87.9043Z" fill="#2A3B75"/>
<path d="M91.8465 399.851H33.8047V385.941H91.8465V399.851Z" fill="#405BB4"/>
<path d="M128.201 132.542C128.933 133.372 131.812 138.247 131.812 138.247C131.812 138.247 132.842 140.042 133.502 140.915C134.786 142.676 135.966 144.777 137.123 146.574L134.323 146.353C137.468 142.329 140.881 138.507 144.543 134.914C146.384 133.111 148.283 131.369 150.272 129.693C152.276 127.997 154.387 126.42 156.593 124.973C155.352 127.226 153.953 129.393 152.407 131.46C150.904 133.525 149.301 135.511 147.629 137.445C144.29 141.329 140.687 144.995 136.846 148.42L134.919 150.126L134.091 148.195C133.268 146.234 132.359 144.249 131.631 142.237C131.247 141.212 130.816 140.213 130.488 139.185C130.161 138.158 128.51 133.546 128.201 132.542Z" fill="#AA342D"/>
<path d="M143.583 159.143C142.963 158.407 140.536 154.075 140.536 154.075C140.536 154.075 139.668 152.479 139.111 151.705C138.026 150.141 137.032 148.273 136.056 146.678L138.442 146.858C135.737 150.466 132.804 153.895 129.662 157.121C128.081 158.74 126.452 160.305 124.746 161.811C123.027 163.336 121.218 164.754 119.329 166.058C120.4 164.041 121.605 162.1 122.936 160.248C124.23 158.397 125.607 156.616 127.044 154.881C129.915 151.397 133.007 148.106 136.302 145.029L137.955 143.496L138.65 145.213C139.341 146.959 140.105 148.724 140.714 150.514C141.035 151.426 141.397 152.315 141.67 153.23C141.944 154.145 143.325 158.249 143.583 159.143Z" fill="#AA342D"/>
<path d="M188.776 110.376L188.968 109.611C189.761 110.039 190.54 110.253 191.306 110.253C191.853 110.253 192.317 110.144 192.7 109.925C193.092 109.697 193.288 109.333 193.288 108.831C193.288 108.385 193.124 107.979 192.796 107.615C192.468 107.241 192.071 106.913 191.606 106.63C191.142 106.348 190.677 106.06 190.212 105.769C189.747 105.468 189.351 105.103 189.022 104.675C188.694 104.238 188.53 103.754 188.53 103.226C188.53 102.579 188.763 101.991 189.228 101.462C189.692 100.924 190.253 100.656 190.909 100.656C191.41 100.656 191.966 100.756 192.577 100.956C193.197 101.157 193.716 101.357 194.136 101.558L193.972 102.105C192.933 101.749 192.058 101.572 191.347 101.572C190.909 101.572 190.535 101.713 190.226 101.995C189.916 102.278 189.761 102.642 189.761 103.089C189.761 103.426 189.847 103.732 190.021 104.005C190.194 104.279 190.417 104.516 190.69 104.716C190.973 104.917 191.283 105.113 191.62 105.304C191.966 105.495 192.308 105.7 192.646 105.919C192.983 106.138 193.288 106.375 193.562 106.63C193.844 106.885 194.072 107.209 194.245 107.601C194.418 107.984 194.505 108.417 194.505 108.9C194.505 109.583 194.286 110.144 193.849 110.581C193.411 111.01 192.841 111.224 192.14 111.224C191.538 111.224 190.896 111.142 190.212 110.978C189.537 110.805 189.059 110.604 188.776 110.376ZM201.412 109.829L201.549 110.431C201.148 110.577 200.551 110.741 199.758 110.923C198.974 111.096 198.39 111.183 198.008 111.183C197.616 111.183 197.274 111.055 196.982 110.8C196.691 110.536 196.472 110.203 196.326 109.802C196.18 109.392 196.071 108.991 195.998 108.599C195.934 108.198 195.902 107.806 195.902 107.423C195.902 105.144 196.932 104.005 198.992 104.005C199.484 104.005 199.917 104.165 200.291 104.484C200.665 104.794 200.851 105.199 200.851 105.7C200.851 105.974 200.774 106.215 200.619 106.425C200.473 106.635 200.291 106.803 200.072 106.931C199.862 107.049 199.589 107.159 199.252 107.259C198.924 107.359 198.632 107.432 198.377 107.478C198.122 107.523 197.816 107.573 197.461 107.628C197.105 107.683 196.859 107.724 196.722 107.751C196.732 108.016 196.745 108.248 196.763 108.448C196.791 108.649 196.836 108.868 196.9 109.105C196.973 109.333 197.064 109.524 197.174 109.679C197.292 109.825 197.452 109.948 197.652 110.048C197.853 110.148 198.09 110.198 198.363 110.198C198.691 110.198 199.092 110.171 199.566 110.116C200.04 110.053 200.459 109.989 200.824 109.925C201.198 109.861 201.394 109.829 201.412 109.829ZM196.777 106.904C198.017 106.548 199.033 106.174 199.826 105.782C199.762 105.482 199.676 105.263 199.566 105.126C199.457 104.99 199.293 104.921 199.074 104.921C198.518 104.921 198.012 105.113 197.556 105.495C197.11 105.878 196.85 106.348 196.777 106.904ZM203.288 105.249L203.014 104.552C203.251 104.315 203.552 104.128 203.917 103.991C204.281 103.846 204.641 103.773 204.997 103.773C206.537 103.773 207.307 105.103 207.307 107.765C207.307 108.129 207.284 108.667 207.239 109.378C207.202 110.089 207.184 110.622 207.184 110.978C207.111 111.26 206.97 111.402 206.76 111.402C206.596 111.402 206.446 111.32 206.309 111.156C206.172 110.991 206.104 110.809 206.104 110.609C206.104 110.545 206.109 110.499 206.118 110.472C205.553 111.019 204.951 111.292 204.313 111.292C203.83 111.292 203.406 111.119 203.042 110.773C202.686 110.417 202.508 109.989 202.508 109.488C202.508 108.64 202.837 107.874 203.493 107.191C204.158 106.507 204.91 106.165 205.749 106.165C205.785 106.165 205.822 106.17 205.858 106.179C205.894 106.179 205.935 106.184 205.981 106.193C206.036 106.202 206.077 106.206 206.104 106.206C206.031 105.14 205.607 104.607 204.833 104.607C204.377 104.607 203.862 104.821 203.288 105.249ZM206.145 109.529C206.163 108.891 206.172 108.407 206.172 108.079C206.172 107.806 206.163 107.423 206.145 106.931H206.036C205.389 106.94 204.796 107.182 204.258 107.656C203.73 108.129 203.465 108.704 203.465 109.378C203.465 109.67 203.552 109.902 203.725 110.075C203.907 110.249 204.126 110.335 204.381 110.335C204.782 110.335 205.37 110.066 206.145 109.529ZM213.626 105.947L213.025 105.906C212.833 105.395 212.51 105.14 212.054 105.14C211.854 105.14 211.639 105.185 211.412 105.277C211.193 105.368 211.01 105.463 210.865 105.564C210.719 105.655 210.527 105.792 210.29 105.974C210.29 106.101 210.286 106.516 210.277 107.218C210.277 107.92 210.281 108.699 210.29 109.556C210.309 110.413 210.327 110.873 210.345 110.937C210.263 111.21 210.104 111.347 209.867 111.347C209.703 111.347 209.543 111.283 209.388 111.156C209.242 111.019 209.151 110.855 209.115 110.663C209.288 107.738 209.443 105.527 209.579 104.032L210.195 104.169L210.236 105.085C210.874 104.557 211.421 104.292 211.876 104.292C212.378 104.292 212.797 104.406 213.134 104.634C213.481 104.862 213.654 105.195 213.654 105.632C213.654 105.769 213.645 105.874 213.626 105.947ZM219.508 104.374L219.44 104.962C219.057 104.907 218.729 104.88 218.455 104.88C217.826 104.88 217.307 105.072 216.897 105.454C216.487 105.828 216.204 106.275 216.049 106.794C215.903 107.305 215.83 107.874 215.83 108.503C215.83 108.795 215.849 109.055 215.885 109.282C215.921 109.51 215.985 109.734 216.076 109.952C216.177 110.171 216.327 110.344 216.528 110.472C216.737 110.59 216.992 110.65 217.293 110.65C217.694 110.65 218.205 110.572 218.824 110.417C219.016 110.344 219.166 110.308 219.276 110.308C219.494 110.308 219.626 110.563 219.672 111.073C218.87 111.329 218.127 111.456 217.444 111.456C216.45 111.456 215.776 111.215 215.42 110.732C215.074 110.24 214.901 109.447 214.901 108.353C214.901 107.715 214.942 107.159 215.024 106.685C215.115 106.202 215.27 105.755 215.488 105.345C215.707 104.926 216.022 104.607 216.432 104.388C216.851 104.169 217.362 104.06 217.963 104.06C218.638 104.06 219.153 104.165 219.508 104.374ZM221.138 101.312L221.849 101.476C221.876 101.85 221.894 102.447 221.903 103.267C221.922 104.087 221.94 104.652 221.958 104.962C222.45 104.443 223.043 104.183 223.735 104.183C224.355 104.183 224.888 104.402 225.335 104.839C225.791 105.277 226.019 105.86 226.019 106.589V111.087C225.9 111.142 225.75 111.169 225.567 111.169C225.367 111.169 225.185 111.151 225.021 111.115C225.021 111.042 225.021 110.932 225.021 110.786C225.03 110.631 225.034 110.517 225.034 110.445C225.034 110.089 225.021 109.478 224.993 108.613C224.966 107.738 224.952 107.008 224.952 106.425C224.815 105.587 224.392 105.167 223.681 105.167C223.371 105.167 223.065 105.254 222.765 105.427C222.464 105.591 222.245 105.787 222.108 106.015C222.136 106.589 222.154 107.455 222.163 108.613C222.172 109.77 222.186 110.604 222.204 111.115C221.985 111.151 221.799 111.169 221.644 111.169C221.416 111.169 221.224 111.142 221.069 111.087C221.088 110.641 221.097 109.934 221.097 108.968C221.097 108.54 221.092 107.756 221.083 106.616C221.074 105.468 221.069 104.484 221.069 103.663C221.078 102.834 221.101 102.05 221.138 101.312Z" fill="#4F4F4F"/>
</svg>
