<svg width="352" height="329" viewBox="0 0 352 329" fill="none" xmlns="http://www.w3.org/2000/svg">
<path d="M185.68 116.2C185.477 115.812 185.175 115.485 184.803 115.252C184.432 115.02 184.005 114.892 183.568 114.88C183.54 114.879 183.513 114.883 183.487 114.893C183.462 114.902 183.438 114.917 183.418 114.935C183.398 114.954 183.382 114.976 183.371 115.001C183.359 115.026 183.353 115.053 183.352 115.08C183.352 115.137 183.373 115.191 183.412 115.233C183.45 115.275 183.503 115.3 183.56 115.304C183.925 115.315 184.28 115.423 184.589 115.617C184.899 115.811 185.151 116.084 185.32 116.408C185.529 116.783 185.673 117.192 185.744 117.616C185.436 117.272 185.019 117.046 184.563 116.977C184.107 116.908 183.641 116.999 183.246 117.236C182.85 117.473 182.549 117.84 182.395 118.275C182.241 118.709 182.243 119.184 182.4 119.617C182.558 120.051 182.862 120.415 183.26 120.649C183.657 120.883 184.124 120.97 184.579 120.897C185.034 120.824 185.45 120.595 185.754 120.249C186.059 119.902 186.233 119.461 186.248 119C186.256 118.867 186.256 118.733 186.248 118.6C186.263 117.765 186.067 116.94 185.68 116.2ZM185.824 118.968C185.831 119.005 185.831 119.043 185.824 119.08C185.819 119.089 185.817 119.098 185.817 119.108C185.817 119.118 185.819 119.127 185.824 119.136C185.766 119.518 185.572 119.865 185.278 120.115C184.984 120.365 184.61 120.5 184.224 120.496C183.907 120.496 183.598 120.402 183.335 120.226C183.072 120.051 182.867 119.801 182.745 119.508C182.624 119.216 182.593 118.894 182.654 118.584C182.716 118.274 182.869 117.988 183.092 117.765C183.316 117.541 183.601 117.389 183.912 117.327C184.222 117.265 184.544 117.297 184.836 117.418C185.128 117.539 185.378 117.744 185.554 118.007C185.73 118.27 185.824 118.58 185.824 118.896V118.968Z" fill="#F8F8F8"/>
<path d="M342.84 290.432L301.128 290.24L259.416 290.168L176 290.04L92.5839 290.168L50.8719 290.24L9.15988 290.432L50.8719 290.632L92.5839 290.704L176 290.832L259.416 290.704L301.128 290.632L342.84 290.432Z" fill="#2F2E41"/>
<path d="M176 328.384C78.9082 328.384 0.199829 318.531 0.199829 306.376C0.199829 294.221 78.9082 284.368 176 284.368C273.091 284.368 351.8 294.221 351.8 306.376C351.8 318.531 273.091 328.384 176 328.384Z" fill="#A1ABD1"/>
<path d="M28.6881 24.1999V281.8C28.6702 283.588 29.005 285.362 29.6734 287.02C30.3419 288.679 31.3308 290.189 32.5836 291.465C33.8364 292.741 35.3285 293.757 36.9745 294.456C38.6205 295.154 40.3881 295.521 42.1761 295.536H175.44C177.227 295.52 178.994 295.152 180.639 294.453C182.284 293.754 183.776 292.738 185.028 291.462C186.279 290.186 187.268 288.676 187.936 287.019C188.604 285.361 188.938 283.587 188.92 281.8V24.1999C188.939 22.4119 188.605 20.6377 187.938 18.9789C187.27 17.32 186.282 15.809 185.03 14.5325C183.778 13.2559 182.287 12.2387 180.641 11.5392C178.996 10.8397 177.228 10.4716 175.44 10.4559H42.1761C40.3874 10.4706 38.6192 10.8379 36.9726 11.5369C35.3261 12.236 33.8336 13.253 32.5807 14.5297C31.3278 15.8063 30.3391 17.3177 29.6711 18.977C29.0032 20.6364 28.6691 22.4113 28.6881 24.1999Z" fill="#28347D"/>
<path d="M37.3017 37.1279V273.328C37.3017 280.528 42.7097 286.392 49.3737 286.392H168.574C175.254 286.392 180.662 280.544 180.662 273.328V37.1279C180.662 22.4079 175.254 19.1599 168.574 19.1599H144.694C143.31 19.1599 142.182 20.7599 142.182 22.6879V23.4879C142.182 28.0719 139.67 28.0879 136.582 28.0879H81.3816C78.2776 28.0879 75.7816 28.0879 75.7816 23.4879V22.6879C75.7816 20.7359 74.6616 19.1599 73.2616 19.1599H49.3656C42.7096 19.1599 37.3017 23.6479 37.3017 37.1279Z" fill="white"/>
<path d="M101.272 22.4079H116.336C116.459 22.409 116.58 22.3857 116.694 22.3396C116.807 22.2934 116.91 22.2252 116.997 22.139C117.084 22.0527 117.153 21.95 117.201 21.8369C117.248 21.7238 117.272 21.6025 117.272 21.4799C117.272 21.3574 117.248 21.236 117.201 21.1229C117.153 21.0098 117.084 20.9072 116.997 20.8209C116.91 20.7346 116.807 20.6664 116.694 20.6202C116.58 20.5741 116.459 20.5509 116.336 20.5519H101.272C101.026 20.5519 100.79 20.6497 100.616 20.8237C100.442 20.9978 100.344 21.2338 100.344 21.4799C100.344 21.726 100.442 21.9621 100.616 22.1361C100.79 22.3101 101.026 22.4079 101.272 22.4079Z" fill="white"/>
<path d="M68.4651 39.3279H56.4731V41.3039H68.4651V39.3279Z" fill="#DBDBDB"/>
<path d="M68.4651 43.272H56.4731V45.248H68.4651V43.272Z" fill="#DBDBDB"/>
<path d="M68.4651 47.2239H56.4731V49.1999H68.4651V47.2239Z" fill="#DBDBDB"/>
<path d="M154.613 42.8495L153.293 43.8496L157.327 49.174L158.647 48.1739L154.613 42.8495Z" fill="#DBDBDB"/>
<path d="M156.064 40.6159C156.494 41.1804 156.748 41.86 156.793 42.5687C156.838 43.2774 156.672 43.9835 156.315 44.5978C155.959 45.212 155.428 45.7069 154.791 46.0197C154.153 46.3326 153.437 46.4495 152.733 46.3557C152.03 46.2618 151.369 45.9614 150.836 45.4924C150.303 45.0235 149.921 44.4069 149.738 43.7208C149.555 43.0346 149.579 42.3096 149.808 41.6373C150.037 40.9651 150.46 40.3758 151.024 39.9439C151.398 39.6556 151.826 39.4443 152.282 39.322C152.739 39.1997 153.215 39.1689 153.683 39.2314C154.152 39.2938 154.603 39.4483 155.012 39.6859C155.42 39.9235 155.778 40.2396 156.064 40.6159Z" fill="#DBDBDB"/>
<path d="M154.912 41.488C155.173 41.8249 155.328 42.2318 155.357 42.657C155.387 43.0822 155.289 43.5066 155.077 43.8763C154.865 44.2461 154.548 44.5445 154.166 44.7339C153.785 44.9232 153.355 44.9949 152.932 44.9398C152.51 44.8847 152.113 44.7054 151.792 44.4245C151.472 44.1436 151.242 43.7739 151.132 43.3621C151.022 42.9504 151.036 42.5152 151.174 42.1118C151.311 41.7083 151.565 41.3548 151.904 41.096C152.355 40.7509 152.925 40.5984 153.489 40.6719C154.052 40.7453 154.564 41.0387 154.912 41.488Z" fill="white"/>
<path d="M129.845 157.218H87.6694V175.863H129.845V157.218Z" fill="#6D90FF"/>
<path d="M103.609 168.301H101.209L100.729 169.597C100.686 169.699 100.613 169.786 100.521 169.847C100.428 169.908 100.32 169.941 100.209 169.941C100.146 169.953 100.081 169.953 100.017 169.941C99.8805 169.889 99.7694 169.785 99.7081 169.652C99.6468 169.519 99.6401 169.367 99.6895 169.229L101.889 163.373C101.932 163.269 102.005 163.18 102.1 163.118C102.194 163.057 102.305 163.026 102.417 163.029C102.53 163.027 102.64 163.058 102.734 163.12C102.829 163.181 102.902 163.269 102.945 163.373L105.137 169.229C105.187 169.367 105.18 169.519 105.119 169.652C105.057 169.785 104.946 169.889 104.809 169.941C104.746 169.955 104.681 169.955 104.617 169.941C104.508 169.942 104.402 169.909 104.312 169.848C104.222 169.786 104.152 169.699 104.113 169.597L103.609 168.301ZM103.201 167.205L102.401 165.069L101.601 167.205H103.201Z" fill="white"/>
<path d="M106.482 169.397V163.533C106.48 163.461 106.494 163.39 106.521 163.323C106.548 163.257 106.588 163.197 106.638 163.146C106.689 163.095 106.75 163.055 106.816 163.028C106.883 163.001 106.954 162.988 107.025 162.989H108.201C109.095 163.032 109.937 163.417 110.554 164.064C111.171 164.711 111.515 165.571 111.515 166.465C111.515 167.359 111.171 168.219 110.554 168.866C109.937 169.513 109.095 169.898 108.201 169.941H107.025C106.881 169.941 106.743 169.884 106.641 169.782C106.539 169.68 106.482 169.541 106.482 169.397ZM107.585 168.837H108.201C108.774 168.755 109.297 168.47 109.676 168.034C110.054 167.597 110.263 167.039 110.263 166.461C110.263 165.883 110.054 165.325 109.676 164.888C109.297 164.452 108.774 164.166 108.201 164.085H107.585V168.837Z" fill="white"/>
<path d="M113.329 169.397V163.533C113.328 163.461 113.341 163.39 113.368 163.323C113.395 163.257 113.435 163.197 113.486 163.146C113.537 163.095 113.597 163.055 113.664 163.028C113.73 163.001 113.801 162.988 113.873 162.989H115.049C115.942 163.032 116.784 163.417 117.401 164.064C118.018 164.711 118.362 165.571 118.362 166.465C118.362 167.359 118.018 168.219 117.401 168.866C116.784 169.513 115.942 169.898 115.049 169.941H113.873C113.729 169.941 113.591 169.884 113.488 169.782C113.386 169.68 113.329 169.541 113.329 169.397ZM114.433 168.837H115.049C115.621 168.755 116.145 168.47 116.523 168.034C116.902 167.597 117.111 167.039 117.111 166.461C117.111 165.883 116.902 165.325 116.523 164.888C116.145 164.452 115.621 164.166 115.049 164.085H114.433V168.837Z" fill="white"/>
<path d="M161.366 68.4272H56.5933V86.1853H161.366V68.4272Z" fill="#EBEBEB"/>
<path d="M161.366 92.8446H56.5933V110.603H161.366V92.8446Z" fill="#EBEBEB"/>
<path d="M161.366 117.262H56.5933V135.02H161.366V117.262Z" fill="#EBEBEB"/>
<path d="M319.768 313.408L202.352 313.912C173.808 291.512 170.864 258.304 191.224 238.176C203.544 226.008 219.224 228.464 234.096 226.528C239.359 225.97 244.479 224.466 249.208 222.088C264.552 214 273.208 194.888 286.104 178.84C287.704 176.832 289.392 174.84 291.16 172.984C301.776 161.648 322.896 161.28 333.952 177.216C362.064 217.696 349.2 277.952 319.768 313.408Z" fill="#909CC0"/>
<path d="M322.4 220.776C319.32 268.952 263.688 286.936 228.944 272.504C198.728 259.952 208.616 231.312 234.12 226.528C239.383 225.97 244.503 224.466 249.232 222.088C264.576 214 273.232 194.888 286.128 178.84C305.376 168.848 324.632 185.504 322.4 220.776Z" fill="#BECCF9"/>
<path d="M212.112 320.704C213.928 320.04 254.96 287.24 255.736 285C256.04 284.152 251.608 277.896 246.048 270.496C244.84 268.896 243.592 267.248 242.312 265.584C234.016 254.784 224.968 243.512 224.968 243.512L197.456 265.368L215.552 286.84L219.552 291.56C219.552 291.56 209.456 311.144 208.872 313.696C208.288 316.248 210.296 321.368 212.112 320.704Z" fill="#FFC4C0"/>
<path d="M212.112 320.704C213.928 320.04 254.96 287.24 255.736 285C256.096 283.968 249.488 274.952 242.312 265.584L215.552 286.84L219.552 291.56C219.552 291.56 209.456 311.144 208.872 313.696C208.288 316.248 210.296 321.368 212.112 320.704Z" fill="white"/>
<path d="M212.112 320.704C213.928 320.04 254.96 287.24 255.736 285C256.04 284.152 251.608 277.896 246.048 270.496L219.528 291.56C219.528 291.56 209.432 311.144 208.848 313.696C208.264 316.248 210.296 321.368 212.112 320.704Z" fill="#6D90FF"/>
<path d="M211.384 318.6C218.128 312.936 245.864 290.712 252.984 285.624C253.048 285.624 253.072 285.624 253.024 285.672C246.464 291.432 218.544 313.424 211.504 318.712C211.328 318.816 211.248 318.712 211.384 318.6Z" fill="#475B9D"/>
<path d="M210.304 310.104C211.054 309.475 211.926 309.009 212.865 308.734C213.804 308.458 214.789 308.38 215.76 308.504C217.509 308.717 219.11 309.593 220.232 310.952C220.232 310.992 220.232 311.056 220.152 311.016C218.828 309.843 217.16 309.131 215.397 308.987C213.635 308.843 211.873 309.274 210.376 310.216C210.361 310.225 210.343 310.229 210.326 310.225C210.309 310.221 210.293 310.211 210.284 310.196C210.274 310.181 210.271 310.163 210.275 310.146C210.279 310.128 210.289 310.113 210.304 310.104Z" fill="#475B9D"/>
<path d="M217.408 294.376C220.128 292.136 224.096 290.56 227.608 291.44C227.744 291.48 227.688 291.672 227.608 291.696C224.172 292.353 220.817 293.378 217.6 294.752C217.552 294.765 217.501 294.761 217.456 294.74C217.411 294.72 217.374 294.685 217.352 294.641C217.33 294.597 217.323 294.547 217.333 294.499C217.343 294.451 217.369 294.407 217.408 294.376Z" fill="#475B9D"/>
<path d="M215.944 296.904C218.664 294.664 222.632 293.088 226.144 293.968C226.28 294.008 226.232 294.2 226.144 294.224C222.73 294.885 219.396 295.91 216.2 297.28C216.15 297.314 216.089 297.327 216.03 297.315C215.97 297.304 215.918 297.27 215.884 297.22C215.85 297.17 215.837 297.109 215.849 297.05C215.86 296.99 215.894 296.938 215.944 296.904Z" fill="#475B9D"/>
<path d="M214.48 299.4C217.2 297.16 221.168 295.584 224.68 296.464C224.816 296.504 224.768 296.696 224.68 296.72C221.266 297.381 217.932 298.406 214.736 299.776C214.686 299.81 214.625 299.823 214.565 299.811C214.506 299.8 214.454 299.766 214.42 299.716C214.386 299.666 214.373 299.605 214.384 299.546C214.396 299.486 214.43 299.434 214.48 299.4Z" fill="#475B9D"/>
<path d="M213.016 301.96C215.736 299.72 219.704 298.144 223.216 299.024C223.352 299.024 223.304 299.256 223.216 299.272C219.802 299.94 216.469 300.967 213.272 302.336C213.222 302.37 213.161 302.383 213.101 302.371C213.042 302.36 212.99 302.326 212.956 302.276C212.922 302.226 212.909 302.165 212.92 302.106C212.932 302.046 212.966 301.994 213.016 301.96Z" fill="#475B9D"/>
<path d="M245.992 280.488C249.088 278.024 252.912 282.832 249.816 285.288C246.72 287.744 242.888 282.952 245.992 280.488Z" fill="#475B9D"/>
<path d="M208.56 289.408C209.024 287.136 211.688 286.864 213.504 287.376C216.608 288.315 219.411 290.053 221.632 292.416C221.643 292.425 221.653 292.436 221.659 292.45C221.666 292.463 221.669 292.477 221.669 292.492C221.669 292.507 221.666 292.521 221.659 292.534C221.653 292.547 221.643 292.559 221.632 292.568C221.663 292.628 221.68 292.695 221.68 292.764C221.68 292.832 221.663 292.899 221.632 292.959C221.601 293.02 221.555 293.072 221.499 293.111C221.444 293.15 221.379 293.175 221.312 293.184C218.272 293.392 215.04 293.984 212.024 293.272C210.24 292.84 208.112 291.552 208.56 289.408ZM216.608 292.56C218.112 292.496 219.6 292.352 221.104 292.344C219.554 291.315 217.952 290.367 216.304 289.504C215.499 289.098 214.667 288.745 213.816 288.448C212.488 288.016 207.944 287.872 210.064 291.088C211.2 292.864 214.824 292.64 216.608 292.56Z" fill="#475B9D"/>
<path d="M229.288 287.976C227.184 290.256 224.168 291.552 221.52 293.064C221.459 293.094 221.391 293.109 221.323 293.107C221.255 293.105 221.188 293.087 221.128 293.054C221.069 293.021 221.018 292.974 220.98 292.918C220.943 292.861 220.919 292.796 220.912 292.728C220.856 292.728 220.8 292.728 220.808 292.624C221.354 289.419 222.733 286.415 224.808 283.912C226.032 282.472 228.392 281.224 230.048 282.848C231.704 284.472 230.52 286.64 229.288 287.976ZM229.696 285.08C229.696 281.224 225.976 283.872 225.112 284.968C224.568 285.686 224.074 286.439 223.632 287.224C222.747 288.862 221.946 290.544 221.232 292.264C222.488 291.464 223.8 290.728 225.088 289.944C226.592 289 229.712 287.2 229.696 285.08Z" fill="#475B9D"/>
<path d="M169.664 223.336C171.544 237.632 206.776 278.896 210.848 283.632L211.776 284.704L240.912 262.304L240.576 261.872L214.92 228.272L291.464 227.824L262.4 205.232C262.4 205.232 260.04 206.592 255.144 205.88C238.248 203.408 200.16 197.928 191.144 198.288C179.6 198.768 167.936 210.216 169.664 223.336Z" fill="#627AC5"/>
<path d="M205.704 215.792C206.657 216.866 207.541 217.999 208.352 219.184C209.256 220.368 210.176 221.584 211.088 222.736V222.776C210.928 222.424 210.768 222.08 210.6 221.728C210.032 220.544 209.576 219.328 208.896 218.192C208.856 218.12 208.96 218.056 209 218.128C209.696 219.248 210.504 220.32 211.096 221.504C211.376 222.056 211.64 222.624 211.896 223.192C212.032 223.504 212.176 223.824 212.296 224.144C212.352 224.288 212.416 224.44 212.464 224.6C212.864 225.152 213.264 225.704 213.656 226.272C214.52 227.52 215.256 228.848 216.16 230.088C216.208 230.152 216.096 230.216 216.048 230.152C215.168 228.984 214.176 227.896 213.272 226.736C212.368 225.576 211.488 224.336 210.632 223.12C209.776 221.904 208.976 220.72 208.136 219.536C207.22 218.36 206.378 217.129 205.616 215.848C205.608 215.836 205.606 215.822 205.609 215.809C205.612 215.795 205.62 215.783 205.632 215.776C205.643 215.769 205.658 215.766 205.671 215.769C205.685 215.772 205.696 215.78 205.704 215.792Z" fill="#46588E"/>
<path d="M287.2 143.984C293.272 148.784 299.28 179.984 301.6 183.456C303.256 185.896 305.336 188.336 305.24 189.712C305.144 191.088 299.32 197.856 288.304 199.984C277.288 202.112 266.432 196.856 265.328 195.472C264.224 194.088 267.128 189.336 267.016 185.072C266.904 180.808 263.096 157.4 265.416 150.424C268.096 142.512 280.232 138.512 287.2 143.984Z" fill="#405BB4"/>
<path d="M264.568 194.144C265.769 191.357 266.335 188.337 266.224 185.304C266.16 181.888 265.728 178.472 265.352 175.08C264.952 171.501 264.554 167.923 264.16 164.344C263.816 161.184 263.36 157.992 263.952 154.84C264.496 151.782 265.84 148.922 267.848 146.552C267.848 146.552 267.936 146.552 267.904 146.592C266.043 149.018 264.8 151.859 264.28 154.872C263.712 158.248 264.28 161.696 264.64 165.08C265.04 168.592 265.44 172.096 265.816 175.608C266.168 178.808 266.568 182.088 266.616 185.336C266.616 188.328 266.352 191.656 264.76 194.232C264.688 194.328 264.52 194.248 264.568 194.144Z" fill="#405BB4"/>
<path d="M286.232 143.776C289.048 145.304 290.424 148.328 291.552 151.232C293.072 155.176 294.472 159.176 295.784 163.232C297.144 167.384 298.264 171.608 299.6 175.768C300.948 179.807 302.877 183.629 305.328 187.112C305.384 187.192 305.328 187.288 305.216 187.216C299.976 181.08 298.36 172.816 295.96 165.28C294.632 161.12 293.232 156.987 291.76 152.88C290.568 149.552 289.36 145.784 286.16 143.872C286.144 143.816 286.192 143.752 286.232 143.776Z" fill="#405BB4"/>
<path d="M283.664 142.64C289.552 144.944 291.88 151.536 293.776 157.16C296.032 163.84 297.656 170.72 299.648 177.48C300.76 181.296 301.768 185.44 304.248 188.608C304.32 188.704 304.184 188.824 304.104 188.736C302.2 186.464 301.224 183.64 300.32 180.848C299.24 177.496 298.296 174.104 297.368 170.712C295.512 163.992 293.816 157.056 290.92 150.712C289.392 147.368 287.112 144.104 283.64 142.712C283.6 142.688 283.624 142.6 283.664 142.64Z" fill="#405BB4"/>
<path d="M281.888 184.92C276.696 192.368 258.912 211.696 246.616 214.52C239.832 216.064 207.088 220.64 202.616 216.56C197.36 211.76 199.8 193.744 203.976 193.584C216.776 193.08 240.336 195.576 246.232 194.28C248.896 193.688 263.032 184.568 278.136 177.272C283.824 174.504 285.232 180.112 281.888 184.92Z" fill="#FFC4C0"/>
<path d="M210.904 192.576L213.096 219.568C213.096 219.568 242.808 219.096 251.776 214.056C260.744 209.016 275.344 196.152 280.928 187.208C286.512 178.264 284.648 173.392 273.728 178.896C262.808 184.4 248.128 193.216 246.176 193.68C244.224 194.144 210.904 192.576 210.904 192.576Z" fill="#6D90FF"/>
<path d="M215.68 194.456C215.68 194.384 215.792 194.352 215.808 194.456C216.168 196.312 216.328 198.216 216.536 200.056C216.744 201.896 216.936 203.944 217.112 205.888C217.464 209.768 217.912 213.672 217.992 217.56C217.992 217.728 217.768 217.728 217.744 217.56C217.16 213.744 216.856 209.856 216.488 206.008C216.312 204.096 216.136 202.192 216 200.28C215.864 198.368 215.656 196.4 215.68 194.456Z" fill="#2F2E41"/>
<path d="M308.488 234.24C306.888 234.76 260.536 221.36 260.536 221.36L266.008 205.272C266.008 205.272 263.304 200.104 264.56 195.128C266.232 188.48 278.536 177.528 279.504 176.912C283.384 174.336 287.024 174.384 290.24 176.112C303.632 183.208 308.488 234.24 308.488 234.24Z" fill="#6D90FF"/>
<path d="M273.144 182.704C271.952 184.088 270.672 185.408 269.44 186.768C270.016 185.76 270.584 184.736 271.2 183.752C271.2 183.752 271.2 183.704 271.2 183.752C270.299 184.918 269.514 186.169 268.856 187.488C267.929 188.516 267.074 189.607 266.296 190.752C265.345 192.115 264.634 193.63 264.192 195.232C263.787 196.857 263.722 198.548 264 200.2C264.35 202.092 264.873 203.947 265.56 205.744C265.648 205.984 265.984 205.832 265.92 205.6C265.048 202.456 264.064 199.144 264.76 195.864C265.456 192.584 267.48 189.88 269.448 187.304C270.611 185.728 271.873 184.227 273.224 182.808C273.304 182.72 273.2 182.64 273.144 182.704Z" fill="#4968CA"/>
<path d="M287.344 177C287.16 177.84 283.24 183.336 279.408 183.208C278.168 183.168 278.096 176.352 278.096 176.352L277.976 175.848L276.296 168.816L285.688 162.664C285.688 162.664 287.416 176.64 287.344 177Z" fill="#FFC4C0"/>
<path d="M276.296 168.808L277.976 175.84C279.874 175.094 281.593 173.957 283.022 172.503C284.452 171.049 285.559 169.31 286.272 167.4C285.984 165 285.736 162.96 285.704 162.664C285.702 162.651 285.702 162.637 285.704 162.624L284.512 163.344L276.296 168.808Z" fill="#C18C88"/>
<path d="M265.32 160.2C266.12 172.864 273.784 173.8 276.52 173.64C278.992 173.488 287.416 172.632 287.936 159.952C288.456 147.272 282.336 143.648 276.624 143.712C270.912 143.776 264.528 147.512 265.32 160.2Z" fill="#FFC4C0"/>
<path d="M267.2 158.952C267.488 158.872 267.744 158.76 268 158.656C268.31 158.597 268.592 158.437 268.8 158.2C268.848 158.112 268.867 158.01 268.852 157.911C268.838 157.811 268.791 157.719 268.72 157.648C268.558 157.532 268.369 157.461 268.171 157.441C267.973 157.422 267.773 157.454 267.592 157.536C267.2 157.649 266.864 157.903 266.648 158.248C266.603 158.332 266.583 158.427 266.591 158.521C266.599 158.616 266.635 158.706 266.693 158.781C266.752 158.855 266.831 158.911 266.921 158.942C267.011 158.972 267.108 158.976 267.2 158.952Z" fill="#3F3D56"/>
<path d="M275.496 157.872C275.204 157.867 274.913 157.846 274.624 157.808C274.312 157.828 274.002 157.743 273.744 157.568C273.672 157.499 273.626 157.407 273.613 157.309C273.599 157.21 273.62 157.109 273.672 157.024C273.795 156.868 273.958 156.747 274.144 156.676C274.33 156.604 274.531 156.583 274.728 156.616C275.137 156.625 275.529 156.781 275.832 157.056C275.894 157.124 275.936 157.209 275.952 157.3C275.968 157.391 275.957 157.485 275.922 157.57C275.887 157.656 275.828 157.73 275.753 157.783C275.677 157.836 275.588 157.867 275.496 157.872Z" fill="#3F3D56"/>
<path d="M273.96 159.992C273.96 159.992 274.032 159.992 274.04 160.064C274.104 160.928 274.328 161.904 275.136 162.104V162.152C274.168 162.12 273.888 160.824 273.96 159.992Z" fill="#3F3D56"/>
<path d="M274.632 159.016C276 158.76 276.416 161.512 275.144 161.752C273.872 161.992 273.48 159.232 274.632 159.016Z" fill="#3F3D56"/>
<path d="M275.2 159.08C275.464 159.2 275.744 159.44 276.04 159.424C276.336 159.408 276.592 159.08 276.768 158.768C276.768 158.768 276.816 158.768 276.824 158.768C276.904 159.296 276.824 159.872 276.232 160.032C275.64 160.192 275.28 159.768 275.072 159.232C275.024 159.192 275.088 159.032 275.2 159.08Z" fill="#3F3D56"/>
<path d="M269.24 160.488C269.24 160.488 269.184 160.536 269.192 160.576C269.352 161.424 269.392 162.424 268.664 162.824C268.664 162.824 268.664 162.88 268.664 162.872C269.6 162.6 269.528 161.264 269.24 160.488Z" fill="#3F3D56"/>
<path d="M268.344 159.72C266.952 159.832 267.28 162.6 268.56 162.496C269.84 162.392 269.504 159.624 268.344 159.72Z" fill="#3F3D56"/>
<path d="M267.784 159.968C267.584 160.144 267.4 160.432 267.136 160.48C266.872 160.528 266.576 160.264 266.336 160H266.296C266.344 160.536 266.584 161.064 267.096 161.104C267.608 161.144 267.856 160.648 267.896 160.104C267.96 160.04 267.864 159.896 267.784 159.968Z" fill="#3F3D56"/>
<path d="M275.152 167.4C274.992 167.64 274.84 167.952 274.536 168.032C274.222 168.104 273.897 168.104 273.584 168.032C273.584 168.032 273.536 168.032 273.584 168.08C273.737 168.225 273.926 168.325 274.132 168.37C274.338 168.415 274.552 168.403 274.752 168.336C274.915 168.256 275.051 168.131 275.144 167.974C275.236 167.818 275.281 167.638 275.272 167.456C275.279 167.44 275.28 167.422 275.274 167.405C275.268 167.389 275.256 167.375 275.24 167.368C275.224 167.361 275.205 167.36 275.189 167.366C275.172 167.372 275.159 167.384 275.152 167.4Z" fill="#C18C88"/>
<path d="M271.152 164.8C271.152 164.8 271.152 166.096 271.232 166.704C271.232 166.76 271.392 166.768 271.6 166.752C272.129 166.775 272.655 166.652 273.119 166.397C273.583 166.142 273.968 165.763 274.232 165.304C274.235 165.291 274.235 165.278 274.231 165.266C274.227 165.253 274.219 165.242 274.209 165.234C274.198 165.227 274.186 165.222 274.173 165.222C274.16 165.221 274.147 165.225 274.136 165.232C273.435 165.86 272.552 166.247 271.616 166.336C271.552 166.176 271.696 164.112 271.616 164.112C271.153 164.223 270.707 164.392 270.288 164.616C270.208 161.904 270.568 159.2 270.456 156.496C270.45 156.478 270.439 156.462 270.424 156.451C270.409 156.44 270.39 156.434 270.372 156.434C270.353 156.434 270.335 156.44 270.32 156.451C270.304 156.462 270.293 156.478 270.288 156.496C269.816 159.382 269.634 162.309 269.744 165.232C269.744 165.552 270.928 164.936 271.152 164.8Z" fill="#C18C88"/>
<path d="M288 160.608C287.118 160.391 286.307 159.949 285.646 159.325C284.986 158.701 284.499 157.916 284.232 157.048C281.851 156.572 279.641 155.467 277.832 153.848C277.976 154.088 278.968 155.808 279.504 156.672C271.296 156.888 267.56 151.368 267.56 151.368C266.339 153.078 265.519 155.042 265.16 157.112C265.16 157.112 264.064 152.312 265.864 148.504C266.43 147.205 267.332 146.08 268.476 145.243C269.62 144.407 270.966 143.889 272.376 143.744C274.225 142.855 276.28 142.481 278.324 142.661C280.369 142.841 282.326 143.569 283.992 144.768C290.4 149.232 288 160.608 288 160.608Z" fill="#405BB4"/>
<path d="M285.984 161C285.984 161 288.128 156.672 290.056 157.376C291.984 158.08 290.776 164.072 288.8 165.168C288.557 165.326 288.286 165.432 288.001 165.482C287.716 165.531 287.424 165.522 287.143 165.456C286.862 165.389 286.597 165.266 286.365 165.094C286.133 164.923 285.938 164.705 285.792 164.456L285.984 161Z" fill="#FFC4C0"/>
<path d="M289.664 159.112C289.664 159.112 289.712 159.152 289.664 159.168C288.288 159.968 287.72 161.448 287.392 162.936C287.455 162.777 287.551 162.633 287.675 162.515C287.799 162.396 287.947 162.306 288.109 162.251C288.271 162.195 288.443 162.176 288.613 162.193C288.784 162.211 288.948 162.265 289.096 162.352C289.104 162.356 289.112 162.362 289.117 162.37C289.122 162.377 289.125 162.387 289.125 162.396C289.125 162.405 289.122 162.414 289.117 162.422C289.112 162.43 289.104 162.436 289.096 162.44C288.826 162.394 288.549 162.435 288.303 162.555C288.058 162.676 287.856 162.871 287.728 163.112C287.508 163.512 287.336 163.936 287.216 164.376C287.168 164.512 286.92 164.48 286.944 164.32C286.632 162.424 287.688 159.6 289.664 159.112Z" fill="#C18C88"/>
<path d="M297.232 187.4C300.952 208.528 297.352 224.352 293.768 226.312C284.104 231.592 260.904 220.888 254.352 218.76C251.712 217.904 263.768 197.672 266.472 198.92C272.832 201.856 281.744 206.848 282.104 206.808C282.824 206.736 283.656 201.344 287.352 185.624C290.336 172.936 295.704 178.784 297.232 187.4Z" fill="#FFC4C0"/>
<path d="M233.264 188.928C232.6 191.584 239.28 192.664 239.28 192.664C238.168 193.059 237.231 193.832 236.632 194.848C235.664 196.688 238.112 199.016 238.112 199.016C237.056 199.674 236.22 200.632 235.712 201.768C234.96 203.616 237.104 206.32 237.104 206.32C236.456 207.462 236.24 208.8 236.496 210.088C237.296 213.496 242.536 214.832 245.608 216.304C248.896 217.904 254.336 218.456 256.808 219.568L267.504 199.976C267.504 199.976 257.144 189 251.2 187.336C248 186.4 234.272 184.872 233.264 188.928Z" fill="#FFC4C0"/>
<path d="M239.352 192.6C243.072 192.44 246.824 193.168 250.44 193.912C250.52 193.912 250.488 194.048 250.44 194.032C246.856 193.232 242.976 193.416 239.376 192.776C239.365 192.778 239.353 192.777 239.341 192.774C239.33 192.771 239.32 192.766 239.31 192.759C239.301 192.752 239.293 192.743 239.287 192.733C239.281 192.723 239.278 192.712 239.276 192.7C239.274 192.688 239.275 192.677 239.278 192.665C239.281 192.654 239.286 192.643 239.293 192.634C239.3 192.625 239.309 192.617 239.319 192.611C239.329 192.605 239.341 192.602 239.352 192.6Z" fill="#C18C88"/>
<path d="M238.28 198.768C239.128 198.815 239.967 198.971 240.776 199.232C241.64 199.456 242.512 199.696 243.376 199.952C245.104 200.464 246.816 201.008 248.52 201.6C248.592 201.6 248.568 201.752 248.52 201.728C246.797 201.221 245.067 200.752 243.328 200.32C242.456 200.104 241.576 199.896 240.704 199.696C239.865 199.556 239.045 199.325 238.256 199.008C238.232 198.997 238.212 198.978 238.199 198.955C238.186 198.932 238.181 198.906 238.183 198.879C238.186 198.853 238.197 198.828 238.214 198.808C238.231 198.788 238.254 198.774 238.28 198.768Z" fill="#C18C88"/>
<path d="M237.152 206.344C237.918 206.396 238.67 206.577 239.376 206.88L241.728 207.608C243.328 208.088 244.864 208.568 246.456 208.984C246.528 208.984 246.504 209.136 246.456 209.112C244.856 208.688 243.256 208.312 241.616 207.856L239.216 207.2C238.477 207.063 237.769 206.792 237.128 206.4C237.125 206.389 237.126 206.378 237.13 206.368C237.134 206.357 237.142 206.349 237.152 206.344Z" fill="#C18C88"/>
<path d="M267.144 198.768L256 222.528C256 222.528 290.48 232.584 295.152 226.528C299.824 220.472 299.504 201.44 297.312 188.272C295.12 175.104 289.192 174.848 286.6 186.752C284.008 198.656 282.472 206.176 282.008 206.112C281.544 206.048 267.144 198.768 267.144 198.768Z" fill="#6D90FF"/>
<path d="M271.64 201.96C271.64 201.904 271.784 201.96 271.76 202.008C271.136 203.792 270.304 205.512 269.544 207.24C268.784 208.968 267.944 210.8 267.096 212.568C265.44 216.088 263.816 219.664 261.952 223.08C261.947 223.097 261.937 223.112 261.925 223.125C261.913 223.137 261.899 223.147 261.882 223.154C261.866 223.161 261.849 223.163 261.831 223.162C261.814 223.161 261.797 223.157 261.781 223.148C261.766 223.14 261.752 223.128 261.742 223.114C261.731 223.1 261.724 223.084 261.72 223.067C261.717 223.05 261.717 223.032 261.721 223.015C261.725 222.998 261.733 222.982 261.744 222.968C263.168 219.368 264.864 215.864 266.496 212.36C267.296 210.616 268.096 208.888 268.968 207.168C269.84 205.448 270.64 203.632 271.64 201.96Z" fill="#4968CA"/>
<path d="M274.256 226.896C275.23 226.957 276.195 227.118 277.136 227.376C278.136 227.552 279.136 227.712 280.136 227.84C282.075 228.112 284.027 228.28 285.984 228.344C287.912 228.392 292.68 228.104 294.144 226.744C295.351 225.571 296.212 224.087 296.632 222.456C297.15 220.221 297.546 217.959 297.816 215.68C298.368 210.866 298.52 206.015 298.272 201.176C298.216 199.832 298.128 198.48 298.032 197.136C297.936 195.792 297.768 194.4 297.728 193.024C297.728 192.976 297.808 192.968 297.816 193.024C298.276 195.213 298.581 197.432 298.728 199.664C298.816 198.28 298.984 196.888 299 195.496C299 195.479 299.006 195.463 299.018 195.451C299.03 195.439 299.047 195.432 299.064 195.432C299.081 195.432 299.097 195.439 299.109 195.451C299.121 195.463 299.128 195.479 299.128 195.496C299.128 196.96 299.2 198.424 299.128 199.888C299.128 200.688 299.016 201.528 298.928 202.344C299.04 204.208 299.096 206.072 299.072 207.944C299.131 212.858 298.558 217.76 297.368 222.528C296.8 224.6 295.92 226.576 294.032 227.688C292.61 228.37 291.07 228.772 289.496 228.872C286.171 229.101 282.83 228.891 279.56 228.248C278.648 228.072 277.736 227.88 276.824 227.672C275.925 227.545 275.046 227.306 274.208 226.96C274.208 226.96 274.208 226.896 274.256 226.896Z" fill="#4968CA"/>
<path d="M267.2 198.32C269.736 199.592 272.28 200.864 274.808 202.16L278.544 204.072C279.744 204.696 282.032 205.928 282.032 205.928C282.032 205.352 282.496 203.696 282.736 202.624C282.976 201.552 283.272 200.296 283.536 199.136C283.616 198.832 283.704 198.536 283.784 198.232C283.84 197.68 283.888 197.12 283.936 196.56C284.024 195.664 284.096 194.752 284.232 193.856C284.232 193.856 284.28 193.856 284.288 193.856C284.372 194.71 284.372 195.57 284.288 196.424C284.672 195.016 285.088 193.624 285.488 192.232H285.56C285.104 194.584 284.624 196.936 284.088 199.272C283.824 200.4 283.536 201.528 283.24 202.656C282.967 203.873 282.631 205.075 282.232 206.256C280.936 205.764 279.668 205.203 278.432 204.576C277.136 203.963 275.845 203.333 274.56 202.688C272.072 201.44 269.56 200.168 267.152 198.76C267.152 198.76 266.984 199.08 266.96 199.12C266.936 199.16 266.816 199.048 266.848 198.936C266.88 198.824 267.136 198.296 267.2 198.32Z" fill="#4968CA"/>
<path d="M245.32 221.76H212.832L198.592 175.784H231.072L245.32 221.76Z" fill="#6885E1"/>
<path d="M243.728 221.76H211.24L196.992 175.784H229.48L243.728 221.76Z" fill="#90AAFE"/>
<path d="M216.944 197.328C217.2 198.205 217.723 198.98 218.44 199.546C219.156 200.112 220.031 200.442 220.944 200.488C221.332 200.508 221.719 200.431 222.071 200.265C222.422 200.098 222.727 199.847 222.958 199.534C223.188 199.221 223.338 198.856 223.393 198.471C223.447 198.086 223.406 197.693 223.272 197.328C223.023 196.444 222.503 195.66 221.785 195.086C221.068 194.512 220.189 194.177 219.272 194.128C218.879 194.105 218.486 194.182 218.13 194.35C217.774 194.519 217.466 194.774 217.234 195.092C217.002 195.411 216.854 195.782 216.804 196.173C216.753 196.564 216.801 196.961 216.944 197.328Z" fill="white"/>
<path d="M201.992 191.904C200.392 194.824 196.2 198.408 195.776 200.84C195.647 201.435 195.714 202.055 195.966 202.608C196.219 203.162 196.643 203.619 197.176 203.912C197.176 203.912 194.664 204.992 194.64 207.264C194.64 208.432 196.48 209.48 196.48 209.48C195.925 209.755 195.457 210.177 195.127 210.701C194.797 211.225 194.617 211.829 194.608 212.448C194.688 214.048 196.528 214.848 196.528 214.848C196.528 214.848 195.064 216.64 195.672 218.256C196.904 221.528 210.712 222.304 213.136 217.336C214.256 215.016 210.872 215.016 210.872 215.016C210.872 215.016 215.744 213.848 215.976 211.016C216.208 208.184 211.808 208.432 211.808 208.432C211.808 208.432 216.52 207.264 216.464 204.288C216.408 201.312 212.048 202.208 212.048 202.208C212.048 202.208 215.248 200.296 214.672 198.032C213.744 194.288 206.824 198.736 203.832 197.848L201.992 191.904Z" fill="#FFC4C0"/>
<path d="M196.408 209.504C196.36 209.504 196.344 209.584 196.408 209.6C201.56 211.135 207.092 210.771 212 208.576C212.168 208.496 212.24 208.256 212 208.328C208.608 209.664 200.8 210.128 196.408 209.504Z" fill="#C18C88"/>
<path d="M212.352 201.928C207.552 204.024 202.544 204.328 197.36 203.976C197.296 203.976 197.296 204.064 197.36 204.088C199.84 204.968 203.168 204.888 205.76 204.576C208.163 204.35 210.464 203.495 212.432 202.096C212.504 202.04 212.456 201.888 212.352 201.928Z" fill="#C18C88"/>
<path d="M129.06 265.84C129.732 267.656 162.66 308.584 164.9 309.352C165.748 309.648 171.988 305.2 179.38 299.608C180.98 298.4 182.58 297.144 184.276 295.864C195.052 287.536 206.292 278.448 206.292 278.448L184.348 251L162.932 269.176L158.228 273.176C158.228 273.176 138.612 263.144 136.06 262.568C133.508 261.992 128.388 264.024 129.06 265.84Z" fill="#FFC4C0"/>
<path d="M129.06 265.84C129.732 267.656 162.66 308.584 164.9 309.352C165.94 309.704 174.932 303.064 184.276 295.864L162.932 269.176L158.228 273.176C158.228 273.176 138.612 263.144 136.06 262.568C133.508 261.992 128.388 264.024 129.06 265.84Z" fill="white"/>
<path d="M129.06 265.84C129.732 267.656 162.66 308.584 164.9 309.352C165.748 309.648 171.988 305.2 179.38 299.608L158.228 273.16C158.228 273.16 138.612 263.128 136.06 262.552C133.508 261.976 128.388 264.024 129.06 265.84Z" fill="#6D90FF"/>
<path d="M131.172 265.104C136.86 271.832 159.172 299.504 164.276 306.576C164.316 306.632 164.276 306.664 164.236 306.616C158.452 300.072 136.364 272.216 131.052 265.2C130.94 265.048 131.052 264.968 131.172 265.104Z" fill="#475B9D"/>
<path d="M139.652 264C140.282 264.748 140.749 265.618 141.025 266.556C141.3 267.494 141.378 268.479 141.252 269.448C141.056 271.194 140.197 272.797 138.852 273.928C138.812 273.928 138.748 273.928 138.788 273.848C139.962 272.523 140.674 270.853 140.818 269.089C140.962 267.325 140.531 265.562 139.588 264.064C139.587 264.055 139.588 264.046 139.591 264.038C139.593 264.03 139.598 264.022 139.604 264.016C139.61 264.009 139.618 264.005 139.626 264.002C139.635 263.999 139.644 263.999 139.652 264Z" fill="#475B9D"/>
<path d="M155.404 271.048C157.652 273.76 159.244 277.728 158.372 281.24C158.332 281.376 158.14 281.328 158.116 281.24C157.449 277.826 156.413 274.495 155.028 271.304C155.011 271.279 155 271.251 154.994 271.222C154.987 271.193 154.987 271.163 154.993 271.133C154.998 271.104 155.01 271.076 155.026 271.051C155.042 271.026 155.064 271.005 155.088 270.988C155.113 270.971 155.141 270.959 155.17 270.953C155.199 270.947 155.229 270.947 155.259 270.952C155.288 270.958 155.316 270.969 155.341 270.986C155.366 271.002 155.387 271.023 155.404 271.048Z" fill="#475B9D"/>
<path d="M152.868 269.592C155.116 272.304 156.708 276.272 155.836 279.784C155.836 279.92 155.612 279.872 155.588 279.784C154.914 276.371 153.876 273.04 152.492 269.848C152.458 269.798 152.445 269.737 152.457 269.678C152.468 269.618 152.502 269.566 152.552 269.532C152.602 269.498 152.663 269.485 152.722 269.497C152.782 269.508 152.834 269.542 152.868 269.592Z" fill="#475B9D"/>
<path d="M150.34 268.104C152.588 270.824 154.18 274.784 153.308 278.296C153.268 278.432 153.076 278.384 153.052 278.296C152.384 274.883 151.348 271.551 149.964 268.36C149.93 268.31 149.917 268.249 149.929 268.19C149.94 268.13 149.974 268.078 150.024 268.044C150.074 268.01 150.135 267.997 150.195 268.009C150.254 268.02 150.306 268.054 150.34 268.104Z" fill="#475B9D"/>
<path d="M147.804 266.68C150.052 269.4 151.644 273.36 150.772 276.872C150.772 277.008 150.548 276.96 150.524 276.872C149.849 273.456 148.811 270.123 147.428 266.928C147.395 266.878 147.383 266.817 147.395 266.759C147.407 266.7 147.442 266.649 147.492 266.616C147.542 266.583 147.603 266.571 147.661 266.583C147.72 266.595 147.771 266.63 147.804 266.68Z" fill="#475B9D"/>
<path d="M169.388 299.584C171.86 302.672 167.06 306.52 164.588 303.424C162.116 300.328 166.916 296.496 169.388 299.584Z" fill="#475B9D"/>
<path d="M160.34 262.184C162.612 262.648 162.9 265.304 162.388 267.12C161.465 270.242 159.734 273.065 157.372 275.304C157.364 275.316 157.353 275.325 157.341 275.332C157.328 275.338 157.314 275.341 157.3 275.341C157.286 275.341 157.272 275.338 157.259 275.332C157.247 275.325 157.236 275.316 157.228 275.304C157.167 275.335 157.1 275.352 157.031 275.352C156.963 275.351 156.895 275.335 156.834 275.304C156.773 275.273 156.72 275.227 156.68 275.172C156.64 275.116 156.614 275.052 156.604 274.984C156.388 271.944 155.804 268.72 156.492 265.696C156.932 263.88 158.196 261.744 160.34 262.184ZM157.22 270.248C157.292 271.744 157.436 273.232 157.452 274.736C158.473 273.184 159.415 271.582 160.276 269.936C160.678 269.13 161.028 268.299 161.324 267.448C161.748 266.12 161.876 261.576 158.668 263.704C156.932 264.856 157.132 268.464 157.22 270.248Z" fill="#475B9D"/>
<path d="M308 234.5L238 259L218 233.147C218 233.147 222.5 228.494 226.5 227.46C228.415 226.964 254 223.372 270.5 227.46C295.5 228.5 308 234.5 308 234.5Z" fill="#627AC5"/>
<path d="M161.844 282.912C159.556 280.816 158.252 277.8 156.724 275.16C156.696 275.099 156.683 275.031 156.685 274.964C156.688 274.896 156.706 274.83 156.739 274.771C156.772 274.712 156.818 274.661 156.874 274.623C156.929 274.585 156.993 274.561 157.06 274.552C157.059 274.537 157.061 274.522 157.066 274.509C157.071 274.495 157.08 274.482 157.09 274.472C157.101 274.462 157.114 274.455 157.129 274.45C157.143 274.446 157.158 274.445 157.172 274.448C160.372 274.974 163.378 276.328 165.892 278.376C167.332 279.6 168.588 281.952 166.972 283.616C165.356 285.28 163.18 284.104 161.844 282.912ZM164.74 283.312C168.596 283.272 165.94 279.584 164.844 278.728C164.119 278.187 163.36 277.692 162.572 277.248C160.972 276.312 159.228 275.648 157.532 274.848C158.332 276.096 159.076 277.408 159.86 278.688C160.788 280.216 162.62 283.304 164.74 283.304V283.312Z" fill="#475B9D"/>
<path d="M169.436 263.928C170.924 265.528 172.292 267.248 173.676 268.936C175.06 270.624 176.444 272.336 177.812 274.048C180.548 277.464 183.316 280.872 186.004 284.336C187.484 286.232 188.94 288.144 190.316 290.128C190.38 290.216 190.236 290.312 190.172 290.232C187.22 286.992 184.532 283.536 181.796 280.12C179.06 276.704 176.324 273.256 173.644 269.792C172.172 267.896 170.652 266.008 169.308 264.024C169.252 263.944 169.372 263.856 169.436 263.928Z" fill="#C18C88"/>
<path d="M209.36 281.936C213.192 278.912 217.168 276.064 221.144 273.232C225.12 270.4 229.056 267.584 233.072 264.848C234.224 264.048 235.384 263.288 236.544 262.52C237.704 261.752 238.944 261.032 240.048 260.232C240.112 260.192 240.176 260.296 240.112 260.344C239.064 261.096 238.08 261.944 237.056 262.704C236.032 263.464 235.104 264.2 234.12 264.928C232.192 266.352 230.248 267.752 228.304 269.16C224.368 272 220.4 274.816 216.4 277.56C214.12 279.12 211.856 280.688 209.528 282.176C209.392 282.264 209.224 282.04 209.36 281.936Z" fill="#46588E"/>
<path d="M210.178 222.355C212.492 224.825 214.611 227.49 216.751 230.089C218.891 232.689 221.129 235.337 223.288 237.977L229.734 245.822C231.818 248.367 233.93 250.892 235.793 253.592C236.814 255.069 237.765 256.589 238.628 258.155C239.521 259.67 240.278 261.258 240.891 262.9C240.893 262.953 240.834 262.979 240.808 262.939C239.956 261.606 239.226 260.197 238.402 258.845C237.579 257.493 236.734 256.195 235.822 254.893C233.973 252.216 231.891 249.701 229.832 247.173C225.556 241.926 221.256 236.686 217.033 231.396C214.666 228.435 212.183 225.542 210.027 222.455C209.946 222.389 210.096 222.265 210.178 222.355Z" fill="#46588E"/>
<path d="M287.035 229.499C288.83 229.735 290.605 230.053 292.405 230.332C294.204 230.611 295.935 230.79 297.689 231.209C299.444 231.628 301.207 232.097 302.912 232.613C303.749 232.857 304.589 233.108 305.416 233.384C306.264 233.62 307.093 233.921 307.895 234.284C307.971 234.326 307.919 234.434 307.843 234.428C307.001 234.313 306.167 234.141 305.347 233.914L302.666 233.217C300.958 232.819 299.243 232.46 297.56 232.041C295.877 231.621 294.192 231.076 292.517 230.689C290.841 230.301 288.857 229.874 287.039 229.542C287.015 229.582 286.996 229.493 287.035 229.499Z" fill="#46588E"/>
<path d="M10.8399 237.8C20.6159 251.048 30.8399 266.408 33.2959 283.016C33.2959 283.272 32.9199 283.352 32.8639 283.104C31.7384 278.572 30.2921 274.126 28.5359 269.8C22.1359 268.032 15.7999 266.6 12.4239 260.2C8.98395 253.648 9.42394 245.096 10.0719 237.952C10.1199 237.528 10.6399 237.512 10.8399 237.8Z" fill="#6D90FF"/>
<path d="M28.4399 269.64C24.0479 259.784 18.3999 249.888 11.1999 241.8C11.1519 241.744 11.0799 241.8 11.1279 241.88C15.8159 247.648 19.3838 253.936 22.8639 260.336C19.6238 257.048 16.0798 254.104 13.0158 250.616C13.0024 250.606 12.9858 250.601 12.9691 250.602C12.9523 250.603 12.9364 250.61 12.924 250.621C12.9117 250.632 12.9037 250.648 12.9015 250.664C12.8993 250.681 12.9029 250.698 12.9119 250.712C15.9599 254.368 19.3119 258.344 23.2559 261.048C24.3225 263.011 25.3892 264.976 26.4559 266.944C26.1839 266.792 25.9119 266.664 25.6559 266.528C25.6079 266.528 25.5599 266.576 25.6159 266.6C25.9119 266.752 26.2159 266.912 26.5279 267.048C27.0399 267.976 27.5519 268.912 28.0799 269.84C28.2479 270.032 28.5359 269.848 28.4399 269.64Z" fill="#2F2E41"/>
<path d="M25.1758 266.2C22.546 264.732 20.0368 263.057 17.6718 261.192C17.6078 261.144 17.5118 261.232 17.5758 261.28C19.8667 263.264 22.3794 264.977 25.0638 266.384C25.0759 266.391 25.0893 266.396 25.1033 266.398C25.1173 266.401 25.1316 266.4 25.1453 266.397C25.159 266.393 25.172 266.387 25.1834 266.379C25.1948 266.371 25.2045 266.36 25.2119 266.348C25.2192 266.336 25.2241 266.323 25.2263 266.309C25.2284 266.295 25.2278 266.28 25.2245 266.267C25.2212 266.253 25.2151 266.24 25.2068 266.228C25.1984 266.217 25.1879 266.207 25.1758 266.2Z" fill="#2F2E41"/>
<path d="M34.3997 280.512C34.3997 280.712 34.0397 280.704 34.0397 280.512C33.9917 275.04 34.0397 269.544 33.9597 264.056C32.5517 261.224 29.5517 259.664 27.4557 257.392C25.9536 255.739 24.6464 253.919 23.5597 251.968C21.0373 247.3 19.4964 242.166 19.0317 236.88C18.4557 231.032 20.6717 211.728 23.1437 212.4C24.4157 212.744 28.5597 222.304 29.6557 225.464C31.435 230.668 32.7364 236.024 33.5437 241.464C35.5677 254.344 35.3997 267.56 34.3997 280.512Z" fill="#6D90FF"/>
<path d="M34.4639 256.92C34.1599 250 32.6079 243.016 31.144 236.304C29.544 229.104 27.736 222.264 24.016 215.816C23.944 215.696 23.768 215.816 23.832 215.928C26.314 220.941 28.235 226.213 29.56 231.648C29.312 231.264 29.008 230.888 28.76 230.52C28.664 230.376 28.424 230.52 28.52 230.664C28.8549 231.247 29.2461 231.797 29.6879 232.304H29.736C31.016 237.472 31.936 242.76 32.7199 248.032C32.6656 247.959 32.6069 247.89 32.5439 247.824C32.5039 247.824 32.4399 247.824 32.4639 247.888C32.5599 248.064 32.672 248.232 32.776 248.408C33.176 251.088 33.576 253.76 33.912 256.408C29.112 252.328 25.112 247.528 22.784 241.616C22.784 241.616 22.728 241.616 22.736 241.616C24.984 247.744 28.528 253.2 33.984 256.928C34.088 257.64 34.1839 258.352 34.2879 259.064C34.2879 259.208 34.5439 259.168 34.5439 259.024C34.5439 258.4 34.5439 257.768 34.4879 257.136C34.5008 257.12 34.5103 257.102 34.5161 257.083C34.5218 257.064 34.5236 257.043 34.5214 257.023C34.5192 257.003 34.5129 256.983 34.5031 256.966C34.4932 256.948 34.4799 256.933 34.4639 256.92Z" fill="#2F2E41"/>
<path d="M32.216 246.896C28.576 241.456 25.176 236.184 22.512 230.176C22.5056 230.16 22.4932 230.147 22.4774 230.141C22.4617 230.134 22.4439 230.134 22.428 230.14C22.412 230.146 22.3993 230.159 22.3926 230.175C22.3858 230.19 22.3856 230.208 22.3919 230.224C24.6399 236.192 27.784 242.224 32.04 247.024C32.12 247.128 32.296 247 32.216 246.896Z" fill="#2F2E41"/>
<path d="M27.3759 228.832C25.8719 226.16 24.2799 223.568 22.8639 220.832C22.8239 220.76 22.7199 220.832 22.7519 220.904C23.9102 223.758 25.3833 226.473 27.1439 229C27.2479 229.104 27.4639 229 27.3759 228.832Z" fill="#2F2E41"/>
<path d="M38.1278 264.696C38.1974 268.318 38.6234 271.925 39.3998 275.464L39.2318 276.648C38.1179 272.738 37.4707 268.71 37.3038 264.648C37.2722 264.59 37.2557 264.526 37.2557 264.46C37.2557 264.394 37.2722 264.33 37.3038 264.272C37.1503 258.821 37.5551 253.369 38.5118 248C40.2078 237.952 43.9038 228.304 50.9198 220.8C50.9774 220.744 51.0478 220.703 51.1248 220.681C51.2017 220.658 51.283 220.655 51.3617 220.67C51.4404 220.686 51.514 220.721 51.5764 220.771C51.6388 220.822 51.688 220.886 51.7198 220.96C54.5518 228.16 53.5598 236.728 51.1518 243.904C49.8435 247.788 47.9729 251.459 45.5998 254.8C43.1438 258.144 40.0798 261 38.1278 264.696Z" fill="#6D90FF"/>
<path d="M50.0717 224.12C43.4317 234.904 38.8077 247.688 38.2397 260.416C38.2397 260.648 38.6077 260.704 38.6397 260.472C38.7997 259.328 38.9758 258.192 39.1598 257.064C41.9118 254.432 44.7597 251.656 46.6957 248.36C46.7357 248.304 46.6478 248.24 46.6078 248.288C44.3286 251.1 41.8814 253.772 39.2798 256.288C39.7598 253.472 40.3197 250.688 40.9917 247.976L41.5118 247.36C41.6318 247.224 41.4397 247.024 41.3197 247.16L41.1598 247.336C42.0916 243.594 43.2511 239.913 44.6318 236.312C46.3198 234.296 48.2157 232.552 49.4317 230.12C49.4317 230.064 49.3757 230.016 49.3437 230.064C48.3517 231.456 47.3917 232.856 46.2717 234.144C45.8237 234.656 45.3277 235.136 44.8637 235.64C46.3944 231.732 48.2127 227.943 50.3037 224.304C50.3184 224.273 50.3222 224.238 50.3144 224.205C50.3066 224.171 50.2877 224.141 50.2608 224.12C50.2339 224.099 50.2006 224.087 50.1662 224.087C50.1319 224.087 50.0986 224.099 50.0717 224.12Z" fill="#2F2E41"/>
<path d="M48.728 237.424C46.5839 240.312 44.1359 243.064 42.1359 246.056C42.0799 246.136 42.2079 246.224 42.2799 246.16C44.8399 243.76 47.0159 240.472 48.872 237.504C48.928 237.408 48.8 237.336 48.728 237.424Z" fill="#2F2E41"/>
<path d="M41.8396 246.72L41.7434 246.816C41.6792 246.88 41.7835 246.977 41.8476 246.913L41.9359 246.824C42 246.76 41.9038 246.656 41.8396 246.72Z" fill="#2F2E41"/>
<path d="M60.4798 244.848C59.6936 250.866 57.2694 256.553 53.4718 261.288C51.9051 263.147 49.9679 264.66 47.7838 265.728C45.3198 266.944 42.7438 268.344 40.1998 269.344C38.9879 272.428 38.0874 275.625 37.5118 278.888C37.4318 278.608 37.3518 278.32 37.2638 278.04C38.9038 264 47.9918 252 59.6078 244.296C59.699 244.237 59.8051 244.205 59.9137 244.205C60.0224 244.204 60.1289 244.235 60.2207 244.293C60.3124 244.351 60.3856 244.434 60.4316 244.532C60.4775 244.631 60.4943 244.74 60.4798 244.848Z" fill="#6D90FF"/>
<path d="M56.4639 249C56.5439 248.928 56.4639 248.784 56.3439 248.848C49.9569 253.597 44.8652 259.875 41.5359 267.104C41.4479 267.296 41.7119 267.464 41.8239 267.272C42.3599 266.328 42.9119 265.4 43.4719 264.496C46.1279 263.992 48.6399 262.096 50.6079 260.352C50.6639 260.304 50.6079 260.224 50.5279 260.272C49.5185 261.213 48.3918 262.019 47.1759 262.672C46.0879 263.224 44.9279 263.568 43.7999 264.008C44.7839 262.448 45.8079 260.952 46.8799 259.496C49.7558 258.412 52.4526 256.901 54.8799 255.016C54.8969 255.005 54.909 254.988 54.9135 254.969C54.918 254.949 54.9145 254.929 54.9039 254.912C54.8933 254.895 54.8764 254.883 54.8569 254.878C54.8374 254.874 54.8169 254.877 54.7999 254.888C52.4021 256.338 49.9293 257.659 47.3919 258.848C49.0125 256.713 50.7597 254.678 52.6239 252.752C53.5279 252.272 54.4399 251.792 55.3119 251.288C55.3839 251.248 55.3119 251.12 55.2559 251.152C54.5286 251.404 53.8353 251.745 53.1919 252.168C54.2239 251.064 55.3039 250.016 56.4639 249Z" fill="#2F2E41"/>
<path d="M56.2159 253.84C56.0602 253.938 55.9106 254.044 55.7679 254.16C55.7679 254.2 55.7679 254.256 55.8239 254.24C55.9856 254.162 56.1407 254.071 56.2879 253.968C56.3679 253.92 56.2959 253.8 56.2159 253.84Z" fill="#2F2E41"/>
<path d="M19.1281 309.296H50.9761L48.4081 280.296L47.8401 273.896H22.2641L21.6961 280.296L19.1281 309.296Z" fill="#405BB4"/>
<path d="M21.6957 280.296H48.4077L47.8397 273.896H22.2637L21.6957 280.296Z" fill="#2A3B75"/>
<path d="M20.7437 269.424H49.3677V275.752H20.7437V269.424Z" fill="#405BB4"/>
<path d="M59.0859 56.756L59.9766 56.8146C60.1953 57.7833 60.6445 59.1544 61.3242 60.9279C62.0039 62.6935 62.4531 64.0138 62.6719 64.8888C62.6719 65.1154 62.6328 65.2833 62.5547 65.3927C62.4766 65.5099 62.3789 65.5685 62.2617 65.5685C62.1602 65.5685 62.0625 65.5255 61.9688 65.4396C61.8828 65.3615 61.8242 65.2482 61.793 65.0997C61.7227 64.756 61.4961 64.0685 61.1133 63.0372C59.5039 62.8341 58.4922 62.7091 58.0781 62.6622C57.9766 62.9435 57.8516 63.4005 57.7031 64.0333C57.5547 64.6661 57.4375 65.1036 57.3516 65.3458C57.2344 65.4865 57.1016 65.5568 56.9531 65.5568C56.7891 65.5568 56.6484 65.4825 56.5312 65.3341C56.4141 65.1935 56.3555 65.0177 56.3555 64.8068C56.6055 63.8927 57.0586 62.549 57.7148 60.7755C58.3711 59.0021 58.8281 57.6622 59.0859 56.756ZM59.4961 57.9396C59.3398 58.8849 58.9062 60.2716 58.1953 62.0997H59.5078C60.1016 62.0997 60.5977 62.1193 60.9961 62.1583C60.1914 60.4318 59.6914 59.0255 59.4961 57.9396ZM67.9594 65.5568L67.3148 65.4279C67.3148 65.2716 67.3109 65.1544 67.3031 65.0763C66.8891 65.3419 66.4516 65.4747 65.9906 65.4747C65.2797 65.4747 64.725 65.17 64.3266 64.5607C63.9359 63.9513 63.7406 63.2599 63.7406 62.4865C63.7406 62.088 63.768 61.713 63.8227 61.3615C63.8852 61.0099 63.9867 60.6505 64.1273 60.2833C64.2758 59.9083 64.5023 59.6115 64.807 59.3927C65.1195 59.174 65.4945 59.0646 65.932 59.0646C66.3617 59.0646 66.7641 59.17 67.1391 59.381C67.2016 58.5529 67.2328 57.7169 67.2328 56.8732C67.2328 56.4904 67.2289 56.2091 67.2211 56.0294C67.5961 56.0997 67.893 56.1896 68.1117 56.299L67.9594 65.5568ZM67.2094 64.3029L67.1742 60.5294C67.0805 60.3341 66.932 60.1818 66.7289 60.0724C66.5336 59.9552 66.3227 59.8966 66.0961 59.8966C65.7914 59.8966 65.5297 59.9943 65.3109 60.1896C65.1 60.3849 64.9477 60.6466 64.8539 60.9747C64.768 61.295 64.7055 61.5958 64.6664 61.8771C64.6352 62.1583 64.6195 62.4552 64.6195 62.7677C64.6195 64.0958 65.0648 64.7599 65.9555 64.7599C66.2523 64.7599 66.5219 64.7208 66.7641 64.6427C67.0141 64.5568 67.1625 64.4435 67.2094 64.3029ZM73.8797 65.5568L73.2352 65.4279C73.2352 65.2716 73.2312 65.1544 73.2234 65.0763C72.8094 65.3419 72.3719 65.4747 71.9109 65.4747C71.2 65.4747 70.6453 65.17 70.2469 64.5607C69.8562 63.9513 69.6609 63.2599 69.6609 62.4865C69.6609 62.088 69.6883 61.713 69.743 61.3615C69.8055 61.0099 69.907 60.6505 70.0477 60.2833C70.1961 59.9083 70.4227 59.6115 70.7273 59.3927C71.0398 59.174 71.4148 59.0646 71.8523 59.0646C72.282 59.0646 72.6844 59.17 73.0594 59.381C73.1219 58.5529 73.1531 57.7169 73.1531 56.8732C73.1531 56.4904 73.1492 56.2091 73.1414 56.0294C73.5164 56.0997 73.8133 56.1896 74.032 56.299L73.8797 65.5568ZM73.1297 64.3029L73.0945 60.5294C73.0008 60.3341 72.8523 60.1818 72.6492 60.0724C72.4539 59.9552 72.243 59.8966 72.0164 59.8966C71.7117 59.8966 71.45 59.9943 71.2312 60.1896C71.0203 60.3849 70.868 60.6466 70.7742 60.9747C70.6883 61.295 70.6258 61.5958 70.5867 61.8771C70.5555 62.1583 70.5398 62.4552 70.5398 62.7677C70.5398 64.0958 70.9852 64.7599 71.8758 64.7599C72.1727 64.7599 72.4422 64.7208 72.6844 64.6427C72.9344 64.5568 73.0828 64.4435 73.1297 64.3029ZM82.732 59.5802L82.8609 60.1075C82.65 60.1232 82.3258 60.1661 81.8883 60.2365C81.4508 60.299 81.1227 60.338 80.9039 60.3536C80.943 60.6271 80.9664 60.9865 80.9742 61.4318C80.982 61.8771 80.9898 62.2638 80.9977 62.5919C81.0133 62.9122 81.0484 63.2365 81.1031 63.5646C81.1656 63.8849 81.2867 64.131 81.4664 64.3029C81.6539 64.4747 81.9039 64.5607 82.2164 64.5607C82.4508 64.5607 82.7437 64.506 83.0953 64.3966C83.2437 64.6857 83.3531 64.8966 83.4234 65.0294C82.8062 65.2482 82.1812 65.3575 81.5484 65.3575C81.3141 65.3575 81.1109 65.2872 80.9391 65.1466C80.7672 65.006 80.6344 64.8302 80.5406 64.6193C80.4469 64.4083 80.3687 64.1427 80.3062 63.8224C80.2516 63.4943 80.2164 63.1857 80.2008 62.8966C80.1852 62.6075 80.1773 62.2755 80.1773 61.9005C80.1773 61.6974 80.1773 61.4161 80.1773 61.0568C80.1852 60.6974 80.1891 60.4513 80.1891 60.3185C80.1109 60.3263 79.9273 60.3341 79.6383 60.3419C79.3492 60.3419 79.1812 60.3419 79.1344 60.3419C79.0797 59.8185 79.0523 59.549 79.0523 59.5333C79.107 59.549 79.1969 59.5568 79.3219 59.5568C79.3922 59.5568 79.5055 59.5529 79.6617 59.545C79.818 59.5294 79.9352 59.5216 80.0133 59.5216C80.0445 59.5216 80.0836 59.5255 80.1305 59.5333C80.1852 59.5333 80.2203 59.5333 80.2359 59.5333C80.2672 58.674 80.3023 57.9747 80.3414 57.4357L80.8687 57.5646C80.8766 57.7521 80.8805 57.9552 80.8805 58.174C80.8883 58.3849 80.8922 58.6232 80.8922 58.8888C80.9 59.1466 80.9039 59.3458 80.9039 59.4865C81.107 59.5021 81.4117 59.5177 81.818 59.5333C82.2242 59.549 82.5289 59.5646 82.732 59.5802ZM84.9141 60.1896L84.6797 59.5919C84.8828 59.3888 85.1406 59.2286 85.4531 59.1115C85.7656 58.9865 86.0742 58.924 86.3789 58.924C87.6992 58.924 88.3594 60.0646 88.3594 62.3458C88.3594 62.6583 88.3398 63.1193 88.3008 63.7286C88.2695 64.338 88.2539 64.795 88.2539 65.0997C88.1914 65.3419 88.0703 65.463 87.8906 65.463C87.75 65.463 87.6211 65.3927 87.5039 65.2521C87.3867 65.1115 87.3281 64.9552 87.3281 64.7833C87.3281 64.7286 87.332 64.6896 87.3398 64.6661C86.8555 65.1349 86.3398 65.3693 85.793 65.3693C85.3789 65.3693 85.0156 65.2208 84.7031 64.924C84.3984 64.6193 84.2461 64.2521 84.2461 63.8224C84.2461 63.0958 84.5273 62.4396 85.0898 61.8536C85.6602 61.2677 86.3047 60.9747 87.0234 60.9747C87.0547 60.9747 87.0859 60.9786 87.1172 60.9865C87.1484 60.9865 87.1836 60.9904 87.2227 60.9982C87.2695 61.006 87.3047 61.0099 87.3281 61.0099C87.2656 60.0958 86.9023 59.6388 86.2383 59.6388C85.8477 59.6388 85.4062 59.8224 84.9141 60.1896ZM87.3633 63.8575C87.3789 63.3107 87.3867 62.8966 87.3867 62.6154C87.3867 62.381 87.3789 62.0529 87.3633 61.631H87.2695C86.7148 61.6388 86.207 61.8458 85.7461 62.2521C85.293 62.6583 85.0664 63.1505 85.0664 63.7286C85.0664 63.9786 85.1406 64.1779 85.2891 64.3263C85.4453 64.4747 85.6328 64.549 85.8516 64.549C86.1953 64.549 86.6992 64.3185 87.3633 63.8575ZM93.518 59.6036L93.4008 60.0724C92.643 59.7599 92.0531 59.6036 91.6312 59.6036C91.2562 59.6036 90.9906 59.6622 90.8344 59.7794C90.6859 59.8888 90.6117 60.1271 90.6117 60.4943C90.6117 60.7911 90.7172 61.0372 90.9281 61.2325C91.1469 61.4279 91.4086 61.5841 91.7133 61.7013C92.018 61.8107 92.3227 61.9318 92.6273 62.0646C92.9398 62.1896 93.2016 62.3771 93.4125 62.6271C93.6312 62.8771 93.7406 63.1857 93.7406 63.5529C93.7406 64.0529 93.557 64.4904 93.1898 64.8654C92.8227 65.2404 92.3461 65.4318 91.7602 65.4396C91.3305 65.4396 90.9281 65.3497 90.5531 65.17C90.1781 64.9904 89.8812 64.7638 89.6625 64.4904L90.0023 64.1388C90.0961 64.1779 90.2328 64.2404 90.4125 64.3263C90.6 64.4122 90.7328 64.4708 90.8109 64.5021C90.8891 64.5255 91.0023 64.5529 91.1508 64.5841C91.307 64.6154 91.4711 64.631 91.643 64.631C92.0102 64.631 92.3109 64.549 92.5453 64.3849C92.7797 64.2208 92.8969 63.9904 92.8969 63.6935C92.8969 63.4982 92.8422 63.3341 92.7328 63.2013C92.6234 63.0607 92.4789 62.9474 92.2992 62.8615C92.1195 62.7755 91.9203 62.6935 91.7016 62.6154C91.4906 62.5372 91.2758 62.4513 91.057 62.3575C90.8461 62.256 90.6508 62.1388 90.4711 62.006C90.2914 61.8654 90.1469 61.6779 90.0375 61.4435C89.9281 61.2091 89.8734 60.9318 89.8734 60.6115C89.8734 60.1427 89.9984 59.7521 90.2484 59.4396C90.5062 59.1193 90.8656 58.9591 91.3266 58.9591C91.5062 58.9591 91.7094 58.9865 91.9359 59.0411C92.1625 59.0958 92.3422 59.1466 92.475 59.1935C92.6078 59.2404 92.8031 59.3185 93.0609 59.4279C93.3266 59.5294 93.4789 59.588 93.518 59.6036ZM99.3328 65.2521L98.2547 65.2286C97.9656 64.9396 97.5672 64.4747 97.0594 63.8341C96.5594 63.1857 96.243 62.7872 96.1102 62.6388V65.0529C96.0398 65.2872 95.9031 65.4044 95.7 65.4044C95.5594 65.4044 95.4227 65.3497 95.2898 65.2404C95.1648 65.1232 95.0867 64.9825 95.0555 64.8185C95.0789 64.0138 95.0906 62.6779 95.0906 60.8107C95.0906 58.9435 95.1063 57.6036 95.1375 56.7911L95.8523 56.9435C95.8602 57.256 95.8719 57.8966 95.8875 58.8654C95.9109 59.8341 95.9305 60.5568 95.9461 61.0333L98.7938 58.9474L98.993 59.4747C98.2508 60.0138 97.3797 60.7755 96.3797 61.7599C96.5906 61.9865 97.0555 62.5411 97.7742 63.424C98.5008 64.299 99.0203 64.9083 99.3328 65.2521Z" fill="#4F4F4F"/>
<path opacity="0.3" d="M42.1489 36.9068C32.8318 36.9068 25.2787 29.3538 25.2787 20.0366C25.2787 10.7195 32.8318 3.1665 42.1489 3.1665C51.466 3.1665 59.019 10.7195 59.019 20.0366C59.019 29.3538 51.466 36.9068 42.1489 36.9068Z" fill="black"/>
<path d="M42.1489 33.7991C32.8318 33.7991 25.2787 26.2461 25.2787 16.929C25.2787 7.61186 32.8318 0.0588379 42.1489 0.0588379C51.466 0.0588379 59.019 7.61186 59.019 16.929C59.019 26.2461 51.466 33.7991 42.1489 33.7991Z" fill="#80CC95"/>
<path d="M42.1453 27.1399C42.6352 27.1399 43.0366 22.6582 43.0366 17.151C43.0366 11.6438 42.6352 7.16211 42.1453 7.16211C41.6554 7.16211 41.2608 11.6438 41.2608 17.151C41.2608 22.6582 41.6622 27.1399 42.1453 27.1399Z" fill="white"/>
<path d="M31.9377 16.9289C31.9377 17.4207 36.4127 17.8168 41.9266 17.8168C47.4405 17.8168 51.9155 17.4207 51.9155 16.9289C51.9155 16.4372 47.4405 16.041 41.9266 16.041C36.4127 16.041 31.9377 16.4372 31.9377 16.9289Z" fill="white"/>
</svg>
