<svg width="352" height="329" viewBox="0 0 352 329" fill="none" xmlns="http://www.w3.org/2000/svg">
<path d="M185.68 116.2C185.478 115.812 185.175 115.484 184.804 115.252C184.433 115.02 184.006 114.892 183.568 114.88C183.541 114.879 183.514 114.883 183.488 114.893C183.462 114.902 183.439 114.917 183.419 114.935C183.399 114.954 183.382 114.976 183.371 115.001C183.36 115.026 183.353 115.053 183.352 115.08C183.352 115.137 183.373 115.191 183.412 115.233C183.451 115.275 183.504 115.3 183.56 115.304C183.925 115.315 184.281 115.423 184.59 115.617C184.899 115.811 185.151 116.084 185.32 116.408C185.53 116.783 185.673 117.192 185.744 117.616C185.437 117.272 185.019 117.046 184.563 116.977C184.108 116.908 183.642 116.999 183.246 117.236C182.85 117.473 182.55 117.84 182.395 118.275C182.241 118.709 182.243 119.184 182.401 119.617C182.559 120.051 182.862 120.415 183.26 120.649C183.658 120.883 184.124 120.97 184.579 120.897C185.035 120.824 185.45 120.595 185.755 120.249C186.059 119.902 186.234 119.461 186.248 119C186.256 118.867 186.256 118.733 186.248 118.6C186.263 117.765 186.068 116.94 185.68 116.2ZM185.824 118.968C185.832 119.005 185.832 119.043 185.824 119.08C185.82 119.089 185.818 119.098 185.818 119.108C185.818 119.118 185.82 119.127 185.824 119.136C185.766 119.518 185.572 119.865 185.278 120.115C184.984 120.365 184.61 120.5 184.224 120.496C183.908 120.496 183.598 120.402 183.335 120.226C183.072 120.051 182.867 119.801 182.746 119.508C182.625 119.216 182.593 118.894 182.655 118.584C182.717 118.273 182.869 117.988 183.093 117.765C183.317 117.541 183.602 117.388 183.912 117.327C184.222 117.265 184.544 117.297 184.836 117.418C185.129 117.539 185.379 117.744 185.554 118.007C185.73 118.27 185.824 118.58 185.824 118.896V118.968Z" fill="#F8F8F8"/>
<path d="M342.84 290.432L301.128 290.24L259.416 290.168L176 290.04L92.5841 290.168L50.8721 290.24L9.16013 290.432L50.8721 290.632L92.5841 290.704L176 290.832L259.416 290.704L301.128 290.632L342.84 290.432Z" fill="#2F2E41"/>
<path d="M176 328.384C78.9084 328.384 0.200073 318.531 0.200073 306.376C0.200073 294.221 78.9084 284.368 176 284.368C273.092 284.368 351.8 294.221 351.8 306.376C351.8 318.531 273.092 328.384 176 328.384Z" fill="#D6CFBF"/>
<path d="M28.6881 24.2V281.8C28.6702 283.588 29.005 285.362 29.6734 287.02C30.3419 288.679 31.3308 290.189 32.5836 291.465C33.8364 292.741 35.3285 293.757 36.9745 294.456C38.6205 295.154 40.3881 295.521 42.1761 295.536H175.44C177.227 295.52 178.994 295.152 180.639 294.453C182.284 293.754 183.776 292.738 185.028 291.462C186.279 290.187 187.268 288.677 187.936 287.019C188.604 285.361 188.938 283.587 188.92 281.8V24.2C188.939 22.412 188.605 20.6378 187.938 18.9789C187.27 17.3201 186.282 15.8091 185.03 14.5325C183.778 13.2559 182.287 12.2388 180.641 11.5393C178.996 10.8398 177.228 10.4717 175.44 10.456H42.1761C40.3874 10.4706 38.6192 10.838 36.9726 11.537C35.3261 12.236 33.8336 13.253 32.5807 14.5297C31.3278 15.8064 30.3391 17.3177 29.6711 18.9771C29.0032 20.6365 28.6691 22.4113 28.6881 24.2Z" fill="#2F2E41"/>
<path d="M37.3017 37.128V273.328C37.3017 280.528 42.7097 286.392 49.3737 286.392H168.574C175.254 286.392 180.662 280.544 180.662 273.328V37.128C180.662 22.408 175.254 19.16 168.574 19.16H144.694C143.31 19.16 142.182 20.76 142.182 22.688V23.488C142.182 28.072 139.67 28.088 136.582 28.088H81.3816C78.2776 28.088 75.7816 28.088 75.7816 23.488V22.688C75.7816 20.736 74.6616 19.16 73.2616 19.16H49.3656C42.7096 19.16 37.3017 23.648 37.3017 37.128Z" fill="white"/>
<path d="M101.272 22.408H116.336C116.459 22.4091 116.58 22.3858 116.694 22.3397C116.807 22.2935 116.911 22.2253 116.998 22.139C117.085 22.0528 117.154 21.9501 117.201 21.837C117.248 21.7239 117.272 21.6025 117.272 21.48C117.272 21.3575 117.248 21.2361 117.201 21.123C117.154 21.0099 117.085 20.9072 116.998 20.821C116.911 20.7347 116.807 20.6665 116.694 20.6203C116.58 20.5742 116.459 20.5509 116.336 20.552H101.272C101.026 20.552 100.79 20.6498 100.616 20.8238C100.442 20.9978 100.344 21.2339 100.344 21.48C100.344 21.7261 100.442 21.9622 100.616 22.1362C100.79 22.3102 101.026 22.408 101.272 22.408Z" fill="white"/>
<path d="M68.4651 39.328H56.4731V41.304H68.4651V39.328Z" fill="#DBDBDB"/>
<path d="M68.4651 43.272H56.4731V45.248H68.4651V43.272Z" fill="#DBDBDB"/>
<path d="M68.4651 47.224H56.4731V49.2H68.4651V47.224Z" fill="#DBDBDB"/>
<path d="M154.613 42.8496L153.293 43.8497L157.327 49.174L158.647 48.1739L154.613 42.8496Z" fill="#DBDBDB"/>
<path d="M156.064 40.616C156.495 41.1805 156.749 41.8601 156.793 42.5688C156.838 43.2776 156.672 43.9837 156.315 44.5979C155.959 45.2122 155.429 45.707 154.791 46.0199C154.154 46.3328 153.438 46.4497 152.734 46.3558C152.03 46.2619 151.369 45.9616 150.836 45.4926C150.303 45.0236 149.921 44.407 149.738 43.7209C149.555 43.0347 149.579 42.3097 149.808 41.6375C150.037 40.9652 150.46 40.3759 151.024 39.944C151.398 39.6558 151.826 39.4444 152.283 39.3221C152.739 39.1999 153.215 39.1691 153.684 39.2315C154.152 39.294 154.604 39.4485 155.012 39.6861C155.42 39.9237 155.778 40.2397 156.064 40.616Z" fill="#DBDBDB"/>
<path d="M154.912 41.488C155.173 41.8249 155.328 42.2318 155.357 42.657C155.387 43.0822 155.289 43.5066 155.077 43.8763C154.865 44.2461 154.548 44.5445 154.166 44.7339C153.785 44.9232 153.355 44.9949 152.932 44.9398C152.51 44.8847 152.113 44.7054 151.792 44.4245C151.472 44.1436 151.242 43.7739 151.132 43.3621C151.022 42.9504 151.036 42.5152 151.174 42.1118C151.311 41.7083 151.565 41.3548 151.904 41.096C152.355 40.7509 152.925 40.5984 153.489 40.6719C154.052 40.7453 154.564 41.0387 154.912 41.488Z" fill="white"/>
<path d="M129.845 157.218H87.6697V175.863H129.845V157.218Z" fill="#C8B17A"/>
<path d="M103.609 168.301H101.209L100.729 169.597C100.686 169.699 100.613 169.786 100.521 169.847C100.428 169.908 100.32 169.941 100.209 169.941C100.146 169.953 100.081 169.953 100.017 169.941C99.8802 169.889 99.7692 169.785 99.7079 169.652C99.6465 169.519 99.6399 169.367 99.6892 169.229L101.889 163.373C101.932 163.269 102.005 163.18 102.099 163.118C102.194 163.057 102.305 163.026 102.417 163.029C102.53 163.027 102.64 163.058 102.734 163.12C102.828 163.181 102.902 163.269 102.945 163.373L105.137 169.229C105.187 169.367 105.18 169.519 105.119 169.652C105.057 169.785 104.946 169.889 104.809 169.941C104.746 169.955 104.68 169.955 104.617 169.941C104.508 169.942 104.402 169.909 104.311 169.848C104.221 169.786 104.152 169.699 104.113 169.597L103.609 168.301ZM103.201 167.205L102.401 165.069L101.601 167.205H103.201Z" fill="white"/>
<path d="M106.481 169.397V163.533C106.48 163.461 106.494 163.39 106.52 163.323C106.547 163.257 106.587 163.197 106.638 163.146C106.689 163.095 106.749 163.055 106.816 163.028C106.882 163.001 106.954 162.988 107.025 162.989H108.201C109.094 163.032 109.937 163.417 110.553 164.064C111.17 164.711 111.514 165.571 111.514 166.465C111.514 167.359 111.17 168.219 110.553 168.866C109.937 169.513 109.094 169.898 108.201 169.941H107.025C106.881 169.941 106.743 169.884 106.641 169.782C106.539 169.68 106.481 169.541 106.481 169.397ZM107.585 168.837H108.201C108.773 168.755 109.297 168.47 109.675 168.034C110.054 167.597 110.263 167.039 110.263 166.461C110.263 165.883 110.054 165.325 109.675 164.888C109.297 164.452 108.773 164.166 108.201 164.085H107.585V168.837Z" fill="white"/>
<path d="M113.329 169.397V163.533C113.328 163.461 113.341 163.39 113.368 163.323C113.395 163.257 113.435 163.197 113.486 163.146C113.537 163.095 113.597 163.055 113.664 163.028C113.73 163.001 113.801 162.988 113.873 162.989H115.049C115.942 163.032 116.784 163.417 117.401 164.064C118.018 164.711 118.362 165.571 118.362 166.465C118.362 167.359 118.018 168.219 117.401 168.866C116.784 169.513 115.942 169.898 115.049 169.941H113.873C113.729 169.941 113.591 169.884 113.488 169.782C113.386 169.68 113.329 169.541 113.329 169.397ZM114.433 168.837H115.049C115.621 168.755 116.145 168.47 116.523 168.034C116.902 167.597 117.111 167.039 117.111 166.461C117.111 165.883 116.902 165.325 116.523 164.888C116.145 164.452 115.621 164.166 115.049 164.085H114.433V168.837Z" fill="white"/>
<path d="M161.366 68.4273H56.5935V86.1853H161.366V68.4273Z" fill="#EBEBEB"/>
<path d="M161.366 92.8447H56.5935V110.603H161.366V92.8447Z" fill="#EBEBEB"/>
<path d="M161.366 117.262H56.5935V135.02H161.366V117.262Z" fill="#EBEBEB"/>
<path d="M319.768 313.408L202.352 313.912C173.808 291.512 170.864 258.304 191.224 238.176C203.544 226.008 219.224 228.464 234.096 226.528C239.36 225.97 244.479 224.466 249.208 222.088C264.552 214 273.208 194.888 286.104 178.84C287.704 176.832 289.392 174.84 291.16 172.984C301.776 161.648 322.896 161.28 333.952 177.216C362.064 217.696 349.2 277.952 319.768 313.408Z" fill="#BDA876"/>
<path d="M322.4 220.776C319.32 268.952 263.688 286.936 228.944 272.504C198.728 259.952 208.616 231.312 234.12 226.528C239.384 225.97 244.503 224.466 249.232 222.088C264.576 214 273.232 194.888 286.128 178.84C305.376 168.848 324.632 185.504 322.4 220.776Z" fill="#FFFBF1"/>
<path d="M212.112 320.704C213.928 320.04 254.96 287.24 255.736 285C256.04 284.152 251.608 277.896 246.048 270.496C244.84 268.896 243.592 267.248 242.312 265.584C234.016 254.784 224.968 243.512 224.968 243.512L197.456 265.368L215.552 286.84L219.552 291.56C219.552 291.56 209.456 311.144 208.872 313.696C208.288 316.248 210.296 321.368 212.112 320.704Z" fill="#FFC4C0"/>
<path d="M212.112 320.704C213.928 320.04 254.96 287.24 255.736 285C256.096 283.968 249.488 274.952 242.312 265.584L215.552 286.84L219.552 291.56C219.552 291.56 209.456 311.144 208.872 313.696C208.288 316.248 210.296 321.368 212.112 320.704Z" fill="white"/>
<path d="M212.112 320.704C213.928 320.04 254.96 287.24 255.736 285C256.04 284.152 251.608 277.896 246.048 270.496L219.528 291.56C219.528 291.56 209.432 311.144 208.848 313.696C208.264 316.248 210.296 321.368 212.112 320.704Z" fill="#F9E4B0"/>
<path d="M211.384 318.6C218.128 312.936 245.864 290.712 252.984 285.624C253.048 285.624 253.072 285.624 253.024 285.672C246.464 291.432 218.544 313.424 211.504 318.712C211.328 318.816 211.248 318.712 211.384 318.6Z" fill="#2F2E41"/>
<path d="M210.304 310.104C211.054 309.476 211.926 309.009 212.865 308.734C213.804 308.458 214.79 308.38 215.76 308.504C217.509 308.717 219.11 309.593 220.232 310.952C220.232 310.992 220.232 311.056 220.152 311.016C218.828 309.843 217.16 309.131 215.397 308.987C213.635 308.843 211.873 309.274 210.376 310.216C210.361 310.225 210.343 310.229 210.326 310.225C210.309 310.221 210.294 310.211 210.284 310.196C210.275 310.181 210.271 310.163 210.275 310.146C210.279 310.129 210.289 310.114 210.304 310.104Z" fill="#2F2E41"/>
<path d="M217.408 294.376C220.128 292.136 224.096 290.56 227.608 291.44C227.744 291.48 227.688 291.672 227.608 291.696C224.172 292.353 220.817 293.378 217.6 294.752C217.552 294.765 217.502 294.761 217.457 294.74C217.412 294.72 217.375 294.685 217.353 294.641C217.33 294.597 217.323 294.547 217.333 294.499C217.344 294.451 217.37 294.407 217.408 294.376Z" fill="#2F2E41"/>
<path d="M215.944 296.904C218.664 294.664 222.632 293.088 226.144 293.968C226.28 294.008 226.232 294.2 226.144 294.224C222.73 294.885 219.396 295.91 216.2 297.28C216.15 297.314 216.089 297.327 216.03 297.315C215.97 297.304 215.918 297.27 215.884 297.22C215.85 297.17 215.837 297.109 215.849 297.05C215.86 296.99 215.894 296.938 215.944 296.904Z" fill="#2F2E41"/>
<path d="M214.48 299.4C217.2 297.16 221.168 295.584 224.68 296.464C224.816 296.504 224.768 296.696 224.68 296.72C221.266 297.381 217.932 298.406 214.736 299.776C214.686 299.81 214.625 299.823 214.566 299.811C214.507 299.8 214.454 299.766 214.42 299.716C214.386 299.666 214.373 299.605 214.385 299.546C214.396 299.486 214.43 299.434 214.48 299.4Z" fill="#2F2E41"/>
<path d="M213.016 301.96C215.736 299.72 219.704 298.144 223.216 299.024C223.352 299.024 223.304 299.256 223.216 299.272C219.803 299.94 216.469 300.967 213.272 302.336C213.222 302.37 213.161 302.383 213.102 302.371C213.042 302.36 212.99 302.326 212.956 302.276C212.922 302.226 212.909 302.165 212.921 302.106C212.932 302.046 212.966 301.994 213.016 301.96Z" fill="#2F2E41"/>
<path d="M245.992 280.488C249.088 278.024 252.912 282.832 249.816 285.288C246.72 287.744 242.888 282.952 245.992 280.488Z" fill="white"/>
<path d="M208.56 289.408C209.024 287.136 211.688 286.864 213.504 287.376C216.608 288.315 219.411 290.053 221.632 292.416C221.644 292.425 221.653 292.436 221.66 292.45C221.666 292.463 221.669 292.477 221.669 292.492C221.669 292.507 221.666 292.521 221.66 292.534C221.653 292.547 221.644 292.559 221.632 292.568C221.663 292.628 221.68 292.695 221.68 292.764C221.68 292.832 221.664 292.899 221.632 292.959C221.601 293.02 221.555 293.072 221.5 293.111C221.444 293.15 221.38 293.175 221.312 293.184C218.272 293.392 215.04 293.984 212.024 293.272C210.24 292.84 208.112 291.552 208.56 289.408ZM216.608 292.56C218.112 292.496 219.6 292.352 221.104 292.344C219.554 291.315 217.952 290.367 216.304 289.504C215.499 289.098 214.668 288.745 213.816 288.448C212.488 288.016 207.944 287.872 210.064 291.088C211.2 292.864 214.824 292.64 216.608 292.56Z" fill="#2F2E41"/>
<path d="M229.288 287.976C227.184 290.256 224.168 291.552 221.52 293.064C221.459 293.094 221.391 293.109 221.323 293.107C221.255 293.105 221.188 293.087 221.128 293.054C221.069 293.021 221.018 292.974 220.98 292.918C220.943 292.861 220.919 292.796 220.912 292.728C220.856 292.728 220.8 292.728 220.808 292.624C221.354 289.419 222.733 286.415 224.808 283.912C226.032 282.472 228.392 281.224 230.048 282.848C231.704 284.472 230.52 286.64 229.288 287.976ZM229.696 285.08C229.696 281.224 225.976 283.872 225.112 284.968C224.568 285.686 224.074 286.439 223.632 287.224C222.747 288.862 221.946 290.544 221.232 292.264C222.488 291.464 223.8 290.728 225.088 289.944C226.592 289 229.712 287.2 229.696 285.08Z" fill="#2F2E41"/>
<path d="M169.664 223.336C171.544 237.632 206.776 278.896 210.848 283.632L211.776 284.704L240.912 262.304L240.576 261.872L214.92 228.272L291.464 227.824L262.4 205.232C262.4 205.232 260.04 206.592 255.144 205.88C238.248 203.408 200.16 197.928 191.144 198.288C179.6 198.768 167.936 210.216 169.664 223.336Z" fill="#2A283D"/>
<path d="M205.704 215.792C206.657 216.866 207.542 217.999 208.352 219.184C209.256 220.368 210.176 221.584 211.088 222.736V222.776C210.928 222.424 210.768 222.08 210.6 221.728C210.032 220.544 209.576 219.328 208.896 218.192C208.856 218.12 208.96 218.056 209 218.128C209.696 219.248 210.504 220.32 211.096 221.504C211.376 222.056 211.64 222.624 211.896 223.192C212.032 223.504 212.176 223.824 212.296 224.144C212.352 224.288 212.416 224.44 212.464 224.6C212.864 225.152 213.264 225.704 213.656 226.272C214.52 227.52 215.256 228.848 216.16 230.088C216.208 230.152 216.096 230.216 216.048 230.152C215.168 228.984 214.176 227.896 213.272 226.736C212.368 225.576 211.488 224.336 210.632 223.12C209.776 221.904 208.976 220.72 208.136 219.536C207.22 218.36 206.378 217.129 205.616 215.848C205.609 215.836 205.606 215.822 205.609 215.809C205.612 215.795 205.621 215.783 205.632 215.776C205.644 215.768 205.658 215.766 205.671 215.769C205.685 215.772 205.697 215.78 205.704 215.792Z" fill="#2F2E41"/>
<path d="M287.2 143.984C293.272 148.784 299.28 179.984 301.6 183.456C303.256 185.896 305.336 188.336 305.24 189.712C305.144 191.088 299.32 197.856 288.304 199.984C277.288 202.112 266.432 196.856 265.328 195.472C264.224 194.088 267.128 189.336 267.016 185.072C266.904 180.808 263.096 157.4 265.416 150.424C268.096 142.512 280.232 138.512 287.2 143.984Z" fill="#494256"/>
<path d="M264.568 194.144C265.769 191.357 266.335 188.337 266.224 185.304C266.16 181.888 265.728 178.472 265.352 175.08C264.952 171.501 264.555 167.923 264.16 164.344C263.816 161.184 263.36 157.992 263.952 154.84C264.497 151.782 265.841 148.922 267.848 146.552C267.848 146.552 267.936 146.552 267.904 146.592C266.044 149.018 264.8 151.859 264.28 154.872C263.712 158.248 264.28 161.696 264.64 165.08C265.04 168.592 265.44 172.096 265.816 175.608C266.168 178.808 266.568 182.088 266.616 185.336C266.616 188.328 266.352 191.656 264.76 194.232C264.688 194.328 264.52 194.248 264.568 194.144Z" fill="#2F2E41"/>
<path d="M286.232 143.776C289.048 145.304 290.424 148.328 291.552 151.232C293.072 155.176 294.472 159.176 295.784 163.232C297.144 167.384 298.264 171.608 299.6 175.768C300.948 179.807 302.878 183.629 305.328 187.112C305.384 187.192 305.328 187.288 305.216 187.216C299.976 181.08 298.36 172.816 295.96 165.28C294.632 161.12 293.232 156.987 291.76 152.88C290.568 149.552 289.36 145.784 286.16 143.872C286.144 143.816 286.192 143.752 286.232 143.776Z" fill="#494256"/>
<path d="M283.664 142.64C289.552 144.944 291.88 151.536 293.776 157.16C296.032 163.84 297.656 170.72 299.648 177.48C300.76 181.296 301.768 185.44 304.248 188.608C304.32 188.704 304.184 188.824 304.104 188.736C302.2 186.464 301.224 183.64 300.32 180.848C299.24 177.496 298.296 174.104 297.368 170.712C295.512 163.992 293.816 157.056 290.92 150.712C289.392 147.368 287.112 144.104 283.64 142.712C283.6 142.688 283.624 142.6 283.664 142.64Z" fill="#494256"/>
<path d="M281.888 184.92C276.696 192.368 258.912 211.696 246.616 214.52C239.832 216.064 207.088 220.64 202.616 216.56C197.36 211.76 199.8 193.744 203.976 193.584C216.776 193.08 240.336 195.576 246.232 194.28C248.896 193.688 263.032 184.568 278.136 177.272C283.824 174.504 285.232 180.112 281.888 184.92Z" fill="#FFC4C0"/>
<path d="M210.904 192.576L213.096 219.568C213.096 219.568 242.808 219.096 251.776 214.056C260.744 209.016 275.344 196.152 280.928 187.208C286.512 178.264 284.648 173.392 273.728 178.896C262.808 184.4 248.128 193.216 246.176 193.68C244.224 194.144 210.904 192.576 210.904 192.576Z" fill="#F9E4B0"/>
<path d="M215.68 194.456C215.68 194.384 215.792 194.352 215.808 194.456C216.168 196.312 216.328 198.216 216.536 200.056C216.744 201.896 216.936 203.944 217.112 205.888C217.464 209.768 217.912 213.672 217.992 217.56C217.992 217.728 217.768 217.728 217.744 217.56C217.16 213.744 216.856 209.856 216.488 206.008C216.312 204.096 216.136 202.192 216 200.28C215.864 198.368 215.656 196.4 215.68 194.456Z" fill="#2F2E41"/>
<path d="M308.488 234.24C306.888 234.76 260.536 221.36 260.536 221.36L266.008 205.272C266.008 205.272 263.304 200.104 264.56 195.128C266.232 188.48 278.536 177.528 279.504 176.912C283.384 174.336 287.024 174.384 290.24 176.112C303.632 183.208 308.488 234.24 308.488 234.24Z" fill="#F9E4B0"/>
<path d="M273.144 182.704C271.952 184.088 270.672 185.408 269.44 186.768C270.016 185.76 270.584 184.736 271.2 183.752C271.2 183.752 271.2 183.704 271.2 183.752C270.299 184.918 269.514 186.169 268.856 187.488C267.929 188.516 267.074 189.607 266.296 190.752C265.345 192.115 264.634 193.63 264.192 195.232C263.787 196.857 263.722 198.548 264 200.2C264.351 202.091 264.873 203.947 265.56 205.744C265.648 205.984 265.984 205.832 265.92 205.6C265.048 202.456 264.064 199.144 264.76 195.864C265.456 192.584 267.48 189.88 269.448 187.304C270.612 185.728 271.873 184.226 273.224 182.808C273.304 182.72 273.2 182.64 273.144 182.704Z" fill="#2F2E41"/>
<path d="M287.344 177C287.16 177.84 283.24 183.336 279.408 183.208C278.168 183.168 278.096 176.352 278.096 176.352L277.976 175.848L276.296 168.816L285.688 162.664C285.688 162.664 287.416 176.64 287.344 177Z" fill="#FFC4C0"/>
<path d="M276.296 168.808L277.976 175.84C279.874 175.094 281.593 173.957 283.022 172.503C284.452 171.049 285.559 169.31 286.272 167.4C285.984 165 285.736 162.96 285.704 162.664C285.702 162.651 285.702 162.637 285.704 162.624L284.512 163.344L276.296 168.808Z" fill="#C18C88"/>
<path d="M265.32 160.2C266.12 172.864 273.784 173.8 276.52 173.64C278.992 173.488 287.416 172.632 287.936 159.952C288.456 147.272 282.336 143.648 276.624 143.712C270.912 143.776 264.528 147.512 265.32 160.2Z" fill="#FFC4C0"/>
<path d="M267.2 158.952C267.488 158.872 267.744 158.76 268 158.656C268.31 158.597 268.592 158.437 268.8 158.2C268.848 158.112 268.867 158.01 268.852 157.911C268.838 157.811 268.792 157.719 268.72 157.648C268.558 157.532 268.369 157.461 268.171 157.441C267.973 157.422 267.774 157.454 267.592 157.536C267.201 157.649 266.865 157.903 266.648 158.248C266.603 158.332 266.583 158.427 266.591 158.521C266.6 158.616 266.635 158.706 266.694 158.781C266.752 158.855 266.831 158.911 266.921 158.942C267.011 158.972 267.108 158.976 267.2 158.952Z" fill="#373142"/>
<path d="M275.496 157.872C275.205 157.867 274.913 157.845 274.624 157.808C274.312 157.828 274.003 157.743 273.744 157.568C273.672 157.499 273.626 157.407 273.613 157.309C273.6 157.21 273.621 157.109 273.672 157.024C273.796 156.868 273.959 156.747 274.144 156.675C274.33 156.604 274.532 156.583 274.728 156.616C275.137 156.625 275.529 156.781 275.832 157.056C275.895 157.124 275.936 157.209 275.952 157.3C275.968 157.391 275.958 157.485 275.923 157.57C275.888 157.656 275.829 157.73 275.753 157.783C275.678 157.836 275.589 157.867 275.496 157.872Z" fill="#373142"/>
<path d="M273.96 159.992C273.96 159.992 274.032 159.992 274.04 160.064C274.104 160.928 274.328 161.904 275.136 162.104V162.152C274.168 162.12 273.888 160.824 273.96 159.992Z" fill="#2F2E41"/>
<path d="M274.632 159.016C276 158.76 276.416 161.512 275.144 161.752C273.872 161.992 273.48 159.232 274.632 159.016Z" fill="#2F2E41"/>
<path d="M275.2 159.08C275.464 159.2 275.744 159.44 276.04 159.424C276.336 159.408 276.592 159.08 276.768 158.768C276.768 158.768 276.816 158.768 276.824 158.768C276.904 159.296 276.824 159.872 276.232 160.032C275.64 160.192 275.28 159.768 275.072 159.232C275.024 159.192 275.088 159.032 275.2 159.08Z" fill="#2F2E41"/>
<path d="M269.24 160.488C269.24 160.488 269.184 160.536 269.192 160.576C269.352 161.424 269.392 162.424 268.664 162.824C268.664 162.824 268.664 162.88 268.664 162.872C269.6 162.6 269.528 161.264 269.24 160.488Z" fill="#2F2E41"/>
<path d="M268.344 159.72C266.952 159.832 267.28 162.6 268.56 162.496C269.84 162.392 269.504 159.624 268.344 159.72Z" fill="#2F2E41"/>
<path d="M267.784 159.968C267.584 160.144 267.4 160.432 267.136 160.48C266.872 160.528 266.576 160.264 266.336 160H266.296C266.344 160.536 266.584 161.064 267.096 161.104C267.608 161.144 267.856 160.648 267.896 160.104C267.96 160.04 267.864 159.896 267.784 159.968Z" fill="#2F2E41"/>
<path d="M275.152 167.4C274.992 167.64 274.84 167.952 274.536 168.032C274.223 168.104 273.897 168.104 273.584 168.032C273.584 168.032 273.536 168.032 273.584 168.08C273.737 168.225 273.927 168.325 274.133 168.37C274.338 168.415 274.553 168.403 274.752 168.336C274.915 168.256 275.052 168.13 275.144 167.974C275.237 167.818 275.281 167.637 275.272 167.456C275.28 167.44 275.28 167.422 275.274 167.405C275.268 167.389 275.256 167.375 275.24 167.368C275.224 167.361 275.206 167.36 275.189 167.366C275.173 167.372 275.16 167.384 275.152 167.4Z" fill="#C18C88"/>
<path d="M271.152 164.8C271.152 164.8 271.152 166.096 271.232 166.704C271.232 166.76 271.392 166.768 271.6 166.752C272.13 166.775 272.655 166.652 273.119 166.397C273.584 166.142 273.969 165.763 274.232 165.304C274.236 165.291 274.236 165.278 274.232 165.266C274.228 165.253 274.22 165.242 274.209 165.235C274.199 165.227 274.186 165.222 274.173 165.222C274.16 165.221 274.147 165.225 274.136 165.232C273.436 165.86 272.553 166.247 271.616 166.336C271.552 166.176 271.696 164.112 271.616 164.112C271.154 164.223 270.708 164.392 270.288 164.616C270.208 161.904 270.568 159.2 270.456 156.496C270.451 156.478 270.439 156.462 270.424 156.451C270.409 156.44 270.391 156.434 270.372 156.434C270.353 156.434 270.335 156.44 270.32 156.451C270.305 156.462 270.294 156.478 270.288 156.496C269.816 159.383 269.634 162.309 269.744 165.232C269.744 165.552 270.928 164.936 271.152 164.8Z" fill="#C18C88"/>
<path d="M288 160.608C287.118 160.391 286.307 159.949 285.647 159.325C284.986 158.701 284.499 157.916 284.232 157.048C281.852 156.572 279.642 155.467 277.832 153.848C277.976 154.088 278.968 155.808 279.504 156.672C271.296 156.888 267.56 151.368 267.56 151.368C266.34 153.078 265.519 155.042 265.16 157.112C265.16 157.112 264.064 152.312 265.864 148.504C266.431 147.205 267.332 146.08 268.476 145.243C269.621 144.407 270.966 143.889 272.376 143.744C274.226 142.855 276.281 142.481 278.325 142.661C280.369 142.841 282.327 143.569 283.992 144.768C290.4 149.232 288 160.608 288 160.608Z" fill="#494256"/>
<path d="M285.984 161C285.984 161 288.128 156.672 290.056 157.376C291.984 158.08 290.776 164.072 288.8 165.168C288.558 165.325 288.286 165.432 288.001 165.482C287.717 165.531 287.425 165.522 287.144 165.456C286.862 165.389 286.598 165.266 286.365 165.094C286.133 164.923 285.938 164.705 285.792 164.456L285.984 161Z" fill="#FFC4C0"/>
<path d="M289.664 159.112C289.664 159.112 289.712 159.152 289.664 159.168C288.288 159.968 287.72 161.448 287.392 162.936C287.455 162.777 287.552 162.633 287.676 162.515C287.8 162.396 287.948 162.306 288.11 162.251C288.272 162.195 288.444 162.176 288.614 162.193C288.784 162.211 288.949 162.265 289.096 162.352C289.105 162.356 289.112 162.362 289.117 162.37C289.122 162.377 289.125 162.387 289.125 162.396C289.125 162.405 289.122 162.414 289.117 162.422C289.112 162.43 289.105 162.436 289.096 162.44C288.827 162.394 288.549 162.435 288.304 162.555C288.058 162.676 287.857 162.871 287.728 163.112C287.509 163.512 287.337 163.936 287.216 164.376C287.168 164.512 286.92 164.48 286.944 164.32C286.632 162.424 287.688 159.6 289.664 159.112Z" fill="#C18C88"/>
<path d="M297.232 187.4C300.952 208.528 297.352 224.352 293.768 226.312C284.104 231.592 260.904 220.888 254.352 218.76C251.712 217.904 263.768 197.672 266.472 198.92C272.832 201.856 281.744 206.848 282.104 206.808C282.824 206.736 283.656 201.344 287.352 185.624C290.336 172.936 295.704 178.784 297.232 187.4Z" fill="#FFC4C0"/>
<path d="M233.264 188.928C232.6 191.584 239.28 192.664 239.28 192.664C238.168 193.059 237.231 193.832 236.632 194.848C235.664 196.688 238.112 199.016 238.112 199.016C237.056 199.674 236.221 200.632 235.712 201.768C234.96 203.616 237.104 206.32 237.104 206.32C236.456 207.462 236.24 208.8 236.496 210.088C237.296 213.496 242.536 214.832 245.608 216.304C248.896 217.904 254.336 218.456 256.808 219.568L267.504 199.976C267.504 199.976 257.144 189 251.2 187.336C248 186.4 234.272 184.872 233.264 188.928Z" fill="#FFC4C0"/>
<path d="M239.352 192.6C243.072 192.44 246.824 193.168 250.44 193.912C250.52 193.912 250.488 194.048 250.44 194.032C246.856 193.232 242.976 193.416 239.376 192.776C239.365 192.778 239.353 192.777 239.341 192.774C239.33 192.771 239.32 192.766 239.31 192.759C239.301 192.752 239.293 192.743 239.287 192.733C239.281 192.723 239.278 192.712 239.276 192.7C239.274 192.688 239.275 192.677 239.278 192.665C239.281 192.654 239.286 192.643 239.293 192.634C239.3 192.625 239.309 192.617 239.319 192.611C239.329 192.605 239.341 192.602 239.352 192.6Z" fill="#C18C88"/>
<path d="M238.28 198.768C239.128 198.815 239.967 198.971 240.776 199.232C241.64 199.456 242.512 199.696 243.376 199.952C245.104 200.464 246.816 201.008 248.52 201.6C248.592 201.6 248.568 201.752 248.52 201.728C246.797 201.221 245.067 200.752 243.328 200.32C242.456 200.104 241.576 199.896 240.704 199.696C239.865 199.556 239.045 199.325 238.256 199.008C238.232 198.997 238.212 198.978 238.199 198.955C238.186 198.932 238.181 198.906 238.183 198.879C238.186 198.853 238.197 198.828 238.214 198.808C238.231 198.788 238.254 198.774 238.28 198.768Z" fill="#C18C88"/>
<path d="M237.152 206.344C237.918 206.396 238.67 206.577 239.376 206.88L241.728 207.608C243.328 208.088 244.864 208.568 246.456 208.984C246.528 208.984 246.504 209.136 246.456 209.112C244.856 208.688 243.256 208.312 241.616 207.856L239.216 207.2C238.477 207.063 237.769 206.792 237.128 206.4C237.125 206.389 237.126 206.378 237.13 206.368C237.134 206.357 237.142 206.349 237.152 206.344Z" fill="#C18C88"/>
<path d="M267.144 198.768L256 222.528C256 222.528 290.48 232.584 295.152 226.528C299.824 220.472 299.504 201.44 297.312 188.272C295.12 175.104 289.192 174.848 286.6 186.752C284.008 198.656 282.472 206.176 282.008 206.112C281.544 206.048 267.144 198.768 267.144 198.768Z" fill="#F9E4B0"/>
<path d="M271.64 201.96C271.64 201.904 271.784 201.96 271.76 202.008C271.136 203.792 270.304 205.512 269.544 207.24C268.784 208.968 267.944 210.8 267.096 212.568C265.44 216.088 263.816 219.664 261.952 223.08C261.947 223.097 261.937 223.112 261.925 223.125C261.913 223.138 261.899 223.148 261.882 223.154C261.866 223.161 261.849 223.163 261.831 223.162C261.814 223.161 261.797 223.157 261.781 223.148C261.766 223.14 261.752 223.128 261.742 223.114C261.731 223.1 261.724 223.084 261.72 223.067C261.717 223.05 261.717 223.032 261.721 223.015C261.725 222.998 261.733 222.982 261.744 222.968C263.168 219.368 264.864 215.864 266.496 212.36C267.296 210.616 268.096 208.888 268.968 207.168C269.84 205.448 270.64 203.632 271.64 201.96Z" fill="#2F2E41"/>
<path d="M274.256 226.896C275.23 226.957 276.195 227.118 277.136 227.376C278.136 227.552 279.136 227.712 280.136 227.84C282.075 228.112 284.027 228.28 285.984 228.344C287.912 228.392 292.68 228.104 294.144 226.744C295.352 225.571 296.213 224.087 296.632 222.456C297.151 220.221 297.546 217.959 297.816 215.68C298.368 210.866 298.521 206.015 298.272 201.176C298.216 199.832 298.128 198.48 298.032 197.136C297.936 195.792 297.768 194.4 297.728 193.024C297.728 192.976 297.808 192.968 297.816 193.024C298.277 195.213 298.581 197.432 298.728 199.664C298.816 198.28 298.984 196.888 299 195.496C299 195.479 299.007 195.463 299.019 195.451C299.031 195.439 299.047 195.432 299.064 195.432C299.081 195.432 299.097 195.439 299.109 195.451C299.121 195.463 299.128 195.479 299.128 195.496C299.128 196.96 299.2 198.424 299.128 199.888C299.128 200.688 299.016 201.528 298.928 202.344C299.04 204.208 299.096 206.072 299.072 207.944C299.131 212.858 298.559 217.76 297.368 222.528C296.8 224.6 295.92 226.576 294.032 227.688C292.61 228.37 291.07 228.772 289.496 228.872C286.171 229.101 282.83 228.891 279.56 228.248C278.648 228.072 277.736 227.88 276.824 227.672C275.926 227.545 275.047 227.306 274.208 226.96C274.208 226.96 274.208 226.896 274.256 226.896Z" fill="#2F2E41"/>
<path d="M267.2 198.32C269.736 199.592 272.28 200.864 274.808 202.16L278.544 204.072C279.744 204.696 282.032 205.928 282.032 205.928C282.032 205.352 282.496 203.696 282.736 202.624C282.976 201.552 283.272 200.296 283.536 199.136C283.616 198.832 283.704 198.536 283.784 198.232C283.84 197.68 283.888 197.12 283.936 196.56C284.024 195.664 284.096 194.752 284.232 193.856C284.232 193.856 284.28 193.856 284.288 193.856C284.372 194.71 284.372 195.57 284.288 196.424C284.672 195.016 285.088 193.624 285.488 192.232H285.56C285.104 194.584 284.624 196.936 284.088 199.272C283.824 200.4 283.536 201.528 283.24 202.656C282.968 203.873 282.631 205.075 282.232 206.256C280.937 205.764 279.668 205.203 278.432 204.576C277.136 203.963 275.845 203.333 274.56 202.688C272.072 201.44 269.56 200.168 267.152 198.76C267.152 198.76 266.984 199.08 266.96 199.12C266.936 199.16 266.816 199.048 266.848 198.936C266.88 198.824 267.136 198.296 267.2 198.32Z" fill="#2F2E41"/>
<path d="M245.32 221.76H212.832L198.592 175.784H231.072L245.32 221.76Z" fill="#2F2E41"/>
<path d="M243.728 221.76H211.24L196.992 175.784H229.48L243.728 221.76Z" fill="#3F3D56"/>
<path d="M216.944 197.328C217.2 198.205 217.723 198.98 218.44 199.546C219.157 200.112 220.032 200.442 220.944 200.488C221.332 200.508 221.72 200.431 222.071 200.265C222.423 200.098 222.727 199.847 222.958 199.534C223.189 199.221 223.338 198.856 223.393 198.471C223.448 198.086 223.406 197.693 223.272 197.328C223.023 196.444 222.503 195.66 221.786 195.086C221.068 194.512 220.189 194.177 219.272 194.128C218.879 194.105 218.486 194.182 218.13 194.35C217.774 194.519 217.466 194.774 217.234 195.092C217.003 195.411 216.855 195.782 216.804 196.173C216.753 196.564 216.801 196.961 216.944 197.328Z" fill="white"/>
<path d="M201.992 191.904C200.392 194.824 196.2 198.408 195.776 200.84C195.647 201.435 195.714 202.055 195.967 202.608C196.219 203.162 196.643 203.619 197.176 203.912C197.176 203.912 194.664 204.992 194.64 207.264C194.64 208.432 196.48 209.48 196.48 209.48C195.925 209.755 195.457 210.177 195.127 210.701C194.797 211.225 194.617 211.829 194.608 212.448C194.688 214.048 196.528 214.848 196.528 214.848C196.528 214.848 195.064 216.64 195.672 218.256C196.904 221.528 210.712 222.304 213.136 217.336C214.256 215.016 210.872 215.016 210.872 215.016C210.872 215.016 215.744 213.848 215.976 211.016C216.208 208.184 211.808 208.432 211.808 208.432C211.808 208.432 216.52 207.264 216.464 204.288C216.408 201.312 212.048 202.208 212.048 202.208C212.048 202.208 215.248 200.296 214.672 198.032C213.744 194.288 206.824 198.736 203.832 197.848L201.992 191.904Z" fill="#FFC4C0"/>
<path d="M196.408 209.504C196.36 209.504 196.344 209.584 196.408 209.6C201.561 211.135 207.093 210.771 212 208.576C212.168 208.496 212.24 208.256 212 208.328C208.608 209.664 200.8 210.128 196.408 209.504Z" fill="#C18C88"/>
<path d="M212.352 201.928C207.552 204.024 202.544 204.328 197.36 203.976C197.296 203.976 197.296 204.064 197.36 204.088C199.84 204.968 203.168 204.888 205.76 204.576C208.163 204.35 210.464 203.495 212.432 202.096C212.504 202.04 212.456 201.888 212.352 201.928Z" fill="#C18C88"/>
<path d="M129.06 265.84C129.732 267.656 162.66 308.584 164.9 309.352C165.748 309.648 171.988 305.2 179.38 299.608C180.98 298.4 182.58 297.144 184.276 295.864C195.052 287.536 206.292 278.448 206.292 278.448L184.348 251L162.932 269.176L158.228 273.176C158.228 273.176 138.612 263.144 136.06 262.568C133.508 261.992 128.388 264.024 129.06 265.84Z" fill="#FFC4C0"/>
<path d="M129.06 265.84C129.732 267.656 162.66 308.584 164.9 309.352C165.94 309.704 174.932 303.064 184.276 295.864L162.932 269.176L158.228 273.176C158.228 273.176 138.612 263.144 136.06 262.568C133.508 261.992 128.388 264.024 129.06 265.84Z" fill="white"/>
<path d="M129.06 265.84C129.732 267.656 162.66 308.584 164.9 309.352C165.748 309.648 171.988 305.2 179.38 299.608L158.228 273.16C158.228 273.16 138.612 263.128 136.06 262.552C133.508 261.976 128.388 264.024 129.06 265.84Z" fill="#F9E4B0"/>
<path d="M131.172 265.104C136.86 271.832 159.172 299.504 164.276 306.576C164.316 306.632 164.276 306.664 164.236 306.616C158.452 300.072 136.364 272.216 131.052 265.2C130.94 265.048 131.052 264.968 131.172 265.104Z" fill="#2F2E41"/>
<path d="M139.652 264C140.282 264.748 140.749 265.618 141.025 266.556C141.3 267.494 141.378 268.479 141.252 269.448C141.056 271.194 140.197 272.797 138.852 273.928C138.812 273.928 138.748 273.928 138.788 273.848C139.962 272.523 140.674 270.853 140.818 269.089C140.962 267.325 140.531 265.562 139.588 264.064C139.587 264.055 139.588 264.046 139.591 264.038C139.593 264.03 139.598 264.022 139.604 264.016C139.61 264.009 139.618 264.005 139.626 264.002C139.635 263.999 139.644 263.999 139.652 264Z" fill="#2F2E41"/>
<path d="M155.404 271.048C157.652 273.76 159.244 277.728 158.372 281.24C158.332 281.376 158.14 281.328 158.116 281.24C157.449 277.826 156.414 274.495 155.028 271.304C155.012 271.279 155 271.252 154.994 271.222C154.988 271.193 154.987 271.163 154.993 271.134C154.999 271.104 155.01 271.076 155.026 271.051C155.043 271.026 155.064 271.005 155.088 270.988C155.113 270.971 155.141 270.959 155.17 270.953C155.199 270.947 155.23 270.947 155.259 270.953C155.288 270.958 155.316 270.969 155.341 270.986C155.366 271.002 155.388 271.023 155.404 271.048Z" fill="#2F2E41"/>
<path d="M152.868 269.592C155.116 272.304 156.708 276.272 155.836 279.784C155.836 279.92 155.612 279.872 155.588 279.784C154.914 276.371 153.876 273.04 152.492 269.848C152.458 269.798 152.446 269.737 152.457 269.678C152.468 269.618 152.502 269.566 152.552 269.532C152.602 269.498 152.663 269.485 152.723 269.497C152.782 269.508 152.834 269.542 152.868 269.592Z" fill="#2F2E41"/>
<path d="M150.34 268.104C152.588 270.824 154.18 274.784 153.308 278.296C153.268 278.432 153.076 278.384 153.052 278.296C152.384 274.882 151.349 271.551 149.964 268.36C149.93 268.31 149.918 268.249 149.929 268.19C149.94 268.13 149.975 268.078 150.024 268.044C150.074 268.01 150.136 267.997 150.195 268.009C150.254 268.02 150.306 268.054 150.34 268.104Z" fill="#2F2E41"/>
<path d="M147.804 266.68C150.052 269.4 151.644 273.36 150.772 276.872C150.772 277.008 150.548 276.96 150.524 276.872C149.849 273.456 148.811 270.123 147.428 266.928C147.395 266.878 147.384 266.817 147.396 266.759C147.408 266.7 147.442 266.649 147.492 266.616C147.542 266.583 147.603 266.571 147.662 266.583C147.72 266.595 147.771 266.63 147.804 266.68Z" fill="#2F2E41"/>
<path d="M169.388 299.584C171.86 302.672 167.06 306.52 164.588 303.424C162.116 300.328 166.916 296.496 169.388 299.584Z" fill="white"/>
<path d="M160.34 262.184C162.612 262.648 162.9 265.304 162.388 267.12C161.465 270.242 159.735 273.064 157.372 275.304C157.364 275.316 157.353 275.325 157.341 275.331C157.328 275.338 157.314 275.341 157.3 275.341C157.286 275.341 157.272 275.338 157.26 275.331C157.247 275.325 157.236 275.316 157.228 275.304C157.167 275.335 157.1 275.351 157.031 275.351C156.963 275.351 156.895 275.335 156.834 275.304C156.773 275.273 156.721 275.227 156.681 275.172C156.641 275.116 156.614 275.052 156.604 274.984C156.388 271.944 155.804 268.72 156.492 265.696C156.932 263.88 158.196 261.744 160.34 262.184ZM157.22 270.248C157.292 271.744 157.436 273.232 157.452 274.736C158.473 273.184 159.415 271.582 160.276 269.936C160.678 269.13 161.028 268.299 161.324 267.448C161.748 266.12 161.876 261.576 158.668 263.704C156.932 264.856 157.132 268.464 157.22 270.248Z" fill="#2F2E41"/>
<path d="M161.845 282.912C159.557 280.816 158.253 277.8 156.725 275.16C156.696 275.099 156.683 275.031 156.686 274.964C156.688 274.896 156.707 274.83 156.739 274.771C156.772 274.712 156.818 274.662 156.874 274.623C156.93 274.585 156.994 274.561 157.061 274.552C157.059 274.537 157.061 274.522 157.066 274.509C157.072 274.495 157.08 274.482 157.091 274.472C157.102 274.462 157.115 274.455 157.129 274.451C157.143 274.446 157.158 274.445 157.173 274.448C160.372 274.974 163.378 276.328 165.893 278.376C167.333 279.6 168.588 281.952 166.972 283.616C165.356 285.28 163.181 284.104 161.845 282.912ZM164.741 283.312C168.597 283.272 165.941 279.584 164.845 278.728C164.119 278.187 163.361 277.692 162.572 277.248C160.972 276.312 159.229 275.648 157.533 274.848C158.333 276.096 159.077 277.408 159.861 278.688C160.789 280.216 162.621 283.304 164.741 283.304V283.312Z" fill="#2F2E41"/>
<path d="M248.088 254.904C248.088 254.904 250.192 256.32 253.36 258.104C258.96 251.4 270.816 239.224 271.176 238.792L248.088 254.904Z" fill="#2F2E41"/>
<path d="M287.008 222.536C288.496 223.568 289.928 224.664 291.4 225.736C292.872 226.808 294.328 227.76 295.696 228.936C297.064 230.112 298.416 231.336 299.696 232.576C300.328 233.176 300.96 233.784 301.568 234.408C302.214 235.006 302.814 235.653 303.36 236.344C303.408 236.416 303.312 236.488 303.248 236.448C302.552 235.96 301.889 235.425 301.264 234.848L299.2 233C297.864 231.864 296.504 230.76 295.2 229.616C293.896 228.472 292.648 227.216 291.336 226.104C290.024 224.992 288.456 223.704 286.992 222.576C286.952 222.6 286.976 222.512 287.008 222.536Z" fill="#2F2E41"/>
<path d="M169.436 263.928C170.924 265.528 172.292 267.248 173.676 268.936C175.06 270.624 176.444 272.336 177.812 274.048C180.548 277.464 183.316 280.872 186.004 284.336C187.484 286.232 188.94 288.144 190.316 290.128C190.38 290.216 190.236 290.312 190.172 290.232C187.22 286.992 184.532 283.536 181.796 280.12C179.06 276.704 176.324 273.256 173.644 269.792C172.172 267.896 170.652 266.008 169.308 264.024C169.252 263.944 169.372 263.856 169.436 263.928Z" fill="#C18C88"/>
<path d="M209.36 281.936C213.192 278.912 217.168 276.064 221.144 273.232C225.12 270.4 229.056 267.584 233.072 264.848C234.224 264.048 235.384 263.288 236.544 262.52C237.704 261.752 238.944 261.032 240.048 260.232C240.112 260.192 240.176 260.296 240.112 260.344C239.064 261.096 238.08 261.944 237.056 262.704C236.032 263.464 235.104 264.2 234.12 264.928C232.192 266.352 230.248 267.752 228.304 269.16C224.368 272 220.4 274.816 216.4 277.56C214.12 279.12 211.856 280.688 209.528 282.176C209.392 282.264 209.224 282.04 209.36 281.936Z" fill="#2F2E41"/>
<path d="M184.712 250.144C188.256 247.208 192.056 244.544 195.768 241.848C199.48 239.152 203.264 236.328 207.032 233.608L218.232 225.488C221.864 222.864 225.472 220.2 229.304 217.88C231.4 216.608 233.552 215.432 235.76 214.376C237.902 213.277 240.134 212.364 242.432 211.648C242.504 211.648 242.536 211.728 242.48 211.76C240.592 212.816 238.608 213.704 236.696 214.72C234.784 215.736 232.944 216.784 231.096 217.92C227.296 220.224 223.704 222.848 220.096 225.44C212.608 230.824 205.128 236.24 197.584 241.552C193.36 244.528 189.224 247.664 184.84 250.352C184.744 250.456 184.584 250.248 184.712 250.144Z" fill="#2F2E41"/>
<path d="M10.8402 237.8C20.6162 251.048 30.8401 266.408 33.2961 283.016C33.2961 283.272 32.9201 283.352 32.8641 283.104C31.7386 278.572 30.2924 274.127 28.5362 269.8C22.1362 268.032 15.8002 266.6 12.4242 260.2C8.98419 253.648 9.42419 245.096 10.0722 237.952C10.1202 237.528 10.6402 237.512 10.8402 237.8Z" fill="#F9E4B0"/>
<path d="M28.4401 269.64C24.0481 259.784 18.4001 249.888 11.2001 241.8C11.1521 241.744 11.0801 241.8 11.1281 241.88C15.8161 247.648 19.3841 253.936 22.8641 260.336C19.6241 257.048 16.0801 254.104 13.0161 250.616C13.0026 250.606 12.9861 250.601 12.9693 250.602C12.9525 250.603 12.9366 250.61 12.9243 250.621C12.9119 250.632 12.904 250.648 12.9017 250.664C12.8995 250.681 12.9032 250.698 12.9121 250.712C15.9601 254.368 19.3121 258.344 23.2561 261.048C24.3228 263.011 25.3894 264.976 26.4561 266.944C26.1841 266.792 25.9121 266.664 25.6561 266.528C25.6081 266.528 25.5601 266.576 25.6161 266.6C25.9121 266.752 26.2161 266.912 26.5281 267.048C27.0401 267.976 27.5521 268.912 28.0801 269.84C28.2481 270.032 28.5361 269.848 28.4401 269.64Z" fill="#2F2E41"/>
<path d="M25.1761 266.2C22.5463 264.732 20.037 263.057 17.672 261.192C17.608 261.144 17.512 261.232 17.576 261.28C19.8669 263.264 22.3796 264.977 25.0641 266.384C25.0762 266.391 25.0896 266.396 25.1036 266.398C25.1175 266.401 25.1318 266.4 25.1455 266.397C25.1593 266.393 25.1722 266.387 25.1837 266.379C25.1951 266.371 25.2047 266.36 25.2121 266.348C25.2195 266.336 25.2243 266.323 25.2265 266.309C25.2287 266.295 25.2281 266.28 25.2247 266.267C25.2214 266.253 25.2154 266.24 25.207 266.228C25.1987 266.217 25.1882 266.207 25.1761 266.2Z" fill="#2F2E41"/>
<path d="M34.3999 280.512C34.3999 280.712 34.0399 280.704 34.0399 280.512C33.9919 275.04 34.0399 269.544 33.9599 264.056C32.5519 261.224 29.5519 259.664 27.4559 257.392C25.9539 255.739 24.6466 253.919 23.56 251.968C21.0375 247.3 19.4966 242.166 19.032 236.88C18.456 231.032 20.672 211.728 23.1439 212.4C24.4159 212.744 28.5599 222.304 29.6559 225.464C31.4353 230.668 32.7366 236.024 33.5439 241.464C35.5679 254.344 35.3999 267.56 34.3999 280.512Z" fill="#F9E4B0"/>
<path d="M34.4639 256.92C34.1599 250 32.6079 243.016 31.144 236.304C29.544 229.104 27.736 222.264 24.016 215.816C23.944 215.696 23.768 215.816 23.832 215.928C26.314 220.941 28.235 226.213 29.56 231.648C29.312 231.264 29.008 230.888 28.76 230.52C28.664 230.376 28.424 230.52 28.52 230.664C28.8549 231.247 29.2461 231.797 29.6879 232.304H29.736C31.016 237.472 31.936 242.76 32.7199 248.032C32.6656 247.959 32.6069 247.89 32.5439 247.824C32.5039 247.824 32.4399 247.824 32.4639 247.888C32.5599 248.064 32.672 248.232 32.776 248.408C33.176 251.088 33.576 253.76 33.912 256.408C29.112 252.328 25.112 247.528 22.784 241.616C22.784 241.616 22.728 241.616 22.736 241.616C24.984 247.744 28.528 253.2 33.984 256.928C34.088 257.64 34.1839 258.352 34.2879 259.064C34.2879 259.208 34.5439 259.168 34.5439 259.024C34.5439 258.4 34.5439 257.768 34.4879 257.136C34.5008 257.12 34.5103 257.102 34.5161 257.083C34.5218 257.064 34.5236 257.043 34.5214 257.023C34.5192 257.003 34.5129 256.983 34.5031 256.966C34.4932 256.948 34.4799 256.933 34.4639 256.92Z" fill="#2F2E41"/>
<path d="M32.216 246.896C28.576 241.456 25.176 236.184 22.512 230.176C22.5056 230.16 22.4932 230.147 22.4774 230.141C22.4617 230.134 22.4439 230.134 22.428 230.14C22.412 230.146 22.3993 230.159 22.3926 230.175C22.3858 230.19 22.3856 230.208 22.3919 230.224C24.6399 236.192 27.784 242.224 32.04 247.024C32.12 247.128 32.296 247 32.216 246.896Z" fill="#2F2E41"/>
<path d="M27.3761 228.832C25.8721 226.16 24.2801 223.568 22.8641 220.832C22.8241 220.76 22.7201 220.832 22.7521 220.904C23.9105 223.758 25.3836 226.473 27.1441 229C27.2481 229.104 27.4641 229 27.3761 228.832Z" fill="#2F2E41"/>
<path d="M38.128 264.696C38.1976 268.318 38.6236 271.925 39.4 275.464L39.232 276.648C38.1181 272.738 37.471 268.71 37.304 264.648C37.2725 264.59 37.256 264.526 37.256 264.46C37.256 264.394 37.2725 264.33 37.304 264.272C37.1506 258.821 37.5554 253.369 38.512 248C40.208 237.952 43.904 228.304 50.92 220.8C50.9777 220.744 51.048 220.703 51.125 220.681C51.202 220.658 51.2833 220.655 51.3619 220.67C51.4406 220.686 51.5143 220.721 51.5766 220.771C51.639 220.822 51.6882 220.886 51.72 220.96C54.552 228.16 53.56 236.728 51.152 243.904C49.8437 247.788 47.9731 251.459 45.6 254.8C43.144 258.144 40.08 261 38.128 264.696Z" fill="#F9E4B0"/>
<path d="M50.072 224.12C43.432 234.904 38.808 247.688 38.24 260.416C38.24 260.648 38.608 260.704 38.64 260.472C38.8 259.328 38.976 258.192 39.16 257.064C41.912 254.432 44.76 251.656 46.696 248.36C46.736 248.304 46.648 248.24 46.608 248.288C44.3288 251.1 41.8817 253.772 39.28 256.288C39.76 253.472 40.32 250.688 40.992 247.976L41.512 247.36C41.632 247.224 41.44 247.024 41.32 247.16L41.16 247.336C42.0918 243.594 43.2513 239.913 44.632 236.312C46.32 234.296 48.216 232.552 49.432 230.12C49.432 230.064 49.376 230.016 49.344 230.064C48.352 231.456 47.392 232.856 46.272 234.144C45.824 234.656 45.328 235.136 44.864 235.64C46.3947 231.732 48.213 227.943 50.304 224.304C50.3187 224.273 50.3224 224.238 50.3146 224.205C50.3068 224.171 50.2879 224.141 50.261 224.12C50.2341 224.099 50.2008 224.087 50.1665 224.087C50.1322 224.087 50.0988 224.099 50.072 224.12Z" fill="#2F2E41"/>
<path d="M48.7282 237.424C46.5842 240.312 44.1362 243.064 42.1361 246.056C42.0801 246.136 42.2081 246.224 42.2801 246.16C44.8402 243.76 47.0162 240.472 48.8722 237.504C48.9282 237.408 48.8002 237.336 48.7282 237.424Z" fill="#2F2E41"/>
<path d="M41.8396 246.72L41.7434 246.816C41.6792 246.88 41.7835 246.977 41.8476 246.913L41.9359 246.824C42 246.76 41.9038 246.656 41.8396 246.72Z" fill="#2F2E41"/>
<path d="M60.4801 244.848C59.6938 250.866 57.2696 256.553 53.4721 261.288C51.9053 263.147 49.9681 264.66 47.7841 265.728C45.3201 266.944 42.7441 268.344 40.2001 269.344C38.9881 272.428 38.0876 275.625 37.5121 278.888C37.4321 278.608 37.3521 278.32 37.2641 278.04C38.9041 264 47.9921 252 59.6081 244.296C59.6992 244.237 59.8054 244.205 59.914 244.205C60.0226 244.204 60.1291 244.235 60.2209 244.293C60.3127 244.351 60.3859 244.434 60.4318 244.532C60.4777 244.631 60.4945 244.74 60.4801 244.848Z" fill="#F9E4B0"/>
<path d="M56.4639 249C56.5439 248.928 56.4639 248.784 56.3439 248.848C49.9569 253.597 44.8652 259.875 41.5359 267.104C41.4479 267.296 41.7119 267.464 41.8239 267.272C42.3599 266.328 42.9119 265.4 43.4719 264.496C46.1279 263.992 48.6399 262.096 50.6079 260.352C50.6639 260.304 50.6079 260.224 50.5279 260.272C49.5185 261.213 48.3918 262.02 47.1759 262.672C46.0879 263.224 44.9279 263.568 43.7999 264.008C44.7839 262.448 45.8079 260.952 46.8799 259.496C49.7558 258.412 52.4526 256.901 54.8799 255.016C54.8969 255.005 54.909 254.989 54.9135 254.969C54.918 254.95 54.9145 254.929 54.9039 254.912C54.8933 254.895 54.8764 254.883 54.8569 254.879C54.8374 254.874 54.8169 254.877 54.7999 254.888C52.4021 256.338 49.9293 257.659 47.3919 258.848C49.0125 256.713 50.7597 254.678 52.6239 252.752C53.5279 252.272 54.4399 251.792 55.3119 251.288C55.3839 251.248 55.3119 251.12 55.2559 251.152C54.5286 251.404 53.8353 251.745 53.1919 252.168C54.2239 251.064 55.3039 250.016 56.4639 249Z" fill="#2F2E41"/>
<path d="M56.2161 253.84C56.0604 253.938 55.9108 254.044 55.7681 254.16C55.7681 254.2 55.7681 254.256 55.8241 254.24C55.9858 254.162 56.141 254.071 56.2881 253.968C56.3681 253.92 56.2961 253.8 56.2161 253.84Z" fill="#2F2E41"/>
<path d="M19.1281 309.296H50.9761L48.4081 280.296L47.8401 273.896H22.2641L21.6961 280.296L19.1281 309.296Z" fill="#3F3D56"/>
<path d="M21.6962 280.296H48.4082L47.8402 273.896H22.2642L21.6962 280.296Z" fill="#2F2E41"/>
<path d="M20.7442 269.424H49.3682V275.752H20.7442V269.424Z" fill="#3F3D56"/>
<path d="M59.0859 56.7559L59.9766 56.8145C60.1953 57.7833 60.6445 59.1544 61.3242 60.9278C62.0039 62.6934 62.4531 64.0137 62.6719 64.8887C62.6719 65.1153 62.6328 65.2833 62.5547 65.3926C62.4766 65.5098 62.3789 65.5684 62.2617 65.5684C62.1602 65.5684 62.0625 65.5255 61.9688 65.4395C61.8828 65.3614 61.8242 65.2481 61.793 65.0997C61.7227 64.7559 61.4961 64.0684 61.1133 63.0372C59.5039 62.834 58.4922 62.709 58.0781 62.6622C57.9766 62.9434 57.8516 63.4005 57.7031 64.0333C57.5547 64.6661 57.4375 65.1036 57.3516 65.3458C57.2344 65.4864 57.1016 65.5567 56.9531 65.5567C56.7891 65.5567 56.6484 65.4825 56.5312 65.334C56.4141 65.1934 56.3555 65.0176 56.3555 64.8067C56.6055 63.8926 57.0586 62.5489 57.7148 60.7755C58.3711 59.002 58.8281 57.6622 59.0859 56.7559ZM59.4961 57.9395C59.3398 58.8848 58.9062 60.2715 58.1953 62.0997H59.5078C60.1016 62.0997 60.5977 62.1192 60.9961 62.1583C60.1914 60.4317 59.6914 59.0255 59.4961 57.9395ZM67.9594 65.5567L67.3148 65.4278C67.3148 65.2715 67.3109 65.1544 67.3031 65.0762C66.8891 65.3419 66.4516 65.4747 65.9906 65.4747C65.2797 65.4747 64.725 65.17 64.3266 64.5606C63.9359 63.9512 63.7406 63.2598 63.7406 62.4864C63.7406 62.088 63.768 61.713 63.8227 61.3614C63.8852 61.0098 63.9867 60.6505 64.1273 60.2833C64.2758 59.9083 64.5023 59.6114 64.807 59.3926C65.1195 59.1739 65.4945 59.0645 65.932 59.0645C66.3617 59.0645 66.7641 59.17 67.1391 59.3809C67.2016 58.5528 67.2328 57.7169 67.2328 56.8731C67.2328 56.4903 67.2289 56.209 67.2211 56.0294C67.5961 56.0997 67.893 56.1895 68.1117 56.2989L67.9594 65.5567ZM67.2094 64.3028L67.1742 60.5294C67.0805 60.334 66.932 60.1817 66.7289 60.0723C66.5336 59.9551 66.3227 59.8965 66.0961 59.8965C65.7914 59.8965 65.5297 59.9942 65.3109 60.1895C65.1 60.3848 64.9477 60.6465 64.8539 60.9747C64.768 61.295 64.7055 61.5958 64.6664 61.877C64.6352 62.1583 64.6195 62.4551 64.6195 62.7676C64.6195 64.0958 65.0648 64.7598 65.9555 64.7598C66.2523 64.7598 66.5219 64.7208 66.7641 64.6426C67.0141 64.5567 67.1625 64.4434 67.2094 64.3028ZM73.8797 65.5567L73.2352 65.4278C73.2352 65.2715 73.2312 65.1544 73.2234 65.0762C72.8094 65.3419 72.3719 65.4747 71.9109 65.4747C71.2 65.4747 70.6453 65.17 70.2469 64.5606C69.8562 63.9512 69.6609 63.2598 69.6609 62.4864C69.6609 62.088 69.6883 61.713 69.743 61.3614C69.8055 61.0098 69.907 60.6505 70.0477 60.2833C70.1961 59.9083 70.4227 59.6114 70.7273 59.3926C71.0398 59.1739 71.4148 59.0645 71.8523 59.0645C72.282 59.0645 72.6844 59.17 73.0594 59.3809C73.1219 58.5528 73.1531 57.7169 73.1531 56.8731C73.1531 56.4903 73.1492 56.209 73.1414 56.0294C73.5164 56.0997 73.8133 56.1895 74.032 56.2989L73.8797 65.5567ZM73.1297 64.3028L73.0945 60.5294C73.0008 60.334 72.8523 60.1817 72.6492 60.0723C72.4539 59.9551 72.243 59.8965 72.0164 59.8965C71.7117 59.8965 71.45 59.9942 71.2312 60.1895C71.0203 60.3848 70.868 60.6465 70.7742 60.9747C70.6883 61.295 70.6258 61.5958 70.5867 61.877C70.5555 62.1583 70.5398 62.4551 70.5398 62.7676C70.5398 64.0958 70.9852 64.7598 71.8758 64.7598C72.1727 64.7598 72.4422 64.7208 72.6844 64.6426C72.9344 64.5567 73.0828 64.4434 73.1297 64.3028ZM82.732 59.5801L82.8609 60.1075C82.65 60.1231 82.3258 60.1661 81.8883 60.2364C81.4508 60.2989 81.1227 60.338 80.9039 60.3536C80.943 60.627 80.9664 60.9864 80.9742 61.4317C80.982 61.877 80.9898 62.2637 80.9977 62.5919C81.0133 62.9122 81.0484 63.2364 81.1031 63.5645C81.1656 63.8848 81.2867 64.1309 81.4664 64.3028C81.6539 64.4747 81.9039 64.5606 82.2164 64.5606C82.4508 64.5606 82.7437 64.5059 83.0953 64.3965C83.2437 64.6856 83.3531 64.8965 83.4234 65.0294C82.8062 65.2481 82.1812 65.3575 81.5484 65.3575C81.3141 65.3575 81.1109 65.2872 80.9391 65.1465C80.7672 65.0059 80.6344 64.8301 80.5406 64.6192C80.4469 64.4083 80.3687 64.1426 80.3062 63.8223C80.2516 63.4942 80.2164 63.1856 80.2008 62.8965C80.1852 62.6075 80.1773 62.2755 80.1773 61.9005C80.1773 61.6973 80.1773 61.4161 80.1773 61.0567C80.1852 60.6973 80.1891 60.4512 80.1891 60.3184C80.1109 60.3262 79.9273 60.334 79.6383 60.3419C79.3492 60.3419 79.1812 60.3419 79.1344 60.3419C79.0797 59.8184 79.0523 59.5489 79.0523 59.5333C79.107 59.5489 79.1969 59.5567 79.3219 59.5567C79.3922 59.5567 79.5055 59.5528 79.6617 59.545C79.818 59.5294 79.9352 59.5215 80.0133 59.5215C80.0445 59.5215 80.0836 59.5255 80.1305 59.5333C80.1852 59.5333 80.2203 59.5333 80.2359 59.5333C80.2672 58.6739 80.3023 57.9747 80.3414 57.4356L80.8687 57.5645C80.8766 57.752 80.8805 57.9551 80.8805 58.1739C80.8883 58.3848 80.8922 58.6231 80.8922 58.8887C80.9 59.1465 80.9039 59.3458 80.9039 59.4864C81.107 59.502 81.4117 59.5176 81.818 59.5333C82.2242 59.5489 82.5289 59.5645 82.732 59.5801ZM84.9141 60.1895L84.6797 59.5919C84.8828 59.3887 85.1406 59.2286 85.4531 59.1114C85.7656 58.9864 86.0742 58.9239 86.3789 58.9239C87.6992 58.9239 88.3594 60.0645 88.3594 62.3458C88.3594 62.6583 88.3398 63.1192 88.3008 63.7286C88.2695 64.338 88.2539 64.795 88.2539 65.0997C88.1914 65.3419 88.0703 65.463 87.8906 65.463C87.75 65.463 87.6211 65.3926 87.5039 65.252C87.3867 65.1114 87.3281 64.9551 87.3281 64.7833C87.3281 64.7286 87.332 64.6895 87.3398 64.6661C86.8555 65.1348 86.3398 65.3692 85.793 65.3692C85.3789 65.3692 85.0156 65.2208 84.7031 64.9239C84.3984 64.6192 84.2461 64.252 84.2461 63.8223C84.2461 63.0958 84.5273 62.4395 85.0898 61.8536C85.6602 61.2676 86.3047 60.9747 87.0234 60.9747C87.0547 60.9747 87.0859 60.9786 87.1172 60.9864C87.1484 60.9864 87.1836 60.9903 87.2227 60.9981C87.2695 61.0059 87.3047 61.0098 87.3281 61.0098C87.2656 60.0958 86.9023 59.6387 86.2383 59.6387C85.8477 59.6387 85.4062 59.8223 84.9141 60.1895ZM87.3633 63.8575C87.3789 63.3106 87.3867 62.8965 87.3867 62.6153C87.3867 62.3809 87.3789 62.0528 87.3633 61.6309H87.2695C86.7148 61.6387 86.207 61.8458 85.7461 62.252C85.293 62.6583 85.0664 63.1505 85.0664 63.7286C85.0664 63.9786 85.1406 64.1778 85.2891 64.3262C85.4453 64.4747 85.6328 64.5489 85.8516 64.5489C86.1953 64.5489 86.6992 64.3184 87.3633 63.8575ZM93.518 59.6036L93.4008 60.0723C92.643 59.7598 92.0531 59.6036 91.6312 59.6036C91.2562 59.6036 90.9906 59.6622 90.8344 59.7794C90.6859 59.8887 90.6117 60.127 90.6117 60.4942C90.6117 60.7911 90.7172 61.0372 90.9281 61.2325C91.1469 61.4278 91.4086 61.584 91.7133 61.7012C92.018 61.8106 92.3227 61.9317 92.6273 62.0645C92.9398 62.1895 93.2016 62.377 93.4125 62.627C93.6312 62.877 93.7406 63.1856 93.7406 63.5528C93.7406 64.0528 93.557 64.4903 93.1898 64.8653C92.8227 65.2403 92.3461 65.4317 91.7602 65.4395C91.3305 65.4395 90.9281 65.3497 90.5531 65.17C90.1781 64.9903 89.8812 64.7637 89.6625 64.4903L90.0023 64.1387C90.0961 64.1778 90.2328 64.2403 90.4125 64.3262C90.6 64.4122 90.7328 64.4708 90.8109 64.502C90.8891 64.5255 91.0023 64.5528 91.1508 64.584C91.307 64.6153 91.4711 64.6309 91.643 64.6309C92.0102 64.6309 92.3109 64.5489 92.5453 64.3848C92.7797 64.2208 92.8969 63.9903 92.8969 63.6934C92.8969 63.4981 92.8422 63.334 92.7328 63.2012C92.6234 63.0606 92.4789 62.9473 92.2992 62.8614C92.1195 62.7755 91.9203 62.6934 91.7016 62.6153C91.4906 62.5372 91.2758 62.4512 91.057 62.3575C90.8461 62.2559 90.6508 62.1387 90.4711 62.0059C90.2914 61.8653 90.1469 61.6778 90.0375 61.4434C89.9281 61.209 89.8734 60.9317 89.8734 60.6114C89.8734 60.1426 89.9984 59.752 90.2484 59.4395C90.5062 59.1192 90.8656 58.959 91.3266 58.959C91.5062 58.959 91.7094 58.9864 91.9359 59.0411C92.1625 59.0958 92.3422 59.1465 92.475 59.1934C92.6078 59.2403 92.8031 59.3184 93.0609 59.4278C93.3266 59.5294 93.4789 59.588 93.518 59.6036ZM99.3328 65.252L98.2547 65.2286C97.9656 64.9395 97.5672 64.4747 97.0594 63.834C96.5594 63.1856 96.243 62.7872 96.1102 62.6387V65.0528C96.0398 65.2872 95.9031 65.4044 95.7 65.4044C95.5594 65.4044 95.4227 65.3497 95.2898 65.2403C95.1648 65.1231 95.0867 64.9825 95.0555 64.8184C95.0789 64.0137 95.0906 62.6778 95.0906 60.8106C95.0906 58.9434 95.1063 57.6036 95.1375 56.7911L95.8523 56.9434C95.8602 57.2559 95.8719 57.8965 95.8875 58.8653C95.9109 59.834 95.9305 60.5567 95.9461 61.0333L98.7938 58.9473L98.993 59.4747C98.2508 60.0137 97.3797 60.7755 96.3797 61.7598C96.5906 61.9864 97.0555 62.5411 97.7742 63.4239C98.5008 64.2989 99.0203 64.9083 99.3328 65.252Z" fill="#4F4F4F"/>
<path opacity="0.3" d="M42.1487 36.9068C32.8315 36.9068 25.2785 29.3537 25.2785 20.0366C25.2785 10.7195 32.8315 3.16647 42.1487 3.16647C51.4658 3.16647 59.0188 10.7195 59.0188 20.0366C59.0188 29.3537 51.4658 36.9068 42.1487 36.9068Z" fill="black"/>
<path d="M42.1487 33.7991C32.8315 33.7991 25.2785 26.2461 25.2785 16.929C25.2785 7.61186 32.8315 0.0588379 42.1487 0.0588379C51.4658 0.0588379 59.0188 7.61186 59.0188 16.929C59.0188 26.2461 51.4658 33.7991 42.1487 33.7991Z" fill="#80CC95"/>
<path d="M42.1453 27.1398C42.6352 27.1398 43.0366 22.6582 43.0366 17.1509C43.0366 11.6437 42.6352 7.16205 42.1453 7.16205C41.6554 7.16205 41.2608 11.6437 41.2608 17.1509C41.2608 22.6582 41.6622 27.1398 42.1453 27.1398Z" fill="white"/>
<path d="M31.9377 16.929C31.9377 17.4207 36.4127 17.8169 41.9266 17.8169C47.4405 17.8169 51.9155 17.4207 51.9155 16.929C51.9155 16.4372 47.4405 16.0411 41.9266 16.0411C36.4127 16.0411 31.9377 16.4372 31.9377 16.929Z" fill="white"/>
</svg>
