<svg width="370" height="243" viewBox="0 0 370 243" fill="none" xmlns="http://www.w3.org/2000/svg">
<path d="M369.287 51.4679L363.328 80.2976L359.493 76.5594L352.967 81.2119L347.98 75.023L336.797 83.1463L327.239 67.1796L316.579 73.4183L312.351 67.5963L298.814 75.2158L294.742 66.5016L304.231 20.5918L355.103 31.0849L369.287 51.4679Z" fill="#EBEBEB"/>
<path d="M355.103 31.085L369.287 51.4679L351.641 47.8292L355.103 31.085Z" fill="#DBDBDB"/>
<path d="M362.058 86.0573L353.322 128.353L284.798 114.221L293.472 72.2676L297.544 80.9756L311.087 73.3561L315.309 79.178L325.975 72.9456L335.526 88.9123L346.716 80.789L351.697 86.9717L358.229 82.3253L362.058 86.0573Z" fill="#EBEBEB"/>
<path d="M187.5 242.074C286.107 242.074 366.043 233.324 366.043 222.53C366.043 211.737 286.107 202.987 187.5 202.987C88.8932 202.987 8.95654 211.737 8.95654 222.53C8.95654 233.324 88.8932 242.074 187.5 242.074Z" fill="#A1ABD1"/>
<path d="M145.937 219.296C144.486 219.787 102.886 219.918 101.292 218.935C100.669 218.562 100.314 212.51 100.047 205.183C99.9906 203.603 99.947 201.967 99.9096 200.313L96.5908 178.144L124.405 177.964L127.027 200.138L126.921 205.015C126.921 205.015 142.874 212.075 144.505 213.356C146.136 214.637 147.388 218.805 145.937 219.296Z" fill="#D4A29E"/>
<path d="M145.937 219.296C144.486 219.787 102.886 219.918 101.292 218.935C100.557 218.475 100.159 209.636 99.9346 200.313L126.996 200.138L126.89 205.015C126.89 205.015 142.843 212.075 144.474 213.356C146.105 214.637 147.388 218.805 145.937 219.296Z" fill="white"/>
<path d="M145.937 219.296C144.486 219.787 102.886 219.918 101.292 218.935C100.669 218.562 100.314 212.51 100.046 205.183L126.865 205.015C126.865 205.015 142.817 212.075 144.449 213.356C146.08 214.637 147.388 218.805 145.937 219.296Z" fill="#6D90FF"/>
<path d="M145.333 217.635C138.359 217.486 110.214 217.554 103.309 217.94C103.253 217.94 103.253 217.977 103.309 217.984C110.221 218.276 138.365 217.984 145.333 217.747C145.482 217.741 145.482 217.635 145.333 217.635Z" fill="#475B9D"/>
<path d="M141.79 211.869C141.014 211.852 140.244 211.996 139.527 212.291C138.81 212.587 138.162 213.028 137.624 213.586C136.645 214.583 136.091 215.921 136.08 217.318C136.08 217.362 136.155 217.362 136.161 217.318C136.393 215.942 137.063 214.677 138.073 213.713C139.083 212.749 140.378 212.137 141.765 211.969C141.778 211.972 141.792 211.97 141.804 211.963C141.816 211.956 141.824 211.945 141.827 211.932C141.831 211.918 141.829 211.904 141.821 211.893C141.814 211.881 141.803 211.873 141.79 211.869Z" fill="#2B3E7A"/>
<path d="M129.592 205.699C126.803 205.668 123.571 206.663 121.84 208.952C121.778 209.039 121.902 209.132 121.983 209.089C124.42 207.804 126.988 206.782 129.642 206.041C129.683 206.03 129.719 206.004 129.742 205.969C129.765 205.933 129.775 205.89 129.769 205.848C129.762 205.806 129.741 205.768 129.709 205.74C129.676 205.713 129.635 205.698 129.592 205.699Z" fill="#2B3E7A"/>
<path d="M131.759 206.526C128.963 206.526 125.731 207.497 124.007 209.779C123.938 209.873 124.063 209.966 124.15 209.922C126.583 208.633 129.149 207.609 131.802 206.868C131.843 206.857 131.878 206.832 131.901 206.797C131.925 206.762 131.934 206.72 131.929 206.678C131.924 206.637 131.904 206.598 131.872 206.571C131.841 206.543 131.801 206.527 131.759 206.526Z" fill="#2B3E7A"/>
<path d="M133.914 207.36C131.124 207.36 127.892 208.324 126.161 210.613C126.099 210.7 126.224 210.793 126.305 210.75C128.742 209.465 131.309 208.443 133.963 207.702C134.004 207.691 134.04 207.665 134.063 207.629C134.087 207.594 134.096 207.551 134.09 207.509C134.084 207.467 134.062 207.429 134.03 207.401C133.998 207.374 133.956 207.359 133.914 207.36Z" fill="#2B3E7A"/>
<path d="M136.074 208.193C133.278 208.162 130.047 209.157 128.322 211.446C128.253 211.533 128.384 211.627 128.465 211.583C130.902 210.297 133.469 209.275 136.124 208.535C136.165 208.524 136.2 208.498 136.224 208.463C136.247 208.427 136.257 208.384 136.25 208.342C136.244 208.3 136.223 208.262 136.191 208.235C136.158 208.207 136.117 208.192 136.074 208.193Z" fill="#2B3E7A"/>
<path d="M105.065 211.316C101.952 211.316 101.952 216.198 105.065 216.18C108.178 216.161 108.203 211.297 105.065 211.316Z" fill="#475B9D"/>
<path d="M132.587 198.248C131.174 197.078 129.393 198.247 128.527 199.448C127.087 201.57 126.228 204.032 126.037 206.588C126.037 206.644 126.08 206.669 126.124 206.669C126.135 206.722 126.158 206.771 126.192 206.813C126.226 206.855 126.27 206.887 126.32 206.909C126.369 206.93 126.423 206.939 126.476 206.935C126.53 206.932 126.582 206.915 126.628 206.887C128.608 205.512 130.9 204.281 132.4 202.334C133.253 201.202 133.951 199.336 132.587 198.248ZM129.187 204.181C128.228 204.884 127.238 205.537 126.304 206.277C126.802 204.884 127.232 203.478 127.867 202.135C128.161 201.491 128.498 200.867 128.876 200.269C129.499 199.342 132.213 197.004 132.5 200.033C132.662 201.693 130.327 203.348 129.187 204.181Z" fill="#2B3E7A"/>
<path d="M119.088 207.646C121.516 208.007 124.025 207.31 126.41 206.931C126.462 206.917 126.51 206.892 126.55 206.857C126.59 206.821 126.621 206.777 126.641 206.727C126.661 206.678 126.669 206.624 126.665 206.571C126.661 206.518 126.644 206.466 126.616 206.421C126.625 206.414 126.632 206.405 126.637 206.394C126.642 206.384 126.645 206.373 126.645 206.362C126.645 206.35 126.642 206.339 126.637 206.329C126.632 206.318 126.625 206.309 126.616 206.302C124.699 204.595 122.367 203.422 119.853 202.9C118.384 202.62 116.304 203.025 116.117 204.847C115.893 206.564 117.668 207.422 119.088 207.646ZM117.394 206.066C115.526 203.678 119.094 203.472 120.165 203.721C120.86 203.895 121.542 204.115 122.207 204.38C123.569 204.945 124.901 205.578 126.198 206.278C125.015 206.396 123.851 206.607 122.674 206.769C121.267 206.956 118.44 207.379 117.394 206.066Z" fill="#475B9D"/>
<path d="M55.6938 75.6825C55.6938 75.6825 87.9916 130.568 88.8571 134.424C90.1833 140.346 97.2133 198.82 97.2133 198.82L130.837 198.198C130.837 198.198 125.046 146.64 119.561 129.653C115.613 117.419 87.1074 76.8394 87.1074 76.8394L55.6938 75.6825Z" fill="#627AC5"/>
<path d="M127.78 193.072C122.954 193.035 105.85 192.842 99.4237 193.439C99.3739 193.439 99.3801 193.527 99.4237 193.533C101.634 193.85 122.948 193.359 127.774 193.203C127.784 193.207 127.795 193.208 127.805 193.207C127.816 193.205 127.826 193.202 127.835 193.196C127.844 193.19 127.851 193.182 127.857 193.172C127.862 193.163 127.865 193.153 127.865 193.142C127.866 193.131 127.864 193.121 127.86 193.111C127.855 193.101 127.849 193.092 127.84 193.086C127.832 193.079 127.822 193.074 127.812 193.072C127.801 193.07 127.79 193.07 127.78 193.072Z" fill="#46588E"/>
<path d="M61.2046 80.7207C63.3217 84.0359 65.5633 87.2828 67.7177 90.5732C69.8722 93.8635 72.039 97.1539 74.1748 100.438C78.4338 107.073 82.5849 113.751 86.6281 120.473C88.6013 123.588 90.2894 126.876 91.6717 130.294C92.9335 133.713 93.8818 137.24 94.5048 140.831C95.1649 144.432 95.6007 148.071 96.0055 151.71C96.4206 155.578 96.8544 159.449 97.3068 163.322C98.191 171.247 99.0773 179.171 99.9656 187.095C100.071 188.065 100.177 189.036 100.277 190.012C100.277 190.155 100.034 190.18 100.015 190.012C99.0254 182.144 98.2035 174.245 97.3068 166.376C96.8585 162.449 96.4123 158.525 95.9681 154.602C95.5509 150.951 95.1524 147.293 94.5858 143.667C94.0658 140.088 93.2748 136.553 92.2196 133.093C91.057 129.511 89.4991 126.068 87.5746 122.83C83.6829 116.119 79.5608 109.526 75.4388 102.926C71.3167 96.3267 67.0826 89.6713 62.7364 83.1527C62.2009 82.3503 61.6592 81.5479 61.0988 80.758C61.0552 80.7145 61.1673 80.6585 61.2046 80.7207Z" fill="#46588E"/>
<path d="M66.2793 222.53C64.7475 222.437 25.1833 206.427 24.0874 204.909C24.0386 204.82 24.0169 204.718 24.0251 204.617C24.0251 203.255 26.7711 198.503 29.0625 192.258C29.2057 191.86 30.2269 190.006 31.6403 187.512C35.5694 180.676 42.4187 168.902 42.4187 168.902L68.278 179.165L55.8994 197.669L53.9754 202.147C53.9754 202.147 66.1112 214.681 67.1323 216.453C68.1535 218.226 67.8048 222.618 66.2793 222.53Z" fill="#D4A29E"/>
<path d="M66.2793 222.53C64.7475 222.437 25.1833 206.427 24.0874 204.909C24.0386 204.82 24.0169 204.718 24.0251 204.617C24.0251 203.255 26.7711 198.503 29.0625 192.258C29.2057 191.86 30.2269 190.006 31.6403 187.512L55.9243 197.669L54.0003 202.147C54.0003 202.147 66.1361 214.681 67.1572 216.453C68.1784 218.226 67.8048 222.617 66.2793 222.53Z" fill="white"/>
<path d="M66.2794 222.53C64.7477 222.437 25.1834 206.427 24.0875 204.909C23.6641 204.331 25.4325 198.938 29.0689 192.258L53.9755 202.154C53.9755 202.154 66.1113 214.674 67.1387 216.46C68.1661 218.245 67.8049 222.617 66.2794 222.53Z" fill="#6D90FF"/>
<path d="M66.3414 220.764C59.9342 218.015 33.8196 207.528 27.2753 205.301C27.2193 205.301 27.2068 205.301 27.2753 205.338C33.5705 208.2 59.7661 218.475 66.3165 220.888C66.4411 220.919 66.4784 220.82 66.3414 220.764Z" fill="#475B9D"/>
<path d="M65.2208 214.09C64.5103 213.778 63.7427 213.617 62.9667 213.617C62.1907 213.617 61.4231 213.778 60.7127 214.09C59.4352 214.649 58.4227 215.678 57.8857 216.964C57.8857 217.001 57.9418 217.032 57.9605 216.995C58.6945 215.802 59.7957 214.879 61.0991 214.364C62.4024 213.85 63.8376 213.771 65.1896 214.14C65.2001 214.137 65.2091 214.13 65.2149 214.121C65.2206 214.112 65.2227 214.101 65.2208 214.09Z" fill="#475B9D"/>
<path d="M56.2355 203.802C53.6639 202.726 50.2891 202.44 47.8295 203.914C47.7361 203.97 47.8295 204.101 47.9105 204.094C50.6523 203.816 53.4159 203.831 56.1546 204.138C56.1967 204.142 56.2391 204.132 56.2738 204.107C56.3084 204.083 56.333 204.047 56.3429 204.006C56.3529 203.964 56.3474 203.921 56.3277 203.884C56.3079 203.846 56.2751 203.817 56.2355 203.802Z" fill="#475B9D"/>
<path d="M57.923 205.382C55.3514 204.306 51.9766 204.02 49.517 205.494C49.4236 205.55 49.517 205.68 49.598 205.674C52.3396 205.393 55.1036 205.408 57.8421 205.718C57.8842 205.722 57.9266 205.711 57.9613 205.687C57.9959 205.663 58.0205 205.627 58.0305 205.585C58.0404 205.544 58.0349 205.501 58.0152 205.463C57.9954 205.426 57.9626 205.397 57.923 205.382Z" fill="#475B9D"/>
<path d="M59.6169 206.962C57.039 205.886 53.6642 205.6 51.2109 207.074C51.1112 207.13 51.2109 207.26 51.2856 207.254C54.0272 206.973 56.7912 206.988 59.5297 207.298C59.5727 207.305 59.6168 207.296 59.6534 207.272C59.69 207.248 59.7163 207.212 59.7273 207.17C59.7382 207.127 59.733 207.083 59.7125 207.044C59.6921 207.006 59.6579 206.976 59.6169 206.962Z" fill="#475B9D"/>
<path d="M61.3044 208.542C58.7265 207.466 55.3579 207.18 52.8984 208.647C52.7987 208.71 52.8984 208.84 52.9731 208.834C55.7147 208.553 58.4787 208.568 61.2172 208.878C61.2602 208.885 61.3043 208.876 61.3409 208.852C61.3775 208.828 61.4038 208.792 61.4148 208.75C61.4257 208.707 61.4204 208.663 61.4 208.624C61.3796 208.586 61.3454 208.556 61.3044 208.542Z" fill="#475B9D"/>
<path d="M31.3853 199.815C28.4774 198.658 26.6717 203.18 29.592 204.337C32.5123 205.494 34.3243 200.972 31.3853 199.815Z" fill="#475B9D"/>
<path d="M61.8085 198.017C60.9306 196.406 58.8571 196.804 57.5931 197.607C55.4638 199.032 53.7462 200.99 52.6118 203.286C52.6068 203.296 52.6041 203.307 52.604 203.318C52.6039 203.329 52.6063 203.34 52.6111 203.351C52.6159 203.361 52.6229 203.37 52.6317 203.377C52.6404 203.384 52.6506 203.389 52.6616 203.391C52.6616 203.597 52.7986 203.839 53.0414 203.79C55.4013 203.248 57.9854 202.968 60.1024 201.724C61.3166 201.003 62.6367 199.541 61.8085 198.017ZM56.4225 202.241C55.2705 202.533 54.1124 202.769 52.9729 203.105C53.9154 201.971 54.9151 200.885 55.9679 199.852C56.4862 199.359 57.0375 198.902 57.618 198.484C58.5209 197.862 61.9331 196.711 61.0614 199.628C60.5819 201.239 57.7986 201.892 56.4225 202.241Z" fill="#475B9D"/>
<path d="M45.7626 201.669C47.8797 202.913 50.4638 203.205 52.8175 203.752C53.0603 203.808 53.2222 203.566 53.2035 203.354C53.2152 203.353 53.2264 203.349 53.2359 203.342C53.2455 203.335 53.2531 203.326 53.2581 203.315C53.2632 203.305 53.2653 203.293 53.2645 203.281C53.2636 203.27 53.2598 203.258 53.2533 203.248C52.1207 200.948 50.4029 198.985 48.272 197.557C47.0266 196.749 44.9407 196.344 44.0565 197.949C43.1723 199.554 44.5235 200.941 45.7626 201.669ZM44.7913 199.566C43.9258 196.649 47.3318 197.806 48.2346 198.434C48.8144 198.853 49.3637 199.312 49.8785 199.809C50.9293 200.844 51.9269 201.932 52.8673 203.068C51.7278 202.732 50.5696 202.49 49.4177 202.197C48.0229 201.824 45.2645 201.202 44.7913 199.566Z" fill="#475B9D"/>
<path d="M57.9107 196.637L28.9629 184.962C28.9629 184.962 64.8534 132.247 65.1149 128.322C65.3515 124.852 49.5856 94.6099 48.9692 85.7962C48.2967 76.2796 52.8795 68.9213 57.9231 64.3496L87.78 77.0322C87.78 77.0322 84.6293 82.0642 79.6853 84.8694C79.6853 84.8694 94.9967 119.826 94.1249 130.574C93.2532 141.322 57.9107 196.637 57.9107 196.637Z" fill="#627AC5"/>
<path d="M59.1935 191.138C55.0092 189.34 56.2359 189.795 52.0266 188.028C49.9718 187.17 36.46 181.553 34.3803 181.087C34.3367 181.087 34.3055 181.149 34.3491 181.174C36.1486 182.275 49.7726 187.655 51.8461 188.476C56.0864 190.143 54.8847 189.62 59.1437 191.238C59.1501 191.246 59.1585 191.253 59.1682 191.257C59.1779 191.261 59.1885 191.263 59.1991 191.262C59.2097 191.261 59.2198 191.258 59.2286 191.252C59.2374 191.246 59.2445 191.238 59.2492 191.228C59.254 191.219 59.2562 191.208 59.2557 191.197C59.2553 191.187 59.2521 191.177 59.2465 191.168C59.2409 191.159 59.2331 191.151 59.2238 191.146C59.2146 191.141 59.2041 191.138 59.1935 191.138Z" fill="#46588E"/>
<path d="M84.5796 84.2287C81.4712 84.9525 78.4299 85.9388 75.4887 87.177C75.4768 87.1811 75.4659 87.1874 75.4565 87.1958C75.4471 87.2041 75.4395 87.2141 75.434 87.2254C75.4285 87.2367 75.4253 87.2489 75.4245 87.2614C75.4237 87.2739 75.4254 87.2864 75.4295 87.2983C75.4336 87.3101 75.44 87.321 75.4483 87.3304C75.4566 87.3398 75.4667 87.3475 75.478 87.3529C75.4893 87.3584 75.5015 87.3616 75.514 87.3624C75.5266 87.3632 75.5391 87.3614 75.551 87.3574C78.602 86.4679 81.7029 85.6344 84.7042 84.5832C84.9345 84.5024 84.8162 84.1789 84.5796 84.2287Z" fill="#46588E"/>
<path d="M81.0239 83.022C80.7337 83.5375 80.4779 84.0715 80.258 84.6205C80.0431 85.0372 79.9099 85.4912 79.8657 85.9578C79.8657 86.0511 79.9902 86.0698 80.0463 86.0138C80.3587 85.6405 80.6108 85.2208 80.7935 84.7698C81.0488 84.2784 81.3103 83.7933 81.5531 83.2894C81.7212 82.9225 81.2169 82.6861 81.0239 83.022Z" fill="#46588E"/>
<path d="M81.3974 80.1981C81.5842 79.7378 81.7648 79.2837 81.9578 78.8235C82.1509 78.3632 82.3937 77.8905 82.5805 77.4053C82.5805 77.3307 82.7299 77.4053 82.6988 77.4613C82.512 77.9216 82.3937 78.4067 82.2505 78.8794C82.1073 79.3522 81.9454 79.8249 81.7897 80.2976C81.4971 81.1746 81.1671 82.0454 80.7623 82.8976C81.2523 82.922 81.7415 82.837 82.1945 82.6488C82.6571 82.353 83.0127 81.9171 83.2094 81.4048C83.4709 80.8947 83.7137 80.3722 83.9815 79.8622C84.3111 79.3108 84.5883 78.7298 84.8096 78.1268C84.8096 78.0522 84.9591 78.1268 84.9279 78.1828C84.5219 79.4577 83.9901 80.6891 83.3402 81.8588C83.06 82.3129 82.842 82.7918 82.3314 82.966C81.7787 83.1204 81.2003 83.1606 80.6316 83.0842C80.5568 83.0842 80.4697 83.0842 80.4946 82.9722C80.7495 82.0332 81.0509 81.1074 81.3974 80.1981Z" fill="#46588E"/>
<path d="M80.1276 86.0076C81.1924 88.253 82.1264 90.4922 83.1164 92.7314C84.1065 94.9706 84.9844 97.1352 85.8748 99.3619C87.6557 103.853 89.2497 108.431 90.6507 113.046C91.3418 115.335 91.9832 117.643 92.556 119.969C93.187 122.288 93.649 124.649 93.9384 127.035C94.1882 129.416 93.9768 131.824 93.3157 134.126C92.629 136.401 91.7478 138.613 90.6818 140.737C90.028 142.081 89.8101 141.901 90.1214 141.223C91.0118 139.294 93.3468 133.454 93.1787 128.546C93.0425 126.197 92.6797 123.866 92.0953 121.586C91.5515 119.235 90.9392 116.902 90.2584 114.588C88.9321 110.023 87.3568 105.551 85.7379 101.085C84.8288 98.5969 83.8699 96.1089 82.9359 93.6209C82.0019 91.1329 81.0679 88.8439 80.0218 86.0947C79.9906 85.9827 80.0965 85.9392 80.1276 86.0076Z" fill="#46588E"/>
<path d="M58.1534 78.5872C58.6702 78.3944 59.3987 78.7116 59.9218 78.7987C60.5991 78.9135 61.2836 78.9821 61.9703 79.0039C62.6498 79.0278 63.3301 79.005 64.0064 78.9355C64.6876 78.9179 65.3551 78.7411 65.9554 78.4192C66.9404 77.7025 67.7847 76.8106 68.4461 75.7882C69.2342 74.7434 69.885 73.6021 70.3826 72.3921C70.3826 72.3174 70.5133 72.3921 70.4884 72.4418C70.2705 73.1322 70.1086 73.8289 69.8657 74.5069C69.5973 75.1438 69.2766 75.7576 68.9068 76.3418C68.3073 77.5173 67.4207 78.5228 66.329 79.2652C65.1272 79.9494 63.583 79.8872 62.2443 79.8312C61.4679 79.786 60.6958 79.6841 59.9342 79.5264C59.3863 79.4082 58.4647 79.3211 58.116 78.8422C58.0996 78.8239 58.0874 78.8022 58.0804 78.7786C58.0733 78.7551 58.0715 78.7303 58.075 78.706C58.0786 78.6816 58.0874 78.6584 58.101 78.6379C58.1145 78.6174 58.1324 78.6 58.1534 78.5872Z" fill="#46588E"/>
<path d="M37.2257 179.432C41.9828 172.233 46.6528 164.977 51.2357 157.662C55.8185 150.347 60.3391 142.977 64.7974 135.55C65.8621 133.777 67.0888 132.011 67.7737 130.045C68.5209 127.912 68.0975 125.841 67.425 123.751C66.1552 119.938 64.6709 116.2 62.9792 112.555C61.3104 108.879 59.5109 105.265 57.7425 101.639C55.9742 98.0123 54.1248 94.4296 52.7612 90.6478C51.5159 87.034 51.0115 83.2895 51.9829 79.5451C52.9542 75.8007 55.0464 72.4916 57.232 69.3754C57.8048 68.5544 58.3963 67.7395 58.9754 66.8874C59.019 66.8252 59.1124 66.8874 59.0688 66.962C56.6591 70.2089 54.3116 73.6485 52.8982 77.4614C52.1758 79.3408 51.7717 81.3273 51.7027 83.3393C51.6909 85.3816 52.0084 87.4125 52.6429 89.354C53.8135 93.1358 55.6628 96.7123 57.3876 100.27C59.1124 103.828 60.9555 107.51 62.6554 111.174C64.4091 114.861 65.9679 118.638 67.3254 122.488C67.9045 124.198 68.5707 125.99 68.5209 127.825C68.4773 129.834 67.5184 131.644 66.5221 133.336C62.1635 140.706 57.699 147.99 53.1535 155.23C48.608 162.47 43.9318 169.71 39.1995 176.876L37.4062 179.581C37.3128 179.693 37.151 179.563 37.2257 179.432Z" fill="#46588E"/>
<path d="M89.4363 43.5064C92.1325 49.4154 105.75 57.5574 112.126 58.4344C116.709 59.0564 130.644 59.2804 135.42 58.5526C141.024 57.6943 136.74 42.6108 133.434 43.0026C124.343 44.06 116.622 45.2418 114.194 45.2418C111.23 45.2418 95.196 40.1041 93.2657 39.3764C88.5334 37.6161 87.9108 40.1539 89.4363 43.5064Z" fill="#D4A29E"/>
<path d="M89.5234 45.08C92.9356 50.1244 104.274 58.3722 104.274 58.3722L105.85 54.889L111.061 43.3695C111.061 43.3695 100.644 40.104 93.7886 38.6112C92.9819 38.4278 92.1613 38.3113 91.3353 38.2629C86.958 38.0265 86.5781 40.726 89.5234 45.08Z" fill="#5A7BE3"/>
<path d="M89.5234 45.08C92.9356 50.1245 104.274 58.3722 104.274 58.3722L105.85 54.889C101.622 49.9814 95.09 42.5485 91.3353 38.2754C86.958 38.0266 86.5781 40.726 89.5234 45.08Z" fill="#4F67B4"/>
<path d="M102.232 56.0334C103.097 53.9124 106.946 45.3724 107.904 43.5935C107.967 43.4691 108.066 43.4815 108.01 43.5935C106.341 47.8404 104.441 51.9932 102.319 56.0334C102.294 56.1081 102.195 56.0832 102.232 56.0334Z" fill="#4968CA"/>
<path d="M131.765 43.158C137.294 42.4365 144.138 41.1987 149.935 43.6556C150.586 43.9107 151.132 44.3774 151.485 44.9804C154.1 46.0378 154.387 47.5866 154.387 47.5866C156.522 49.3158 156.597 50.9454 156.597 50.9454C156.597 50.9454 159.661 52.1894 159.194 54.1923C158.683 56.4066 154.486 54.1923 151.435 54.3726C144.43 54.808 134.623 57.3769 132.6 57.7003L131.765 43.158Z" fill="#D4A29E"/>
<path d="M143.776 49.6766C145.825 49.5367 147.88 49.5367 149.928 49.6766C152.159 49.9562 154.365 50.4032 156.529 51.0139C156.543 51.0189 156.558 51.0181 156.572 51.0116C156.585 51.0052 156.595 50.9937 156.6 50.9797C156.605 50.9657 156.604 50.9503 156.598 50.9369C156.592 50.9235 156.58 50.9131 156.566 50.9082C152.502 49.3153 148.078 48.8678 143.776 49.6144C143.677 49.602 143.677 49.6828 143.776 49.6766Z" fill="#C18C88"/>
<path d="M142.475 43.214C145.893 43.3881 148.029 43.9355 151.466 44.968V44.9307C147.681 43.3508 146.13 43.2015 142.456 43.0647C142.338 43.1145 142.344 43.214 142.475 43.214Z" fill="#C18C88"/>
<path d="M143.029 55.4301C142.139 55.8468 142.357 56.3133 144.057 56.7052C145.757 57.097 152.824 57.2152 152.575 59.6783C152.326 62.1414 142.357 61.8304 139.573 60.9596C136.79 60.0888 132.6 57.7004 132.6 57.7004C134.573 57.3707 139.206 56.1205 143.029 55.4301Z" fill="#D4A29E"/>
<path d="M96.8399 52.9234C96.7963 53.9871 96.6967 55.0693 96.5473 56.1454C96.5473 56.1019 96.5473 56.0646 96.5909 56.0272C96.7963 55.4674 97.0018 54.8952 97.2509 54.354C97.2509 54.354 97.3131 54.354 97.3069 54.354C97.1872 54.947 97.0078 55.5263 96.7714 56.0832C96.6593 56.3507 96.5535 56.6119 96.4352 56.8732C96.3605 57.3521 96.2733 57.8248 96.1799 58.2975C95.9931 59.187 95.1525 62.9687 94.9346 63.6094C94.8972 63.74 94.7353 63.7089 94.7478 63.5597C94.7913 62.863 95.495 58.9258 95.6382 58.0301C95.9163 56.3007 96.2884 54.5876 96.7527 52.8986C96.7839 52.8675 96.8461 52.8923 96.8399 52.9234Z" fill="#4968CA"/>
<path d="M90.3641 81.2058C88.7016 82.0579 86.5596 83.3828 76.9083 81.4857C76.2856 81.3613 75.7003 81.212 75.0901 81.0316C66.0428 78.3197 55.1648 67.6897 54.5732 66.9371C54.5732 66.9371 68.9506 43.6556 87.338 36.3347C89.6107 35.4328 93.3716 37.1744 95.4326 39.3452C96.1736 40.1227 97.7863 45.8389 97.1699 50.4666C96.5534 55.0942 92.0204 80.3537 90.3641 81.2058Z" fill="#6D90FF"/>
<path d="M89.0689 50.2551C89.1383 51.2389 89.0005 52.2264 88.6642 53.1536C88.5852 52.1695 88.7234 51.1801 89.0689 50.2551Z" fill="white"/>
<path d="M82.7985 66.1099C82.8381 66.5995 82.8214 67.092 82.7487 67.5778C82.6887 68.0672 82.5695 68.5476 82.3938 69.0084C82.3509 68.5168 82.3676 68.0218 82.4436 67.5342C82.5072 67.0475 82.6263 66.5696 82.7985 66.1099Z" fill="white"/>
<path d="M72.1448 54.1239C72.2149 55.1098 72.077 56.0994 71.74 57.0287C71.6618 56.0425 71.7999 55.0512 72.1448 54.1239Z" fill="white"/>
<path d="M93.172 65.3013C93.2118 65.7929 93.1951 66.2875 93.1222 66.7754C93.0623 67.2649 92.9431 67.7452 92.7673 68.206C92.7244 67.7144 92.7411 67.2195 92.8171 66.7319C92.88 66.243 92.9991 65.7629 93.172 65.3013Z" fill="white"/>
<path d="M79.4922 52.0714C79.9821 52.0297 80.4751 52.0443 80.9617 52.1149C81.4519 52.177 81.9328 52.2981 82.3938 52.4756C81.4089 52.5463 80.4201 52.4085 79.4922 52.0714Z" fill="white"/>
<path d="M67.3999 63.5223C68.3848 63.453 69.3732 63.5907 70.3015 63.9266C69.3164 64.0055 68.3259 63.8675 67.3999 63.5223Z" fill="white"/>
<path d="M81.6465 75.9188C82.6314 75.8481 83.6202 75.9859 84.5481 76.3231C83.563 76.4007 82.5728 76.2627 81.6465 75.9188Z" fill="white"/>
<path d="M63.6704 71.4155C64.6553 71.3462 65.6438 71.4839 66.572 71.8199C65.5869 71.8975 64.5967 71.7595 63.6704 71.4155Z" fill="white"/>
<path d="M88.9756 39.1088C89.9605 39.0394 90.9489 39.1771 91.8772 39.5131C90.8924 39.5824 89.9039 39.4447 88.9756 39.1088Z" fill="white"/>
<path d="M85.4575 43.0771C85.1427 43.4552 84.783 43.7935 84.3865 44.0848C84.0006 44.3828 83.583 44.6373 83.1411 44.8436C83.4538 44.468 83.8091 44.1299 84.1997 43.836C84.5892 43.5368 85.0111 43.2823 85.4575 43.0771Z" fill="white"/>
<path d="M66.2854 54.354C65.9668 54.7287 65.6053 55.0648 65.2082 55.3554C64.8263 55.6591 64.408 55.914 63.9629 56.1143C64.2832 55.7412 64.6446 55.4052 65.0401 55.1129C65.4229 54.8105 65.8411 54.5557 66.2854 54.354Z" fill="white"/>
<path d="M90.2268 59.442C89.9083 59.8187 89.5468 60.1569 89.1496 60.4497C88.7668 60.752 88.3486 61.0068 87.9043 61.2085C88.2228 60.8318 88.5843 60.4937 88.9815 60.2009C89.3664 59.9015 89.7842 59.6469 90.2268 59.442Z" fill="white"/>
<path d="M74.7225 69.1949C74.4039 69.5716 74.0424 69.9098 73.6452 70.2026C73.2618 70.5041 72.8437 70.7588 72.3999 70.9614C72.7184 70.5848 73.08 70.2466 73.4771 69.9538C73.8621 69.6544 74.2799 69.3999 74.7225 69.1949Z" fill="white"/>
<path d="M96.1673 46.1188C95.8487 46.4954 95.4872 46.8336 95.09 47.1264C94.7042 47.4245 94.2866 47.679 93.8447 47.8853C94.1633 47.5086 94.5248 47.1704 94.9219 46.8776C95.3054 46.5761 95.7234 46.3214 96.1673 46.1188Z" fill="white"/>
<path d="M95.8436 57.4205C95.4665 57.1023 95.1279 56.7412 94.8348 56.3445C94.5318 55.9623 94.2767 55.5445 94.0752 55.1005C94.4536 55.4149 94.7923 55.7742 95.0839 56.1703C95.3814 56.5585 95.6361 56.9777 95.8436 57.4205Z" fill="white"/>
<path d="M61.2855 65.208C60.9084 64.8898 60.5698 64.5287 60.2767 64.1319C59.9771 63.7474 59.7222 63.3301 59.5171 62.8879C59.8942 63.2061 60.2327 63.5673 60.5258 63.964C60.8276 64.347 61.0826 64.7646 61.2855 65.208Z" fill="white"/>
<path d="M91.6404 74.4696C91.262 74.1552 90.9233 73.7959 90.6317 73.3998C90.3333 73.0143 90.0786 72.5971 89.8721 72.1558C90.2491 72.474 90.5877 72.8351 90.8808 73.2318C91.1813 73.6135 91.4362 74.0289 91.6404 74.4696Z" fill="white"/>
<path d="M76.4285 48.0657C76.0516 47.7497 75.713 47.3906 75.4198 46.9958C75.1227 46.6095 74.868 46.1925 74.6602 45.7518C75.0386 46.0663 75.3773 46.4255 75.6689 46.8217C75.966 47.208 76.2206 47.625 76.4285 48.0657Z" fill="white"/>
<path d="M76.6966 79.7441C76.3195 79.4259 75.981 79.0648 75.6879 78.6681C75.3892 78.2829 75.1344 77.8656 74.9282 77.4241C75.3066 77.7385 75.6454 78.0978 75.9369 78.4939C76.2366 78.8807 76.4914 79.3001 76.6966 79.7441Z" fill="white"/>
<path d="M79.2807 61.0592C78.9072 60.7392 78.5709 60.3783 78.2782 59.9831C77.9742 59.6016 77.719 59.1837 77.5186 58.7391C77.8937 59.0574 78.2301 59.4186 78.521 59.8152C78.8237 60.1976 79.0788 60.6153 79.2807 61.0592Z" fill="white"/>
<path d="M92.0638 45.5465C89.7164 45.1111 87.5121 40.2657 87.2319 37.0065C87.2319 36.7825 88.3278 35.0098 89.5794 32.7893C90.339 31.4396 91.1423 29.9157 91.7836 28.4726C91.9144 28.1803 92.6803 29.1693 92.6803 29.1693L94.349 30.4133L99.8596 34.6366C98.5474 36.2096 97.4328 37.9371 96.5408 39.7806C96.4527 39.9803 96.3859 40.1888 96.3415 40.4026C96.3391 40.4378 96.3391 40.4731 96.3415 40.5083C95.9991 41.7399 94.3241 45.9632 92.0638 45.5465Z" fill="#D4A29E"/>
<path d="M96.3417 40.4337C96.3392 40.4689 96.3392 40.5042 96.3417 40.5395C96.0145 40.4436 95.6959 40.3209 95.389 40.1725C89.3554 37.3486 92.0141 29.275 92.0141 29.275L94.3803 30.4444L99.8909 34.6678C98.5786 36.2407 97.4641 37.9682 96.5721 39.8117C96.4733 40.0103 96.3961 40.2188 96.3417 40.4337Z" fill="#C18C88"/>
<path d="M106.192 17.4508C106.192 17.4508 108.951 19.1986 108.963 22.3086C108.976 25.4186 107.718 28.4602 107.456 28.5722C107.195 28.6841 106.192 17.4508 106.192 17.4508Z" fill="#4C60A0"/>
<path d="M92.506 19.068C90.8497 22.3335 90.9369 32.6276 93.0041 35.2773C96.0054 39.1212 101.784 40.4461 105.277 36.6457C108.658 32.9634 108.309 19.5531 105.9 17.0527C102.394 13.358 94.9593 14.235 92.506 19.068Z" fill="#D4A29E"/>
<path d="M101.298 27.3094C101.298 27.3094 101.242 27.3468 101.248 27.3716C101.286 28.0745 101.211 28.8831 100.582 29.1319C100.582 29.1319 100.582 29.1754 100.582 29.1692C101.36 29.0448 101.448 27.9688 101.298 27.3094Z" fill="#2F2E41"/>
<path d="M100.657 26.5942C99.5234 26.532 99.486 28.796 100.538 28.852C101.591 28.908 101.603 26.6439 100.657 26.5942Z" fill="#2F2E41"/>
<path d="M105.14 27.2847C105.14 27.2847 105.196 27.2847 105.196 27.3469C105.159 28.0497 105.24 28.8583 105.875 29.1009C105.875 29.1009 105.875 29.1444 105.875 29.1382C105.09 29.02 104.997 27.944 105.14 27.2847Z" fill="#2F2E41"/>
<path d="M105.781 26.563C106.908 26.4946 106.964 28.7587 105.918 28.8209C104.872 28.8831 104.835 26.619 105.781 26.563Z" fill="#2F2E41"/>
<path d="M99.9469 24.8713C100.244 24.7867 100.537 24.6871 100.825 24.5727C101.152 24.5136 101.45 24.3473 101.672 24.1C101.726 24.0095 101.748 23.9038 101.736 23.7992C101.723 23.6946 101.677 23.597 101.603 23.5216C101.435 23.3936 101.235 23.3129 101.025 23.2877C100.815 23.2626 100.602 23.2939 100.408 23.3785C99.9875 23.4909 99.6238 23.7545 99.3865 24.1187C99.3391 24.2053 99.3176 24.3037 99.3245 24.4022C99.3314 24.5007 99.3664 24.5951 99.4254 24.6743C99.4844 24.7535 99.5648 24.8142 99.6573 24.8491C99.7497 24.884 99.8502 24.8917 99.9469 24.8713Z" fill="#2F2E41"/>
<path d="M106.553 25.8727C106.25 25.8051 105.951 25.722 105.657 25.6239C105.329 25.5805 105.024 25.4296 104.791 25.1947C104.731 25.1082 104.702 25.004 104.709 24.899C104.716 24.794 104.758 24.6943 104.829 24.6163C104.989 24.4791 105.184 24.3877 105.392 24.3516C105.6 24.3155 105.814 24.336 106.012 24.411C106.438 24.4992 106.815 24.7432 107.07 25.0952C107.123 25.1785 107.151 25.2755 107.151 25.3744C107.15 25.4733 107.12 25.5698 107.065 25.6522C107.011 25.7346 106.933 25.7993 106.842 25.8384C106.751 25.8776 106.651 25.8895 106.553 25.8727Z" fill="#2F2E41"/>
<path d="M99.7041 33.9587C99.8722 34.1266 100.034 34.3505 100.289 34.3754C100.551 34.3753 100.81 34.3202 101.049 34.2137C101.049 34.2137 101.093 34.2137 101.049 34.251C100.947 34.3877 100.81 34.4941 100.652 34.5588C100.494 34.6234 100.321 34.6439 100.152 34.618C100.01 34.5792 99.8824 34.4997 99.785 34.3891C99.6876 34.2785 99.6249 34.1419 99.6045 33.996C99.5995 33.9828 99.6 33.9682 99.6058 33.9553C99.6117 33.9425 99.6224 33.9325 99.6356 33.9276C99.6488 33.9226 99.6634 33.9231 99.6763 33.929C99.6891 33.9348 99.6991 33.9455 99.7041 33.9587Z" fill="#C18C88"/>
<path d="M103.776 30.9606C103.776 30.9606 103.808 32.0055 103.776 32.4969C102.82 32.3955 101.853 32.429 100.906 32.5965C100.682 32.6462 100.707 32.4658 100.962 32.3477C101.725 31.9992 102.575 31.8866 103.403 32.0242C103.453 31.8936 103.322 30.407 103.403 30.4132C103.78 30.4871 104.144 30.6127 104.486 30.7864C104.486 28.597 104.138 26.4324 104.169 24.243C104.169 24.1683 104.287 24.1559 104.3 24.243C104.742 26.5591 104.951 28.9138 104.922 31.2716C104.928 31.5391 103.963 31.0601 103.776 30.9606Z" fill="#C18C88"/>
<path d="M102.375 32.1238C102.127 32.776 101.666 33.3259 101.068 33.685C100.127 34.0644 99.8223 33.2123 100.769 32.441C101.265 32.1904 101.821 32.0807 102.375 32.1238Z" fill="#2F2E41"/>
<path d="M101.398 33.4922C101.298 33.573 101.187 33.6381 101.068 33.685C100.202 34.0333 99.8599 33.3429 100.557 32.6462C101.031 32.6836 101.572 32.8577 101.398 33.4922Z" fill="#FF99BA"/>
<path d="M92.0326 27.8693C93.1721 28.2176 94.4797 24.7966 94.8533 23.5153C95.1771 22.3584 95.5507 18.6824 95.6067 18.4273C95.6628 18.1723 100.588 21.6804 103.44 20.8469C106.292 20.0134 108.228 17.4321 108.272 16.2317C108.315 15.0312 104.747 11.9834 101.665 11.8279C98.5831 11.6724 94.405 15.5599 94.405 15.5599C94.9097 14.9878 95.3678 14.3763 95.7749 13.7312C95.725 13.5944 93.7325 14.3905 93.3651 15.8087C93.3651 15.8087 93.7636 14.0236 93.6142 13.9925C93.4648 13.9614 91.9143 15.4853 92.263 16.6422C92.263 16.6422 90.4697 18.191 90.3078 19.889C90.146 21.5871 90.6939 27.4588 92.0326 27.8693Z" fill="#4C60A0"/>
<path d="M105.482 20.2001C104.634 20.6594 103.721 20.9867 102.774 21.1704C101.711 21.2651 100.641 21.0941 99.6604 20.6728C98.6728 20.2917 97.7554 19.7494 96.9456 19.068C96.2295 18.4834 95.5882 17.7681 94.8223 17.2456C94.6293 17.1087 94.4113 17.3886 94.5296 17.5628C95.8074 19.3657 97.6328 20.7093 99.7351 21.3943C100.712 21.7123 101.754 21.7718 102.76 21.5668C103.766 21.3618 104.702 20.8995 105.476 20.225C105.476 20.225 105.495 20.2001 105.482 20.2001Z" fill="#4C60A0"/>
<path d="M93.222 27.5645C93.222 27.5645 91.4536 23.9818 89.8596 24.5603C88.2656 25.1387 89.237 30.0961 90.8746 31.0042C91.0752 31.1338 91.2999 31.2217 91.5353 31.2625C91.7707 31.3032 92.0119 31.2961 92.2445 31.2415C92.4771 31.1869 92.6962 31.086 92.8888 30.9447C93.0814 30.8035 93.2434 30.6248 93.3652 30.4195L93.222 27.5645Z" fill="#D4A29E"/>
<path d="M90.1772 25.9722C90.1772 25.9722 90.1399 25.9722 90.1772 26.0219C91.3105 26.6937 91.7713 27.8879 92.0453 29.1319C91.9937 29.0002 91.9141 28.8813 91.812 28.7834C91.7098 28.6854 91.5876 28.6108 91.4538 28.5647C91.32 28.5185 91.1777 28.502 91.0369 28.5162C90.896 28.5303 90.7599 28.5749 90.638 28.6468C90.6007 28.6468 90.638 28.7152 90.638 28.7152C90.8608 28.6806 91.0888 28.7158 91.2906 28.8161C91.4925 28.9164 91.6582 29.0767 91.7651 29.275C91.9433 29.6071 92.0852 29.9575 92.1885 30.3199C92.2258 30.4381 92.4313 30.407 92.4126 30.2764C92.6804 28.7276 91.8086 26.3827 90.1772 25.9722Z" fill="#C18C88"/>
<path d="M81.5472 43.5623C80.3019 50.6096 87.9482 74.3513 92.8486 78.7862C100.14 85.3794 113.621 89.7147 118.509 91.1267C120.638 91.7487 126.529 76.7771 124.374 75.7881C119.76 73.692 105.427 69.2136 104.063 68.094C102.699 66.9744 94.48 55.1129 90.8187 48.2833C85.9183 39.0901 82.1637 39.9983 81.5472 43.5623Z" fill="#D4A29E"/>
<path d="M120.744 74.4695C120.744 74.4695 127.107 76.0929 131.211 77.3431C133.502 78.046 137.325 79.5948 138.776 80.8761C140.943 82.7981 148.776 92.2027 146.535 94.1496C144.505 95.916 138.801 86.9779 138.801 86.9779C138.801 86.9779 145.351 95.4869 142.537 97.16C139.723 98.8332 134.573 87.8798 134.573 87.8798C134.573 87.8798 141.105 96.7744 137.911 98.0371C135.495 98.9887 130.314 89.3291 130.314 89.3291C130.314 89.3291 135.881 97.0108 133.427 98.0993C130.725 99.3059 125.389 90.685 125.389 90.685C118.714 92.408 114.803 90.4984 112.232 88.819C111.628 88.4085 120.744 74.4695 120.744 74.4695Z" fill="#D4A29E"/>
<path d="M136.722 83.8866C137.531 84.857 138.353 85.8397 139.069 86.8785C139.785 87.9172 140.464 88.987 141.08 90.088C141.916 91.512 142.584 93.0272 143.073 94.6037C142.002 91.8669 139.492 88.1038 138.776 87.0651C138.06 86.0263 137.394 84.9503 136.684 83.9115C136.666 83.8866 136.703 83.8618 136.722 83.8866Z" fill="#2B3E7A"/>
<path d="M132.917 86.4057C134.3 87.5004 137.195 91.5683 138.31 94.2989C138.359 94.4108 138.31 94.4046 138.229 94.2989C137.357 92.9491 133.82 87.7243 132.886 86.4243C132.867 86.4057 132.899 86.387 132.917 86.4057Z" fill="#2B3E7A"/>
<path d="M129.262 87.998C130.98 89.7976 132.337 91.9089 133.26 94.2181C133.303 94.33 133.216 94.3114 133.148 94.2181C131.859 92.1219 130.862 90.486 129.194 88.054C129.169 87.998 129.225 87.9421 129.262 87.998Z" fill="#2B3E7A"/>
<path d="M88.496 44.0786C82.811 36.0486 79.4113 39.0217 80.5508 47.7422C81.6217 55.8966 84.4798 65.6122 84.4798 65.6122L98.8011 58.6707C98.8011 58.6707 92.1137 49.2225 88.496 44.0786Z" fill="#6D90FF"/>
<path d="M91.9516 47.2384C92.1404 47.692 92.2762 48.1657 92.3563 48.6503C92.4437 49.1365 92.4751 49.6312 92.4497 50.1245C92.263 49.6686 92.1293 49.1927 92.0512 48.7063C91.9587 48.2229 91.9252 47.7299 91.9516 47.2384Z" fill="white"/>
<path d="M83.4648 52.1211C84.3787 51.7497 85.3621 51.58 86.3478 51.6235C85.8935 51.81 85.4192 51.9436 84.9343 52.0216C84.4503 52.1139 83.9569 52.1473 83.4648 52.1211Z" fill="white"/>
<path d="M83.8324 39.6313C83.4468 40.5404 82.8716 41.3568 82.145 42.026C82.5306 41.117 83.1059 40.3006 83.8324 39.6313Z" fill="white"/>
<path d="M95.9682 55.8717C95.7792 56.3266 95.5389 56.7586 95.2521 57.1592C94.9729 57.565 94.6468 57.9366 94.2808 58.2664C94.6664 57.3574 95.2416 56.541 95.9682 55.8717Z" fill="white"/>
<path d="M86.0052 60.742C85.5487 60.5554 85.116 60.3153 84.7163 60.0267C84.3099 59.748 83.9379 59.4223 83.6079 59.0564C84.5179 59.4416 85.3352 60.0162 86.0052 60.742Z" fill="white"/>
<path d="M90.3639 46.4982C91.1298 47.5493 91.9206 48.5756 92.7051 49.6082C92.5059 49.0857 92.3315 48.557 92.1821 48.0221H92.2194C92.3751 48.4326 92.5557 48.8369 92.7051 49.2661L92.9293 49.8881C92.9486 49.9305 92.9652 49.9742 92.9791 50.0187C93.6018 50.8211 94.2244 51.6234 94.7973 52.4445C95.5009 53.4272 96.1796 54.4224 96.8645 55.4176C97.5495 56.4128 98.2406 57.6506 98.9816 58.652C99.0501 58.7391 97.7363 59.274 97.5931 59.3425C97.4498 59.4109 97.3751 59.2927 97.5121 59.2492C97.6491 59.2056 98.6952 58.565 98.7076 58.5525C98.0227 57.5449 97.2319 56.6181 96.5158 55.6416C95.7998 54.665 95.0899 53.6885 94.3988 52.6995C92.9978 50.6842 91.7151 48.5943 90.3203 46.5728L90.3639 46.4982Z" fill="#4968CA"/>
<path d="M80.8871 53.5144C81.105 53.9374 81.3416 54.3541 81.5098 54.7895L81.7464 55.3306C81.4164 53.7819 81.1237 52.2207 80.7812 50.6719C81.4413 53.1599 82.1075 55.7039 82.7177 58.2292C83.2968 60.6425 84.0004 63.0808 84.3367 65.5439C84.7709 65.3536 85.2209 65.2017 85.6816 65.0898C85.2193 65.3888 84.7215 65.629 84.1997 65.8051C83.4491 63.3004 82.8256 60.7594 82.3317 58.1919C82.176 57.4952 82.0328 56.7986 81.8834 56.1019C81.7215 55.679 81.5285 55.2747 81.3354 54.8579C81.1424 54.4412 80.9681 53.9747 80.7937 53.5331C80.8311 53.5082 80.8746 53.4833 80.8871 53.5144Z" fill="#4968CA"/>
<path d="M84.6917 63.2113C86.6843 62.0917 95.0093 57.7875 96.8711 56.9913C97.0019 56.9354 97.0703 56.9913 96.9396 57.0784C92.9879 59.3722 88.9138 61.4486 84.7353 63.2984C84.6855 63.3108 84.6357 63.2424 84.6917 63.2113Z" fill="#4968CA"/>
<path d="M312.855 226.735H123.141L150.57 71.3285H340.284L312.855 226.735Z" fill="#5068B6"/>
<path d="M215.502 55.2311H153.415L150.57 71.3284H217.015L215.502 55.2311Z" fill="#5068B6"/>
<g opacity="0.1">
<path opacity="0.1" d="M312.855 226.735H123.141L150.57 71.3285H340.284L312.855 226.735Z" fill="#98A6D3"/>
<path opacity="0.1" d="M215.501 55.2311H153.415L150.569 71.3284H217.014L215.501 55.2311Z" fill="black"/>
</g>
<path d="M146.716 61.7993C146.301 60.0194 146.301 58.1679 146.716 56.3879C147.131 58.1679 147.131 60.0194 146.716 61.7993Z" fill="#B9C1E1"/>
<path d="M141.199 63.3917C140.565 62.735 140.018 61.999 139.574 61.2022C139.107 60.422 138.741 59.5861 138.484 58.7142C139.12 59.3671 139.666 60.1012 140.109 60.8975C140.575 61.6804 140.941 62.5183 141.199 63.3917Z" fill="#B9C1E1"/>
<path d="M137.214 67.528C135.464 66.9966 133.86 66.0709 132.525 64.8223C133.398 65.0757 134.235 65.4394 135.016 65.9045C135.813 66.3518 136.552 66.8972 137.214 67.528Z" fill="#B9C1E1"/>
<path d="M135.819 73.1011C134.037 73.5158 132.184 73.5158 130.402 73.1011C132.184 72.6864 134.037 72.6864 135.819 73.1011Z" fill="#B9C1E1"/>
<path d="M137.438 78.6121C136.778 79.2421 136.041 79.7874 135.246 80.2355C134.465 80.7006 133.628 81.0643 132.755 81.3177C133.413 80.6844 134.15 80.1387 134.947 79.6943C135.727 79.227 136.564 78.8632 137.438 78.6121Z" fill="#2B3E7A"/>
<path d="M141.572 82.5867C141.042 84.3371 140.115 85.9419 138.864 87.2765C139.117 86.4035 139.484 85.5671 139.953 84.7885C140.397 83.9889 140.941 83.249 141.572 82.5867Z" fill="#2B3E7A"/>
<path d="M147.151 83.9613C147.368 84.8466 147.473 85.7556 147.463 86.667C147.476 87.5785 147.372 88.488 147.151 89.3727C146.928 88.4885 146.824 87.5787 146.84 86.667C146.83 85.7556 146.934 84.8466 147.151 83.9613Z" fill="#2B3E7A"/>
<path d="M152.668 82.4C153.302 83.0567 153.848 83.7927 154.293 84.5895C154.761 85.3682 155.125 86.2046 155.377 87.0775C154.125 85.7429 153.198 84.138 152.668 82.3876V82.4Z" fill="#2B3E7A"/>
<path d="M156.647 78.2327C157.521 78.4838 158.358 78.8476 159.138 79.3149C159.935 79.7593 160.672 80.305 161.329 80.9383C160.456 80.6872 159.618 80.3234 158.839 79.8561C158.041 79.4117 157.304 78.866 156.647 78.2327Z" fill="#2B3E7A"/>
<path d="M158.023 72.6594C159.807 72.2449 161.662 72.2449 163.446 72.6594C161.662 73.074 159.807 73.074 158.023 72.6594Z" fill="#B9C1E1"/>
<path d="M156.429 67.1486C157.088 66.519 157.825 65.9756 158.621 65.5314C159.399 65.0595 160.236 64.6935 161.111 64.4429C159.775 65.6932 158.169 66.6191 156.417 67.1486H156.429Z" fill="#B9C1E1"/>
<path d="M152.289 63.174C152.545 62.303 152.909 61.4672 153.372 60.686C153.817 59.8892 154.363 59.1533 154.997 58.4966C154.746 59.3694 154.382 60.2058 153.914 60.9846C153.469 61.7814 152.923 62.5173 152.289 63.174Z" fill="#B9C1E1"/>
<path d="M312.575 226.735H122.456L95.4575 76.97H285.583L312.575 226.735Z" fill="#A6B3DE"/>
<path d="M161.342 168.522C165.706 168.522 169.244 164.988 169.244 160.629C169.244 156.27 165.706 152.736 161.342 152.736C156.978 152.736 153.44 156.27 153.44 160.629C153.44 164.988 156.978 168.522 161.342 168.522Z" fill="#2B3E7A"/>
<path d="M223.808 168.522C228.172 168.522 231.71 164.988 231.71 160.629C231.71 156.27 228.172 152.736 223.808 152.736C219.444 152.736 215.906 156.27 215.906 160.629C215.906 164.988 219.444 168.522 223.808 168.522Z" fill="#2B3E7A"/>
<path d="M203.926 169.785L203.49 168.958C203.453 168.883 199.368 161.344 191.155 161.344C183.683 161.344 181.815 168.441 181.765 168.746L181.541 169.648L179.729 169.213L179.947 168.304C179.947 168.217 182.176 159.478 191.155 159.478C200.495 159.478 204.959 167.738 205.146 168.093L205.582 168.914L203.926 169.785Z" fill="#2B3E7A"/>
<path d="M300.022 160.026L299.891 159.404C300.296 159.316 300.694 159.223 301.093 159.117L301.249 159.739C300.825 159.845 300.433 159.938 300.022 160.026Z" fill="#2B3E7A"/>
<path d="M149.586 17.3952C149.287 20.2521 148.2 22.9701 146.445 25.2457C144.69 27.5213 142.337 29.2651 139.648 30.2824C136.959 31.2998 134.04 31.5507 131.216 31.0071C128.393 30.4635 125.776 29.1469 123.658 27.2041L115.893 28.3424L119.778 21.6372C118.89 19.4555 118.511 17.1002 118.67 14.7502C118.829 12.4002 119.522 10.1173 120.697 8.07497C121.871 6.03263 123.497 4.28455 125.449 2.9635C127.401 1.64245 129.629 0.783188 131.963 0.450975C134.297 0.118761 136.677 0.322338 138.92 1.04624C141.164 1.77014 143.213 2.99533 144.912 4.62873C146.611 6.26214 147.915 8.26081 148.725 10.4729C149.534 12.685 149.829 15.0524 149.586 17.3952Z" fill="white"/>
<path d="M149.71 17.289C149.418 20.1445 148.341 22.8635 146.597 25.1449C145.745 26.2987 144.718 27.3124 143.552 28.1492C142.412 29.0173 141.154 29.7189 139.816 30.2329C138.477 30.7595 137.071 31.0946 135.638 31.2281C134.922 31.2923 134.202 31.3068 133.483 31.2716C132.763 31.2531 132.044 31.1782 131.335 31.0477C128.474 30.5217 125.815 29.2101 123.658 27.2597L123.838 27.3157L116.086 28.5037L115.52 28.5908L115.806 28.0932L119.666 21.3756V21.643C118.756 19.421 118.368 17.0195 118.534 14.6241C118.701 12.2287 119.416 9.9036 120.625 7.82842C121.833 5.75978 123.493 3.99067 125.482 2.65339C127.468 1.33386 129.727 0.48052 132.089 0.157353C134.452 -0.165815 136.857 0.0495802 139.125 0.787387C141.368 1.54982 143.413 2.80367 145.109 4.45719C146.801 6.10657 148.095 8.11929 148.892 10.3426C149.689 12.566 149.969 14.9415 149.71 17.289ZM149.71 17.289C149.962 14.9531 149.673 12.5907 148.865 10.3841C148.057 8.17751 146.753 6.18584 145.052 4.56285C143.352 2.93986 141.301 1.72897 139.057 1.02366C136.814 0.318349 134.438 0.137489 132.114 0.495046C129.812 0.835297 127.62 1.69931 125.706 3.02036C123.809 4.3518 122.224 6.07939 121.061 8.08344C119.916 10.0919 119.242 12.3332 119.087 14.6393C118.936 16.961 119.31 19.287 120.183 21.444L120.239 21.5808L120.165 21.7115L116.254 28.4042L115.98 27.9937L123.751 26.9052H123.857L123.932 26.9736C126.009 28.9049 128.583 30.2208 131.366 30.774C132.06 30.9152 132.764 31.0004 133.471 31.029C134.178 31.0788 134.887 31.0788 135.594 31.029C137.012 30.9149 138.407 30.6073 139.741 30.1147C141.078 29.6284 142.337 28.9495 143.477 28.0994C144.638 27.2694 145.667 26.2692 146.528 25.1325C148.294 22.8621 149.396 20.1471 149.71 17.289Z" fill="#2B3E7A"/>
<path d="M129.147 21.1676C129.147 22.0038 129.868 22.688 130.748 22.688H137.153C138.034 22.688 138.754 22.0038 138.754 21.1676V12.0449H129.147V21.1676ZM139.555 9.76425H136.753L135.952 9.00403H131.949L131.149 9.76425H128.347V11.2847H139.555V9.76425Z" fill="#5068B6"/>
</svg>
