<svg width="209" height="337" viewBox="0 0 209 337" fill="none" xmlns="http://www.w3.org/2000/svg">
<path d="M99.7741 309.232C141.071 309.232 174.548 304.031 174.548 297.616C174.548 291.201 141.071 286 99.7741 286C58.4775 286 25 291.201 25 297.616C25 304.031 58.4775 309.232 99.7741 309.232Z" fill="#D6CFBF"/>
<path d="M65.9564 202.413C66.3197 206.144 65.9545 209.909 64.8811 213.501C64.3776 215.165 63.7315 216.782 62.9502 218.336C61.9723 220.353 60.9583 222.272 61.0738 224.507C61.2839 224.659 60.5467 224.603 60.5333 224.384C54.7426 220.728 47.1399 219.758 42.8216 214.01C40.7501 211.292 39.8375 207.916 39.4691 204.57C39.0716 200.926 39.1066 196.911 40.2035 193.387C41.1253 190.411 43.0255 187.584 45.9453 186.235C48.8651 184.887 52.7689 185.15 55.8041 186.249C62.337 188.623 65.3126 195.943 65.9564 202.413Z" fill="#D6C293"/>
<path d="M66.9756 246.565C66.288 243.824 65.6071 241.084 64.8933 238.35C63.5086 232.989 62.0515 227.642 60.424 222.354C59.4428 219.188 58.3984 216.048 57.2907 212.934C57.5147 211.011 57.8405 209.102 58.2668 207.214C58.859 204.938 59.6921 202.739 60.4717 200.523C60.5205 200.389 60.2992 200.303 60.2369 200.431C58.7542 203.477 56.8276 207.378 56.59 211.055C55.2952 207.531 53.9022 204.044 52.3842 200.587C52.3259 197.736 52.5463 194.885 53.0422 192.076C53.0419 192.053 53.0336 192.03 53.0188 192.011C53.004 191.993 52.9834 191.98 52.9604 191.975C52.9374 191.969 52.9132 191.972 52.8918 191.982C52.8703 191.992 52.8528 192.008 52.842 192.029C52.2218 194.479 51.9101 196.996 51.9141 199.522C50.7534 196.909 49.5226 194.384 48.1994 191.868C48.0797 191.64 47.7681 191.848 47.8677 192.071C49.9053 196.478 51.7731 200.964 53.5168 205.507C50.8867 203.008 47.8064 201.031 44.4391 199.68C44.2914 199.619 44.172 199.828 44.3199 199.896C47.9813 201.673 51.2941 204.092 54.1007 207.038C55.343 210.365 56.5241 213.71 57.6439 217.076C54.1013 213.277 49.1239 210.643 44.2606 209.131C44.0935 209.083 44.0351 209.336 44.1958 209.391C49.8155 211.37 54.0956 214.808 58.2565 218.891C58.6962 220.255 59.127 221.62 59.549 222.984C61.1356 228.163 62.6479 233.366 64.0859 238.594C64.7729 241.103 65.4468 243.614 66.1075 246.128C66.8139 248.835 67.339 251.68 68.3011 254.3C68.3951 254.555 68.8378 254.515 68.7955 254.218C68.3193 251.638 67.7119 249.084 66.9756 246.565Z" fill="#3D354D"/>
<path d="M59.3857 196.894C58.2521 198.466 57.4403 200.247 56.9968 202.134C56.9983 202.18 57.0591 202.218 57.0773 202.165C57.8267 200.405 58.6831 198.693 59.6419 197.038C59.7427 196.87 59.4937 196.745 59.3857 196.894Z" fill="#3D354D"/>
<path d="M48.1993 208.797C46.5879 207.802 44.8086 207.11 42.9487 206.754C42.9023 206.755 42.8645 206.816 42.9511 206.833C43.7916 207.231 44.6817 207.521 45.5346 207.893C46.3874 208.264 47.2229 208.715 48.0884 209.065C48.1206 209.068 48.1529 209.061 48.1806 209.044C48.2083 209.027 48.2298 209.002 48.2422 208.972C48.2546 208.942 48.2571 208.909 48.2494 208.877C48.2417 208.846 48.2241 208.818 48.1993 208.797Z" fill="#3D354D"/>
<path d="M45.8994 193.754C45.3808 193.323 44.8235 192.941 44.2344 192.613C44.2146 192.602 44.1914 192.599 44.1692 192.604C44.1471 192.609 44.1275 192.622 44.1142 192.64C44.1009 192.658 44.0948 192.681 44.097 192.703C44.0993 192.726 44.1097 192.747 44.1264 192.762C44.6363 193.203 45.185 193.596 45.766 193.937C45.8741 194.007 46.0078 193.83 45.8994 193.754Z" fill="#3D354D"/>
<path d="M84.6515 213.314C80.3503 214.553 76.0327 215.693 71.7311 216.919C71.3635 217.029 64.2279 203.083 66.9028 195.953C69.3489 189.347 74.9614 184.445 81.5918 182.253C84.661 181.238 88.4312 180.393 91.6607 181.134C94.5299 181.794 96.5443 184.162 97.4563 186.876C98.6964 190.56 98.2354 194.939 97.5163 198.683C96.9363 202.202 95.4544 205.511 93.2151 208.287C90.9194 210.968 88.0008 212.356 84.6515 213.314Z" fill="#D6C293"/>
<path d="M90.9701 200.17C88.2495 201.473 85.4296 202.556 82.5369 203.411C80.6071 203.913 78.7238 204.578 76.9073 205.4C78.7703 201.368 80.7756 197.439 82.9145 193.544C85.6928 192.763 88.6163 191.534 90.7427 189.594C90.7617 189.572 90.7724 189.545 90.7728 189.516C90.7732 189.488 90.7633 189.46 90.745 189.438C90.7267 189.416 90.7011 189.401 90.6729 189.397C90.6447 189.392 90.6157 189.398 90.5914 189.413C88.2953 191.007 85.7672 191.953 83.2297 193.025C83.8069 191.98 84.3906 190.929 84.9877 189.884C85.151 189.594 84.7511 189.302 84.5543 189.579C82.2744 192.836 80.2106 196.238 78.3762 199.765C77.9412 196.658 77.8197 193.515 78.0136 190.384C78.0088 190.371 78 190.36 77.9885 190.352C77.9769 190.344 77.9632 190.34 77.9493 190.341C77.9353 190.341 77.9219 190.346 77.9108 190.354C77.8998 190.363 77.8917 190.375 77.8878 190.388C77.3246 193.798 77.3314 197.278 77.9078 200.686C76.3835 203.674 74.9875 206.738 73.7319 209.843C73.2566 207.97 72.6364 206.121 72.2335 204.233C71.5946 201.529 71.3987 198.739 71.6537 195.972C71.6512 195.892 71.5449 195.883 71.5279 195.976C70.7255 201.095 71.3036 206.336 73.2027 211.157C72.4719 213.021 71.7746 214.897 71.1304 216.778C67.8252 226.351 65.829 236.327 65.1961 246.435C65.1995 246.479 65.2186 246.52 65.2498 246.551C65.2811 246.582 65.3225 246.602 65.3666 246.605C65.4106 246.608 65.4545 246.596 65.4902 246.57C65.5259 246.544 65.5512 246.506 65.5614 246.463C66.7628 236.48 68.9831 226.647 72.1877 217.116C73.4638 213.388 74.9215 209.746 76.4889 206.228C79.03 205.487 81.5569 204.501 84.0552 203.662C86.548 202.933 88.9052 201.802 91.0341 200.314C91.043 200.301 91.0483 200.286 91.0497 200.27C91.0511 200.255 91.0484 200.239 91.042 200.224C91.0356 200.21 91.0256 200.198 91.0131 200.188C91.0005 200.179 90.9857 200.172 90.9701 200.17Z" fill="#3D354D"/>
<path d="M95.0008 196.171C92.3788 197.08 89.881 198.363 87.253 199.292C87.1284 199.335 87.1939 199.525 87.3191 199.502C90.098 198.952 92.8548 198.119 95.1048 196.32C95.1888 196.252 95.0925 196.135 95.0008 196.171Z" fill="#DBDBDB"/>
<path d="M73.6395 190.34C73.6352 190.202 73.4671 190.121 73.4251 190.261C72.6847 192.675 72.1675 195.234 72.8469 197.71C72.85 197.809 73.0289 197.81 73.0322 197.704C73.1804 195.209 73.0593 192.789 73.6395 190.34Z" fill="#DBDBDB"/>
<path d="M84.5206 184.845C83.6592 186.033 83.2358 187.483 83.3224 188.949C83.3252 189.041 83.4727 189.096 83.4957 188.983C83.824 187.602 84.3683 186.346 84.8039 185.008C84.8077 184.974 84.8013 184.939 84.7856 184.908C84.7699 184.877 84.7456 184.852 84.7155 184.834C84.6855 184.817 84.6511 184.809 84.6165 184.811C84.5819 184.813 84.5486 184.824 84.5206 184.845Z" fill="#DBDBDB"/>
<path d="M98.5917 222.772C97.4568 226.78 94.6423 232.398 89.9178 232.59C86.8533 232.685 83.7584 232.443 80.6794 232.498C77.3683 232.547 74.0591 232.656 70.8153 232.955C70.5439 232.963 70.9081 223.09 78.6627 218.042C80.8391 216.65 83.5323 216.117 86.0308 215.497C88.8884 214.728 91.8332 214.329 94.7925 214.312C96.6083 214.329 98.1161 214.666 98.8354 216.505C99.5547 218.344 99.1354 220.854 98.5917 222.772Z" fill="#EBEBEB"/>
<path d="M95.0356 217.888C93.1312 218.436 91.2095 219.065 89.3024 219.74C89.7868 219.178 90.301 218.643 90.8429 218.136C91.6564 217.449 92.5454 216.845 93.4336 216.215C93.5048 216.16 93.4275 216.017 93.3625 216.058C91.5144 216.893 89.9374 218.229 88.8109 219.914C86.4321 220.763 84.0757 221.69 81.8146 222.7C80.2512 223.396 78.7596 224.243 77.361 225.229C77.7863 224.216 78.3041 223.244 78.9078 222.327C79.9181 220.931 81.3112 220.133 82.6581 219.124C82.6789 219.104 82.6921 219.077 82.6955 219.049C82.6988 219.02 82.6922 218.991 82.6767 218.967C82.6611 218.942 82.6376 218.924 82.6101 218.915C82.5827 218.906 82.5529 218.906 82.5258 218.916C81.1088 219.586 79.8471 220.543 78.8216 221.728C77.796 222.913 77.0292 224.298 76.5703 225.796C74.9554 227.022 73.4912 228.435 72.2084 230.004C67.1568 236.121 63.2835 244.136 63.5194 252.202C63.5254 252.394 63.8317 252.444 63.865 252.238C64.9652 244.289 68.1841 236.782 73.1845 230.504C73.5503 230.051 73.9213 229.623 74.2975 229.218C75.7245 228.979 77.1644 228.827 78.6096 228.76C80.2909 228.708 81.9732 228.908 83.6519 228.989C86.4189 229.128 89.4713 229.067 91.917 227.601C92.0277 227.538 91.949 227.348 91.8247 227.398C86.3404 229.588 80.4366 227.207 74.9073 228.583C77.2152 226.244 79.9444 224.362 82.9512 223.036L83.4545 222.815C87.0288 223.135 90.8236 223.945 94.2561 222.68C94.3544 222.644 94.3098 222.487 94.2049 222.523C90.8749 223.46 87.6322 222.507 84.3176 222.444C87.875 220.93 91.5205 219.698 95.0849 218.197C95.3658 218.069 95.3639 217.791 95.0356 217.888Z" fill="#DBDBDB"/>
<path d="M96.7521 221.345C95.0374 221.621 93.3092 221.804 91.5749 221.895C91.5352 221.897 91.524 221.963 91.5772 221.968C93.3308 222.235 95.1232 222.066 96.7959 221.476C96.8133 221.47 96.8276 221.458 96.8358 221.441C96.844 221.425 96.8454 221.406 96.8396 221.388C96.8337 221.371 96.8213 221.357 96.8049 221.348C96.7885 221.34 96.7695 221.339 96.7521 221.345Z" fill="#DBDBDB"/>
<path d="M84.8982 218.287C83.9528 218.746 83.1025 219.379 82.3918 220.153C82.3016 220.235 82.3992 220.391 82.5227 220.314C82.9497 219.983 83.3906 219.671 83.8185 219.367C84.2429 219.115 84.6525 218.839 85.0451 218.541C85.1744 218.437 85.0423 218.236 84.8982 218.287Z" fill="#DBDBDB"/>
<path d="M57.3757 231.986C57.4328 232.117 57.2511 232.242 57.174 232.105C57.1603 232.126 57.1423 232.145 57.1211 232.159C57.0999 232.174 57.0759 232.183 57.0507 232.188C53.8975 233.046 50.6941 233.707 47.4589 234.167C44.8516 234.479 41.8378 234.718 39.481 233.274C36.3132 231.312 34.1047 225.876 35.6715 222.338C37.529 218.128 43.5556 220.193 46.6194 221.576C51.3121 223.682 55.1181 227.365 57.3757 231.986Z" fill="#D6C293"/>
<path d="M59.7518 233.833C57.9567 232.208 55.9763 230.8 53.8516 229.638C52.2696 227.305 50.2075 225.336 47.8033 223.864C47.6885 223.794 47.5947 223.976 47.7031 224.052C49.6194 225.489 51.3301 227.181 52.7876 229.081C50.4212 227.874 47.969 226.843 45.451 225.996C44.5102 224.376 43.1185 223.063 41.4452 222.219C41.4452 222.219 41.3735 222.254 41.4072 222.273C42.798 223.264 44.0209 224.472 45.0291 225.85C43.5427 225.346 42.0443 224.883 40.5399 224.439C40.4061 224.397 40.3661 224.603 40.4933 224.646C43.1728 225.596 45.9004 226.605 48.5403 227.775C45.3638 228.383 42.111 228.484 38.9031 228.073C38.8855 228.071 38.8676 228.075 38.8529 228.085C38.8382 228.095 38.8276 228.11 38.8233 228.127C38.8189 228.144 38.821 228.163 38.8292 228.179C38.8374 228.194 38.8511 228.207 38.8677 228.213C42.2313 229.093 45.7716 229.036 49.1052 228.049C50.7977 228.809 52.4455 229.665 54.0407 230.612C52.7202 230.547 51.3979 230.698 50.1257 231.058C47.8903 231.641 45.5947 231.963 43.285 232.017C43.199 232.02 43.1768 232.16 43.2897 232.169C47.2815 232.708 51.0322 230.804 55.0112 231.145C56.5095 232.104 57.9237 233.188 59.2389 234.386C61.7851 236.781 63.9099 239.588 65.5243 242.689C67.2972 246.032 68.3085 249.604 69.7671 253.069C69.7769 253.101 69.7991 253.128 69.8288 253.144C69.8585 253.16 69.8932 253.163 69.9255 253.153C69.9577 253.144 69.9847 253.121 70.0005 253.092C70.0164 253.062 70.0198 253.027 70.01 252.995C68.625 246.123 64.9409 238.601 59.7518 233.833Z" fill="#3D354D"/>
<path d="M47.399 224.724C47.1218 224.26 46.7635 223.849 46.3413 223.511C45.9888 223.155 45.5733 222.867 45.1159 222.662C45.0762 222.663 45.0575 222.703 45.0782 222.729C45.4208 223.096 45.8863 223.367 46.2477 223.7C46.6091 224.033 46.9335 224.454 47.2952 224.793C47.3044 224.807 47.3187 224.817 47.3349 224.82C47.3512 224.823 47.368 224.82 47.3818 224.811C47.3956 224.801 47.4051 224.787 47.4084 224.771C47.4116 224.755 47.4082 224.738 47.399 224.724Z" fill="#3D354D"/>
<path d="M40.8731 227.071C40.2793 226.937 39.6509 226.97 39.0447 226.863C38.4408 226.742 37.8451 226.584 37.2611 226.388C37.2436 226.383 37.2247 226.384 37.2081 226.391C37.1914 226.399 37.1783 226.413 37.1713 226.43C37.1643 226.447 37.164 226.466 37.1703 226.483C37.1767 226.5 37.1893 226.514 37.2056 226.522C38.317 227.161 39.607 227.419 40.8788 227.257C40.8973 227.249 40.913 227.236 40.9239 227.219C40.9347 227.202 40.9402 227.182 40.9396 227.162C40.9389 227.142 40.9323 227.123 40.9204 227.106C40.9085 227.09 40.892 227.078 40.8731 227.071Z" fill="#3D354D"/>
<path d="M78.9938 240.564L78.5673 247.989L77.1287 273.049L57.5499 273.654L54.0111 248.747L52.9683 241.368L78.9938 240.564Z" fill="#3F3D56"/>
<path d="M78.9938 240.564L78.5673 247.989L54.0111 248.747L52.9683 241.368L78.9938 240.564Z" fill="#333145"/>
<path d="M80.8711 238.486L50.9668 239.41L51.1524 245.418L81.0567 244.494L80.8711 238.486Z" fill="#3F3D56"/>
<path d="M94.2726 92.1837C95.6871 100.657 102.652 120.663 107.425 121.807C111.87 122.862 131.065 116.493 133.441 112.572C134.702 110.473 139.413 91.4117 137.084 92.5898C134.136 94.1048 112.537 105.872 111.65 105.675C109.729 105.257 105.784 97.8684 102.438 93.7727C95.1398 84.8714 93.6138 88.2302 94.2726 92.1837Z" fill="#D4A29E"/>
<path d="M107.771 100.224L98.1241 109.629C98.1241 109.629 94.2079 96.7425 93.625 90.74C93.042 84.7376 97.9807 85.2606 107.771 100.224Z" fill="#191721"/>
<path d="M72.5885 185.69C72.5885 185.69 63.4891 202.324 52.6498 195.234C41.8106 188.145 53.472 173.167 53.472 173.167L72.5885 185.69Z" fill="#DD6A57"/>
<path d="M53.0655 173.76L72.1802 186.317L145.402 74.9274L126.288 62.3704L53.0655 173.76Z" fill="#F9E4B0"/>
<path opacity="0.1" d="M53.0655 173.76L72.1802 186.317L145.402 74.9274L126.288 62.3704L53.0655 173.76Z" fill="black"/>
<path d="M51.0649 173.306L73.3838 187.968L76.2932 183.542L53.9743 168.88L51.0649 173.306Z" fill="#28222C"/>
<path d="M54.2875 168.415L76.6064 183.077L79.5158 178.651L57.1969 163.989L54.2875 168.415Z" fill="#28222C"/>
<path d="M126.292 62.3705L142.504 53.3722L147.844 50.3791L147.258 56.4905L145.411 74.9666L141.648 76.4737C141.648 76.4737 141.598 72.5014 141.583 72.4554L137.82 73.9559C137.82 73.9559 137.77 69.9836 137.755 69.9377L134.04 71.4698C134.04 71.4698 133.917 67.4997 133.915 67.4269L130.199 68.9591C130.199 68.9591 130.076 64.989 130.074 64.9096L126.417 66.4134C126.417 66.4134 126.294 62.4367 126.292 62.3705Z" fill="#EBEBEB"/>
<path d="M142.504 53.3457L147.844 50.3527L147.251 56.4643L142.504 53.3457Z" fill="#5E5C76"/>
<g opacity="0.1">
<path opacity="0.1" d="M78.8262 166.277C83.3402 159.131 87.906 152.013 92.5234 144.925L106.39 123.68L120.391 102.524L127.446 91.9803L134.568 81.4811L127.75 92.1828L120.871 102.84L106.998 124.085L92.9901 145.235C88.3049 152.272 83.5836 159.287 78.8262 166.277Z" fill="black"/>
<path opacity="0.1" d="M73.5562 163.4C78.0744 156.244 82.6401 149.127 87.2534 142.048L101.119 120.796L115.128 99.6462L122.182 89.1027L129.298 78.6038L122.487 89.2987L115.601 99.9561L101.735 121.208L87.7268 142.358C83.0369 149.391 78.3134 156.405 73.5562 163.4Z" fill="black"/>
<path opacity="0.1" d="M68.2864 148.523C72.8003 141.372 77.366 134.252 81.9834 127.164L95.8496 105.919L109.858 84.769L116.913 74.2256L124.055 63.7192L117.243 74.4207L110.358 85.0781L96.4981 106.323L82.49 127.479C77.7649 134.514 73.0595 141.54 68.2864 148.523Z" fill="black"/>
</g>
<path d="M136.274 91.224C136.718 94.0384 138.774 97.9752 138.422 100.066C138.354 100.583 138.121 101.065 137.758 101.44C137.395 101.815 136.921 102.064 136.406 102.148C136.406 102.148 138.125 103.744 137.492 105.585C137.171 106.536 135.365 106.85 135.365 106.85C135.736 107.232 135.994 107.71 136.111 108.23C136.227 108.75 136.198 109.292 136.026 109.796C135.502 111.071 133.777 111.19 133.777 111.19C133.777 111.19 134.444 113.064 133.492 114.2C131.575 116.491 120.156 113.148 119.626 108.435C119.379 106.237 122.119 107.206 122.119 107.206C122.119 107.206 118.515 104.86 119.144 102.496C119.774 100.132 123.258 101.601 123.258 101.601C123.258 101.601 119.788 99.297 120.688 96.9113C121.588 94.5256 124.856 96.4977 124.856 96.4977C124.856 96.4977 122.792 94.0381 123.933 92.3669C125.762 89.6081 129.442 94.846 132.123 94.9685L134.717 91.2456L136.274 91.224Z" fill="#D4A29E"/>
<path d="M137.505 95.4843C137.309 92.7815 141.212 90.6607 141.403 88.0784C141.659 84.547 136.962 86.7055 134.718 91.2852L133.599 95.148L137.505 95.4843Z" fill="#D4A29E"/>
<path d="M133.507 111.272C133.547 111.27 133.509 111.338 133.509 111.331C129.332 111.153 125.309 109.709 121.973 107.19C121.871 107.108 121.964 106.899 122.092 106.968C125.668 108.948 129.513 110.398 133.507 111.272Z" fill="#C18C88"/>
<path d="M135.419 106.888C135.459 106.886 135.422 106.974 135.422 106.974C130.809 106.733 126.435 104.847 123.094 101.659C122.984 101.543 122.997 101.324 123.133 101.445C125.496 103.512 131.652 106.13 135.419 106.888Z" fill="#C18C88"/>
<path d="M124.687 96.185C127.975 99.2625 131.924 100.969 136.227 102.147C136.286 102.145 136.229 102.24 136.229 102.24C133.97 102.237 131.301 101.2 129.297 100.222C127.418 99.3448 125.801 97.9931 124.604 96.3001C124.536 96.2294 124.625 96.114 124.687 96.185Z" fill="#C18C88"/>
<path d="M146.721 296.226C145.22 296.762 101.935 297.537 100.267 296.522C99.5931 296.145 99.1468 289.847 98.7853 282.222L98.778 281.984C98.7293 280.409 98.6263 278.789 98.5756 277.148C98.5686 276.923 98.5617 276.698 98.5551 276.487C98.1552 265.471 97.9809 254.039 97.9809 254.039L126.934 253.435L126.748 275.695L126.742 276.576L126.712 281.18L126.726 281.657C126.726 281.657 143.429 288.764 145.14 290.075C146.85 291.387 148.222 295.696 146.721 296.226Z" fill="#D4A29E"/>
<path d="M146.721 296.226C145.22 296.762 101.935 297.536 100.267 296.522C99.5931 296.145 99.1468 289.847 98.7854 282.222L98.778 281.983C98.7293 280.409 98.6263 278.789 98.5756 277.148C98.5687 276.923 98.5617 276.698 98.5552 276.487L126.748 275.695L126.742 276.576L126.712 281.18L126.726 281.657C126.726 281.657 143.43 288.764 145.14 290.075C146.85 291.387 148.222 295.696 146.721 296.226Z" fill="#EBEBEB"/>
<path d="M146.721 296.226C145.79 296.559 129.028 296.978 115.891 297.013C107.69 297.041 100.909 296.913 100.267 296.522C99.6256 296.131 99.1587 290.026 98.8016 282.539C98.7983 282.433 98.795 282.327 98.7917 282.222C98.7885 282.116 98.7866 282.056 98.7842 281.977L126.704 281.167L126.719 281.644C126.719 281.644 143.422 288.751 145.132 290.062C146.842 291.374 148.221 295.696 146.721 296.226Z" fill="#F9E4B0"/>
<path d="M146.199 294.56C138.91 294.507 109.457 295.032 102.23 295.507C102.177 295.509 102.179 295.555 102.232 295.554C109.466 295.761 138.913 295.03 146.203 294.679C146.355 294.667 146.352 294.562 146.199 294.56Z" fill="#191721"/>
<path d="M129.806 281.191C126.922 280.71 123.42 281.209 121.258 283.296C121.175 283.378 121.264 283.494 121.383 283.464C124.109 282.53 126.928 281.89 129.791 281.555C129.834 281.549 129.874 281.529 129.903 281.496C129.932 281.464 129.95 281.423 129.951 281.379C129.953 281.336 129.94 281.293 129.913 281.258C129.886 281.224 129.849 281.2 129.806 281.191Z" fill="#191721"/>
<path d="M131.897 282.404C129.02 281.917 125.518 282.422 123.35 284.509C123.266 284.585 123.356 284.708 123.474 284.678C126.202 283.741 129.023 283.101 131.889 282.769C131.932 282.762 131.971 282.74 131.999 282.708C132.028 282.675 132.044 282.633 132.045 282.59C132.046 282.547 132.032 282.504 132.005 282.47C131.978 282.436 131.94 282.413 131.897 282.404Z" fill="#191721"/>
<path d="M133.995 283.618C131.111 283.131 127.609 283.636 125.447 285.716C125.363 285.798 125.453 285.915 125.572 285.885C128.299 284.953 131.117 284.313 133.98 283.976C134.027 283.978 134.073 283.961 134.109 283.929C134.144 283.897 134.164 283.852 134.166 283.804C134.168 283.757 134.152 283.711 134.119 283.676C134.087 283.641 134.043 283.62 133.995 283.618Z" fill="#191721"/>
<path d="M133.427 274.866C132.273 273.332 130.182 274.066 129.002 275.096C127.009 276.9 125.524 279.195 124.696 281.752C124.692 281.763 124.69 281.775 124.692 281.787C124.694 281.798 124.698 281.809 124.705 281.819C124.712 281.829 124.721 281.836 124.731 281.842C124.742 281.847 124.753 281.85 124.765 281.85C124.772 282.068 124.978 282.3 125.226 282.2C127.576 281.286 130.212 280.589 132.216 278.977C133.386 278.033 134.518 276.316 133.427 274.866ZM128.506 280.078C127.362 280.557 126.195 280.978 125.066 281.509C125.861 280.195 126.721 278.922 127.644 277.694C128.102 277.102 128.601 276.542 129.136 276.019C129.973 275.231 133.326 273.518 132.88 276.671C132.655 278.394 129.873 279.506 128.506 280.078Z" fill="#191721"/>
<path d="M117.389 281.13C119.77 282.097 122.49 281.999 125.015 282.219C125.273 282.211 125.398 281.963 125.345 281.746C125.356 281.742 125.365 281.736 125.374 281.727C125.382 281.719 125.388 281.71 125.393 281.699C125.397 281.688 125.398 281.676 125.397 281.665C125.397 281.653 125.393 281.642 125.387 281.632C123.853 279.429 121.768 277.666 119.34 276.52C117.909 275.902 115.699 275.778 115.033 277.58C114.366 279.383 115.993 280.571 117.389 281.13ZM116.054 279.105C114.706 276.213 118.41 276.887 119.446 277.398C120.109 277.746 120.747 278.138 121.357 278.57C122.607 279.477 123.809 280.448 124.959 281.479C123.728 281.305 122.487 281.244 121.251 281.117C119.795 280.963 116.792 280.679 116.054 279.105Z" fill="#191721"/>
<path d="M115.891 297.013C107.69 297.041 100.909 296.912 100.267 296.522C99.6258 296.131 99.1589 290.025 98.8018 282.539C102.257 285.433 110.833 292.619 115.891 297.013Z" fill="#191721"/>
<path d="M85.4209 129.699C85.4209 129.699 94.1845 202.561 95.4034 208.134C95.6875 209.396 96.0532 216.3 96.4268 225.176C97.2504 244.544 98.1913 282.293 98.1913 282.293L128.691 281.351C128.691 281.351 125.92 218.033 124.226 206.932C122.531 195.831 111.824 128.884 111.824 128.884L85.4209 129.699Z" fill="#352D3A"/>
<path d="M127.15 276.08C122.388 276.128 123.75 276.053 118.99 276.153C116.66 276.225 101.346 276.539 99.1858 276.964C99.1758 276.968 99.1672 276.975 99.1613 276.984C99.1554 276.993 99.1525 277.004 99.1528 277.014C99.1531 277.025 99.1568 277.036 99.1632 277.044C99.1697 277.053 99.1786 277.06 99.1889 277.063C101.378 277.36 116.676 276.748 119.006 276.656C123.763 276.463 122.398 276.465 127.154 276.219C127.24 276.216 127.236 276.084 127.15 276.08Z" fill="#191721"/>
<path d="M102.762 239.386C102.595 234.976 102.425 230.555 102.253 226.122C102.087 221.836 101.987 217.521 101.624 213.28C100.946 204.624 98.9219 196.143 97.4068 187.633C95.8917 179.122 94.5852 170.5 93.3729 161.927C92.0155 152.299 90.79 142.654 89.4852 133.018C89.4834 132.958 89.3775 132.961 89.386 133.021C91.3554 150.233 93.4903 167.44 96.4097 184.524C97.1374 188.776 97.9308 193.014 98.7901 197.24C99.6314 201.526 100.472 205.798 100.945 210.148C101.417 214.498 101.599 218.672 101.77 222.938C101.955 227.348 102.136 231.758 102.312 236.168C102.714 245.978 103.267 263.889 103.663 273.706C103.669 273.891 103.967 273.875 103.961 273.697C103.586 264.992 103.099 248.145 102.762 239.386Z" fill="#191721"/>
<path d="M78.9871 129.898C78.9871 129.898 94.1843 202.561 95.4032 208.134C95.6874 209.396 96.053 216.3 96.4266 225.176L108.03 128.974L78.9871 129.898Z" fill="#28222C"/>
<path d="M110.906 299.915C109.369 300.34 66.1418 298.053 64.5498 296.916C63.9406 296.498 63.9044 290.181 64.1058 282.545C64.1033 282.465 64.1009 282.386 64.0984 282.306C64.136 280.736 64.1786 279.112 64.2406 277.474C64.2337 277.249 64.2267 277.024 64.2599 276.811C64.6418 265.798 65.2762 254.38 65.2762 254.38L94.1938 255.831L92.4344 278.014L92.3689 278.896L92.0074 283.491L91.9755 283.962C91.9755 283.962 108.132 292.239 109.746 293.666C111.36 295.093 112.417 299.491 110.906 299.915Z" fill="#D4A29E"/>
<path d="M110.906 299.915C109.369 300.34 66.1414 298.053 64.5493 296.916C63.9402 296.498 63.904 290.181 64.1054 282.545C64.1029 282.465 64.1004 282.386 64.098 282.306C64.1356 280.736 64.1782 279.112 64.2402 277.474C64.2333 277.249 64.2263 277.024 64.2595 276.811L92.434 278.014L92.3685 278.896L92.0069 283.491L91.9751 283.962C91.9751 283.962 108.131 292.239 109.746 293.666C111.36 295.093 112.417 299.491 110.906 299.915Z" fill="#EBEBEB"/>
<path d="M110.906 299.915C109.369 300.34 66.1414 298.053 64.5493 296.916C63.9401 296.498 63.904 290.181 64.1053 282.545C64.1029 282.465 64.1004 282.386 64.098 282.306L92.0065 283.478L91.9747 283.949C91.9747 283.949 108.131 292.225 109.745 293.652C111.359 295.08 112.417 299.491 110.906 299.915Z" fill="#F9E4B0"/>
<path d="M110.509 298.212C103.204 297.65 73.8243 296.034 66.5833 296.046C66.5237 296.047 66.5249 296.087 66.5847 296.092C73.782 296.81 103.207 298.166 110.5 298.332C110.659 298.333 110.662 298.221 110.509 298.212Z" fill="#191721"/>
<path d="M95.1014 283.72C92.2645 283.032 88.7345 283.287 86.4288 285.213C86.345 285.288 86.4349 285.411 86.5468 285.388C89.3339 284.649 92.1922 284.21 95.0728 284.078C95.1136 284.072 95.1509 284.051 95.1789 284.021C95.2069 283.99 95.2239 283.951 95.2272 283.91C95.2305 283.869 95.2199 283.828 95.1971 283.793C95.1743 283.759 95.1406 283.733 95.1014 283.72Z" fill="#191721"/>
<path d="M97.1045 285.075C94.2675 284.388 90.7365 284.61 88.4384 286.568C88.348 286.644 88.4445 286.767 88.5498 286.744C91.3372 286.006 94.1956 285.569 97.076 285.44C97.1201 285.437 97.1615 285.418 97.1927 285.387C97.224 285.355 97.2431 285.314 97.2465 285.27C97.2499 285.226 97.2375 285.182 97.2115 285.146C97.1854 285.111 97.1475 285.085 97.1045 285.075Z" fill="#191721"/>
<path d="M99.1076 286.431C96.2707 285.743 92.7407 285.998 90.4416 287.924C90.3512 287.999 90.4479 288.129 90.553 288.099C93.3405 287.362 96.1988 286.926 99.0792 286.796C99.1232 286.792 99.1646 286.773 99.1959 286.742C99.2272 286.711 99.2462 286.67 99.2497 286.625C99.2531 286.581 99.2407 286.538 99.2146 286.502C99.1886 286.466 99.1506 286.441 99.1076 286.431Z" fill="#191721"/>
<path d="M99.1546 277.667C98.1109 276.05 95.9759 276.639 94.7262 277.578C92.6091 279.235 90.9652 281.419 89.9596 283.912C89.9546 283.923 89.9524 283.935 89.953 283.948C89.9537 283.96 89.9572 283.972 89.9634 283.983C89.9695 283.994 89.978 284.003 89.9883 284.01C89.9986 284.016 90.0104 284.021 90.0226 284.022C90.0173 284.078 90.0251 284.134 90.0455 284.187C90.0659 284.239 90.0983 284.286 90.1401 284.323C90.1819 284.36 90.2319 284.387 90.286 284.402C90.3402 284.416 90.397 284.418 90.4519 284.406C92.8672 283.669 95.541 283.15 97.6554 281.68C98.8943 280.821 100.15 279.206 99.1546 277.667ZM93.8784 282.519C92.7047 282.913 91.5095 283.254 90.3504 283.694C91.2409 282.433 92.1963 281.218 93.2127 280.056C93.7121 279.499 94.2494 278.978 94.8208 278.496C95.7126 277.766 99.1785 276.295 98.5062 279.409C98.1419 281.129 95.3145 282.037 93.8851 282.519L93.8784 282.519Z" fill="#191721"/>
<path d="M82.7493 282.777C85.0634 283.911 87.7827 284.005 90.2787 284.379C90.5382 284.417 90.6825 284.154 90.6493 283.937C90.6611 283.934 90.672 283.929 90.6811 283.921C90.6902 283.913 90.6972 283.903 90.7014 283.891C90.7057 283.88 90.7071 283.868 90.7054 283.856C90.7038 283.844 90.6992 283.833 90.6921 283.823C89.3211 281.511 87.3656 279.6 85.022 278.282C83.6741 277.542 81.4468 277.287 80.6595 279.04C79.8723 280.793 81.4038 282.116 82.7493 282.777ZM81.5645 280.667C80.4255 277.682 84.0779 278.603 85.0713 279.234C85.7067 279.615 86.3153 280.039 86.8927 280.503C88.0848 281.495 89.2231 282.55 90.3029 283.663C89.0891 283.402 87.8586 283.248 86.633 283.034C85.1145 282.777 82.1585 282.311 81.5314 280.668L81.5645 280.667Z" fill="#191721"/>
<path d="M93.1865 283.057L62.6996 282.707C62.6996 282.707 68.4038 213.862 68.4291 209.748C68.5035 199.076 73.4598 130.042 73.4598 130.042L110.678 128.892C110.678 128.892 108.819 144.845 105.113 155.047C102.456 156.078 99.8989 157.348 97.4715 158.84C97.4715 158.84 96.7333 207 96.7763 212.681C96.8315 223.906 93.1865 283.057 93.1865 283.057Z" fill="#352D3A"/>
<path d="M92.1998 277.497C87.4448 277.346 88.8089 277.324 84.0488 277.219C81.7218 277.172 66.408 276.864 64.2256 277.203C64.1792 277.204 64.1753 277.29 64.2284 277.295C66.4069 277.685 81.719 277.722 84.0513 277.729C88.815 277.734 87.442 277.684 92.2041 277.636C92.2151 277.639 92.2266 277.64 92.2378 277.638C92.249 277.635 92.2596 277.631 92.2686 277.624C92.2775 277.617 92.2848 277.607 92.2896 277.597C92.2944 277.587 92.2968 277.575 92.2964 277.564C92.2961 277.553 92.293 277.541 92.2876 277.531C92.2821 277.521 92.2743 277.513 92.2649 277.506C92.2555 277.5 92.2447 277.496 92.2334 277.494C92.2221 277.493 92.2106 277.494 92.1998 277.497Z" fill="#191721"/>
<path d="M76.313 134.041C75.4716 151.413 74.5839 168.786 73.5369 186.151C72.49 203.516 67.9749 263.456 66.7895 273.123C66.7915 273.189 66.8784 273.213 66.8887 273.12C69.4313 255.914 70.5081 232.865 71.9004 215.529C73.2928 198.193 74.3199 180.829 75.1815 163.469C75.6731 153.645 76.085 143.817 76.5302 133.994C76.5401 133.888 76.3219 133.901 76.313 134.041Z" fill="#191721"/>
<path d="M106.421 154.318C103.313 155.563 100.318 157.076 97.4712 158.84C97.447 158.852 97.4286 158.873 97.4201 158.899C97.4116 158.925 97.4136 158.953 97.4258 158.977C97.4379 159.001 97.4592 159.02 97.485 159.028C97.5107 159.037 97.5388 159.035 97.563 159.022C100.593 157.604 103.685 156.257 106.631 154.676C106.679 154.648 106.713 154.602 106.727 154.549C106.741 154.496 106.733 154.439 106.705 154.392C106.677 154.344 106.632 154.31 106.579 154.296C106.525 154.282 106.469 154.29 106.421 154.318Z" fill="#191721"/>
<path d="M106.75 133.226C106.747 133.12 106.548 133.1 106.552 133.232C106.659 136.657 106.595 140.085 106.359 143.504C106.262 145.09 105.261 153.87 102.495 153.32C102.035 153.221 101.816 152.778 101.695 152.093C101.677 151.187 101.771 150.284 101.976 149.402C102.224 147.559 102.412 145.719 102.508 143.868C102.724 140.416 102.581 136.952 102.082 133.529C102.076 133.51 102.064 133.493 102.047 133.481C102.031 133.469 102.011 133.463 101.991 133.464C101.97 133.465 101.951 133.472 101.935 133.485C101.919 133.497 101.908 133.515 101.903 133.535C102.131 138.302 102 143.079 101.51 147.826C101.236 150.113 100.197 153.57 102.584 153.847C104.971 154.124 106.389 148.351 106.652 146.773C107.272 142.281 107.305 137.727 106.75 133.226Z" fill="#191721"/>
<path d="M102.608 153.528C102.384 154.127 102.197 154.739 102.048 155.36C101.884 155.841 101.815 156.349 101.843 156.857C101.845 156.949 101.978 156.959 102.029 156.891C102.307 156.434 102.515 155.939 102.646 155.421C102.834 154.852 103.035 154.29 103.21 153.722C103.236 153.642 103.228 153.555 103.19 153.48C103.152 153.406 103.085 153.35 103.005 153.324C102.926 153.298 102.839 153.305 102.764 153.344C102.69 153.382 102.633 153.448 102.608 153.528Z" fill="#191721"/>
<path d="M71.587 142.989C71.6898 143.098 115.354 140.663 115.731 140.188C116.246 139.51 102.993 95.0338 99.6171 88.4752C98.2058 85.6841 91.1284 85.2007 88.3329 87.784C81.2452 94.2619 76.1416 115.422 75.0393 121.774C73.1838 132.27 71.1983 142.63 71.587 142.989Z" fill="#F9E4B0"/>
<path d="M93.6815 101.786C93.8867 102.229 94.0262 102.7 94.0957 103.184C93.4862 102.428 93.0819 101.528 92.9218 100.571C93.2313 100.938 93.4871 101.347 93.6815 101.786ZM97.6934 118.63C97.7663 119.113 97.9057 119.584 98.1076 120.028C98.2994 120.477 98.5556 120.895 98.8681 121.27C98.7955 120.789 98.6562 120.321 98.4541 119.878C98.2594 119.429 98.0034 119.009 97.6934 118.63ZM102.396 138.315C102.468 138.796 102.608 139.264 102.81 139.706C103.002 140.157 103.258 140.577 103.571 140.954C103.413 139.996 103.008 139.095 102.397 138.341L102.396 138.315ZM82.5283 114.131C82.5947 114.616 82.7344 115.087 82.9425 115.529C83.1321 115.978 83.3861 116.396 83.6964 116.771C83.5374 115.815 83.1355 114.915 82.5292 114.158L82.5283 114.131ZM76.0112 126.851C76.1702 127.807 76.5721 128.707 77.1784 129.464C77.1112 128.98 76.9739 128.509 76.7709 128.066C76.5745 127.628 76.3189 127.219 76.0112 126.851ZM93.1056 134.184C93.2646 135.141 93.6665 136.041 94.2728 136.797C94.2066 136.315 94.067 135.846 93.8588 135.406C93.6674 134.965 93.4137 134.553 93.1056 134.184ZM106.306 111.125C106.376 111.609 106.516 112.079 106.72 112.523C106.91 112.971 107.164 113.39 107.474 113.765C107.407 113.281 107.27 112.81 107.067 112.367C106.881 111.921 106.634 111.503 106.333 111.124L106.306 111.125ZM87.5843 108.584C88.0659 108.515 88.5348 108.375 88.976 108.17C89.4267 107.981 89.8473 107.727 90.2248 107.416C89.7404 107.483 89.2688 107.622 88.8264 107.83C88.3872 108.022 87.9778 108.275 87.6108 108.583L87.5843 108.584ZM83.4378 124.482C83.921 124.41 84.3918 124.271 84.8361 124.068C85.2855 123.873 85.7057 123.617 86.0847 123.307C85.127 123.467 84.2267 123.872 83.4708 124.481L83.4378 124.482ZM85.3135 142.306L86.0879 142.283L86.3822 142.161C86.8316 141.966 87.2518 141.71 87.6308 141.4C86.8019 141.542 86.0123 141.858 85.3141 142.326L85.3135 142.306ZM101.803 127.484C102.761 127.327 103.662 126.922 104.417 126.311C103.458 126.468 102.557 126.873 101.803 127.484ZM87.7614 94.8024C88.7199 94.6449 89.6208 94.2404 90.3753 93.6288C89.4168 93.7863 88.5159 94.1908 87.7614 94.8024ZM83.8232 97.07C83.5339 97.4628 83.2997 97.8935 83.1273 98.3498C82.9447 98.802 82.8299 99.2787 82.7868 99.7645C83.0809 99.3747 83.3154 98.9433 83.4826 98.4846C83.6677 98.0341 83.7891 97.56 83.8433 97.076L83.8232 97.07ZM77.719 117.366C77.4249 117.756 77.1903 118.188 77.0231 118.646C76.8414 119.099 76.7245 119.576 76.6759 120.061C76.9672 119.67 77.2015 119.239 77.3718 118.781C77.5585 118.331 77.6821 117.857 77.7391 117.372L77.719 117.366ZM77.9876 135.711C77.6997 136.105 77.4657 136.535 77.2917 136.991C77.1136 137.444 76.999 137.92 76.9512 138.405C77.2453 138.016 77.4798 137.584 77.647 137.126C77.8329 136.675 77.9543 136.201 78.0076 135.717L77.9876 135.711ZM99.0992 109.023C98.8113 109.418 98.5794 109.851 98.4102 110.309C98.2253 110.761 98.1083 111.238 98.063 111.724C98.3543 111.333 98.5886 110.902 98.7589 110.444C98.9407 109.99 99.0553 109.511 99.0992 109.023ZM92.5369 125.426C91.963 126.214 91.6055 127.138 91.5 128.107C91.7865 127.713 92.0204 127.282 92.1959 126.827C92.3729 126.378 92.4877 125.907 92.5369 125.426ZM109.725 132.359C109.431 132.749 109.196 133.181 109.029 133.639C108.847 134.092 108.73 134.568 108.682 135.054C108.976 134.664 109.211 134.233 109.378 133.774C109.558 133.321 109.675 132.845 109.725 132.359ZM98.4725 94.955C98.1829 95.3465 97.9508 95.7774 97.7833 96.2347C97.5984 96.6866 97.4814 97.1634 97.4361 97.6495C98.01 96.8616 98.3674 95.9371 98.4729 94.9682L98.4725 94.955ZM104.071 104.598C103.678 104.308 103.247 104.074 102.79 103.902C102.338 103.719 101.861 103.605 101.375 103.562C101.766 103.854 102.197 104.088 102.656 104.257C103.117 104.425 103.6 104.529 104.089 104.564L104.071 104.598ZM86.1411 133.068C85.7494 132.777 85.3183 132.543 84.8608 132.372C84.4073 132.192 83.931 132.075 83.4455 132.025C84.2353 132.597 85.159 132.957 86.1279 133.068L86.1411 133.068ZM109.455 121.042C108.667 120.468 107.742 120.111 106.773 120.006C107.167 120.292 107.598 120.526 108.053 120.701C108.502 120.878 108.974 120.993 109.455 121.042ZM79.1111 105.812C79.4489 106.035 79.81 106.219 80.1881 106.362C80.6412 106.544 81.1176 106.66 81.6034 106.709C81.2126 106.416 80.7813 106.182 80.3231 106.013C79.9446 105.864 79.5501 105.758 79.1473 105.699C79.1323 105.736 79.1202 105.774 79.1111 105.812ZM99.6883 133.239C99.2966 132.948 98.8656 132.714 98.4081 132.543C97.9554 132.36 97.4788 132.243 96.9928 132.196C97.3827 132.49 97.8142 132.725 98.2731 132.892C98.7261 133.074 99.2026 133.191 99.6883 133.239ZM93.3429 115.274C92.9512 114.983 92.5201 114.749 92.0626 114.579C91.61 114.396 91.1333 114.279 90.6474 114.232C91.0373 114.526 91.4687 114.76 91.9276 114.927C92.3807 115.109 92.8572 115.226 93.3429 115.274Z" fill="white"/>
<path d="M97.5902 94.9226C95.1005 95.3969 90.5159 91.1076 88.9819 87.9891C88.8758 87.7739 89.2984 85.5818 89.6793 82.9009C89.9072 81.2712 90.1226 79.4498 90.1834 77.7722C90.1728 77.4282 91.3401 78.114 91.3401 78.114L93.4786 78.7103L100.572 80.7695C99.8807 82.8373 99.4441 84.9814 99.2716 87.1547C99.2597 87.3754 99.2665 87.5968 99.292 87.8163C99.293 87.8494 99.2943 87.8891 99.2957 87.9354C99.4902 89.3004 99.9943 94.4642 97.5902 94.9226Z" fill="#D4A29E"/>
<path d="M99.3269 87.8682C99.3279 87.9013 99.3292 87.941 99.3306 87.9873C98.9725 88.0275 98.6116 88.0386 98.2517 88.0206C91.1821 87.5767 90.6704 78.5188 90.6704 78.5188L93.4606 78.7638L100.554 80.823C99.8627 82.8908 99.4261 85.0349 99.2535 87.2081C99.2592 87.4298 99.2838 87.6507 99.3269 87.8682Z" fill="#C18C88"/>
<path d="M88.9287 66.5383C87.8187 70.2816 89.8734 81.0337 92.5441 83.415C96.4204 86.8652 102.716 87.1475 105.64 82.5005C108.47 78.002 105.547 64.0314 102.565 61.8716C98.181 58.7153 90.567 61.0236 88.9287 66.5383Z" fill="#D4A29E"/>
<path d="M99.5902 73.4481C99.5902 73.4481 99.5386 73.4961 99.5461 73.5223C99.7076 74.2459 99.767 75.0984 99.1553 75.4551C99.1553 75.4551 99.1569 75.508 99.1565 75.4948C99.9496 75.2186 99.8557 74.1088 99.5902 73.4481Z" fill="#191721"/>
<path d="M98.7888 72.8106C97.6069 72.9398 97.9512 75.2936 99.0475 75.1803C100.144 75.0669 99.7926 72.7067 98.7888 72.8106Z" fill="#191721"/>
<path d="M103.715 72.7114C103.715 72.7114 103.775 72.7096 103.776 72.7625C103.865 73.4949 104.083 74.3227 104.776 74.4669L104.778 74.5132C103.956 74.5121 103.677 73.4146 103.715 72.7114Z" fill="#191721"/>
<path d="M104.251 71.8537C105.416 71.5925 105.853 73.9302 104.774 74.1755C103.695 74.4208 103.284 72.069 104.251 71.8537Z" fill="#191721"/>
<path d="M97.7194 71.87C98.0143 71.7334 98.3015 71.5808 98.5798 71.4129C98.9073 71.2979 99.1872 71.0772 99.3753 70.7856C99.4181 70.683 99.4252 70.5689 99.3955 70.4618C99.3658 70.3546 99.3009 70.2605 99.2113 70.1946C99.0165 70.0869 98.7963 70.0337 98.5738 70.0406C98.3513 70.0475 98.1348 70.1142 97.9471 70.2336C97.5299 70.4176 97.1972 70.7518 97.0153 71.1698C96.9743 71.2681 96.9636 71.3764 96.9844 71.4808C97.0052 71.5853 97.0566 71.6811 97.1321 71.7563C97.2076 71.8314 97.3038 71.8823 97.4084 71.9025C97.513 71.9228 97.6212 71.9115 97.7194 71.87Z" fill="#191721"/>
<path d="M104.992 70.5326C104.666 70.5275 104.34 70.5022 104.016 70.4568C103.669 70.4706 103.327 70.3668 103.046 70.1622C102.969 70.0815 102.921 69.9769 102.91 69.8654C102.899 69.7539 102.927 69.6421 102.988 69.5481C103.132 69.3795 103.319 69.2527 103.528 69.181C103.738 69.1093 103.964 69.0952 104.181 69.1403C104.636 69.1596 105.068 69.3496 105.39 69.6726C105.449 69.7501 105.486 69.8422 105.496 69.939C105.507 70.0358 105.491 70.1337 105.45 70.2221C105.409 70.3105 105.345 70.3861 105.264 70.4408C105.184 70.4955 105.09 70.5272 104.992 70.5326Z" fill="#191721"/>
<path d="M99.5834 80.0847C99.7867 80.2308 99.9918 80.4364 100.256 80.4216C100.525 80.3771 100.782 80.2766 101.009 80.1268C101.009 80.1268 101.062 80.1251 101.05 80.1586C100.966 80.3175 100.841 80.4508 100.688 80.5442C100.534 80.6375 100.358 80.6876 100.179 80.6889C100.022 80.6737 99.8737 80.6121 99.7526 80.512C99.6314 80.4119 99.543 80.2778 99.4986 80.1271C99.493 80.1158 99.4921 80.1028 99.4961 80.0909C99.5 80.079 99.5086 80.0691 99.5198 80.0635C99.5311 80.0579 99.5441 80.057 99.556 80.0609C99.568 80.0649 99.5778 80.0735 99.5834 80.0847Z" fill="#C18C88"/>
<path d="M100.036 77.7858C100.262 78.0476 100.54 78.2596 100.853 78.4084C101.165 78.5572 101.505 78.6396 101.851 78.6503C102.153 78.6644 102.456 78.6349 102.75 78.563C102.808 78.555 102.866 78.5399 102.92 78.518L103.078 78.4667C103.115 78.4539 103.147 78.429 103.169 78.396C103.191 78.363 103.201 78.3236 103.198 78.2842C103.201 78.2599 103.2 78.2355 103.196 78.2114L103.194 78.1453C103.13 77.5843 102.952 76.7354 102.952 76.7354C103.172 76.808 104.289 77.1312 104.227 76.8351C103.795 74.3127 103.103 71.8416 102.164 69.461C102.159 69.4479 102.15 69.4366 102.139 69.4288C102.127 69.421 102.113 69.417 102.099 69.4174C102.085 69.4179 102.072 69.4227 102.061 69.4312C102.05 69.4397 102.042 69.4515 102.038 69.4649C102.421 71.7976 103.22 74.0646 103.65 76.3827C103.252 76.2665 102.839 76.2057 102.425 76.2019C102.347 76.2375 102.8 77.8329 102.808 78.0843C102.358 78.1949 101.891 78.2147 101.434 78.1424C100.976 78.0701 100.538 77.9072 100.145 77.6632C100.032 77.6799 99.9812 77.7345 100.036 77.7858Z" fill="#C18C88"/>
<path d="M102.378 78.3228C102.128 78.7688 101.768 79.1428 101.331 79.4082C101.092 79.5507 100.812 79.6106 100.535 79.5785C99.93 79.5111 99.8538 78.977 99.879 78.506C99.9 78.2538 99.9524 78.0052 100.035 77.766C100.736 78.1969 101.557 78.3921 102.378 78.3228Z" fill="#191721"/>
<path d="M101.331 79.4082C101.092 79.5507 100.812 79.6105 100.535 79.5785C99.9299 79.5111 99.8537 78.9769 99.8789 78.5059C100.187 78.4719 100.498 78.5424 100.761 78.706C101.024 78.8696 101.225 79.1169 101.331 79.4082Z" fill="#FF98B9"/>
<path d="M104.823 66.5573C101.441 69.2515 96.3099 65.9196 96.3099 65.9196C96.0626 66.7183 95.5638 67.4158 94.8878 67.9081C94.2117 68.4004 93.3947 68.6612 92.5583 68.6516C92.5583 68.6516 92.2953 74.72 90.7086 74.8286C88.2887 74.9894 86.9435 66.8315 87.5942 65.1623C88.245 63.493 90.2616 62.9339 90.2616 62.9339C90.4158 61.9391 90.9421 61.0398 91.7342 60.418C93.2885 59.0454 99.1184 60.3224 99.1184 60.3224C99.3878 59.5377 99.8379 58.8273 100.432 58.2485C100.575 58.105 100.746 57.992 100.933 57.916C101.121 57.84 101.322 57.8028 101.525 57.8064C101.727 57.81 101.927 57.8545 102.111 57.9372C102.296 58.0199 102.462 58.139 102.6 58.2875C102.331 58.7538 102.17 59.275 102.13 59.812C101.974 61.5985 103.408 61.4946 103.279 59.8958C103.257 59.2948 103.015 58.7227 102.6 58.2875C103.229 57.1951 104.368 56.7691 105.119 57.2758C106.466 58.2011 107.636 64.3179 104.823 66.5573Z" fill="#28222C"/>
<path d="M91.2996 75.3004C91.2996 75.3004 88.7693 71.8882 87.2134 72.7774C85.6574 73.6666 87.6278 78.6857 89.5027 79.3298C89.7373 79.4279 89.9893 79.4776 90.2436 79.4758C90.4979 79.4741 90.7492 79.4211 90.9824 79.3198C91.2156 79.2186 91.426 79.0713 91.6009 78.8868C91.7758 78.7022 91.9116 78.4843 92.0001 78.246L91.2996 75.3004Z" fill="#D4A29E"/>
<path d="M87.8144 74.2159C87.7813 74.2169 87.7825 74.2566 87.816 74.2688C89.1561 74.7573 89.8552 75.9411 90.3704 77.177C90.2896 77.05 90.1825 76.9418 90.0563 76.8598C89.9301 76.7777 89.7877 76.7237 89.6388 76.7013C89.4899 76.6789 89.338 76.6887 89.1932 76.73C89.0485 76.7713 88.9142 76.8431 88.7996 76.9407C88.7665 76.9417 88.8018 77.0135 88.8413 77.0056C89.0673 76.9265 89.3124 76.9197 89.5424 76.9862C89.7724 77.0527 89.976 77.1891 90.1249 77.3766C90.3753 77.6897 90.5902 78.0296 90.7657 78.39C90.8289 78.5073 91.0389 78.4412 90.9949 78.3035C90.956 76.6158 89.6002 74.3329 87.8144 74.2159Z" fill="#C18C88"/>
<path d="M102.149 175.783L84.6448 158.62L114.847 144.182L132.351 161.345L102.149 175.783Z" fill="#EBEBEB"/>
<path d="M103.351 176.958L85.8406 159.795L116.043 145.357L133.554 162.52L103.351 176.958Z" fill="#D6CFBF"/>
<path d="M117.901 147.181C117.652 147.317 117.379 147.403 117.097 147.433C116.815 147.463 116.529 147.438 116.257 147.358C116.003 147.286 116.174 147.022 116.421 147.101C116.777 147.198 117.155 147.17 117.492 147.021L117.655 146.937C117.835 146.844 117.988 146.707 118.1 146.539C118.144 146.462 118.162 146.374 118.152 146.286C118.152 146.286 118.152 146.286 118.151 146.253L118.15 146.213C118.118 146.165 118.073 146.128 118.02 146.104C117.918 146.056 117.806 146.033 117.694 146.035C117.555 146.04 117.418 146.062 117.285 146.101C117.219 146.103 117.153 146.105 117.081 146.153L117.041 146.155L116.975 146.157L116.936 146.158L116.689 145.914C116.899 145.819 117.119 145.752 117.346 145.715C117.533 145.672 117.727 145.671 117.915 145.711C118.103 145.751 118.279 145.831 118.433 145.946C118.531 146.043 118.589 146.174 118.593 146.312C118.597 146.45 118.548 146.584 118.456 146.687C118.32 146.899 118.128 147.07 117.901 147.181Z" fill="#A6A6A6"/>
<path d="M119.274 148.523C118.77 148.8 118.176 148.865 117.623 148.706C117.369 148.628 117.54 148.365 117.788 148.443C118.145 148.54 118.526 148.512 118.865 148.363C118.92 148.342 118.973 148.313 119.021 148.279C119.205 148.19 119.361 148.052 119.473 147.881C119.517 147.804 119.535 147.715 119.525 147.628C119.525 147.628 119.525 147.628 119.524 147.595C119.49 147.545 119.443 147.505 119.388 147.48C119.286 147.431 119.173 147.41 119.061 147.417C118.925 147.416 118.789 147.435 118.659 147.476C118.593 147.478 118.527 147.513 118.455 147.528L118.415 147.529L118.349 147.531C118.349 147.531 118.349 147.531 118.309 147.533L118.057 147.289C118.266 147.194 118.486 147.127 118.713 147.09C118.901 147.046 119.097 147.044 119.285 147.084C119.474 147.124 119.652 147.205 119.807 147.321C119.904 147.418 119.96 147.549 119.964 147.687C119.969 147.824 119.921 147.959 119.83 148.062C119.687 148.261 119.496 148.42 119.274 148.523Z" fill="#A6A6A6"/>
<path d="M120.641 149.871C120.137 150.143 119.547 150.206 118.997 150.048C118.743 149.97 118.914 149.713 119.161 149.785C119.516 149.881 119.893 149.855 120.232 149.712L120.395 149.627C120.576 149.534 120.73 149.395 120.84 149.223C120.889 149.151 120.907 149.062 120.892 148.976L120.857 148.938C120.829 148.886 120.783 148.848 120.728 148.829C120.627 148.778 120.514 148.754 120.401 148.76C120.265 148.758 120.129 148.778 119.999 148.818L119.795 148.878L119.749 148.879L119.689 148.881L119.643 148.882L119.397 148.638C119.606 148.543 119.827 148.476 120.053 148.439C120.241 148.397 120.435 148.395 120.622 148.435C120.81 148.475 120.987 148.556 121.141 148.671C121.241 148.768 121.3 148.9 121.304 149.04C121.308 149.179 121.258 149.315 121.164 149.418C121.027 149.608 120.848 149.763 120.641 149.871Z" fill="#A6A6A6"/>
<path d="M122.014 151.213C121.509 151.488 120.915 151.551 120.363 151.39C120.109 151.319 120.28 151.055 120.528 151.133C120.885 151.231 121.265 151.203 121.605 151.054L121.768 150.969C121.949 150.876 122.103 150.736 122.213 150.565C122.255 150.49 122.274 150.404 122.265 150.318C122.263 150.307 122.262 150.296 122.264 150.285L122.262 150.245C122.231 150.197 122.186 150.16 122.133 150.137C122.029 150.089 121.915 150.065 121.8 150.068C121.664 150.072 121.528 150.094 121.398 150.133C121.328 150.145 121.26 150.163 121.194 150.186L121.154 150.187C121.132 150.181 121.109 150.182 121.088 150.189C121.088 150.189 121.055 150.19 121.048 150.19L120.802 149.946C121.01 149.847 121.231 149.778 121.458 149.74C121.647 149.698 121.843 149.697 122.032 149.738C122.221 149.779 122.398 149.861 122.552 149.978C122.649 150.076 122.706 150.206 122.71 150.344C122.714 150.482 122.666 150.616 122.575 150.719C122.433 150.929 122.24 151.099 122.014 151.213Z" fill="#A6A6A6"/>
<path d="M123.381 152.555C123.132 152.691 122.858 152.777 122.576 152.807C122.294 152.838 122.009 152.812 121.737 152.732C121.483 152.66 121.653 152.397 121.901 152.475C122.256 152.573 122.635 152.545 122.972 152.396L123.135 152.311C123.314 152.218 123.467 152.081 123.58 151.913C123.629 151.839 123.648 151.748 123.631 151.66C123.631 151.66 123.631 151.66 123.63 151.627C123.629 151.594 123.629 151.587 123.629 151.587C123.593 151.541 123.547 151.504 123.493 151.479C123.391 151.43 123.279 151.406 123.167 151.409C123.03 151.414 122.895 151.436 122.764 151.475C122.695 151.485 122.627 151.503 122.561 151.528L122.521 151.529C122.499 151.526 122.477 151.526 122.455 151.531C122.455 151.531 122.422 151.532 122.415 151.532L122.162 151.288C122.371 151.193 122.592 151.126 122.819 151.089C123.007 151.046 123.202 151.044 123.391 151.084C123.58 151.124 123.758 151.204 123.912 151.32C124.011 151.417 124.068 151.548 124.073 151.686C124.077 151.824 124.028 151.959 123.935 152.061C123.801 152.275 123.609 152.447 123.381 152.555Z" fill="#A6A6A6"/>
<path d="M124.755 153.93C124.506 154.067 124.233 154.154 123.951 154.186C123.669 154.217 123.383 154.192 123.111 154.113C122.85 154.035 123.021 153.772 123.268 153.85C123.626 153.948 124.006 153.919 124.346 153.771C124.403 153.748 124.457 153.72 124.509 153.686C124.689 153.595 124.843 153.458 124.953 153.288C124.997 153.211 125.015 153.123 125.005 153.035C125.005 153.035 125.005 153.035 125.004 153.002L125.003 152.969C124.973 152.918 124.928 152.877 124.874 152.854C124.77 152.804 124.655 152.783 124.541 152.791C124.404 152.791 124.269 152.81 124.138 152.85C124.072 152.852 124.007 152.887 123.935 152.902L123.895 152.904L123.829 152.906C123.829 152.906 123.796 152.907 123.789 152.907L123.543 152.663C123.751 152.567 123.972 152.5 124.199 152.464C124.387 152.42 124.583 152.418 124.772 152.458C124.961 152.498 125.139 152.579 125.293 152.695C125.39 152.793 125.446 152.923 125.451 153.061C125.455 153.199 125.407 153.333 125.316 153.436C125.176 153.648 124.982 153.818 124.755 153.93Z" fill="#A6A6A6"/>
<path d="M126.127 155.246C125.621 155.517 125.029 155.58 124.476 155.422C124.222 155.344 124.393 155.087 124.64 155.159C124.995 155.255 125.373 155.23 125.711 155.086L125.874 155.002C126.056 154.908 126.209 154.769 126.319 154.597C126.367 154.524 126.388 154.437 126.378 154.35L126.376 154.311C126.344 154.261 126.296 154.223 126.241 154.202C126.139 154.152 126.027 154.128 125.914 154.133C125.778 154.132 125.642 154.151 125.512 154.192L125.308 154.251L125.268 154.252L125.202 154.254L125.162 154.255L124.91 154.012C125.119 153.917 125.339 153.85 125.566 153.812C125.754 153.769 125.95 153.767 126.139 153.807C126.327 153.847 126.505 153.928 126.66 154.044C126.759 154.141 126.816 154.274 126.821 154.413C126.825 154.552 126.776 154.687 126.683 154.791C126.538 154.986 126.347 155.142 126.127 155.246Z" fill="#A6A6A6"/>
<path d="M127.494 156.588C127.245 156.724 126.971 156.809 126.689 156.84C126.407 156.87 126.122 156.844 125.85 156.764C125.596 156.693 125.76 156.429 126.014 156.507C126.369 156.605 126.748 156.577 127.085 156.428L127.248 156.343C127.429 156.25 127.582 156.111 127.692 155.939C127.735 155.864 127.753 155.778 127.744 155.692L127.743 155.659L127.742 155.62C127.712 155.57 127.667 155.532 127.613 155.511C127.511 155.463 127.399 155.439 127.286 155.442C127.148 155.446 127.01 155.468 126.877 155.507C126.808 155.519 126.74 155.537 126.674 155.56L126.634 155.561C126.612 155.555 126.589 155.556 126.568 155.563C126.568 155.563 126.568 155.563 126.528 155.564L126.282 155.32C126.49 155.22 126.711 155.151 126.938 155.115C127.126 155.073 127.32 155.073 127.508 155.114C127.696 155.155 127.872 155.236 128.025 155.352C128.124 155.449 128.181 155.58 128.186 155.718C128.19 155.856 128.141 155.991 128.048 156.094C127.908 156.302 127.717 156.472 127.494 156.588Z" fill="#A6A6A6"/>
<path d="M128.867 157.929C128.362 158.204 127.768 158.267 127.216 158.106C126.962 158.035 127.133 157.771 127.38 157.849C127.736 157.947 128.114 157.919 128.451 157.77C128.508 157.747 128.563 157.719 128.614 157.686C128.795 157.594 128.948 157.457 129.059 157.288C129.107 157.213 129.128 157.123 129.118 157.034C129.118 157.023 129.117 157.012 129.116 157.001L129.115 156.961C129.079 156.915 129.033 156.878 128.979 156.853C128.878 156.804 128.766 156.78 128.653 156.784C128.516 156.788 128.381 156.81 128.251 156.849C128.181 156.861 128.113 156.879 128.047 156.902L128.007 156.903C127.985 156.9 127.963 156.9 127.941 156.905C127.941 156.905 127.908 156.906 127.901 156.906L127.648 156.662C127.858 156.567 128.078 156.5 128.305 156.463C128.493 156.42 128.688 156.418 128.877 156.458C129.066 156.498 129.244 156.578 129.399 156.694C129.497 156.791 129.554 156.922 129.559 157.06C129.563 157.198 129.514 157.333 129.421 157.435C129.286 157.648 129.094 157.819 128.867 157.929Z" fill="#A6A6A6"/>
<path d="M130.233 159.271C129.985 159.409 129.712 159.495 129.429 159.527C129.147 159.558 128.862 159.534 128.589 159.455C128.335 159.376 128.506 159.113 128.753 159.191C129.109 159.289 129.487 159.261 129.824 159.112C129.881 159.089 129.936 159.061 129.987 159.027C130.168 158.936 130.322 158.799 130.432 158.63C130.476 158.553 130.494 158.464 130.484 158.376L130.483 158.343C130.453 158.292 130.408 158.252 130.353 158.228C130.252 158.18 130.139 158.158 130.027 158.165C129.89 158.164 129.755 158.184 129.624 158.224C129.556 158.238 129.488 158.255 129.421 158.277L129.374 158.278L129.308 158.28L129.269 158.281L129.022 158.037C129.232 157.942 129.452 157.875 129.679 157.838C129.866 157.796 130.06 157.794 130.248 157.834C130.435 157.874 130.612 157.954 130.766 158.069C130.866 158.165 130.924 158.297 130.929 158.435C130.933 158.574 130.883 158.709 130.789 158.811C130.648 159.011 130.456 159.17 130.233 159.271Z" fill="#A6A6A6"/>
<path d="M131.607 160.62C131.1 160.891 130.508 160.954 129.956 160.797C129.702 160.719 129.873 160.462 130.12 160.533C130.477 160.63 130.856 160.604 131.198 160.46L131.354 160.376C131.538 160.284 131.694 160.145 131.805 159.971C131.848 159.897 131.866 159.81 131.857 159.725L131.856 159.685C131.823 159.635 131.776 159.597 131.72 159.577C131.619 159.526 131.506 159.502 131.393 159.507C131.257 159.506 131.121 159.526 130.991 159.566L130.787 159.625L130.748 159.626L130.682 159.629L130.642 159.63L130.389 159.386C130.598 159.291 130.819 159.224 131.046 159.187C131.234 159.143 131.429 159.141 131.618 159.181C131.807 159.221 131.985 159.302 132.139 159.418C132.236 159.516 132.293 159.646 132.297 159.784C132.301 159.922 132.253 160.056 132.162 160.159C132.017 160.355 131.826 160.514 131.607 160.62Z" fill="#A6A6A6"/>
<path d="M132.973 161.962C132.724 162.098 132.451 162.184 132.168 162.214C131.886 162.244 131.601 162.219 131.329 162.139C131.075 162.067 131.246 161.803 131.493 161.882C131.849 161.979 132.227 161.951 132.564 161.802L132.727 161.718C132.908 161.624 133.062 161.485 133.172 161.313C133.221 161.241 133.239 161.153 133.224 161.067L133.222 161.027C133.188 160.979 133.141 160.941 133.086 160.919C132.984 160.871 132.873 160.847 132.76 160.849C132.623 160.853 132.488 160.875 132.358 160.915C132.288 160.925 132.22 160.943 132.154 160.967L132.114 160.968L132.048 160.971L132.002 160.972L131.756 160.734C131.963 160.634 132.184 160.565 132.412 160.529C132.6 160.487 132.794 160.487 132.982 160.528C133.17 160.569 133.346 160.651 133.499 160.767C133.599 160.863 133.658 160.994 133.662 161.133C133.666 161.271 133.616 161.406 133.522 161.508C133.38 161.703 133.191 161.859 132.973 161.962Z" fill="#A6A6A6"/>
<path d="M83.4938 92.4107C74.447 105.599 69.169 123.26 69.7596 127.15C70.4095 131.461 76.2474 146.077 82.4046 152.589C84.0277 154.301 96.7239 140.649 95.0684 138.746C91.8679 135.083 85.5798 124.336 85.3323 121.9C85.104 119.655 88.594 105.241 89.5808 97.0774C90.5303 89.2129 87.7234 86.2795 83.4938 92.4107Z" fill="#D4A29E"/>
<path d="M94.677 138.302C94.677 138.302 101.398 141.405 105.72 143.61C108.123 144.86 112.056 147.348 113.408 149.068C115.429 151.655 122.221 163.692 119.338 165.397C116.736 166.947 112.2 155.855 112.2 155.855C112.2 155.855 117.754 166.644 114.262 167.931C110.771 169.218 107.322 156.012 107.322 156.012C107.322 156.012 112.783 167.228 108.977 167.982C106.099 168.554 102.303 156.763 102.303 156.763C102.303 156.763 106.928 166.436 103.995 167.149C100.753 167.911 96.5684 157.278 96.5684 157.278C88.8012 157.843 84.8754 154.937 82.3235 152.539C81.7156 151.948 94.677 138.302 94.677 138.302Z" fill="#D4A29E"/>
<path d="M110.51 152.006C111.211 153.249 111.913 154.506 112.509 155.805C113.106 157.105 113.637 158.42 114.096 159.783C114.74 161.534 115.174 163.355 115.39 165.207C114.752 161.915 112.733 157.256 112.143 155.956C111.553 154.656 111.042 153.34 110.458 152.034C110.45 151.994 110.51 151.979 110.51 152.006Z" fill="#C18C88"/>
<path d="M105.777 154.033C106.602 155.663 107.479 157.246 108.226 158.911C108.973 160.577 109.54 162.182 110.169 163.905C110.22 164.036 110.133 164.019 110.083 163.908C109.369 162.234 108.607 160.741 107.887 159.068C107.166 157.394 106.511 155.706 105.745 154.074C105.723 154.028 105.763 154.014 105.777 154.033Z" fill="#C18C88"/>
<path d="M101.395 155.043C102.718 157.508 103.783 160.103 104.576 162.786C104.613 162.918 104.506 162.881 104.456 162.75C103.448 160.132 102.676 158.116 101.311 155.092C101.29 155.046 101.368 154.997 101.395 155.043Z" fill="#C18C88"/>
<path d="M74.7887 105.946L88.8588 108.889C88.8588 108.889 90.7004 99.0166 90.0705 92.9958C89.4406 86.9749 85.9438 88.0896 82.5342 92.8842C79.1245 97.6787 74.7887 105.946 74.7887 105.946Z" fill="#BDA876"/>
<path d="M39.24 78.4499L49.77 84.9799L51.77 81.7599C52.0591 81.297 52.4713 80.9236 52.9605 80.6816C53.4497 80.4397 53.9966 80.3387 54.54 80.3899C55.16 80.4399 55.77 80.4599 56.39 80.4499C56.9348 80.4304 57.4743 80.5632 57.9478 80.8335C58.4212 81.1038 58.8099 81.5008 59.07 81.9799L60.86 85.3299L71.78 79.4699L69.99 76.1299C69.7411 75.6466 69.6283 75.1047 69.6635 74.5622C69.6987 74.0198 69.8807 73.497 70.19 73.0499C70.54 72.5399 70.87 72.0499 71.19 71.4699C71.4458 70.9879 71.8315 70.5872 72.3034 70.3132C72.7753 70.0393 73.3146 69.903 73.86 69.9199L77.65 70.0399L78.04 57.6499L74.23 57.5399C73.6845 57.5187 73.1558 57.3455 72.7034 57.0398C72.2511 56.7341 71.8932 56.3082 71.67 55.8099C71.54 55.5399 71.4 55.2699 71.26 54.9999C71.12 54.7299 70.96 54.4599 70.8 54.1999C70.5235 53.7357 70.3776 53.2053 70.3776 52.6649C70.3776 52.1246 70.5235 51.5942 70.8 51.1299L72.8 47.8799L62.27 41.3499L60.27 44.5799C59.9789 45.0427 59.5645 45.4151 59.0734 45.6553C58.5823 45.8956 58.034 45.9941 57.49 45.9399C56.88 45.8899 56.27 45.8699 55.65 45.8799C55.1073 45.8888 54.5723 45.7503 54.1021 45.4791C53.6319 45.2079 53.2441 44.8142 52.98 44.3399L51.18 40.9999L40.26 46.8599L42.05 50.1999C42.3003 50.6824 42.4148 51.2238 42.3814 51.7662C42.3479 52.3087 42.1677 52.8319 41.86 53.2799C41.4947 53.7822 41.1607 54.3065 40.86 54.8499C40.6017 55.332 40.214 55.7325 39.7406 56.0063C39.2671 56.2801 38.7267 56.4164 38.18 56.3999L34.38 56.2899L34 68.6699L37.8 68.7899C38.3425 68.818 38.8671 68.9929 39.318 69.2958C39.7688 69.5987 40.129 70.0183 40.36 70.5099C40.49 70.7899 40.62 71.0599 40.77 71.3399C40.92 71.6199 41.06 71.8699 41.22 72.1299C41.5068 72.5942 41.6587 73.1292 41.6587 73.6749C41.6587 74.2207 41.5068 74.7556 41.22 75.2199L39.24 78.4499ZM47.06 67.9599C46.113 66.19 45.7121 64.179 45.908 62.1812C46.1038 60.1834 46.8877 58.2885 48.1604 56.7362C49.4331 55.1838 51.1376 54.0438 53.0583 53.4601C54.9789 52.8764 57.0295 52.8753 58.9507 53.457C60.872 54.0387 62.5776 55.177 63.852 56.7281C65.1263 58.2791 65.9121 60.1731 66.11 62.1707C66.308 64.1683 65.9092 66.1797 64.964 67.9507C64.0188 69.7216 62.5698 71.1725 60.8 72.1199C59.6247 72.7491 58.337 73.1406 57.0103 73.2721C55.6837 73.4035 54.3442 73.2724 53.0683 72.8861C51.7924 72.4998 50.6051 71.8659 49.5742 71.0207C48.5432 70.1754 47.6889 69.1354 47.06 67.9599Z" fill="#A4A4A4"/>
<path d="M25 105.18L29.34 112.7L31.64 111.37C31.9701 111.171 32.3504 111.072 32.7353 111.085C33.1203 111.097 33.4934 111.221 33.81 111.44C34.1706 111.678 34.5445 111.895 34.93 112.09C35.275 112.254 35.5657 112.514 35.7677 112.838C35.9697 113.162 36.0746 113.538 36.07 113.92L36.07 116.58L44.76 116.58L44.76 113.92C44.7554 113.538 44.8603 113.162 45.0623 112.838C45.2643 112.514 45.555 112.254 45.9 112.09C46.2855 111.895 46.6594 111.678 47.02 111.44C47.3366 111.221 47.7097 111.097 48.0947 111.085C48.4796 111.072 48.86 111.171 49.19 111.37L51.49 112.7L55.83 105.18L53.52 103.84C53.1924 103.646 52.9253 103.364 52.7486 103.027C52.572 102.69 52.4928 102.31 52.52 101.93C52.52 101.72 52.52 101.5 52.52 101.29C52.52 101.08 52.52 100.86 52.52 100.65C52.494 100.27 52.5737 99.8908 52.7502 99.5537C52.9267 99.2165 53.1931 98.9349 53.52 98.7399L55.84 97.4099L51.5 89.8899L49.19 91.2199C48.8582 91.4091 48.4802 91.5019 48.0986 91.4877C47.717 91.4736 47.3468 91.3531 47.03 91.1399C46.67 90.9099 46.29 90.6899 45.91 90.4899C45.565 90.3257 45.2743 90.066 45.0723 89.7417C44.8703 89.4174 44.7654 89.042 44.77 88.6599L44.77 85.9999L36.08 85.9999L36.08 88.6599C36.0847 89.042 35.9797 89.4174 35.7777 89.7417C35.5757 90.066 35.285 90.3257 34.94 90.4899C34.56 90.6899 34.19 90.9099 33.83 91.1399C33.5112 91.3529 33.1395 91.4732 32.7563 91.4873C32.3732 91.5014 31.9936 91.4089 31.66 91.2199L29.35 89.8899L25.01 97.4099L27.32 98.7399C27.6476 98.934 27.9147 99.2155 28.0914 99.5529C28.268 99.8902 28.3472 100.27 28.32 100.65C28.32 100.86 28.32 101.07 28.32 101.29C28.32 101.51 28.32 101.72 28.32 101.93C28.3456 102.311 28.2659 102.692 28.0895 103.03C27.9131 103.369 27.6469 103.653 27.32 103.85L25 105.18ZM33.3 101.29C33.3 99.8813 33.7178 98.5043 34.5006 97.3332C35.2834 96.1621 36.396 95.2496 37.6976 94.711C38.9992 94.1724 40.4313 94.0319 41.8127 94.3075C43.1941 94.583 44.4628 95.2621 45.4581 96.2589C46.4535 97.2556 47.1308 98.5252 47.4044 99.907C47.678 101.289 47.5356 102.721 46.9951 104.022C46.4547 105.322 45.5406 106.434 44.3684 107.215C43.1962 107.996 41.8186 108.412 40.41 108.41C39.4755 108.41 38.5501 108.226 37.6868 107.868C36.8235 107.51 36.0393 106.985 35.3789 106.324C34.7186 105.663 34.1951 104.878 33.8383 104.014C33.4816 103.15 33.2987 102.224 33.3 101.29Z" fill="#6C6C6C"/>
</svg>
