<svg width="508" height="476" viewBox="0 0 508 476" fill="none" xmlns="http://www.w3.org/2000/svg">
<path d="M210.824 61.3591H242.364V74.6628H210.824V61.3591Z" fill="#EBEBEB"/>
<path d="M228.416 44.5838H259.956V57.8876H228.416V44.5838Z" fill="#EBEBEB"/>
<path d="M358.566 476C276.036 476 209.132 465.626 209.132 452.828C209.132 440.031 276.036 429.657 358.566 429.657C441.096 429.657 508 440.031 508 452.828C508 465.626 441.096 476 358.566 476Z" fill="#D6CFBF"/>
<path d="M62.5812 467.737C30.2165 467.737 3.97979 461.062 3.97979 452.828C3.97979 444.594 30.2165 437.919 62.5812 437.919C94.9459 437.919 121.183 444.594 121.183 452.828C121.183 461.062 94.9459 467.737 62.5812 467.737Z" fill="#D6CFBF"/>
<path d="M67.8578 426.102H367.464L339.64 28.8665H40.0222L67.8578 426.102Z" fill="#F9E4B0"/>
<g opacity="0.1">
<path opacity="0.1" d="M67.8578 426.102H367.464L339.64 28.8665H40.0222L67.8578 426.102Z" fill="black"/>
</g>
<path d="M75.1946 426.102H374.812L346.977 28.8665H47.3708L75.1946 426.102Z" fill="#F9E4B0"/>
<path d="M88.8328 402.585L353.54 405.95L333.041 48.0911L68.3223 44.7265L88.8328 402.585Z" fill="#EBEBEB"/>
<path d="M95.3243 407.091L359.353 401.397L326.55 43.597L62.5218 49.28L95.3243 407.091Z" fill="#DBDBDB"/>
<path d="M90.7025 404.285H355.195L330.123 46.4027H65.6301L90.7025 404.285Z" fill="white"/>
<path d="M149.625 159.277H123.219L125.065 132.919H151.471L149.625 159.277Z" fill="#EBEBEB"/>
<path d="M251.011 136.783H165.455L165.729 132.919H251.285L251.011 136.783Z" fill="#333145"/>
<path d="M315.449 144.273H164.932L165.206 140.409H315.711L315.449 144.273Z" fill="#EBEBEB"/>
<path d="M314.912 151.775H164.406L164.68 147.911H315.186L314.912 151.775Z" fill="#EBEBEB"/>
<path d="M314.388 159.277H163.883L164.157 155.413H314.662L314.388 159.277Z" fill="#EBEBEB"/>
<path d="M129.201 132.542C129.934 133.372 132.813 138.247 132.813 138.247C132.813 138.247 133.843 140.042 134.503 140.915C135.787 142.676 136.967 144.777 138.124 146.574L135.324 146.353C138.469 142.329 141.882 138.507 145.544 134.914C147.385 133.111 149.284 131.369 151.273 129.693C153.277 127.997 155.388 126.421 157.594 124.973C156.353 127.226 154.954 129.393 153.408 131.46C151.905 133.525 150.302 135.511 148.63 137.445C145.29 141.329 141.688 144.995 137.847 148.42L135.92 150.126L135.092 148.196C134.268 146.234 133.36 144.249 132.632 142.237C132.248 141.212 131.817 140.213 131.489 139.185C131.162 138.158 129.511 133.546 129.201 132.542Z" fill="#C87A7A"/>
<path d="M144.583 159.143C143.964 158.407 141.537 154.075 141.537 154.075C141.537 154.075 140.669 152.479 140.112 151.705C139.027 150.141 138.033 148.273 137.057 146.678L139.443 146.858C136.738 150.466 133.805 153.895 130.663 157.121C129.082 158.74 127.453 160.305 125.747 161.811C124.028 163.336 122.219 164.754 120.33 166.058C121.401 164.041 122.606 162.1 123.937 160.248C125.231 158.397 126.608 156.616 128.045 154.881C130.916 151.397 134.008 148.106 137.303 145.029L138.956 143.496L139.651 145.213C140.342 146.959 141.106 148.724 141.715 150.514C142.036 151.426 142.398 152.315 142.671 153.23C142.945 154.145 144.326 158.249 144.583 159.143Z" fill="#C87A7A"/>
<path d="M146.172 208.557H119.766L121.612 182.199H148.018L146.172 208.557Z" fill="#EBEBEB"/>
<path d="M247.557 186.063H162.001L162.275 182.199H247.831L247.557 186.063Z" fill="#333145"/>
<path d="M311.994 193.565H161.477L161.751 189.701H312.256L311.994 193.565Z" fill="#EBEBEB"/>
<path d="M311.471 201.067H160.953L161.227 197.203H311.733L311.471 201.067Z" fill="#EBEBEB"/>
<path d="M310.946 208.557H160.429L160.703 204.705H311.208L310.946 208.557Z" fill="#EBEBEB"/>
<path d="M142.717 257.849H116.311L118.157 231.491H144.563L142.717 257.849Z" fill="#EBEBEB"/>
<path d="M244.103 235.355H158.547L158.821 231.491H244.377L244.103 235.355Z" fill="#333145"/>
<path d="M308.541 242.857H158.023L158.297 238.993H308.815L308.541 242.857Z" fill="#EBEBEB"/>
<path d="M308.016 250.347H157.498L157.772 246.495H308.29L308.016 250.347Z" fill="#EBEBEB"/>
<path d="M307.492 257.849H156.975L157.249 253.985H307.754L307.492 257.849Z" fill="#EBEBEB"/>
<path d="M139.264 307.14H112.857L114.704 280.782H141.11L139.264 307.14Z" fill="#EBEBEB"/>
<path d="M240.649 284.646H155.093L155.367 280.782H240.923L240.649 284.646Z" fill="#333145"/>
<path d="M305.086 292.137H154.568L154.842 288.273H305.36L305.086 292.137Z" fill="#EBEBEB"/>
<path d="M304.563 299.638H154.045L154.319 295.775H304.837L304.563 299.638Z" fill="#EBEBEB"/>
<path d="M304.038 307.14H153.521L153.794 303.277H304.312L304.038 307.14Z" fill="#EBEBEB"/>
<path d="M135.809 356.42H109.402L111.249 330.074H137.655L135.809 356.42Z" fill="#EBEBEB"/>
<path d="M237.194 333.926H151.65L151.912 330.074H237.468L237.194 333.926Z" fill="#333145"/>
<path d="M301.632 341.428H151.126L151.388 337.564H301.906L301.632 341.428Z" fill="#EBEBEB"/>
<path d="M301.108 348.93H150.59L150.864 345.066H301.382L301.108 348.93Z" fill="#EBEBEB"/>
<path d="M300.584 356.42H150.066L150.34 352.556H300.858L300.584 356.42Z" fill="#EBEBEB"/>
<path d="M134.761 61.157H264.673L261.91 21.626H131.998L134.761 61.157Z" fill="#C7C7C7"/>
<path d="M155.426 0H236.086L241.148 21.6142H152.186L155.426 0ZM196.244 15.5508C196.857 15.56 197.465 15.4404 198.028 15.2C198.592 14.9596 199.098 14.6036 199.515 14.1552C199.931 13.7068 200.249 13.1759 200.447 12.5971C200.645 12.0182 200.719 11.4043 200.663 10.7952C200.56 9.5132 199.981 8.31569 199.041 7.4364C198.101 6.5571 196.866 6.05911 195.577 6.03962C194.965 6.03047 194.357 6.14998 193.794 6.39041C193.23 6.63084 192.724 6.98682 192.307 7.43524C191.89 7.88367 191.573 8.41451 191.375 8.99335C191.177 9.57219 191.103 10.1861 191.159 10.7952C191.257 12.0792 191.834 13.2798 192.775 14.1602C193.717 15.0405 194.954 15.5367 196.244 15.5508Z" fill="#C7C7C7"/>
<path d="M152.186 21.6141H241.148L240.005 16.7753H152.913L152.186 21.6141Z" fill="#A6A6A6"/>
<path d="M402.91 139.22C401.147 152.298 391.345 183.518 384.032 185.504C377.219 187.347 347.275 178.442 343.416 172.509C341.355 169.335 333.196 140.171 336.853 141.919C341.474 144.118 375.372 161.227 376.766 160.882C379.708 160.145 385.449 148.565 390.416 142.097C401.231 127.973 403.744 133.085 402.91 139.22Z" fill="#D4A29E"/>
<path d="M382.46 152.25L397.813 166.291C397.813 166.291 403.244 146.235 403.863 136.949C404.483 127.664 396.884 128.722 382.46 152.25Z" fill="#BDA876"/>
<path d="M445.349 285.336C445.349 285.336 461.583 310.981 478.199 298.509C494.814 286.037 474.626 263.353 474.626 263.353L445.349 285.336Z" fill="#DD6A57"/>
<path d="M475.386 264.298L446.076 286.28L317.704 115.742L347.014 93.7597L475.386 264.298Z" fill="#F9E4B0"/>
<path opacity="0.1" d="M475.386 264.298L446.076 286.28L317.704 115.742L347.014 93.7597L475.386 264.298Z" fill="black"/>
<path d="M478.542 263.373L444.318 289.041L439.217 282.263L473.441 256.596L478.542 263.373Z" fill="#28222C"/>
<path d="M472.9 255.882L438.677 281.55L433.575 274.773L467.799 249.105L472.9 255.882Z" fill="#28222C"/>
<path d="M347.024 93.7685L320.142 80.9879L311.304 76.7435L312.864 86.4568L317.628 115.775L323.798 117.796C323.798 117.796 323.489 111.483 323.5 111.376L329.67 113.397C329.67 113.397 329.349 107.084 329.373 106.965L335.471 109.046C335.471 109.046 335.221 102.685 335.233 102.566L341.343 104.647C341.343 104.647 341.093 98.2864 341.105 98.1675L347.203 100.236C347.203 100.236 347.001 93.8755 347.024 93.7685Z" fill="#EBEBEB"/>
<path d="M320.142 80.9879L311.304 76.7435L312.864 86.4568L320.142 80.9879Z" fill="#5E5C76"/>
<g opacity="0.1">
<path opacity="0.1" d="M433.414 254.96C425.47 243.986 417.418 233.108 409.342 222.229L384.973 189.689L360.436 157.315L348.132 141.218L335.685 125.167L347.668 141.574L359.745 157.862L384.067 190.402L408.616 222.776C416.834 233.532 425.1 244.26 433.414 254.96Z" fill="black"/>
<path opacity="0.1" d="M441.55 249.823C433.605 238.862 425.554 227.971 417.49 217.093L393.156 184.553L368.62 152.179L356.268 136.058L343.821 119.996L355.803 136.462L367.881 152.785L392.215 185.326L416.751 217.699C424.982 228.399 433.212 239.159 441.55 249.823Z" fill="black"/>
<path opacity="0.1" d="M449.696 244.652C441.74 233.678 433.688 222.8 425.624 211.921L401.302 179.381L376.754 147.007L364.403 130.874L351.956 114.824L363.938 131.231L376.028 147.554L400.35 180.095L424.898 212.552C433.116 223.252 441.347 234.023 449.696 244.652Z" fill="black"/>
</g>
<path d="M333.934 140.861C333.505 145.402 330.623 151.894 331.385 155.199C331.547 156.02 331.969 156.767 332.589 157.33C333.209 157.893 333.994 158.242 334.827 158.326C334.827 158.326 332.243 161.048 333.434 163.925C334.053 165.412 337.007 165.733 337.007 165.733C336.458 166.381 336.097 167.167 335.965 168.006C335.833 168.844 335.934 169.703 336.257 170.488C337.222 172.474 339.997 172.497 339.997 172.497C339.997 172.497 339.115 175.565 340.759 177.253C344.082 180.713 361.984 174.233 362.353 166.648C362.52 163.081 358.232 164.936 358.232 164.936C358.232 164.936 363.771 160.834 362.52 157.113C361.27 153.392 355.85 156.102 355.85 156.102C355.85 156.102 361.174 152.072 359.495 148.351C357.815 144.63 352.777 148.113 352.777 148.113C352.777 148.113 355.779 143.976 353.837 141.42C350.633 137.199 345.273 145.902 341.009 146.401L336.483 140.718L333.934 140.861Z" fill="#D4A29E"/>
<path d="M332.398 147.792C332.398 143.453 325.978 140.456 325.418 136.307C324.644 130.696 332.374 133.668 336.436 140.754L338.615 146.805L332.398 147.792Z" fill="#D4A29E"/>
<path d="M340.39 172.581C340.39 172.581 340.39 172.688 340.39 172.676C347.054 171.975 353.344 169.262 358.423 164.9C358.578 164.758 358.423 164.437 358.221 164.568C352.697 168.085 346.691 170.784 340.39 172.581Z" fill="#C18C88"/>
<path d="M336.889 165.804C336.817 165.804 336.889 165.935 336.889 165.935C344.229 165.082 351.023 161.637 356.041 156.221C356.208 156.031 356.16 155.686 355.946 155.889C352.409 159.408 342.832 164.199 336.889 165.804Z" fill="#C18C88"/>
<path d="M352.968 147.614C348.013 152.857 341.867 155.996 335.101 158.314C335.018 158.314 335.101 158.468 335.101 158.468C338.675 158.231 342.879 156.317 345.988 154.545C348.917 152.957 351.38 150.633 353.134 147.804C353.218 147.673 353.063 147.507 352.968 147.614Z" fill="#C18C88"/>
<path d="M335.293 451.021C337.579 451.782 402.911 451.592 405.4 450.011C406.341 449.428 406.865 439.917 407.187 428.42C407.187 425.935 407.306 423.379 407.341 420.776C407.341 417.684 407.425 414.569 407.449 411.538C407.532 397.913 407.341 385.917 407.341 385.917H364.808V411.538V420.776L365.022 428.42C365.022 428.42 340.009 439.667 337.508 441.688C335.007 443.709 333.018 450.332 335.293 451.021Z" fill="#D4A29E"/>
<path d="M335.292 451.021C337.579 451.782 402.91 451.592 405.4 450.011C406.341 449.428 406.865 439.917 407.186 428.42C407.186 425.935 407.305 423.379 407.341 420.776C407.341 417.684 407.424 414.569 407.448 411.538H364.831V420.776L365.046 428.42C365.046 428.42 340.033 439.667 337.531 441.688C335.03 443.709 333.017 450.332 335.292 451.021Z" fill="white"/>
<path d="M335.09 451.116C336.591 451.604 364.414 451.711 384.675 451.295C389.356 451.188 393.644 451.057 397.11 450.914C401.874 450.688 405.078 450.427 405.59 450.106C406.781 449.369 407.294 435.411 407.556 420.704H364.808L365.034 428.396C365.034 428.396 339.914 439.691 337.353 441.736C334.792 443.781 332.803 450.332 335.09 451.116Z" fill="#F9E4B0"/>
<path d="M336.03 448.489C347.048 448.192 391.487 448.013 402.397 448.549C402.481 448.549 402.481 448.62 402.397 448.62C391.487 449.155 347.048 448.977 336.03 448.679C335.804 448.668 335.804 448.501 336.03 448.489Z" fill="#263238"/>
<path d="M363.473 425.959C367.797 425.139 373.097 425.781 376.42 428.86C376.552 428.979 376.42 429.157 376.242 429.11C372.11 427.805 367.849 426.948 363.533 426.553C363.454 426.561 363.375 426.538 363.314 426.487C363.252 426.437 363.213 426.365 363.205 426.286C363.197 426.207 363.221 426.128 363.271 426.067C363.322 426.006 363.394 425.967 363.473 425.959Z" fill="#423B47"/>
<path d="M360.352 427.849C364.676 427.029 369.976 427.671 373.299 430.75C373.43 430.869 373.299 431.048 373.121 431C368.973 429.682 364.697 428.809 360.364 428.396C360.292 428.398 360.221 428.371 360.169 428.321C360.116 428.27 360.086 428.201 360.084 428.129C360.083 428.056 360.11 427.986 360.16 427.934C360.211 427.881 360.28 427.851 360.352 427.849Z" fill="#423B47"/>
<path d="M357.22 429.74C361.555 428.92 366.855 429.562 370.179 432.641C370.31 432.76 370.179 432.938 369.988 432.89C365.845 431.572 361.572 430.699 357.243 430.287C357.171 430.29 357.1 430.264 357.046 430.215C356.993 430.166 356.961 430.098 356.958 430.025C356.954 429.953 356.98 429.882 357.029 429.828C357.078 429.775 357.147 429.743 357.22 429.74Z" fill="#423B47"/>
<path d="M354.099 431.63C358.435 430.81 363.735 431.452 367.058 434.531C367.189 434.65 367.058 434.828 366.868 434.781C362.725 433.462 358.452 432.589 354.123 432.177C354.051 432.18 353.98 432.154 353.926 432.105C353.872 432.056 353.841 431.988 353.837 431.916C353.834 431.843 353.86 431.772 353.909 431.719C353.958 431.665 354.027 431.633 354.099 431.63Z" fill="#423B47"/>
<path d="M355.433 415.972C357.136 413.594 360.305 414.676 362.115 416.186C365.183 418.838 367.496 422.25 368.821 426.078C368.829 426.094 368.833 426.112 368.832 426.13C368.831 426.149 368.826 426.166 368.816 426.182C368.807 426.197 368.793 426.21 368.777 426.219C368.762 426.228 368.744 426.232 368.726 426.233C368.729 426.317 368.712 426.4 368.676 426.477C368.641 426.553 368.588 426.62 368.522 426.672C368.456 426.724 368.378 426.76 368.296 426.777C368.213 426.793 368.128 426.79 368.047 426.768C364.473 425.46 360.471 424.497 357.398 422.131C355.6 420.752 353.837 418.231 355.433 415.972ZM363.02 423.676C364.771 424.366 366.594 424.96 368.249 425.709C367.002 423.747 365.655 421.85 364.211 420.026C363.501 419.152 362.733 418.325 361.913 417.554C360.614 416.365 355.504 413.904 356.279 418.647C356.707 421.263 360.936 422.856 363.02 423.676Z" fill="#423B47"/>
<path d="M379.838 424.913C376.265 426.447 372.156 426.375 368.368 426.756C368.284 426.757 368.2 426.739 368.124 426.702C368.048 426.666 367.981 426.611 367.93 426.544C367.879 426.477 367.845 426.398 367.83 426.315C367.815 426.232 367.82 426.147 367.844 426.066C367.827 426.06 367.811 426.05 367.799 426.037C367.786 426.024 367.776 426.009 367.771 425.991C367.765 425.974 367.763 425.956 367.765 425.938C367.768 425.92 367.774 425.903 367.785 425.888C370.023 422.513 373.112 419.786 376.742 417.982C378.885 416.971 382.221 416.793 383.269 419.444C384.317 422.095 381.911 424.021 379.838 424.913ZM381.78 421.822C383.721 417.423 378.207 418.552 376.611 419.361C375.617 419.894 374.665 420.502 373.764 421.18C371.908 422.584 370.127 424.084 368.428 425.674C370.274 425.377 372.144 425.234 374.002 425.008C376.217 424.735 380.708 424.247 381.78 421.798V421.822Z" fill="#423B47"/>
<path d="M421.527 205.002C421.527 205.002 410.033 318.483 409.759 319.921C409.759 320.111 409.64 322.299 409.533 325.866C408.914 345.399 407.377 406.307 407.377 406.307H360.484C360.484 406.307 363.545 334.164 365.248 317.329C367.488 295.858 381.697 205.002 381.697 205.002H421.527Z" fill="#352D3A"/>
<path d="M404.173 323.928C405.61 299.357 407.782 274.826 410.688 250.335C412.344 236.544 414.261 222.812 416.286 209.068C416.286 208.949 416.5 208.949 416.477 209.068C412.903 233.536 410.283 258.182 408.068 282.78C405.852 307.378 404.304 332.024 403.303 356.706C402.72 370.687 402.291 383.325 401.838 397.319C401.826 397.377 401.793 397.429 401.747 397.467C401.7 397.504 401.642 397.525 401.582 397.525C401.522 397.525 401.464 397.504 401.418 397.467C401.371 397.429 401.339 397.377 401.326 397.319C401.981 372.399 402.708 348.811 404.173 323.928Z" fill="#28222C"/>
<path d="M363.7 398.543C385.139 397.865 403.577 398.353 405.173 398.472C406.495 398.579 405.757 398.709 405.102 398.757C386.95 399.839 364.414 398.816 363.7 398.757C363.533 398.709 363.533 398.543 363.7 398.543Z" fill="#28222C"/>
<path d="M421.527 205.002C421.527 205.002 410.033 318.482 409.759 319.921C409.759 320.111 409.64 322.299 409.533 325.866L387.426 205.002H421.527Z" fill="#28222C"/>
<path d="M406.65 460.295C409.032 460.877 474.113 455.836 476.483 454.065C477.376 453.411 477.198 443.888 476.638 432.415C476.531 429.93 476.507 427.35 476.233 424.77C475.899 421.513 475.53 418.267 475.125 415.128C473.434 401.527 471.469 390.161 471.469 390.161L430.233 393.264L432.794 417.863L433.806 427.921L434.593 435.53C434.593 435.53 410.521 448.608 408.139 450.807C405.756 453.007 404.315 459.7 406.65 460.295Z" fill="#D4A29E"/>
<path d="M406.65 460.295C409.032 460.877 474.113 455.836 476.483 454.065C477.376 453.411 477.198 443.888 476.638 432.415C476.531 429.93 476.507 427.35 476.233 424.77C475.899 421.513 475.53 418.267 475.125 415.128C462.428 416.02 444.157 417.149 432.806 417.839L433.806 427.921L434.593 435.53C434.593 435.53 410.521 448.608 408.139 450.807C405.756 453.007 404.315 459.7 406.65 460.295Z" fill="white"/>
<path d="M406.412 460.39C408.794 460.984 474.304 455.907 476.626 454.148C477.722 453.327 477.234 439.382 476.388 424.675L433.807 427.849L434.593 435.506C434.593 435.506 410.39 448.643 407.996 450.866C405.602 453.09 404.113 459.843 406.412 460.39Z" fill="#F9E4B0"/>
<path d="M407.187 457.703C418.145 456.585 462.453 453.102 473.375 452.828C473.459 452.828 473.471 452.828 473.375 452.9C462.536 454.243 418.204 457.37 407.21 457.881C406.972 457.893 406.96 457.726 407.187 457.703Z" fill="#263238"/>
<path d="M432.878 433.188C437.13 432.058 442.407 432.308 445.98 435.126C446.123 435.233 445.98 435.423 445.825 435.387C441.602 434.366 437.282 433.796 432.938 433.687C432.886 433.672 432.84 433.642 432.806 433.601C432.771 433.56 432.749 433.51 432.743 433.457C432.737 433.404 432.746 433.35 432.77 433.302C432.794 433.254 432.832 433.214 432.878 433.188Z" fill="#423B47"/>
<path d="M429.9 435.304C434.164 434.174 439.429 434.424 443.002 437.242C443.133 437.349 443.002 437.539 442.836 437.503C438.603 436.496 434.275 435.942 429.924 435.851C429.888 435.852 429.852 435.847 429.818 435.834C429.785 435.822 429.753 435.803 429.727 435.779C429.7 435.755 429.679 435.726 429.664 435.693C429.648 435.66 429.64 435.625 429.638 435.589C429.637 435.553 429.642 435.517 429.655 435.484C429.667 435.45 429.686 435.419 429.71 435.392C429.734 435.366 429.764 435.344 429.796 435.329C429.829 435.314 429.864 435.305 429.9 435.304Z" fill="#423B47"/>
<path d="M426.922 437.432C431.187 436.243 436.523 436.54 440.024 439.358C440.167 439.465 440.024 439.655 439.858 439.631C435.626 438.619 431.297 438.061 426.946 437.967C426.884 437.957 426.827 437.926 426.785 437.879C426.743 437.832 426.719 437.772 426.716 437.709C426.713 437.646 426.732 437.584 426.77 437.534C426.807 437.483 426.861 437.447 426.922 437.432Z" fill="#423B47"/>
<path d="M423.956 439.548C428.209 438.359 433.485 438.657 437.058 441.474C437.201 441.581 437.058 441.771 436.903 441.748C432.671 440.737 428.343 440.179 423.992 440.083C423.929 440.075 423.871 440.045 423.828 439.999C423.785 439.953 423.759 439.893 423.755 439.83C423.75 439.767 423.768 439.705 423.805 439.653C423.842 439.602 423.895 439.565 423.956 439.548Z" fill="#423B47"/>
<path d="M424.123 423.831C425.636 421.37 428.887 422.178 430.805 423.546C434.055 425.969 436.613 429.199 438.226 432.914C438.226 432.997 438.226 433.057 438.13 433.081C438.13 433.402 437.88 433.77 437.499 433.663C433.83 432.629 429.769 431.963 426.529 429.823C424.635 428.587 422.682 426.173 424.123 423.831ZM432.258 430.964C434.045 431.523 435.831 431.987 437.63 432.605C436.177 430.786 434.807 428.908 433.175 427.231C432.398 426.412 431.566 425.645 430.686 424.937C429.316 423.879 424.028 421.786 425.159 426.458C425.791 429.015 430.114 430.287 432.258 430.952V430.964Z" fill="#423B47"/>
<path d="M449.112 430.941C445.67 432.724 441.573 432.962 437.809 433.627C437.428 433.699 437.189 433.295 437.237 432.974C437.22 432.968 437.205 432.96 437.192 432.948C437.18 432.937 437.17 432.923 437.163 432.907C437.156 432.891 437.153 432.874 437.153 432.857C437.154 432.839 437.158 432.823 437.166 432.807C439.146 429.274 442.021 426.322 445.503 424.247C447.564 423.058 450.863 422.618 452.126 425.222C453.388 427.826 451.125 429.894 449.112 430.941ZM450.827 427.742C452.435 423.213 446.956 424.746 445.479 425.674C444.535 426.289 443.632 426.964 442.776 427.695C441.036 429.212 439.375 430.815 437.797 432.498C439.619 432.058 441.465 431.785 443.312 431.416C445.503 431.024 449.946 430.215 450.827 427.742Z" fill="#423B47"/>
<path d="M381.745 205.002C381.745 205.002 383.127 216.558 389.773 224.892C391.369 226.89 396.241 228.744 398.766 230.575C398.766 230.575 408.199 317.103 411.07 326.876C414.262 337.79 426.661 412.287 426.661 412.287L475.65 408.863C475.65 408.863 460.94 335.793 457.451 317.698C456.664 313.656 446.183 237.507 446.409 235.747C449.232 214.775 439.013 205.061 439.013 205.061L381.745 205.002Z" fill="#352D3A"/>
<path d="M419.621 206.274C420.575 209.572 422.593 212.464 425.362 214.501C428.417 216.672 432.037 217.911 435.784 218.068C436.415 218.068 436.463 219.067 435.784 219.078C428.137 219.078 420.407 214.24 419.287 206.322C419.287 206.143 419.514 206.108 419.621 206.274Z" fill="#3F3D56"/>
<path d="M388.867 224.548C391.642 225.657 394.289 227.06 396.764 228.732C399.384 230.349 401.814 232.299 404.351 233.999C404.446 234.071 404.351 234.225 404.256 234.166C401.6 232.644 398.836 231.312 396.204 229.743C393.574 228.305 391.078 226.634 388.748 224.75C388.665 224.678 388.748 224.5 388.867 224.548Z" fill="#28222C"/>
<path d="M387.783 208.628C388.2 210.376 388.7 212.112 389.165 213.847C389.629 215.583 389.939 217.141 390.451 218.746C390.874 220.307 391.743 221.712 392.953 222.788C393.62 223.359 394.358 223.846 395.073 224.369L396.264 225.201C396.204 224.964 396.145 224.726 396.097 224.488C395.942 223.834 395.799 223.168 395.656 222.503C395.347 221.028 395.037 219.554 394.739 218.068C394.156 215.167 393.548 212.23 392.869 209.365C392.876 209.347 392.888 209.331 392.904 209.32C392.92 209.309 392.939 209.303 392.959 209.303C392.978 209.303 392.997 209.309 393.013 209.32C393.029 209.331 393.041 209.347 393.048 209.365C393.905 212.207 394.846 215.013 395.609 217.878C395.99 219.281 397.419 226.2 397.491 226.735C397.562 227.27 397.634 227.758 397.681 228.269C397.77 228.787 397.794 229.314 397.753 229.838C397.742 229.861 397.725 229.88 397.704 229.894C397.683 229.907 397.659 229.914 397.634 229.914C397.608 229.914 397.584 229.907 397.563 229.894C397.542 229.88 397.525 229.861 397.514 229.838C397.277 229.364 397.105 228.86 397.002 228.34C396.847 227.841 396.716 227.341 396.597 226.842L396.49 226.283C395.775 225.891 395.108 225.368 394.441 224.928C393.774 224.488 392.988 224.001 392.309 223.477C391.042 222.508 390.099 221.177 389.606 219.661C389.104 218.027 388.75 216.352 388.546 214.656C388.236 212.682 387.974 210.685 387.605 208.711C387.581 208.569 387.759 208.509 387.783 208.628Z" fill="#28222C"/>
<path d="M429.042 403.774C450.291 401.396 468.765 400.398 470.361 400.386C471.695 400.386 470.969 400.576 470.361 400.671C452.364 403.204 429.864 403.988 429.09 403.964C429.078 403.968 429.065 403.968 429.052 403.966C429.039 403.964 429.027 403.96 429.016 403.953C429.005 403.947 428.995 403.938 428.987 403.928C428.98 403.917 428.974 403.906 428.971 403.893C428.968 403.881 428.967 403.868 428.969 403.855C428.971 403.842 428.975 403.83 428.982 403.819C428.989 403.808 428.997 403.798 429.008 403.79C429.018 403.783 429.03 403.777 429.042 403.774Z" fill="#28222C"/>
<path d="M382.924 181.319L378.934 214.18C378.934 214.18 432.402 213.705 445.635 212.456C445.635 212.456 433.367 151.501 418.728 136.367C411.415 128.805 403.053 129.578 397.836 135.118C396.514 136.509 380.899 158.159 379.398 166.327C378.1 173.544 382.924 181.319 382.924 181.319Z" fill="#F9E4B0"/>
<path d="M405.983 154.486C405.534 154.335 405.052 154.311 404.59 154.414C404.344 154.505 404.13 154.667 403.976 154.878C403.821 155.089 403.732 155.342 403.72 155.603C403.726 155.781 403.685 155.956 403.602 156.113C403.518 156.269 403.395 156.401 403.244 156.495C403.085 156.612 402.893 156.674 402.696 156.673C402.47 156.673 402.255 156.745 402.029 156.804C402.483 156.943 402.968 156.943 403.423 156.804C403.661 156.708 403.867 156.545 404.013 156.333C404.159 156.122 404.24 155.872 404.244 155.615C404.251 155.438 404.301 155.265 404.39 155.111C404.48 154.958 404.605 154.829 404.757 154.735C404.928 154.639 405.12 154.585 405.316 154.581C405.543 154.569 405.757 154.545 405.983 154.486Z" fill="white"/>
<path d="M393.774 198.059C393.325 197.909 392.843 197.884 392.381 197.987C392.136 198.079 391.924 198.241 391.772 198.452C391.619 198.664 391.533 198.916 391.523 199.176C391.526 199.353 391.483 199.527 391.4 199.683C391.317 199.839 391.195 199.972 391.047 200.068C390.878 200.173 390.686 200.234 390.487 200.246C390.273 200.246 390.046 200.318 389.832 200.377C390.286 200.516 390.771 200.516 391.225 200.377C391.47 200.272 391.678 200.098 391.824 199.876C391.97 199.654 392.048 199.394 392.047 199.129C392.048 198.953 392.094 198.781 392.182 198.629C392.27 198.476 392.396 198.35 392.548 198.261C392.721 198.158 392.918 198.101 393.119 198.094C393.338 198.094 393.557 198.082 393.774 198.059Z" fill="white"/>
<path d="M413.475 137.033C413.922 137.197 414.409 137.218 414.869 137.092C415.112 136.986 415.32 136.811 415.466 136.59C415.611 136.368 415.69 136.109 415.691 135.844C415.691 135.668 415.738 135.496 415.825 135.344C415.913 135.191 416.039 135.065 416.191 134.976C416.364 134.873 416.561 134.816 416.763 134.809H417.013L416.751 134.595C416.507 134.557 416.258 134.578 416.024 134.655C415.78 134.748 415.569 134.91 415.417 135.121C415.264 135.332 415.177 135.584 415.167 135.844C415.169 136.022 415.126 136.198 415.043 136.356C414.96 136.514 414.839 136.648 414.69 136.747C414.521 136.852 414.329 136.914 414.13 136.926C413.91 136.95 413.692 136.985 413.475 137.033Z" fill="white"/>
<path d="M423.29 172.711C422.84 172.567 422.359 172.543 421.896 172.64C421.651 172.732 421.439 172.894 421.284 173.105C421.13 173.316 421.04 173.568 421.027 173.829C421.031 174.008 420.99 174.184 420.907 174.343C420.823 174.501 420.701 174.635 420.551 174.733C420.387 174.839 420.198 174.901 420.003 174.911L419.336 175.03C419.783 175.193 420.27 175.214 420.729 175.089C420.976 174.988 421.187 174.815 421.334 174.592C421.481 174.369 421.556 174.107 421.551 173.841C421.556 173.665 421.606 173.493 421.696 173.341C421.785 173.19 421.912 173.063 422.063 172.973C422.233 172.872 422.425 172.815 422.623 172.806C422.849 172.795 423.088 172.771 423.29 172.711Z" fill="white"/>
<path d="M395.084 213.978H395.692C395.772 213.799 395.813 213.604 395.811 213.408C395.814 213.231 395.863 213.058 395.953 212.906C396.042 212.754 396.17 212.628 396.323 212.54C396.491 212.435 396.685 212.378 396.883 212.373C397.103 212.345 397.322 212.305 397.538 212.254C397.093 212.104 396.615 212.08 396.156 212.183C395.91 212.274 395.697 212.435 395.542 212.647C395.387 212.858 395.299 213.11 395.287 213.372C395.295 213.592 395.223 213.807 395.084 213.978Z" fill="white"/>
<path d="M410.057 191.151C409.607 191.001 409.125 190.976 408.663 191.08C408.418 191.17 408.205 191.331 408.052 191.543C407.899 191.755 407.813 192.008 407.805 192.269C407.806 192.446 407.761 192.621 407.676 192.777C407.59 192.933 407.467 193.065 407.317 193.161C407.156 193.272 406.965 193.334 406.769 193.339C406.555 193.339 406.329 193.41 406.114 193.47C406.565 193.606 407.045 193.606 407.496 193.47C407.734 193.373 407.938 193.209 408.084 192.997C408.23 192.786 408.311 192.537 408.318 192.281C408.324 192.103 408.374 191.93 408.464 191.777C408.553 191.624 408.679 191.494 408.83 191.401C409.001 191.304 409.193 191.251 409.39 191.246C409.616 191.27 409.83 191.246 410.057 191.151Z" fill="white"/>
<path d="M438.822 188.203C439.185 188.309 439.564 188.349 439.941 188.322C439.941 188.215 439.882 188.108 439.846 187.989C439.729 188.037 439.604 188.066 439.477 188.072C439.262 188.12 439.036 188.144 438.822 188.203Z" fill="white"/>
<path d="M433.807 195.086C433.357 194.936 432.875 194.911 432.413 195.015C432.168 195.107 431.956 195.268 431.804 195.48C431.651 195.691 431.565 195.943 431.555 196.204C431.558 196.381 431.516 196.555 431.432 196.711C431.349 196.867 431.227 196.999 431.079 197.096C430.913 197.206 430.719 197.268 430.519 197.274C430.305 197.274 430.079 197.345 429.864 197.405C430.318 197.543 430.804 197.543 431.258 197.405C431.502 197.3 431.71 197.126 431.856 196.904C432.003 196.682 432.08 196.422 432.08 196.156C432.08 195.981 432.127 195.808 432.214 195.656C432.302 195.504 432.428 195.377 432.58 195.289C432.752 195.184 432.95 195.131 433.152 195.134C433.354 195.17 433.58 195.146 433.807 195.086Z" fill="white"/>
<path d="M399.122 173.246C398.674 173.091 398.19 173.066 397.729 173.175C397.484 173.267 397.272 173.428 397.119 173.64C396.967 173.852 396.88 174.103 396.871 174.364C396.873 174.542 396.831 174.718 396.748 174.876C396.664 175.034 396.543 175.169 396.394 175.268C396.226 175.373 396.033 175.434 395.835 175.446C395.62 175.446 395.394 175.517 395.18 175.577C395.634 175.715 396.119 175.715 396.573 175.577C396.818 175.472 397.026 175.298 397.172 175.076C397.318 174.854 397.396 174.594 397.395 174.328C397.396 174.153 397.442 173.98 397.53 173.828C397.618 173.676 397.744 173.549 397.895 173.46C398.069 173.358 398.265 173.3 398.467 173.294C398.686 173.29 398.905 173.274 399.122 173.246Z" fill="white"/>
<path d="M413.904 147.637C414.111 148.062 414.433 148.42 414.833 148.672C415.077 148.779 415.348 148.812 415.611 148.765C415.874 148.719 416.117 148.595 416.31 148.41C416.436 148.284 416.59 148.192 416.761 148.14C416.931 148.088 417.112 148.079 417.286 148.113C417.477 148.154 417.654 148.244 417.799 148.375C417.989 148.505 418.156 148.636 418.358 148.755C418.096 148.398 417.918 147.958 417.406 147.733C417.158 147.634 416.887 147.61 416.626 147.665C416.365 147.72 416.127 147.851 415.94 148.042C415.811 148.161 415.654 148.246 415.484 148.29C415.313 148.333 415.135 148.334 414.964 148.291C414.773 148.244 414.597 148.15 414.452 148.018C414.277 147.88 414.094 147.753 413.904 147.637Z" fill="white"/>
<path d="M379.696 172.688C379.958 173.044 380.136 173.472 380.625 173.71C380.867 173.824 381.138 173.861 381.403 173.817C381.667 173.772 381.911 173.648 382.102 173.46C382.302 173.268 382.568 173.16 382.846 173.16C383.124 173.16 383.391 173.268 383.591 173.46L384.15 173.841C383.946 173.414 383.618 173.058 383.209 172.818C382.963 172.719 382.693 172.695 382.432 172.748C382.172 172.8 381.933 172.928 381.744 173.116C381.618 173.239 381.461 173.328 381.29 173.373C381.119 173.419 380.939 173.42 380.768 173.377C380.576 173.326 380.4 173.228 380.256 173.092C380.065 172.937 379.898 172.795 379.696 172.688Z" fill="white"/>
<path d="M402.839 138.84C402.688 139.288 402.664 139.769 402.767 140.231C402.858 140.476 403.019 140.688 403.232 140.841C403.444 140.993 403.697 141.079 403.958 141.087C404.136 141.087 404.311 141.131 404.468 141.216C404.624 141.302 404.756 141.425 404.852 141.574C404.964 141.735 405.026 141.925 405.03 142.121C405.03 142.335 405.102 142.561 405.161 142.775C405.3 142.322 405.3 141.837 405.161 141.384C405.062 141.149 404.897 140.947 404.686 140.804C404.474 140.66 404.226 140.581 403.97 140.576C403.792 140.57 403.619 140.52 403.465 140.431C403.311 140.342 403.182 140.216 403.089 140.064C402.992 139.894 402.939 139.702 402.934 139.506C402.91 139.256 402.839 139.042 402.839 138.84Z" fill="white"/>
<path d="M408.079 177.538C407.929 177.983 407.904 178.46 408.008 178.918C408.099 179.163 408.26 179.376 408.472 179.531C408.684 179.685 408.937 179.774 409.199 179.785C409.376 179.782 409.551 179.824 409.708 179.907C409.864 179.99 409.996 180.112 410.092 180.261C410.208 180.42 410.27 180.611 410.271 180.808C410.271 181.034 410.342 181.248 410.402 181.474C410.56 181.026 410.581 180.542 410.461 180.083C410.356 179.839 410.182 179.631 409.96 179.485C409.737 179.339 409.477 179.262 409.211 179.262C409.033 179.262 408.86 179.214 408.707 179.124C408.554 179.034 408.428 178.906 408.341 178.751C408.237 178.583 408.179 178.39 408.175 178.192C408.163 177.978 408.139 177.752 408.079 177.538Z" fill="white"/>
<path d="M380.744 206.345C380.593 206.794 380.569 207.275 380.672 207.736C380.764 207.981 380.926 208.192 381.138 208.345C381.35 208.497 381.602 208.583 381.864 208.592C382.041 208.589 382.216 208.631 382.372 208.714C382.529 208.797 382.661 208.919 382.757 209.068C382.872 209.232 382.935 209.427 382.935 209.627C382.935 209.841 383.007 210.067 383.067 210.281C383.199 209.827 383.199 209.344 383.067 208.89C382.964 208.656 382.799 208.455 382.588 208.31C382.378 208.165 382.131 208.081 381.875 208.069C381.698 208.067 381.524 208.02 381.37 207.933C381.216 207.846 381.087 207.721 380.994 207.57C380.895 207.396 380.842 207.2 380.839 206.999C380.827 206.785 380.803 206.607 380.744 206.345Z" fill="white"/>
<path d="M429.46 178.917C429.316 179.367 429.291 179.846 429.388 180.308C429.48 180.553 429.642 180.764 429.854 180.917C430.066 181.069 430.318 181.155 430.579 181.164C430.759 181.165 430.936 181.209 431.094 181.294C431.252 181.379 431.386 181.502 431.485 181.652C431.592 181.815 431.653 182.004 431.663 182.199C431.663 182.413 431.663 182.639 431.782 182.865C431.927 182.412 431.927 181.926 431.782 181.474C431.684 181.237 431.519 181.034 431.308 180.888C431.097 180.743 430.848 180.661 430.591 180.653C430.415 180.648 430.243 180.598 430.091 180.509C429.939 180.42 429.812 180.293 429.722 180.142C429.621 179.972 429.563 179.78 429.555 179.583C429.543 179.357 429.519 179.143 429.46 178.917Z" fill="white"/>
<path d="M419.002 156.507C418.847 156.954 418.819 157.435 418.919 157.898C419.012 158.142 419.174 158.353 419.386 158.507C419.597 158.661 419.848 158.751 420.11 158.766C420.289 158.761 420.466 158.802 420.624 158.886C420.783 158.969 420.917 159.091 421.015 159.241C421.122 159.405 421.183 159.593 421.194 159.788C421.194 160.014 421.265 160.228 421.325 160.454C421.463 160.001 421.463 159.516 421.325 159.063C421.227 158.825 421.063 158.621 420.851 158.476C420.64 158.33 420.39 158.249 420.133 158.243C419.957 158.237 419.785 158.188 419.633 158.098C419.481 158.009 419.354 157.883 419.264 157.731C419.163 157.562 419.105 157.37 419.097 157.173C419.077 156.949 419.045 156.727 419.002 156.507Z" fill="white"/>
<path d="M388.391 161.203C388.24 161.651 388.215 162.132 388.319 162.594C388.409 162.839 388.571 163.052 388.783 163.204C388.996 163.357 389.249 163.442 389.51 163.45C389.688 163.449 389.864 163.493 390.02 163.578C390.176 163.663 390.308 163.787 390.404 163.937C390.516 164.098 390.578 164.288 390.582 164.484C390.582 164.698 390.654 164.924 390.713 165.138C390.852 164.685 390.852 164.2 390.713 163.747C390.614 163.512 390.449 163.31 390.238 163.167C390.026 163.023 389.778 162.944 389.522 162.939C389.344 162.932 389.171 162.882 389.017 162.793C388.864 162.704 388.734 162.578 388.641 162.428C388.544 162.257 388.491 162.065 388.486 161.869C388.474 161.643 388.45 161.429 388.391 161.203Z" fill="white"/>
<path d="M416.68 200.413C416.529 200.861 416.504 201.342 416.608 201.804C416.7 202.048 416.862 202.26 417.074 202.412C417.286 202.564 417.538 202.651 417.799 202.66C417.976 202.657 418.151 202.7 418.307 202.783C418.463 202.866 418.596 202.987 418.693 203.135C418.803 203.301 418.865 203.495 418.871 203.694C418.871 203.908 418.943 204.134 419.002 204.348C419.141 203.895 419.141 203.41 419.002 202.957C418.901 202.722 418.736 202.521 418.525 202.375C418.315 202.23 418.067 202.148 417.811 202.137C417.633 202.137 417.459 202.091 417.304 202.004C417.15 201.916 417.021 201.79 416.93 201.637C416.831 201.463 416.778 201.267 416.775 201.067C416.763 200.853 416.739 200.663 416.68 200.413Z" fill="white"/>
<path d="M426.66 206.345C426.522 206.819 426.522 207.322 426.66 207.796C426.753 208.039 426.916 208.25 427.127 208.402C427.339 208.554 427.591 208.641 427.851 208.652C428.03 208.65 428.206 208.692 428.364 208.775C428.523 208.858 428.657 208.979 428.757 209.127C428.862 209.296 428.923 209.488 428.935 209.686C428.963 209.906 429.003 210.124 429.054 210.34C429.199 209.888 429.199 209.402 429.054 208.949C428.952 208.715 428.787 208.514 428.576 208.369C428.366 208.224 428.119 208.141 427.863 208.129C427.687 208.128 427.515 208.082 427.362 207.994C427.21 207.907 427.083 207.781 426.994 207.629C426.891 207.456 426.833 207.26 426.827 207.059C426.779 206.785 426.756 206.607 426.66 206.345Z" fill="white"/>
<path d="M394.024 148.743C393.825 148.314 393.501 147.954 393.095 147.709C392.853 147.597 392.582 147.56 392.318 147.605C392.054 147.649 391.81 147.773 391.618 147.959C391.419 148.151 391.152 148.259 390.874 148.259C390.596 148.259 390.329 148.151 390.13 147.959C389.939 147.84 389.772 147.697 389.57 147.578C389.778 148.006 390.11 148.363 390.523 148.601C390.767 148.702 391.036 148.728 391.295 148.675C391.554 148.622 391.791 148.492 391.976 148.303C392.105 148.18 392.263 148.091 392.436 148.046C392.609 148 392.791 147.999 392.964 148.042C393.156 148.093 393.332 148.191 393.477 148.327C393.655 148.482 393.834 148.624 394.024 148.743Z" fill="white"/>
<path d="M411.486 166.268C411.287 165.838 410.963 165.478 410.557 165.233C410.315 165.121 410.044 165.085 409.78 165.129C409.516 165.174 409.272 165.297 409.08 165.483C408.88 165.675 408.614 165.783 408.336 165.783C408.058 165.783 407.791 165.675 407.591 165.483C407.401 165.364 407.234 165.221 407.032 165.103C407.236 165.533 407.569 165.891 407.985 166.125C408.229 166.226 408.498 166.252 408.757 166.199C409.016 166.146 409.253 166.017 409.438 165.828C409.565 165.705 409.721 165.616 409.892 165.57C410.063 165.524 410.243 165.523 410.414 165.566C410.61 165.615 410.791 165.714 410.938 165.852C411.117 166.006 411.296 166.184 411.486 166.268Z" fill="white"/>
<path d="M423.588 190.046C423.376 189.624 423.056 189.267 422.659 189.011C422.416 188.901 422.145 188.865 421.882 188.91C421.619 188.954 421.375 189.077 421.182 189.261C421.059 189.39 420.904 189.486 420.733 189.538C420.562 189.59 420.38 189.597 420.205 189.558C420.011 189.516 419.831 189.426 419.681 189.297C419.502 189.178 419.324 189.035 419.133 188.928C419.383 189.285 419.562 189.725 420.074 189.939C420.32 190.039 420.591 190.065 420.852 190.012C421.113 189.959 421.352 189.83 421.539 189.641C421.666 189.518 421.822 189.429 421.993 189.384C422.164 189.338 422.344 189.337 422.516 189.38C422.708 189.431 422.884 189.529 423.028 189.665C423.219 189.796 423.385 189.962 423.588 190.046Z" fill="white"/>
<path d="M394.954 187.585C394.739 187.165 394.419 186.809 394.025 186.55C393.781 186.441 393.51 186.408 393.246 186.454C392.983 186.501 392.74 186.625 392.548 186.812C392.422 186.937 392.267 187.029 392.097 187.081C391.926 187.133 391.746 187.142 391.571 187.109C391.378 187.067 391.197 186.977 391.047 186.848C390.872 186.71 390.689 186.583 390.499 186.467C390.704 186.894 391.032 187.25 391.44 187.49C391.688 187.589 391.959 187.612 392.22 187.557C392.481 187.502 392.719 187.371 392.905 187.18C393.033 187.058 393.19 186.971 393.361 186.927C393.532 186.884 393.712 186.885 393.882 186.931C394.073 186.978 394.249 187.072 394.394 187.204C394.573 187.342 394.76 187.469 394.954 187.585Z" fill="white"/>
<path d="M405.936 204.907C405.728 204.483 405.406 204.125 405.007 203.872C404.762 203.765 404.491 203.732 404.228 203.779C403.965 203.825 403.722 203.949 403.53 204.134C403.406 204.263 403.251 204.357 403.08 204.409C402.909 204.461 402.728 204.469 402.553 204.431C402.362 204.391 402.185 204.3 402.041 204.17C401.85 204.039 401.683 203.908 401.481 203.789C401.689 204.218 402.021 204.574 402.434 204.812C402.681 204.911 402.953 204.934 403.213 204.879C403.474 204.824 403.713 204.693 403.899 204.503C404.028 204.383 404.185 204.298 404.356 204.254C404.526 204.211 404.705 204.21 404.875 204.253C405.069 204.301 405.245 204.399 405.388 204.538C405.566 204.657 405.745 204.8 405.936 204.907Z" fill="white"/>
<path d="M440.537 201.483C440.787 201.851 440.978 202.291 441.49 202.505C441.734 202.606 442.003 202.632 442.262 202.579C442.521 202.526 442.758 202.397 442.943 202.208C443.052 202.099 443.187 202.021 443.336 201.982C443.336 201.828 443.253 201.661 443.217 201.495C442.981 201.55 442.764 201.664 442.586 201.828C442.463 201.958 442.308 202.054 442.137 202.106C441.966 202.158 441.783 202.165 441.609 202.125C441.417 202.086 441.24 201.996 441.097 201.863C440.954 201.744 440.739 201.602 440.537 201.483Z" fill="white"/>
<path d="M432.878 166.826C432.665 166.402 432.34 166.044 431.937 165.792C431.694 165.681 431.423 165.646 431.16 165.69C430.897 165.735 430.653 165.857 430.46 166.042C430.337 166.172 430.183 166.268 430.011 166.321C429.84 166.373 429.658 166.379 429.483 166.339C429.293 166.298 429.116 166.208 428.971 166.077C428.781 165.959 428.614 165.816 428.411 165.697C428.673 166.066 428.852 166.505 429.364 166.719C429.611 166.82 429.881 166.845 430.142 166.793C430.403 166.74 430.642 166.611 430.829 166.422C430.956 166.299 431.112 166.21 431.283 166.164C431.454 166.119 431.634 166.117 431.806 166.161C431.998 166.212 432.174 166.31 432.318 166.446C432.498 166.582 432.685 166.709 432.878 166.826Z" fill="white"/>
<path d="M380.839 198.82C381.364 195.812 381.745 193.458 382.185 190.497C382.626 187.537 383.079 184.47 383.472 181.45V181.248L383.341 181.058C381.828 178.762 380.743 176.212 380.137 173.532C379.82 172.204 379.668 170.842 379.684 169.478C379.669 168.115 379.853 166.757 380.232 165.447C381.059 162.78 382.119 160.19 383.4 157.708C384.663 155.199 385.699 153.095 387.105 150.645C387.343 150.265 387.188 150.182 386.974 150.479C385.556 152.488 384.008 155.235 382.793 157.387C381.346 159.849 380.149 162.45 379.22 165.15C378.769 166.545 378.536 168 378.529 169.466C378.501 170.921 378.653 172.375 378.981 173.793C379.619 176.632 380.8 179.32 382.459 181.711L382.364 181.319C382.019 184.351 381.733 187.382 381.447 190.414C381.173 193.137 380.863 196.085 380.673 198.82C380.673 199.069 380.661 199.925 380.839 198.82Z" fill="#BDA876"/>
<path d="M384.544 152.904C383.963 153.794 383.488 154.747 383.127 155.746C382.94 156.242 382.789 156.75 382.674 157.268C382.537 157.788 382.465 158.323 382.46 158.861C382.912 157.886 383.329 156.935 383.651 155.948C384.04 154.963 384.339 153.944 384.544 152.904Z" fill="#BDA876"/>
<path d="M416.167 143.227C420.514 149.778 441.06 175.565 441.823 178.038C442.585 180.511 437.928 185.647 437.975 186.657C438.154 190.759 448.505 215.464 452.173 212.813C456.938 209.377 474.22 187.704 471.921 176.278C469.623 164.853 425.469 136.367 418.203 133.692C410.938 131.017 411.879 136.771 416.167 143.227Z" fill="#D4A29E"/>
<path d="M432.854 221.706C430.067 219.079 434.772 217.307 434.772 217.307C434.772 217.307 427.387 218.235 425.565 214.418C423.742 210.602 429.579 208.795 429.984 208.64C429.591 208.64 422.837 209.365 421.36 205.335C419.883 201.305 425.982 200.199 426.375 200.139C425.994 200.056 420.955 199.01 420.562 195.705C419.895 190.034 434.569 191.793 438.262 188.999C438.262 188.999 438.024 181.604 437.952 181.39C438.634 183.149 439.894 184.625 441.525 185.575C444.539 186.99 447.29 187.953 448.327 189.689C448.813 190.446 449.042 191.34 448.98 192.237C448.917 193.134 448.567 193.987 447.981 194.671C447.981 194.671 452.043 194.873 453.27 197.999C453.901 199.616 451.876 202.042 451.876 202.042C452.792 202.134 453.665 202.477 454.399 203.033C455.132 203.589 455.698 204.336 456.033 205.192C456.771 207.463 454.627 209.544 454.627 209.544C454.627 209.544 457.629 211.268 457.629 213.836C457.629 219.019 438.822 227.33 432.854 221.706Z" fill="#D4A29E"/>
<path d="M454.329 209.936C454.329 209.936 454.448 209.936 454.329 210.019C448.63 214.433 441.723 217.016 434.521 217.426C434.295 217.426 434.188 217.069 434.438 217.01C441.377 215.628 448.078 213.245 454.329 209.936Z" fill="#C18C88"/>
<path d="M451.972 202.042C452.043 202.042 452.103 202.113 452.043 202.172C445.692 206.987 437.826 209.378 429.865 208.913C429.579 208.913 429.353 208.58 429.674 208.592C435.094 208.652 446.147 205.228 451.972 202.042Z" fill="#C18C88"/>
<path d="M425.827 199.89C433.617 200.27 440.739 198.13 447.743 194.873C447.838 194.873 447.886 194.956 447.826 195.015C444.837 197.548 440.156 199.153 436.404 200.104C432.94 201.044 429.289 201.065 425.815 200.163C425.684 200.127 425.66 199.878 425.827 199.89Z" fill="#C18C88"/>
<path d="M454.83 209.567C455.56 209.029 456.127 208.3 456.469 207.462C456.812 206.623 456.916 205.706 456.772 204.812C456.547 203.931 456.004 203.164 455.247 202.66C454.341 202.176 453.332 201.915 452.305 201.899C452.991 201.203 453.451 200.317 453.623 199.355C453.795 198.394 453.672 197.403 453.27 196.513C452.802 195.724 452.046 195.145 451.162 194.896C450.138 194.635 449.085 194.507 448.029 194.516C448.542 194.08 448.946 193.531 449.209 192.911C449.471 192.292 449.585 191.62 449.542 190.949C449.469 190.214 449.221 189.507 448.82 188.886C448.418 188.266 447.873 187.75 447.231 187.383C445.726 186.543 444.127 185.885 442.467 185.421C441.632 185.146 440.833 184.775 440.084 184.315C439.288 183.765 438.667 182.997 438.298 182.104C438.226 181.949 438.214 182.104 438.298 182.235C438.533 182.844 438.867 183.41 439.286 183.911C439.73 184.437 440.243 184.901 440.811 185.29C442.242 186.117 443.736 186.833 445.278 187.43C446.616 188.033 447.72 189.056 448.422 190.343C448.724 191.015 448.833 191.758 448.736 192.489C448.64 193.22 448.341 193.909 447.874 194.48C447.864 194.496 447.857 194.514 447.856 194.533C447.855 194.552 447.859 194.571 447.867 194.588C447.876 194.605 447.889 194.619 447.904 194.629C447.92 194.64 447.939 194.646 447.957 194.647C448.897 194.783 449.814 195.042 450.685 195.419C451.41 195.738 452.02 196.269 452.436 196.941C452.79 197.759 452.923 198.655 452.82 199.54C452.718 200.425 452.384 201.267 451.852 201.982C452.844 202.212 453.787 202.615 454.639 203.171C455.2 203.624 455.614 204.232 455.831 204.919C456.067 205.697 456.081 206.526 455.87 207.312C455.66 208.097 455.233 208.809 454.639 209.365C454.637 209.385 454.637 209.405 454.639 209.425C454.639 209.425 454.639 209.425 454.639 209.484C454.639 209.484 455.58 210.067 455.64 210.079C455.7 210.09 455.64 210.079 455.64 210.079C455.383 209.888 455.113 209.717 454.83 209.567Z" fill="#C18C88"/>
<path d="M427.316 159.134L445.527 149.064C445.527 149.064 426.97 136.771 418.347 133.24C409.723 129.709 409.533 138.043 427.316 159.134Z" fill="#BDA876"/>
<path d="M409.258 129.257C412.153 130.446 412.963 132.515 412.057 134.94C411.057 137.663 402.684 142.953 399.206 141.17C396.204 139.624 398.801 132.455 400.397 130.838C401.602 129.818 403.058 129.134 404.614 128.856C406.17 128.578 407.773 128.717 409.258 129.257Z" fill="#263238"/>
<path d="M411.177 134.31C410.736 135.297 404.507 141.015 399.837 139.874C398.313 139.494 399.992 131.124 399.992 131.124V130.47L399.754 121.422L411.177 116.881L412.82 116.31C412.82 116.31 412.725 118.783 412.57 121.874C412.57 122.017 412.57 122.159 412.57 122.314C412.57 122.469 412.57 122.647 412.57 122.813C412.57 123.277 412.57 123.753 412.511 124.216C412.451 124.68 412.511 124.918 412.427 125.298C412.344 125.679 412.427 126.035 412.344 126.416C412.14 129.071 411.75 131.709 411.177 134.31Z" fill="#D4A29E"/>
<path d="M412.618 121.874C411.269 124.146 409.439 126.097 407.256 127.59C405.073 129.083 402.59 130.082 399.98 130.517L399.742 121.47L411.177 116.881L412.82 116.31C412.82 116.31 412.773 118.783 412.618 121.874Z" fill="#C18C88"/>
<path d="M389.129 107.441C386.854 123.17 396.026 126.297 399.432 126.784C402.517 127.224 413.07 128.342 416.965 112.933C420.86 97.5253 414.249 91.5333 407.246 90.1185C400.242 88.7037 391.404 91.7116 389.129 107.441Z" fill="#D4A29E"/>
<path d="M393.31 103.66C393.676 103.66 394.042 103.637 394.406 103.589C394.797 103.624 395.188 103.523 395.513 103.303C395.604 103.218 395.663 103.105 395.68 102.981C395.698 102.858 395.672 102.733 395.609 102.626C395.456 102.427 395.253 102.274 395.02 102.181C394.787 102.089 394.534 102.062 394.286 102.103C393.775 102.103 393.282 102.293 392.905 102.638C392.825 102.721 392.771 102.826 392.749 102.94C392.727 103.053 392.738 103.17 392.781 103.278C392.823 103.385 392.896 103.478 392.989 103.546C393.083 103.614 393.194 103.653 393.31 103.66Z" fill="#3B3241"/>
<path d="M403.887 105.61C403.539 105.501 403.198 105.374 402.863 105.229C402.478 105.148 402.131 104.944 401.874 104.647C401.815 104.536 401.794 104.409 401.813 104.284C401.832 104.16 401.891 104.045 401.981 103.957C402.186 103.813 402.425 103.727 402.674 103.706C402.923 103.685 403.173 103.731 403.399 103.838C403.894 103.982 404.319 104.304 404.59 104.742C404.646 104.847 404.67 104.966 404.658 105.085C404.647 105.203 404.601 105.315 404.526 105.408C404.451 105.5 404.351 105.569 404.237 105.605C404.124 105.641 404.002 105.643 403.887 105.61Z" fill="#3B3241"/>
<path d="M400.671 109.117C400.671 109.117 400.754 109.189 400.743 109.224C400.528 110.294 400.457 111.543 401.361 112.054C401.361 112.054 401.361 112.125 401.361 112.113C400.195 111.757 400.302 110.092 400.671 109.117Z" fill="#263238"/>
<path d="M401.815 108.166C403.554 108.332 403.113 111.792 401.493 111.638C399.873 111.483 400.362 108.035 401.815 108.166Z" fill="#3B3241"/>
<path d="M402.47 108.44C402.756 108.677 403.006 109.058 403.363 109.141C403.72 109.224 404.149 108.915 404.471 108.606C404.387 109.272 404.042 109.914 403.28 109.926C402.517 109.938 402.231 109.284 402.089 108.594C402.231 108.511 402.362 108.344 402.47 108.44Z" fill="#3B3241"/>
<path d="M394.787 107.928C394.787 107.928 394.691 107.928 394.691 108.012C394.596 109.094 394.298 110.306 393.286 110.556V110.615C394.501 110.544 394.87 108.915 394.787 107.928Z" fill="#263238"/>
<path d="M393.965 106.644C392.25 106.3 391.69 109.747 393.275 110.068C394.859 110.389 395.395 106.93 393.965 106.644Z" fill="#3B3241"/>
<path d="M393.203 106.739C392.905 106.882 392.572 107.167 392.25 107.144C391.929 107.12 391.643 106.68 391.464 106.288C391.333 106.942 391.464 107.655 392.06 107.893C392.655 108.13 393.132 107.595 393.394 106.965C393.394 106.894 393.31 106.739 393.203 106.739Z" fill="#3B3241"/>
<path d="M395.799 113.326C395.799 113.326 395.358 114.895 395.251 115.704C395.251 115.775 395.418 115.835 395.668 115.894C396.3 116.101 396.977 116.132 397.626 115.983C398.274 115.834 398.87 115.512 399.348 115.05C399.36 115.036 399.367 115.018 399.368 114.999C399.369 114.98 399.363 114.962 399.352 114.947C399.341 114.932 399.325 114.921 399.308 114.916C399.29 114.911 399.27 114.912 399.253 114.919C398.196 115.443 396.997 115.614 395.835 115.407C395.835 115.181 396.692 112.743 396.573 112.72C395.978 112.688 395.381 112.736 394.798 112.862C395.632 109.569 397.002 106.43 397.776 103.137C397.777 103.115 397.771 103.092 397.758 103.074C397.746 103.055 397.728 103.041 397.707 103.033C397.686 103.025 397.663 103.024 397.641 103.03C397.619 103.036 397.6 103.048 397.586 103.066C396.026 106.38 394.801 109.841 393.929 113.397C393.846 113.754 395.477 113.409 395.799 113.326Z" fill="#C18C88"/>
<path d="M416.977 111.65C413.237 111.388 413.725 105.515 413.725 105.515C413.725 105.515 409.509 104.801 409.735 97.9534C408.803 99.2602 407.58 100.333 406.163 101.088C404.745 101.843 403.171 102.26 401.564 102.305C400.373 102.388 404.649 99.5584 404.649 99.5584C404.649 99.5584 399.42 103.601 390.487 101.223C389.856 101.056 391.333 90.6298 398.706 87.931C406.079 85.2322 412.999 88.5492 417.013 93.3643C417.013 93.3643 422.039 96.1582 422.242 101.14C422.444 106.121 418.43 111.745 416.977 111.65Z" fill="#3B3241"/>
<path d="M402.839 115.24C403.795 115.295 404.748 115.081 405.589 114.622C406.43 114.163 407.125 113.478 407.595 112.645C408.065 111.812 408.292 110.863 408.249 109.908C408.206 108.952 407.896 108.028 407.353 107.24C406.81 106.452 406.056 105.831 405.178 105.449C404.3 105.067 403.331 104.939 402.384 105.079C401.436 105.219 400.546 105.621 399.816 106.24C399.086 106.86 398.544 107.671 398.253 108.582C398.013 109.325 397.947 110.113 398.06 110.885C398.173 111.657 398.463 112.394 398.906 113.037C399.349 113.68 399.933 114.213 400.615 114.595C401.297 114.977 402.058 115.198 402.839 115.24ZM403.398 105.729C404.322 105.784 405.205 106.126 405.925 106.706C406.645 107.287 407.165 108.077 407.413 108.967C407.661 109.857 407.624 110.802 407.308 111.67C406.992 112.538 406.413 113.286 405.65 113.809C404.888 114.333 403.981 114.605 403.056 114.589C402.131 114.573 401.234 114.27 400.49 113.72C399.746 113.171 399.193 112.403 398.907 111.525C398.621 110.646 398.617 109.701 398.896 108.82C399.188 107.882 399.784 107.066 400.59 106.503C401.396 105.939 402.367 105.658 403.351 105.705L403.398 105.729Z" fill="#F9E4B0"/>
<path d="M391.213 113.136C393.167 113.255 395.06 111.352 395.537 108.725C395.776 107.471 395.618 106.175 395.084 105.015C394.887 104.503 394.56 104.05 394.135 103.701C393.711 103.352 393.203 103.118 392.662 103.022C392.12 102.927 391.563 102.972 391.044 103.155C390.525 103.337 390.062 103.651 389.701 104.064C388.803 104.971 388.211 106.135 388.009 107.393C387.521 110.175 388.807 112.731 390.88 113.1C390.989 113.124 391.101 113.136 391.213 113.136ZM392.285 103.624H392.547C392.987 103.724 393.395 103.93 393.736 104.224C394.077 104.519 394.339 104.893 394.501 105.313C394.963 106.345 395.096 107.495 394.882 108.606C394.453 110.984 392.726 112.731 391.023 112.422C389.319 112.113 388.283 109.926 388.712 107.512C388.891 106.396 389.411 105.362 390.201 104.552C390.469 104.269 390.792 104.044 391.151 103.891C391.509 103.737 391.895 103.659 392.285 103.66V103.624Z" fill="#F9E4B0"/>
<path d="M398.265 109.2L398.789 108.76C398.146 107.976 396.526 106.811 395.061 107.904L395.466 108.451C396.776 107.465 398.205 109.117 398.265 109.2Z" fill="#F9E4B0"/>
<path d="M420.538 114.455L421.193 114.253C421.098 113.956 420.217 111.269 418.811 110.758C417.406 110.247 408.246 109.569 407.853 109.498V110.187C410.497 110.401 417.584 111.031 418.644 111.376C419.704 111.721 420.3 113.718 420.538 114.455Z" fill="#F9E4B0"/>
<path d="M414.285 113.778C414.285 113.778 418.037 109.022 420.241 110.389C422.444 111.757 419.407 118.783 416.667 119.615C416.325 119.754 415.958 119.822 415.589 119.813C415.219 119.804 414.856 119.72 414.521 119.565C414.185 119.41 413.886 119.187 413.64 118.912C413.395 118.636 413.209 118.313 413.094 117.963L414.285 113.778Z" fill="#D4A29E"/>
<path d="M416.68 95.4924C414.428 93.709 409.628 81.1424 420.479 75.614C431.33 70.0856 443.336 84.1503 435.284 93.8279C429.865 100.319 421.444 99.2731 416.68 95.4924Z" fill="#3B3241"/>
<path d="M55.1367 348.835C46.5847 331.287 31.6247 322.287 14.7708 327.257C-2.08306 332.226 -4.70345 355.707 7.88634 361.628C20.4761 367.548 33.054 350.25 39.7002 346.695C46.3465 343.14 55.1367 348.835 55.1367 348.835Z" fill="#F9E4B0"/>
<path d="M63.379 395.523C63.379 393.407 63.2479 391.291 63.1765 389.175C63.0216 384.954 62.8787 380.733 62.7239 376.513C62.438 368.797 61.6042 361.212 58.4002 354.09C55.5704 347.636 50.8382 342.195 44.8337 338.492C42.6006 337.153 40.1968 336.121 37.6872 335.424C35.4109 333.127 32.5139 331.541 29.3496 330.859C25.4273 330.065 21.3959 329.965 17.4388 330.562C17.2959 330.562 17.2959 330.811 17.4388 330.788C21.1948 330.313 25.0079 330.584 28.6588 331.584C30.2237 332.015 31.7402 332.605 33.1849 333.344C34.0913 333.834 34.9629 334.386 35.7934 334.996C32.3919 334.291 28.8784 334.323 25.4905 335.091C24.2697 335.392 23.0748 335.79 21.9173 336.28C20.994 336.083 20.0496 336.003 19.1063 336.043C17.8761 336.086 16.6541 336.261 15.4616 336.566C13.021 337.255 10.6852 338.271 8.51757 339.586C8.39846 339.657 8.51757 339.847 8.63668 339.776C10.766 338.617 13.0471 337.76 15.414 337.231C16.5583 336.971 17.7211 336.8 18.8919 336.72C19.5346 336.685 20.1788 336.685 20.8215 336.72C16.016 338.931 12.1535 342.774 9.92304 347.563C9.86348 347.694 10.066 347.801 10.1136 347.67C11.4422 344.892 13.3823 342.449 15.7892 340.524C18.1961 338.599 21.0075 337.242 24.0136 336.554C24.3828 336.459 24.764 336.411 25.1332 336.328C25.0022 336.875 25.026 337.517 24.9545 338.028C24.8473 338.884 24.7044 339.728 24.5258 340.572C24.1828 342.312 23.7252 344.028 23.156 345.708C22.5843 347.411 21.9039 349.074 21.1192 350.69C20.3525 352.379 19.3933 353.975 18.2606 355.445C18.1653 355.564 18.3559 355.707 18.4393 355.576C19.4517 353.995 20.6309 352.533 21.56 350.821C22.4466 349.253 23.2111 347.619 23.8468 345.934C24.4895 344.222 24.9914 342.461 25.3476 340.667C25.5382 339.728 25.6811 338.777 25.7883 337.814C25.9072 337.244 25.9433 336.659 25.8955 336.078C27.867 335.78 29.8691 335.74 31.8509 335.959C31.1005 340.144 30.2906 344.496 27.9442 348.134C27.8727 348.253 28.0752 348.371 28.1467 348.241C29.2456 346.327 30.2126 344.341 31.041 342.296C31.8558 340.347 32.3969 338.294 32.649 336.197C36.1282 336.663 39.487 337.785 42.5469 339.502C48.3078 342.85 52.9078 347.873 55.7322 353.9C58.7006 360.389 60.3599 367.398 60.6156 374.527C61.1754 383.492 61.2946 392.503 62.1879 401.444C62.2474 402.027 63.1765 402.229 63.2837 401.563C63.509 399.557 63.5409 397.535 63.379 395.523Z" fill="#333145"/>
<path d="M43.6548 337.089C43.0906 336.407 42.4377 335.803 41.7133 335.294C41.0106 334.723 40.2959 334.164 39.5455 333.653C38.0611 332.641 36.419 331.882 34.6859 331.406C34.6575 331.398 34.6271 331.402 34.6014 331.416C34.5757 331.431 34.5569 331.455 34.549 331.483C34.5411 331.512 34.5448 331.542 34.5593 331.567C34.5738 331.593 34.5979 331.612 34.6263 331.62C36.3636 332.071 37.9867 332.881 39.3907 333.998C40.1053 334.521 40.7843 335.08 41.4513 335.662C42.0495 336.281 42.7079 336.838 43.4165 337.327C43.4322 337.342 43.4508 337.355 43.4712 337.363C43.4917 337.372 43.5135 337.376 43.5357 337.376C43.5578 337.376 43.5797 337.372 43.6001 337.363C43.6206 337.355 43.6391 337.342 43.6548 337.327C43.6704 337.311 43.6828 337.292 43.6913 337.272C43.6997 337.252 43.7041 337.23 43.7041 337.208C43.7041 337.186 43.6997 337.164 43.6913 337.143C43.6828 337.123 43.6704 337.104 43.6548 337.089Z" fill="#333145"/>
<path d="M16.3673 343.449C14.954 345.09 13.6452 346.817 12.4486 348.621C11.281 350.443 10.3032 352.379 9.53043 354.399C9.53043 354.459 9.60189 354.494 9.63762 354.399C11.5941 350.583 13.9029 346.957 16.5341 343.568C16.6293 343.485 16.4626 343.331 16.3673 343.449Z" fill="#333145"/>
<path d="M34.7932 341.714C34.6155 342.81 34.291 343.878 33.8284 344.888C33.3609 345.863 32.8194 346.801 32.2085 347.694C32.2085 347.753 32.2085 347.813 32.3038 347.765C33.777 346.071 34.7211 343.984 35.0195 341.761C34.9957 341.619 34.7932 341.571 34.7932 341.714Z" fill="#333145"/>
<path d="M62.1883 349.275C62.1883 349.275 74.2897 334.093 97.6469 339.467C119.861 344.591 130.104 385.227 107.664 390.09C85.2239 394.953 89.1783 357.348 81.0074 350.963C75.0401 346.267 66.4166 347.278 62.1883 349.275Z" fill="#F9E4B0"/>
<path opacity="0.1" d="M62.1883 349.275C62.1883 349.275 74.2897 334.093 97.6469 339.467C119.861 344.591 130.104 385.227 107.664 390.09C85.2239 394.953 89.1783 357.348 81.0074 350.963C75.0401 346.267 66.4166 347.278 62.1883 349.275Z" fill="black"/>
<path d="M115.727 361.651C114.221 360.325 112.629 359.098 110.963 357.978C109.379 356.892 107.651 356.032 105.83 355.422C103.264 351.498 99.8025 348.238 95.7291 345.91C95.9593 345.899 96.1898 345.899 96.42 345.91C97.6578 345.845 98.8983 345.845 100.136 345.91C102.628 346.063 105.071 346.672 107.342 347.706C107.473 347.706 107.569 347.551 107.438 347.504C105.147 346.505 102.749 345.775 100.291 345.328C99.0875 345.118 97.8679 345.015 96.6463 345.019C95.9912 345.019 95.3242 345.019 94.681 345.138H94.2998C92.1569 344.063 89.8994 343.234 87.5702 342.665L88.2134 342.498C89.356 342.238 90.5135 342.047 91.6795 341.928C94.0048 341.66 96.3551 341.696 98.6711 342.035C98.695 342.027 98.7157 342.012 98.7304 341.991C98.7451 341.971 98.753 341.947 98.753 341.922C98.753 341.897 98.7451 341.872 98.7304 341.852C98.7157 341.832 98.695 341.817 98.6711 341.809C96.3279 341.529 93.9662 341.434 91.608 341.523C89.6307 341.589 87.6643 341.843 85.7359 342.284C84.3263 342.032 82.9021 341.869 81.4718 341.797C73.3248 341.464 64.4512 344.496 59.4367 351.177C54.4223 357.859 53.4813 366.799 52.5523 374.86C51.1838 386.105 50.8847 397.454 51.659 408.756C51.659 409.422 52.6476 409.303 52.6714 408.673C52.9692 399.09 53.3146 389.507 54.2317 379.949C54.6605 375.526 55.125 371.091 55.8635 366.704C56.3985 362.933 57.4819 359.261 59.0794 355.802C60.821 352.271 63.5626 349.328 66.9644 347.337C70.3882 345.383 74.2044 344.213 78.1368 343.913C81.6609 343.621 85.2089 343.951 88.6184 344.888C88.4979 345.571 88.4778 346.268 88.5588 346.957C88.6328 347.821 88.8046 348.675 89.071 349.501C89.3276 350.282 89.6545 351.038 90.0477 351.76C90.4884 352.568 91.0243 353.282 91.5127 354.043C91.5842 354.173 91.7866 354.043 91.6913 353.924C90.703 352.547 90.0616 350.952 89.8214 349.275C89.6785 348.489 89.583 347.695 89.5355 346.897C89.5355 346.291 89.5355 345.708 89.5355 345.09C93.2421 346.226 96.701 348.049 99.7312 350.464C100.303 350.928 100.851 351.403 101.387 351.902C100.618 352.597 99.9522 353.398 99.4096 354.28C98.6093 355.446 97.9119 356.68 97.3252 357.966C96.2453 360.564 95.5202 363.295 95.1693 366.086C95.1693 366.229 95.3718 366.264 95.3837 366.086C95.8155 363.391 96.7143 360.792 98.0399 358.406C98.6592 357.223 99.3514 356.079 100.112 354.982C100.505 354.423 100.922 353.864 101.303 353.329C101.53 353.044 101.792 352.747 102.006 352.438C104.763 355.165 107.01 358.362 108.641 361.877C107.541 363.042 106.621 364.365 105.913 365.801C105.072 367.304 104.34 368.866 103.721 370.473C102.589 373.581 101.658 376.758 100.934 379.984C100.934 380.115 101.125 380.163 101.149 379.984C101.857 376.736 102.97 373.589 104.46 370.616C105.159 369.15 105.897 367.711 106.675 366.3C107.483 364.983 108.214 363.622 108.867 362.222C110.43 365.625 111.335 369.291 111.535 373.029C111.535 373.172 111.773 373.148 111.761 373.029C111.333 367.173 109.538 361.497 106.52 356.456C107.938 357.062 109.379 357.645 110.749 358.382C112.505 359.313 114.138 360.459 115.608 361.794C115.692 361.925 115.787 361.747 115.727 361.651Z" fill="#333145"/>
<path d="M98.5997 362.519C97.897 364.814 97.0155 367.049 96.3842 369.379C95.7372 371.61 95.3888 373.917 95.348 376.239C95.348 376.299 95.4552 376.299 95.4552 376.239C96.0922 371.582 97.2139 367.004 98.8022 362.579C98.8092 362.565 98.813 362.549 98.8134 362.534C98.8138 362.518 98.8108 362.503 98.8046 362.488C98.7983 362.474 98.789 362.461 98.7772 362.451C98.7654 362.44 98.7516 362.433 98.7365 362.428C98.7215 362.424 98.7057 362.423 98.6902 362.425C98.6747 362.428 98.6599 362.433 98.6468 362.442C98.6338 362.451 98.6228 362.462 98.6147 362.476C98.6065 362.489 98.6015 362.504 98.5997 362.519Z" fill="#263238"/>
<path d="M113.405 356.801C112.487 355.92 111.444 355.178 110.309 354.601C109.156 354.075 107.961 353.65 106.735 353.329C106.592 353.329 106.545 353.519 106.735 353.555C107.945 353.869 109.107 354.345 110.189 354.97C111.292 355.542 112.351 356.193 113.358 356.92C113.371 356.919 113.384 356.914 113.395 356.906C113.405 356.898 113.414 356.887 113.419 356.875C113.424 356.863 113.425 356.849 113.423 356.836C113.42 356.823 113.414 356.811 113.405 356.801Z" fill="#263238"/>
<path d="M73.7178 328.98C73.7178 328.98 75.957 301.707 96.2769 292.862C113.238 285.479 122.957 304.501 110.963 316.152C101.256 325.58 85.7001 321.324 73.7178 328.98Z" fill="#F9E4B0"/>
<path opacity="0.1" d="M73.7178 328.98C73.7178 328.98 75.957 301.707 96.2769 292.862C113.238 285.479 122.957 304.501 110.963 316.152C101.256 325.58 85.7001 321.324 73.7178 328.98Z" fill="black"/>
<path d="M107.199 298.152C104.11 299.401 101.096 300.826 98.1707 302.421C95.7376 303.823 93.3946 305.375 91.1552 307.069C91.4887 306.38 91.7865 305.666 92.12 304.989C92.656 303.93 93.2158 302.908 93.847 301.909C95.0983 299.844 96.6028 297.943 98.3255 296.25C98.4327 296.155 98.3255 295.989 98.1588 296.096C96.4456 297.789 94.8722 299.618 93.454 301.564C92.7508 302.556 92.1065 303.588 91.5244 304.656C90.9232 305.633 90.4621 306.689 90.1547 307.794L89.9284 307.961C86.381 310.798 83.1288 313.984 80.2211 317.472C80.2806 317.21 80.3402 316.937 80.4116 316.687C80.7928 315.356 81.1977 314.048 81.6027 312.728C82.4794 309.931 83.7123 307.258 85.2713 304.775C85.3546 304.656 85.1521 304.537 85.0807 304.668C83.4849 307.15 82.0641 309.74 80.8285 312.419C80.2645 313.732 79.7948 315.082 79.423 316.461C79.1282 317.353 78.9091 318.268 78.768 319.196C77.8746 320.313 77.0051 321.443 76.1833 322.608C67.4645 335.008 63.0814 349.953 62.0332 364.992C61.7256 369.468 61.6501 373.956 61.8069 378.439C61.8397 382.958 62.238 387.466 62.998 391.921C63.0575 392.206 63.4982 392.123 63.4863 391.85C63.391 387.902 62.9742 383.979 62.9027 380.032C62.8312 376.085 62.9623 372.126 63.2839 368.143C63.9282 360.272 65.4136 352.492 67.7147 344.936C70.0875 337.197 73.5826 329.847 78.089 323.119C78.9347 322.953 79.7923 322.715 80.626 322.501L83.6276 321.693C85.5767 321.184 87.4716 320.488 89.2852 319.612C89.4162 319.553 89.2852 319.35 89.1661 319.422C87.3753 320.395 85.4354 321.066 83.4251 321.407C81.8409 321.716 80.1853 321.93 78.5893 322.287C80.0662 320.147 81.6543 318.082 83.3536 316.093C87.2257 316.446 91.1296 316.156 94.9071 315.237C96.9297 314.75 98.9189 314.135 100.863 313.394C102.899 312.609 104.829 311.599 106.818 310.767C106.973 310.707 106.818 310.481 106.735 310.564C103.096 312.546 99.1229 313.844 95.0143 314.393C91.3861 314.973 87.7188 315.275 84.0444 315.296C85.4976 313.644 86.9864 312.039 88.5705 310.541C93.9066 305.476 100.255 300.804 107.282 298.378C107.449 298.307 107.33 298.152 107.199 298.152Z" fill="#333145"/>
<path d="M90.6673 298.224C89.754 299.377 88.9222 300.593 88.178 301.862C87.4174 303.197 86.8177 304.618 86.3914 306.094C86.3914 306.094 86.451 306.166 86.4629 306.094C87.1418 304.751 87.7135 303.36 88.4043 302.028C89.0601 300.716 89.859 299.48 90.7864 298.343C90.9175 298.271 90.7745 298.152 90.6673 298.224Z" fill="#333145"/>
<path d="M109.558 307.307C108.239 308.034 106.846 308.616 105.401 309.043C104.009 309.522 102.589 309.919 101.149 310.232V310.35C102.645 310.191 104.119 309.868 105.544 309.387C106.952 308.861 108.325 308.246 109.653 307.545C109.832 307.438 109.689 307.236 109.558 307.307Z" fill="#333145"/>
<path d="M57.9237 324.07C57.8046 325.259 54.8507 314.167 37.6753 304.323C22.072 295.394 3.45533 272.151 18.7489 257.468C31.1005 245.615 63.6291 271.45 57.9237 324.07Z" fill="#F9E4B0"/>
<path d="M69.752 387.617C69.5038 376.082 68.5931 364.57 67.0244 353.139C65.6813 342.632 63.2626 332.29 59.8064 322.275C58.532 318.708 57.0669 315.142 55.4828 311.575C55.5725 310.216 55.5486 308.852 55.4113 307.497C55.3279 305.749 55.1731 304.002 55.0063 302.266C54.8396 300.53 54.6729 298.782 54.4585 297.047C54.2441 295.311 53.8867 293.575 53.8153 291.839C53.8153 291.685 53.5532 291.72 53.6009 291.839C53.9404 293.665 54.1434 295.512 54.2083 297.368C54.3393 299.044 54.4346 300.732 54.4942 302.42C54.5537 304.109 54.4942 305.797 54.4942 307.485C54.4942 308.092 54.4942 308.734 54.4346 309.387C52.8147 305.975 51.0877 302.623 49.2058 299.353C50.3969 292.22 48.8603 284.813 47.4072 277.858C47.4072 277.727 47.169 277.786 47.1928 277.929C47.9094 281.56 48.2881 285.25 48.3243 288.95C48.3958 291.863 48.2529 294.788 48.241 297.701C47.836 296.999 47.4191 296.298 47.0499 295.608C44.8186 291.986 42.4364 288.439 39.9034 284.967C40.1043 283.28 40.0481 281.573 39.7366 279.903C39.4513 278.029 39.0334 276.177 38.486 274.362C37.9381 272.543 37.2949 270.796 36.5802 269.012C35.8656 267.229 34.8532 265.505 34.1266 263.698C34.1239 263.682 34.1176 263.667 34.1081 263.654C34.0986 263.64 34.0862 263.629 34.0719 263.622C34.0575 263.614 34.0416 263.61 34.0253 263.609C34.0091 263.608 33.9929 263.611 33.9779 263.618C33.963 263.624 33.9498 263.634 33.9392 263.647C33.9287 263.659 33.9211 263.674 33.9171 263.689C33.913 263.705 33.9126 263.722 33.9159 263.737C33.9192 263.753 33.9261 263.768 33.936 263.781C34.8419 265.495 35.5606 267.3 36.08 269.167C36.6501 270.918 37.1194 272.7 37.4855 274.505C37.8547 276.3 38.1525 278.072 38.4026 279.938C38.5694 281.127 38.6765 282.399 38.879 283.612C35.2038 278.682 31.188 274.014 26.861 269.643C26.7538 269.536 26.6108 269.702 26.7061 269.797C33.2521 277.145 39.0978 285.085 44.1675 293.516C44.358 293.837 44.5367 294.158 44.7153 294.479C43.7744 293.884 42.6905 293.409 41.7972 292.921C40.1297 291.994 38.4582 291.078 36.7827 290.175L31.9231 287.512C31.0893 287.048 30.2675 286.572 29.4218 286.144C28.4066 285.686 27.4307 285.145 26.5037 284.528C26.3726 284.432 26.2416 284.635 26.3726 284.706C28.0282 285.609 29.4933 286.965 31.137 287.975C32.7807 288.986 34.3053 290.068 35.9847 291.019C39.0339 292.719 42.357 293.944 45.3585 295.703C47.439 299.349 49.3646 303.078 51.1353 306.891C49.3169 305.726 47.4588 304.616 45.561 303.562C44.37 302.884 43.1789 302.206 41.8806 301.564C40.6549 300.997 39.4963 300.295 38.4264 299.472C38.4035 299.461 38.3777 299.458 38.3527 299.462C38.3277 299.467 38.3049 299.48 38.2876 299.498C38.2703 299.517 38.2594 299.541 38.2565 299.566C38.2536 299.591 38.2589 299.616 38.2716 299.638C40.2701 301.434 42.487 302.972 44.8702 304.216C47.0737 305.512 49.3129 306.748 51.5998 307.878C53.446 311.884 55.1016 315.986 56.5786 320.147C63.8085 340.584 66.4646 362.282 67.7391 383.824C68.1083 390.256 68.3108 396.665 68.3823 403.108C68.4537 409.552 68.1321 415.949 68.144 422.369C68.144 422.559 68.4537 422.606 68.4775 422.369C69.2517 416.674 69.3947 410.884 69.6686 405.141C69.9426 399.399 69.883 393.455 69.752 387.617Z" fill="#333145"/>
<path d="M38.5454 295.085C35.4042 293.691 32.3531 292.102 29.4098 290.329C26.4266 288.649 23.5324 286.815 20.7387 284.837C20.7387 284.837 20.6434 284.837 20.6791 284.92C23.3226 287.041 26.1083 288.98 29.0167 290.722C32.0636 292.423 35.2143 293.932 38.4502 295.24C38.5693 295.335 38.6765 295.144 38.5454 295.085Z" fill="#333145"/>
<path d="M43.524 271.996C43.262 270.998 42.9523 270.023 42.6069 269.048C42.6148 269.04 42.6211 269.031 42.6254 269.021C42.6297 269.011 42.6319 269 42.6319 268.989C42.6319 268.977 42.6297 268.967 42.6254 268.956C42.6211 268.946 42.6148 268.937 42.6069 268.929C42.3925 268.382 42.1661 267.835 41.9398 267.288L41.8564 267.086L41.7254 266.765C41.785 266.956 41.8326 267.146 41.8922 267.336C41.9144 267.44 41.9422 267.544 41.9756 267.645C43.1162 271.46 43.9683 275.354 44.5246 279.296C44.5246 279.415 44.739 279.415 44.7271 279.296C44.5581 276.831 44.1553 274.386 43.524 271.996Z" fill="#333145"/>
<path d="M87.9043 391.754L86.6775 406.259L82.9256 450.498H42.7264L38.9745 406.259L37.7477 391.754H87.9043Z" fill="#3F3D56"/>
<path d="M87.9043 391.754L86.6775 406.259H38.9745L37.7477 391.754H87.9043Z" fill="#333145"/>
<path d="M91.8463 399.851H33.8047V385.941H91.8463V399.851Z" fill="#3F3D56"/>
<path d="M189.776 110.376L189.968 109.611C190.761 110.039 191.54 110.253 192.306 110.253C192.853 110.253 193.317 110.144 193.7 109.925C194.092 109.697 194.288 109.333 194.288 108.831C194.288 108.385 194.124 107.979 193.796 107.615C193.468 107.241 193.071 106.913 192.606 106.63C192.142 106.348 191.677 106.06 191.212 105.769C190.747 105.468 190.351 105.103 190.022 104.675C189.694 104.238 189.53 103.755 189.53 103.226C189.53 102.579 189.763 101.991 190.228 101.462C190.692 100.924 191.253 100.656 191.909 100.656C192.41 100.656 192.966 100.756 193.577 100.956C194.197 101.157 194.716 101.357 195.136 101.558L194.972 102.105C193.933 101.749 193.058 101.572 192.347 101.572C191.909 101.572 191.535 101.713 191.226 101.995C190.916 102.278 190.761 102.643 190.761 103.089C190.761 103.426 190.847 103.732 191.021 104.005C191.194 104.279 191.417 104.516 191.69 104.716C191.973 104.917 192.283 105.113 192.62 105.304C192.966 105.495 193.308 105.7 193.646 105.919C193.983 106.138 194.288 106.375 194.562 106.63C194.844 106.885 195.072 107.209 195.245 107.601C195.418 107.984 195.505 108.417 195.505 108.9C195.505 109.583 195.286 110.144 194.849 110.581C194.411 111.01 193.841 111.224 193.14 111.224C192.538 111.224 191.896 111.142 191.212 110.978C190.537 110.805 190.059 110.604 189.776 110.376ZM202.412 109.829L202.549 110.431C202.148 110.577 201.551 110.741 200.758 110.923C199.974 111.096 199.39 111.183 199.008 111.183C198.616 111.183 198.274 111.055 197.982 110.8C197.691 110.536 197.472 110.203 197.326 109.802C197.18 109.392 197.071 108.991 196.998 108.599C196.934 108.198 196.902 107.806 196.902 107.423C196.902 105.144 197.932 104.005 199.992 104.005C200.484 104.005 200.917 104.165 201.291 104.484C201.665 104.794 201.851 105.199 201.851 105.7C201.851 105.974 201.774 106.215 201.619 106.425C201.473 106.635 201.291 106.803 201.072 106.931C200.862 107.049 200.589 107.159 200.252 107.259C199.924 107.359 199.632 107.432 199.377 107.478C199.122 107.523 198.816 107.574 198.461 107.628C198.105 107.683 197.859 107.724 197.722 107.751C197.732 108.016 197.745 108.248 197.763 108.449C197.791 108.649 197.836 108.868 197.9 109.105C197.973 109.333 198.064 109.524 198.174 109.679C198.292 109.825 198.452 109.948 198.652 110.048C198.853 110.148 199.09 110.199 199.363 110.199C199.691 110.199 200.092 110.171 200.566 110.116C201.04 110.053 201.459 109.989 201.824 109.925C202.198 109.861 202.394 109.829 202.412 109.829ZM197.777 106.904C199.017 106.548 200.033 106.174 200.826 105.783C200.762 105.482 200.676 105.263 200.566 105.126C200.457 104.99 200.293 104.921 200.074 104.921C199.518 104.921 199.012 105.113 198.556 105.495C198.11 105.878 197.85 106.348 197.777 106.904ZM204.288 105.249L204.014 104.552C204.251 104.315 204.552 104.128 204.917 103.991C205.281 103.846 205.641 103.773 205.997 103.773C207.537 103.773 208.307 105.103 208.307 107.765C208.307 108.13 208.284 108.667 208.239 109.378C208.202 110.089 208.184 110.622 208.184 110.978C208.111 111.26 207.97 111.402 207.76 111.402C207.596 111.402 207.446 111.32 207.309 111.156C207.172 110.991 207.104 110.809 207.104 110.609C207.104 110.545 207.109 110.499 207.118 110.472C206.553 111.019 205.951 111.292 205.313 111.292C204.83 111.292 204.406 111.119 204.042 110.773C203.686 110.417 203.508 109.989 203.508 109.488C203.508 108.64 203.837 107.874 204.493 107.191C205.158 106.507 205.91 106.165 206.749 106.165C206.785 106.165 206.822 106.17 206.858 106.179C206.894 106.179 206.935 106.184 206.981 106.193C207.036 106.202 207.077 106.206 207.104 106.206C207.031 105.14 206.607 104.607 205.833 104.607C205.377 104.607 204.862 104.821 204.288 105.249ZM207.145 109.529C207.163 108.891 207.172 108.408 207.172 108.079C207.172 107.806 207.163 107.423 207.145 106.931H207.036C206.389 106.94 205.796 107.182 205.258 107.656C204.73 108.13 204.465 108.704 204.465 109.378C204.465 109.67 204.552 109.902 204.725 110.075C204.907 110.249 205.126 110.335 205.381 110.335C205.782 110.335 206.37 110.066 207.145 109.529ZM214.626 105.947L214.025 105.906C213.833 105.395 213.51 105.14 213.054 105.14C212.854 105.14 212.639 105.185 212.412 105.277C212.193 105.368 212.01 105.463 211.865 105.564C211.719 105.655 211.527 105.792 211.29 105.974C211.29 106.102 211.286 106.516 211.277 107.218C211.277 107.92 211.281 108.699 211.29 109.556C211.309 110.413 211.327 110.873 211.345 110.937C211.263 111.21 211.104 111.347 210.867 111.347C210.703 111.347 210.543 111.283 210.388 111.156C210.242 111.019 210.151 110.855 210.115 110.663C210.288 107.738 210.443 105.527 210.579 104.033L211.195 104.169L211.236 105.085C211.874 104.557 212.421 104.292 212.876 104.292C213.378 104.292 213.797 104.406 214.134 104.634C214.481 104.862 214.654 105.195 214.654 105.632C214.654 105.769 214.645 105.874 214.626 105.947ZM220.508 104.374L220.44 104.962C220.057 104.908 219.729 104.88 219.455 104.88C218.826 104.88 218.307 105.072 217.897 105.454C217.487 105.828 217.204 106.275 217.049 106.794C216.903 107.305 216.83 107.874 216.83 108.503C216.83 108.795 216.849 109.055 216.885 109.283C216.921 109.51 216.985 109.734 217.076 109.952C217.177 110.171 217.327 110.344 217.528 110.472C217.737 110.59 217.992 110.65 218.293 110.65C218.694 110.65 219.205 110.572 219.824 110.417C220.016 110.344 220.166 110.308 220.276 110.308C220.494 110.308 220.626 110.563 220.672 111.074C219.87 111.329 219.127 111.456 218.444 111.456C217.45 111.456 216.776 111.215 216.42 110.732C216.074 110.24 215.901 109.447 215.901 108.353C215.901 107.715 215.942 107.159 216.024 106.685C216.115 106.202 216.27 105.755 216.488 105.345C216.707 104.926 217.022 104.607 217.432 104.388C217.851 104.169 218.362 104.06 218.963 104.06C219.638 104.06 220.153 104.165 220.508 104.374ZM222.138 101.312L222.849 101.476C222.876 101.85 222.894 102.447 222.903 103.267C222.922 104.087 222.94 104.652 222.958 104.962C223.45 104.443 224.043 104.183 224.735 104.183C225.355 104.183 225.888 104.402 226.335 104.839C226.791 105.277 227.019 105.86 227.019 106.589V111.087C226.9 111.142 226.75 111.169 226.567 111.169C226.367 111.169 226.185 111.151 226.021 111.115C226.021 111.042 226.021 110.932 226.021 110.786C226.03 110.631 226.034 110.518 226.034 110.445C226.034 110.089 226.021 109.478 225.993 108.613C225.966 107.738 225.952 107.008 225.952 106.425C225.815 105.587 225.392 105.167 224.681 105.167C224.371 105.167 224.065 105.254 223.765 105.427C223.464 105.591 223.245 105.787 223.108 106.015C223.136 106.589 223.154 107.455 223.163 108.613C223.172 109.77 223.186 110.604 223.204 111.115C222.985 111.151 222.799 111.169 222.644 111.169C222.416 111.169 222.224 111.142 222.069 111.087C222.088 110.641 222.097 109.934 222.097 108.968C222.097 108.54 222.092 107.756 222.083 106.616C222.074 105.468 222.069 104.484 222.069 103.663C222.078 102.834 222.101 102.05 222.138 101.312Z" fill="#4F4F4F"/>
</svg>
