<svg width="524" height="488" viewBox="0 0 524 488" fill="none" xmlns="http://www.w3.org/2000/svg">
<path d="M275.901 172.624C275.6 172.047 275.15 171.561 274.597 171.216C274.045 170.871 273.41 170.68 272.759 170.662C272.718 170.661 272.678 170.667 272.64 170.681C272.602 170.695 272.567 170.717 272.537 170.744C272.507 170.772 272.483 170.805 272.466 170.842C272.449 170.879 272.439 170.919 272.438 170.96C272.438 171.044 272.469 171.125 272.527 171.187C272.584 171.249 272.663 171.286 272.747 171.292C273.29 171.309 273.819 171.47 274.279 171.758C274.739 172.047 275.114 172.452 275.365 172.933C275.677 173.491 275.891 174.099 275.996 174.729C275.539 174.218 274.918 173.882 274.24 173.779C273.561 173.676 272.869 173.812 272.28 174.164C271.692 174.516 271.244 175.062 271.015 175.708C270.785 176.354 270.788 177.059 271.023 177.703C271.257 178.347 271.709 178.89 272.301 179.237C272.892 179.584 273.586 179.715 274.263 179.606C274.941 179.497 275.559 179.157 276.012 178.642C276.465 178.127 276.724 177.471 276.746 176.786C276.758 176.588 276.758 176.389 276.746 176.191C276.768 174.95 276.477 173.724 275.901 172.624ZM276.115 176.738C276.126 176.793 276.126 176.85 276.115 176.905C276.109 176.918 276.105 176.932 276.105 176.946C276.105 176.961 276.109 176.975 276.115 176.988C276.029 177.555 275.741 178.072 275.303 178.444C274.866 178.815 274.309 179.016 273.735 179.01C273.264 179.01 272.804 178.87 272.413 178.609C272.021 178.347 271.716 177.976 271.536 177.541C271.356 177.107 271.309 176.629 271.401 176.167C271.492 175.706 271.719 175.282 272.052 174.95C272.385 174.617 272.809 174.391 273.271 174.299C273.732 174.207 274.211 174.254 274.646 174.434C275.081 174.614 275.452 174.919 275.714 175.31C275.975 175.701 276.115 176.161 276.115 176.631V176.738Z" fill="#F8F8F8"/>
<path d="M509.675 431.591L447.629 431.306L385.583 431.198L261.503 431.008L137.423 431.198L75.3765 431.306L13.3305 431.591L75.3765 431.889L137.423 431.996L261.503 432.186L385.583 431.996L447.629 431.889L509.675 431.591Z" fill="#2F2E41"/>
<path d="M261.503 488C117.08 488 0.00292969 473.355 0.00292969 455.289C0.00292969 437.223 117.08 422.578 261.503 422.578C405.925 422.578 523.003 437.223 523.003 455.289C523.003 473.355 405.925 488 261.503 488Z" fill="#D6CFBF"/>
<path d="M42.3777 35.8818V418.761C42.351 421.418 42.8491 424.055 43.8434 426.52C44.8376 428.985 46.3087 431.23 48.1722 433.126C50.0357 435.022 52.2552 436.533 54.7036 437.571C57.152 438.609 59.7813 439.155 62.4409 439.177H260.669C263.328 439.154 265.956 438.607 268.403 437.568C270.85 436.529 273.068 435.018 274.93 433.122C276.793 431.226 278.263 428.981 279.256 426.517C280.25 424.053 280.747 421.417 280.721 418.761V35.8818C280.749 33.2242 280.252 30.5872 279.259 28.1215C278.267 25.6559 276.797 23.4101 274.935 21.5127C273.072 19.6153 270.854 18.1035 268.406 17.0638C265.958 16.0241 263.329 15.4769 260.669 15.4536H62.4409C59.7802 15.4754 57.15 16.0214 54.7008 17.0604C52.2516 18.0994 50.0316 19.611 48.1679 21.5085C46.3042 23.4061 44.8335 25.6524 43.8399 28.1188C42.8463 30.5852 42.3494 33.2232 42.3777 35.8818Z" fill="#2F2E41"/>
<path d="M55.1896 55.097V406.169C55.1896 416.87 63.2339 425.586 73.1465 425.586H250.455C260.391 425.586 268.436 416.894 268.436 406.169V55.097C268.436 33.2182 260.391 28.3906 250.455 28.3906H214.934C212.875 28.3906 211.197 30.7688 211.197 33.6344V34.8235C211.197 41.6368 207.461 41.6606 202.867 41.6606H120.758C116.141 41.6606 112.428 41.6606 112.428 34.8235V33.6344C112.428 30.7331 110.762 28.3906 108.68 28.3906H73.1346C63.2339 28.3906 55.1896 35.0613 55.1896 55.097Z" fill="white"/>
<path d="M150.346 33.2183H172.753C172.936 33.2199 173.116 33.1853 173.285 33.1167C173.454 33.0481 173.608 32.9468 173.737 32.8185C173.866 32.6903 173.969 32.5377 174.039 32.3696C174.109 32.2014 174.146 32.0211 174.146 31.839C174.146 31.6568 174.109 31.4765 174.039 31.3084C173.969 31.1402 173.866 30.9876 173.737 30.8594C173.608 30.7312 173.454 30.6298 173.285 30.5612C173.116 30.4926 172.936 30.4581 172.753 30.4596H150.346C149.979 30.4596 149.628 30.605 149.369 30.8636C149.111 31.1223 148.965 31.4731 148.965 31.839C148.965 32.2048 149.111 32.5556 149.369 32.8143C149.628 33.073 149.979 33.2183 150.346 33.2183Z" fill="white"/>
<path d="M101.545 58.367H83.707V61.3039H101.545V58.367Z" fill="#DBDBDB"/>
<path d="M101.545 64.2291H83.707V67.1661H101.545V64.2291Z" fill="#DBDBDB"/>
<path d="M101.545 70.103H83.707V73.04H101.545V70.103Z" fill="#DBDBDB"/>
<path d="M229.689 63.6013L227.726 65.0877L233.726 73.0014L235.69 71.515L229.689 63.6013Z" fill="#DBDBDB"/>
<path d="M231.846 60.2814C232.487 61.1205 232.865 62.1305 232.931 63.1839C232.998 64.2373 232.751 65.2868 232.221 66.1998C231.69 67.1128 230.901 67.8483 229.953 68.3133C229.005 68.7784 227.94 68.9521 226.893 68.8126C225.846 68.6731 224.864 68.2266 224.07 67.5296C223.277 66.8325 222.708 65.9161 222.436 64.8963C222.164 63.8764 222.201 62.7988 222.541 61.7996C222.882 60.8005 223.511 59.9246 224.349 59.2826C224.906 58.8542 225.543 58.54 226.222 58.3583C226.901 58.1765 227.609 58.1307 228.306 58.2236C229.003 58.3164 229.674 58.546 230.282 58.8992C230.889 59.2524 231.421 59.7221 231.846 60.2814Z" fill="#DBDBDB"/>
<path d="M230.133 61.5774C230.521 62.0782 230.752 62.683 230.796 63.315C230.84 63.947 230.695 64.5778 230.379 65.1273C230.064 65.6769 229.592 66.1205 229.024 66.4019C228.456 66.6833 227.817 66.7898 227.189 66.708C226.56 66.6261 225.97 66.3595 225.493 65.9421C225.016 65.5246 224.674 64.975 224.51 64.363C224.346 63.7511 224.368 63.1042 224.572 62.5046C224.777 61.9049 225.155 61.3794 225.659 60.9948C226.33 60.4819 227.178 60.2553 228.016 60.3644C228.854 60.4736 229.615 60.9096 230.133 61.5774Z" fill="white"/>
<path d="M192.847 233.59H130.111V261.304H192.847V233.59Z" fill="#C8B17A"/>
<path d="M153.822 250.064H150.252L149.538 251.99C149.473 252.141 149.365 252.27 149.228 252.361C149.09 252.452 148.929 252.501 148.765 252.501C148.67 252.519 148.573 252.519 148.479 252.501C148.275 252.424 148.11 252.269 148.019 252.071C147.928 251.874 147.918 251.648 147.991 251.443L151.264 242.739C151.327 242.584 151.436 242.452 151.576 242.36C151.716 242.269 151.881 242.223 152.049 242.228C152.216 242.224 152.38 242.271 152.52 242.362C152.661 242.454 152.77 242.585 152.834 242.739L156.095 251.443C156.168 251.648 156.158 251.874 156.067 252.071C155.976 252.269 155.811 252.424 155.607 252.501C155.513 252.521 155.416 252.521 155.321 252.501C155.159 252.502 155.001 252.454 154.867 252.362C154.733 252.271 154.63 252.141 154.572 251.99L153.822 250.064ZM153.215 248.434L152.025 245.26L150.835 248.434H153.215Z" fill="white"/>
<path d="M158.094 251.693V242.977C158.092 242.87 158.112 242.764 158.152 242.665C158.192 242.567 158.252 242.477 158.327 242.401C158.403 242.326 158.493 242.266 158.591 242.226C158.69 242.186 158.796 242.167 158.903 242.168H160.652C161.981 242.232 163.234 242.804 164.151 243.766C165.069 244.728 165.581 246.006 165.581 247.335C165.581 248.664 165.069 249.941 164.151 250.903C163.234 251.865 161.981 252.437 160.652 252.501H158.903C158.688 252.501 158.483 252.416 158.331 252.264C158.179 252.113 158.094 251.907 158.094 251.693ZM159.736 250.86H160.652C161.503 250.739 162.282 250.315 162.845 249.666C163.409 249.018 163.719 248.188 163.719 247.329C163.719 246.47 163.409 245.64 162.845 244.991C162.282 244.342 161.503 243.918 160.652 243.797H159.736V250.86Z" fill="white"/>
<path d="M168.28 251.693V242.977C168.279 242.87 168.299 242.764 168.339 242.665C168.379 242.567 168.438 242.477 168.514 242.401C168.589 242.326 168.679 242.266 168.778 242.226C168.877 242.186 168.983 242.167 169.09 242.168H170.839C172.167 242.232 173.42 242.804 174.338 243.766C175.255 244.728 175.767 246.006 175.767 247.335C175.767 248.664 175.255 249.941 174.338 250.903C173.42 251.865 172.167 252.437 170.839 252.501H169.09C168.875 252.501 168.669 252.416 168.517 252.264C168.366 252.113 168.28 251.907 168.28 251.693ZM169.923 250.86H170.839C171.69 250.739 172.468 250.315 173.032 249.666C173.595 249.018 173.905 248.188 173.905 247.329C173.905 246.47 173.595 245.64 173.032 244.991C172.468 244.342 171.69 243.918 170.839 243.797H169.923V250.86Z" fill="white"/>
<path d="M239.734 101.618H83.8867V128.013H239.734V101.618Z" fill="#EBEBEB"/>
<path d="M239.734 137.91H83.8867V164.305H239.734V137.91Z" fill="#EBEBEB"/>
<path d="M239.734 174.203H83.8867V200.597H239.734V174.203Z" fill="#EBEBEB"/>
<path d="M475.355 465.741L300.7 466.49C258.242 433.196 253.862 383.838 284.148 353.921C302.473 335.835 325.797 339.486 347.919 336.608C355.749 335.779 363.364 333.544 370.398 330.009C393.222 317.987 406.098 289.581 425.28 265.728C427.66 262.744 430.171 259.783 432.801 257.024C448.592 240.175 480.008 239.628 496.453 263.314C538.27 323.481 519.135 413.041 475.355 465.741Z" fill="#BDA876"/>
<path d="M479.27 328.059C474.688 399.664 391.937 426.394 340.255 404.944C295.31 386.287 310.018 343.719 347.955 336.608C355.784 335.779 363.4 333.544 370.434 330.009C393.258 317.987 406.133 289.581 425.316 265.728C453.947 250.877 482.59 275.633 479.27 328.059Z" fill="#FFFBF1"/>
<path d="M315.218 476.585C317.92 475.598 378.955 426.846 380.109 423.517C380.561 422.257 373.969 412.958 365.698 401.959C363.901 399.581 362.045 397.132 360.141 394.658C347.8 378.606 334.342 361.852 334.342 361.852L293.417 394.337L320.335 426.252L326.285 433.267C326.285 433.267 311.267 462.376 310.399 466.169C309.53 469.962 312.517 477.572 315.218 476.585Z" fill="#FFC4C0"/>
<path d="M315.218 476.585C317.92 475.598 378.955 426.846 380.109 423.517C380.644 421.983 370.815 408.582 360.141 394.658L320.335 426.252L326.285 433.267C326.285 433.267 311.267 462.376 310.399 466.169C309.53 469.962 312.517 477.572 315.218 476.585Z" fill="white"/>
<path d="M315.218 476.585C317.92 475.598 378.955 426.846 380.109 423.517C380.561 422.257 373.969 412.958 365.698 401.959L326.25 433.267C326.25 433.267 311.232 462.376 310.363 466.169C309.494 469.962 312.517 477.572 315.218 476.585Z" fill="#F9E4B0"/>
<path d="M314.135 473.458C324.167 465.039 365.424 432.007 376.015 424.444C376.11 424.444 376.146 424.444 376.075 424.516C366.317 433.077 324.786 465.764 314.314 473.624C314.052 473.779 313.933 473.624 314.135 473.458Z" fill="#2F2E41"/>
<path d="M312.53 460.83C313.646 459.896 314.942 459.202 316.339 458.793C317.736 458.384 319.202 458.267 320.646 458.452C323.248 458.768 325.629 460.071 327.298 462.09C327.298 462.15 327.298 462.245 327.179 462.185C325.21 460.442 322.728 459.384 320.106 459.17C317.484 458.955 314.864 459.596 312.637 460.996C312.615 461.01 312.588 461.015 312.562 461.01C312.537 461.004 312.514 460.989 312.5 460.966C312.486 460.944 312.481 460.918 312.487 460.892C312.492 460.866 312.508 460.844 312.53 460.83Z" fill="#2F2E41"/>
<path d="M323.097 437.453C327.143 434.123 333.045 431.781 338.269 433.089C338.471 433.148 338.388 433.434 338.269 433.469C333.158 434.446 328.168 435.969 323.382 438.012C323.311 438.03 323.236 438.024 323.169 437.994C323.102 437.965 323.047 437.913 323.014 437.847C322.981 437.782 322.971 437.707 322.986 437.635C323.001 437.564 323.04 437.499 323.097 437.453Z" fill="#2F2E41"/>
<path d="M320.919 441.21C324.965 437.881 330.867 435.538 336.091 436.846C336.294 436.906 336.222 437.191 336.091 437.227C331.013 438.21 326.054 439.733 321.3 441.769C321.226 441.819 321.134 441.838 321.046 441.822C320.958 441.805 320.88 441.754 320.83 441.68C320.779 441.606 320.76 441.515 320.777 441.426C320.794 441.338 320.845 441.261 320.919 441.21Z" fill="#2F2E41"/>
<path d="M318.741 444.92C322.787 441.591 328.69 439.248 333.914 440.556C334.116 440.616 334.045 440.901 333.914 440.937C328.835 441.92 323.876 443.443 319.122 445.479C319.048 445.529 318.957 445.548 318.868 445.532C318.78 445.515 318.702 445.464 318.652 445.39C318.601 445.316 318.582 445.224 318.599 445.136C318.616 445.048 318.667 444.97 318.741 444.92Z" fill="#2F2E41"/>
<path d="M316.563 448.725C320.609 445.396 326.512 443.053 331.736 444.361C331.938 444.361 331.867 444.706 331.736 444.73C326.658 445.722 321.7 447.249 316.944 449.284C316.87 449.334 316.779 449.353 316.691 449.337C316.603 449.32 316.525 449.269 316.474 449.195C316.424 449.121 316.405 449.03 316.421 448.941C316.438 448.853 316.489 448.776 316.563 448.725Z" fill="#2F2E41"/>
<path d="M365.615 416.811C370.22 413.148 375.909 420.294 371.303 423.945C366.698 427.595 360.998 420.473 365.615 416.811Z" fill="white"/>
<path d="M309.935 430.069C310.626 426.692 314.588 426.287 317.29 427.048C321.907 428.444 326.076 431.027 329.38 434.54C329.397 434.553 329.411 434.57 329.421 434.59C329.43 434.609 329.436 434.631 329.436 434.653C329.436 434.674 329.43 434.696 329.421 434.715C329.411 434.735 329.397 434.752 329.38 434.765C329.427 434.855 329.451 434.955 329.451 435.056C329.451 435.157 329.427 435.257 329.38 435.347C329.333 435.437 329.266 435.514 329.183 435.572C329.1 435.63 329.004 435.668 328.904 435.681C324.382 435.99 319.574 436.87 315.088 435.812C312.434 435.17 309.269 433.255 309.935 430.069ZM321.907 434.754C324.144 434.658 326.357 434.444 328.595 434.433C326.289 432.903 323.906 431.494 321.455 430.211C320.257 429.608 319.02 429.083 317.754 428.642C315.778 428 309.019 427.786 312.173 432.566C313.862 435.205 319.253 434.873 321.907 434.754Z" fill="#2F2E41"/>
<path d="M340.768 427.94C337.638 431.329 333.152 433.255 329.213 435.503C329.122 435.547 329.021 435.569 328.92 435.567C328.819 435.564 328.719 435.537 328.631 435.488C328.542 435.439 328.466 435.369 328.41 435.285C328.354 435.201 328.319 435.104 328.308 435.003C328.225 435.003 328.142 435.003 328.154 434.849C328.966 430.086 331.018 425.62 334.104 421.9C335.924 419.759 339.435 417.904 341.898 420.318C344.362 422.732 342.6 425.954 340.768 427.94ZM341.375 423.636C341.375 417.904 335.841 421.84 334.556 423.469C333.747 424.536 333.012 425.656 332.354 426.822C331.038 429.258 329.847 431.758 328.784 434.314C330.653 433.124 332.604 432.031 334.52 430.865C336.757 429.462 341.398 426.787 341.375 423.636Z" fill="#2F2E41"/>
<path d="M252.077 331.864C254.874 353.112 307.281 414.444 313.338 421.484L314.718 423.077L358.058 389.783L357.558 389.141L319.395 339.2L433.253 338.534L390.021 304.955C390.021 304.955 386.51 306.977 379.227 305.918C354.095 302.244 297.44 294.099 284.028 294.634C266.857 295.348 249.507 312.363 252.077 331.864Z" fill="#2A283D"/>
<path d="M305.687 320.651C307.105 322.247 308.42 323.931 309.626 325.693C310.971 327.452 312.339 329.26 313.696 330.972V331.031C313.458 330.508 313.22 329.997 312.97 329.474C312.125 327.714 311.447 325.907 310.435 324.218C310.376 324.111 310.53 324.016 310.59 324.123C311.625 325.788 312.827 327.381 313.708 329.141C314.124 329.961 314.517 330.806 314.898 331.65C315.1 332.114 315.314 332.589 315.493 333.065C315.576 333.279 315.671 333.505 315.743 333.743C316.338 334.563 316.933 335.383 317.516 336.228C318.801 338.083 319.896 340.056 321.24 341.9C321.312 341.995 321.145 342.09 321.074 341.995C319.765 340.259 318.289 338.642 316.944 336.917C315.6 335.193 314.291 333.35 313.017 331.543C311.744 329.735 310.554 327.976 309.305 326.216C307.942 324.468 306.69 322.638 305.556 320.734C305.545 320.717 305.541 320.696 305.546 320.676C305.55 320.656 305.563 320.638 305.58 320.627C305.597 320.616 305.618 320.612 305.638 320.617C305.659 320.621 305.676 320.634 305.687 320.651Z" fill="#2F2E41"/>
<path d="M426.911 213.92C435.943 221.055 444.88 267.428 448.331 272.589C450.794 276.216 453.888 279.842 453.745 281.887C453.602 283.933 444.939 293.992 428.553 297.155C412.167 300.318 396.018 292.506 394.376 290.449C392.734 288.392 397.054 281.328 396.887 274.991C396.72 268.653 391.056 233.861 394.507 223.492C398.494 211.732 416.546 205.787 426.911 213.92Z" fill="#494256"/>
<path d="M393.246 288.475C395.033 284.332 395.874 279.844 395.709 275.336C395.614 270.258 394.972 265.181 394.412 260.139C393.817 254.82 393.226 249.501 392.639 244.182C392.127 239.485 391.449 234.741 392.33 230.056C393.14 225.511 395.139 221.261 398.125 217.737C398.125 217.737 398.256 217.737 398.208 217.797C395.441 221.403 393.591 225.626 392.818 230.104C391.973 235.121 392.818 240.246 393.353 245.276C393.948 250.496 394.543 255.704 395.102 260.924C395.626 265.68 396.221 270.556 396.292 275.383C396.292 279.83 395.9 284.777 393.532 288.606C393.425 288.748 393.175 288.629 393.246 288.475Z" fill="#2F2E41"/>
<path d="M425.47 213.611C429.659 215.882 431.706 220.377 433.384 224.693C435.645 230.555 437.727 236.501 439.679 242.529C441.702 248.701 443.368 254.979 445.355 261.162C447.361 267.166 450.231 272.846 453.876 278.023C453.959 278.142 453.876 278.284 453.709 278.177C445.914 269.057 443.511 256.774 439.941 245.573C437.965 239.39 435.883 233.247 433.693 227.143C431.92 222.196 430.123 216.596 425.363 213.754C425.339 213.671 425.411 213.576 425.47 213.611Z" fill="#494256"/>
<path d="M421.651 211.923C430.409 215.347 433.872 225.145 436.692 233.504C440.048 243.433 442.464 253.659 445.427 263.707C447.081 269.378 448.581 275.538 452.27 280.246C452.377 280.389 452.174 280.567 452.055 280.437C449.223 277.06 447.771 272.862 446.427 268.712C444.82 263.73 443.416 258.689 442.036 253.647C439.275 243.659 436.752 233.35 432.444 223.92C430.171 218.95 426.78 214.099 421.615 212.03C421.556 211.994 421.591 211.863 421.651 211.923Z" fill="#494256"/>
<path d="M419.008 274.765C411.285 285.835 384.832 314.563 366.542 318.76C356.451 321.055 307.744 327.857 301.092 321.792C293.274 314.658 296.904 287.88 303.115 287.642C322.155 286.893 357.2 290.603 365.971 288.677C369.933 287.797 390.96 274.242 413.427 263.397C421.888 259.283 423.983 267.619 419.008 274.765Z" fill="#FFC4C0"/>
<path d="M313.422 286.144L316.682 326.263C316.682 326.263 360.878 325.562 374.218 318.071C387.558 310.579 409.275 291.459 417.581 278.166C425.887 264.872 423.115 257.63 406.871 265.811C390.628 273.992 368.792 287.095 365.888 287.785C362.985 288.475 313.422 286.144 313.422 286.144Z" fill="#F9E4B0"/>
<path d="M320.526 288.939C320.526 288.832 320.692 288.784 320.716 288.939C321.252 291.697 321.49 294.527 321.799 297.262C322.108 299.997 322.394 303.041 322.656 305.93C323.179 311.697 323.846 317.5 323.965 323.279C323.965 323.529 323.632 323.529 323.596 323.279C322.727 317.607 322.275 311.828 321.728 306.109C321.466 303.267 321.204 300.437 321.002 297.595C320.799 294.753 320.49 291.828 320.526 288.939Z" fill="#2F2E41"/>
<path d="M458.576 348.071C456.196 348.844 387.248 328.927 387.248 328.927L395.387 305.015C395.387 305.015 391.365 297.333 393.233 289.937C395.72 280.056 414.023 263.778 415.462 262.862C421.234 259.034 426.648 259.105 431.432 261.673C451.353 272.22 458.576 348.071 458.576 348.071Z" fill="#F9E4B0"/>
<path d="M406.004 271.471C404.231 273.528 402.327 275.49 400.494 277.512C401.351 276.013 402.196 274.491 403.112 273.029C403.112 273.029 403.112 272.957 403.112 273.029C401.772 274.762 400.604 276.622 399.625 278.582C398.247 280.11 396.975 281.731 395.817 283.433C394.403 285.459 393.345 287.711 392.688 290.092C392.086 292.508 391.989 295.021 392.402 297.476C392.924 300.287 393.7 303.046 394.722 305.716C394.853 306.073 395.353 305.847 395.258 305.502C393.961 300.829 392.497 295.906 393.532 291.031C394.568 286.156 397.578 282.137 400.506 278.308C402.237 275.966 404.113 273.734 406.123 271.626C406.242 271.495 406.087 271.376 406.004 271.471Z" fill="#2F2E41"/>
<path d="M427.125 262.993C426.851 264.242 421.02 272.411 415.32 272.22C413.475 272.161 413.368 262.03 413.368 262.03L413.19 261.281L410.691 250.829L424.661 241.685C424.661 241.685 427.232 262.458 427.125 262.993Z" fill="#FFC4C0"/>
<path d="M410.691 250.817L413.19 261.269C416.013 260.16 418.57 258.47 420.696 256.309C422.823 254.148 424.47 251.564 425.53 248.724C425.102 245.157 424.733 242.125 424.685 241.685C424.683 241.665 424.683 241.645 424.685 241.626L422.912 242.696L410.691 250.817Z" fill="#C18C88"/>
<path d="M394.363 238.023C395.553 256.846 406.954 258.237 411.023 257.999C414.701 257.773 427.231 256.501 428.005 237.654C428.778 218.807 419.675 213.421 411.178 213.516C402.682 213.611 393.185 219.164 394.363 238.023Z" fill="#FFC4C0"/>
<path d="M397.161 236.168C397.59 236.049 397.97 235.883 398.351 235.728C398.812 235.641 399.231 235.402 399.541 235.05C399.613 234.919 399.64 234.768 399.619 234.62C399.597 234.472 399.528 234.335 399.422 234.23C399.182 234.058 398.9 233.952 398.606 233.922C398.311 233.893 398.014 233.942 397.744 234.063C397.162 234.231 396.662 234.608 396.34 235.121C396.273 235.246 396.244 235.387 396.256 235.527C396.268 235.668 396.321 235.802 396.408 235.913C396.495 236.024 396.613 236.108 396.746 236.153C396.88 236.198 397.024 236.203 397.161 236.168Z" fill="#373142"/>
<path d="M409.501 234.563C409.068 234.555 408.635 234.523 408.204 234.467C407.74 234.497 407.28 234.372 406.895 234.111C406.788 234.008 406.72 233.872 406.7 233.725C406.681 233.578 406.712 233.429 406.788 233.302C406.972 233.07 407.214 232.891 407.491 232.784C407.767 232.678 408.067 232.647 408.359 232.696C408.967 232.709 409.551 232.941 410.001 233.35C410.094 233.451 410.156 233.577 410.179 233.713C410.203 233.848 410.188 233.987 410.136 234.114C410.083 234.241 409.996 234.351 409.884 234.43C409.771 234.51 409.639 234.556 409.501 234.563Z" fill="#373142"/>
<path d="M407.217 237.714C407.217 237.714 407.324 237.714 407.336 237.821C407.431 239.105 407.764 240.556 408.966 240.853V240.924C407.526 240.877 407.109 238.95 407.217 237.714Z" fill="#2F2E41"/>
<path d="M408.217 236.263C410.252 235.882 410.871 239.973 408.979 240.33C407.087 240.686 406.503 236.584 408.217 236.263Z" fill="#2F2E41"/>
<path d="M409.061 236.358C409.454 236.536 409.87 236.893 410.311 236.869C410.751 236.846 411.132 236.358 411.394 235.894C411.394 235.894 411.465 235.894 411.477 235.894C411.596 236.679 411.477 237.535 410.596 237.773C409.716 238.011 409.18 237.381 408.871 236.584C408.799 236.525 408.895 236.287 409.061 236.358Z" fill="#2F2E41"/>
<path d="M400.196 238.451C400.196 238.451 400.112 238.522 400.124 238.582C400.362 239.842 400.422 241.328 399.339 241.923C399.339 241.923 399.339 242.006 399.339 241.994C400.731 241.59 400.624 239.604 400.196 238.451Z" fill="#2F2E41"/>
<path d="M398.863 237.309C396.793 237.476 397.281 241.59 399.185 241.435C401.089 241.281 400.589 237.167 398.863 237.309Z" fill="#2F2E41"/>
<path d="M398.03 237.678C397.732 237.94 397.459 238.368 397.066 238.439C396.673 238.51 396.233 238.118 395.876 237.726H395.816C395.888 238.522 396.245 239.307 397.006 239.366C397.768 239.426 398.137 238.689 398.196 237.88C398.292 237.785 398.149 237.571 398.03 237.678Z" fill="#2F2E41"/>
<path d="M408.99 248.724C408.752 249.081 408.526 249.545 408.074 249.664C407.608 249.77 407.124 249.77 406.658 249.664C406.658 249.664 406.586 249.664 406.658 249.735C406.885 249.95 407.167 250.099 407.473 250.166C407.78 250.233 408.098 250.216 408.395 250.116C408.638 249.997 408.841 249.81 408.978 249.578C409.116 249.345 409.182 249.077 409.168 248.808C409.18 248.784 409.181 248.757 409.172 248.732C409.163 248.708 409.145 248.688 409.121 248.677C409.097 248.666 409.07 248.665 409.046 248.674C409.021 248.682 409.001 248.701 408.99 248.724Z" fill="#C18C88"/>
<path d="M403.04 244.86C403.04 244.86 403.04 246.786 403.159 247.69C403.159 247.773 403.397 247.785 403.706 247.761C404.493 247.796 405.275 247.613 405.966 247.234C406.656 246.854 407.229 246.292 407.621 245.609C407.627 245.59 407.626 245.57 407.62 245.552C407.614 245.534 407.602 245.518 407.587 245.506C407.571 245.494 407.553 245.488 407.533 245.487C407.514 245.486 407.495 245.491 407.478 245.502C406.436 246.435 405.123 247.01 403.73 247.143C403.635 246.905 403.849 243.837 403.73 243.837C403.042 244.002 402.378 244.254 401.754 244.586C401.635 240.555 402.171 236.536 402.004 232.517C401.996 232.491 401.979 232.467 401.957 232.451C401.934 232.434 401.907 232.426 401.879 232.426C401.851 232.426 401.824 232.434 401.802 232.451C401.779 232.467 401.763 232.491 401.754 232.517C401.053 236.808 400.782 241.158 400.945 245.502C400.945 245.978 402.706 245.062 403.04 244.86Z" fill="#C18C88"/>
<path d="M428.1 238.629C426.788 238.306 425.582 237.649 424.599 236.722C423.617 235.795 422.892 234.629 422.495 233.338C418.954 232.63 415.667 230.988 412.975 228.582C413.189 228.938 414.665 231.495 415.462 232.779C403.253 233.1 397.696 224.896 397.696 224.896C395.88 227.438 394.66 230.356 394.126 233.433C394.126 233.433 392.495 226.299 395.173 220.639C396.016 218.708 397.356 217.035 399.058 215.792C400.76 214.549 402.762 213.78 404.859 213.564C407.611 212.242 410.667 211.686 413.708 211.954C416.749 212.222 419.661 213.304 422.138 215.086C431.67 221.721 428.1 238.629 428.1 238.629Z" fill="#494256"/>
<path d="M425.101 239.212C425.101 239.212 428.29 232.779 431.158 233.825C434.026 234.872 432.229 243.778 429.29 245.407C428.93 245.641 428.525 245.8 428.102 245.873C427.678 245.947 427.244 245.934 426.826 245.835C426.408 245.736 426.014 245.553 425.668 245.298C425.323 245.042 425.033 244.719 424.815 244.349L425.101 239.212Z" fill="#FFC4C0"/>
<path d="M430.576 236.406C430.576 236.406 430.647 236.465 430.576 236.489C428.529 237.678 427.684 239.878 427.196 242.089C427.29 241.853 427.434 241.639 427.618 241.463C427.802 241.287 428.022 241.154 428.263 241.071C428.504 240.989 428.76 240.959 429.013 240.985C429.267 241.011 429.512 241.092 429.731 241.221C429.744 241.227 429.754 241.236 429.762 241.248C429.77 241.259 429.774 241.273 429.774 241.287C429.774 241.301 429.77 241.314 429.762 241.326C429.754 241.337 429.744 241.347 429.731 241.352C429.33 241.284 428.917 241.344 428.552 241.523C428.187 241.703 427.887 241.992 427.696 242.351C427.369 242.945 427.114 243.576 426.934 244.23C426.863 244.432 426.494 244.384 426.53 244.146C426.066 241.328 427.636 237.131 430.576 236.406Z" fill="#C18C88"/>
<path d="M441.833 278.451C447.367 309.854 442.012 333.374 436.68 336.287C422.305 344.135 387.795 328.225 378.049 325.062C374.122 323.79 392.055 293.719 396.078 295.574C405.538 299.937 418.795 307.357 419.33 307.298C420.401 307.191 421.639 299.176 427.137 275.811C431.575 256.953 439.56 265.645 441.833 278.451Z" fill="#FFC4C0"/>
<path d="M346.681 280.722C345.694 284.67 355.63 286.275 355.63 286.275C353.976 286.862 352.582 288.011 351.691 289.521C350.251 292.256 353.893 295.716 353.893 295.716C352.322 296.695 351.079 298.119 350.323 299.807C349.204 302.553 352.393 306.572 352.393 306.572C351.429 308.27 351.108 310.258 351.489 312.173C352.679 317.238 360.473 319.224 365.043 321.412C369.934 323.79 378.026 324.611 381.703 326.263L397.613 297.143C397.613 297.143 382.203 280.829 373.361 278.356C368.601 276.965 348.181 274.694 346.681 280.722Z" fill="#FFC4C0"/>
<path d="M355.738 286.18C361.271 285.942 366.852 287.024 372.231 288.13C372.35 288.13 372.303 288.332 372.231 288.308C366.9 287.119 361.129 287.393 355.774 286.441C355.756 286.444 355.739 286.443 355.722 286.438C355.705 286.434 355.69 286.426 355.676 286.416C355.662 286.405 355.65 286.392 355.642 286.377C355.633 286.362 355.627 286.346 355.625 286.329C355.622 286.311 355.624 286.294 355.628 286.277C355.632 286.26 355.64 286.245 355.651 286.231C355.661 286.217 355.674 286.205 355.689 286.197C355.704 286.188 355.721 286.182 355.738 286.18Z" fill="#C18C88"/>
<path d="M354.144 295.348C355.406 295.418 356.654 295.65 357.857 296.037C359.142 296.37 360.439 296.727 361.724 297.107C364.294 297.868 366.841 298.677 369.376 299.557C369.483 299.557 369.447 299.783 369.376 299.747C366.813 298.994 364.239 298.296 361.653 297.654C360.356 297.333 359.047 297.024 357.749 296.727C356.502 296.519 355.281 296.176 354.108 295.704C354.073 295.687 354.043 295.66 354.024 295.626C354.004 295.592 353.996 295.552 354 295.513C354.004 295.474 354.02 295.437 354.046 295.408C354.071 295.378 354.106 295.357 354.144 295.348Z" fill="#C18C88"/>
<path d="M352.466 306.608C353.606 306.685 354.724 306.954 355.774 307.405L359.273 308.487C361.653 309.2 363.937 309.914 366.305 310.532C366.413 310.532 366.377 310.758 366.305 310.722C363.925 310.092 361.545 309.533 359.106 308.855L355.536 307.88C354.437 307.677 353.384 307.274 352.43 306.691C352.425 306.675 352.426 306.658 352.433 306.643C352.439 306.628 352.451 306.616 352.466 306.608Z" fill="#C18C88"/>
<path d="M397.077 295.348L380.5 330.663C380.5 330.663 431.789 345.609 438.739 336.608C445.688 327.607 445.212 299.319 441.952 279.747C438.691 260.175 429.873 259.795 426.017 277.488C422.162 295.181 419.877 306.358 419.187 306.263C418.497 306.168 397.077 295.348 397.077 295.348Z" fill="#F9E4B0"/>
<path d="M403.766 300.092C403.766 300.009 403.98 300.092 403.944 300.163C403.016 302.815 401.778 305.371 400.648 307.94C399.517 310.508 398.268 313.231 397.007 315.859C394.543 321.091 392.128 326.406 389.355 331.483C389.347 331.508 389.333 331.531 389.315 331.55C389.297 331.569 389.276 331.584 389.251 331.593C389.227 331.603 389.201 331.607 389.175 331.606C389.149 331.604 389.124 331.597 389.101 331.585C389.078 331.572 389.058 331.555 389.042 331.534C389.026 331.513 389.016 331.489 389.01 331.464C389.005 331.438 389.006 331.412 389.012 331.386C389.018 331.361 389.029 331.337 389.045 331.317C391.164 325.966 393.686 320.758 396.114 315.55C397.304 312.958 398.494 310.389 399.791 307.833C401.088 305.276 402.278 302.577 403.766 300.092Z" fill="#2F2E41"/>
<path d="M407.656 337.155C409.105 337.246 410.541 337.485 411.94 337.869C413.428 338.13 414.915 338.368 416.403 338.558C419.287 338.962 422.191 339.212 425.102 339.307C427.97 339.379 435.062 338.951 437.24 336.929C439.036 335.185 440.317 332.98 440.941 330.556C441.712 327.234 442.3 323.871 442.702 320.485C443.523 313.33 443.75 306.119 443.38 298.927C443.297 296.929 443.166 294.92 443.023 292.922C442.88 290.924 442.631 288.855 442.571 286.81C442.571 286.739 442.69 286.727 442.702 286.81C443.387 290.064 443.84 293.362 444.059 296.679C444.189 294.622 444.439 292.553 444.463 290.484C444.463 290.459 444.473 290.435 444.491 290.417C444.509 290.399 444.533 290.389 444.558 290.389C444.584 290.389 444.608 290.399 444.626 290.417C444.644 290.435 444.654 290.459 444.654 290.484C444.654 292.66 444.761 294.836 444.654 297.012C444.654 298.201 444.487 299.45 444.356 300.663C444.523 303.433 444.606 306.204 444.57 308.986C444.658 316.29 443.806 323.576 442.036 330.663C441.191 333.743 439.882 336.68 437.073 338.332C434.958 339.347 432.667 339.944 430.326 340.092C425.38 340.432 420.411 340.12 415.546 339.165C414.19 338.903 412.833 338.618 411.476 338.309C410.14 338.12 408.833 337.765 407.585 337.25C407.585 337.25 407.585 337.155 407.656 337.155Z" fill="#2F2E41"/>
<path d="M397.16 294.682C400.933 296.572 404.717 298.463 408.477 300.389L414.034 303.231C415.819 304.159 419.223 305.99 419.223 305.99C419.223 305.134 419.913 302.672 420.27 301.079C420.627 299.486 421.067 297.619 421.46 295.895C421.579 295.443 421.71 295.003 421.829 294.551C421.912 293.73 421.984 292.898 422.055 292.066C422.186 290.734 422.293 289.378 422.495 288.047C422.495 288.047 422.567 288.047 422.579 288.047C422.704 289.316 422.704 290.594 422.579 291.864C423.15 289.771 423.769 287.702 424.364 285.633H424.471C423.792 289.129 423.078 292.625 422.281 296.097C421.888 297.773 421.46 299.45 421.02 301.126C420.614 302.935 420.114 304.721 419.52 306.477C417.593 305.745 415.706 304.912 413.868 303.98C411.94 303.069 410.02 302.133 408.108 301.174C404.407 299.319 400.671 297.428 397.089 295.336C397.089 295.336 396.839 295.811 396.803 295.871C396.768 295.93 396.589 295.764 396.637 295.597C396.684 295.431 397.065 294.646 397.16 294.682Z" fill="#2F2E41"/>
<path d="M364.615 329.521H316.289L295.107 261.186H343.421L364.615 329.521Z" fill="#2F2E41"/>
<path d="M362.247 329.521H313.921L292.727 261.186H341.053L362.247 329.521Z" fill="#3F3D56"/>
<path d="M322.407 293.207C322.788 294.51 323.566 295.663 324.632 296.504C325.698 297.346 327 297.835 328.357 297.904C328.934 297.934 329.51 297.82 330.033 297.572C330.556 297.325 331.009 296.952 331.352 296.486C331.695 296.021 331.918 295.478 331.999 294.906C332.081 294.333 332.019 293.75 331.82 293.207C331.449 291.893 330.676 290.728 329.609 289.875C328.542 289.022 327.234 288.524 325.87 288.451C325.285 288.417 324.701 288.531 324.171 288.781C323.641 289.032 323.183 289.411 322.839 289.884C322.494 290.358 322.274 290.91 322.198 291.491C322.123 292.071 322.194 292.662 322.407 293.207Z" fill="white"/>
<path d="M300.166 285.145C297.786 289.486 291.55 294.813 290.919 298.427C290.728 299.311 290.827 300.233 291.202 301.055C291.578 301.878 292.209 302.558 293.002 302.993C293.002 302.993 289.265 304.599 289.229 307.975C289.229 309.712 291.966 311.269 291.966 311.269C291.141 311.678 290.445 312.306 289.954 313.084C289.462 313.862 289.195 314.761 289.182 315.681C289.301 318.059 292.038 319.248 292.038 319.248C292.038 319.248 289.86 321.911 290.764 324.313C292.597 329.177 313.137 330.33 316.742 322.946C318.408 319.498 313.375 319.498 313.375 319.498C313.375 319.498 320.622 317.762 320.967 313.552C321.312 309.343 314.767 309.712 314.767 309.712C314.767 309.712 321.776 307.975 321.693 303.552C321.609 299.129 315.124 300.461 315.124 300.461C315.124 300.461 319.884 297.619 319.027 294.254C317.647 288.689 307.353 295.3 302.902 293.98L300.166 285.145Z" fill="#FFC4C0"/>
<path d="M291.86 311.305C291.788 311.305 291.765 311.424 291.86 311.447C299.524 313.729 307.753 313.189 315.053 309.925C315.303 309.807 315.41 309.45 315.053 309.557C310.007 311.543 298.393 312.232 291.86 311.305Z" fill="#C18C88"/>
<path d="M315.576 300.045C308.436 303.16 300.987 303.612 293.275 303.089C293.18 303.089 293.18 303.219 293.275 303.255C296.964 304.563 301.915 304.444 305.77 303.98C309.345 303.644 312.768 302.373 315.695 300.294C315.802 300.211 315.731 299.985 315.576 300.045Z" fill="#C18C88"/>
<path d="M191.68 395.039C192.68 397.738 241.66 458.571 244.992 459.712C246.253 460.152 255.535 453.541 266.53 445.229C268.91 443.434 271.29 441.567 273.813 439.664C289.842 427.286 306.562 413.779 306.562 413.779L273.92 372.982L242.064 399.997L235.067 405.943C235.067 405.943 205.889 391.032 202.092 390.176C198.296 389.319 190.68 392.34 191.68 395.039Z" fill="#FFC4C0"/>
<path d="M191.68 395.039C192.679 397.738 241.66 458.571 244.992 459.712C246.539 460.235 259.914 450.366 273.813 439.664L242.064 399.997L235.067 405.943C235.067 405.943 205.888 391.032 202.092 390.176C198.296 389.319 190.68 392.34 191.68 395.039Z" fill="white"/>
<path d="M191.68 395.039C192.68 397.738 241.66 458.571 244.992 459.712C246.254 460.152 255.536 453.541 266.531 445.229L235.068 405.919C235.068 405.919 205.889 391.008 202.093 390.152C198.297 389.296 190.681 392.34 191.68 395.039Z" fill="#F9E4B0"/>
<path d="M194.822 393.945C203.283 403.945 236.472 445.075 244.064 455.586C244.124 455.669 244.064 455.717 244.005 455.645C235.401 445.919 202.545 404.516 194.644 394.087C194.477 393.862 194.644 393.743 194.822 393.945Z" fill="#2F2E41"/>
<path d="M207.436 392.304C208.372 393.415 209.067 394.709 209.477 396.103C209.887 397.497 210.002 398.961 209.816 400.401C209.524 402.996 208.246 405.38 206.246 407.06C206.186 407.06 206.091 407.06 206.151 406.941C207.896 404.972 208.955 402.49 209.17 399.868C209.385 397.246 208.743 394.626 207.341 392.399C207.339 392.386 207.34 392.373 207.344 392.36C207.348 392.348 207.355 392.337 207.364 392.327C207.373 392.318 207.385 392.311 207.397 392.307C207.41 392.303 207.423 392.302 207.436 392.304Z" fill="#2F2E41"/>
<path d="M230.867 402.78C234.211 406.811 236.579 412.708 235.282 417.928C235.222 418.131 234.937 418.059 234.901 417.928C233.908 412.854 232.368 407.903 230.308 403.16C230.283 403.123 230.265 403.082 230.256 403.039C230.247 402.995 230.247 402.95 230.255 402.907C230.263 402.863 230.28 402.822 230.304 402.785C230.329 402.747 230.36 402.715 230.397 402.69C230.434 402.665 230.475 402.648 230.518 402.639C230.562 402.63 230.607 402.629 230.65 402.638C230.694 402.646 230.736 402.663 230.773 402.687C230.81 402.712 230.842 402.743 230.867 402.78Z" fill="#2F2E41"/>
<path d="M227.094 400.616C230.438 404.646 232.806 410.544 231.509 415.764C231.509 415.966 231.176 415.895 231.14 415.764C230.138 410.691 228.594 405.74 226.535 400.996C226.485 400.922 226.466 400.831 226.482 400.743C226.499 400.655 226.55 400.577 226.624 400.526C226.698 400.476 226.79 400.457 226.878 400.474C226.966 400.49 227.044 400.541 227.094 400.616Z" fill="#2F2E41"/>
<path d="M223.335 398.404C226.679 402.447 229.047 408.333 227.749 413.553C227.69 413.755 227.404 413.683 227.369 413.553C226.374 408.479 224.834 403.528 222.775 398.784C222.725 398.71 222.706 398.619 222.723 398.531C222.739 398.443 222.79 398.365 222.865 398.315C222.939 398.264 223.03 398.245 223.118 398.262C223.206 398.279 223.284 398.33 223.335 398.404Z" fill="#2F2E41"/>
<path d="M219.562 396.287C222.906 400.33 225.274 406.216 223.977 411.436C223.977 411.638 223.644 411.567 223.608 411.436C222.604 406.359 221.06 401.405 219.003 396.656C218.954 396.582 218.936 396.491 218.954 396.404C218.972 396.317 219.024 396.241 219.098 396.192C219.172 396.143 219.263 396.126 219.35 396.144C219.437 396.162 219.513 396.213 219.562 396.287Z" fill="#2F2E41"/>
<path d="M251.667 445.193C255.345 449.783 248.204 455.503 244.527 450.901C240.85 446.299 247.99 440.604 251.667 445.193Z" fill="white"/>
<path d="M238.209 389.605C241.588 390.294 242.017 394.242 241.255 396.941C239.882 401.581 237.308 405.777 233.794 409.105C233.782 409.123 233.766 409.137 233.747 409.146C233.728 409.156 233.708 409.161 233.687 409.161C233.666 409.161 233.645 409.156 233.626 409.146C233.608 409.137 233.592 409.123 233.58 409.105C233.489 409.152 233.389 409.176 233.287 409.176C233.185 409.176 233.084 409.152 232.994 409.105C232.903 409.059 232.825 408.991 232.765 408.909C232.706 408.826 232.667 408.731 232.651 408.63C232.33 404.111 231.461 399.319 232.485 394.825C233.139 392.126 235.02 388.951 238.209 389.605ZM233.568 401.591C233.675 403.814 233.889 406.026 233.913 408.261C235.431 405.954 236.833 403.573 238.114 401.127C238.711 399.928 239.232 398.693 239.672 397.429C240.303 395.455 240.494 388.701 235.722 391.864C233.139 393.576 233.437 398.939 233.568 401.591Z" fill="#2F2E41"/>
<path d="M240.446 420.413C237.043 417.298 235.103 412.815 232.83 408.891C232.789 408.8 232.769 408.7 232.773 408.6C232.776 408.5 232.804 408.402 232.852 408.314C232.901 408.226 232.969 408.151 233.052 408.094C233.135 408.037 233.231 408.001 233.33 407.988C233.328 407.966 233.331 407.944 233.339 407.923C233.347 407.903 233.359 407.884 233.375 407.869C233.391 407.854 233.411 407.843 233.432 407.837C233.453 407.831 233.475 407.829 233.497 407.833C238.256 408.615 242.728 410.628 246.468 413.671C248.61 415.491 250.478 418.987 248.074 421.46C245.67 423.933 242.434 422.185 240.446 420.413ZM244.754 421.008C250.49 420.949 246.539 415.467 244.909 414.195C243.83 413.39 242.702 412.656 241.529 411.995C239.149 410.604 236.555 409.617 234.032 408.428C235.222 410.283 236.329 412.233 237.495 414.135C238.876 416.406 241.601 420.996 244.754 420.996V421.008Z" fill="#2F2E41"/>
<path d="M426.625 330.675C428.838 332.209 430.968 333.838 433.158 335.431C435.348 337.024 437.513 338.439 439.548 340.187C441.583 341.935 443.594 343.754 445.498 345.597C446.438 346.489 447.378 347.393 448.283 348.32C449.244 349.209 450.136 350.171 450.948 351.198C451.02 351.305 450.877 351.412 450.782 351.352C449.746 350.627 448.76 349.832 447.831 348.974L444.76 346.228C442.773 344.539 440.75 342.898 438.81 341.198C436.871 339.498 435.014 337.631 433.063 335.978C431.111 334.325 428.779 332.411 426.601 330.734C426.542 330.77 426.577 330.639 426.625 330.675Z" fill="#2F2E41"/>
<path d="M251.738 392.197C253.952 394.575 255.987 397.132 258.045 399.641C260.104 402.149 262.163 404.694 264.198 407.239C268.268 412.316 272.385 417.381 276.383 422.53C278.585 425.348 280.751 428.19 282.797 431.139C282.893 431.27 282.678 431.412 282.583 431.293C278.192 426.478 274.194 421.341 270.124 416.264C266.054 411.186 261.984 406.061 257.998 400.913C255.808 398.095 253.547 395.289 251.548 392.34C251.465 392.221 251.643 392.09 251.738 392.197Z" fill="#C18C88"/>
<path d="M311.125 418.963C316.825 414.468 322.74 410.235 328.654 406.026C334.568 401.817 340.423 397.631 346.397 393.564C348.11 392.375 349.836 391.246 351.561 390.104C353.287 388.963 355.131 387.893 356.774 386.704C356.869 386.644 356.964 386.799 356.869 386.87C355.31 387.988 353.846 389.248 352.323 390.378C350.8 391.507 349.419 392.601 347.956 393.683C345.088 395.8 342.196 397.881 339.304 399.973C333.45 404.195 327.547 408.38 321.597 412.459C318.206 414.777 314.838 417.108 311.375 419.32C311.173 419.45 310.923 419.117 311.125 418.963Z" fill="#2F2E41"/>
<path d="M274.461 371.709C279.733 367.345 285.385 363.386 290.907 359.379C296.429 355.372 302.057 351.174 307.662 347.131L324.322 335.062C329.725 331.162 335.092 327.203 340.792 323.754C343.91 321.864 347.111 320.116 350.395 318.546C353.581 316.913 356.901 315.556 360.32 314.491C360.427 314.491 360.474 314.61 360.391 314.658C357.583 316.228 354.632 317.547 351.787 319.057C348.943 320.568 346.206 322.125 343.457 323.814C337.805 327.238 332.462 331.138 327.095 334.991C315.957 342.993 304.83 351.043 293.608 358.939C287.325 363.362 281.173 368.023 274.652 372.019C274.509 372.173 274.271 371.864 274.461 371.709Z" fill="#2F2E41"/>
<path d="M15.8292 353.362C30.3709 373.053 45.5791 395.883 49.2324 420.568C49.2324 420.949 48.6731 421.067 48.5898 420.699C46.9156 413.963 44.7643 407.355 42.152 400.925C32.632 398.297 23.2072 396.168 18.1854 386.656C13.0684 376.917 13.7229 364.206 14.6868 353.588C14.7582 352.958 15.5317 352.934 15.8292 353.362Z" fill="#F9E4B0"/>
<path d="M42.0087 400.687C35.4755 386.038 27.0741 371.329 16.364 359.307C16.2926 359.224 16.1855 359.308 16.2569 359.426C23.2304 368 28.5378 377.346 33.7143 386.858C28.8948 381.971 23.6231 377.595 19.0653 372.411C19.0453 372.396 19.0207 372.389 18.9958 372.39C18.9708 372.391 18.9471 372.401 18.9288 372.418C18.9104 372.435 18.8985 372.458 18.8952 372.483C18.8919 372.507 18.8974 372.533 18.9107 372.554C23.4446 377.988 28.4307 383.897 34.2974 387.916C35.8841 390.834 37.4708 393.755 39.0575 396.68C38.6529 396.454 38.2483 396.264 37.8675 396.062C37.7961 396.062 37.7246 396.133 37.8079 396.169C38.2482 396.394 38.7005 396.632 39.1646 396.834C39.9262 398.214 40.6878 399.605 41.4732 400.984C41.7231 401.27 42.1515 400.996 42.0087 400.687Z" fill="#2F2E41"/>
<path d="M37.1536 395.574C33.2417 393.391 29.5092 390.902 25.9913 388.13C25.8961 388.059 25.7533 388.19 25.8485 388.261C29.2562 391.211 32.9938 393.756 36.9869 395.847C37.0049 395.858 37.0249 395.866 37.0457 395.869C37.0665 395.872 37.0877 395.871 37.1081 395.866C37.1286 395.861 37.1478 395.852 37.1648 395.84C37.1818 395.827 37.1962 395.812 37.2071 395.794C37.2181 395.776 37.2253 395.756 37.2286 395.735C37.2318 395.714 37.2309 395.693 37.2259 395.673C37.221 395.652 37.212 395.633 37.1996 395.616C37.1872 395.599 37.1715 395.585 37.1536 395.574Z" fill="#2F2E41"/>
<path d="M50.8739 416.846C50.8739 417.144 50.3384 417.132 50.3384 416.846C50.267 408.713 50.3384 400.544 50.2194 392.387C48.125 388.178 43.6625 385.859 40.5447 382.482C38.3104 380.026 36.3659 377.321 34.7495 374.42C30.9974 367.482 28.7053 359.851 28.0141 351.995C27.1573 343.303 30.4536 314.611 34.1306 315.609C36.0227 316.121 42.1869 330.33 43.8172 335.027C46.464 342.762 48.3998 350.722 49.6006 358.808C52.6113 377.952 52.3614 397.595 50.8739 416.846Z" fill="#F9E4B0"/>
<path d="M50.9699 381.781C50.5177 371.495 48.2091 361.115 46.0314 351.139C43.6514 340.437 40.962 330.27 35.4285 320.687C35.3214 320.508 35.0596 320.687 35.1548 320.853C38.8469 328.304 41.7043 336.14 43.6752 344.218C43.3063 343.647 42.8541 343.089 42.4852 342.542C42.3424 342.328 41.9854 342.542 42.1282 342.756C42.6265 343.623 43.2084 344.439 43.8656 345.193H43.937C45.841 352.875 47.2095 360.734 48.3757 368.57C48.2949 368.462 48.2074 368.359 48.1139 368.261C48.0544 368.261 47.9592 368.261 47.9949 368.356C48.1377 368.618 48.3043 368.868 48.459 369.129C49.054 373.113 49.649 377.084 50.1488 381.02C43.0088 374.956 37.0588 367.821 33.5959 359.034C33.5959 359.034 33.5126 359.034 33.5245 359.034C36.8684 368.142 42.1401 376.252 50.2559 381.793C50.4106 382.851 50.5534 383.909 50.7081 384.967C50.7081 385.181 51.0889 385.122 51.0889 384.908C51.0889 383.981 51.0889 383.041 51.0056 382.102C51.0246 382.079 51.0389 382.052 51.0474 382.023C51.0559 381.994 51.0586 381.964 51.0553 381.934C51.052 381.904 51.0427 381.875 51.028 381.849C51.0134 381.822 50.9936 381.799 50.9699 381.781Z" fill="#2F2E41"/>
<path d="M47.6259 366.882C42.2115 358.796 37.154 350.96 33.1913 342.03C33.1818 342.007 33.1633 341.988 33.1399 341.978C33.1165 341.968 33.09 341.967 33.0663 341.977C33.0427 341.986 33.0237 342.005 33.0137 342.028C33.0036 342.052 33.0033 342.078 33.0128 342.102C36.3567 350.972 41.0334 359.938 47.3641 367.072C47.4831 367.227 47.7449 367.036 47.6259 366.882Z" fill="#2F2E41"/>
<path d="M40.4264 340.033C38.1892 336.061 35.8211 332.209 33.7148 328.142C33.6553 328.035 33.5007 328.142 33.5483 328.249C35.2712 332.49 37.4625 336.527 40.0813 340.282C40.236 340.437 40.5573 340.282 40.4264 340.033Z" fill="#2F2E41"/>
<path d="M56.4192 393.338C56.5227 398.723 57.1565 404.083 58.3113 409.343L58.0614 411.103C56.4045 405.292 55.4418 399.305 55.1935 393.267C55.1466 393.181 55.122 393.085 55.122 392.988C55.122 392.89 55.1466 392.794 55.1935 392.708C54.9653 384.606 55.5674 376.502 56.9904 368.523C59.5132 353.588 65.011 339.248 75.4473 328.095C75.5331 328.012 75.6378 327.951 75.7523 327.917C75.8668 327.884 75.9877 327.878 76.1047 327.902C76.2217 327.925 76.3313 327.977 76.4241 328.052C76.5168 328.127 76.59 328.223 76.6373 328.332C80.8499 339.034 79.3743 351.769 75.7924 362.435C73.8463 368.207 71.0638 373.664 67.5338 378.63C63.8805 383.6 59.3228 387.845 56.4192 393.338Z" fill="#F9E4B0"/>
<path d="M74.1859 333.029C64.3089 349.058 57.4307 368.059 56.5858 386.977C56.5858 387.322 57.1332 387.405 57.1808 387.06C57.4188 385.36 57.6806 383.671 57.9543 381.995C62.0479 378.083 66.2843 373.957 69.1641 369.058C69.2236 368.975 69.0927 368.879 69.0332 368.951C65.6429 373.13 62.0028 377.101 58.1328 380.841C58.8468 376.656 59.6798 372.518 60.6794 368.487L61.4529 367.571C61.6314 367.369 61.3458 367.072 61.1673 367.274L60.9293 367.536C62.3154 361.974 64.0401 356.502 66.0939 351.15C68.6048 348.154 71.4251 345.562 73.2339 341.947C73.2339 341.864 73.1506 341.792 73.103 341.864C71.6274 343.933 70.1994 346.014 68.5334 347.928C67.867 348.689 67.1292 349.403 66.439 350.152C68.7159 344.343 71.4206 338.711 74.531 333.303C74.5528 333.256 74.5584 333.204 74.5468 333.155C74.5352 333.105 74.5071 333.061 74.4671 333.029C74.4271 332.997 74.3775 332.98 74.3265 332.98C74.2754 332.98 74.2259 332.997 74.1859 333.029Z" fill="#2F2E41"/>
<path d="M72.1872 352.803C68.9979 357.096 65.3565 361.186 62.3815 365.633C62.2982 365.752 62.4886 365.883 62.5957 365.788C66.4037 362.221 69.6405 357.334 72.4014 352.922C72.4847 352.779 72.2943 352.672 72.1872 352.803Z" fill="#2F2E41"/>
<path d="M61.9406 366.62L61.7975 366.763C61.702 366.859 61.8571 367.002 61.9525 366.907L62.0838 366.775C62.1792 366.68 62.036 366.525 61.9406 366.62Z" fill="#2F2E41"/>
<path d="M89.6683 363.838C88.4988 372.783 84.8928 381.236 79.2439 388.273C76.9134 391.037 74.0318 393.284 70.783 394.872C67.1178 396.68 63.286 398.761 59.5018 400.247C57.699 404.83 56.3596 409.583 55.5034 414.432C55.3844 414.016 55.2654 413.588 55.1345 413.172C57.574 392.304 71.0924 374.468 88.3712 363.017C88.5068 362.93 88.6647 362.882 88.8262 362.881C88.9878 362.881 89.1463 362.926 89.2828 363.012C89.4193 363.099 89.5282 363.222 89.5965 363.369C89.6648 363.515 89.6898 363.678 89.6683 363.838Z" fill="#F9E4B0"/>
<path d="M83.6943 370.009C83.8133 369.902 83.6943 369.688 83.5158 369.783C74.0152 376.842 66.4412 386.172 61.489 396.918C61.3581 397.203 61.7507 397.453 61.9173 397.167C62.7146 395.764 63.5357 394.385 64.3687 393.041C68.3195 392.292 72.0561 389.474 74.9835 386.882C75.0668 386.811 74.9835 386.692 74.8645 386.763C73.363 388.161 71.6871 389.36 69.8784 390.33C68.26 391.151 66.5345 391.662 64.8566 392.316C66.3203 389.997 67.8435 387.774 69.4381 385.61C73.7161 383.998 77.7275 381.753 81.3381 378.951C81.3634 378.935 81.3813 378.91 81.388 378.881C81.3947 378.852 81.3896 378.821 81.3738 378.796C81.358 378.771 81.3329 378.753 81.3039 378.746C81.2749 378.74 81.2444 378.745 81.2191 378.761C77.6523 380.915 73.974 382.88 70.1997 384.646C72.6104 381.474 75.2092 378.448 77.9823 375.586C79.327 374.872 80.6836 374.159 81.9807 373.41C82.0878 373.35 81.9807 373.16 81.8974 373.208C80.8155 373.582 79.7843 374.09 78.8272 374.718C80.3623 373.077 81.9688 371.519 83.6943 370.009Z" fill="#2F2E41"/>
<path d="M83.3254 377.203C83.0938 377.348 82.8712 377.507 82.6589 377.679C82.6589 377.738 82.6589 377.822 82.7422 377.798C82.9828 377.682 83.2136 377.546 83.4325 377.393C83.5515 377.322 83.4444 377.143 83.3254 377.203Z" fill="#2F2E41"/>
<path d="M28.1574 459.629H75.5312L71.7114 416.525L70.8664 407.013H32.8222L31.9773 416.525L28.1574 459.629Z" fill="#3F3D56"/>
<path d="M31.9768 416.525H71.7109L70.866 407.013H32.8217L31.9768 416.525Z" fill="#2F2E41"/>
<path d="M30.5606 400.366H73.1387V409.771H30.5606V400.366Z" fill="#3F3D56"/>
<path d="M86.2637 84.0256L87.1543 84.0842C87.373 85.053 87.8223 86.4241 88.502 88.1975C89.1816 89.9631 89.6309 91.2834 89.8496 92.1584C89.8496 92.385 89.8105 92.553 89.7324 92.6624C89.6543 92.7795 89.5566 92.8381 89.4395 92.8381C89.3379 92.8381 89.2402 92.7952 89.1465 92.7092C89.0605 92.6311 89.002 92.5178 88.9707 92.3694C88.9004 92.0256 88.6738 91.3381 88.291 90.3069C86.6816 90.1038 85.6699 89.9788 85.2559 89.9319C85.1543 90.2131 85.0293 90.6702 84.8809 91.303C84.7324 91.9358 84.6152 92.3733 84.5293 92.6155C84.4121 92.7561 84.2793 92.8264 84.1309 92.8264C83.9668 92.8264 83.8262 92.7522 83.709 92.6038C83.5918 92.4631 83.5332 92.2874 83.5332 92.0764C83.7832 91.1624 84.2363 89.8186 84.8926 88.0452C85.5488 86.2717 86.0059 84.9319 86.2637 84.0256ZM86.6738 85.2092C86.5176 86.1545 86.084 87.5413 85.373 89.3694H86.6855C87.2793 89.3694 87.7754 89.3889 88.1738 89.428C87.3691 87.7014 86.8691 86.2952 86.6738 85.2092ZM95.1371 92.8264L94.4926 92.6975C94.4926 92.5413 94.4887 92.4241 94.4809 92.3459C94.0668 92.6116 93.6293 92.7444 93.1684 92.7444C92.4574 92.7444 91.9027 92.4397 91.5043 91.8303C91.1137 91.2209 90.9184 90.5295 90.9184 89.7561C90.9184 89.3577 90.9457 88.9827 91.0004 88.6311C91.0629 88.2795 91.1645 87.9202 91.3051 87.553C91.4535 87.178 91.6801 86.8811 91.9848 86.6624C92.2973 86.4436 92.6723 86.3342 93.1098 86.3342C93.5395 86.3342 93.9418 86.4397 94.3168 86.6506C94.3793 85.8225 94.4105 84.9866 94.4105 84.1428C94.4105 83.76 94.4066 83.4788 94.3988 83.2991C94.7738 83.3694 95.0707 83.4592 95.2895 83.5686L95.1371 92.8264ZM94.3871 91.5725L94.352 87.7991C94.2582 87.6038 94.1098 87.4514 93.9066 87.342C93.7113 87.2249 93.5004 87.1663 93.2738 87.1663C92.9691 87.1663 92.7074 87.2639 92.4887 87.4592C92.2777 87.6545 92.1254 87.9163 92.0316 88.2444C91.9457 88.5647 91.8832 88.8655 91.8441 89.1467C91.8129 89.428 91.7973 89.7249 91.7973 90.0374C91.7973 91.3655 92.2426 92.0295 93.1332 92.0295C93.4301 92.0295 93.6996 91.9905 93.9418 91.9124C94.1918 91.8264 94.3402 91.7131 94.3871 91.5725ZM101.057 92.8264L100.413 92.6975C100.413 92.5413 100.409 92.4241 100.401 92.3459C99.9871 92.6116 99.5496 92.7444 99.0887 92.7444C98.3777 92.7444 97.823 92.4397 97.4246 91.8303C97.034 91.2209 96.8387 90.5295 96.8387 89.7561C96.8387 89.3577 96.866 88.9827 96.9207 88.6311C96.9832 88.2795 97.0848 87.9202 97.2254 87.553C97.3738 87.178 97.6004 86.8811 97.9051 86.6624C98.2176 86.4436 98.5926 86.3342 99.0301 86.3342C99.4598 86.3342 99.8621 86.4397 100.237 86.6506C100.3 85.8225 100.331 84.9866 100.331 84.1428C100.331 83.76 100.327 83.4788 100.319 83.2991C100.694 83.3694 100.991 83.4592 101.21 83.5686L101.057 92.8264ZM100.307 91.5725L100.272 87.7991C100.179 87.6038 100.03 87.4514 99.827 87.342C99.6316 87.2249 99.4207 87.1663 99.1941 87.1663C98.8895 87.1663 98.6277 87.2639 98.409 87.4592C98.198 87.6545 98.0457 87.9163 97.952 88.2444C97.866 88.5647 97.8035 88.8655 97.7645 89.1467C97.7332 89.428 97.7176 89.7249 97.7176 90.0374C97.7176 91.3655 98.1629 92.0295 99.0535 92.0295C99.3504 92.0295 99.6199 91.9905 99.8621 91.9124C100.112 91.8264 100.261 91.7131 100.307 91.5725ZM109.91 86.8499L110.039 87.3772C109.828 87.3928 109.504 87.4358 109.066 87.5061C108.629 87.5686 108.3 87.6077 108.082 87.6233C108.121 87.8967 108.144 88.2561 108.152 88.7014C108.16 89.1467 108.168 89.5334 108.175 89.8616C108.191 90.1819 108.226 90.5061 108.281 90.8342C108.343 91.1545 108.464 91.4006 108.644 91.5725C108.832 91.7444 109.082 91.8303 109.394 91.8303C109.629 91.8303 109.921 91.7756 110.273 91.6663C110.421 91.9553 110.531 92.1663 110.601 92.2991C109.984 92.5178 109.359 92.6272 108.726 92.6272C108.492 92.6272 108.289 92.5569 108.117 92.4163C107.945 92.2756 107.812 92.0999 107.718 91.8889C107.625 91.678 107.546 91.4124 107.484 91.092C107.429 90.7639 107.394 90.4553 107.379 90.1663C107.363 89.8772 107.355 89.5452 107.355 89.1702C107.355 88.967 107.355 88.6858 107.355 88.3264C107.363 87.967 107.367 87.7209 107.367 87.5881C107.289 87.5959 107.105 87.6038 106.816 87.6116C106.527 87.6116 106.359 87.6116 106.312 87.6116C106.257 87.0881 106.23 86.8186 106.23 86.803C106.285 86.8186 106.375 86.8264 106.5 86.8264C106.57 86.8264 106.683 86.8225 106.839 86.8147C106.996 86.7991 107.113 86.7913 107.191 86.7913C107.222 86.7913 107.261 86.7952 107.308 86.803C107.363 86.803 107.398 86.803 107.414 86.803C107.445 85.9436 107.48 85.2444 107.519 84.7053L108.046 84.8342C108.054 85.0217 108.058 85.2249 108.058 85.4436C108.066 85.6545 108.07 85.8928 108.07 86.1584C108.078 86.4163 108.082 86.6155 108.082 86.7561C108.285 86.7717 108.589 86.7874 108.996 86.803C109.402 86.8186 109.707 86.8342 109.91 86.8499ZM112.092 87.4592L111.857 86.8616C112.061 86.6584 112.318 86.4983 112.631 86.3811C112.943 86.2561 113.252 86.1936 113.557 86.1936C114.877 86.1936 115.537 87.3342 115.537 89.6155C115.537 89.928 115.518 90.3889 115.479 90.9983C115.447 91.6077 115.432 92.0647 115.432 92.3694C115.369 92.6116 115.248 92.7327 115.068 92.7327C114.928 92.7327 114.799 92.6624 114.682 92.5217C114.564 92.3811 114.506 92.2249 114.506 92.053C114.506 91.9983 114.51 91.9592 114.518 91.9358C114.033 92.4045 113.518 92.6389 112.971 92.6389C112.557 92.6389 112.193 92.4905 111.881 92.1936C111.576 91.8889 111.424 91.5217 111.424 91.092C111.424 90.3655 111.705 89.7092 112.268 89.1233C112.838 88.5374 113.482 88.2444 114.201 88.2444C114.232 88.2444 114.264 88.2483 114.295 88.2561C114.326 88.2561 114.361 88.26 114.4 88.2678C114.447 88.2756 114.482 88.2795 114.506 88.2795C114.443 87.3655 114.08 86.9084 113.416 86.9084C113.025 86.9084 112.584 87.092 112.092 87.4592ZM114.541 91.1272C114.557 90.5803 114.564 90.1663 114.564 89.885C114.564 89.6506 114.557 89.3225 114.541 88.9006H114.447C113.893 88.9084 113.385 89.1155 112.924 89.5217C112.471 89.928 112.244 90.4202 112.244 90.9983C112.244 91.2483 112.318 91.4475 112.467 91.5959C112.623 91.7444 112.811 91.8186 113.029 91.8186C113.373 91.8186 113.877 91.5881 114.541 91.1272ZM120.696 86.8733L120.579 87.342C119.821 87.0295 119.231 86.8733 118.809 86.8733C118.434 86.8733 118.168 86.9319 118.012 87.0491C117.864 87.1584 117.789 87.3967 117.789 87.7639C117.789 88.0608 117.895 88.3069 118.106 88.5022C118.325 88.6975 118.586 88.8538 118.891 88.9709C119.196 89.0803 119.5 89.2014 119.805 89.3342C120.118 89.4592 120.379 89.6467 120.59 89.8967C120.809 90.1467 120.918 90.4553 120.918 90.8225C120.918 91.3225 120.735 91.76 120.368 92.135C120 92.51 119.524 92.7014 118.938 92.7092C118.508 92.7092 118.106 92.6194 117.731 92.4397C117.356 92.26 117.059 92.0334 116.84 91.76L117.18 91.4084C117.274 91.4475 117.411 91.51 117.59 91.5959C117.778 91.6819 117.911 91.7405 117.989 91.7717C118.067 91.7952 118.18 91.8225 118.329 91.8538C118.485 91.885 118.649 91.9006 118.821 91.9006C119.188 91.9006 119.489 91.8186 119.723 91.6545C119.957 91.4905 120.075 91.26 120.075 90.9631C120.075 90.7678 120.02 90.6038 119.911 90.4709C119.801 90.3303 119.657 90.217 119.477 90.1311C119.297 90.0452 119.098 89.9631 118.879 89.885C118.668 89.8069 118.454 89.7209 118.235 89.6272C118.024 89.5256 117.829 89.4084 117.649 89.2756C117.469 89.135 117.325 88.9475 117.215 88.7131C117.106 88.4788 117.051 88.2014 117.051 87.8811C117.051 87.4124 117.176 87.0217 117.426 86.7092C117.684 86.3889 118.043 86.2288 118.504 86.2288C118.684 86.2288 118.887 86.2561 119.114 86.3108C119.34 86.3655 119.52 86.4163 119.653 86.4631C119.786 86.51 119.981 86.5881 120.239 86.6975C120.504 86.7991 120.657 86.8577 120.696 86.8733ZM126.511 92.5217L125.432 92.4983C125.143 92.2092 124.745 91.7444 124.237 91.1038C123.737 90.4553 123.421 90.0569 123.288 89.9084V92.3225C123.218 92.5569 123.081 92.6741 122.878 92.6741C122.737 92.6741 122.6 92.6194 122.468 92.51C122.343 92.3928 122.264 92.2522 122.233 92.0881C122.257 91.2834 122.268 89.9475 122.268 88.0803C122.268 86.2131 122.284 84.8733 122.315 84.0608L123.03 84.2131C123.038 84.5256 123.05 85.1663 123.065 86.135C123.089 87.1038 123.108 87.8264 123.124 88.303L125.971 86.217L126.171 86.7444C125.429 87.2834 124.557 88.0452 123.557 89.0295C123.768 89.2561 124.233 89.8108 124.952 90.6936C125.679 91.5686 126.198 92.178 126.511 92.5217Z" fill="#4F4F4F"/>
<path opacity="0.3" d="M62.3998 54.7682C48.5406 54.7682 37.3055 43.5419 37.3055 29.6936C37.3055 15.8453 48.5406 4.61899 62.3998 4.61899C76.259 4.61899 87.4941 15.8453 87.4941 29.6936C87.4941 43.5419 76.259 54.7682 62.3998 54.7682Z" fill="black"/>
<path d="M62.3998 50.1492C48.5406 50.1492 37.3055 38.923 37.3055 25.0746C37.3055 11.2263 48.5406 0 62.3998 0C76.259 0 87.4941 11.2263 87.4941 25.0746C87.4941 38.923 76.259 50.1492 62.3998 50.1492Z" fill="#80CC95"/>
<path d="M62.3949 40.2514C63.1236 40.2514 63.7207 33.5901 63.7207 25.4045C63.7207 17.219 63.1236 10.5577 62.3949 10.5577C61.6662 10.5577 61.0791 17.219 61.0791 25.4045C61.0791 33.5901 61.6763 40.2514 62.3949 40.2514Z" fill="white"/>
<path d="M47.2117 25.0746C47.2117 25.8055 53.8683 26.3943 62.0702 26.3943C70.2721 26.3943 76.9287 25.8055 76.9287 25.0746C76.9287 24.3437 70.2721 23.7549 62.0702 23.7549C53.8683 23.7549 47.2117 24.3437 47.2117 25.0746Z" fill="white"/>
<path d="M453 347.599L351.889 382L323 345.699C323 345.699 329.5 339.165 335.278 337.713C338.045 337.017 375 331.973 398.833 337.713C434.944 339.174 453 347.599 453 347.599Z" fill="#2A283D"/>
</svg>
