<svg width="525" height="488" viewBox="0 0 525 488" fill="none" xmlns="http://www.w3.org/2000/svg">
<path d="M276.899 172.624C276.598 172.047 276.148 171.561 275.595 171.216C275.043 170.871 274.408 170.68 273.757 170.662C273.716 170.661 273.676 170.667 273.638 170.681C273.6 170.695 273.565 170.717 273.535 170.744C273.505 170.772 273.481 170.805 273.464 170.842C273.447 170.879 273.437 170.919 273.436 170.959C273.436 171.044 273.467 171.125 273.525 171.187C273.582 171.249 273.661 171.286 273.745 171.292C274.288 171.309 274.817 171.47 275.277 171.758C275.737 172.047 276.112 172.452 276.363 172.933C276.675 173.491 276.889 174.099 276.994 174.729C276.537 174.218 275.916 173.882 275.238 173.779C274.559 173.676 273.867 173.812 273.278 174.164C272.69 174.516 272.242 175.062 272.013 175.708C271.783 176.354 271.786 177.059 272.021 177.703C272.256 178.347 272.707 178.89 273.299 179.237C273.89 179.584 274.584 179.715 275.261 179.606C275.939 179.497 276.557 179.156 277.01 178.642C277.463 178.127 277.722 177.471 277.744 176.786C277.756 176.588 277.756 176.389 277.744 176.191C277.766 174.95 277.475 173.724 276.899 172.624ZM277.113 176.738C277.124 176.793 277.124 176.85 277.113 176.905C277.107 176.918 277.103 176.932 277.103 176.946C277.103 176.961 277.107 176.975 277.113 176.988C277.027 177.555 276.739 178.072 276.301 178.443C275.864 178.815 275.307 179.016 274.733 179.009C274.262 179.009 273.802 178.87 273.411 178.609C273.019 178.347 272.714 177.976 272.534 177.541C272.354 177.107 272.307 176.629 272.399 176.167C272.491 175.706 272.717 175.282 273.05 174.95C273.383 174.617 273.807 174.391 274.269 174.299C274.73 174.207 275.209 174.254 275.644 174.434C276.079 174.614 276.45 174.919 276.712 175.31C276.973 175.701 277.113 176.161 277.113 176.631V176.738Z" fill="#F8F8F8"/>
<path d="M510.675 431.591L448.628 431.306L386.582 431.198L262.5 431.008L138.419 431.198L76.3724 431.306L14.3259 431.591L76.3724 431.889L138.419 431.996L262.5 432.186L386.582 431.996L448.628 431.889L510.675 431.591Z" fill="#2F2E41"/>
<path d="M262.5 488C118.077 488 0.997986 473.355 0.997986 455.289C0.997986 437.223 118.077 422.578 262.5 422.578C406.924 422.578 524.003 437.223 524.003 455.289C524.003 473.355 406.924 488 262.5 488Z" fill="#A1ABD1"/>
<path d="M43.3735 35.8817V418.761C43.3468 421.418 43.8449 424.055 44.8392 426.52C45.8335 428.985 47.3045 431.23 49.168 433.126C51.0316 435.022 53.251 436.533 55.6995 437.571C58.1479 438.609 60.7772 439.155 63.4369 439.177H261.667C264.326 439.154 266.954 438.607 269.401 437.568C271.848 436.529 274.066 435.018 275.928 433.122C277.791 431.226 279.261 428.981 280.254 426.517C281.248 424.053 281.745 421.417 281.719 418.761V35.8817C281.747 33.2242 281.25 30.5871 280.258 28.1215C279.265 25.6559 277.795 23.4101 275.933 21.5127C274.07 19.6153 271.851 18.1034 269.404 17.0638C266.956 16.0241 264.327 15.4769 261.667 15.4536H63.4369C60.7762 15.4754 58.1459 16.0214 55.6967 17.0604C53.2475 18.0993 51.0275 19.6109 49.1638 21.5085C47.3001 23.4061 45.8293 25.6524 44.8357 28.1188C43.8421 30.5852 43.3452 33.2232 43.3735 35.8817Z" fill="#28347D"/>
<path d="M56.1856 55.097V406.169C56.1856 416.87 64.23 425.586 74.1427 425.586H251.453C261.389 425.586 269.434 416.894 269.434 406.169V55.097C269.434 33.2182 261.389 28.3906 251.453 28.3906H215.931C213.873 28.3906 212.195 30.7688 212.195 33.6344V34.8235C212.195 41.6368 208.458 41.6606 203.865 41.6606H121.755C117.137 41.6606 113.425 41.6606 113.425 34.8235V33.6344C113.425 30.7331 111.759 28.3906 109.676 28.3906H74.1308C64.23 28.3906 56.1856 35.0613 56.1856 55.097Z" fill="white"/>
<path d="M151.343 33.2183H173.75C173.933 33.2198 174.113 33.1853 174.282 33.1167C174.451 33.0481 174.605 32.9467 174.734 32.8185C174.864 32.6903 174.966 32.5377 175.036 32.3696C175.107 32.2014 175.143 32.0211 175.143 31.839C175.143 31.6568 175.107 31.4765 175.036 31.3084C174.966 31.1402 174.864 30.9876 174.734 30.8594C174.605 30.7312 174.451 30.6298 174.282 30.5612C174.113 30.4926 173.933 30.4581 173.75 30.4596H151.343C150.977 30.4596 150.625 30.605 150.367 30.8636C150.108 31.1223 149.962 31.4731 149.962 31.839C149.962 32.2048 150.108 32.5556 150.367 32.8143C150.625 33.073 150.977 33.2183 151.343 33.2183Z" fill="white"/>
<path d="M102.541 58.3669H84.7031V61.3039H102.541V58.3669Z" fill="#DBDBDB"/>
<path d="M102.541 64.2291H84.7031V67.1661H102.541V64.2291Z" fill="#DBDBDB"/>
<path d="M102.541 70.103H84.7031V73.04H102.541V70.103Z" fill="#DBDBDB"/>
<path d="M230.687 63.6012L228.724 65.0876L234.724 73.0014L236.688 71.5149L230.687 63.6012Z" fill="#DBDBDB"/>
<path d="M232.844 60.2813C233.485 61.1204 233.863 62.1304 233.929 63.1838C233.996 64.2373 233.749 65.2868 233.219 66.1997C232.688 67.1127 231.899 67.8482 230.951 68.3133C230.003 68.7783 228.938 68.9521 227.891 68.8126C226.844 68.6731 225.862 68.2266 225.068 67.5295C224.275 66.8324 223.707 65.9161 223.434 64.8962C223.162 63.8763 223.199 62.7987 223.539 61.7996C223.88 60.8004 224.509 59.9245 225.347 59.2825C225.904 58.8541 226.541 58.5399 227.22 58.3582C227.899 58.1764 228.607 58.1307 229.304 58.2235C230.001 58.3163 230.672 58.5459 231.28 58.8991C231.887 59.2523 232.419 59.722 232.844 60.2813Z" fill="#DBDBDB"/>
<path d="M231.131 61.5775C231.519 62.0783 231.75 62.6831 231.794 63.315C231.838 63.947 231.693 64.5778 231.377 65.1274C231.062 65.6769 230.59 66.1206 230.022 66.402C229.454 66.6834 228.816 66.7899 228.187 66.708C227.558 66.6261 226.968 66.3596 226.491 65.9421C226.014 65.5246 225.672 64.9751 225.508 64.3631C225.344 63.7511 225.366 63.1043 225.57 62.5046C225.775 61.905 226.153 61.3795 226.657 60.9948C227.328 60.4819 228.176 60.2553 229.014 60.3645C229.852 60.4736 230.613 60.9097 231.131 61.5775Z" fill="white"/>
<path d="M193.844 233.59H131.108V261.304H193.844V233.59Z" fill="#6D90FF"/>
<path d="M154.819 250.064H151.249L150.535 251.99C150.47 252.141 150.362 252.27 150.225 252.361C150.087 252.452 149.926 252.501 149.762 252.501C149.667 252.519 149.57 252.519 149.476 252.501C149.272 252.424 149.107 252.269 149.016 252.072C148.925 251.874 148.915 251.648 148.988 251.443L152.261 242.739C152.324 242.584 152.433 242.452 152.573 242.36C152.714 242.269 152.879 242.223 153.046 242.228C153.213 242.224 153.377 242.271 153.518 242.362C153.658 242.454 153.767 242.585 153.831 242.739L157.092 251.443C157.165 251.648 157.156 251.874 157.064 252.072C156.973 252.269 156.808 252.424 156.604 252.501C156.51 252.521 156.413 252.521 156.319 252.501C156.156 252.502 155.998 252.454 155.864 252.363C155.73 252.271 155.627 252.141 155.569 251.99L154.819 250.064ZM154.212 248.435L153.022 245.26L151.832 248.435H154.212Z" fill="white"/>
<path d="M159.091 251.693V242.977C159.089 242.87 159.109 242.764 159.149 242.665C159.189 242.567 159.249 242.477 159.324 242.401C159.4 242.326 159.49 242.267 159.589 242.226C159.687 242.186 159.793 242.167 159.9 242.168H161.649C162.978 242.232 164.231 242.804 165.148 243.766C166.066 244.728 166.578 246.006 166.578 247.335C166.578 248.664 166.066 249.941 165.148 250.903C164.231 251.865 162.978 252.437 161.649 252.501H159.9C159.685 252.501 159.48 252.416 159.328 252.264C159.176 252.113 159.091 251.907 159.091 251.693ZM160.733 250.86H161.649C162.5 250.739 163.279 250.315 163.842 249.666C164.406 249.018 164.716 248.188 164.716 247.329C164.716 246.47 164.406 245.64 163.842 244.991C163.279 244.342 162.5 243.918 161.649 243.797H160.733V250.86Z" fill="white"/>
<path d="M169.277 251.693V242.977C169.276 242.87 169.296 242.764 169.336 242.665C169.376 242.567 169.435 242.477 169.511 242.401C169.586 242.326 169.676 242.267 169.775 242.226C169.874 242.186 169.98 242.167 170.087 242.168H171.836C173.164 242.232 174.417 242.804 175.335 243.766C176.252 244.728 176.764 246.006 176.764 247.335C176.764 248.664 176.252 249.941 175.335 250.903C174.417 251.865 173.164 252.437 171.836 252.501H170.087C169.872 252.501 169.666 252.416 169.514 252.264C169.363 252.113 169.277 251.907 169.277 251.693ZM170.92 250.86H171.836C172.687 250.739 173.466 250.315 174.029 249.666C174.592 249.018 174.902 248.188 174.902 247.329C174.902 246.47 174.592 245.64 174.029 244.991C173.466 244.342 172.687 243.918 171.836 243.797H170.92V250.86Z" fill="white"/>
<path d="M240.732 101.618H84.8828V128.013H240.732V101.618Z" fill="#EBEBEB"/>
<path d="M240.732 137.91H84.8828V164.305H240.732V137.91Z" fill="#EBEBEB"/>
<path d="M240.732 174.203H84.8828V200.597H240.732V174.203Z" fill="#EBEBEB"/>
<path d="M476.355 465.741L301.698 466.49C259.239 433.196 254.86 383.838 285.145 353.921C303.471 335.835 326.795 339.486 348.917 336.608C356.747 335.779 364.363 333.544 371.397 330.009C394.221 317.987 407.097 289.581 426.279 265.728C428.659 262.744 431.17 259.783 433.8 257.024C449.591 240.175 481.007 239.628 497.453 263.314C539.27 323.481 520.135 413.041 476.355 465.741Z" fill="#909CC0"/>
<path d="M480.27 328.059C475.688 399.664 392.936 426.394 341.254 404.944C296.308 386.287 311.016 343.719 348.953 336.608C356.783 335.779 364.398 333.544 371.432 330.009C394.257 317.987 407.132 289.581 426.315 265.728C454.947 250.877 483.59 275.633 480.27 328.059Z" fill="#BECCF9"/>
<path d="M316.217 476.585C318.919 475.598 379.954 426.846 381.108 423.517C381.56 422.256 374.968 412.958 366.697 401.959C364.9 399.581 363.044 397.131 361.14 394.658C348.799 378.606 335.341 361.852 335.341 361.852L294.416 394.337L321.334 426.252L327.284 433.267C327.284 433.267 312.266 462.375 311.398 466.169C310.529 469.962 313.516 477.572 316.217 476.585Z" fill="#FFC4C0"/>
<path d="M316.216 476.585C318.918 475.598 379.953 426.846 381.107 423.517C381.643 421.983 371.813 408.582 361.139 394.658L321.333 426.252L327.283 433.267C327.283 433.267 312.265 462.375 311.397 466.169C310.528 469.962 313.515 477.572 316.216 476.585Z" fill="white"/>
<path d="M316.217 476.585C318.919 475.598 379.954 426.846 381.108 423.517C381.56 422.257 374.968 412.958 366.697 401.959L327.249 433.267C327.249 433.267 312.231 462.376 311.362 466.169C310.493 469.962 313.516 477.572 316.217 476.585Z" fill="#6D90FF"/>
<path d="M315.134 473.458C325.166 465.039 366.423 432.007 377.014 424.444C377.109 424.444 377.145 424.444 377.074 424.516C367.316 433.077 325.785 465.765 315.313 473.624C315.051 473.779 314.932 473.624 315.134 473.458Z" fill="#475B9D"/>
<path d="M313.528 460.83C314.644 459.896 315.94 459.202 317.337 458.793C318.734 458.384 320.2 458.267 321.644 458.451C324.246 458.768 326.627 460.071 328.296 462.09C328.296 462.15 328.296 462.245 328.177 462.185C326.208 460.442 323.726 459.384 321.104 459.17C318.482 458.955 315.862 459.596 313.635 460.996C313.613 461.01 313.586 461.015 313.561 461.01C313.535 461.004 313.512 460.989 313.498 460.966C313.484 460.944 313.479 460.918 313.485 460.892C313.49 460.866 313.506 460.844 313.528 460.83Z" fill="#475B9D"/>
<path d="M324.095 437.453C328.141 434.123 334.043 431.781 339.267 433.089C339.469 433.148 339.386 433.434 339.267 433.469C334.156 434.446 329.166 435.969 324.38 438.012C324.309 438.03 324.234 438.024 324.167 437.994C324.1 437.964 324.045 437.913 324.012 437.847C323.979 437.782 323.969 437.707 323.984 437.635C323.999 437.564 324.038 437.499 324.095 437.453Z" fill="#475B9D"/>
<path d="M321.917 441.21C325.963 437.881 331.865 435.538 337.089 436.846C337.292 436.906 337.22 437.191 337.089 437.227C332.011 438.21 327.052 439.733 322.298 441.769C322.224 441.82 322.132 441.839 322.044 441.822C321.956 441.805 321.878 441.754 321.828 441.68C321.777 441.606 321.758 441.515 321.775 441.427C321.792 441.339 321.843 441.261 321.917 441.21Z" fill="#475B9D"/>
<path d="M319.739 444.92C323.785 441.591 329.688 439.248 334.912 440.556C335.114 440.616 335.043 440.901 334.912 440.937C329.833 441.92 324.875 443.443 320.12 445.479C320.046 445.529 319.955 445.548 319.867 445.532C319.778 445.515 319.7 445.464 319.65 445.39C319.599 445.316 319.581 445.225 319.597 445.136C319.614 445.048 319.665 444.971 319.739 444.92Z" fill="#475B9D"/>
<path d="M317.561 448.725C321.607 445.396 327.51 443.053 332.734 444.361C332.936 444.361 332.865 444.706 332.734 444.73C327.656 445.722 322.698 447.249 317.942 449.284C317.868 449.334 317.777 449.353 317.689 449.337C317.601 449.32 317.523 449.269 317.472 449.195C317.422 449.121 317.403 449.03 317.42 448.941C317.436 448.853 317.487 448.776 317.561 448.725Z" fill="#475B9D"/>
<path d="M366.613 416.811C371.218 413.148 376.907 420.295 372.301 423.945C367.696 427.595 361.996 420.473 366.613 416.811Z" fill="#475B9D"/>
<path d="M310.933 430.069C311.624 426.692 315.586 426.287 318.288 427.048C322.905 428.444 327.074 431.027 330.378 434.539C330.395 434.553 330.409 434.57 330.419 434.589C330.429 434.609 330.434 434.631 330.434 434.652C330.434 434.674 330.429 434.696 330.419 434.715C330.409 434.735 330.395 434.752 330.378 434.765C330.425 434.855 330.449 434.955 330.449 435.056C330.449 435.157 330.425 435.257 330.378 435.347C330.332 435.437 330.264 435.514 330.181 435.572C330.098 435.63 330.002 435.668 329.902 435.681C325.38 435.99 320.572 436.87 316.086 435.812C313.432 435.17 310.267 433.255 310.933 430.069ZM322.905 434.754C325.142 434.658 327.355 434.444 329.593 434.432C327.287 432.903 324.904 431.494 322.453 430.211C321.255 429.607 320.018 429.083 318.752 428.642C316.776 428 310.017 427.785 313.171 432.566C314.86 435.205 320.251 434.872 322.905 434.754Z" fill="#475B9D"/>
<path d="M341.766 427.94C338.636 431.329 334.15 433.255 330.211 435.503C330.12 435.547 330.019 435.569 329.918 435.567C329.817 435.564 329.717 435.537 329.629 435.488C329.54 435.439 329.464 435.37 329.408 435.285C329.352 435.201 329.317 435.104 329.307 435.003C329.223 435.003 329.14 435.003 329.152 434.849C329.964 430.086 332.016 425.62 335.102 421.9C336.923 419.759 340.433 417.904 342.896 420.318C345.36 422.732 343.598 425.954 341.766 427.94ZM342.373 423.636C342.373 417.904 336.839 421.84 335.554 423.469C334.745 424.536 334.01 425.656 333.353 426.822C332.036 429.258 330.845 431.758 329.783 434.314C331.651 433.124 333.602 432.031 335.518 430.865C337.756 429.462 342.397 426.787 342.373 423.636Z" fill="#475B9D"/>
<path d="M253.075 331.864C255.872 353.112 308.28 414.444 314.337 421.483L315.717 423.077L359.057 389.783L358.557 389.141L320.394 339.2L434.253 338.534L391.02 304.955C391.02 304.955 387.51 306.977 380.227 305.918C355.094 302.244 298.438 294.099 285.027 294.634C267.855 295.347 250.505 312.363 253.075 331.864Z" fill="#627AC5"/>
<path d="M306.685 320.651C308.103 322.247 309.419 323.931 310.624 325.693C311.969 327.452 313.337 329.26 314.694 330.972V331.031C314.456 330.508 314.218 329.997 313.968 329.474C313.123 327.714 312.445 325.907 311.433 324.218C311.374 324.111 311.528 324.016 311.588 324.123C312.623 325.788 313.825 327.381 314.706 329.141C315.122 329.961 315.515 330.806 315.896 331.65C316.098 332.114 316.312 332.589 316.491 333.065C316.574 333.279 316.669 333.505 316.741 333.743C317.336 334.563 317.931 335.383 318.514 336.228C319.799 338.083 320.894 340.057 322.238 341.9C322.31 341.995 322.143 342.09 322.072 341.995C320.763 340.259 319.287 338.642 317.943 336.917C316.598 335.193 315.289 333.35 314.016 331.543C312.742 329.735 311.552 327.976 310.303 326.216C308.94 324.468 307.688 322.638 306.554 320.734C306.543 320.717 306.54 320.696 306.544 320.676C306.548 320.656 306.561 320.638 306.578 320.627C306.595 320.616 306.616 320.612 306.637 320.617C306.657 320.621 306.674 320.634 306.685 320.651Z" fill="#46588E"/>
<path d="M427.91 213.92C436.942 221.055 445.879 267.428 449.33 272.589C451.793 276.215 454.887 279.842 454.744 281.887C454.601 283.932 445.938 293.992 429.552 297.155C413.166 300.318 397.017 292.506 395.375 290.449C393.733 288.391 398.053 281.328 397.886 274.991C397.719 268.653 392.055 233.861 395.506 223.492C399.493 211.732 417.545 205.787 427.91 213.92Z" fill="#405BB4"/>
<path d="M394.245 288.475C396.032 284.332 396.873 279.844 396.708 275.336C396.613 270.258 395.971 265.181 395.411 260.139C394.816 254.82 394.225 249.501 393.638 244.182C393.126 239.485 392.448 234.741 393.329 230.056C394.139 225.511 396.138 221.261 399.124 217.737C399.124 217.737 399.255 217.737 399.207 217.797C396.44 221.403 394.59 225.626 393.817 230.104C392.972 235.122 393.817 240.246 394.352 245.276C394.947 250.496 395.542 255.704 396.101 260.924C396.625 265.681 397.22 270.556 397.291 275.383C397.291 279.83 396.899 284.777 394.531 288.606C394.424 288.748 394.174 288.629 394.245 288.475Z" fill="#405BB4"/>
<path d="M426.47 213.611C430.659 215.882 432.706 220.377 434.384 224.693C436.645 230.555 438.727 236.501 440.679 242.529C442.702 248.701 444.368 254.979 446.355 261.162C448.361 267.166 451.231 272.846 454.876 278.023C454.959 278.142 454.876 278.284 454.709 278.177C446.914 269.057 444.511 256.774 440.941 245.573C438.965 239.39 436.883 233.247 434.693 227.143C432.92 222.196 431.123 216.596 426.363 213.754C426.339 213.671 426.411 213.576 426.47 213.611Z" fill="#405BB4"/>
<path d="M422.651 211.923C431.409 215.347 434.872 225.145 437.692 233.504C441.048 243.433 443.464 253.659 446.427 263.706C448.081 269.378 449.581 275.538 453.27 280.246C453.377 280.389 453.174 280.567 453.055 280.437C450.223 277.06 448.771 272.862 447.427 268.712C445.82 263.73 444.416 258.689 443.036 253.647C440.275 243.659 437.752 233.35 433.444 223.92C431.171 218.95 427.78 214.099 422.615 212.03C422.556 211.994 422.591 211.863 422.651 211.923Z" fill="#405BB4"/>
<path d="M420.008 274.765C412.285 285.835 385.832 314.563 367.541 318.76C357.45 321.055 308.743 327.857 302.091 321.792C294.273 314.658 297.902 287.88 304.114 287.642C323.154 286.893 358.2 290.603 366.97 288.677C370.933 287.797 391.96 274.242 414.427 263.397C422.888 259.283 424.983 267.619 420.008 274.765Z" fill="#FFC4C0"/>
<path d="M314.42 286.144L317.681 326.263C317.681 326.263 361.878 325.562 375.218 318.07C388.557 310.579 410.275 291.459 418.581 278.166C426.887 264.872 424.115 257.63 407.871 265.811C391.628 273.992 369.791 287.095 366.888 287.785C363.984 288.475 314.42 286.144 314.42 286.144Z" fill="#6D90FF"/>
<path d="M321.524 288.939C321.524 288.832 321.69 288.784 321.714 288.939C322.25 291.697 322.488 294.527 322.797 297.262C323.106 299.997 323.392 303.041 323.654 305.93C324.177 311.697 324.844 317.5 324.963 323.279C324.963 323.528 324.63 323.528 324.594 323.279C323.725 317.607 323.273 311.828 322.726 306.109C322.464 303.267 322.202 300.437 322 297.595C321.797 294.753 321.488 291.828 321.524 288.939Z" fill="#2F2E41"/>
<path d="M459.576 348.071C457.196 348.844 388.248 328.927 388.248 328.927L396.387 305.015C396.387 305.015 392.365 297.333 394.233 289.937C396.72 280.056 415.023 263.778 416.462 262.862C422.234 259.033 427.648 259.105 432.432 261.673C452.353 272.22 459.576 348.071 459.576 348.071Z" fill="#6D90FF"/>
<path d="M407.002 271.471C405.229 273.528 403.325 275.49 401.492 277.512C402.349 276.013 403.194 274.491 404.11 273.029C404.11 273.029 404.11 272.958 404.11 273.029C402.77 274.762 401.602 276.622 400.623 278.582C399.245 280.11 397.973 281.731 396.815 283.433C395.401 285.459 394.343 287.711 393.686 290.092C393.084 292.508 392.987 295.021 393.4 297.476C393.922 300.288 394.698 303.046 395.72 305.716C395.851 306.073 396.351 305.847 396.256 305.502C394.959 300.829 393.495 295.907 394.53 291.031C395.566 286.156 398.576 282.137 401.504 278.308C403.235 275.966 405.111 273.734 407.121 271.626C407.24 271.495 407.085 271.376 407.002 271.471Z" fill="#4968CA"/>
<path d="M428.125 262.993C427.851 264.242 422.02 272.411 416.32 272.22C414.475 272.161 414.368 262.03 414.368 262.03L414.19 261.281L411.691 250.829L425.661 241.685C425.661 241.685 428.232 262.458 428.125 262.993Z" fill="#FFC4C0"/>
<path d="M411.691 250.817L414.19 261.269C417.013 260.16 419.57 258.47 421.696 256.309C423.823 254.148 425.47 251.563 426.53 248.724C426.102 245.157 425.733 242.125 425.685 241.685C425.683 241.665 425.683 241.645 425.685 241.626L423.912 242.696L411.691 250.817Z" fill="#C18C88"/>
<path d="M395.364 238.023C396.554 256.846 407.955 258.237 412.024 257.999C415.701 257.773 428.232 256.501 429.006 237.654C429.779 218.807 420.676 213.421 412.179 213.516C403.683 213.611 394.186 219.164 395.364 238.023Z" fill="#FFC4C0"/>
<path d="M398.16 236.168C398.589 236.049 398.969 235.882 399.35 235.728C399.811 235.641 400.23 235.402 400.54 235.05C400.612 234.919 400.639 234.768 400.618 234.62C400.596 234.472 400.527 234.335 400.421 234.23C400.181 234.058 399.899 233.952 399.605 233.922C399.31 233.893 399.013 233.942 398.743 234.063C398.161 234.231 397.661 234.608 397.339 235.121C397.272 235.246 397.243 235.387 397.255 235.527C397.267 235.668 397.32 235.802 397.407 235.913C397.494 236.024 397.612 236.108 397.746 236.153C397.879 236.198 398.023 236.203 398.16 236.168Z" fill="#3F3D56"/>
<path d="M410.5 234.562C410.067 234.555 409.634 234.523 409.203 234.467C408.739 234.497 408.279 234.371 407.894 234.111C407.787 234.008 407.719 233.872 407.699 233.725C407.68 233.578 407.711 233.429 407.787 233.302C407.971 233.07 408.213 232.891 408.49 232.784C408.766 232.677 409.066 232.647 409.358 232.696C409.966 232.709 410.55 232.941 411 233.35C411.093 233.451 411.155 233.577 411.178 233.712C411.202 233.848 411.187 233.987 411.135 234.114C411.082 234.241 410.995 234.351 410.883 234.43C410.77 234.51 410.638 234.556 410.5 234.562Z" fill="#3F3D56"/>
<path d="M408.216 237.714C408.216 237.714 408.323 237.714 408.335 237.821C408.43 239.105 408.763 240.555 409.965 240.853V240.924C408.525 240.877 408.108 238.95 408.216 237.714Z" fill="#3F3D56"/>
<path d="M409.215 236.263C411.25 235.882 411.869 239.973 409.977 240.33C408.085 240.686 407.501 236.584 409.215 236.263Z" fill="#3F3D56"/>
<path d="M410.06 236.358C410.453 236.536 410.869 236.893 411.31 236.869C411.75 236.846 412.131 236.358 412.393 235.894C412.393 235.894 412.464 235.894 412.476 235.894C412.595 236.679 412.476 237.535 411.595 237.773C410.715 238.011 410.179 237.381 409.87 236.584C409.798 236.525 409.894 236.287 410.06 236.358Z" fill="#3F3D56"/>
<path d="M401.195 238.451C401.195 238.451 401.111 238.522 401.123 238.582C401.361 239.842 401.421 241.328 400.338 241.923C400.338 241.923 400.338 242.006 400.338 241.994C401.73 241.59 401.623 239.604 401.195 238.451Z" fill="#3F3D56"/>
<path d="M399.862 237.309C397.792 237.476 398.28 241.59 400.184 241.435C402.088 241.281 401.588 237.167 399.862 237.309Z" fill="#3F3D56"/>
<path d="M399.029 237.678C398.731 237.94 398.458 238.368 398.065 238.439C397.672 238.51 397.232 238.118 396.875 237.726H396.815C396.887 238.522 397.244 239.307 398.005 239.366C398.767 239.426 399.136 238.689 399.195 237.88C399.291 237.785 399.148 237.571 399.029 237.678Z" fill="#3F3D56"/>
<path d="M409.989 248.725C409.751 249.081 409.525 249.545 409.073 249.664C408.607 249.77 408.123 249.77 407.657 249.664C407.657 249.664 407.585 249.664 407.657 249.735C407.884 249.95 408.166 250.099 408.472 250.166C408.779 250.233 409.097 250.216 409.394 250.116C409.637 249.997 409.84 249.81 409.977 249.578C410.115 249.345 410.181 249.078 410.168 248.808C410.179 248.784 410.18 248.757 410.171 248.733C410.162 248.708 410.144 248.688 410.12 248.677C410.096 248.666 410.069 248.665 410.045 248.674C410.02 248.683 410 248.701 409.989 248.725Z" fill="#C18C88"/>
<path d="M404.039 244.86C404.039 244.86 404.039 246.786 404.158 247.69C404.158 247.773 404.396 247.785 404.705 247.761C405.492 247.796 406.274 247.613 406.965 247.234C407.655 246.854 408.228 246.292 408.62 245.609C408.626 245.59 408.625 245.57 408.619 245.552C408.613 245.534 408.601 245.517 408.586 245.506C408.57 245.494 408.552 245.488 408.532 245.487C408.513 245.486 408.494 245.491 408.477 245.502C407.435 246.435 406.122 247.01 404.729 247.143C404.634 246.905 404.848 243.837 404.729 243.837C404.041 244.002 403.377 244.254 402.753 244.586C402.634 240.555 403.17 236.536 403.003 232.517C402.995 232.491 402.978 232.467 402.956 232.451C402.933 232.434 402.906 232.426 402.878 232.426C402.85 232.426 402.823 232.434 402.801 232.451C402.778 232.467 402.762 232.491 402.753 232.517C402.052 236.808 401.781 241.158 401.944 245.502C401.944 245.978 403.705 245.062 404.039 244.86Z" fill="#C18C88"/>
<path d="M429.1 238.629C427.788 238.306 426.582 237.649 425.599 236.722C424.617 235.795 423.892 234.629 423.495 233.338C419.954 232.63 416.667 230.988 413.975 228.582C414.189 228.938 415.665 231.495 416.462 232.779C404.253 233.1 398.696 224.895 398.696 224.895C396.88 227.438 395.66 230.356 395.126 233.433C395.126 233.433 393.495 226.299 396.173 220.639C397.015 218.708 398.356 217.035 400.058 215.792C401.76 214.549 403.762 213.78 405.859 213.564C408.611 212.242 411.667 211.686 414.708 211.954C417.749 212.222 420.661 213.304 423.138 215.086C432.67 221.721 429.1 238.629 429.1 238.629Z" fill="#405BB4"/>
<path d="M426.102 239.212C426.102 239.212 429.291 232.779 432.159 233.825C435.027 234.872 433.23 243.778 430.291 245.407C429.931 245.641 429.526 245.8 429.103 245.873C428.679 245.947 428.245 245.934 427.827 245.835C427.409 245.736 427.015 245.553 426.669 245.298C426.324 245.042 426.034 244.719 425.816 244.349L426.102 239.212Z" fill="#FFC4C0"/>
<path d="M431.576 236.406C431.576 236.406 431.647 236.465 431.576 236.489C429.529 237.678 428.684 239.878 428.196 242.089C428.29 241.853 428.434 241.639 428.618 241.463C428.802 241.287 429.022 241.154 429.263 241.071C429.504 240.989 429.76 240.959 430.013 240.985C430.267 241.011 430.512 241.092 430.731 241.221C430.744 241.227 430.754 241.236 430.762 241.248C430.77 241.259 430.774 241.273 430.774 241.287C430.774 241.301 430.77 241.314 430.762 241.326C430.754 241.337 430.744 241.346 430.731 241.352C430.33 241.284 429.917 241.344 429.552 241.523C429.187 241.703 428.887 241.992 428.696 242.351C428.369 242.945 428.114 243.576 427.934 244.23C427.863 244.432 427.494 244.384 427.53 244.146C427.066 241.328 428.636 237.131 431.576 236.406Z" fill="#C18C88"/>
<path d="M442.833 278.451C448.367 309.854 443.012 333.374 437.68 336.287C423.305 344.135 388.795 328.225 379.049 325.062C375.122 323.79 393.055 293.719 397.078 295.574C406.538 299.937 419.795 307.357 420.33 307.298C421.401 307.191 422.639 299.176 428.137 275.811C432.575 256.953 440.56 265.645 442.833 278.451Z" fill="#FFC4C0"/>
<path d="M347.68 280.722C346.693 284.67 356.629 286.275 356.629 286.275C354.975 286.862 353.581 288.011 352.69 289.521C351.25 292.256 354.892 295.716 354.892 295.716C353.321 296.695 352.078 298.119 351.322 299.807C350.203 302.553 353.392 306.572 353.392 306.572C352.428 308.27 352.107 310.258 352.488 312.173C353.678 317.238 361.472 319.224 366.042 321.412C370.933 323.79 379.025 324.611 382.702 326.263L398.612 297.143C398.612 297.143 383.202 280.829 374.36 278.356C369.6 276.965 349.18 274.694 347.68 280.722Z" fill="#FFC4C0"/>
<path d="M356.736 286.18C362.269 285.942 367.85 287.024 373.229 288.13C373.348 288.13 373.301 288.332 373.229 288.308C367.898 287.119 362.127 287.393 356.772 286.441C356.754 286.444 356.737 286.443 356.72 286.438C356.703 286.434 356.688 286.426 356.674 286.416C356.66 286.405 356.648 286.392 356.64 286.377C356.631 286.362 356.625 286.346 356.623 286.329C356.621 286.311 356.622 286.294 356.626 286.277C356.63 286.26 356.638 286.245 356.649 286.231C356.659 286.217 356.672 286.205 356.687 286.197C356.702 286.188 356.719 286.182 356.736 286.18Z" fill="#C18C88"/>
<path d="M355.142 295.348C356.404 295.418 357.652 295.65 358.855 296.037C360.14 296.37 361.437 296.727 362.722 297.107C365.293 297.868 367.839 298.677 370.374 299.557C370.481 299.557 370.445 299.783 370.374 299.747C367.811 298.994 365.237 298.297 362.651 297.654C361.354 297.333 360.045 297.024 358.748 296.727C357.5 296.519 356.279 296.176 355.106 295.704C355.071 295.688 355.041 295.66 355.022 295.626C355.002 295.592 354.994 295.553 354.998 295.513C355.002 295.474 355.018 295.437 355.044 295.408C355.069 295.378 355.104 295.357 355.142 295.348Z" fill="#C18C88"/>
<path d="M353.464 306.608C354.604 306.685 355.722 306.954 356.772 307.405L360.271 308.487C362.651 309.2 364.935 309.914 367.303 310.532C367.411 310.532 367.375 310.758 367.303 310.722C364.923 310.092 362.543 309.533 360.104 308.855L356.534 307.88C355.435 307.677 354.382 307.274 353.428 306.691C353.423 306.675 353.425 306.658 353.431 306.643C353.438 306.628 353.449 306.616 353.464 306.608Z" fill="#C18C88"/>
<path d="M398.077 295.348L381.5 330.663C381.5 330.663 432.789 345.609 439.739 336.608C446.688 327.607 446.212 299.319 442.952 279.747C439.691 260.175 430.873 259.795 427.017 277.488C423.162 295.181 420.877 306.358 420.187 306.263C419.497 306.168 398.077 295.348 398.077 295.348Z" fill="#6D90FF"/>
<path d="M404.765 300.092C404.765 300.009 404.979 300.092 404.943 300.163C404.015 302.815 402.777 305.371 401.647 307.94C400.516 310.508 399.267 313.231 398.006 315.859C395.542 321.091 393.127 326.406 390.354 331.483C390.346 331.508 390.332 331.531 390.314 331.55C390.297 331.569 390.275 331.584 390.25 331.593C390.226 331.603 390.2 331.607 390.174 331.606C390.148 331.604 390.123 331.597 390.1 331.585C390.077 331.572 390.057 331.555 390.041 331.534C390.025 331.513 390.015 331.489 390.009 331.464C390.004 331.438 390.005 331.412 390.011 331.386C390.017 331.361 390.028 331.337 390.044 331.317C392.163 325.966 394.685 320.758 397.113 315.55C398.303 312.958 399.493 310.389 400.79 307.833C402.087 305.276 403.277 302.577 404.765 300.092Z" fill="#4968CA"/>
<path d="M408.656 337.155C410.105 337.246 411.541 337.485 412.94 337.869C414.428 338.13 415.915 338.368 417.403 338.558C420.287 338.962 423.191 339.212 426.102 339.307C428.97 339.379 436.062 338.951 438.24 336.929C440.036 335.185 441.317 332.98 441.941 330.556C442.712 327.234 443.3 323.871 443.702 320.485C444.523 313.33 444.75 306.119 444.38 298.927C444.297 296.929 444.166 294.92 444.023 292.922C443.88 290.924 443.631 288.855 443.571 286.81C443.571 286.739 443.69 286.727 443.702 286.81C444.387 290.064 444.84 293.362 445.059 296.679C445.189 294.622 445.439 292.553 445.463 290.484C445.463 290.459 445.473 290.435 445.491 290.417C445.509 290.399 445.533 290.389 445.558 290.389C445.584 290.389 445.608 290.399 445.626 290.417C445.644 290.435 445.654 290.459 445.654 290.484C445.654 292.66 445.761 294.836 445.654 297.012C445.654 298.201 445.487 299.45 445.356 300.663C445.523 303.433 445.606 306.204 445.57 308.986C445.658 316.29 444.806 323.576 443.036 330.663C442.191 333.743 440.882 336.68 438.073 338.332C435.958 339.347 433.667 339.944 431.326 340.092C426.38 340.432 421.411 340.12 416.546 339.165C415.19 338.903 413.833 338.618 412.476 338.309C411.14 338.12 409.833 337.765 408.585 337.25C408.585 337.25 408.585 337.155 408.656 337.155Z" fill="#4968CA"/>
<path d="M398.16 294.682C401.933 296.572 405.717 298.463 409.477 300.389L415.034 303.231C416.819 304.159 420.223 305.99 420.223 305.99C420.223 305.134 420.913 302.672 421.27 301.079C421.627 299.486 422.067 297.619 422.46 295.895C422.579 295.443 422.71 295.003 422.829 294.551C422.912 293.73 422.984 292.898 423.055 292.066C423.186 290.734 423.293 289.378 423.495 288.047C423.495 288.047 423.567 288.047 423.579 288.047C423.704 289.316 423.704 290.594 423.579 291.864C424.15 289.771 424.769 287.702 425.364 285.633H425.471C424.792 289.129 424.078 292.625 423.281 296.097C422.888 297.773 422.46 299.45 422.02 301.126C421.614 302.935 421.114 304.721 420.52 306.477C418.593 305.745 416.706 304.912 414.868 303.98C412.94 303.069 411.02 302.133 409.108 301.174C405.407 299.319 401.671 297.428 398.089 295.336C398.089 295.336 397.839 295.811 397.803 295.871C397.768 295.93 397.589 295.764 397.637 295.597C397.684 295.431 398.065 294.646 398.16 294.682Z" fill="#4968CA"/>
<path d="M365.613 329.521H317.287L296.105 261.186H344.419L365.613 329.521Z" fill="#6885E1"/>
<path d="M363.246 329.521H314.92L293.726 261.186H342.052L363.246 329.521Z" fill="#90AAFE"/>
<path d="M323.405 293.207C323.786 294.51 324.564 295.663 325.63 296.504C326.696 297.346 327.998 297.835 329.355 297.904C329.932 297.934 330.508 297.82 331.031 297.572C331.554 297.325 332.007 296.952 332.35 296.486C332.693 296.021 332.916 295.478 332.997 294.906C333.079 294.333 333.017 293.75 332.818 293.207C332.447 291.893 331.674 290.728 330.607 289.875C329.54 289.022 328.232 288.524 326.868 288.451C326.283 288.417 325.699 288.531 325.169 288.781C324.639 289.032 324.181 289.411 323.837 289.884C323.492 290.358 323.272 290.91 323.196 291.491C323.121 292.071 323.193 292.662 323.405 293.207Z" fill="white"/>
<path d="M301.164 285.145C298.784 289.485 292.548 294.812 291.917 298.427C291.726 299.311 291.825 300.233 292.201 301.055C292.576 301.878 293.207 302.558 294 302.993C294 302.993 290.263 304.598 290.227 307.975C290.227 309.711 292.964 311.269 292.964 311.269C292.139 311.678 291.443 312.306 290.952 313.084C290.461 313.862 290.193 314.761 290.18 315.681C290.299 318.059 293.036 319.248 293.036 319.248C293.036 319.248 290.858 321.911 291.763 324.313C293.595 329.176 314.135 330.33 317.74 322.946C319.406 319.497 314.373 319.497 314.373 319.497C314.373 319.497 321.62 317.761 321.965 313.552C322.31 309.343 315.765 309.711 315.765 309.711C315.765 309.711 322.774 307.975 322.691 303.552C322.607 299.129 316.122 300.461 316.122 300.461C316.122 300.461 320.882 297.619 320.025 294.254C318.645 288.689 308.351 295.3 303.901 293.98L301.164 285.145Z" fill="#FFC4C0"/>
<path d="M292.857 311.305C292.785 311.305 292.762 311.424 292.857 311.447C300.521 313.729 308.75 313.189 316.05 309.925C316.3 309.806 316.407 309.45 316.05 309.557C311.004 311.543 299.39 312.232 292.857 311.305Z" fill="#C18C88"/>
<path d="M316.574 300.045C309.434 303.16 301.985 303.612 294.273 303.089C294.178 303.089 294.178 303.219 294.273 303.255C297.962 304.563 302.913 304.444 306.768 303.98C310.343 303.644 313.766 302.373 316.693 300.294C316.8 300.211 316.729 299.985 316.574 300.045Z" fill="#C18C88"/>
<path d="M192.677 395.039C193.677 397.738 242.657 458.571 245.989 459.712C247.25 460.152 256.532 453.541 267.528 445.229C269.908 443.434 272.288 441.567 274.811 439.664C290.84 427.286 307.56 413.779 307.56 413.779L274.918 372.982L243.062 399.997L236.064 405.943C236.064 405.943 206.886 391.032 203.089 390.176C199.293 389.319 191.677 392.34 192.677 395.039Z" fill="#FFC4C0"/>
<path d="M192.678 395.039C193.677 397.738 242.658 458.57 245.99 459.712C247.537 460.235 260.912 450.366 274.812 439.664L243.062 399.997L236.065 405.943C236.065 405.943 206.886 391.032 203.09 390.176C199.294 389.319 191.678 392.34 192.678 395.039Z" fill="white"/>
<path d="M192.677 395.039C193.677 397.738 242.657 458.571 245.989 459.712C247.251 460.152 256.533 453.541 267.528 445.229L236.065 405.919C236.065 405.919 206.886 391.008 203.09 390.152C199.294 389.296 191.678 392.34 192.677 395.039Z" fill="#6D90FF"/>
<path d="M195.819 393.945C204.28 403.945 237.469 445.075 245.061 455.586C245.121 455.669 245.061 455.717 245.002 455.645C236.398 445.919 203.542 404.516 195.641 394.087C195.474 393.862 195.641 393.743 195.819 393.945Z" fill="#475B9D"/>
<path d="M208.433 392.304C209.369 393.415 210.064 394.709 210.474 396.103C210.884 397.497 210.999 398.961 210.813 400.401C210.521 402.996 209.243 405.38 207.243 407.06C207.183 407.06 207.088 407.06 207.148 406.941C208.893 404.972 209.953 402.49 210.167 399.868C210.382 397.246 209.74 394.626 208.338 392.399C208.336 392.386 208.337 392.373 208.341 392.36C208.345 392.348 208.352 392.337 208.361 392.327C208.37 392.318 208.382 392.311 208.394 392.307C208.407 392.303 208.42 392.302 208.433 392.304Z" fill="#475B9D"/>
<path d="M231.864 402.78C235.208 406.811 237.576 412.708 236.279 417.928C236.219 418.131 235.934 418.059 235.898 417.928C234.905 412.854 233.365 407.903 231.305 403.16C231.28 403.123 231.262 403.082 231.253 403.039C231.244 402.995 231.244 402.95 231.252 402.907C231.26 402.863 231.277 402.822 231.301 402.785C231.326 402.747 231.357 402.715 231.394 402.69C231.431 402.665 231.472 402.648 231.515 402.639C231.559 402.63 231.604 402.629 231.647 402.638C231.691 402.646 231.733 402.663 231.77 402.687C231.807 402.712 231.839 402.743 231.864 402.78Z" fill="#475B9D"/>
<path d="M228.091 400.616C231.435 404.646 233.803 410.544 232.506 415.764C232.506 415.966 232.173 415.895 232.137 415.764C231.135 410.691 229.591 405.74 227.532 400.996C227.482 400.922 227.463 400.831 227.479 400.743C227.496 400.655 227.547 400.577 227.621 400.526C227.696 400.476 227.787 400.457 227.875 400.474C227.963 400.49 228.041 400.541 228.091 400.616Z" fill="#475B9D"/>
<path d="M224.332 398.404C227.676 402.447 230.044 408.333 228.747 413.553C228.687 413.755 228.401 413.683 228.366 413.553C227.371 408.479 225.831 403.528 223.772 398.784C223.722 398.71 223.703 398.619 223.72 398.531C223.736 398.443 223.787 398.365 223.862 398.315C223.936 398.264 224.027 398.245 224.115 398.262C224.203 398.279 224.281 398.33 224.332 398.404Z" fill="#475B9D"/>
<path d="M220.559 396.287C223.903 400.33 226.271 406.216 224.974 411.436C224.974 411.638 224.641 411.567 224.605 411.436C223.601 406.359 222.057 401.405 220 396.656C219.951 396.582 219.934 396.491 219.951 396.404C219.969 396.317 220.021 396.241 220.095 396.192C220.169 396.143 220.26 396.126 220.347 396.144C220.434 396.162 220.51 396.213 220.559 396.287Z" fill="#475B9D"/>
<path d="M252.665 445.193C256.343 449.783 249.203 455.503 245.525 450.901C241.848 446.299 248.988 440.604 252.665 445.193Z" fill="#475B9D"/>
<path d="M239.207 389.605C242.586 390.295 243.015 394.242 242.253 396.941C240.88 401.581 238.306 405.777 234.792 409.105C234.78 409.123 234.764 409.137 234.745 409.146C234.727 409.156 234.706 409.161 234.685 409.161C234.664 409.161 234.643 409.156 234.625 409.146C234.606 409.137 234.59 409.123 234.578 409.105C234.487 409.152 234.387 409.176 234.285 409.176C234.183 409.176 234.082 409.152 233.992 409.105C233.901 409.059 233.823 408.991 233.763 408.909C233.704 408.826 233.665 408.731 233.65 408.63C233.328 404.111 232.46 399.319 233.483 394.825C234.137 392.126 236.018 388.951 239.207 389.605ZM234.566 401.591C234.673 403.814 234.887 406.026 234.911 408.261C236.429 405.954 237.831 403.573 239.112 401.127C239.709 399.928 240.23 398.693 240.67 397.429C241.301 395.455 241.492 388.701 236.72 391.864C234.137 393.576 234.435 398.939 234.566 401.591Z" fill="#475B9D"/>
<path d="M453 347.599L351.889 382L323 345.699C323 345.699 329.5 339.165 335.278 337.713C338.045 337.017 375 331.973 398.833 337.713C434.944 339.174 453 347.599 453 347.599Z" fill="#627AC5"/>
<path d="M241.444 420.413C238.041 417.298 236.101 412.815 233.828 408.891C233.787 408.8 233.767 408.7 233.771 408.6C233.774 408.5 233.802 408.402 233.85 408.314C233.899 408.226 233.968 408.151 234.051 408.094C234.134 408.037 234.229 408.001 234.328 407.988C234.326 407.966 234.329 407.944 234.337 407.923C234.345 407.903 234.357 407.884 234.373 407.869C234.389 407.854 234.409 407.843 234.43 407.837C234.451 407.831 234.473 407.829 234.495 407.833C239.254 408.615 243.726 410.628 247.466 413.671C249.608 415.491 251.476 418.987 249.072 421.46C246.669 423.933 243.432 422.185 241.444 420.413ZM245.752 421.008C251.488 420.949 247.537 415.467 245.907 414.195C244.828 413.39 243.7 412.656 242.527 411.995C240.147 410.604 237.553 409.617 235.03 408.428C236.22 410.283 237.327 412.233 238.493 414.135C239.874 416.406 242.599 420.996 245.752 420.996V421.008Z" fill="#475B9D"/>
<path d="M252.736 392.197C254.95 394.575 256.985 397.132 259.043 399.641C261.102 402.149 263.161 404.694 265.196 407.239C269.266 412.316 273.383 417.381 277.381 422.53C279.583 425.348 281.749 428.19 283.795 431.139C283.891 431.27 283.676 431.412 283.581 431.293C279.19 426.478 275.192 421.341 271.122 416.264C267.052 411.186 262.982 406.061 258.996 400.913C256.806 398.095 254.545 395.289 252.546 392.34C252.463 392.221 252.641 392.09 252.736 392.197Z" fill="#C18C88"/>
<path d="M312.123 418.963C317.823 414.468 323.738 410.235 329.652 406.026C335.566 401.816 341.421 397.631 347.395 393.564C349.108 392.375 350.834 391.246 352.559 390.104C354.285 388.963 356.129 387.893 357.772 386.704C357.867 386.644 357.962 386.799 357.867 386.87C356.308 387.988 354.844 389.248 353.321 390.378C351.798 391.507 350.417 392.601 348.954 393.683C346.086 395.8 343.194 397.881 340.302 399.973C334.448 404.195 328.545 408.38 322.595 412.459C319.204 414.777 315.836 417.108 312.373 419.319C312.171 419.45 311.921 419.117 312.123 418.963Z" fill="#46588E"/>
<path d="M313.341 330.405C316.783 334.076 319.935 338.037 323.118 341.902C326.301 345.766 329.63 349.702 332.842 353.625L342.43 365.286C345.53 369.068 348.672 372.821 351.443 376.834C352.961 379.029 354.376 381.289 355.66 383.616C356.989 385.869 358.115 388.229 359.026 390.67C359.029 390.747 358.942 390.786 358.903 390.727C357.635 388.746 356.549 386.652 355.324 384.642C354.099 382.633 352.842 380.703 351.487 378.768C348.735 374.789 345.638 371.05 342.576 367.293C336.216 359.495 329.82 351.707 323.537 343.844C320.017 339.442 316.323 335.143 313.116 330.554C312.995 330.456 313.219 330.273 313.341 330.405Z" fill="#46588E"/>
<path d="M427.664 341.025C430.335 341.375 432.975 341.848 435.652 342.263C438.329 342.677 440.903 342.943 443.513 343.566C446.123 344.188 448.745 344.885 451.282 345.652C452.526 346.015 453.776 346.388 455.005 346.798C456.268 347.149 457.501 347.596 458.694 348.136C458.806 348.199 458.729 348.359 458.617 348.35C457.363 348.179 456.123 347.924 454.903 347.587L450.915 346.55C448.374 345.959 445.824 345.426 443.32 344.802C440.816 344.178 438.311 343.368 435.818 342.792C433.326 342.216 430.375 341.582 427.67 341.088C427.634 341.147 427.606 341.015 427.664 341.025Z" fill="#46588E"/>
<path d="M16.8253 353.362C31.3671 373.053 46.5752 395.883 50.2285 420.568C50.2285 420.949 49.6692 421.068 49.5859 420.699C47.9117 413.963 45.7604 407.355 43.1481 400.925C33.6281 398.297 24.2033 396.168 19.1815 386.656C14.0645 376.917 14.719 364.206 15.6829 353.588C15.7543 352.958 16.5278 352.934 16.8253 353.362Z" fill="#6D90FF"/>
<path d="M43.0047 400.687C36.4716 386.038 28.0702 371.329 17.3602 359.307C17.2888 359.224 17.1817 359.307 17.2531 359.426C24.2265 368 29.5339 377.346 34.7104 386.858C29.8909 381.971 24.6192 377.595 20.0615 372.411C20.0415 372.396 20.0169 372.389 19.9919 372.39C19.967 372.391 19.9433 372.401 19.9249 372.418C19.9065 372.435 19.8947 372.458 19.8914 372.483C19.8881 372.507 19.8935 372.533 19.9068 372.554C24.4407 377.988 29.4268 383.897 35.2936 387.916C36.8802 390.834 38.4669 393.755 40.0536 396.68C39.649 396.454 39.2444 396.264 38.8636 396.061C38.7922 396.061 38.7207 396.133 38.804 396.168C39.2443 396.394 39.6966 396.632 40.1607 396.834C40.9223 398.214 41.6839 399.605 42.4693 400.984C42.7192 401.27 43.1475 400.996 43.0047 400.687Z" fill="#2F2E41"/>
<path d="M38.1497 395.574C34.2378 393.391 30.5053 390.902 26.9873 388.13C26.8921 388.059 26.7493 388.19 26.8445 388.261C30.2522 391.21 33.9899 393.756 37.983 395.847C38.001 395.858 38.021 395.866 38.0418 395.869C38.0626 395.872 38.0838 395.871 38.1042 395.866C38.1247 395.861 38.1439 395.852 38.1609 395.84C38.1779 395.827 38.1923 395.812 38.2032 395.794C38.2142 395.776 38.2214 395.756 38.2247 395.735C38.2279 395.714 38.227 395.693 38.222 395.673C38.2171 395.652 38.2081 395.633 38.1957 395.616C38.1833 395.599 38.1676 395.585 38.1497 395.574Z" fill="#2F2E41"/>
<path d="M51.87 416.846C51.87 417.144 51.3345 417.132 51.3345 416.846C51.2631 408.713 51.3345 400.544 51.2155 392.387C49.1211 388.178 44.6586 385.859 41.5408 382.482C39.3065 380.026 37.362 377.321 35.7456 374.42C31.9935 367.482 29.7014 359.851 29.0102 351.995C28.1534 343.303 31.4496 314.61 35.1267 315.609C37.0188 316.121 43.183 330.33 44.8133 335.027C47.4601 342.762 49.3959 350.722 50.5967 358.808C53.6074 377.952 53.3575 397.595 51.87 416.846Z" fill="#6D90FF"/>
<path d="M51.966 381.781C51.5138 371.495 49.2052 361.115 47.0275 351.139C44.6475 340.437 41.9581 330.27 36.4246 320.687C36.3175 320.508 36.0558 320.687 36.151 320.853C39.843 328.304 42.7004 336.14 44.6713 344.218C44.3024 343.647 43.8502 343.089 43.4813 342.542C43.3385 342.328 42.9815 342.542 43.1243 342.756C43.6226 343.623 44.2045 344.439 44.8617 345.193H44.9331C46.8371 352.875 48.2056 360.734 49.3718 368.57C49.291 368.462 49.2035 368.359 49.11 368.261C49.0505 368.261 48.9553 368.261 48.991 368.356C49.1338 368.618 49.3004 368.868 49.4551 369.129C50.0501 373.113 50.6451 377.084 51.1449 381.02C44.0049 374.956 38.0549 367.821 34.5921 359.034C34.5921 359.034 34.5088 359.034 34.5207 359.034C37.8645 368.142 43.1362 376.252 51.252 381.793C51.4067 382.851 51.5495 383.909 51.7042 384.967C51.7042 385.182 52.085 385.122 52.085 384.908C52.085 383.981 52.085 383.041 52.0017 382.102C52.0207 382.079 52.0349 382.052 52.0435 382.023C52.052 381.994 52.0547 381.964 52.0514 381.934C52.0481 381.904 52.0388 381.875 52.0241 381.849C52.0095 381.822 51.9897 381.799 51.966 381.781Z" fill="#2F2E41"/>
<path d="M48.622 366.882C43.2075 358.796 38.1501 350.96 34.1874 342.03C34.1779 342.007 34.1594 341.988 34.136 341.978C34.1125 341.968 34.0861 341.967 34.0624 341.977C34.0387 341.986 34.0198 342.005 34.0097 342.028C33.9997 342.052 33.9994 342.078 34.0088 342.102C37.3527 350.972 42.0294 359.938 48.3602 367.072C48.4792 367.227 48.741 367.036 48.622 366.882Z" fill="#2F2E41"/>
<path d="M41.4215 340.033C39.1843 336.061 36.8162 332.209 34.71 328.142C34.6505 328.035 34.4958 328.142 34.5434 328.249C36.2664 332.49 38.4576 336.527 41.0764 340.282C41.2311 340.437 41.5524 340.282 41.4215 340.033Z" fill="#2F2E41"/>
<path d="M57.4162 393.338C57.5198 398.723 58.1535 404.083 59.3083 409.343L59.0585 411.103C57.4016 405.292 56.4389 399.305 56.1905 393.267C56.1437 393.181 56.1191 393.085 56.1191 392.988C56.1191 392.89 56.1437 392.794 56.1905 392.708C55.9623 384.606 56.5645 376.502 57.9875 368.523C60.5103 353.588 66.0081 339.248 76.4444 328.095C76.5302 328.012 76.6348 327.951 76.7493 327.917C76.8638 327.884 76.9848 327.878 77.1018 327.902C77.2188 327.925 77.3284 327.977 77.4211 328.052C77.5139 328.127 77.5871 328.223 77.6344 328.332C81.847 339.034 80.3714 351.769 76.7895 362.435C74.8434 368.207 72.0609 373.664 68.5309 378.63C64.8776 383.6 60.3199 387.845 57.4162 393.338Z" fill="#6D90FF"/>
<path d="M75.183 333.029C65.306 349.058 58.4278 368.059 57.5829 386.977C57.5829 387.322 58.1303 387.405 58.1779 387.06C58.4159 385.36 58.6777 383.671 58.9514 381.995C63.045 378.083 67.2814 373.957 70.1612 369.058C70.2207 368.975 70.0898 368.879 70.0303 368.951C66.64 373.13 62.9999 377.101 59.1299 380.841C59.8439 376.656 60.6769 372.518 61.6765 368.487L62.45 367.571C62.6285 367.369 62.3429 367.072 62.1644 367.274L61.9264 367.536C63.3125 361.974 65.0372 356.502 67.091 351.15C69.6019 348.154 72.4222 345.562 74.231 341.947C74.231 341.864 74.1477 341.792 74.1001 341.864C72.6245 343.933 71.1965 346.014 69.5305 347.928C68.8641 348.689 68.1263 349.403 67.4361 350.152C69.713 344.343 72.4177 338.711 75.5281 333.303C75.5499 333.256 75.5555 333.204 75.5439 333.155C75.5323 333.105 75.5042 333.061 75.4642 333.029C75.4242 332.997 75.3746 332.98 75.3235 332.98C75.2725 332.98 75.2229 332.997 75.183 333.029Z" fill="#2F2E41"/>
<path d="M73.1833 352.803C69.994 357.096 66.3526 361.186 63.3775 365.633C63.2942 365.752 63.4846 365.883 63.5917 365.788C67.3998 362.221 70.6366 357.334 73.3975 352.922C73.4808 352.779 73.2904 352.672 73.1833 352.803Z" fill="#2F2E41"/>
<path d="M62.9367 366.62L62.7935 366.763C62.6981 366.859 62.8532 367.002 62.9486 366.907L63.0799 366.775C63.1753 366.68 63.0321 366.525 62.9367 366.62Z" fill="#2F2E41"/>
<path d="M90.6644 363.838C89.4948 372.783 85.8889 381.236 80.24 388.273C77.9095 391.037 75.0279 393.284 71.7791 394.872C68.1139 396.68 64.2821 398.761 60.4979 400.247C58.6951 404.83 57.3557 409.583 56.4995 414.432C56.3805 414.016 56.2615 413.588 56.1306 413.172C58.5701 392.304 72.0885 374.468 89.3673 363.017C89.5029 362.93 89.6608 362.882 89.8223 362.881C89.9839 362.881 90.1423 362.926 90.2789 363.012C90.4154 363.099 90.5243 363.222 90.5926 363.369C90.6609 363.515 90.6858 363.678 90.6644 363.838Z" fill="#6D90FF"/>
<path d="M84.6904 370.009C84.8094 369.902 84.6904 369.688 84.5119 369.783C75.0113 376.842 67.4373 386.172 62.485 396.918C62.3541 397.203 62.7468 397.453 62.9134 397.167C63.7107 395.764 64.5318 394.385 65.3648 393.041C69.3156 392.292 73.0522 389.474 75.9796 386.882C76.0629 386.811 75.9796 386.692 75.8606 386.763C74.359 388.161 72.6832 389.36 70.8745 390.33C69.2561 391.151 67.5306 391.662 65.8527 392.316C67.3164 389.997 68.8396 387.774 70.4342 385.61C74.7121 383.998 78.7235 381.753 82.3342 378.951C82.3594 378.935 82.3774 378.91 82.3841 378.881C82.3908 378.852 82.3857 378.821 82.3699 378.796C82.3541 378.771 82.329 378.753 82.3 378.746C82.2709 378.74 82.2404 378.745 82.2152 378.761C78.6484 380.915 74.9701 382.88 71.1958 384.646C73.6064 381.474 76.2053 378.448 78.9784 375.586C80.3231 374.872 81.6797 374.159 82.9768 373.41C83.0839 373.35 82.9768 373.16 82.8935 373.208C81.8116 373.582 80.7803 374.09 79.8233 374.718C81.3584 373.077 82.9649 371.519 84.6904 370.009Z" fill="#2F2E41"/>
<path d="M84.3215 377.203C84.0899 377.348 83.8673 377.507 83.6551 377.679C83.6551 377.738 83.6551 377.822 83.7384 377.798C83.9789 377.682 84.2097 377.546 84.4286 377.393C84.5476 377.322 84.4405 377.143 84.3215 377.203Z" fill="#2F2E41"/>
<path d="M29.1536 459.629H76.5273L72.7075 416.525L71.8625 407.013H33.8183L32.9734 416.525L29.1536 459.629Z" fill="#405BB4"/>
<path d="M32.9729 416.525H72.707L71.8621 407.013H33.8178L32.9729 416.525Z" fill="#2A3B75"/>
<path d="M31.5566 400.366H74.1348V409.771H31.5566V400.366Z" fill="#405BB4"/>
<path d="M87.2588 84.0256L88.1494 84.0842C88.3682 85.053 88.8174 86.4241 89.4971 88.1975C90.1768 89.9631 90.626 91.2834 90.8447 92.1584C90.8447 92.385 90.8057 92.553 90.7275 92.6624C90.6494 92.7795 90.5518 92.8381 90.4346 92.8381C90.333 92.8381 90.2354 92.7952 90.1416 92.7092C90.0557 92.6311 89.9971 92.5178 89.9658 92.3694C89.8955 92.0256 89.6689 91.3381 89.2861 90.3069C87.6768 90.1038 86.665 89.9788 86.251 89.9319C86.1494 90.2131 86.0244 90.6702 85.876 91.303C85.7275 91.9358 85.6104 92.3733 85.5244 92.6155C85.4072 92.7561 85.2744 92.8264 85.126 92.8264C84.9619 92.8264 84.8213 92.7522 84.7041 92.6038C84.5869 92.4631 84.5283 92.2874 84.5283 92.0764C84.7783 91.1624 85.2314 89.8186 85.8877 88.0452C86.5439 86.2717 87.001 84.9319 87.2588 84.0256ZM87.6689 85.2092C87.5127 86.1545 87.0791 87.5413 86.3682 89.3694H87.6807C88.2744 89.3694 88.7705 89.3889 89.1689 89.428C88.3643 87.7014 87.8643 86.2952 87.6689 85.2092ZM96.1322 92.8264L95.4877 92.6975C95.4877 92.5413 95.4838 92.4241 95.476 92.3459C95.0619 92.6116 94.6244 92.7444 94.1635 92.7444C93.4525 92.7444 92.8979 92.4397 92.4994 91.8303C92.1088 91.2209 91.9135 90.5295 91.9135 89.7561C91.9135 89.3577 91.9408 88.9827 91.9955 88.6311C92.058 88.2795 92.1596 87.9202 92.3002 87.553C92.4486 87.178 92.6752 86.8811 92.9799 86.6624C93.2924 86.4436 93.6674 86.3342 94.1049 86.3342C94.5346 86.3342 94.9369 86.4397 95.3119 86.6506C95.3744 85.8225 95.4057 84.9866 95.4057 84.1428C95.4057 83.76 95.4018 83.4788 95.3939 83.2991C95.7689 83.3694 96.0658 83.4592 96.2846 83.5686L96.1322 92.8264ZM95.3822 91.5725L95.3471 87.7991C95.2533 87.6038 95.1049 87.4514 94.9018 87.342C94.7064 87.2249 94.4955 87.1663 94.2689 87.1663C93.9643 87.1663 93.7025 87.2639 93.4838 87.4592C93.2729 87.6545 93.1205 87.9163 93.0268 88.2444C92.9408 88.5647 92.8783 88.8655 92.8393 89.1467C92.808 89.428 92.7924 89.7249 92.7924 90.0374C92.7924 91.3655 93.2377 92.0295 94.1283 92.0295C94.4252 92.0295 94.6947 91.9905 94.9369 91.9124C95.1869 91.8264 95.3354 91.7131 95.3822 91.5725ZM102.053 92.8264L101.408 92.6975C101.408 92.5413 101.404 92.4241 101.396 92.3459C100.982 92.6116 100.545 92.7444 100.084 92.7444C99.3729 92.7444 98.8182 92.4397 98.4197 91.8303C98.0291 91.2209 97.8338 90.5295 97.8338 89.7561C97.8338 89.3577 97.8611 88.9827 97.9158 88.6311C97.9783 88.2795 98.0799 87.9202 98.2205 87.553C98.3689 87.178 98.5955 86.8811 98.9002 86.6624C99.2127 86.4436 99.5877 86.3342 100.025 86.3342C100.455 86.3342 100.857 86.4397 101.232 86.6506C101.295 85.8225 101.326 84.9866 101.326 84.1428C101.326 83.76 101.322 83.4788 101.314 83.2991C101.689 83.3694 101.986 83.4592 102.205 83.5686L102.053 92.8264ZM101.303 91.5725L101.267 87.7991C101.174 87.6038 101.025 87.4514 100.822 87.342C100.627 87.2249 100.416 87.1663 100.189 87.1663C99.8846 87.1663 99.6229 87.2639 99.4041 87.4592C99.1932 87.6545 99.0408 87.9163 98.9471 88.2444C98.8611 88.5647 98.7986 88.8655 98.7596 89.1467C98.7283 89.428 98.7127 89.7249 98.7127 90.0374C98.7127 91.3655 99.158 92.0295 100.049 92.0295C100.346 92.0295 100.615 91.9905 100.857 91.9124C101.107 91.8264 101.256 91.7131 101.303 91.5725ZM110.905 86.8499L111.034 87.3772C110.823 87.3928 110.499 87.4358 110.061 87.5061C109.624 87.5686 109.296 87.6077 109.077 87.6233C109.116 87.8967 109.139 88.2561 109.147 88.7014C109.155 89.1467 109.163 89.5334 109.171 89.8616C109.186 90.1819 109.221 90.5061 109.276 90.8342C109.338 91.1545 109.46 91.4006 109.639 91.5725C109.827 91.7444 110.077 91.8303 110.389 91.8303C110.624 91.8303 110.917 91.7756 111.268 91.6663C111.417 91.9553 111.526 92.1663 111.596 92.2991C110.979 92.5178 110.354 92.6272 109.721 92.6272C109.487 92.6272 109.284 92.5569 109.112 92.4163C108.94 92.2756 108.807 92.0999 108.713 91.8889C108.62 91.678 108.542 91.4124 108.479 91.092C108.424 90.7639 108.389 90.4553 108.374 90.1663C108.358 89.8772 108.35 89.5452 108.35 89.1702C108.35 88.967 108.35 88.6858 108.35 88.3264C108.358 87.967 108.362 87.7209 108.362 87.5881C108.284 87.5959 108.1 87.6038 107.811 87.6116C107.522 87.6116 107.354 87.6116 107.307 87.6116C107.253 87.0881 107.225 86.8186 107.225 86.803C107.28 86.8186 107.37 86.8264 107.495 86.8264C107.565 86.8264 107.678 86.8225 107.835 86.8147C107.991 86.7991 108.108 86.7913 108.186 86.7913C108.217 86.7913 108.256 86.7952 108.303 86.803C108.358 86.803 108.393 86.803 108.409 86.803C108.44 85.9436 108.475 85.2444 108.514 84.7053L109.042 84.8342C109.049 85.0217 109.053 85.2249 109.053 85.4436C109.061 85.6545 109.065 85.8928 109.065 86.1584C109.073 86.4163 109.077 86.6155 109.077 86.7561C109.28 86.7717 109.585 86.7874 109.991 86.803C110.397 86.8186 110.702 86.8342 110.905 86.8499ZM113.087 87.4592L112.853 86.8616C113.056 86.6584 113.313 86.4983 113.626 86.3811C113.938 86.2561 114.247 86.1936 114.552 86.1936C115.872 86.1936 116.532 87.3342 116.532 89.6155C116.532 89.928 116.513 90.3889 116.474 90.9983C116.442 91.6077 116.427 92.0647 116.427 92.3694C116.364 92.6116 116.243 92.7327 116.063 92.7327C115.923 92.7327 115.794 92.6624 115.677 92.5217C115.56 92.3811 115.501 92.2249 115.501 92.053C115.501 91.9983 115.505 91.9592 115.513 91.9358C115.028 92.4045 114.513 92.6389 113.966 92.6389C113.552 92.6389 113.188 92.4905 112.876 92.1936C112.571 91.8889 112.419 91.5217 112.419 91.092C112.419 90.3655 112.7 89.7092 113.263 89.1233C113.833 88.5374 114.478 88.2444 115.196 88.2444C115.228 88.2444 115.259 88.2483 115.29 88.2561C115.321 88.2561 115.356 88.26 115.396 88.2678C115.442 88.2756 115.478 88.2795 115.501 88.2795C115.438 87.3655 115.075 86.9084 114.411 86.9084C114.021 86.9084 113.579 87.092 113.087 87.4592ZM115.536 91.1272C115.552 90.5803 115.56 90.1663 115.56 89.885C115.56 89.6506 115.552 89.3225 115.536 88.9006H115.442C114.888 88.9084 114.38 89.1155 113.919 89.5217C113.466 89.928 113.239 90.4202 113.239 90.9983C113.239 91.2483 113.313 91.4475 113.462 91.5959C113.618 91.7444 113.806 91.8186 114.024 91.8186C114.368 91.8186 114.872 91.5881 115.536 91.1272ZM121.691 86.8733L121.574 87.342C120.816 87.0295 120.226 86.8733 119.804 86.8733C119.429 86.8733 119.163 86.9319 119.007 87.0491C118.859 87.1584 118.785 87.3967 118.785 87.7639C118.785 88.0608 118.89 88.3069 119.101 88.5022C119.32 88.6975 119.581 88.8538 119.886 88.9709C120.191 89.0803 120.496 89.2014 120.8 89.3342C121.113 89.4592 121.374 89.6467 121.585 89.8967C121.804 90.1467 121.913 90.4553 121.913 90.8225C121.913 91.3225 121.73 91.76 121.363 92.135C120.996 92.51 120.519 92.7014 119.933 92.7092C119.503 92.7092 119.101 92.6194 118.726 92.4397C118.351 92.26 118.054 92.0334 117.835 91.76L118.175 91.4084C118.269 91.4475 118.406 91.51 118.585 91.5959C118.773 91.6819 118.906 91.7405 118.984 91.7717C119.062 91.7952 119.175 91.8225 119.324 91.8538C119.48 91.885 119.644 91.9006 119.816 91.9006C120.183 91.9006 120.484 91.8186 120.718 91.6545C120.953 91.4905 121.07 91.26 121.07 90.9631C121.07 90.7678 121.015 90.6038 120.906 90.4709C120.796 90.3303 120.652 90.217 120.472 90.1311C120.292 90.0452 120.093 89.9631 119.874 89.885C119.663 89.8069 119.449 89.7209 119.23 89.6272C119.019 89.5256 118.824 89.4084 118.644 89.2756C118.464 89.135 118.32 88.9475 118.21 88.7131C118.101 88.4788 118.046 88.2014 118.046 87.8811C118.046 87.4124 118.171 87.0217 118.421 86.7092C118.679 86.3889 119.038 86.2288 119.499 86.2288C119.679 86.2288 119.882 86.2561 120.109 86.3108C120.335 86.3655 120.515 86.4163 120.648 86.4631C120.781 86.51 120.976 86.5881 121.234 86.6975C121.499 86.7991 121.652 86.8577 121.691 86.8733ZM127.506 92.5217L126.428 92.4983C126.138 92.2092 125.74 91.7444 125.232 91.1038C124.732 90.4553 124.416 90.0569 124.283 89.9084V92.3225C124.213 92.5569 124.076 92.6741 123.873 92.6741C123.732 92.6741 123.596 92.6194 123.463 92.51C123.338 92.3928 123.26 92.2522 123.228 92.0881C123.252 91.2834 123.263 89.9475 123.263 88.0803C123.263 86.2131 123.279 84.8733 123.31 84.0608L124.025 84.2131C124.033 84.5256 124.045 85.1663 124.06 86.135C124.084 87.1038 124.103 87.8264 124.119 88.303L126.967 86.217L127.166 86.7444C126.424 87.2834 125.553 88.0452 124.553 89.0295C124.763 89.2561 125.228 89.8108 125.947 90.6936C126.674 91.5686 127.193 92.178 127.506 92.5217Z" fill="#4F4F4F"/>
<path opacity="0.3" d="M63.3959 54.7683C49.5367 54.7683 38.3015 43.542 38.3015 29.6936C38.3015 15.8453 49.5367 4.61902 63.3959 4.61902C77.2551 4.61902 88.4902 15.8453 88.4902 29.6936C88.4902 43.542 77.2551 54.7683 63.3959 54.7683Z" fill="black"/>
<path d="M63.3959 50.1492C49.5367 50.1492 38.3015 38.923 38.3015 25.0746C38.3015 11.2263 49.5367 0 63.3959 0C77.2551 0 88.4902 11.2263 88.4902 25.0746C88.4902 38.923 77.2551 50.1492 63.3959 50.1492Z" fill="#80CC95"/>
<path d="M63.391 40.2513C64.1197 40.2513 64.7168 33.5901 64.7168 25.4045C64.7168 17.219 64.1197 10.5577 63.391 10.5577C62.6623 10.5577 62.0753 17.219 62.0753 25.4045C62.0753 33.5901 62.6724 40.2513 63.391 40.2513Z" fill="white"/>
<path d="M48.2078 25.0746C48.2078 25.8055 54.8644 26.3943 63.0663 26.3943C71.2682 26.3943 77.9248 25.8055 77.9248 25.0746C77.9248 24.3437 71.2682 23.7549 63.0663 23.7549C54.8644 23.7549 48.2078 24.3437 48.2078 25.0746Z" fill="white"/>
</svg>
