<svg width="29" height="29" viewBox="0 0 29 29" fill="none" xmlns="http://www.w3.org/2000/svg">
<path d="M15.4726 3.48481L14.7528 3.47905C13.7603 3.47115 12.83 3.85063 12.1331 4.54753C11.4308 5.24977 11.0486 6.19012 11.0565 7.19537L11.0962 22.9905C11.1066 24.3109 12.1867 25.3966 13.5036 25.4071L14.0013 25.4111C14.6647 25.4164 15.3187 25.146 15.7954 24.6692C16.2406 24.224 16.4831 23.6494 16.4784 23.0511L16.365 8.794C16.3606 8.25697 15.9233 7.81649 15.3899 7.81226L15.1241 7.81008C14.8722 7.80808 14.6362 7.9042 14.4597 8.08066C14.2814 8.25897 14.1844 8.49856 14.1864 8.75525L14.2915 21.9331C14.2943 22.3045 13.9957 22.608 13.6242 22.611C13.2528 22.614 12.9493 22.3153 12.9463 21.9438L12.8414 8.76589C12.8365 8.14584 13.0735 7.56467 13.5087 7.12949C13.942 6.69616 14.5195 6.46019 15.1349 6.46506L15.4007 6.4673C16.6639 6.47724 17.6998 7.51626 17.7099 8.78327L17.8235 23.0403C17.8311 24.002 17.4488 24.9181 16.7467 25.6202C16.0167 26.3502 15.0123 26.7641 13.9906 26.756L13.493 26.7521C11.446 26.7358 9.76752 25.0515 9.75117 22.9975L9.71149 7.20233C9.70058 5.83739 10.2228 4.55552 11.182 3.59636C12.1358 2.64259 13.4078 2.12321 14.7635 2.13404L15.4834 2.1398C16.9454 2.15148 18.424 3.35135 18.4554 3.95346C18.4557 3.95997 18.4559 3.97277 18.4559 3.97277L18.4559 4.56812H17.9354C17.7549 4.59382 17.5301 4.58784 17.2652 4.56812C17.2652 4.56812 16.3211 3.49156 15.4726 3.48481Z" fill="url(#paint0_linear)"/>
<defs>
<linearGradient id="paint0_linear" x1="1.72429" y1="16.5026" x2="44.9244" y2="12.2835" gradientUnits="userSpaceOnUse">
<stop stop-color="#F9E4B0"/>
<stop offset="1" stop-color="white" stop-opacity="0"/>
</linearGradient>
</defs>
</svg>
